%TF.GenerationSoftware,KiCad,Pcbnew,(5.1.10-1-10_14)*%
%TF.CreationDate,2022-01-07T11:11:51+01:00*%
%TF.ProjectId,burrboard,62757272-626f-4617-9264-2e6b69636164,v1.0*%
%TF.SameCoordinates,Original*%
%TF.FileFunction,Copper,L1,Top*%
%TF.FilePolarity,Positive*%
%FSLAX46Y46*%
G04 Gerber Fmt 4.6, Leading zero omitted, Abs format (unit mm)*
G04 Created by KiCad (PCBNEW (5.1.10-1-10_14)) date 2022-01-07 11:11:51*
%MOMM*%
%LPD*%
G01*
G04 APERTURE LIST*
%TA.AperFunction,SMDPad,CuDef*%
%ADD10R,1.100000X0.800000*%
%TD*%
%TA.AperFunction,SMDPad,CuDef*%
%ADD11R,1.550000X1.300000*%
%TD*%
%TA.AperFunction,SMDPad,CuDef*%
%ADD12R,1.145000X0.550000*%
%TD*%
%TA.AperFunction,SMDPad,CuDef*%
%ADD13R,0.550000X1.145000*%
%TD*%
%TA.AperFunction,ComponentPad*%
%ADD14R,3.000000X3.000000*%
%TD*%
%TA.AperFunction,ComponentPad*%
%ADD15C,3.000000*%
%TD*%
%TA.AperFunction,ComponentPad*%
%ADD16R,1.700000X1.700000*%
%TD*%
%TA.AperFunction,ComponentPad*%
%ADD17O,1.700000X1.700000*%
%TD*%
%TA.AperFunction,SMDPad,CuDef*%
%ADD18R,1.600000X1.000000*%
%TD*%
%TA.AperFunction,ViaPad*%
%ADD19C,0.762000*%
%TD*%
%TA.AperFunction,Conductor*%
%ADD20C,0.508000*%
%TD*%
%TA.AperFunction,Conductor*%
%ADD21C,0.254000*%
%TD*%
%TA.AperFunction,Conductor*%
%ADD22C,0.304800*%
%TD*%
%TA.AperFunction,Conductor*%
%ADD23C,0.100000*%
%TD*%
G04 APERTURE END LIST*
D10*
%TO.P,Q1,1*%
%TO.N,/3V3*%
X166875000Y-118110000D03*
%TO.P,Q1,3*%
%TO.N,Net-(Q1-Pad3)*%
X163325000Y-118660000D03*
%TO.P,Q1,2*%
%TO.N,/A1*%
X163325000Y-117560000D03*
%TD*%
D11*
%TO.P,S1,1*%
%TO.N,/F4*%
X135725000Y-139990000D03*
%TO.P,S1,2*%
%TO.N,Net-(S1-Pad2)*%
X143675000Y-139990000D03*
%TO.P,S1,3*%
%TO.N,Net-(S1-Pad3)*%
X135725000Y-144490000D03*
%TO.P,S1,4*%
%TO.N,GND*%
X143675000Y-144490000D03*
%TD*%
%TO.P,S2,1*%
%TO.N,/F3*%
X161125000Y-139990000D03*
%TO.P,S2,2*%
%TO.N,Net-(S2-Pad2)*%
X169075000Y-139990000D03*
%TO.P,S2,3*%
%TO.N,Net-(S2-Pad3)*%
X161125000Y-144490000D03*
%TO.P,S2,4*%
%TO.N,GND*%
X169075000Y-144490000D03*
%TD*%
D12*
%TO.P,U2,1*%
%TO.N,/3V3*%
X153497500Y-120110000D03*
%TO.P,U2,2*%
%TO.N,GND*%
X153497500Y-119310000D03*
%TO.P,U2,3*%
%TO.N,Net-(U2-Pad3)*%
X153497500Y-118510000D03*
%TO.P,U2,4*%
%TO.N,GND*%
X153497500Y-117710000D03*
%TO.P,U2,5*%
X153497500Y-116910000D03*
%TO.P,U2,6*%
%TO.N,/3V3*%
X153497500Y-116110000D03*
%TO.P,U2,8*%
%TO.N,/F1*%
X151302500Y-116110000D03*
%TO.P,U2,9*%
%TO.N,/F2*%
X151302500Y-116910000D03*
%TO.P,U2,10*%
%TO.N,Net-(U2-Pad10)*%
X151302500Y-117710000D03*
%TO.P,U2,11*%
%TO.N,Net-(U2-Pad11)*%
X151302500Y-118510000D03*
%TO.P,U2,12*%
%TO.N,/MISO*%
X151302500Y-119310000D03*
%TO.P,U2,13*%
%TO.N,/MOSI*%
X151302500Y-120110000D03*
D13*
%TO.P,U2,14*%
%TO.N,/SCK*%
X152400000Y-120207500D03*
%TO.P,U2,7*%
%TO.N,/F0*%
X152400000Y-116012500D03*
%TD*%
D14*
%TO.P,BT1,1*%
%TO.N,VDD*%
X140716000Y-104140000D03*
D15*
%TO.P,BT1,2*%
%TO.N,GND*%
X153416000Y-104140000D03*
%TD*%
%TO.P,U1,1*%
%TO.N,/A0*%
%TA.AperFunction,SMDPad,CuDef*%
G36*
G01*
X137945000Y-121560000D02*
X137645000Y-121560000D01*
G75*
G02*
X137495000Y-121410000I0J150000D01*
G01*
X137495000Y-119760000D01*
G75*
G02*
X137645000Y-119610000I150000J0D01*
G01*
X137945000Y-119610000D01*
G75*
G02*
X138095000Y-119760000I0J-150000D01*
G01*
X138095000Y-121410000D01*
G75*
G02*
X137945000Y-121560000I-150000J0D01*
G01*
G37*
%TD.AperFunction*%
%TO.P,U1,2*%
%TO.N,N/C*%
%TA.AperFunction,SMDPad,CuDef*%
G36*
G01*
X139215000Y-121560000D02*
X138915000Y-121560000D01*
G75*
G02*
X138765000Y-121410000I0J150000D01*
G01*
X138765000Y-119760000D01*
G75*
G02*
X138915000Y-119610000I150000J0D01*
G01*
X139215000Y-119610000D01*
G75*
G02*
X139365000Y-119760000I0J-150000D01*
G01*
X139365000Y-121410000D01*
G75*
G02*
X139215000Y-121560000I-150000J0D01*
G01*
G37*
%TD.AperFunction*%
%TO.P,U1,3*%
%TA.AperFunction,SMDPad,CuDef*%
G36*
G01*
X140485000Y-121560000D02*
X140185000Y-121560000D01*
G75*
G02*
X140035000Y-121410000I0J150000D01*
G01*
X140035000Y-119760000D01*
G75*
G02*
X140185000Y-119610000I150000J0D01*
G01*
X140485000Y-119610000D01*
G75*
G02*
X140635000Y-119760000I0J-150000D01*
G01*
X140635000Y-121410000D01*
G75*
G02*
X140485000Y-121560000I-150000J0D01*
G01*
G37*
%TD.AperFunction*%
%TO.P,U1,4*%
%TO.N,GND*%
%TA.AperFunction,SMDPad,CuDef*%
G36*
G01*
X141755000Y-121560000D02*
X141455000Y-121560000D01*
G75*
G02*
X141305000Y-121410000I0J150000D01*
G01*
X141305000Y-119760000D01*
G75*
G02*
X141455000Y-119610000I150000J0D01*
G01*
X141755000Y-119610000D01*
G75*
G02*
X141905000Y-119760000I0J-150000D01*
G01*
X141905000Y-121410000D01*
G75*
G02*
X141755000Y-121560000I-150000J0D01*
G01*
G37*
%TD.AperFunction*%
%TO.P,U1,5*%
%TO.N,/3V3*%
%TA.AperFunction,SMDPad,CuDef*%
G36*
G01*
X141755000Y-116610000D02*
X141455000Y-116610000D01*
G75*
G02*
X141305000Y-116460000I0J150000D01*
G01*
X141305000Y-114810000D01*
G75*
G02*
X141455000Y-114660000I150000J0D01*
G01*
X141755000Y-114660000D01*
G75*
G02*
X141905000Y-114810000I0J-150000D01*
G01*
X141905000Y-116460000D01*
G75*
G02*
X141755000Y-116610000I-150000J0D01*
G01*
G37*
%TD.AperFunction*%
%TO.P,U1,6*%
%TO.N,N/C*%
%TA.AperFunction,SMDPad,CuDef*%
G36*
G01*
X140485000Y-116610000D02*
X140185000Y-116610000D01*
G75*
G02*
X140035000Y-116460000I0J150000D01*
G01*
X140035000Y-114810000D01*
G75*
G02*
X140185000Y-114660000I150000J0D01*
G01*
X140485000Y-114660000D01*
G75*
G02*
X140635000Y-114810000I0J-150000D01*
G01*
X140635000Y-116460000D01*
G75*
G02*
X140485000Y-116610000I-150000J0D01*
G01*
G37*
%TD.AperFunction*%
%TO.P,U1,7*%
%TA.AperFunction,SMDPad,CuDef*%
G36*
G01*
X139215000Y-116610000D02*
X138915000Y-116610000D01*
G75*
G02*
X138765000Y-116460000I0J150000D01*
G01*
X138765000Y-114810000D01*
G75*
G02*
X138915000Y-114660000I150000J0D01*
G01*
X139215000Y-114660000D01*
G75*
G02*
X139365000Y-114810000I0J-150000D01*
G01*
X139365000Y-116460000D01*
G75*
G02*
X139215000Y-116610000I-150000J0D01*
G01*
G37*
%TD.AperFunction*%
%TO.P,U1,8*%
%TO.N,/3V3*%
%TA.AperFunction,SMDPad,CuDef*%
G36*
G01*
X137945000Y-116610000D02*
X137645000Y-116610000D01*
G75*
G02*
X137495000Y-116460000I0J150000D01*
G01*
X137495000Y-114810000D01*
G75*
G02*
X137645000Y-114660000I150000J0D01*
G01*
X137945000Y-114660000D01*
G75*
G02*
X138095000Y-114810000I0J-150000D01*
G01*
X138095000Y-116460000D01*
G75*
G02*
X137945000Y-116610000I-150000J0D01*
G01*
G37*
%TD.AperFunction*%
%TD*%
D16*
%TO.P,J1,1*%
%TO.N,Net-(J1-Pad1)*%
X171450000Y-99060000D03*
D17*
%TO.P,J1,2*%
%TO.N,Net-(J1-Pad2)*%
X168910000Y-99060000D03*
%TO.P,J1,3*%
%TO.N,Net-(J1-Pad3)*%
X166370000Y-99060000D03*
%TO.P,J1,4*%
%TO.N,/MISO*%
X163830000Y-99060000D03*
%TO.P,J1,5*%
%TO.N,/MOSI*%
X161290000Y-99060000D03*
%TO.P,J1,6*%
%TO.N,/SCK*%
X158750000Y-99060000D03*
%TO.P,J1,7*%
%TO.N,Net-(J1-Pad7)*%
X156210000Y-99060000D03*
%TO.P,J1,8*%
%TO.N,Net-(J1-Pad8)*%
X153670000Y-99060000D03*
%TO.P,J1,9*%
%TO.N,Net-(J1-Pad9)*%
X151130000Y-99060000D03*
%TO.P,J1,10*%
%TO.N,Net-(J1-Pad10)*%
X148590000Y-99060000D03*
%TO.P,J1,11*%
%TO.N,/A1*%
X146050000Y-99060000D03*
%TO.P,J1,12*%
%TO.N,/A0*%
X143510000Y-99060000D03*
%TO.P,J1,13*%
%TO.N,GND*%
X140970000Y-99060000D03*
%TO.P,J1,14*%
%TO.N,Net-(J1-Pad14)*%
X138430000Y-99060000D03*
%TO.P,J1,15*%
%TO.N,/3V3*%
X135890000Y-99060000D03*
%TO.P,J1,16*%
%TO.N,Net-(J1-Pad16)*%
X133350000Y-99060000D03*
%TD*%
D16*
%TO.P,J2,1*%
%TO.N,Net-(J2-Pad1)*%
X171450000Y-78740000D03*
D17*
%TO.P,J2,2*%
%TO.N,Net-(J2-Pad2)*%
X168910000Y-78740000D03*
%TO.P,J2,3*%
%TO.N,/F0*%
X166370000Y-78740000D03*
%TO.P,J2,4*%
%TO.N,/F1*%
X163830000Y-78740000D03*
%TO.P,J2,5*%
%TO.N,/F2*%
X161290000Y-78740000D03*
%TO.P,J2,6*%
%TO.N,/F3*%
X158750000Y-78740000D03*
%TO.P,J2,7*%
%TO.N,/F4*%
X156210000Y-78740000D03*
%TO.P,J2,8*%
%TO.N,Net-(J2-Pad8)*%
X153670000Y-78740000D03*
%TO.P,J2,9*%
%TO.N,Net-(J2-Pad9)*%
X151130000Y-78740000D03*
%TO.P,J2,10*%
%TO.N,/VUSB*%
X148590000Y-78740000D03*
%TO.P,J2,11*%
%TO.N,/EN*%
X146050000Y-78740000D03*
%TO.P,J2,12*%
%TO.N,Net-(J2-Pad12)*%
X143510000Y-78740000D03*
%TD*%
%TO.P,C1,1*%
%TO.N,/3V3*%
%TA.AperFunction,SMDPad,CuDef*%
G36*
G01*
X134907000Y-116485000D02*
X135857000Y-116485000D01*
G75*
G02*
X136107000Y-116735000I0J-250000D01*
G01*
X136107000Y-117410000D01*
G75*
G02*
X135857000Y-117660000I-250000J0D01*
G01*
X134907000Y-117660000D01*
G75*
G02*
X134657000Y-117410000I0J250000D01*
G01*
X134657000Y-116735000D01*
G75*
G02*
X134907000Y-116485000I250000J0D01*
G01*
G37*
%TD.AperFunction*%
%TO.P,C1,2*%
%TO.N,GND*%
%TA.AperFunction,SMDPad,CuDef*%
G36*
G01*
X134907000Y-118560000D02*
X135857000Y-118560000D01*
G75*
G02*
X136107000Y-118810000I0J-250000D01*
G01*
X136107000Y-119485000D01*
G75*
G02*
X135857000Y-119735000I-250000J0D01*
G01*
X134907000Y-119735000D01*
G75*
G02*
X134657000Y-119485000I0J250000D01*
G01*
X134657000Y-118810000D01*
G75*
G02*
X134907000Y-118560000I250000J0D01*
G01*
G37*
%TD.AperFunction*%
%TD*%
%TO.P,C2,2*%
%TO.N,GND*%
%TA.AperFunction,SMDPad,CuDef*%
G36*
G01*
X157676000Y-121480600D02*
X157676000Y-120530600D01*
G75*
G02*
X157926000Y-120280600I250000J0D01*
G01*
X158601000Y-120280600D01*
G75*
G02*
X158851000Y-120530600I0J-250000D01*
G01*
X158851000Y-121480600D01*
G75*
G02*
X158601000Y-121730600I-250000J0D01*
G01*
X157926000Y-121730600D01*
G75*
G02*
X157676000Y-121480600I0J250000D01*
G01*
G37*
%TD.AperFunction*%
%TO.P,C2,1*%
%TO.N,/3V3*%
%TA.AperFunction,SMDPad,CuDef*%
G36*
G01*
X155601000Y-121480600D02*
X155601000Y-120530600D01*
G75*
G02*
X155851000Y-120280600I250000J0D01*
G01*
X156526000Y-120280600D01*
G75*
G02*
X156776000Y-120530600I0J-250000D01*
G01*
X156776000Y-121480600D01*
G75*
G02*
X156526000Y-121730600I-250000J0D01*
G01*
X155851000Y-121730600D01*
G75*
G02*
X155601000Y-121480600I0J250000D01*
G01*
G37*
%TD.AperFunction*%
%TD*%
%TO.P,C3,2*%
%TO.N,GND*%
%TA.AperFunction,SMDPad,CuDef*%
G36*
G01*
X157676000Y-116451400D02*
X157676000Y-115501400D01*
G75*
G02*
X157926000Y-115251400I250000J0D01*
G01*
X158601000Y-115251400D01*
G75*
G02*
X158851000Y-115501400I0J-250000D01*
G01*
X158851000Y-116451400D01*
G75*
G02*
X158601000Y-116701400I-250000J0D01*
G01*
X157926000Y-116701400D01*
G75*
G02*
X157676000Y-116451400I0J250000D01*
G01*
G37*
%TD.AperFunction*%
%TO.P,C3,1*%
%TO.N,/3V3*%
%TA.AperFunction,SMDPad,CuDef*%
G36*
G01*
X155601000Y-116451400D02*
X155601000Y-115501400D01*
G75*
G02*
X155851000Y-115251400I250000J0D01*
G01*
X156526000Y-115251400D01*
G75*
G02*
X156776000Y-115501400I0J-250000D01*
G01*
X156776000Y-116451400D01*
G75*
G02*
X156526000Y-116701400I-250000J0D01*
G01*
X155851000Y-116701400D01*
G75*
G02*
X155601000Y-116451400I0J250000D01*
G01*
G37*
%TD.AperFunction*%
%TD*%
%TO.P,C4,1*%
%TO.N,/3V3*%
%TA.AperFunction,SMDPad,CuDef*%
G36*
G01*
X155601000Y-118966000D02*
X155601000Y-118016000D01*
G75*
G02*
X155851000Y-117766000I250000J0D01*
G01*
X156526000Y-117766000D01*
G75*
G02*
X156776000Y-118016000I0J-250000D01*
G01*
X156776000Y-118966000D01*
G75*
G02*
X156526000Y-119216000I-250000J0D01*
G01*
X155851000Y-119216000D01*
G75*
G02*
X155601000Y-118966000I0J250000D01*
G01*
G37*
%TD.AperFunction*%
%TO.P,C4,2*%
%TO.N,GND*%
%TA.AperFunction,SMDPad,CuDef*%
G36*
G01*
X157676000Y-118966000D02*
X157676000Y-118016000D01*
G75*
G02*
X157926000Y-117766000I250000J0D01*
G01*
X158601000Y-117766000D01*
G75*
G02*
X158851000Y-118016000I0J-250000D01*
G01*
X158851000Y-118966000D01*
G75*
G02*
X158601000Y-119216000I-250000J0D01*
G01*
X157926000Y-119216000D01*
G75*
G02*
X157676000Y-118966000I0J250000D01*
G01*
G37*
%TD.AperFunction*%
%TD*%
%TO.P,R1,1*%
%TO.N,/A1*%
%TA.AperFunction,SMDPad,CuDef*%
G36*
G01*
X163437000Y-114750001D02*
X163437000Y-113849999D01*
G75*
G02*
X163686999Y-113600000I249999J0D01*
G01*
X164387001Y-113600000D01*
G75*
G02*
X164637000Y-113849999I0J-249999D01*
G01*
X164637000Y-114750001D01*
G75*
G02*
X164387001Y-115000000I-249999J0D01*
G01*
X163686999Y-115000000D01*
G75*
G02*
X163437000Y-114750001I0J249999D01*
G01*
G37*
%TD.AperFunction*%
%TO.P,R1,2*%
%TO.N,GND*%
%TA.AperFunction,SMDPad,CuDef*%
G36*
G01*
X165437000Y-114750001D02*
X165437000Y-113849999D01*
G75*
G02*
X165686999Y-113600000I249999J0D01*
G01*
X166387001Y-113600000D01*
G75*
G02*
X166637000Y-113849999I0J-249999D01*
G01*
X166637000Y-114750001D01*
G75*
G02*
X166387001Y-115000000I-249999J0D01*
G01*
X165686999Y-115000000D01*
G75*
G02*
X165437000Y-114750001I0J249999D01*
G01*
G37*
%TD.AperFunction*%
%TD*%
D18*
%TO.P,S3,3*%
%TO.N,Net-(S3-Pad3)*%
X132010000Y-110450000D03*
%TO.P,S3,2*%
%TO.N,VDD*%
X132010000Y-107950000D03*
%TO.P,S3,1*%
%TO.N,/VUSB*%
X132010000Y-105450000D03*
%TO.P,S3,6*%
%TO.N,GND*%
X129610000Y-110450000D03*
%TO.P,S3,5*%
%TO.N,/EN*%
X129610000Y-107950000D03*
%TO.P,S3,4*%
%TO.N,Net-(S3-Pad4)*%
X129610000Y-105450000D03*
%TD*%
D19*
%TO.N,/3V3*%
X159004000Y-114427000D03*
X154152600Y-122301000D03*
X167894000Y-113284000D03*
X135890000Y-113741200D03*
%TD*%
D20*
%TO.N,VDD*%
X136906000Y-107950000D02*
X140716000Y-104140000D01*
X132010000Y-107950000D02*
X136906000Y-107950000D01*
D21*
%TO.N,/MISO*%
X163830000Y-99060000D02*
X148590000Y-114300000D01*
X150476000Y-119310000D02*
X151302500Y-119310000D01*
X148590000Y-117424000D02*
X150476000Y-119310000D01*
X148590000Y-114300000D02*
X148590000Y-117424000D01*
%TO.N,/MOSI*%
X161290000Y-99060000D02*
X161290000Y-100584000D01*
X150476000Y-120110000D02*
X151302500Y-120110000D01*
X148132790Y-117766790D02*
X150476000Y-120110000D01*
X148132790Y-113741210D02*
X148132790Y-117766790D01*
X161290000Y-100584000D02*
X148132790Y-113741210D01*
%TO.N,/SCK*%
X158750000Y-99060000D02*
X158750000Y-102108000D01*
X152400000Y-120505000D02*
X152400000Y-120207500D01*
X150753408Y-121034000D02*
X151871000Y-121034000D01*
X147675581Y-117956173D02*
X150753408Y-121034000D01*
X147675580Y-113182420D02*
X147675581Y-117956173D01*
X151871000Y-121034000D02*
X152400000Y-120505000D01*
X158750000Y-102108000D02*
X147675580Y-113182420D01*
%TO.N,/A1*%
X163325000Y-115187000D02*
X164212000Y-114300000D01*
X163325000Y-117560000D02*
X163325000Y-115187000D01*
X163325000Y-117929799D02*
X163325000Y-117560000D01*
X162510839Y-117929799D02*
X163325000Y-117929799D01*
X161798000Y-118642638D02*
X162510839Y-117929799D01*
X161798000Y-120650000D02*
X161798000Y-118642638D01*
X146050000Y-99060000D02*
X145161000Y-99949000D01*
X145161000Y-118491000D02*
X150749000Y-124079000D01*
X158369000Y-124079000D02*
X161798000Y-120650000D01*
X145161000Y-99949000D02*
X145161000Y-118491000D01*
X150749000Y-124079000D02*
X158369000Y-124079000D01*
%TO.N,/A0*%
X144373600Y-119470522D02*
X144373600Y-99923600D01*
X141953912Y-121890210D02*
X144373600Y-119470522D01*
X138125210Y-121890210D02*
X141953912Y-121890210D01*
X137795000Y-121560000D02*
X138125210Y-121890210D01*
X144373600Y-99923600D02*
X143510000Y-99060000D01*
X137795000Y-120585000D02*
X137795000Y-121560000D01*
D22*
%TO.N,/3V3*%
X141605000Y-114660000D02*
X141605000Y-115635000D01*
X137795000Y-114660000D02*
X138150610Y-114304390D01*
X141249390Y-114304390D02*
X141605000Y-114660000D01*
X138150610Y-114304390D02*
X141249390Y-114304390D01*
X137795000Y-115635000D02*
X137795000Y-114660000D01*
X135890000Y-113730000D02*
X137795000Y-115635000D01*
X141605000Y-115635000D02*
X141896000Y-115635000D01*
X167894000Y-117091000D02*
X166875000Y-118110000D01*
X167894000Y-113284000D02*
X167894000Y-117091000D01*
X136357500Y-117072500D02*
X137795000Y-115635000D01*
X135382000Y-117072500D02*
X136357500Y-117072500D01*
X153497500Y-121645900D02*
X154152600Y-122301000D01*
X153497500Y-120110000D02*
X153497500Y-121645900D01*
X157737900Y-114427000D02*
X156188500Y-115976400D01*
X159004000Y-114427000D02*
X157737900Y-114427000D01*
X153631100Y-115976400D02*
X153497500Y-116110000D01*
X156188500Y-115976400D02*
X153631100Y-115976400D01*
X156188500Y-115976400D02*
X156188500Y-118491000D01*
X156188500Y-118491000D02*
X156188500Y-121005600D01*
X135890000Y-113730000D02*
X135890000Y-113741200D01*
D21*
%TO.N,/F0*%
X152400000Y-115765638D02*
X152400000Y-116012500D01*
X167925437Y-100240201D02*
X152400000Y-115765638D01*
X169476497Y-100240201D02*
X167925437Y-100240201D01*
X170090201Y-99626497D02*
X169476497Y-100240201D01*
X170090201Y-82460201D02*
X170090201Y-99626497D01*
X166370000Y-78740000D02*
X170090201Y-82460201D01*
%TO.N,/F1*%
X167550201Y-82460201D02*
X163830000Y-78740000D01*
X166936497Y-100240201D02*
X167550201Y-99626497D01*
X166643299Y-100240201D02*
X166936497Y-100240201D01*
X167550201Y-99626497D02*
X167550201Y-82460201D01*
X151302500Y-115581000D02*
X166643299Y-100240201D01*
X151302500Y-116110000D02*
X151302500Y-115581000D01*
%TO.N,/F2*%
X165010201Y-82460201D02*
X165010201Y-99911799D01*
X161290000Y-78740000D02*
X165010201Y-82460201D01*
X165010201Y-99911799D02*
X149606000Y-115316000D01*
X150476000Y-116910000D02*
X151302500Y-116910000D01*
X149606000Y-116040000D02*
X150476000Y-116910000D01*
X149606000Y-115316000D02*
X149606000Y-116040000D01*
%TO.N,/F3*%
X175056800Y-126058200D02*
X161125000Y-139990000D01*
X175056800Y-78282800D02*
X175056800Y-126058200D01*
X174333799Y-77559799D02*
X175056800Y-78282800D01*
X159930201Y-77559799D02*
X174333799Y-77559799D01*
X158750000Y-78740000D02*
X159930201Y-77559799D01*
%TO.N,/F4*%
X156210000Y-78740000D02*
X156210000Y-78994000D01*
X156210000Y-78994000D02*
X154178000Y-76962000D01*
X154178000Y-76962000D02*
X141732000Y-76962000D01*
X141732000Y-76962000D02*
X127609600Y-91084400D01*
X127609600Y-131874600D02*
X135725000Y-139990000D01*
X127609600Y-91084400D02*
X127609600Y-131874600D01*
D20*
%TO.N,/VUSB*%
X132010000Y-98465342D02*
X148590000Y-81885342D01*
X148590000Y-81885342D02*
X148590000Y-78740000D01*
X132010000Y-105450000D02*
X132010000Y-98465342D01*
D21*
%TO.N,/EN*%
X129610000Y-107950000D02*
X128270000Y-106610000D01*
X128270000Y-106610000D02*
X128301600Y-106610000D01*
X128301600Y-96488400D02*
X146050000Y-78740000D01*
X128301600Y-106610000D02*
X128301600Y-96488400D01*
%TD*%
%TO.N,GND*%
X177394000Y-154534000D02*
X127406000Y-154534000D01*
X127406000Y-143840000D01*
X134567157Y-143840000D01*
X134567157Y-145140000D01*
X134574513Y-145214689D01*
X134596299Y-145286508D01*
X134631678Y-145352696D01*
X134679289Y-145410711D01*
X134737304Y-145458322D01*
X134803492Y-145493701D01*
X134875311Y-145515487D01*
X134950000Y-145522843D01*
X136500000Y-145522843D01*
X136574689Y-145515487D01*
X136646508Y-145493701D01*
X136712696Y-145458322D01*
X136770711Y-145410711D01*
X136818322Y-145352696D01*
X136853701Y-145286508D01*
X136875487Y-145214689D01*
X136882843Y-145140000D01*
X142261928Y-145140000D01*
X142274188Y-145264482D01*
X142310498Y-145384180D01*
X142369463Y-145494494D01*
X142448815Y-145591185D01*
X142545506Y-145670537D01*
X142655820Y-145729502D01*
X142775518Y-145765812D01*
X142900000Y-145778072D01*
X143389250Y-145775000D01*
X143548000Y-145616250D01*
X143548000Y-144617000D01*
X143802000Y-144617000D01*
X143802000Y-145616250D01*
X143960750Y-145775000D01*
X144450000Y-145778072D01*
X144574482Y-145765812D01*
X144694180Y-145729502D01*
X144804494Y-145670537D01*
X144901185Y-145591185D01*
X144980537Y-145494494D01*
X145039502Y-145384180D01*
X145075812Y-145264482D01*
X145088072Y-145140000D01*
X145085000Y-144775750D01*
X144926250Y-144617000D01*
X143802000Y-144617000D01*
X143548000Y-144617000D01*
X142423750Y-144617000D01*
X142265000Y-144775750D01*
X142261928Y-145140000D01*
X136882843Y-145140000D01*
X136882843Y-143840000D01*
X142261928Y-143840000D01*
X142265000Y-144204250D01*
X142423750Y-144363000D01*
X143548000Y-144363000D01*
X143548000Y-143363750D01*
X143802000Y-143363750D01*
X143802000Y-144363000D01*
X144926250Y-144363000D01*
X145085000Y-144204250D01*
X145088072Y-143840000D01*
X159967157Y-143840000D01*
X159967157Y-145140000D01*
X159974513Y-145214689D01*
X159996299Y-145286508D01*
X160031678Y-145352696D01*
X160079289Y-145410711D01*
X160137304Y-145458322D01*
X160203492Y-145493701D01*
X160275311Y-145515487D01*
X160350000Y-145522843D01*
X161900000Y-145522843D01*
X161974689Y-145515487D01*
X162046508Y-145493701D01*
X162112696Y-145458322D01*
X162170711Y-145410711D01*
X162218322Y-145352696D01*
X162253701Y-145286508D01*
X162275487Y-145214689D01*
X162282843Y-145140000D01*
X167661928Y-145140000D01*
X167674188Y-145264482D01*
X167710498Y-145384180D01*
X167769463Y-145494494D01*
X167848815Y-145591185D01*
X167945506Y-145670537D01*
X168055820Y-145729502D01*
X168175518Y-145765812D01*
X168300000Y-145778072D01*
X168789250Y-145775000D01*
X168948000Y-145616250D01*
X168948000Y-144617000D01*
X169202000Y-144617000D01*
X169202000Y-145616250D01*
X169360750Y-145775000D01*
X169850000Y-145778072D01*
X169974482Y-145765812D01*
X170094180Y-145729502D01*
X170204494Y-145670537D01*
X170301185Y-145591185D01*
X170380537Y-145494494D01*
X170439502Y-145384180D01*
X170475812Y-145264482D01*
X170488072Y-145140000D01*
X170485000Y-144775750D01*
X170326250Y-144617000D01*
X169202000Y-144617000D01*
X168948000Y-144617000D01*
X167823750Y-144617000D01*
X167665000Y-144775750D01*
X167661928Y-145140000D01*
X162282843Y-145140000D01*
X162282843Y-143840000D01*
X167661928Y-143840000D01*
X167665000Y-144204250D01*
X167823750Y-144363000D01*
X168948000Y-144363000D01*
X168948000Y-143363750D01*
X169202000Y-143363750D01*
X169202000Y-144363000D01*
X170326250Y-144363000D01*
X170485000Y-144204250D01*
X170488072Y-143840000D01*
X170475812Y-143715518D01*
X170439502Y-143595820D01*
X170380537Y-143485506D01*
X170301185Y-143388815D01*
X170204494Y-143309463D01*
X170094180Y-143250498D01*
X169974482Y-143214188D01*
X169850000Y-143201928D01*
X169360750Y-143205000D01*
X169202000Y-143363750D01*
X168948000Y-143363750D01*
X168789250Y-143205000D01*
X168300000Y-143201928D01*
X168175518Y-143214188D01*
X168055820Y-143250498D01*
X167945506Y-143309463D01*
X167848815Y-143388815D01*
X167769463Y-143485506D01*
X167710498Y-143595820D01*
X167674188Y-143715518D01*
X167661928Y-143840000D01*
X162282843Y-143840000D01*
X162275487Y-143765311D01*
X162253701Y-143693492D01*
X162218322Y-143627304D01*
X162170711Y-143569289D01*
X162112696Y-143521678D01*
X162046508Y-143486299D01*
X161974689Y-143464513D01*
X161900000Y-143457157D01*
X160350000Y-143457157D01*
X160275311Y-143464513D01*
X160203492Y-143486299D01*
X160137304Y-143521678D01*
X160079289Y-143569289D01*
X160031678Y-143627304D01*
X159996299Y-143693492D01*
X159974513Y-143765311D01*
X159967157Y-143840000D01*
X145088072Y-143840000D01*
X145075812Y-143715518D01*
X145039502Y-143595820D01*
X144980537Y-143485506D01*
X144901185Y-143388815D01*
X144804494Y-143309463D01*
X144694180Y-143250498D01*
X144574482Y-143214188D01*
X144450000Y-143201928D01*
X143960750Y-143205000D01*
X143802000Y-143363750D01*
X143548000Y-143363750D01*
X143389250Y-143205000D01*
X142900000Y-143201928D01*
X142775518Y-143214188D01*
X142655820Y-143250498D01*
X142545506Y-143309463D01*
X142448815Y-143388815D01*
X142369463Y-143485506D01*
X142310498Y-143595820D01*
X142274188Y-143715518D01*
X142261928Y-143840000D01*
X136882843Y-143840000D01*
X136875487Y-143765311D01*
X136853701Y-143693492D01*
X136818322Y-143627304D01*
X136770711Y-143569289D01*
X136712696Y-143521678D01*
X136646508Y-143486299D01*
X136574689Y-143464513D01*
X136500000Y-143457157D01*
X134950000Y-143457157D01*
X134875311Y-143464513D01*
X134803492Y-143486299D01*
X134737304Y-143521678D01*
X134679289Y-143569289D01*
X134631678Y-143627304D01*
X134596299Y-143693492D01*
X134574513Y-143765311D01*
X134567157Y-143840000D01*
X127406000Y-143840000D01*
X127406000Y-132389420D01*
X134567157Y-139550577D01*
X134567157Y-140640000D01*
X134574513Y-140714689D01*
X134596299Y-140786508D01*
X134631678Y-140852696D01*
X134679289Y-140910711D01*
X134737304Y-140958322D01*
X134803492Y-140993701D01*
X134875311Y-141015487D01*
X134950000Y-141022843D01*
X136500000Y-141022843D01*
X136574689Y-141015487D01*
X136646508Y-140993701D01*
X136712696Y-140958322D01*
X136770711Y-140910711D01*
X136818322Y-140852696D01*
X136853701Y-140786508D01*
X136875487Y-140714689D01*
X136882843Y-140640000D01*
X136882843Y-139340000D01*
X142517157Y-139340000D01*
X142517157Y-140640000D01*
X142524513Y-140714689D01*
X142546299Y-140786508D01*
X142581678Y-140852696D01*
X142629289Y-140910711D01*
X142687304Y-140958322D01*
X142753492Y-140993701D01*
X142825311Y-141015487D01*
X142900000Y-141022843D01*
X144450000Y-141022843D01*
X144524689Y-141015487D01*
X144596508Y-140993701D01*
X144662696Y-140958322D01*
X144720711Y-140910711D01*
X144768322Y-140852696D01*
X144803701Y-140786508D01*
X144825487Y-140714689D01*
X144832843Y-140640000D01*
X144832843Y-139340000D01*
X144825487Y-139265311D01*
X144803701Y-139193492D01*
X144768322Y-139127304D01*
X144720711Y-139069289D01*
X144662696Y-139021678D01*
X144596508Y-138986299D01*
X144524689Y-138964513D01*
X144450000Y-138957157D01*
X142900000Y-138957157D01*
X142825311Y-138964513D01*
X142753492Y-138986299D01*
X142687304Y-139021678D01*
X142629289Y-139069289D01*
X142581678Y-139127304D01*
X142546299Y-139193492D01*
X142524513Y-139265311D01*
X142517157Y-139340000D01*
X136882843Y-139340000D01*
X136875487Y-139265311D01*
X136853701Y-139193492D01*
X136818322Y-139127304D01*
X136770711Y-139069289D01*
X136712696Y-139021678D01*
X136646508Y-138986299D01*
X136574689Y-138964513D01*
X136500000Y-138957157D01*
X135410577Y-138957157D01*
X128117600Y-131664180D01*
X128117600Y-127652577D01*
X138610000Y-127652577D01*
X138610000Y-128067423D01*
X138690932Y-128474298D01*
X138849687Y-128857565D01*
X139080163Y-129202497D01*
X139373503Y-129495837D01*
X139718435Y-129726313D01*
X140101702Y-129885068D01*
X140508577Y-129966000D01*
X140923423Y-129966000D01*
X141330298Y-129885068D01*
X141713565Y-129726313D01*
X142058497Y-129495837D01*
X142351837Y-129202497D01*
X142582313Y-128857565D01*
X142741068Y-128474298D01*
X142822000Y-128067423D01*
X142822000Y-127652577D01*
X162110000Y-127652577D01*
X162110000Y-128067423D01*
X162190932Y-128474298D01*
X162349687Y-128857565D01*
X162580163Y-129202497D01*
X162873503Y-129495837D01*
X163218435Y-129726313D01*
X163601702Y-129885068D01*
X164008577Y-129966000D01*
X164423423Y-129966000D01*
X164830298Y-129885068D01*
X165213565Y-129726313D01*
X165558497Y-129495837D01*
X165851837Y-129202497D01*
X166082313Y-128857565D01*
X166241068Y-128474298D01*
X166322000Y-128067423D01*
X166322000Y-127652577D01*
X166241068Y-127245702D01*
X166082313Y-126862435D01*
X165851837Y-126517503D01*
X165558497Y-126224163D01*
X165213565Y-125993687D01*
X164830298Y-125834932D01*
X164423423Y-125754000D01*
X164008577Y-125754000D01*
X163601702Y-125834932D01*
X163218435Y-125993687D01*
X162873503Y-126224163D01*
X162580163Y-126517503D01*
X162349687Y-126862435D01*
X162190932Y-127245702D01*
X162110000Y-127652577D01*
X142822000Y-127652577D01*
X142741068Y-127245702D01*
X142582313Y-126862435D01*
X142351837Y-126517503D01*
X142058497Y-126224163D01*
X141713565Y-125993687D01*
X141330298Y-125834932D01*
X140923423Y-125754000D01*
X140508577Y-125754000D01*
X140101702Y-125834932D01*
X139718435Y-125993687D01*
X139373503Y-126224163D01*
X139080163Y-126517503D01*
X138849687Y-126862435D01*
X138690932Y-127245702D01*
X138610000Y-127652577D01*
X128117600Y-127652577D01*
X128117600Y-119735000D01*
X134018928Y-119735000D01*
X134031188Y-119859482D01*
X134067498Y-119979180D01*
X134126463Y-120089494D01*
X134205815Y-120186185D01*
X134302506Y-120265537D01*
X134412820Y-120324502D01*
X134532518Y-120360812D01*
X134657000Y-120373072D01*
X135096250Y-120370000D01*
X135255000Y-120211250D01*
X135255000Y-119274500D01*
X135509000Y-119274500D01*
X135509000Y-120211250D01*
X135667750Y-120370000D01*
X136107000Y-120373072D01*
X136231482Y-120360812D01*
X136351180Y-120324502D01*
X136461494Y-120265537D01*
X136558185Y-120186185D01*
X136637537Y-120089494D01*
X136696502Y-119979180D01*
X136732812Y-119859482D01*
X136742609Y-119760000D01*
X137112157Y-119760000D01*
X137112157Y-121410000D01*
X137122395Y-121513953D01*
X137152717Y-121613910D01*
X137201957Y-121706032D01*
X137268223Y-121786777D01*
X137348968Y-121853043D01*
X137401266Y-121880997D01*
X137408827Y-121890210D01*
X137434053Y-121920948D01*
X137453430Y-121936850D01*
X137748355Y-122231775D01*
X137764262Y-122251158D01*
X137813498Y-122291564D01*
X137841614Y-122314639D01*
X137851835Y-122320102D01*
X137929867Y-122361811D01*
X138025625Y-122390859D01*
X138100263Y-122398210D01*
X138100265Y-122398210D01*
X138125209Y-122400667D01*
X138150153Y-122398210D01*
X141928968Y-122398210D01*
X141953912Y-122400667D01*
X141978856Y-122398210D01*
X141978859Y-122398210D01*
X142053497Y-122390859D01*
X142149255Y-122361811D01*
X142237507Y-122314639D01*
X142314860Y-122251158D01*
X142330767Y-122231775D01*
X144715165Y-119847377D01*
X144734548Y-119831470D01*
X144798029Y-119754117D01*
X144845201Y-119665865D01*
X144874249Y-119570107D01*
X144881600Y-119495469D01*
X144881600Y-119495466D01*
X144884057Y-119470522D01*
X144881600Y-119445578D01*
X144881600Y-118930020D01*
X150372150Y-124420571D01*
X150388052Y-124439948D01*
X150407429Y-124455850D01*
X150465404Y-124503429D01*
X150553655Y-124550600D01*
X150553657Y-124550601D01*
X150649415Y-124579649D01*
X150724053Y-124587000D01*
X150724055Y-124587000D01*
X150748999Y-124589457D01*
X150773943Y-124587000D01*
X158344056Y-124587000D01*
X158369000Y-124589457D01*
X158393944Y-124587000D01*
X158393947Y-124587000D01*
X158468585Y-124579649D01*
X158564343Y-124550601D01*
X158652595Y-124503429D01*
X158729948Y-124439948D01*
X158745855Y-124420565D01*
X162139571Y-121026850D01*
X162158948Y-121010948D01*
X162177624Y-120988190D01*
X162222429Y-120933596D01*
X162269600Y-120845345D01*
X162271629Y-120838656D01*
X162298649Y-120749585D01*
X162306000Y-120674947D01*
X162306000Y-120674945D01*
X162308457Y-120650001D01*
X162306000Y-120625057D01*
X162306000Y-118853058D01*
X162392157Y-118766901D01*
X162392157Y-119060000D01*
X162399513Y-119134689D01*
X162421299Y-119206508D01*
X162456678Y-119272696D01*
X162504289Y-119330711D01*
X162562304Y-119378322D01*
X162628492Y-119413701D01*
X162700311Y-119435487D01*
X162775000Y-119442843D01*
X163875000Y-119442843D01*
X163949689Y-119435487D01*
X164021508Y-119413701D01*
X164087696Y-119378322D01*
X164145711Y-119330711D01*
X164193322Y-119272696D01*
X164228701Y-119206508D01*
X164250487Y-119134689D01*
X164257843Y-119060000D01*
X164257843Y-118260000D01*
X164250487Y-118185311D01*
X164228701Y-118113492D01*
X164226834Y-118110000D01*
X164228701Y-118106508D01*
X164250487Y-118034689D01*
X164257843Y-117960000D01*
X164257843Y-117710000D01*
X165942157Y-117710000D01*
X165942157Y-118510000D01*
X165949513Y-118584689D01*
X165971299Y-118656508D01*
X166006678Y-118722696D01*
X166054289Y-118780711D01*
X166112304Y-118828322D01*
X166178492Y-118863701D01*
X166250311Y-118885487D01*
X166325000Y-118892843D01*
X167425000Y-118892843D01*
X167499689Y-118885487D01*
X167571508Y-118863701D01*
X167637696Y-118828322D01*
X167695711Y-118780711D01*
X167743322Y-118722696D01*
X167778701Y-118656508D01*
X167800487Y-118584689D01*
X167807843Y-118510000D01*
X167807843Y-117931498D01*
X168252645Y-117486696D01*
X168272995Y-117469995D01*
X168339651Y-117388775D01*
X168389181Y-117296111D01*
X168419681Y-117195565D01*
X168427400Y-117117195D01*
X168427400Y-117117194D01*
X168429980Y-117091000D01*
X168427400Y-117064806D01*
X168427400Y-113828231D01*
X168485884Y-113769747D01*
X168569276Y-113644942D01*
X168626717Y-113506267D01*
X168656000Y-113359050D01*
X168656000Y-113208950D01*
X168626717Y-113061733D01*
X168569276Y-112923058D01*
X168485884Y-112798253D01*
X168379747Y-112692116D01*
X168254942Y-112608724D01*
X168116267Y-112551283D01*
X167969050Y-112522000D01*
X167818950Y-112522000D01*
X167671733Y-112551283D01*
X167533058Y-112608724D01*
X167408253Y-112692116D01*
X167302116Y-112798253D01*
X167218724Y-112923058D01*
X167161283Y-113061733D01*
X167133080Y-113203520D01*
X167088185Y-113148815D01*
X166991494Y-113069463D01*
X166881180Y-113010498D01*
X166761482Y-112974188D01*
X166637000Y-112961928D01*
X166322750Y-112965000D01*
X166164000Y-113123750D01*
X166164000Y-114173000D01*
X167113250Y-114173000D01*
X167272000Y-114014250D01*
X167274124Y-113727854D01*
X167302116Y-113769747D01*
X167360600Y-113828231D01*
X167360601Y-116870058D01*
X166903502Y-117327157D01*
X166325000Y-117327157D01*
X166250311Y-117334513D01*
X166178492Y-117356299D01*
X166112304Y-117391678D01*
X166054289Y-117439289D01*
X166006678Y-117497304D01*
X165971299Y-117563492D01*
X165949513Y-117635311D01*
X165942157Y-117710000D01*
X164257843Y-117710000D01*
X164257843Y-117160000D01*
X164250487Y-117085311D01*
X164228701Y-117013492D01*
X164193322Y-116947304D01*
X164145711Y-116889289D01*
X164087696Y-116841678D01*
X164021508Y-116806299D01*
X163949689Y-116784513D01*
X163875000Y-116777157D01*
X163833000Y-116777157D01*
X163833000Y-115397420D01*
X163847577Y-115382843D01*
X164387001Y-115382843D01*
X164510462Y-115370683D01*
X164629179Y-115334671D01*
X164738589Y-115276190D01*
X164833564Y-115198246D01*
X164847498Y-115244180D01*
X164906463Y-115354494D01*
X164985815Y-115451185D01*
X165082506Y-115530537D01*
X165192820Y-115589502D01*
X165312518Y-115625812D01*
X165437000Y-115638072D01*
X165751250Y-115635000D01*
X165910000Y-115476250D01*
X165910000Y-114427000D01*
X166164000Y-114427000D01*
X166164000Y-115476250D01*
X166322750Y-115635000D01*
X166637000Y-115638072D01*
X166761482Y-115625812D01*
X166881180Y-115589502D01*
X166991494Y-115530537D01*
X167088185Y-115451185D01*
X167167537Y-115354494D01*
X167226502Y-115244180D01*
X167262812Y-115124482D01*
X167275072Y-115000000D01*
X167272000Y-114585750D01*
X167113250Y-114427000D01*
X166164000Y-114427000D01*
X165910000Y-114427000D01*
X165890000Y-114427000D01*
X165890000Y-114173000D01*
X165910000Y-114173000D01*
X165910000Y-113123750D01*
X165751250Y-112965000D01*
X165437000Y-112961928D01*
X165312518Y-112974188D01*
X165192820Y-113010498D01*
X165082506Y-113069463D01*
X164985815Y-113148815D01*
X164906463Y-113245506D01*
X164847498Y-113355820D01*
X164833564Y-113401754D01*
X164738589Y-113323810D01*
X164629179Y-113265329D01*
X164510462Y-113229317D01*
X164387001Y-113217157D01*
X163686999Y-113217157D01*
X163563538Y-113229317D01*
X163444821Y-113265329D01*
X163335411Y-113323810D01*
X163239512Y-113402512D01*
X163160810Y-113498411D01*
X163102329Y-113607821D01*
X163066317Y-113726538D01*
X163054157Y-113849999D01*
X163054157Y-114739423D01*
X162983430Y-114810150D01*
X162964053Y-114826052D01*
X162948151Y-114845429D01*
X162948150Y-114845430D01*
X162900571Y-114903405D01*
X162871511Y-114957773D01*
X162853400Y-114991657D01*
X162831300Y-115064513D01*
X162824352Y-115087416D01*
X162814543Y-115187000D01*
X162817001Y-115211954D01*
X162817000Y-116777157D01*
X162775000Y-116777157D01*
X162700311Y-116784513D01*
X162628492Y-116806299D01*
X162562304Y-116841678D01*
X162504289Y-116889289D01*
X162456678Y-116947304D01*
X162421299Y-117013492D01*
X162399513Y-117085311D01*
X162392157Y-117160000D01*
X162392157Y-117434943D01*
X162315496Y-117458198D01*
X162227244Y-117505370D01*
X162149891Y-117568851D01*
X162133984Y-117588234D01*
X161456430Y-118265788D01*
X161437053Y-118281690D01*
X161421151Y-118301067D01*
X161421150Y-118301068D01*
X161373571Y-118359043D01*
X161347525Y-118407773D01*
X161326400Y-118447295D01*
X161313751Y-118488995D01*
X161297352Y-118543054D01*
X161287543Y-118642638D01*
X161290001Y-118667592D01*
X161290000Y-120439579D01*
X158158580Y-123571000D01*
X150959421Y-123571000D01*
X145669000Y-118280580D01*
X145669000Y-113182420D01*
X147165123Y-113182420D01*
X147167580Y-113207364D01*
X147167582Y-117931219D01*
X147165124Y-117956173D01*
X147171017Y-118016000D01*
X147174933Y-118055758D01*
X147195981Y-118125143D01*
X147203981Y-118151516D01*
X147251152Y-118239768D01*
X147292990Y-118290747D01*
X147314634Y-118317121D01*
X147334011Y-118333023D01*
X150376553Y-121375565D01*
X150392460Y-121394948D01*
X150469813Y-121458429D01*
X150558065Y-121505601D01*
X150653823Y-121534649D01*
X150728461Y-121542000D01*
X150728464Y-121542000D01*
X150753408Y-121544457D01*
X150778352Y-121542000D01*
X151846056Y-121542000D01*
X151871000Y-121544457D01*
X151895944Y-121542000D01*
X151895947Y-121542000D01*
X151970585Y-121534649D01*
X152066343Y-121505601D01*
X152154595Y-121458429D01*
X152231948Y-121394948D01*
X152247855Y-121375565D01*
X152460577Y-121162843D01*
X152675000Y-121162843D01*
X152749689Y-121155487D01*
X152821508Y-121133701D01*
X152887696Y-121098322D01*
X152945711Y-121050711D01*
X152964101Y-121028303D01*
X152964101Y-121619703D01*
X152961521Y-121645900D01*
X152971819Y-121750464D01*
X153002319Y-121851010D01*
X153002320Y-121851011D01*
X153051850Y-121943675D01*
X153077377Y-121974780D01*
X153101807Y-122004548D01*
X153101810Y-122004551D01*
X153118506Y-122024895D01*
X153138850Y-122041591D01*
X153390600Y-122293341D01*
X153390600Y-122376050D01*
X153419883Y-122523267D01*
X153477324Y-122661942D01*
X153560716Y-122786747D01*
X153666853Y-122892884D01*
X153791658Y-122976276D01*
X153930333Y-123033717D01*
X154077550Y-123063000D01*
X154227650Y-123063000D01*
X154374867Y-123033717D01*
X154513542Y-122976276D01*
X154638347Y-122892884D01*
X154744484Y-122786747D01*
X154827876Y-122661942D01*
X154885317Y-122523267D01*
X154914600Y-122376050D01*
X154914600Y-122225950D01*
X154885317Y-122078733D01*
X154827876Y-121940058D01*
X154744484Y-121815253D01*
X154638347Y-121709116D01*
X154513542Y-121625724D01*
X154374867Y-121568283D01*
X154227650Y-121539000D01*
X154144941Y-121539000D01*
X154030900Y-121424959D01*
X154030900Y-120767843D01*
X154070000Y-120767843D01*
X154144689Y-120760487D01*
X154216508Y-120738701D01*
X154282696Y-120703322D01*
X154340711Y-120655711D01*
X154388322Y-120597696D01*
X154423701Y-120531508D01*
X154445487Y-120459689D01*
X154452843Y-120385000D01*
X154452843Y-120092086D01*
X154518452Y-120038902D01*
X154598387Y-119942691D01*
X154658016Y-119832735D01*
X154695048Y-119713259D01*
X154705000Y-119595750D01*
X154546250Y-119437000D01*
X153624500Y-119437000D01*
X153624500Y-119452157D01*
X153370500Y-119452157D01*
X153370500Y-119437000D01*
X153350500Y-119437000D01*
X153350500Y-119183000D01*
X153370500Y-119183000D01*
X153370500Y-119167843D01*
X153624500Y-119167843D01*
X153624500Y-119183000D01*
X154546250Y-119183000D01*
X154705000Y-119024250D01*
X154695048Y-118906741D01*
X154658016Y-118787265D01*
X154598387Y-118677309D01*
X154518452Y-118581098D01*
X154452843Y-118527914D01*
X154452843Y-118492086D01*
X154518452Y-118438902D01*
X154598387Y-118342691D01*
X154658016Y-118232735D01*
X154695048Y-118113259D01*
X154705000Y-117995750D01*
X154546250Y-117837000D01*
X153624500Y-117837000D01*
X153624500Y-117852157D01*
X153370500Y-117852157D01*
X153370500Y-117837000D01*
X152448750Y-117837000D01*
X152290000Y-117995750D01*
X152299952Y-118113259D01*
X152336984Y-118232735D01*
X152396613Y-118342691D01*
X152476548Y-118438902D01*
X152542157Y-118492086D01*
X152542157Y-118527914D01*
X152476548Y-118581098D01*
X152396613Y-118677309D01*
X152336984Y-118787265D01*
X152299952Y-118906741D01*
X152290000Y-119024250D01*
X152448748Y-119182998D01*
X152290000Y-119182998D01*
X152290000Y-119252157D01*
X152257843Y-119252157D01*
X152257843Y-119035000D01*
X152250487Y-118960311D01*
X152235225Y-118910000D01*
X152250487Y-118859689D01*
X152257843Y-118785000D01*
X152257843Y-118235000D01*
X152250487Y-118160311D01*
X152235225Y-118110000D01*
X152250487Y-118059689D01*
X152257843Y-117985000D01*
X152257843Y-117435000D01*
X152250487Y-117360311D01*
X152235225Y-117310000D01*
X152250487Y-117259689D01*
X152257843Y-117185000D01*
X152257843Y-116967843D01*
X152290000Y-116967843D01*
X152290000Y-117037002D01*
X152430101Y-117037002D01*
X152396613Y-117077309D01*
X152382599Y-117103151D01*
X152290000Y-117195750D01*
X152299676Y-117310000D01*
X152290000Y-117424250D01*
X152382599Y-117516849D01*
X152396613Y-117542691D01*
X152476548Y-117638902D01*
X152573717Y-117717669D01*
X152684385Y-117775966D01*
X152804300Y-117811552D01*
X152928853Y-117823060D01*
X153211750Y-117820000D01*
X153370500Y-117661250D01*
X153370500Y-116958750D01*
X153624500Y-116958750D01*
X153624500Y-117661250D01*
X153783250Y-117820000D01*
X154066147Y-117823060D01*
X154190700Y-117811552D01*
X154310615Y-117775966D01*
X154421283Y-117717669D01*
X154518452Y-117638902D01*
X154598387Y-117542691D01*
X154612401Y-117516849D01*
X154705000Y-117424250D01*
X154695324Y-117310000D01*
X154705000Y-117195750D01*
X154612401Y-117103151D01*
X154598387Y-117077309D01*
X154518452Y-116981098D01*
X154421283Y-116902331D01*
X154310615Y-116844034D01*
X154190700Y-116808448D01*
X154066147Y-116796940D01*
X153783250Y-116800000D01*
X153624500Y-116958750D01*
X153370500Y-116958750D01*
X153350500Y-116938750D01*
X153350500Y-116783000D01*
X153370500Y-116783000D01*
X153370500Y-116767843D01*
X153624500Y-116767843D01*
X153624500Y-116783000D01*
X154546250Y-116783000D01*
X154705000Y-116624250D01*
X154695307Y-116509800D01*
X155223909Y-116509800D01*
X155230317Y-116574862D01*
X155266329Y-116693579D01*
X155324810Y-116802989D01*
X155403512Y-116898888D01*
X155499411Y-116977590D01*
X155608821Y-117036071D01*
X155655100Y-117050110D01*
X155655101Y-117417290D01*
X155608821Y-117431329D01*
X155499411Y-117489810D01*
X155403512Y-117568512D01*
X155324810Y-117664411D01*
X155266329Y-117773821D01*
X155230317Y-117892538D01*
X155218157Y-118016000D01*
X155218157Y-118966000D01*
X155230317Y-119089462D01*
X155266329Y-119208179D01*
X155324810Y-119317589D01*
X155403512Y-119413488D01*
X155499411Y-119492190D01*
X155608821Y-119550671D01*
X155655100Y-119564710D01*
X155655101Y-119931890D01*
X155608821Y-119945929D01*
X155499411Y-120004410D01*
X155403512Y-120083112D01*
X155324810Y-120179011D01*
X155266329Y-120288421D01*
X155230317Y-120407138D01*
X155218157Y-120530600D01*
X155218157Y-121480600D01*
X155230317Y-121604062D01*
X155266329Y-121722779D01*
X155324810Y-121832189D01*
X155403512Y-121928088D01*
X155499411Y-122006790D01*
X155608821Y-122065271D01*
X155727538Y-122101283D01*
X155851000Y-122113443D01*
X156526000Y-122113443D01*
X156649462Y-122101283D01*
X156768179Y-122065271D01*
X156877589Y-122006790D01*
X156973488Y-121928088D01*
X157048389Y-121836820D01*
X157050188Y-121855082D01*
X157086498Y-121974780D01*
X157145463Y-122085094D01*
X157224815Y-122181785D01*
X157321506Y-122261137D01*
X157431820Y-122320102D01*
X157551518Y-122356412D01*
X157676000Y-122368672D01*
X157977750Y-122365600D01*
X158136500Y-122206850D01*
X158136500Y-121132600D01*
X158390500Y-121132600D01*
X158390500Y-122206850D01*
X158549250Y-122365600D01*
X158851000Y-122368672D01*
X158975482Y-122356412D01*
X159095180Y-122320102D01*
X159205494Y-122261137D01*
X159302185Y-122181785D01*
X159381537Y-122085094D01*
X159440502Y-121974780D01*
X159476812Y-121855082D01*
X159489072Y-121730600D01*
X159486000Y-121291350D01*
X159327250Y-121132600D01*
X158390500Y-121132600D01*
X158136500Y-121132600D01*
X158116500Y-121132600D01*
X158116500Y-120878600D01*
X158136500Y-120878600D01*
X158136500Y-119804350D01*
X158080450Y-119748300D01*
X158136500Y-119692250D01*
X158136500Y-118618000D01*
X158390500Y-118618000D01*
X158390500Y-119692250D01*
X158446550Y-119748300D01*
X158390500Y-119804350D01*
X158390500Y-120878600D01*
X159327250Y-120878600D01*
X159486000Y-120719850D01*
X159489072Y-120280600D01*
X159476812Y-120156118D01*
X159440502Y-120036420D01*
X159381537Y-119926106D01*
X159302185Y-119829415D01*
X159205494Y-119750063D01*
X159202196Y-119748300D01*
X159205494Y-119746537D01*
X159302185Y-119667185D01*
X159381537Y-119570494D01*
X159440502Y-119460180D01*
X159476812Y-119340482D01*
X159489072Y-119216000D01*
X159486000Y-118776750D01*
X159327250Y-118618000D01*
X158390500Y-118618000D01*
X158136500Y-118618000D01*
X158116500Y-118618000D01*
X158116500Y-118364000D01*
X158136500Y-118364000D01*
X158136500Y-117289750D01*
X158080450Y-117233700D01*
X158136500Y-117177650D01*
X158136500Y-116103400D01*
X158390500Y-116103400D01*
X158390500Y-117177650D01*
X158446550Y-117233700D01*
X158390500Y-117289750D01*
X158390500Y-118364000D01*
X159327250Y-118364000D01*
X159486000Y-118205250D01*
X159489072Y-117766000D01*
X159476812Y-117641518D01*
X159440502Y-117521820D01*
X159381537Y-117411506D01*
X159302185Y-117314815D01*
X159205494Y-117235463D01*
X159202196Y-117233700D01*
X159205494Y-117231937D01*
X159302185Y-117152585D01*
X159381537Y-117055894D01*
X159440502Y-116945580D01*
X159476812Y-116825882D01*
X159489072Y-116701400D01*
X159486000Y-116262150D01*
X159327250Y-116103400D01*
X158390500Y-116103400D01*
X158136500Y-116103400D01*
X158116500Y-116103400D01*
X158116500Y-115849400D01*
X158136500Y-115849400D01*
X158136500Y-115829400D01*
X158390500Y-115829400D01*
X158390500Y-115849400D01*
X159327250Y-115849400D01*
X159486000Y-115690650D01*
X159489072Y-115251400D01*
X159476812Y-115126918D01*
X159451743Y-115044277D01*
X159489747Y-115018884D01*
X159595884Y-114912747D01*
X159679276Y-114787942D01*
X159736717Y-114649267D01*
X159766000Y-114502050D01*
X159766000Y-114351950D01*
X159736717Y-114204733D01*
X159679276Y-114066058D01*
X159595884Y-113941253D01*
X159489747Y-113835116D01*
X159364942Y-113751724D01*
X159226267Y-113694283D01*
X159079050Y-113665000D01*
X158928950Y-113665000D01*
X158781733Y-113694283D01*
X158643058Y-113751724D01*
X158518253Y-113835116D01*
X158459769Y-113893600D01*
X157764086Y-113893600D01*
X157737899Y-113891021D01*
X157711712Y-113893600D01*
X157711705Y-113893600D01*
X157633335Y-113901319D01*
X157532789Y-113931819D01*
X157440125Y-113981349D01*
X157397408Y-114016406D01*
X157383558Y-114027773D01*
X157358905Y-114048005D01*
X157342209Y-114068349D01*
X156540567Y-114869992D01*
X156526000Y-114868557D01*
X155851000Y-114868557D01*
X155727538Y-114880717D01*
X155608821Y-114916729D01*
X155499411Y-114975210D01*
X155403512Y-115053912D01*
X155324810Y-115149811D01*
X155266329Y-115259221D01*
X155230317Y-115377938D01*
X155223909Y-115443000D01*
X153657287Y-115443000D01*
X153631100Y-115440421D01*
X153604913Y-115443000D01*
X153604905Y-115443000D01*
X153526535Y-115450719D01*
X153521795Y-115452157D01*
X153431901Y-115452157D01*
X168135857Y-100748201D01*
X169451553Y-100748201D01*
X169476497Y-100750658D01*
X169501441Y-100748201D01*
X169501444Y-100748201D01*
X169576082Y-100740850D01*
X169671840Y-100711802D01*
X169760092Y-100664630D01*
X169837445Y-100601149D01*
X169853352Y-100581766D01*
X170295536Y-100139582D01*
X170329289Y-100180711D01*
X170387304Y-100228322D01*
X170453492Y-100263701D01*
X170525311Y-100285487D01*
X170600000Y-100292843D01*
X172300000Y-100292843D01*
X172374689Y-100285487D01*
X172446508Y-100263701D01*
X172512696Y-100228322D01*
X172570711Y-100180711D01*
X172618322Y-100122696D01*
X172653701Y-100056508D01*
X172675487Y-99984689D01*
X172682843Y-99910000D01*
X172682843Y-98210000D01*
X172675487Y-98135311D01*
X172653701Y-98063492D01*
X172618322Y-97997304D01*
X172570711Y-97939289D01*
X172512696Y-97891678D01*
X172446508Y-97856299D01*
X172374689Y-97834513D01*
X172300000Y-97827157D01*
X170600000Y-97827157D01*
X170598201Y-97827334D01*
X170598201Y-82485145D01*
X170600658Y-82460201D01*
X170598201Y-82435254D01*
X170590850Y-82360616D01*
X170561802Y-82264858D01*
X170514630Y-82176606D01*
X170451149Y-82099253D01*
X170431766Y-82083346D01*
X167522587Y-79174167D01*
X167553693Y-79099069D01*
X167601000Y-78861243D01*
X167601000Y-78618757D01*
X167553693Y-78380931D01*
X167460898Y-78156903D01*
X167401361Y-78067799D01*
X167878639Y-78067799D01*
X167819102Y-78156903D01*
X167726307Y-78380931D01*
X167679000Y-78618757D01*
X167679000Y-78861243D01*
X167726307Y-79099069D01*
X167819102Y-79323097D01*
X167953820Y-79524717D01*
X168125283Y-79696180D01*
X168326903Y-79830898D01*
X168550931Y-79923693D01*
X168788757Y-79971000D01*
X169031243Y-79971000D01*
X169269069Y-79923693D01*
X169493097Y-79830898D01*
X169694717Y-79696180D01*
X169866180Y-79524717D01*
X170000898Y-79323097D01*
X170093693Y-79099069D01*
X170141000Y-78861243D01*
X170141000Y-78618757D01*
X170093693Y-78380931D01*
X170000898Y-78156903D01*
X169941361Y-78067799D01*
X170217157Y-78067799D01*
X170217157Y-79590000D01*
X170224513Y-79664689D01*
X170246299Y-79736508D01*
X170281678Y-79802696D01*
X170329289Y-79860711D01*
X170387304Y-79908322D01*
X170453492Y-79943701D01*
X170525311Y-79965487D01*
X170600000Y-79972843D01*
X172300000Y-79972843D01*
X172374689Y-79965487D01*
X172446508Y-79943701D01*
X172512696Y-79908322D01*
X172570711Y-79860711D01*
X172618322Y-79802696D01*
X172653701Y-79736508D01*
X172675487Y-79664689D01*
X172682843Y-79590000D01*
X172682843Y-78067799D01*
X174123379Y-78067799D01*
X174548800Y-78493220D01*
X174548801Y-125847779D01*
X161439423Y-138957157D01*
X160350000Y-138957157D01*
X160275311Y-138964513D01*
X160203492Y-138986299D01*
X160137304Y-139021678D01*
X160079289Y-139069289D01*
X160031678Y-139127304D01*
X159996299Y-139193492D01*
X159974513Y-139265311D01*
X159967157Y-139340000D01*
X159967157Y-140640000D01*
X159974513Y-140714689D01*
X159996299Y-140786508D01*
X160031678Y-140852696D01*
X160079289Y-140910711D01*
X160137304Y-140958322D01*
X160203492Y-140993701D01*
X160275311Y-141015487D01*
X160350000Y-141022843D01*
X161900000Y-141022843D01*
X161974689Y-141015487D01*
X162046508Y-140993701D01*
X162112696Y-140958322D01*
X162170711Y-140910711D01*
X162218322Y-140852696D01*
X162253701Y-140786508D01*
X162275487Y-140714689D01*
X162282843Y-140640000D01*
X162282843Y-139550577D01*
X162493420Y-139340000D01*
X167917157Y-139340000D01*
X167917157Y-140640000D01*
X167924513Y-140714689D01*
X167946299Y-140786508D01*
X167981678Y-140852696D01*
X168029289Y-140910711D01*
X168087304Y-140958322D01*
X168153492Y-140993701D01*
X168225311Y-141015487D01*
X168300000Y-141022843D01*
X169850000Y-141022843D01*
X169924689Y-141015487D01*
X169996508Y-140993701D01*
X170062696Y-140958322D01*
X170120711Y-140910711D01*
X170168322Y-140852696D01*
X170203701Y-140786508D01*
X170225487Y-140714689D01*
X170232843Y-140640000D01*
X170232843Y-139340000D01*
X170225487Y-139265311D01*
X170203701Y-139193492D01*
X170168322Y-139127304D01*
X170120711Y-139069289D01*
X170062696Y-139021678D01*
X169996508Y-138986299D01*
X169924689Y-138964513D01*
X169850000Y-138957157D01*
X168300000Y-138957157D01*
X168225311Y-138964513D01*
X168153492Y-138986299D01*
X168087304Y-139021678D01*
X168029289Y-139069289D01*
X167981678Y-139127304D01*
X167946299Y-139193492D01*
X167924513Y-139265311D01*
X167917157Y-139340000D01*
X162493420Y-139340000D01*
X175398365Y-126435055D01*
X175417748Y-126419148D01*
X175481229Y-126341795D01*
X175528401Y-126253543D01*
X175557449Y-126157785D01*
X175564800Y-126083147D01*
X175564800Y-126083144D01*
X175567257Y-126058200D01*
X175564800Y-126033256D01*
X175564800Y-78307744D01*
X175567257Y-78282800D01*
X175564800Y-78257853D01*
X175557449Y-78183215D01*
X175528401Y-78087457D01*
X175481229Y-77999205D01*
X175417748Y-77921852D01*
X175398365Y-77905945D01*
X174710654Y-77218234D01*
X174694747Y-77198851D01*
X174617394Y-77135370D01*
X174529142Y-77088198D01*
X174433384Y-77059150D01*
X174358746Y-77051799D01*
X174358743Y-77051799D01*
X174333799Y-77049342D01*
X174308855Y-77051799D01*
X159955144Y-77051799D01*
X159930200Y-77049342D01*
X159905256Y-77051799D01*
X159905254Y-77051799D01*
X159830616Y-77059150D01*
X159734858Y-77088198D01*
X159734856Y-77088199D01*
X159646605Y-77135370D01*
X159619831Y-77157343D01*
X159569253Y-77198851D01*
X159553351Y-77218228D01*
X159184166Y-77587413D01*
X159109069Y-77556307D01*
X158871243Y-77509000D01*
X158628757Y-77509000D01*
X158390931Y-77556307D01*
X158166903Y-77649102D01*
X157965283Y-77783820D01*
X157793820Y-77955283D01*
X157659102Y-78156903D01*
X157566307Y-78380931D01*
X157519000Y-78618757D01*
X157519000Y-78861243D01*
X157566307Y-79099069D01*
X157659102Y-79323097D01*
X157793820Y-79524717D01*
X157965283Y-79696180D01*
X158166903Y-79830898D01*
X158390931Y-79923693D01*
X158628757Y-79971000D01*
X158871243Y-79971000D01*
X159109069Y-79923693D01*
X159333097Y-79830898D01*
X159534717Y-79696180D01*
X159706180Y-79524717D01*
X159840898Y-79323097D01*
X159933693Y-79099069D01*
X159981000Y-78861243D01*
X159981000Y-78618757D01*
X159933693Y-78380931D01*
X159902587Y-78305834D01*
X160140622Y-78067799D01*
X160258639Y-78067799D01*
X160199102Y-78156903D01*
X160106307Y-78380931D01*
X160059000Y-78618757D01*
X160059000Y-78861243D01*
X160106307Y-79099069D01*
X160199102Y-79323097D01*
X160333820Y-79524717D01*
X160505283Y-79696180D01*
X160706903Y-79830898D01*
X160930931Y-79923693D01*
X161168757Y-79971000D01*
X161411243Y-79971000D01*
X161649069Y-79923693D01*
X161724167Y-79892587D01*
X164502201Y-82670621D01*
X164502202Y-98028640D01*
X164413097Y-97969102D01*
X164189069Y-97876307D01*
X163951243Y-97829000D01*
X163708757Y-97829000D01*
X163470931Y-97876307D01*
X163246903Y-97969102D01*
X163045283Y-98103820D01*
X162873820Y-98275283D01*
X162739102Y-98476903D01*
X162646307Y-98700931D01*
X162599000Y-98938757D01*
X162599000Y-99181243D01*
X162646307Y-99419069D01*
X162677413Y-99494167D01*
X161798000Y-100373580D01*
X161798000Y-100182004D01*
X161873097Y-100150898D01*
X162074717Y-100016180D01*
X162246180Y-99844717D01*
X162380898Y-99643097D01*
X162473693Y-99419069D01*
X162521000Y-99181243D01*
X162521000Y-98938757D01*
X162473693Y-98700931D01*
X162380898Y-98476903D01*
X162246180Y-98275283D01*
X162074717Y-98103820D01*
X161873097Y-97969102D01*
X161649069Y-97876307D01*
X161411243Y-97829000D01*
X161168757Y-97829000D01*
X160930931Y-97876307D01*
X160706903Y-97969102D01*
X160505283Y-98103820D01*
X160333820Y-98275283D01*
X160199102Y-98476903D01*
X160106307Y-98700931D01*
X160059000Y-98938757D01*
X160059000Y-99181243D01*
X160106307Y-99419069D01*
X160199102Y-99643097D01*
X160333820Y-99844717D01*
X160505283Y-100016180D01*
X160706903Y-100150898D01*
X160782001Y-100182004D01*
X160782001Y-100373579D01*
X159258000Y-101897580D01*
X159258000Y-100182004D01*
X159333097Y-100150898D01*
X159534717Y-100016180D01*
X159706180Y-99844717D01*
X159840898Y-99643097D01*
X159933693Y-99419069D01*
X159981000Y-99181243D01*
X159981000Y-98938757D01*
X159933693Y-98700931D01*
X159840898Y-98476903D01*
X159706180Y-98275283D01*
X159534717Y-98103820D01*
X159333097Y-97969102D01*
X159109069Y-97876307D01*
X158871243Y-97829000D01*
X158628757Y-97829000D01*
X158390931Y-97876307D01*
X158166903Y-97969102D01*
X157965283Y-98103820D01*
X157793820Y-98275283D01*
X157659102Y-98476903D01*
X157566307Y-98700931D01*
X157519000Y-98938757D01*
X157519000Y-99181243D01*
X157566307Y-99419069D01*
X157659102Y-99643097D01*
X157793820Y-99844717D01*
X157965283Y-100016180D01*
X158166903Y-100150898D01*
X158242000Y-100182004D01*
X158242001Y-101897578D01*
X155490758Y-104648821D01*
X155528044Y-104516449D01*
X155560902Y-104097176D01*
X155511334Y-103679549D01*
X155381243Y-103279617D01*
X155223214Y-102983962D01*
X154907653Y-102827952D01*
X153595605Y-104140000D01*
X153609748Y-104154143D01*
X153430143Y-104333748D01*
X153416000Y-104319605D01*
X152103952Y-105631653D01*
X152259962Y-105947214D01*
X152634745Y-106138020D01*
X153039551Y-106252044D01*
X153458824Y-106284902D01*
X153876451Y-106235334D01*
X153917645Y-106221934D01*
X147334009Y-112805571D01*
X147314632Y-112821473D01*
X147298730Y-112840850D01*
X147251151Y-112898825D01*
X147225937Y-112945997D01*
X147203979Y-112987078D01*
X147174931Y-113082836D01*
X147167580Y-113157473D01*
X147165123Y-113182420D01*
X145669000Y-113182420D01*
X145669000Y-104182824D01*
X151271098Y-104182824D01*
X151320666Y-104600451D01*
X151450757Y-105000383D01*
X151608786Y-105296038D01*
X151924347Y-105452048D01*
X153236395Y-104140000D01*
X151924347Y-102827952D01*
X151608786Y-102983962D01*
X151417980Y-103358745D01*
X151303956Y-103763551D01*
X151271098Y-104182824D01*
X145669000Y-104182824D01*
X145669000Y-102648347D01*
X152103952Y-102648347D01*
X153416000Y-103960395D01*
X154728048Y-102648347D01*
X154572038Y-102332786D01*
X154197255Y-102141980D01*
X153792449Y-102027956D01*
X153373176Y-101995098D01*
X152955549Y-102044666D01*
X152555617Y-102174757D01*
X152259962Y-102332786D01*
X152103952Y-102648347D01*
X145669000Y-102648347D01*
X145669000Y-100234609D01*
X145690931Y-100243693D01*
X145928757Y-100291000D01*
X146171243Y-100291000D01*
X146409069Y-100243693D01*
X146633097Y-100150898D01*
X146834717Y-100016180D01*
X147006180Y-99844717D01*
X147140898Y-99643097D01*
X147233693Y-99419069D01*
X147281000Y-99181243D01*
X147281000Y-98938757D01*
X147359000Y-98938757D01*
X147359000Y-99181243D01*
X147406307Y-99419069D01*
X147499102Y-99643097D01*
X147633820Y-99844717D01*
X147805283Y-100016180D01*
X148006903Y-100150898D01*
X148230931Y-100243693D01*
X148468757Y-100291000D01*
X148711243Y-100291000D01*
X148949069Y-100243693D01*
X149173097Y-100150898D01*
X149374717Y-100016180D01*
X149546180Y-99844717D01*
X149680898Y-99643097D01*
X149773693Y-99419069D01*
X149821000Y-99181243D01*
X149821000Y-98938757D01*
X149899000Y-98938757D01*
X149899000Y-99181243D01*
X149946307Y-99419069D01*
X150039102Y-99643097D01*
X150173820Y-99844717D01*
X150345283Y-100016180D01*
X150546903Y-100150898D01*
X150770931Y-100243693D01*
X151008757Y-100291000D01*
X151251243Y-100291000D01*
X151489069Y-100243693D01*
X151713097Y-100150898D01*
X151914717Y-100016180D01*
X152086180Y-99844717D01*
X152220898Y-99643097D01*
X152313693Y-99419069D01*
X152361000Y-99181243D01*
X152361000Y-98938757D01*
X152439000Y-98938757D01*
X152439000Y-99181243D01*
X152486307Y-99419069D01*
X152579102Y-99643097D01*
X152713820Y-99844717D01*
X152885283Y-100016180D01*
X153086903Y-100150898D01*
X153310931Y-100243693D01*
X153548757Y-100291000D01*
X153791243Y-100291000D01*
X154029069Y-100243693D01*
X154253097Y-100150898D01*
X154454717Y-100016180D01*
X154626180Y-99844717D01*
X154760898Y-99643097D01*
X154853693Y-99419069D01*
X154901000Y-99181243D01*
X154901000Y-98938757D01*
X154979000Y-98938757D01*
X154979000Y-99181243D01*
X155026307Y-99419069D01*
X155119102Y-99643097D01*
X155253820Y-99844717D01*
X155425283Y-100016180D01*
X155626903Y-100150898D01*
X155850931Y-100243693D01*
X156088757Y-100291000D01*
X156331243Y-100291000D01*
X156569069Y-100243693D01*
X156793097Y-100150898D01*
X156994717Y-100016180D01*
X157166180Y-99844717D01*
X157300898Y-99643097D01*
X157393693Y-99419069D01*
X157441000Y-99181243D01*
X157441000Y-98938757D01*
X157393693Y-98700931D01*
X157300898Y-98476903D01*
X157166180Y-98275283D01*
X156994717Y-98103820D01*
X156793097Y-97969102D01*
X156569069Y-97876307D01*
X156331243Y-97829000D01*
X156088757Y-97829000D01*
X155850931Y-97876307D01*
X155626903Y-97969102D01*
X155425283Y-98103820D01*
X155253820Y-98275283D01*
X155119102Y-98476903D01*
X155026307Y-98700931D01*
X154979000Y-98938757D01*
X154901000Y-98938757D01*
X154853693Y-98700931D01*
X154760898Y-98476903D01*
X154626180Y-98275283D01*
X154454717Y-98103820D01*
X154253097Y-97969102D01*
X154029069Y-97876307D01*
X153791243Y-97829000D01*
X153548757Y-97829000D01*
X153310931Y-97876307D01*
X153086903Y-97969102D01*
X152885283Y-98103820D01*
X152713820Y-98275283D01*
X152579102Y-98476903D01*
X152486307Y-98700931D01*
X152439000Y-98938757D01*
X152361000Y-98938757D01*
X152313693Y-98700931D01*
X152220898Y-98476903D01*
X152086180Y-98275283D01*
X151914717Y-98103820D01*
X151713097Y-97969102D01*
X151489069Y-97876307D01*
X151251243Y-97829000D01*
X151008757Y-97829000D01*
X150770931Y-97876307D01*
X150546903Y-97969102D01*
X150345283Y-98103820D01*
X150173820Y-98275283D01*
X150039102Y-98476903D01*
X149946307Y-98700931D01*
X149899000Y-98938757D01*
X149821000Y-98938757D01*
X149773693Y-98700931D01*
X149680898Y-98476903D01*
X149546180Y-98275283D01*
X149374717Y-98103820D01*
X149173097Y-97969102D01*
X148949069Y-97876307D01*
X148711243Y-97829000D01*
X148468757Y-97829000D01*
X148230931Y-97876307D01*
X148006903Y-97969102D01*
X147805283Y-98103820D01*
X147633820Y-98275283D01*
X147499102Y-98476903D01*
X147406307Y-98700931D01*
X147359000Y-98938757D01*
X147281000Y-98938757D01*
X147233693Y-98700931D01*
X147140898Y-98476903D01*
X147006180Y-98275283D01*
X146834717Y-98103820D01*
X146633097Y-97969102D01*
X146409069Y-97876307D01*
X146171243Y-97829000D01*
X145928757Y-97829000D01*
X145690931Y-97876307D01*
X145466903Y-97969102D01*
X145265283Y-98103820D01*
X145093820Y-98275283D01*
X144959102Y-98476903D01*
X144866307Y-98700931D01*
X144819000Y-98938757D01*
X144819000Y-99181243D01*
X144866307Y-99419069D01*
X144897413Y-99494167D01*
X144819435Y-99572145D01*
X144800052Y-99588052D01*
X144777722Y-99615261D01*
X144734548Y-99562652D01*
X144715165Y-99546745D01*
X144662587Y-99494167D01*
X144693693Y-99419069D01*
X144741000Y-99181243D01*
X144741000Y-98938757D01*
X144693693Y-98700931D01*
X144600898Y-98476903D01*
X144466180Y-98275283D01*
X144294717Y-98103820D01*
X144093097Y-97969102D01*
X143869069Y-97876307D01*
X143631243Y-97829000D01*
X143388757Y-97829000D01*
X143150931Y-97876307D01*
X142926903Y-97969102D01*
X142725283Y-98103820D01*
X142553820Y-98275283D01*
X142419102Y-98476903D01*
X142371772Y-98591168D01*
X142314157Y-98428748D01*
X142165178Y-98178645D01*
X141970269Y-97962412D01*
X141736920Y-97788359D01*
X141474099Y-97663175D01*
X141326890Y-97618524D01*
X141097000Y-97739845D01*
X141097000Y-98933000D01*
X141117000Y-98933000D01*
X141117000Y-99187000D01*
X141097000Y-99187000D01*
X141097000Y-100380155D01*
X141326890Y-100501476D01*
X141474099Y-100456825D01*
X141736920Y-100331641D01*
X141970269Y-100157588D01*
X142165178Y-99941355D01*
X142314157Y-99691252D01*
X142371772Y-99528832D01*
X142419102Y-99643097D01*
X142553820Y-99844717D01*
X142725283Y-100016180D01*
X142926903Y-100150898D01*
X143150931Y-100243693D01*
X143388757Y-100291000D01*
X143631243Y-100291000D01*
X143865601Y-100244383D01*
X143865600Y-119260102D01*
X142397476Y-120728226D01*
X142381250Y-120712000D01*
X141732000Y-120712000D01*
X141732000Y-120732000D01*
X141478000Y-120732000D01*
X141478000Y-120712000D01*
X141458000Y-120712000D01*
X141458000Y-120458000D01*
X141478000Y-120458000D01*
X141478000Y-119133750D01*
X141732000Y-119133750D01*
X141732000Y-120458000D01*
X142381250Y-120458000D01*
X142540000Y-120299250D01*
X142543072Y-119610000D01*
X142530812Y-119485518D01*
X142494502Y-119365820D01*
X142435537Y-119255506D01*
X142356185Y-119158815D01*
X142259494Y-119079463D01*
X142149180Y-119020498D01*
X142029482Y-118984188D01*
X141905000Y-118971928D01*
X141890750Y-118975000D01*
X141732000Y-119133750D01*
X141478000Y-119133750D01*
X141319250Y-118975000D01*
X141305000Y-118971928D01*
X141180518Y-118984188D01*
X141060820Y-119020498D01*
X140950506Y-119079463D01*
X140853815Y-119158815D01*
X140774463Y-119255506D01*
X140750375Y-119300571D01*
X140688910Y-119267717D01*
X140588953Y-119237395D01*
X140485000Y-119227157D01*
X140185000Y-119227157D01*
X140081047Y-119237395D01*
X139981090Y-119267717D01*
X139888968Y-119316957D01*
X139808223Y-119383223D01*
X139741957Y-119463968D01*
X139700000Y-119542464D01*
X139658043Y-119463968D01*
X139591777Y-119383223D01*
X139511032Y-119316957D01*
X139418910Y-119267717D01*
X139318953Y-119237395D01*
X139215000Y-119227157D01*
X138915000Y-119227157D01*
X138811047Y-119237395D01*
X138711090Y-119267717D01*
X138618968Y-119316957D01*
X138538223Y-119383223D01*
X138471957Y-119463968D01*
X138430000Y-119542464D01*
X138388043Y-119463968D01*
X138321777Y-119383223D01*
X138241032Y-119316957D01*
X138148910Y-119267717D01*
X138048953Y-119237395D01*
X137945000Y-119227157D01*
X137645000Y-119227157D01*
X137541047Y-119237395D01*
X137441090Y-119267717D01*
X137348968Y-119316957D01*
X137268223Y-119383223D01*
X137201957Y-119463968D01*
X137152717Y-119556090D01*
X137122395Y-119656047D01*
X137112157Y-119760000D01*
X136742609Y-119760000D01*
X136745072Y-119735000D01*
X136742000Y-119433250D01*
X136583250Y-119274500D01*
X135509000Y-119274500D01*
X135255000Y-119274500D01*
X134180750Y-119274500D01*
X134022000Y-119433250D01*
X134018928Y-119735000D01*
X128117600Y-119735000D01*
X128117600Y-118560000D01*
X134018928Y-118560000D01*
X134022000Y-118861750D01*
X134180750Y-119020500D01*
X135255000Y-119020500D01*
X135255000Y-119000500D01*
X135509000Y-119000500D01*
X135509000Y-119020500D01*
X136583250Y-119020500D01*
X136742000Y-118861750D01*
X136745072Y-118560000D01*
X136732812Y-118435518D01*
X136696502Y-118315820D01*
X136637537Y-118205506D01*
X136558185Y-118108815D01*
X136461494Y-118029463D01*
X136351180Y-117970498D01*
X136231482Y-117934188D01*
X136213220Y-117932389D01*
X136304488Y-117857488D01*
X136383190Y-117761589D01*
X136441671Y-117652179D01*
X136457927Y-117598589D01*
X136462065Y-117598181D01*
X136562611Y-117567681D01*
X136655275Y-117518151D01*
X136736495Y-117451495D01*
X136753195Y-117431146D01*
X137311801Y-116872541D01*
X137348968Y-116903043D01*
X137441090Y-116952283D01*
X137541047Y-116982605D01*
X137645000Y-116992843D01*
X137945000Y-116992843D01*
X138048953Y-116982605D01*
X138148910Y-116952283D01*
X138241032Y-116903043D01*
X138321777Y-116836777D01*
X138388043Y-116756032D01*
X138430000Y-116677536D01*
X138471957Y-116756032D01*
X138538223Y-116836777D01*
X138618968Y-116903043D01*
X138711090Y-116952283D01*
X138811047Y-116982605D01*
X138915000Y-116992843D01*
X139215000Y-116992843D01*
X139318953Y-116982605D01*
X139418910Y-116952283D01*
X139511032Y-116903043D01*
X139591777Y-116836777D01*
X139658043Y-116756032D01*
X139700000Y-116677536D01*
X139741957Y-116756032D01*
X139808223Y-116836777D01*
X139888968Y-116903043D01*
X139981090Y-116952283D01*
X140081047Y-116982605D01*
X140185000Y-116992843D01*
X140485000Y-116992843D01*
X140588953Y-116982605D01*
X140688910Y-116952283D01*
X140781032Y-116903043D01*
X140861777Y-116836777D01*
X140928043Y-116756032D01*
X140970000Y-116677536D01*
X141011957Y-116756032D01*
X141078223Y-116836777D01*
X141158968Y-116903043D01*
X141251090Y-116952283D01*
X141351047Y-116982605D01*
X141455000Y-116992843D01*
X141755000Y-116992843D01*
X141858953Y-116982605D01*
X141958910Y-116952283D01*
X142051032Y-116903043D01*
X142131777Y-116836777D01*
X142198043Y-116756032D01*
X142247283Y-116663910D01*
X142277605Y-116563953D01*
X142287843Y-116460000D01*
X142287843Y-115998340D01*
X142341651Y-115932775D01*
X142391181Y-115840111D01*
X142421681Y-115739565D01*
X142431980Y-115635000D01*
X142421681Y-115530435D01*
X142391181Y-115429889D01*
X142341651Y-115337225D01*
X142287843Y-115271660D01*
X142287843Y-114810000D01*
X142277605Y-114706047D01*
X142247283Y-114606090D01*
X142198043Y-114513968D01*
X142131777Y-114433223D01*
X142054859Y-114370098D01*
X142050651Y-114362225D01*
X141983995Y-114281005D01*
X141963645Y-114264304D01*
X141645086Y-113945745D01*
X141628385Y-113925395D01*
X141547165Y-113858739D01*
X141454501Y-113809209D01*
X141353955Y-113778709D01*
X141275585Y-113770990D01*
X141275577Y-113770990D01*
X141249390Y-113768411D01*
X141223203Y-113770990D01*
X138176796Y-113770990D01*
X138150609Y-113768411D01*
X138124422Y-113770990D01*
X138124415Y-113770990D01*
X138046045Y-113778709D01*
X137945499Y-113809209D01*
X137852835Y-113858739D01*
X137771615Y-113925395D01*
X137754914Y-113945745D01*
X137436350Y-114264309D01*
X137416006Y-114281005D01*
X137399310Y-114301349D01*
X137399307Y-114301352D01*
X137396814Y-114304390D01*
X137349350Y-114362225D01*
X137349349Y-114362227D01*
X137345143Y-114370096D01*
X137311801Y-114397460D01*
X136652000Y-113737659D01*
X136652000Y-113666150D01*
X136622717Y-113518933D01*
X136565276Y-113380258D01*
X136481884Y-113255453D01*
X136375747Y-113149316D01*
X136250942Y-113065924D01*
X136112267Y-113008483D01*
X135965050Y-112979200D01*
X135814950Y-112979200D01*
X135667733Y-113008483D01*
X135529058Y-113065924D01*
X135404253Y-113149316D01*
X135298116Y-113255453D01*
X135214724Y-113380258D01*
X135157283Y-113518933D01*
X135128000Y-113666150D01*
X135128000Y-113816250D01*
X135157283Y-113963467D01*
X135214724Y-114102142D01*
X135298116Y-114226947D01*
X135404253Y-114333084D01*
X135529058Y-114416476D01*
X135667733Y-114473917D01*
X135814950Y-114503200D01*
X135908859Y-114503200D01*
X137040659Y-115635000D01*
X136342197Y-116333461D01*
X136304488Y-116287512D01*
X136208589Y-116208810D01*
X136099179Y-116150329D01*
X135980462Y-116114317D01*
X135857000Y-116102157D01*
X134907000Y-116102157D01*
X134783538Y-116114317D01*
X134664821Y-116150329D01*
X134555411Y-116208810D01*
X134459512Y-116287512D01*
X134380810Y-116383411D01*
X134322329Y-116492821D01*
X134286317Y-116611538D01*
X134274157Y-116735000D01*
X134274157Y-117410000D01*
X134286317Y-117533462D01*
X134322329Y-117652179D01*
X134380810Y-117761589D01*
X134459512Y-117857488D01*
X134550780Y-117932389D01*
X134532518Y-117934188D01*
X134412820Y-117970498D01*
X134302506Y-118029463D01*
X134205815Y-118108815D01*
X134126463Y-118205506D01*
X134067498Y-118315820D01*
X134031188Y-118435518D01*
X134018928Y-118560000D01*
X128117600Y-118560000D01*
X128117600Y-110950000D01*
X128171928Y-110950000D01*
X128184188Y-111074482D01*
X128220498Y-111194180D01*
X128279463Y-111304494D01*
X128358815Y-111401185D01*
X128455506Y-111480537D01*
X128565820Y-111539502D01*
X128685518Y-111575812D01*
X128810000Y-111588072D01*
X129324250Y-111585000D01*
X129483000Y-111426250D01*
X129483000Y-110577000D01*
X128333750Y-110577000D01*
X128175000Y-110735750D01*
X128171928Y-110950000D01*
X128117600Y-110950000D01*
X128117600Y-109950000D01*
X128171928Y-109950000D01*
X128175000Y-110164250D01*
X128333750Y-110323000D01*
X129483000Y-110323000D01*
X129483000Y-109473750D01*
X129737000Y-109473750D01*
X129737000Y-110323000D01*
X129757000Y-110323000D01*
X129757000Y-110577000D01*
X129737000Y-110577000D01*
X129737000Y-111426250D01*
X129895750Y-111585000D01*
X130410000Y-111588072D01*
X130534482Y-111575812D01*
X130654180Y-111539502D01*
X130764494Y-111480537D01*
X130861185Y-111401185D01*
X130940537Y-111304494D01*
X130971285Y-111246969D01*
X130997304Y-111268322D01*
X131063492Y-111303701D01*
X131135311Y-111325487D01*
X131210000Y-111332843D01*
X132810000Y-111332843D01*
X132884689Y-111325487D01*
X132956508Y-111303701D01*
X133022696Y-111268322D01*
X133080711Y-111220711D01*
X133128322Y-111162696D01*
X133163701Y-111096508D01*
X133185487Y-111024689D01*
X133192843Y-110950000D01*
X133192843Y-109950000D01*
X133185487Y-109875311D01*
X133163701Y-109803492D01*
X133128322Y-109737304D01*
X133080711Y-109679289D01*
X133022696Y-109631678D01*
X132956508Y-109596299D01*
X132884689Y-109574513D01*
X132810000Y-109567157D01*
X131210000Y-109567157D01*
X131135311Y-109574513D01*
X131063492Y-109596299D01*
X130997304Y-109631678D01*
X130971285Y-109653031D01*
X130940537Y-109595506D01*
X130861185Y-109498815D01*
X130764494Y-109419463D01*
X130654180Y-109360498D01*
X130534482Y-109324188D01*
X130410000Y-109311928D01*
X129895750Y-109315000D01*
X129737000Y-109473750D01*
X129483000Y-109473750D01*
X129324250Y-109315000D01*
X128810000Y-109311928D01*
X128685518Y-109324188D01*
X128565820Y-109360498D01*
X128455506Y-109419463D01*
X128358815Y-109498815D01*
X128279463Y-109595506D01*
X128220498Y-109705820D01*
X128184188Y-109825518D01*
X128171928Y-109950000D01*
X128117600Y-109950000D01*
X128117600Y-107176020D01*
X128427157Y-107485577D01*
X128427157Y-108450000D01*
X128434513Y-108524689D01*
X128456299Y-108596508D01*
X128491678Y-108662696D01*
X128539289Y-108720711D01*
X128597304Y-108768322D01*
X128663492Y-108803701D01*
X128735311Y-108825487D01*
X128810000Y-108832843D01*
X130410000Y-108832843D01*
X130484689Y-108825487D01*
X130556508Y-108803701D01*
X130622696Y-108768322D01*
X130680711Y-108720711D01*
X130728322Y-108662696D01*
X130763701Y-108596508D01*
X130785487Y-108524689D01*
X130792843Y-108450000D01*
X130792843Y-107450000D01*
X130827157Y-107450000D01*
X130827157Y-108450000D01*
X130834513Y-108524689D01*
X130856299Y-108596508D01*
X130891678Y-108662696D01*
X130939289Y-108720711D01*
X130997304Y-108768322D01*
X131063492Y-108803701D01*
X131135311Y-108825487D01*
X131210000Y-108832843D01*
X132810000Y-108832843D01*
X132884689Y-108825487D01*
X132956508Y-108803701D01*
X133022696Y-108768322D01*
X133080711Y-108720711D01*
X133128322Y-108662696D01*
X133163701Y-108596508D01*
X133167192Y-108585000D01*
X136874819Y-108585000D01*
X136906000Y-108588071D01*
X136937181Y-108585000D01*
X136937192Y-108585000D01*
X137030482Y-108575812D01*
X137150180Y-108539502D01*
X137260494Y-108480537D01*
X137357185Y-108401185D01*
X137377074Y-108376950D01*
X139731182Y-106022843D01*
X142216000Y-106022843D01*
X142290689Y-106015487D01*
X142362508Y-105993701D01*
X142428696Y-105958322D01*
X142486711Y-105910711D01*
X142534322Y-105852696D01*
X142569701Y-105786508D01*
X142591487Y-105714689D01*
X142598843Y-105640000D01*
X142598843Y-102640000D01*
X142591487Y-102565311D01*
X142569701Y-102493492D01*
X142534322Y-102427304D01*
X142486711Y-102369289D01*
X142428696Y-102321678D01*
X142362508Y-102286299D01*
X142290689Y-102264513D01*
X142216000Y-102257157D01*
X139216000Y-102257157D01*
X139141311Y-102264513D01*
X139069492Y-102286299D01*
X139003304Y-102321678D01*
X138945289Y-102369289D01*
X138897678Y-102427304D01*
X138862299Y-102493492D01*
X138840513Y-102565311D01*
X138833157Y-102640000D01*
X138833157Y-105124818D01*
X136642976Y-107315000D01*
X133167192Y-107315000D01*
X133163701Y-107303492D01*
X133128322Y-107237304D01*
X133080711Y-107179289D01*
X133022696Y-107131678D01*
X132956508Y-107096299D01*
X132884689Y-107074513D01*
X132810000Y-107067157D01*
X131210000Y-107067157D01*
X131135311Y-107074513D01*
X131063492Y-107096299D01*
X130997304Y-107131678D01*
X130939289Y-107179289D01*
X130891678Y-107237304D01*
X130856299Y-107303492D01*
X130834513Y-107375311D01*
X130827157Y-107450000D01*
X130792843Y-107450000D01*
X130785487Y-107375311D01*
X130763701Y-107303492D01*
X130728322Y-107237304D01*
X130680711Y-107179289D01*
X130622696Y-107131678D01*
X130556508Y-107096299D01*
X130484689Y-107074513D01*
X130410000Y-107067157D01*
X129445578Y-107067157D01*
X128809600Y-106431180D01*
X128809600Y-106332804D01*
X128810000Y-106332843D01*
X130410000Y-106332843D01*
X130484689Y-106325487D01*
X130556508Y-106303701D01*
X130622696Y-106268322D01*
X130680711Y-106220711D01*
X130728322Y-106162696D01*
X130763701Y-106096508D01*
X130785487Y-106024689D01*
X130792843Y-105950000D01*
X130792843Y-104950000D01*
X130827157Y-104950000D01*
X130827157Y-105950000D01*
X130834513Y-106024689D01*
X130856299Y-106096508D01*
X130891678Y-106162696D01*
X130939289Y-106220711D01*
X130997304Y-106268322D01*
X131063492Y-106303701D01*
X131135311Y-106325487D01*
X131210000Y-106332843D01*
X132810000Y-106332843D01*
X132884689Y-106325487D01*
X132956508Y-106303701D01*
X133022696Y-106268322D01*
X133080711Y-106220711D01*
X133128322Y-106162696D01*
X133163701Y-106096508D01*
X133185487Y-106024689D01*
X133192843Y-105950000D01*
X133192843Y-104950000D01*
X133185487Y-104875311D01*
X133163701Y-104803492D01*
X133128322Y-104737304D01*
X133080711Y-104679289D01*
X133022696Y-104631678D01*
X132956508Y-104596299D01*
X132884689Y-104574513D01*
X132810000Y-104567157D01*
X132645000Y-104567157D01*
X132645000Y-100069445D01*
X132766903Y-100150898D01*
X132990931Y-100243693D01*
X133228757Y-100291000D01*
X133471243Y-100291000D01*
X133709069Y-100243693D01*
X133933097Y-100150898D01*
X134134717Y-100016180D01*
X134306180Y-99844717D01*
X134440898Y-99643097D01*
X134533693Y-99419069D01*
X134581000Y-99181243D01*
X134581000Y-98938757D01*
X134659000Y-98938757D01*
X134659000Y-99181243D01*
X134706307Y-99419069D01*
X134799102Y-99643097D01*
X134933820Y-99844717D01*
X135105283Y-100016180D01*
X135306903Y-100150898D01*
X135530931Y-100243693D01*
X135768757Y-100291000D01*
X136011243Y-100291000D01*
X136249069Y-100243693D01*
X136473097Y-100150898D01*
X136674717Y-100016180D01*
X136846180Y-99844717D01*
X136980898Y-99643097D01*
X137073693Y-99419069D01*
X137121000Y-99181243D01*
X137121000Y-98938757D01*
X137199000Y-98938757D01*
X137199000Y-99181243D01*
X137246307Y-99419069D01*
X137339102Y-99643097D01*
X137473820Y-99844717D01*
X137645283Y-100016180D01*
X137846903Y-100150898D01*
X138070931Y-100243693D01*
X138308757Y-100291000D01*
X138551243Y-100291000D01*
X138789069Y-100243693D01*
X139013097Y-100150898D01*
X139214717Y-100016180D01*
X139386180Y-99844717D01*
X139520898Y-99643097D01*
X139568228Y-99528832D01*
X139625843Y-99691252D01*
X139774822Y-99941355D01*
X139969731Y-100157588D01*
X140203080Y-100331641D01*
X140465901Y-100456825D01*
X140613110Y-100501476D01*
X140843000Y-100380155D01*
X140843000Y-99187000D01*
X140823000Y-99187000D01*
X140823000Y-98933000D01*
X140843000Y-98933000D01*
X140843000Y-97739845D01*
X140613110Y-97618524D01*
X140465901Y-97663175D01*
X140203080Y-97788359D01*
X139969731Y-97962412D01*
X139774822Y-98178645D01*
X139625843Y-98428748D01*
X139568228Y-98591168D01*
X139520898Y-98476903D01*
X139386180Y-98275283D01*
X139214717Y-98103820D01*
X139013097Y-97969102D01*
X138789069Y-97876307D01*
X138551243Y-97829000D01*
X138308757Y-97829000D01*
X138070931Y-97876307D01*
X137846903Y-97969102D01*
X137645283Y-98103820D01*
X137473820Y-98275283D01*
X137339102Y-98476903D01*
X137246307Y-98700931D01*
X137199000Y-98938757D01*
X137121000Y-98938757D01*
X137073693Y-98700931D01*
X136980898Y-98476903D01*
X136846180Y-98275283D01*
X136674717Y-98103820D01*
X136473097Y-97969102D01*
X136249069Y-97876307D01*
X136011243Y-97829000D01*
X135768757Y-97829000D01*
X135530931Y-97876307D01*
X135306903Y-97969102D01*
X135105283Y-98103820D01*
X134933820Y-98275283D01*
X134799102Y-98476903D01*
X134706307Y-98700931D01*
X134659000Y-98938757D01*
X134581000Y-98938757D01*
X134533693Y-98700931D01*
X134440898Y-98476903D01*
X134306180Y-98275283D01*
X134134717Y-98103820D01*
X133933097Y-97969102D01*
X133709069Y-97876307D01*
X133532234Y-97841132D01*
X149016956Y-82356411D01*
X149041185Y-82336527D01*
X149076235Y-82293818D01*
X149120538Y-82239836D01*
X149179502Y-82129522D01*
X149188684Y-82099253D01*
X149215812Y-82009824D01*
X149225000Y-81916534D01*
X149225000Y-81916531D01*
X149228072Y-81885342D01*
X149225000Y-81854153D01*
X149225000Y-79796218D01*
X149374717Y-79696180D01*
X149546180Y-79524717D01*
X149680898Y-79323097D01*
X149773693Y-79099069D01*
X149821000Y-78861243D01*
X149821000Y-78618757D01*
X149899000Y-78618757D01*
X149899000Y-78861243D01*
X149946307Y-79099069D01*
X150039102Y-79323097D01*
X150173820Y-79524717D01*
X150345283Y-79696180D01*
X150546903Y-79830898D01*
X150770931Y-79923693D01*
X151008757Y-79971000D01*
X151251243Y-79971000D01*
X151489069Y-79923693D01*
X151713097Y-79830898D01*
X151914717Y-79696180D01*
X152086180Y-79524717D01*
X152220898Y-79323097D01*
X152313693Y-79099069D01*
X152361000Y-78861243D01*
X152361000Y-78618757D01*
X152313693Y-78380931D01*
X152220898Y-78156903D01*
X152086180Y-77955283D01*
X151914717Y-77783820D01*
X151713097Y-77649102D01*
X151489069Y-77556307D01*
X151251243Y-77509000D01*
X151008757Y-77509000D01*
X150770931Y-77556307D01*
X150546903Y-77649102D01*
X150345283Y-77783820D01*
X150173820Y-77955283D01*
X150039102Y-78156903D01*
X149946307Y-78380931D01*
X149899000Y-78618757D01*
X149821000Y-78618757D01*
X149773693Y-78380931D01*
X149680898Y-78156903D01*
X149546180Y-77955283D01*
X149374717Y-77783820D01*
X149173097Y-77649102D01*
X148949069Y-77556307D01*
X148711243Y-77509000D01*
X148468757Y-77509000D01*
X148230931Y-77556307D01*
X148006903Y-77649102D01*
X147805283Y-77783820D01*
X147633820Y-77955283D01*
X147499102Y-78156903D01*
X147406307Y-78380931D01*
X147359000Y-78618757D01*
X147359000Y-78861243D01*
X147406307Y-79099069D01*
X147499102Y-79323097D01*
X147633820Y-79524717D01*
X147805283Y-79696180D01*
X147955001Y-79796218D01*
X147955000Y-81622317D01*
X131583046Y-97994272D01*
X131558816Y-98014157D01*
X131538932Y-98038386D01*
X131479463Y-98110849D01*
X131420498Y-98221163D01*
X131384189Y-98340861D01*
X131371929Y-98465342D01*
X131375001Y-98496533D01*
X131375000Y-104567157D01*
X131210000Y-104567157D01*
X131135311Y-104574513D01*
X131063492Y-104596299D01*
X130997304Y-104631678D01*
X130939289Y-104679289D01*
X130891678Y-104737304D01*
X130856299Y-104803492D01*
X130834513Y-104875311D01*
X130827157Y-104950000D01*
X130792843Y-104950000D01*
X130785487Y-104875311D01*
X130763701Y-104803492D01*
X130728322Y-104737304D01*
X130680711Y-104679289D01*
X130622696Y-104631678D01*
X130556508Y-104596299D01*
X130484689Y-104574513D01*
X130410000Y-104567157D01*
X128810000Y-104567157D01*
X128809600Y-104567196D01*
X128809600Y-96698820D01*
X145615834Y-79892587D01*
X145690931Y-79923693D01*
X145928757Y-79971000D01*
X146171243Y-79971000D01*
X146409069Y-79923693D01*
X146633097Y-79830898D01*
X146834717Y-79696180D01*
X147006180Y-79524717D01*
X147140898Y-79323097D01*
X147233693Y-79099069D01*
X147281000Y-78861243D01*
X147281000Y-78618757D01*
X147233693Y-78380931D01*
X147140898Y-78156903D01*
X147006180Y-77955283D01*
X146834717Y-77783820D01*
X146633097Y-77649102D01*
X146409069Y-77556307D01*
X146171243Y-77509000D01*
X145928757Y-77509000D01*
X145690931Y-77556307D01*
X145466903Y-77649102D01*
X145265283Y-77783820D01*
X145093820Y-77955283D01*
X144959102Y-78156903D01*
X144866307Y-78380931D01*
X144819000Y-78618757D01*
X144819000Y-78861243D01*
X144866307Y-79099069D01*
X144897413Y-79174166D01*
X128117600Y-95953980D01*
X128117600Y-91294820D01*
X140793663Y-78618757D01*
X142279000Y-78618757D01*
X142279000Y-78861243D01*
X142326307Y-79099069D01*
X142419102Y-79323097D01*
X142553820Y-79524717D01*
X142725283Y-79696180D01*
X142926903Y-79830898D01*
X143150931Y-79923693D01*
X143388757Y-79971000D01*
X143631243Y-79971000D01*
X143869069Y-79923693D01*
X144093097Y-79830898D01*
X144294717Y-79696180D01*
X144466180Y-79524717D01*
X144600898Y-79323097D01*
X144693693Y-79099069D01*
X144741000Y-78861243D01*
X144741000Y-78618757D01*
X144693693Y-78380931D01*
X144600898Y-78156903D01*
X144466180Y-77955283D01*
X144294717Y-77783820D01*
X144093097Y-77649102D01*
X143869069Y-77556307D01*
X143631243Y-77509000D01*
X143388757Y-77509000D01*
X143150931Y-77556307D01*
X142926903Y-77649102D01*
X142725283Y-77783820D01*
X142553820Y-77955283D01*
X142419102Y-78156903D01*
X142326307Y-78380931D01*
X142279000Y-78618757D01*
X140793663Y-78618757D01*
X141942420Y-77470000D01*
X153967580Y-77470000D01*
X154071436Y-77573856D01*
X154029069Y-77556307D01*
X153791243Y-77509000D01*
X153548757Y-77509000D01*
X153310931Y-77556307D01*
X153086903Y-77649102D01*
X152885283Y-77783820D01*
X152713820Y-77955283D01*
X152579102Y-78156903D01*
X152486307Y-78380931D01*
X152439000Y-78618757D01*
X152439000Y-78861243D01*
X152486307Y-79099069D01*
X152579102Y-79323097D01*
X152713820Y-79524717D01*
X152885283Y-79696180D01*
X153086903Y-79830898D01*
X153310931Y-79923693D01*
X153548757Y-79971000D01*
X153791243Y-79971000D01*
X154029069Y-79923693D01*
X154253097Y-79830898D01*
X154454717Y-79696180D01*
X154626180Y-79524717D01*
X154760898Y-79323097D01*
X154853693Y-79099069D01*
X154901000Y-78861243D01*
X154901000Y-78618757D01*
X154853693Y-78380931D01*
X154836145Y-78338565D01*
X155001786Y-78504206D01*
X154979000Y-78618757D01*
X154979000Y-78861243D01*
X155026307Y-79099069D01*
X155119102Y-79323097D01*
X155253820Y-79524717D01*
X155425283Y-79696180D01*
X155626903Y-79830898D01*
X155850931Y-79923693D01*
X156088757Y-79971000D01*
X156331243Y-79971000D01*
X156569069Y-79923693D01*
X156793097Y-79830898D01*
X156994717Y-79696180D01*
X157166180Y-79524717D01*
X157300898Y-79323097D01*
X157393693Y-79099069D01*
X157441000Y-78861243D01*
X157441000Y-78618757D01*
X157393693Y-78380931D01*
X157300898Y-78156903D01*
X157166180Y-77955283D01*
X156994717Y-77783820D01*
X156793097Y-77649102D01*
X156569069Y-77556307D01*
X156331243Y-77509000D01*
X156088757Y-77509000D01*
X155850931Y-77556307D01*
X155626903Y-77649102D01*
X155600898Y-77666478D01*
X154554855Y-76620435D01*
X154543009Y-76606000D01*
X177394001Y-76606000D01*
X177394000Y-154534000D01*
%TA.AperFunction,Conductor*%
D23*
G36*
X177394000Y-154534000D02*
G01*
X127406000Y-154534000D01*
X127406000Y-143840000D01*
X134567157Y-143840000D01*
X134567157Y-145140000D01*
X134574513Y-145214689D01*
X134596299Y-145286508D01*
X134631678Y-145352696D01*
X134679289Y-145410711D01*
X134737304Y-145458322D01*
X134803492Y-145493701D01*
X134875311Y-145515487D01*
X134950000Y-145522843D01*
X136500000Y-145522843D01*
X136574689Y-145515487D01*
X136646508Y-145493701D01*
X136712696Y-145458322D01*
X136770711Y-145410711D01*
X136818322Y-145352696D01*
X136853701Y-145286508D01*
X136875487Y-145214689D01*
X136882843Y-145140000D01*
X142261928Y-145140000D01*
X142274188Y-145264482D01*
X142310498Y-145384180D01*
X142369463Y-145494494D01*
X142448815Y-145591185D01*
X142545506Y-145670537D01*
X142655820Y-145729502D01*
X142775518Y-145765812D01*
X142900000Y-145778072D01*
X143389250Y-145775000D01*
X143548000Y-145616250D01*
X143548000Y-144617000D01*
X143802000Y-144617000D01*
X143802000Y-145616250D01*
X143960750Y-145775000D01*
X144450000Y-145778072D01*
X144574482Y-145765812D01*
X144694180Y-145729502D01*
X144804494Y-145670537D01*
X144901185Y-145591185D01*
X144980537Y-145494494D01*
X145039502Y-145384180D01*
X145075812Y-145264482D01*
X145088072Y-145140000D01*
X145085000Y-144775750D01*
X144926250Y-144617000D01*
X143802000Y-144617000D01*
X143548000Y-144617000D01*
X142423750Y-144617000D01*
X142265000Y-144775750D01*
X142261928Y-145140000D01*
X136882843Y-145140000D01*
X136882843Y-143840000D01*
X142261928Y-143840000D01*
X142265000Y-144204250D01*
X142423750Y-144363000D01*
X143548000Y-144363000D01*
X143548000Y-143363750D01*
X143802000Y-143363750D01*
X143802000Y-144363000D01*
X144926250Y-144363000D01*
X145085000Y-144204250D01*
X145088072Y-143840000D01*
X159967157Y-143840000D01*
X159967157Y-145140000D01*
X159974513Y-145214689D01*
X159996299Y-145286508D01*
X160031678Y-145352696D01*
X160079289Y-145410711D01*
X160137304Y-145458322D01*
X160203492Y-145493701D01*
X160275311Y-145515487D01*
X160350000Y-145522843D01*
X161900000Y-145522843D01*
X161974689Y-145515487D01*
X162046508Y-145493701D01*
X162112696Y-145458322D01*
X162170711Y-145410711D01*
X162218322Y-145352696D01*
X162253701Y-145286508D01*
X162275487Y-145214689D01*
X162282843Y-145140000D01*
X167661928Y-145140000D01*
X167674188Y-145264482D01*
X167710498Y-145384180D01*
X167769463Y-145494494D01*
X167848815Y-145591185D01*
X167945506Y-145670537D01*
X168055820Y-145729502D01*
X168175518Y-145765812D01*
X168300000Y-145778072D01*
X168789250Y-145775000D01*
X168948000Y-145616250D01*
X168948000Y-144617000D01*
X169202000Y-144617000D01*
X169202000Y-145616250D01*
X169360750Y-145775000D01*
X169850000Y-145778072D01*
X169974482Y-145765812D01*
X170094180Y-145729502D01*
X170204494Y-145670537D01*
X170301185Y-145591185D01*
X170380537Y-145494494D01*
X170439502Y-145384180D01*
X170475812Y-145264482D01*
X170488072Y-145140000D01*
X170485000Y-144775750D01*
X170326250Y-144617000D01*
X169202000Y-144617000D01*
X168948000Y-144617000D01*
X167823750Y-144617000D01*
X167665000Y-144775750D01*
X167661928Y-145140000D01*
X162282843Y-145140000D01*
X162282843Y-143840000D01*
X167661928Y-143840000D01*
X167665000Y-144204250D01*
X167823750Y-144363000D01*
X168948000Y-144363000D01*
X168948000Y-143363750D01*
X169202000Y-143363750D01*
X169202000Y-144363000D01*
X170326250Y-144363000D01*
X170485000Y-144204250D01*
X170488072Y-143840000D01*
X170475812Y-143715518D01*
X170439502Y-143595820D01*
X170380537Y-143485506D01*
X170301185Y-143388815D01*
X170204494Y-143309463D01*
X170094180Y-143250498D01*
X169974482Y-143214188D01*
X169850000Y-143201928D01*
X169360750Y-143205000D01*
X169202000Y-143363750D01*
X168948000Y-143363750D01*
X168789250Y-143205000D01*
X168300000Y-143201928D01*
X168175518Y-143214188D01*
X168055820Y-143250498D01*
X167945506Y-143309463D01*
X167848815Y-143388815D01*
X167769463Y-143485506D01*
X167710498Y-143595820D01*
X167674188Y-143715518D01*
X167661928Y-143840000D01*
X162282843Y-143840000D01*
X162275487Y-143765311D01*
X162253701Y-143693492D01*
X162218322Y-143627304D01*
X162170711Y-143569289D01*
X162112696Y-143521678D01*
X162046508Y-143486299D01*
X161974689Y-143464513D01*
X161900000Y-143457157D01*
X160350000Y-143457157D01*
X160275311Y-143464513D01*
X160203492Y-143486299D01*
X160137304Y-143521678D01*
X160079289Y-143569289D01*
X160031678Y-143627304D01*
X159996299Y-143693492D01*
X159974513Y-143765311D01*
X159967157Y-143840000D01*
X145088072Y-143840000D01*
X145075812Y-143715518D01*
X145039502Y-143595820D01*
X144980537Y-143485506D01*
X144901185Y-143388815D01*
X144804494Y-143309463D01*
X144694180Y-143250498D01*
X144574482Y-143214188D01*
X144450000Y-143201928D01*
X143960750Y-143205000D01*
X143802000Y-143363750D01*
X143548000Y-143363750D01*
X143389250Y-143205000D01*
X142900000Y-143201928D01*
X142775518Y-143214188D01*
X142655820Y-143250498D01*
X142545506Y-143309463D01*
X142448815Y-143388815D01*
X142369463Y-143485506D01*
X142310498Y-143595820D01*
X142274188Y-143715518D01*
X142261928Y-143840000D01*
X136882843Y-143840000D01*
X136875487Y-143765311D01*
X136853701Y-143693492D01*
X136818322Y-143627304D01*
X136770711Y-143569289D01*
X136712696Y-143521678D01*
X136646508Y-143486299D01*
X136574689Y-143464513D01*
X136500000Y-143457157D01*
X134950000Y-143457157D01*
X134875311Y-143464513D01*
X134803492Y-143486299D01*
X134737304Y-143521678D01*
X134679289Y-143569289D01*
X134631678Y-143627304D01*
X134596299Y-143693492D01*
X134574513Y-143765311D01*
X134567157Y-143840000D01*
X127406000Y-143840000D01*
X127406000Y-132389420D01*
X134567157Y-139550577D01*
X134567157Y-140640000D01*
X134574513Y-140714689D01*
X134596299Y-140786508D01*
X134631678Y-140852696D01*
X134679289Y-140910711D01*
X134737304Y-140958322D01*
X134803492Y-140993701D01*
X134875311Y-141015487D01*
X134950000Y-141022843D01*
X136500000Y-141022843D01*
X136574689Y-141015487D01*
X136646508Y-140993701D01*
X136712696Y-140958322D01*
X136770711Y-140910711D01*
X136818322Y-140852696D01*
X136853701Y-140786508D01*
X136875487Y-140714689D01*
X136882843Y-140640000D01*
X136882843Y-139340000D01*
X142517157Y-139340000D01*
X142517157Y-140640000D01*
X142524513Y-140714689D01*
X142546299Y-140786508D01*
X142581678Y-140852696D01*
X142629289Y-140910711D01*
X142687304Y-140958322D01*
X142753492Y-140993701D01*
X142825311Y-141015487D01*
X142900000Y-141022843D01*
X144450000Y-141022843D01*
X144524689Y-141015487D01*
X144596508Y-140993701D01*
X144662696Y-140958322D01*
X144720711Y-140910711D01*
X144768322Y-140852696D01*
X144803701Y-140786508D01*
X144825487Y-140714689D01*
X144832843Y-140640000D01*
X144832843Y-139340000D01*
X144825487Y-139265311D01*
X144803701Y-139193492D01*
X144768322Y-139127304D01*
X144720711Y-139069289D01*
X144662696Y-139021678D01*
X144596508Y-138986299D01*
X144524689Y-138964513D01*
X144450000Y-138957157D01*
X142900000Y-138957157D01*
X142825311Y-138964513D01*
X142753492Y-138986299D01*
X142687304Y-139021678D01*
X142629289Y-139069289D01*
X142581678Y-139127304D01*
X142546299Y-139193492D01*
X142524513Y-139265311D01*
X142517157Y-139340000D01*
X136882843Y-139340000D01*
X136875487Y-139265311D01*
X136853701Y-139193492D01*
X136818322Y-139127304D01*
X136770711Y-139069289D01*
X136712696Y-139021678D01*
X136646508Y-138986299D01*
X136574689Y-138964513D01*
X136500000Y-138957157D01*
X135410577Y-138957157D01*
X128117600Y-131664180D01*
X128117600Y-127652577D01*
X138610000Y-127652577D01*
X138610000Y-128067423D01*
X138690932Y-128474298D01*
X138849687Y-128857565D01*
X139080163Y-129202497D01*
X139373503Y-129495837D01*
X139718435Y-129726313D01*
X140101702Y-129885068D01*
X140508577Y-129966000D01*
X140923423Y-129966000D01*
X141330298Y-129885068D01*
X141713565Y-129726313D01*
X142058497Y-129495837D01*
X142351837Y-129202497D01*
X142582313Y-128857565D01*
X142741068Y-128474298D01*
X142822000Y-128067423D01*
X142822000Y-127652577D01*
X162110000Y-127652577D01*
X162110000Y-128067423D01*
X162190932Y-128474298D01*
X162349687Y-128857565D01*
X162580163Y-129202497D01*
X162873503Y-129495837D01*
X163218435Y-129726313D01*
X163601702Y-129885068D01*
X164008577Y-129966000D01*
X164423423Y-129966000D01*
X164830298Y-129885068D01*
X165213565Y-129726313D01*
X165558497Y-129495837D01*
X165851837Y-129202497D01*
X166082313Y-128857565D01*
X166241068Y-128474298D01*
X166322000Y-128067423D01*
X166322000Y-127652577D01*
X166241068Y-127245702D01*
X166082313Y-126862435D01*
X165851837Y-126517503D01*
X165558497Y-126224163D01*
X165213565Y-125993687D01*
X164830298Y-125834932D01*
X164423423Y-125754000D01*
X164008577Y-125754000D01*
X163601702Y-125834932D01*
X163218435Y-125993687D01*
X162873503Y-126224163D01*
X162580163Y-126517503D01*
X162349687Y-126862435D01*
X162190932Y-127245702D01*
X162110000Y-127652577D01*
X142822000Y-127652577D01*
X142741068Y-127245702D01*
X142582313Y-126862435D01*
X142351837Y-126517503D01*
X142058497Y-126224163D01*
X141713565Y-125993687D01*
X141330298Y-125834932D01*
X140923423Y-125754000D01*
X140508577Y-125754000D01*
X140101702Y-125834932D01*
X139718435Y-125993687D01*
X139373503Y-126224163D01*
X139080163Y-126517503D01*
X138849687Y-126862435D01*
X138690932Y-127245702D01*
X138610000Y-127652577D01*
X128117600Y-127652577D01*
X128117600Y-119735000D01*
X134018928Y-119735000D01*
X134031188Y-119859482D01*
X134067498Y-119979180D01*
X134126463Y-120089494D01*
X134205815Y-120186185D01*
X134302506Y-120265537D01*
X134412820Y-120324502D01*
X134532518Y-120360812D01*
X134657000Y-120373072D01*
X135096250Y-120370000D01*
X135255000Y-120211250D01*
X135255000Y-119274500D01*
X135509000Y-119274500D01*
X135509000Y-120211250D01*
X135667750Y-120370000D01*
X136107000Y-120373072D01*
X136231482Y-120360812D01*
X136351180Y-120324502D01*
X136461494Y-120265537D01*
X136558185Y-120186185D01*
X136637537Y-120089494D01*
X136696502Y-119979180D01*
X136732812Y-119859482D01*
X136742609Y-119760000D01*
X137112157Y-119760000D01*
X137112157Y-121410000D01*
X137122395Y-121513953D01*
X137152717Y-121613910D01*
X137201957Y-121706032D01*
X137268223Y-121786777D01*
X137348968Y-121853043D01*
X137401266Y-121880997D01*
X137408827Y-121890210D01*
X137434053Y-121920948D01*
X137453430Y-121936850D01*
X137748355Y-122231775D01*
X137764262Y-122251158D01*
X137813498Y-122291564D01*
X137841614Y-122314639D01*
X137851835Y-122320102D01*
X137929867Y-122361811D01*
X138025625Y-122390859D01*
X138100263Y-122398210D01*
X138100265Y-122398210D01*
X138125209Y-122400667D01*
X138150153Y-122398210D01*
X141928968Y-122398210D01*
X141953912Y-122400667D01*
X141978856Y-122398210D01*
X141978859Y-122398210D01*
X142053497Y-122390859D01*
X142149255Y-122361811D01*
X142237507Y-122314639D01*
X142314860Y-122251158D01*
X142330767Y-122231775D01*
X144715165Y-119847377D01*
X144734548Y-119831470D01*
X144798029Y-119754117D01*
X144845201Y-119665865D01*
X144874249Y-119570107D01*
X144881600Y-119495469D01*
X144881600Y-119495466D01*
X144884057Y-119470522D01*
X144881600Y-119445578D01*
X144881600Y-118930020D01*
X150372150Y-124420571D01*
X150388052Y-124439948D01*
X150407429Y-124455850D01*
X150465404Y-124503429D01*
X150553655Y-124550600D01*
X150553657Y-124550601D01*
X150649415Y-124579649D01*
X150724053Y-124587000D01*
X150724055Y-124587000D01*
X150748999Y-124589457D01*
X150773943Y-124587000D01*
X158344056Y-124587000D01*
X158369000Y-124589457D01*
X158393944Y-124587000D01*
X158393947Y-124587000D01*
X158468585Y-124579649D01*
X158564343Y-124550601D01*
X158652595Y-124503429D01*
X158729948Y-124439948D01*
X158745855Y-124420565D01*
X162139571Y-121026850D01*
X162158948Y-121010948D01*
X162177624Y-120988190D01*
X162222429Y-120933596D01*
X162269600Y-120845345D01*
X162271629Y-120838656D01*
X162298649Y-120749585D01*
X162306000Y-120674947D01*
X162306000Y-120674945D01*
X162308457Y-120650001D01*
X162306000Y-120625057D01*
X162306000Y-118853058D01*
X162392157Y-118766901D01*
X162392157Y-119060000D01*
X162399513Y-119134689D01*
X162421299Y-119206508D01*
X162456678Y-119272696D01*
X162504289Y-119330711D01*
X162562304Y-119378322D01*
X162628492Y-119413701D01*
X162700311Y-119435487D01*
X162775000Y-119442843D01*
X163875000Y-119442843D01*
X163949689Y-119435487D01*
X164021508Y-119413701D01*
X164087696Y-119378322D01*
X164145711Y-119330711D01*
X164193322Y-119272696D01*
X164228701Y-119206508D01*
X164250487Y-119134689D01*
X164257843Y-119060000D01*
X164257843Y-118260000D01*
X164250487Y-118185311D01*
X164228701Y-118113492D01*
X164226834Y-118110000D01*
X164228701Y-118106508D01*
X164250487Y-118034689D01*
X164257843Y-117960000D01*
X164257843Y-117710000D01*
X165942157Y-117710000D01*
X165942157Y-118510000D01*
X165949513Y-118584689D01*
X165971299Y-118656508D01*
X166006678Y-118722696D01*
X166054289Y-118780711D01*
X166112304Y-118828322D01*
X166178492Y-118863701D01*
X166250311Y-118885487D01*
X166325000Y-118892843D01*
X167425000Y-118892843D01*
X167499689Y-118885487D01*
X167571508Y-118863701D01*
X167637696Y-118828322D01*
X167695711Y-118780711D01*
X167743322Y-118722696D01*
X167778701Y-118656508D01*
X167800487Y-118584689D01*
X167807843Y-118510000D01*
X167807843Y-117931498D01*
X168252645Y-117486696D01*
X168272995Y-117469995D01*
X168339651Y-117388775D01*
X168389181Y-117296111D01*
X168419681Y-117195565D01*
X168427400Y-117117195D01*
X168427400Y-117117194D01*
X168429980Y-117091000D01*
X168427400Y-117064806D01*
X168427400Y-113828231D01*
X168485884Y-113769747D01*
X168569276Y-113644942D01*
X168626717Y-113506267D01*
X168656000Y-113359050D01*
X168656000Y-113208950D01*
X168626717Y-113061733D01*
X168569276Y-112923058D01*
X168485884Y-112798253D01*
X168379747Y-112692116D01*
X168254942Y-112608724D01*
X168116267Y-112551283D01*
X167969050Y-112522000D01*
X167818950Y-112522000D01*
X167671733Y-112551283D01*
X167533058Y-112608724D01*
X167408253Y-112692116D01*
X167302116Y-112798253D01*
X167218724Y-112923058D01*
X167161283Y-113061733D01*
X167133080Y-113203520D01*
X167088185Y-113148815D01*
X166991494Y-113069463D01*
X166881180Y-113010498D01*
X166761482Y-112974188D01*
X166637000Y-112961928D01*
X166322750Y-112965000D01*
X166164000Y-113123750D01*
X166164000Y-114173000D01*
X167113250Y-114173000D01*
X167272000Y-114014250D01*
X167274124Y-113727854D01*
X167302116Y-113769747D01*
X167360600Y-113828231D01*
X167360601Y-116870058D01*
X166903502Y-117327157D01*
X166325000Y-117327157D01*
X166250311Y-117334513D01*
X166178492Y-117356299D01*
X166112304Y-117391678D01*
X166054289Y-117439289D01*
X166006678Y-117497304D01*
X165971299Y-117563492D01*
X165949513Y-117635311D01*
X165942157Y-117710000D01*
X164257843Y-117710000D01*
X164257843Y-117160000D01*
X164250487Y-117085311D01*
X164228701Y-117013492D01*
X164193322Y-116947304D01*
X164145711Y-116889289D01*
X164087696Y-116841678D01*
X164021508Y-116806299D01*
X163949689Y-116784513D01*
X163875000Y-116777157D01*
X163833000Y-116777157D01*
X163833000Y-115397420D01*
X163847577Y-115382843D01*
X164387001Y-115382843D01*
X164510462Y-115370683D01*
X164629179Y-115334671D01*
X164738589Y-115276190D01*
X164833564Y-115198246D01*
X164847498Y-115244180D01*
X164906463Y-115354494D01*
X164985815Y-115451185D01*
X165082506Y-115530537D01*
X165192820Y-115589502D01*
X165312518Y-115625812D01*
X165437000Y-115638072D01*
X165751250Y-115635000D01*
X165910000Y-115476250D01*
X165910000Y-114427000D01*
X166164000Y-114427000D01*
X166164000Y-115476250D01*
X166322750Y-115635000D01*
X166637000Y-115638072D01*
X166761482Y-115625812D01*
X166881180Y-115589502D01*
X166991494Y-115530537D01*
X167088185Y-115451185D01*
X167167537Y-115354494D01*
X167226502Y-115244180D01*
X167262812Y-115124482D01*
X167275072Y-115000000D01*
X167272000Y-114585750D01*
X167113250Y-114427000D01*
X166164000Y-114427000D01*
X165910000Y-114427000D01*
X165890000Y-114427000D01*
X165890000Y-114173000D01*
X165910000Y-114173000D01*
X165910000Y-113123750D01*
X165751250Y-112965000D01*
X165437000Y-112961928D01*
X165312518Y-112974188D01*
X165192820Y-113010498D01*
X165082506Y-113069463D01*
X164985815Y-113148815D01*
X164906463Y-113245506D01*
X164847498Y-113355820D01*
X164833564Y-113401754D01*
X164738589Y-113323810D01*
X164629179Y-113265329D01*
X164510462Y-113229317D01*
X164387001Y-113217157D01*
X163686999Y-113217157D01*
X163563538Y-113229317D01*
X163444821Y-113265329D01*
X163335411Y-113323810D01*
X163239512Y-113402512D01*
X163160810Y-113498411D01*
X163102329Y-113607821D01*
X163066317Y-113726538D01*
X163054157Y-113849999D01*
X163054157Y-114739423D01*
X162983430Y-114810150D01*
X162964053Y-114826052D01*
X162948151Y-114845429D01*
X162948150Y-114845430D01*
X162900571Y-114903405D01*
X162871511Y-114957773D01*
X162853400Y-114991657D01*
X162831300Y-115064513D01*
X162824352Y-115087416D01*
X162814543Y-115187000D01*
X162817001Y-115211954D01*
X162817000Y-116777157D01*
X162775000Y-116777157D01*
X162700311Y-116784513D01*
X162628492Y-116806299D01*
X162562304Y-116841678D01*
X162504289Y-116889289D01*
X162456678Y-116947304D01*
X162421299Y-117013492D01*
X162399513Y-117085311D01*
X162392157Y-117160000D01*
X162392157Y-117434943D01*
X162315496Y-117458198D01*
X162227244Y-117505370D01*
X162149891Y-117568851D01*
X162133984Y-117588234D01*
X161456430Y-118265788D01*
X161437053Y-118281690D01*
X161421151Y-118301067D01*
X161421150Y-118301068D01*
X161373571Y-118359043D01*
X161347525Y-118407773D01*
X161326400Y-118447295D01*
X161313751Y-118488995D01*
X161297352Y-118543054D01*
X161287543Y-118642638D01*
X161290001Y-118667592D01*
X161290000Y-120439579D01*
X158158580Y-123571000D01*
X150959421Y-123571000D01*
X145669000Y-118280580D01*
X145669000Y-113182420D01*
X147165123Y-113182420D01*
X147167580Y-113207364D01*
X147167582Y-117931219D01*
X147165124Y-117956173D01*
X147171017Y-118016000D01*
X147174933Y-118055758D01*
X147195981Y-118125143D01*
X147203981Y-118151516D01*
X147251152Y-118239768D01*
X147292990Y-118290747D01*
X147314634Y-118317121D01*
X147334011Y-118333023D01*
X150376553Y-121375565D01*
X150392460Y-121394948D01*
X150469813Y-121458429D01*
X150558065Y-121505601D01*
X150653823Y-121534649D01*
X150728461Y-121542000D01*
X150728464Y-121542000D01*
X150753408Y-121544457D01*
X150778352Y-121542000D01*
X151846056Y-121542000D01*
X151871000Y-121544457D01*
X151895944Y-121542000D01*
X151895947Y-121542000D01*
X151970585Y-121534649D01*
X152066343Y-121505601D01*
X152154595Y-121458429D01*
X152231948Y-121394948D01*
X152247855Y-121375565D01*
X152460577Y-121162843D01*
X152675000Y-121162843D01*
X152749689Y-121155487D01*
X152821508Y-121133701D01*
X152887696Y-121098322D01*
X152945711Y-121050711D01*
X152964101Y-121028303D01*
X152964101Y-121619703D01*
X152961521Y-121645900D01*
X152971819Y-121750464D01*
X153002319Y-121851010D01*
X153002320Y-121851011D01*
X153051850Y-121943675D01*
X153077377Y-121974780D01*
X153101807Y-122004548D01*
X153101810Y-122004551D01*
X153118506Y-122024895D01*
X153138850Y-122041591D01*
X153390600Y-122293341D01*
X153390600Y-122376050D01*
X153419883Y-122523267D01*
X153477324Y-122661942D01*
X153560716Y-122786747D01*
X153666853Y-122892884D01*
X153791658Y-122976276D01*
X153930333Y-123033717D01*
X154077550Y-123063000D01*
X154227650Y-123063000D01*
X154374867Y-123033717D01*
X154513542Y-122976276D01*
X154638347Y-122892884D01*
X154744484Y-122786747D01*
X154827876Y-122661942D01*
X154885317Y-122523267D01*
X154914600Y-122376050D01*
X154914600Y-122225950D01*
X154885317Y-122078733D01*
X154827876Y-121940058D01*
X154744484Y-121815253D01*
X154638347Y-121709116D01*
X154513542Y-121625724D01*
X154374867Y-121568283D01*
X154227650Y-121539000D01*
X154144941Y-121539000D01*
X154030900Y-121424959D01*
X154030900Y-120767843D01*
X154070000Y-120767843D01*
X154144689Y-120760487D01*
X154216508Y-120738701D01*
X154282696Y-120703322D01*
X154340711Y-120655711D01*
X154388322Y-120597696D01*
X154423701Y-120531508D01*
X154445487Y-120459689D01*
X154452843Y-120385000D01*
X154452843Y-120092086D01*
X154518452Y-120038902D01*
X154598387Y-119942691D01*
X154658016Y-119832735D01*
X154695048Y-119713259D01*
X154705000Y-119595750D01*
X154546250Y-119437000D01*
X153624500Y-119437000D01*
X153624500Y-119452157D01*
X153370500Y-119452157D01*
X153370500Y-119437000D01*
X153350500Y-119437000D01*
X153350500Y-119183000D01*
X153370500Y-119183000D01*
X153370500Y-119167843D01*
X153624500Y-119167843D01*
X153624500Y-119183000D01*
X154546250Y-119183000D01*
X154705000Y-119024250D01*
X154695048Y-118906741D01*
X154658016Y-118787265D01*
X154598387Y-118677309D01*
X154518452Y-118581098D01*
X154452843Y-118527914D01*
X154452843Y-118492086D01*
X154518452Y-118438902D01*
X154598387Y-118342691D01*
X154658016Y-118232735D01*
X154695048Y-118113259D01*
X154705000Y-117995750D01*
X154546250Y-117837000D01*
X153624500Y-117837000D01*
X153624500Y-117852157D01*
X153370500Y-117852157D01*
X153370500Y-117837000D01*
X152448750Y-117837000D01*
X152290000Y-117995750D01*
X152299952Y-118113259D01*
X152336984Y-118232735D01*
X152396613Y-118342691D01*
X152476548Y-118438902D01*
X152542157Y-118492086D01*
X152542157Y-118527914D01*
X152476548Y-118581098D01*
X152396613Y-118677309D01*
X152336984Y-118787265D01*
X152299952Y-118906741D01*
X152290000Y-119024250D01*
X152448748Y-119182998D01*
X152290000Y-119182998D01*
X152290000Y-119252157D01*
X152257843Y-119252157D01*
X152257843Y-119035000D01*
X152250487Y-118960311D01*
X152235225Y-118910000D01*
X152250487Y-118859689D01*
X152257843Y-118785000D01*
X152257843Y-118235000D01*
X152250487Y-118160311D01*
X152235225Y-118110000D01*
X152250487Y-118059689D01*
X152257843Y-117985000D01*
X152257843Y-117435000D01*
X152250487Y-117360311D01*
X152235225Y-117310000D01*
X152250487Y-117259689D01*
X152257843Y-117185000D01*
X152257843Y-116967843D01*
X152290000Y-116967843D01*
X152290000Y-117037002D01*
X152430101Y-117037002D01*
X152396613Y-117077309D01*
X152382599Y-117103151D01*
X152290000Y-117195750D01*
X152299676Y-117310000D01*
X152290000Y-117424250D01*
X152382599Y-117516849D01*
X152396613Y-117542691D01*
X152476548Y-117638902D01*
X152573717Y-117717669D01*
X152684385Y-117775966D01*
X152804300Y-117811552D01*
X152928853Y-117823060D01*
X153211750Y-117820000D01*
X153370500Y-117661250D01*
X153370500Y-116958750D01*
X153624500Y-116958750D01*
X153624500Y-117661250D01*
X153783250Y-117820000D01*
X154066147Y-117823060D01*
X154190700Y-117811552D01*
X154310615Y-117775966D01*
X154421283Y-117717669D01*
X154518452Y-117638902D01*
X154598387Y-117542691D01*
X154612401Y-117516849D01*
X154705000Y-117424250D01*
X154695324Y-117310000D01*
X154705000Y-117195750D01*
X154612401Y-117103151D01*
X154598387Y-117077309D01*
X154518452Y-116981098D01*
X154421283Y-116902331D01*
X154310615Y-116844034D01*
X154190700Y-116808448D01*
X154066147Y-116796940D01*
X153783250Y-116800000D01*
X153624500Y-116958750D01*
X153370500Y-116958750D01*
X153350500Y-116938750D01*
X153350500Y-116783000D01*
X153370500Y-116783000D01*
X153370500Y-116767843D01*
X153624500Y-116767843D01*
X153624500Y-116783000D01*
X154546250Y-116783000D01*
X154705000Y-116624250D01*
X154695307Y-116509800D01*
X155223909Y-116509800D01*
X155230317Y-116574862D01*
X155266329Y-116693579D01*
X155324810Y-116802989D01*
X155403512Y-116898888D01*
X155499411Y-116977590D01*
X155608821Y-117036071D01*
X155655100Y-117050110D01*
X155655101Y-117417290D01*
X155608821Y-117431329D01*
X155499411Y-117489810D01*
X155403512Y-117568512D01*
X155324810Y-117664411D01*
X155266329Y-117773821D01*
X155230317Y-117892538D01*
X155218157Y-118016000D01*
X155218157Y-118966000D01*
X155230317Y-119089462D01*
X155266329Y-119208179D01*
X155324810Y-119317589D01*
X155403512Y-119413488D01*
X155499411Y-119492190D01*
X155608821Y-119550671D01*
X155655100Y-119564710D01*
X155655101Y-119931890D01*
X155608821Y-119945929D01*
X155499411Y-120004410D01*
X155403512Y-120083112D01*
X155324810Y-120179011D01*
X155266329Y-120288421D01*
X155230317Y-120407138D01*
X155218157Y-120530600D01*
X155218157Y-121480600D01*
X155230317Y-121604062D01*
X155266329Y-121722779D01*
X155324810Y-121832189D01*
X155403512Y-121928088D01*
X155499411Y-122006790D01*
X155608821Y-122065271D01*
X155727538Y-122101283D01*
X155851000Y-122113443D01*
X156526000Y-122113443D01*
X156649462Y-122101283D01*
X156768179Y-122065271D01*
X156877589Y-122006790D01*
X156973488Y-121928088D01*
X157048389Y-121836820D01*
X157050188Y-121855082D01*
X157086498Y-121974780D01*
X157145463Y-122085094D01*
X157224815Y-122181785D01*
X157321506Y-122261137D01*
X157431820Y-122320102D01*
X157551518Y-122356412D01*
X157676000Y-122368672D01*
X157977750Y-122365600D01*
X158136500Y-122206850D01*
X158136500Y-121132600D01*
X158390500Y-121132600D01*
X158390500Y-122206850D01*
X158549250Y-122365600D01*
X158851000Y-122368672D01*
X158975482Y-122356412D01*
X159095180Y-122320102D01*
X159205494Y-122261137D01*
X159302185Y-122181785D01*
X159381537Y-122085094D01*
X159440502Y-121974780D01*
X159476812Y-121855082D01*
X159489072Y-121730600D01*
X159486000Y-121291350D01*
X159327250Y-121132600D01*
X158390500Y-121132600D01*
X158136500Y-121132600D01*
X158116500Y-121132600D01*
X158116500Y-120878600D01*
X158136500Y-120878600D01*
X158136500Y-119804350D01*
X158080450Y-119748300D01*
X158136500Y-119692250D01*
X158136500Y-118618000D01*
X158390500Y-118618000D01*
X158390500Y-119692250D01*
X158446550Y-119748300D01*
X158390500Y-119804350D01*
X158390500Y-120878600D01*
X159327250Y-120878600D01*
X159486000Y-120719850D01*
X159489072Y-120280600D01*
X159476812Y-120156118D01*
X159440502Y-120036420D01*
X159381537Y-119926106D01*
X159302185Y-119829415D01*
X159205494Y-119750063D01*
X159202196Y-119748300D01*
X159205494Y-119746537D01*
X159302185Y-119667185D01*
X159381537Y-119570494D01*
X159440502Y-119460180D01*
X159476812Y-119340482D01*
X159489072Y-119216000D01*
X159486000Y-118776750D01*
X159327250Y-118618000D01*
X158390500Y-118618000D01*
X158136500Y-118618000D01*
X158116500Y-118618000D01*
X158116500Y-118364000D01*
X158136500Y-118364000D01*
X158136500Y-117289750D01*
X158080450Y-117233700D01*
X158136500Y-117177650D01*
X158136500Y-116103400D01*
X158390500Y-116103400D01*
X158390500Y-117177650D01*
X158446550Y-117233700D01*
X158390500Y-117289750D01*
X158390500Y-118364000D01*
X159327250Y-118364000D01*
X159486000Y-118205250D01*
X159489072Y-117766000D01*
X159476812Y-117641518D01*
X159440502Y-117521820D01*
X159381537Y-117411506D01*
X159302185Y-117314815D01*
X159205494Y-117235463D01*
X159202196Y-117233700D01*
X159205494Y-117231937D01*
X159302185Y-117152585D01*
X159381537Y-117055894D01*
X159440502Y-116945580D01*
X159476812Y-116825882D01*
X159489072Y-116701400D01*
X159486000Y-116262150D01*
X159327250Y-116103400D01*
X158390500Y-116103400D01*
X158136500Y-116103400D01*
X158116500Y-116103400D01*
X158116500Y-115849400D01*
X158136500Y-115849400D01*
X158136500Y-115829400D01*
X158390500Y-115829400D01*
X158390500Y-115849400D01*
X159327250Y-115849400D01*
X159486000Y-115690650D01*
X159489072Y-115251400D01*
X159476812Y-115126918D01*
X159451743Y-115044277D01*
X159489747Y-115018884D01*
X159595884Y-114912747D01*
X159679276Y-114787942D01*
X159736717Y-114649267D01*
X159766000Y-114502050D01*
X159766000Y-114351950D01*
X159736717Y-114204733D01*
X159679276Y-114066058D01*
X159595884Y-113941253D01*
X159489747Y-113835116D01*
X159364942Y-113751724D01*
X159226267Y-113694283D01*
X159079050Y-113665000D01*
X158928950Y-113665000D01*
X158781733Y-113694283D01*
X158643058Y-113751724D01*
X158518253Y-113835116D01*
X158459769Y-113893600D01*
X157764086Y-113893600D01*
X157737899Y-113891021D01*
X157711712Y-113893600D01*
X157711705Y-113893600D01*
X157633335Y-113901319D01*
X157532789Y-113931819D01*
X157440125Y-113981349D01*
X157397408Y-114016406D01*
X157383558Y-114027773D01*
X157358905Y-114048005D01*
X157342209Y-114068349D01*
X156540567Y-114869992D01*
X156526000Y-114868557D01*
X155851000Y-114868557D01*
X155727538Y-114880717D01*
X155608821Y-114916729D01*
X155499411Y-114975210D01*
X155403512Y-115053912D01*
X155324810Y-115149811D01*
X155266329Y-115259221D01*
X155230317Y-115377938D01*
X155223909Y-115443000D01*
X153657287Y-115443000D01*
X153631100Y-115440421D01*
X153604913Y-115443000D01*
X153604905Y-115443000D01*
X153526535Y-115450719D01*
X153521795Y-115452157D01*
X153431901Y-115452157D01*
X168135857Y-100748201D01*
X169451553Y-100748201D01*
X169476497Y-100750658D01*
X169501441Y-100748201D01*
X169501444Y-100748201D01*
X169576082Y-100740850D01*
X169671840Y-100711802D01*
X169760092Y-100664630D01*
X169837445Y-100601149D01*
X169853352Y-100581766D01*
X170295536Y-100139582D01*
X170329289Y-100180711D01*
X170387304Y-100228322D01*
X170453492Y-100263701D01*
X170525311Y-100285487D01*
X170600000Y-100292843D01*
X172300000Y-100292843D01*
X172374689Y-100285487D01*
X172446508Y-100263701D01*
X172512696Y-100228322D01*
X172570711Y-100180711D01*
X172618322Y-100122696D01*
X172653701Y-100056508D01*
X172675487Y-99984689D01*
X172682843Y-99910000D01*
X172682843Y-98210000D01*
X172675487Y-98135311D01*
X172653701Y-98063492D01*
X172618322Y-97997304D01*
X172570711Y-97939289D01*
X172512696Y-97891678D01*
X172446508Y-97856299D01*
X172374689Y-97834513D01*
X172300000Y-97827157D01*
X170600000Y-97827157D01*
X170598201Y-97827334D01*
X170598201Y-82485145D01*
X170600658Y-82460201D01*
X170598201Y-82435254D01*
X170590850Y-82360616D01*
X170561802Y-82264858D01*
X170514630Y-82176606D01*
X170451149Y-82099253D01*
X170431766Y-82083346D01*
X167522587Y-79174167D01*
X167553693Y-79099069D01*
X167601000Y-78861243D01*
X167601000Y-78618757D01*
X167553693Y-78380931D01*
X167460898Y-78156903D01*
X167401361Y-78067799D01*
X167878639Y-78067799D01*
X167819102Y-78156903D01*
X167726307Y-78380931D01*
X167679000Y-78618757D01*
X167679000Y-78861243D01*
X167726307Y-79099069D01*
X167819102Y-79323097D01*
X167953820Y-79524717D01*
X168125283Y-79696180D01*
X168326903Y-79830898D01*
X168550931Y-79923693D01*
X168788757Y-79971000D01*
X169031243Y-79971000D01*
X169269069Y-79923693D01*
X169493097Y-79830898D01*
X169694717Y-79696180D01*
X169866180Y-79524717D01*
X170000898Y-79323097D01*
X170093693Y-79099069D01*
X170141000Y-78861243D01*
X170141000Y-78618757D01*
X170093693Y-78380931D01*
X170000898Y-78156903D01*
X169941361Y-78067799D01*
X170217157Y-78067799D01*
X170217157Y-79590000D01*
X170224513Y-79664689D01*
X170246299Y-79736508D01*
X170281678Y-79802696D01*
X170329289Y-79860711D01*
X170387304Y-79908322D01*
X170453492Y-79943701D01*
X170525311Y-79965487D01*
X170600000Y-79972843D01*
X172300000Y-79972843D01*
X172374689Y-79965487D01*
X172446508Y-79943701D01*
X172512696Y-79908322D01*
X172570711Y-79860711D01*
X172618322Y-79802696D01*
X172653701Y-79736508D01*
X172675487Y-79664689D01*
X172682843Y-79590000D01*
X172682843Y-78067799D01*
X174123379Y-78067799D01*
X174548800Y-78493220D01*
X174548801Y-125847779D01*
X161439423Y-138957157D01*
X160350000Y-138957157D01*
X160275311Y-138964513D01*
X160203492Y-138986299D01*
X160137304Y-139021678D01*
X160079289Y-139069289D01*
X160031678Y-139127304D01*
X159996299Y-139193492D01*
X159974513Y-139265311D01*
X159967157Y-139340000D01*
X159967157Y-140640000D01*
X159974513Y-140714689D01*
X159996299Y-140786508D01*
X160031678Y-140852696D01*
X160079289Y-140910711D01*
X160137304Y-140958322D01*
X160203492Y-140993701D01*
X160275311Y-141015487D01*
X160350000Y-141022843D01*
X161900000Y-141022843D01*
X161974689Y-141015487D01*
X162046508Y-140993701D01*
X162112696Y-140958322D01*
X162170711Y-140910711D01*
X162218322Y-140852696D01*
X162253701Y-140786508D01*
X162275487Y-140714689D01*
X162282843Y-140640000D01*
X162282843Y-139550577D01*
X162493420Y-139340000D01*
X167917157Y-139340000D01*
X167917157Y-140640000D01*
X167924513Y-140714689D01*
X167946299Y-140786508D01*
X167981678Y-140852696D01*
X168029289Y-140910711D01*
X168087304Y-140958322D01*
X168153492Y-140993701D01*
X168225311Y-141015487D01*
X168300000Y-141022843D01*
X169850000Y-141022843D01*
X169924689Y-141015487D01*
X169996508Y-140993701D01*
X170062696Y-140958322D01*
X170120711Y-140910711D01*
X170168322Y-140852696D01*
X170203701Y-140786508D01*
X170225487Y-140714689D01*
X170232843Y-140640000D01*
X170232843Y-139340000D01*
X170225487Y-139265311D01*
X170203701Y-139193492D01*
X170168322Y-139127304D01*
X170120711Y-139069289D01*
X170062696Y-139021678D01*
X169996508Y-138986299D01*
X169924689Y-138964513D01*
X169850000Y-138957157D01*
X168300000Y-138957157D01*
X168225311Y-138964513D01*
X168153492Y-138986299D01*
X168087304Y-139021678D01*
X168029289Y-139069289D01*
X167981678Y-139127304D01*
X167946299Y-139193492D01*
X167924513Y-139265311D01*
X167917157Y-139340000D01*
X162493420Y-139340000D01*
X175398365Y-126435055D01*
X175417748Y-126419148D01*
X175481229Y-126341795D01*
X175528401Y-126253543D01*
X175557449Y-126157785D01*
X175564800Y-126083147D01*
X175564800Y-126083144D01*
X175567257Y-126058200D01*
X175564800Y-126033256D01*
X175564800Y-78307744D01*
X175567257Y-78282800D01*
X175564800Y-78257853D01*
X175557449Y-78183215D01*
X175528401Y-78087457D01*
X175481229Y-77999205D01*
X175417748Y-77921852D01*
X175398365Y-77905945D01*
X174710654Y-77218234D01*
X174694747Y-77198851D01*
X174617394Y-77135370D01*
X174529142Y-77088198D01*
X174433384Y-77059150D01*
X174358746Y-77051799D01*
X174358743Y-77051799D01*
X174333799Y-77049342D01*
X174308855Y-77051799D01*
X159955144Y-77051799D01*
X159930200Y-77049342D01*
X159905256Y-77051799D01*
X159905254Y-77051799D01*
X159830616Y-77059150D01*
X159734858Y-77088198D01*
X159734856Y-77088199D01*
X159646605Y-77135370D01*
X159619831Y-77157343D01*
X159569253Y-77198851D01*
X159553351Y-77218228D01*
X159184166Y-77587413D01*
X159109069Y-77556307D01*
X158871243Y-77509000D01*
X158628757Y-77509000D01*
X158390931Y-77556307D01*
X158166903Y-77649102D01*
X157965283Y-77783820D01*
X157793820Y-77955283D01*
X157659102Y-78156903D01*
X157566307Y-78380931D01*
X157519000Y-78618757D01*
X157519000Y-78861243D01*
X157566307Y-79099069D01*
X157659102Y-79323097D01*
X157793820Y-79524717D01*
X157965283Y-79696180D01*
X158166903Y-79830898D01*
X158390931Y-79923693D01*
X158628757Y-79971000D01*
X158871243Y-79971000D01*
X159109069Y-79923693D01*
X159333097Y-79830898D01*
X159534717Y-79696180D01*
X159706180Y-79524717D01*
X159840898Y-79323097D01*
X159933693Y-79099069D01*
X159981000Y-78861243D01*
X159981000Y-78618757D01*
X159933693Y-78380931D01*
X159902587Y-78305834D01*
X160140622Y-78067799D01*
X160258639Y-78067799D01*
X160199102Y-78156903D01*
X160106307Y-78380931D01*
X160059000Y-78618757D01*
X160059000Y-78861243D01*
X160106307Y-79099069D01*
X160199102Y-79323097D01*
X160333820Y-79524717D01*
X160505283Y-79696180D01*
X160706903Y-79830898D01*
X160930931Y-79923693D01*
X161168757Y-79971000D01*
X161411243Y-79971000D01*
X161649069Y-79923693D01*
X161724167Y-79892587D01*
X164502201Y-82670621D01*
X164502202Y-98028640D01*
X164413097Y-97969102D01*
X164189069Y-97876307D01*
X163951243Y-97829000D01*
X163708757Y-97829000D01*
X163470931Y-97876307D01*
X163246903Y-97969102D01*
X163045283Y-98103820D01*
X162873820Y-98275283D01*
X162739102Y-98476903D01*
X162646307Y-98700931D01*
X162599000Y-98938757D01*
X162599000Y-99181243D01*
X162646307Y-99419069D01*
X162677413Y-99494167D01*
X161798000Y-100373580D01*
X161798000Y-100182004D01*
X161873097Y-100150898D01*
X162074717Y-100016180D01*
X162246180Y-99844717D01*
X162380898Y-99643097D01*
X162473693Y-99419069D01*
X162521000Y-99181243D01*
X162521000Y-98938757D01*
X162473693Y-98700931D01*
X162380898Y-98476903D01*
X162246180Y-98275283D01*
X162074717Y-98103820D01*
X161873097Y-97969102D01*
X161649069Y-97876307D01*
X161411243Y-97829000D01*
X161168757Y-97829000D01*
X160930931Y-97876307D01*
X160706903Y-97969102D01*
X160505283Y-98103820D01*
X160333820Y-98275283D01*
X160199102Y-98476903D01*
X160106307Y-98700931D01*
X160059000Y-98938757D01*
X160059000Y-99181243D01*
X160106307Y-99419069D01*
X160199102Y-99643097D01*
X160333820Y-99844717D01*
X160505283Y-100016180D01*
X160706903Y-100150898D01*
X160782001Y-100182004D01*
X160782001Y-100373579D01*
X159258000Y-101897580D01*
X159258000Y-100182004D01*
X159333097Y-100150898D01*
X159534717Y-100016180D01*
X159706180Y-99844717D01*
X159840898Y-99643097D01*
X159933693Y-99419069D01*
X159981000Y-99181243D01*
X159981000Y-98938757D01*
X159933693Y-98700931D01*
X159840898Y-98476903D01*
X159706180Y-98275283D01*
X159534717Y-98103820D01*
X159333097Y-97969102D01*
X159109069Y-97876307D01*
X158871243Y-97829000D01*
X158628757Y-97829000D01*
X158390931Y-97876307D01*
X158166903Y-97969102D01*
X157965283Y-98103820D01*
X157793820Y-98275283D01*
X157659102Y-98476903D01*
X157566307Y-98700931D01*
X157519000Y-98938757D01*
X157519000Y-99181243D01*
X157566307Y-99419069D01*
X157659102Y-99643097D01*
X157793820Y-99844717D01*
X157965283Y-100016180D01*
X158166903Y-100150898D01*
X158242000Y-100182004D01*
X158242001Y-101897578D01*
X155490758Y-104648821D01*
X155528044Y-104516449D01*
X155560902Y-104097176D01*
X155511334Y-103679549D01*
X155381243Y-103279617D01*
X155223214Y-102983962D01*
X154907653Y-102827952D01*
X153595605Y-104140000D01*
X153609748Y-104154143D01*
X153430143Y-104333748D01*
X153416000Y-104319605D01*
X152103952Y-105631653D01*
X152259962Y-105947214D01*
X152634745Y-106138020D01*
X153039551Y-106252044D01*
X153458824Y-106284902D01*
X153876451Y-106235334D01*
X153917645Y-106221934D01*
X147334009Y-112805571D01*
X147314632Y-112821473D01*
X147298730Y-112840850D01*
X147251151Y-112898825D01*
X147225937Y-112945997D01*
X147203979Y-112987078D01*
X147174931Y-113082836D01*
X147167580Y-113157473D01*
X147165123Y-113182420D01*
X145669000Y-113182420D01*
X145669000Y-104182824D01*
X151271098Y-104182824D01*
X151320666Y-104600451D01*
X151450757Y-105000383D01*
X151608786Y-105296038D01*
X151924347Y-105452048D01*
X153236395Y-104140000D01*
X151924347Y-102827952D01*
X151608786Y-102983962D01*
X151417980Y-103358745D01*
X151303956Y-103763551D01*
X151271098Y-104182824D01*
X145669000Y-104182824D01*
X145669000Y-102648347D01*
X152103952Y-102648347D01*
X153416000Y-103960395D01*
X154728048Y-102648347D01*
X154572038Y-102332786D01*
X154197255Y-102141980D01*
X153792449Y-102027956D01*
X153373176Y-101995098D01*
X152955549Y-102044666D01*
X152555617Y-102174757D01*
X152259962Y-102332786D01*
X152103952Y-102648347D01*
X145669000Y-102648347D01*
X145669000Y-100234609D01*
X145690931Y-100243693D01*
X145928757Y-100291000D01*
X146171243Y-100291000D01*
X146409069Y-100243693D01*
X146633097Y-100150898D01*
X146834717Y-100016180D01*
X147006180Y-99844717D01*
X147140898Y-99643097D01*
X147233693Y-99419069D01*
X147281000Y-99181243D01*
X147281000Y-98938757D01*
X147359000Y-98938757D01*
X147359000Y-99181243D01*
X147406307Y-99419069D01*
X147499102Y-99643097D01*
X147633820Y-99844717D01*
X147805283Y-100016180D01*
X148006903Y-100150898D01*
X148230931Y-100243693D01*
X148468757Y-100291000D01*
X148711243Y-100291000D01*
X148949069Y-100243693D01*
X149173097Y-100150898D01*
X149374717Y-100016180D01*
X149546180Y-99844717D01*
X149680898Y-99643097D01*
X149773693Y-99419069D01*
X149821000Y-99181243D01*
X149821000Y-98938757D01*
X149899000Y-98938757D01*
X149899000Y-99181243D01*
X149946307Y-99419069D01*
X150039102Y-99643097D01*
X150173820Y-99844717D01*
X150345283Y-100016180D01*
X150546903Y-100150898D01*
X150770931Y-100243693D01*
X151008757Y-100291000D01*
X151251243Y-100291000D01*
X151489069Y-100243693D01*
X151713097Y-100150898D01*
X151914717Y-100016180D01*
X152086180Y-99844717D01*
X152220898Y-99643097D01*
X152313693Y-99419069D01*
X152361000Y-99181243D01*
X152361000Y-98938757D01*
X152439000Y-98938757D01*
X152439000Y-99181243D01*
X152486307Y-99419069D01*
X152579102Y-99643097D01*
X152713820Y-99844717D01*
X152885283Y-100016180D01*
X153086903Y-100150898D01*
X153310931Y-100243693D01*
X153548757Y-100291000D01*
X153791243Y-100291000D01*
X154029069Y-100243693D01*
X154253097Y-100150898D01*
X154454717Y-100016180D01*
X154626180Y-99844717D01*
X154760898Y-99643097D01*
X154853693Y-99419069D01*
X154901000Y-99181243D01*
X154901000Y-98938757D01*
X154979000Y-98938757D01*
X154979000Y-99181243D01*
X155026307Y-99419069D01*
X155119102Y-99643097D01*
X155253820Y-99844717D01*
X155425283Y-100016180D01*
X155626903Y-100150898D01*
X155850931Y-100243693D01*
X156088757Y-100291000D01*
X156331243Y-100291000D01*
X156569069Y-100243693D01*
X156793097Y-100150898D01*
X156994717Y-100016180D01*
X157166180Y-99844717D01*
X157300898Y-99643097D01*
X157393693Y-99419069D01*
X157441000Y-99181243D01*
X157441000Y-98938757D01*
X157393693Y-98700931D01*
X157300898Y-98476903D01*
X157166180Y-98275283D01*
X156994717Y-98103820D01*
X156793097Y-97969102D01*
X156569069Y-97876307D01*
X156331243Y-97829000D01*
X156088757Y-97829000D01*
X155850931Y-97876307D01*
X155626903Y-97969102D01*
X155425283Y-98103820D01*
X155253820Y-98275283D01*
X155119102Y-98476903D01*
X155026307Y-98700931D01*
X154979000Y-98938757D01*
X154901000Y-98938757D01*
X154853693Y-98700931D01*
X154760898Y-98476903D01*
X154626180Y-98275283D01*
X154454717Y-98103820D01*
X154253097Y-97969102D01*
X154029069Y-97876307D01*
X153791243Y-97829000D01*
X153548757Y-97829000D01*
X153310931Y-97876307D01*
X153086903Y-97969102D01*
X152885283Y-98103820D01*
X152713820Y-98275283D01*
X152579102Y-98476903D01*
X152486307Y-98700931D01*
X152439000Y-98938757D01*
X152361000Y-98938757D01*
X152313693Y-98700931D01*
X152220898Y-98476903D01*
X152086180Y-98275283D01*
X151914717Y-98103820D01*
X151713097Y-97969102D01*
X151489069Y-97876307D01*
X151251243Y-97829000D01*
X151008757Y-97829000D01*
X150770931Y-97876307D01*
X150546903Y-97969102D01*
X150345283Y-98103820D01*
X150173820Y-98275283D01*
X150039102Y-98476903D01*
X149946307Y-98700931D01*
X149899000Y-98938757D01*
X149821000Y-98938757D01*
X149773693Y-98700931D01*
X149680898Y-98476903D01*
X149546180Y-98275283D01*
X149374717Y-98103820D01*
X149173097Y-97969102D01*
X148949069Y-97876307D01*
X148711243Y-97829000D01*
X148468757Y-97829000D01*
X148230931Y-97876307D01*
X148006903Y-97969102D01*
X147805283Y-98103820D01*
X147633820Y-98275283D01*
X147499102Y-98476903D01*
X147406307Y-98700931D01*
X147359000Y-98938757D01*
X147281000Y-98938757D01*
X147233693Y-98700931D01*
X147140898Y-98476903D01*
X147006180Y-98275283D01*
X146834717Y-98103820D01*
X146633097Y-97969102D01*
X146409069Y-97876307D01*
X146171243Y-97829000D01*
X145928757Y-97829000D01*
X145690931Y-97876307D01*
X145466903Y-97969102D01*
X145265283Y-98103820D01*
X145093820Y-98275283D01*
X144959102Y-98476903D01*
X144866307Y-98700931D01*
X144819000Y-98938757D01*
X144819000Y-99181243D01*
X144866307Y-99419069D01*
X144897413Y-99494167D01*
X144819435Y-99572145D01*
X144800052Y-99588052D01*
X144777722Y-99615261D01*
X144734548Y-99562652D01*
X144715165Y-99546745D01*
X144662587Y-99494167D01*
X144693693Y-99419069D01*
X144741000Y-99181243D01*
X144741000Y-98938757D01*
X144693693Y-98700931D01*
X144600898Y-98476903D01*
X144466180Y-98275283D01*
X144294717Y-98103820D01*
X144093097Y-97969102D01*
X143869069Y-97876307D01*
X143631243Y-97829000D01*
X143388757Y-97829000D01*
X143150931Y-97876307D01*
X142926903Y-97969102D01*
X142725283Y-98103820D01*
X142553820Y-98275283D01*
X142419102Y-98476903D01*
X142371772Y-98591168D01*
X142314157Y-98428748D01*
X142165178Y-98178645D01*
X141970269Y-97962412D01*
X141736920Y-97788359D01*
X141474099Y-97663175D01*
X141326890Y-97618524D01*
X141097000Y-97739845D01*
X141097000Y-98933000D01*
X141117000Y-98933000D01*
X141117000Y-99187000D01*
X141097000Y-99187000D01*
X141097000Y-100380155D01*
X141326890Y-100501476D01*
X141474099Y-100456825D01*
X141736920Y-100331641D01*
X141970269Y-100157588D01*
X142165178Y-99941355D01*
X142314157Y-99691252D01*
X142371772Y-99528832D01*
X142419102Y-99643097D01*
X142553820Y-99844717D01*
X142725283Y-100016180D01*
X142926903Y-100150898D01*
X143150931Y-100243693D01*
X143388757Y-100291000D01*
X143631243Y-100291000D01*
X143865601Y-100244383D01*
X143865600Y-119260102D01*
X142397476Y-120728226D01*
X142381250Y-120712000D01*
X141732000Y-120712000D01*
X141732000Y-120732000D01*
X141478000Y-120732000D01*
X141478000Y-120712000D01*
X141458000Y-120712000D01*
X141458000Y-120458000D01*
X141478000Y-120458000D01*
X141478000Y-119133750D01*
X141732000Y-119133750D01*
X141732000Y-120458000D01*
X142381250Y-120458000D01*
X142540000Y-120299250D01*
X142543072Y-119610000D01*
X142530812Y-119485518D01*
X142494502Y-119365820D01*
X142435537Y-119255506D01*
X142356185Y-119158815D01*
X142259494Y-119079463D01*
X142149180Y-119020498D01*
X142029482Y-118984188D01*
X141905000Y-118971928D01*
X141890750Y-118975000D01*
X141732000Y-119133750D01*
X141478000Y-119133750D01*
X141319250Y-118975000D01*
X141305000Y-118971928D01*
X141180518Y-118984188D01*
X141060820Y-119020498D01*
X140950506Y-119079463D01*
X140853815Y-119158815D01*
X140774463Y-119255506D01*
X140750375Y-119300571D01*
X140688910Y-119267717D01*
X140588953Y-119237395D01*
X140485000Y-119227157D01*
X140185000Y-119227157D01*
X140081047Y-119237395D01*
X139981090Y-119267717D01*
X139888968Y-119316957D01*
X139808223Y-119383223D01*
X139741957Y-119463968D01*
X139700000Y-119542464D01*
X139658043Y-119463968D01*
X139591777Y-119383223D01*
X139511032Y-119316957D01*
X139418910Y-119267717D01*
X139318953Y-119237395D01*
X139215000Y-119227157D01*
X138915000Y-119227157D01*
X138811047Y-119237395D01*
X138711090Y-119267717D01*
X138618968Y-119316957D01*
X138538223Y-119383223D01*
X138471957Y-119463968D01*
X138430000Y-119542464D01*
X138388043Y-119463968D01*
X138321777Y-119383223D01*
X138241032Y-119316957D01*
X138148910Y-119267717D01*
X138048953Y-119237395D01*
X137945000Y-119227157D01*
X137645000Y-119227157D01*
X137541047Y-119237395D01*
X137441090Y-119267717D01*
X137348968Y-119316957D01*
X137268223Y-119383223D01*
X137201957Y-119463968D01*
X137152717Y-119556090D01*
X137122395Y-119656047D01*
X137112157Y-119760000D01*
X136742609Y-119760000D01*
X136745072Y-119735000D01*
X136742000Y-119433250D01*
X136583250Y-119274500D01*
X135509000Y-119274500D01*
X135255000Y-119274500D01*
X134180750Y-119274500D01*
X134022000Y-119433250D01*
X134018928Y-119735000D01*
X128117600Y-119735000D01*
X128117600Y-118560000D01*
X134018928Y-118560000D01*
X134022000Y-118861750D01*
X134180750Y-119020500D01*
X135255000Y-119020500D01*
X135255000Y-119000500D01*
X135509000Y-119000500D01*
X135509000Y-119020500D01*
X136583250Y-119020500D01*
X136742000Y-118861750D01*
X136745072Y-118560000D01*
X136732812Y-118435518D01*
X136696502Y-118315820D01*
X136637537Y-118205506D01*
X136558185Y-118108815D01*
X136461494Y-118029463D01*
X136351180Y-117970498D01*
X136231482Y-117934188D01*
X136213220Y-117932389D01*
X136304488Y-117857488D01*
X136383190Y-117761589D01*
X136441671Y-117652179D01*
X136457927Y-117598589D01*
X136462065Y-117598181D01*
X136562611Y-117567681D01*
X136655275Y-117518151D01*
X136736495Y-117451495D01*
X136753195Y-117431146D01*
X137311801Y-116872541D01*
X137348968Y-116903043D01*
X137441090Y-116952283D01*
X137541047Y-116982605D01*
X137645000Y-116992843D01*
X137945000Y-116992843D01*
X138048953Y-116982605D01*
X138148910Y-116952283D01*
X138241032Y-116903043D01*
X138321777Y-116836777D01*
X138388043Y-116756032D01*
X138430000Y-116677536D01*
X138471957Y-116756032D01*
X138538223Y-116836777D01*
X138618968Y-116903043D01*
X138711090Y-116952283D01*
X138811047Y-116982605D01*
X138915000Y-116992843D01*
X139215000Y-116992843D01*
X139318953Y-116982605D01*
X139418910Y-116952283D01*
X139511032Y-116903043D01*
X139591777Y-116836777D01*
X139658043Y-116756032D01*
X139700000Y-116677536D01*
X139741957Y-116756032D01*
X139808223Y-116836777D01*
X139888968Y-116903043D01*
X139981090Y-116952283D01*
X140081047Y-116982605D01*
X140185000Y-116992843D01*
X140485000Y-116992843D01*
X140588953Y-116982605D01*
X140688910Y-116952283D01*
X140781032Y-116903043D01*
X140861777Y-116836777D01*
X140928043Y-116756032D01*
X140970000Y-116677536D01*
X141011957Y-116756032D01*
X141078223Y-116836777D01*
X141158968Y-116903043D01*
X141251090Y-116952283D01*
X141351047Y-116982605D01*
X141455000Y-116992843D01*
X141755000Y-116992843D01*
X141858953Y-116982605D01*
X141958910Y-116952283D01*
X142051032Y-116903043D01*
X142131777Y-116836777D01*
X142198043Y-116756032D01*
X142247283Y-116663910D01*
X142277605Y-116563953D01*
X142287843Y-116460000D01*
X142287843Y-115998340D01*
X142341651Y-115932775D01*
X142391181Y-115840111D01*
X142421681Y-115739565D01*
X142431980Y-115635000D01*
X142421681Y-115530435D01*
X142391181Y-115429889D01*
X142341651Y-115337225D01*
X142287843Y-115271660D01*
X142287843Y-114810000D01*
X142277605Y-114706047D01*
X142247283Y-114606090D01*
X142198043Y-114513968D01*
X142131777Y-114433223D01*
X142054859Y-114370098D01*
X142050651Y-114362225D01*
X141983995Y-114281005D01*
X141963645Y-114264304D01*
X141645086Y-113945745D01*
X141628385Y-113925395D01*
X141547165Y-113858739D01*
X141454501Y-113809209D01*
X141353955Y-113778709D01*
X141275585Y-113770990D01*
X141275577Y-113770990D01*
X141249390Y-113768411D01*
X141223203Y-113770990D01*
X138176796Y-113770990D01*
X138150609Y-113768411D01*
X138124422Y-113770990D01*
X138124415Y-113770990D01*
X138046045Y-113778709D01*
X137945499Y-113809209D01*
X137852835Y-113858739D01*
X137771615Y-113925395D01*
X137754914Y-113945745D01*
X137436350Y-114264309D01*
X137416006Y-114281005D01*
X137399310Y-114301349D01*
X137399307Y-114301352D01*
X137396814Y-114304390D01*
X137349350Y-114362225D01*
X137349349Y-114362227D01*
X137345143Y-114370096D01*
X137311801Y-114397460D01*
X136652000Y-113737659D01*
X136652000Y-113666150D01*
X136622717Y-113518933D01*
X136565276Y-113380258D01*
X136481884Y-113255453D01*
X136375747Y-113149316D01*
X136250942Y-113065924D01*
X136112267Y-113008483D01*
X135965050Y-112979200D01*
X135814950Y-112979200D01*
X135667733Y-113008483D01*
X135529058Y-113065924D01*
X135404253Y-113149316D01*
X135298116Y-113255453D01*
X135214724Y-113380258D01*
X135157283Y-113518933D01*
X135128000Y-113666150D01*
X135128000Y-113816250D01*
X135157283Y-113963467D01*
X135214724Y-114102142D01*
X135298116Y-114226947D01*
X135404253Y-114333084D01*
X135529058Y-114416476D01*
X135667733Y-114473917D01*
X135814950Y-114503200D01*
X135908859Y-114503200D01*
X137040659Y-115635000D01*
X136342197Y-116333461D01*
X136304488Y-116287512D01*
X136208589Y-116208810D01*
X136099179Y-116150329D01*
X135980462Y-116114317D01*
X135857000Y-116102157D01*
X134907000Y-116102157D01*
X134783538Y-116114317D01*
X134664821Y-116150329D01*
X134555411Y-116208810D01*
X134459512Y-116287512D01*
X134380810Y-116383411D01*
X134322329Y-116492821D01*
X134286317Y-116611538D01*
X134274157Y-116735000D01*
X134274157Y-117410000D01*
X134286317Y-117533462D01*
X134322329Y-117652179D01*
X134380810Y-117761589D01*
X134459512Y-117857488D01*
X134550780Y-117932389D01*
X134532518Y-117934188D01*
X134412820Y-117970498D01*
X134302506Y-118029463D01*
X134205815Y-118108815D01*
X134126463Y-118205506D01*
X134067498Y-118315820D01*
X134031188Y-118435518D01*
X134018928Y-118560000D01*
X128117600Y-118560000D01*
X128117600Y-110950000D01*
X128171928Y-110950000D01*
X128184188Y-111074482D01*
X128220498Y-111194180D01*
X128279463Y-111304494D01*
X128358815Y-111401185D01*
X128455506Y-111480537D01*
X128565820Y-111539502D01*
X128685518Y-111575812D01*
X128810000Y-111588072D01*
X129324250Y-111585000D01*
X129483000Y-111426250D01*
X129483000Y-110577000D01*
X128333750Y-110577000D01*
X128175000Y-110735750D01*
X128171928Y-110950000D01*
X128117600Y-110950000D01*
X128117600Y-109950000D01*
X128171928Y-109950000D01*
X128175000Y-110164250D01*
X128333750Y-110323000D01*
X129483000Y-110323000D01*
X129483000Y-109473750D01*
X129737000Y-109473750D01*
X129737000Y-110323000D01*
X129757000Y-110323000D01*
X129757000Y-110577000D01*
X129737000Y-110577000D01*
X129737000Y-111426250D01*
X129895750Y-111585000D01*
X130410000Y-111588072D01*
X130534482Y-111575812D01*
X130654180Y-111539502D01*
X130764494Y-111480537D01*
X130861185Y-111401185D01*
X130940537Y-111304494D01*
X130971285Y-111246969D01*
X130997304Y-111268322D01*
X131063492Y-111303701D01*
X131135311Y-111325487D01*
X131210000Y-111332843D01*
X132810000Y-111332843D01*
X132884689Y-111325487D01*
X132956508Y-111303701D01*
X133022696Y-111268322D01*
X133080711Y-111220711D01*
X133128322Y-111162696D01*
X133163701Y-111096508D01*
X133185487Y-111024689D01*
X133192843Y-110950000D01*
X133192843Y-109950000D01*
X133185487Y-109875311D01*
X133163701Y-109803492D01*
X133128322Y-109737304D01*
X133080711Y-109679289D01*
X133022696Y-109631678D01*
X132956508Y-109596299D01*
X132884689Y-109574513D01*
X132810000Y-109567157D01*
X131210000Y-109567157D01*
X131135311Y-109574513D01*
X131063492Y-109596299D01*
X130997304Y-109631678D01*
X130971285Y-109653031D01*
X130940537Y-109595506D01*
X130861185Y-109498815D01*
X130764494Y-109419463D01*
X130654180Y-109360498D01*
X130534482Y-109324188D01*
X130410000Y-109311928D01*
X129895750Y-109315000D01*
X129737000Y-109473750D01*
X129483000Y-109473750D01*
X129324250Y-109315000D01*
X128810000Y-109311928D01*
X128685518Y-109324188D01*
X128565820Y-109360498D01*
X128455506Y-109419463D01*
X128358815Y-109498815D01*
X128279463Y-109595506D01*
X128220498Y-109705820D01*
X128184188Y-109825518D01*
X128171928Y-109950000D01*
X128117600Y-109950000D01*
X128117600Y-107176020D01*
X128427157Y-107485577D01*
X128427157Y-108450000D01*
X128434513Y-108524689D01*
X128456299Y-108596508D01*
X128491678Y-108662696D01*
X128539289Y-108720711D01*
X128597304Y-108768322D01*
X128663492Y-108803701D01*
X128735311Y-108825487D01*
X128810000Y-108832843D01*
X130410000Y-108832843D01*
X130484689Y-108825487D01*
X130556508Y-108803701D01*
X130622696Y-108768322D01*
X130680711Y-108720711D01*
X130728322Y-108662696D01*
X130763701Y-108596508D01*
X130785487Y-108524689D01*
X130792843Y-108450000D01*
X130792843Y-107450000D01*
X130827157Y-107450000D01*
X130827157Y-108450000D01*
X130834513Y-108524689D01*
X130856299Y-108596508D01*
X130891678Y-108662696D01*
X130939289Y-108720711D01*
X130997304Y-108768322D01*
X131063492Y-108803701D01*
X131135311Y-108825487D01*
X131210000Y-108832843D01*
X132810000Y-108832843D01*
X132884689Y-108825487D01*
X132956508Y-108803701D01*
X133022696Y-108768322D01*
X133080711Y-108720711D01*
X133128322Y-108662696D01*
X133163701Y-108596508D01*
X133167192Y-108585000D01*
X136874819Y-108585000D01*
X136906000Y-108588071D01*
X136937181Y-108585000D01*
X136937192Y-108585000D01*
X137030482Y-108575812D01*
X137150180Y-108539502D01*
X137260494Y-108480537D01*
X137357185Y-108401185D01*
X137377074Y-108376950D01*
X139731182Y-106022843D01*
X142216000Y-106022843D01*
X142290689Y-106015487D01*
X142362508Y-105993701D01*
X142428696Y-105958322D01*
X142486711Y-105910711D01*
X142534322Y-105852696D01*
X142569701Y-105786508D01*
X142591487Y-105714689D01*
X142598843Y-105640000D01*
X142598843Y-102640000D01*
X142591487Y-102565311D01*
X142569701Y-102493492D01*
X142534322Y-102427304D01*
X142486711Y-102369289D01*
X142428696Y-102321678D01*
X142362508Y-102286299D01*
X142290689Y-102264513D01*
X142216000Y-102257157D01*
X139216000Y-102257157D01*
X139141311Y-102264513D01*
X139069492Y-102286299D01*
X139003304Y-102321678D01*
X138945289Y-102369289D01*
X138897678Y-102427304D01*
X138862299Y-102493492D01*
X138840513Y-102565311D01*
X138833157Y-102640000D01*
X138833157Y-105124818D01*
X136642976Y-107315000D01*
X133167192Y-107315000D01*
X133163701Y-107303492D01*
X133128322Y-107237304D01*
X133080711Y-107179289D01*
X133022696Y-107131678D01*
X132956508Y-107096299D01*
X132884689Y-107074513D01*
X132810000Y-107067157D01*
X131210000Y-107067157D01*
X131135311Y-107074513D01*
X131063492Y-107096299D01*
X130997304Y-107131678D01*
X130939289Y-107179289D01*
X130891678Y-107237304D01*
X130856299Y-107303492D01*
X130834513Y-107375311D01*
X130827157Y-107450000D01*
X130792843Y-107450000D01*
X130785487Y-107375311D01*
X130763701Y-107303492D01*
X130728322Y-107237304D01*
X130680711Y-107179289D01*
X130622696Y-107131678D01*
X130556508Y-107096299D01*
X130484689Y-107074513D01*
X130410000Y-107067157D01*
X129445578Y-107067157D01*
X128809600Y-106431180D01*
X128809600Y-106332804D01*
X128810000Y-106332843D01*
X130410000Y-106332843D01*
X130484689Y-106325487D01*
X130556508Y-106303701D01*
X130622696Y-106268322D01*
X130680711Y-106220711D01*
X130728322Y-106162696D01*
X130763701Y-106096508D01*
X130785487Y-106024689D01*
X130792843Y-105950000D01*
X130792843Y-104950000D01*
X130827157Y-104950000D01*
X130827157Y-105950000D01*
X130834513Y-106024689D01*
X130856299Y-106096508D01*
X130891678Y-106162696D01*
X130939289Y-106220711D01*
X130997304Y-106268322D01*
X131063492Y-106303701D01*
X131135311Y-106325487D01*
X131210000Y-106332843D01*
X132810000Y-106332843D01*
X132884689Y-106325487D01*
X132956508Y-106303701D01*
X133022696Y-106268322D01*
X133080711Y-106220711D01*
X133128322Y-106162696D01*
X133163701Y-106096508D01*
X133185487Y-106024689D01*
X133192843Y-105950000D01*
X133192843Y-104950000D01*
X133185487Y-104875311D01*
X133163701Y-104803492D01*
X133128322Y-104737304D01*
X133080711Y-104679289D01*
X133022696Y-104631678D01*
X132956508Y-104596299D01*
X132884689Y-104574513D01*
X132810000Y-104567157D01*
X132645000Y-104567157D01*
X132645000Y-100069445D01*
X132766903Y-100150898D01*
X132990931Y-100243693D01*
X133228757Y-100291000D01*
X133471243Y-100291000D01*
X133709069Y-100243693D01*
X133933097Y-100150898D01*
X134134717Y-100016180D01*
X134306180Y-99844717D01*
X134440898Y-99643097D01*
X134533693Y-99419069D01*
X134581000Y-99181243D01*
X134581000Y-98938757D01*
X134659000Y-98938757D01*
X134659000Y-99181243D01*
X134706307Y-99419069D01*
X134799102Y-99643097D01*
X134933820Y-99844717D01*
X135105283Y-100016180D01*
X135306903Y-100150898D01*
X135530931Y-100243693D01*
X135768757Y-100291000D01*
X136011243Y-100291000D01*
X136249069Y-100243693D01*
X136473097Y-100150898D01*
X136674717Y-100016180D01*
X136846180Y-99844717D01*
X136980898Y-99643097D01*
X137073693Y-99419069D01*
X137121000Y-99181243D01*
X137121000Y-98938757D01*
X137199000Y-98938757D01*
X137199000Y-99181243D01*
X137246307Y-99419069D01*
X137339102Y-99643097D01*
X137473820Y-99844717D01*
X137645283Y-100016180D01*
X137846903Y-100150898D01*
X138070931Y-100243693D01*
X138308757Y-100291000D01*
X138551243Y-100291000D01*
X138789069Y-100243693D01*
X139013097Y-100150898D01*
X139214717Y-100016180D01*
X139386180Y-99844717D01*
X139520898Y-99643097D01*
X139568228Y-99528832D01*
X139625843Y-99691252D01*
X139774822Y-99941355D01*
X139969731Y-100157588D01*
X140203080Y-100331641D01*
X140465901Y-100456825D01*
X140613110Y-100501476D01*
X140843000Y-100380155D01*
X140843000Y-99187000D01*
X140823000Y-99187000D01*
X140823000Y-98933000D01*
X140843000Y-98933000D01*
X140843000Y-97739845D01*
X140613110Y-97618524D01*
X140465901Y-97663175D01*
X140203080Y-97788359D01*
X139969731Y-97962412D01*
X139774822Y-98178645D01*
X139625843Y-98428748D01*
X139568228Y-98591168D01*
X139520898Y-98476903D01*
X139386180Y-98275283D01*
X139214717Y-98103820D01*
X139013097Y-97969102D01*
X138789069Y-97876307D01*
X138551243Y-97829000D01*
X138308757Y-97829000D01*
X138070931Y-97876307D01*
X137846903Y-97969102D01*
X137645283Y-98103820D01*
X137473820Y-98275283D01*
X137339102Y-98476903D01*
X137246307Y-98700931D01*
X137199000Y-98938757D01*
X137121000Y-98938757D01*
X137073693Y-98700931D01*
X136980898Y-98476903D01*
X136846180Y-98275283D01*
X136674717Y-98103820D01*
X136473097Y-97969102D01*
X136249069Y-97876307D01*
X136011243Y-97829000D01*
X135768757Y-97829000D01*
X135530931Y-97876307D01*
X135306903Y-97969102D01*
X135105283Y-98103820D01*
X134933820Y-98275283D01*
X134799102Y-98476903D01*
X134706307Y-98700931D01*
X134659000Y-98938757D01*
X134581000Y-98938757D01*
X134533693Y-98700931D01*
X134440898Y-98476903D01*
X134306180Y-98275283D01*
X134134717Y-98103820D01*
X133933097Y-97969102D01*
X133709069Y-97876307D01*
X133532234Y-97841132D01*
X149016956Y-82356411D01*
X149041185Y-82336527D01*
X149076235Y-82293818D01*
X149120538Y-82239836D01*
X149179502Y-82129522D01*
X149188684Y-82099253D01*
X149215812Y-82009824D01*
X149225000Y-81916534D01*
X149225000Y-81916531D01*
X149228072Y-81885342D01*
X149225000Y-81854153D01*
X149225000Y-79796218D01*
X149374717Y-79696180D01*
X149546180Y-79524717D01*
X149680898Y-79323097D01*
X149773693Y-79099069D01*
X149821000Y-78861243D01*
X149821000Y-78618757D01*
X149899000Y-78618757D01*
X149899000Y-78861243D01*
X149946307Y-79099069D01*
X150039102Y-79323097D01*
X150173820Y-79524717D01*
X150345283Y-79696180D01*
X150546903Y-79830898D01*
X150770931Y-79923693D01*
X151008757Y-79971000D01*
X151251243Y-79971000D01*
X151489069Y-79923693D01*
X151713097Y-79830898D01*
X151914717Y-79696180D01*
X152086180Y-79524717D01*
X152220898Y-79323097D01*
X152313693Y-79099069D01*
X152361000Y-78861243D01*
X152361000Y-78618757D01*
X152313693Y-78380931D01*
X152220898Y-78156903D01*
X152086180Y-77955283D01*
X151914717Y-77783820D01*
X151713097Y-77649102D01*
X151489069Y-77556307D01*
X151251243Y-77509000D01*
X151008757Y-77509000D01*
X150770931Y-77556307D01*
X150546903Y-77649102D01*
X150345283Y-77783820D01*
X150173820Y-77955283D01*
X150039102Y-78156903D01*
X149946307Y-78380931D01*
X149899000Y-78618757D01*
X149821000Y-78618757D01*
X149773693Y-78380931D01*
X149680898Y-78156903D01*
X149546180Y-77955283D01*
X149374717Y-77783820D01*
X149173097Y-77649102D01*
X148949069Y-77556307D01*
X148711243Y-77509000D01*
X148468757Y-77509000D01*
X148230931Y-77556307D01*
X148006903Y-77649102D01*
X147805283Y-77783820D01*
X147633820Y-77955283D01*
X147499102Y-78156903D01*
X147406307Y-78380931D01*
X147359000Y-78618757D01*
X147359000Y-78861243D01*
X147406307Y-79099069D01*
X147499102Y-79323097D01*
X147633820Y-79524717D01*
X147805283Y-79696180D01*
X147955001Y-79796218D01*
X147955000Y-81622317D01*
X131583046Y-97994272D01*
X131558816Y-98014157D01*
X131538932Y-98038386D01*
X131479463Y-98110849D01*
X131420498Y-98221163D01*
X131384189Y-98340861D01*
X131371929Y-98465342D01*
X131375001Y-98496533D01*
X131375000Y-104567157D01*
X131210000Y-104567157D01*
X131135311Y-104574513D01*
X131063492Y-104596299D01*
X130997304Y-104631678D01*
X130939289Y-104679289D01*
X130891678Y-104737304D01*
X130856299Y-104803492D01*
X130834513Y-104875311D01*
X130827157Y-104950000D01*
X130792843Y-104950000D01*
X130785487Y-104875311D01*
X130763701Y-104803492D01*
X130728322Y-104737304D01*
X130680711Y-104679289D01*
X130622696Y-104631678D01*
X130556508Y-104596299D01*
X130484689Y-104574513D01*
X130410000Y-104567157D01*
X128810000Y-104567157D01*
X128809600Y-104567196D01*
X128809600Y-96698820D01*
X145615834Y-79892587D01*
X145690931Y-79923693D01*
X145928757Y-79971000D01*
X146171243Y-79971000D01*
X146409069Y-79923693D01*
X146633097Y-79830898D01*
X146834717Y-79696180D01*
X147006180Y-79524717D01*
X147140898Y-79323097D01*
X147233693Y-79099069D01*
X147281000Y-78861243D01*
X147281000Y-78618757D01*
X147233693Y-78380931D01*
X147140898Y-78156903D01*
X147006180Y-77955283D01*
X146834717Y-77783820D01*
X146633097Y-77649102D01*
X146409069Y-77556307D01*
X146171243Y-77509000D01*
X145928757Y-77509000D01*
X145690931Y-77556307D01*
X145466903Y-77649102D01*
X145265283Y-77783820D01*
X145093820Y-77955283D01*
X144959102Y-78156903D01*
X144866307Y-78380931D01*
X144819000Y-78618757D01*
X144819000Y-78861243D01*
X144866307Y-79099069D01*
X144897413Y-79174166D01*
X128117600Y-95953980D01*
X128117600Y-91294820D01*
X140793663Y-78618757D01*
X142279000Y-78618757D01*
X142279000Y-78861243D01*
X142326307Y-79099069D01*
X142419102Y-79323097D01*
X142553820Y-79524717D01*
X142725283Y-79696180D01*
X142926903Y-79830898D01*
X143150931Y-79923693D01*
X143388757Y-79971000D01*
X143631243Y-79971000D01*
X143869069Y-79923693D01*
X144093097Y-79830898D01*
X144294717Y-79696180D01*
X144466180Y-79524717D01*
X144600898Y-79323097D01*
X144693693Y-79099069D01*
X144741000Y-78861243D01*
X144741000Y-78618757D01*
X144693693Y-78380931D01*
X144600898Y-78156903D01*
X144466180Y-77955283D01*
X144294717Y-77783820D01*
X144093097Y-77649102D01*
X143869069Y-77556307D01*
X143631243Y-77509000D01*
X143388757Y-77509000D01*
X143150931Y-77556307D01*
X142926903Y-77649102D01*
X142725283Y-77783820D01*
X142553820Y-77955283D01*
X142419102Y-78156903D01*
X142326307Y-78380931D01*
X142279000Y-78618757D01*
X140793663Y-78618757D01*
X141942420Y-77470000D01*
X153967580Y-77470000D01*
X154071436Y-77573856D01*
X154029069Y-77556307D01*
X153791243Y-77509000D01*
X153548757Y-77509000D01*
X153310931Y-77556307D01*
X153086903Y-77649102D01*
X152885283Y-77783820D01*
X152713820Y-77955283D01*
X152579102Y-78156903D01*
X152486307Y-78380931D01*
X152439000Y-78618757D01*
X152439000Y-78861243D01*
X152486307Y-79099069D01*
X152579102Y-79323097D01*
X152713820Y-79524717D01*
X152885283Y-79696180D01*
X153086903Y-79830898D01*
X153310931Y-79923693D01*
X153548757Y-79971000D01*
X153791243Y-79971000D01*
X154029069Y-79923693D01*
X154253097Y-79830898D01*
X154454717Y-79696180D01*
X154626180Y-79524717D01*
X154760898Y-79323097D01*
X154853693Y-79099069D01*
X154901000Y-78861243D01*
X154901000Y-78618757D01*
X154853693Y-78380931D01*
X154836145Y-78338565D01*
X155001786Y-78504206D01*
X154979000Y-78618757D01*
X154979000Y-78861243D01*
X155026307Y-79099069D01*
X155119102Y-79323097D01*
X155253820Y-79524717D01*
X155425283Y-79696180D01*
X155626903Y-79830898D01*
X155850931Y-79923693D01*
X156088757Y-79971000D01*
X156331243Y-79971000D01*
X156569069Y-79923693D01*
X156793097Y-79830898D01*
X156994717Y-79696180D01*
X157166180Y-79524717D01*
X157300898Y-79323097D01*
X157393693Y-79099069D01*
X157441000Y-78861243D01*
X157441000Y-78618757D01*
X157393693Y-78380931D01*
X157300898Y-78156903D01*
X157166180Y-77955283D01*
X156994717Y-77783820D01*
X156793097Y-77649102D01*
X156569069Y-77556307D01*
X156331243Y-77509000D01*
X156088757Y-77509000D01*
X155850931Y-77556307D01*
X155626903Y-77649102D01*
X155600898Y-77666478D01*
X154554855Y-76620435D01*
X154543009Y-76606000D01*
X177394001Y-76606000D01*
X177394000Y-154534000D01*
G37*
%TD.AperFunction*%
%TD*%
M02*
