%TF.GenerationSoftware,KiCad,Pcbnew,5.1.12-1.fc35*%
%TF.CreationDate,2022-01-06T11:44:33+01:00*%
%TF.ProjectId,burrboard,62757272-626f-4617-9264-2e6b69636164,v1.0*%
%TF.SameCoordinates,Original*%
%TF.FileFunction,Soldermask,Bot*%
%TF.FilePolarity,Negative*%
%FSLAX46Y46*%
G04 Gerber Fmt 4.6, Leading zero omitted, Abs format (unit mm)*
G04 Created by KiCad (PCBNEW 5.1.12-1.fc35) date 2022-01-06 11:44:33*
%MOMM*%
%LPD*%
G01*
G04 APERTURE LIST*
%ADD10C,2.001600*%
%ADD11C,3.101600*%
%ADD12C,3.551600*%
%ADD13O,1.801600X1.801600*%
G04 APERTURE END LIST*
%TO.C,SW1*%
G36*
G01*
X155686800Y-84140000D02*
X155686800Y-86040000D01*
G75*
G02*
X155636000Y-86090800I-50800J0D01*
G01*
X153736000Y-86090800D01*
G75*
G02*
X153685200Y-86040000I0J50800D01*
G01*
X153685200Y-84140000D01*
G75*
G02*
X153736000Y-84089200I50800J0D01*
G01*
X155636000Y-84089200D01*
G75*
G02*
X155686800Y-84140000I0J-50800D01*
G01*
G37*
D10*
X152186000Y-85090000D03*
X149686000Y-85090000D03*
%TD*%
%TO.C,BT1*%
G36*
G01*
X139216000Y-102589200D02*
X142216000Y-102589200D01*
G75*
G02*
X142266800Y-102640000I0J-50800D01*
G01*
X142266800Y-105640000D01*
G75*
G02*
X142216000Y-105690800I-50800J0D01*
G01*
X139216000Y-105690800D01*
G75*
G02*
X139165200Y-105640000I0J50800D01*
G01*
X139165200Y-102640000D01*
G75*
G02*
X139216000Y-102589200I50800J0D01*
G01*
G37*
D11*
X153416000Y-104140000D03*
D12*
X140716000Y-127860000D03*
X164216000Y-127860000D03*
%TD*%
%TO.C,J1*%
G36*
G01*
X170600000Y-98159200D02*
X172300000Y-98159200D01*
G75*
G02*
X172350800Y-98210000I0J-50800D01*
G01*
X172350800Y-99910000D01*
G75*
G02*
X172300000Y-99960800I-50800J0D01*
G01*
X170600000Y-99960800D01*
G75*
G02*
X170549200Y-99910000I0J50800D01*
G01*
X170549200Y-98210000D01*
G75*
G02*
X170600000Y-98159200I50800J0D01*
G01*
G37*
D13*
X168910000Y-99060000D03*
X166370000Y-99060000D03*
X163830000Y-99060000D03*
X161290000Y-99060000D03*
X158750000Y-99060000D03*
X156210000Y-99060000D03*
X153670000Y-99060000D03*
X151130000Y-99060000D03*
X148590000Y-99060000D03*
X146050000Y-99060000D03*
X143510000Y-99060000D03*
X140970000Y-99060000D03*
X138430000Y-99060000D03*
X135890000Y-99060000D03*
X133350000Y-99060000D03*
%TD*%
%TO.C,J2*%
G36*
G01*
X170600000Y-77839200D02*
X172300000Y-77839200D01*
G75*
G02*
X172350800Y-77890000I0J-50800D01*
G01*
X172350800Y-79590000D01*
G75*
G02*
X172300000Y-79640800I-50800J0D01*
G01*
X170600000Y-79640800D01*
G75*
G02*
X170549200Y-79590000I0J50800D01*
G01*
X170549200Y-77890000D01*
G75*
G02*
X170600000Y-77839200I50800J0D01*
G01*
G37*
X168910000Y-78740000D03*
X166370000Y-78740000D03*
X163830000Y-78740000D03*
X161290000Y-78740000D03*
X158750000Y-78740000D03*
X156210000Y-78740000D03*
X153670000Y-78740000D03*
X151130000Y-78740000D03*
X148590000Y-78740000D03*
X146050000Y-78740000D03*
X143510000Y-78740000D03*
%TD*%
M02*
