M48
; DRILL file {KiCad (6.0.0-0)} date 2022 January 15, Saturday 19:34:29
; FORMAT={-:-/ absolute / inch / decimal}
; #@! TF.CreationDate,2022-01-15T19:34:29+01:00
; #@! TF.GenerationSoftware,Kicad,Pcbnew,(6.0.0-0)
; #@! TF.FileFunction,MixedPlating,1,2
FMAT,2
INCH
; #@! TA.AperFunction,Plated,PTH,ViaDrill
T1C0.0150
; #@! TA.AperFunction,Plated,PTH,ComponentDrill
T2C0.0300
; #@! TA.AperFunction,Plated,PTH,ComponentDrill
T3C0.0354
; #@! TA.AperFunction,Plated,PTH,ComponentDrill
T4C0.0394
; #@! TA.AperFunction,Plated,PTH,ComponentDrill
T5C0.0433
; #@! TA.AperFunction,NonPlated,NPTH,ComponentDrill
T6C0.1358
%
G90
G05
T1
X5.831Y-3.535
X5.858Y-3.257
X6.084Y-3.196
X6.156Y-3.256
X6.3402Y-4.812
T2
X5.094Y-4.162
X5.194Y-4.1628
T3
X5.142Y-4.512
X5.142Y-4.6104
X5.142Y-4.7089
T4
X5.25Y-3.9
X5.35Y-3.9
X5.45Y-3.9
X5.55Y-3.9
X5.65Y-3.1
X5.65Y-3.9
X5.75Y-3.1
X5.75Y-3.9
X5.85Y-3.1
X5.85Y-3.9
X5.95Y-3.1
X5.95Y-3.9
X6.05Y-3.1
X6.05Y-3.9
X6.15Y-3.1
X6.15Y-3.9
X6.25Y-3.1
X6.25Y-3.9
X6.35Y-3.1
X6.35Y-3.9
X6.45Y-3.1
X6.45Y-3.9
X6.55Y-3.1
X6.55Y-3.9
X6.65Y-3.1
X6.65Y-3.9
X6.75Y-3.1
X6.75Y-3.9
T5
X5.54Y-4.1
X6.04Y-4.1
T6
X5.54Y-5.0339
X6.4652Y-5.0339
T0
M30
