%TF.GenerationSoftware,KiCad,Pcbnew,(6.0.0-0)*%
%TF.CreationDate,2022-01-15T19:34:25+01:00*%
%TF.ProjectId,burrboard,62757272-626f-4617-9264-2e6b69636164,v2.0*%
%TF.SameCoordinates,Original*%
%TF.FileFunction,Soldermask,Top*%
%TF.FilePolarity,Negative*%
%FSLAX46Y46*%
G04 Gerber Fmt 4.6, Leading zero omitted, Abs format (unit mm)*
G04 Created by KiCad (PCBNEW (6.0.0-0)) date 2022-01-15 19:34:25*
%MOMM*%
%LPD*%
G01*
G04 APERTURE LIST*
G04 Aperture macros list*
%AMRoundRect*
0 Rectangle with rounded corners*
0 $1 Rounding radius*
0 $2 $3 $4 $5 $6 $7 $8 $9 X,Y pos of 4 corners*
0 Add a 4 corners polygon primitive as box body*
4,1,4,$2,$3,$4,$5,$6,$7,$8,$9,$2,$3,0*
0 Add four circle primitives for the rounded corners*
1,1,$1+$1,$2,$3*
1,1,$1+$1,$4,$5*
1,1,$1+$1,$6,$7*
1,1,$1+$1,$8,$9*
0 Add four rect primitives between the rounded corners*
20,1,$1+$1,$2,$3,$4,$5,0*
20,1,$1+$1,$4,$5,$6,$7,0*
20,1,$1+$1,$6,$7,$8,$9,0*
20,1,$1+$1,$8,$9,$2,$3,0*%
G04 Aperture macros list end*
%ADD10RoundRect,0.050800X-0.775000X-0.650000X0.775000X-0.650000X0.775000X0.650000X-0.775000X0.650000X0*%
%ADD11RoundRect,0.050800X0.550000X0.400000X-0.550000X0.400000X-0.550000X-0.400000X0.550000X-0.400000X0*%
%ADD12RoundRect,0.050800X-0.850000X0.850000X-0.850000X-0.850000X0.850000X-0.850000X0.850000X0.850000X0*%
%ADD13O,1.801600X1.801600*%
%ADD14C,1.625600*%
%ADD15RoundRect,0.050800X-0.950000X0.950000X-0.950000X-0.950000X0.950000X-0.950000X0.950000X0.950000X0*%
%ADD16C,2.001600*%
%ADD17RoundRect,0.300799X0.325001X0.450001X-0.325001X0.450001X-0.325001X-0.450001X0.325001X-0.450001X0*%
%ADD18RoundRect,0.300799X0.450001X-0.350001X0.450001X0.350001X-0.450001X0.350001X-0.450001X-0.350001X0*%
%ADD19RoundRect,0.300799X0.350001X0.450001X-0.350001X0.450001X-0.350001X-0.450001X0.350001X-0.450001X0*%
%ADD20RoundRect,0.300799X-0.350001X-0.450001X0.350001X-0.450001X0.350001X0.450001X-0.350001X0.450001X0*%
%ADD21RoundRect,0.200800X0.825000X0.150000X-0.825000X0.150000X-0.825000X-0.150000X0.825000X-0.150000X0*%
%ADD22RoundRect,0.300800X0.475000X-0.337500X0.475000X0.337500X-0.475000X0.337500X-0.475000X-0.337500X0*%
%ADD23RoundRect,0.300800X-0.337500X-0.475000X0.337500X-0.475000X0.337500X0.475000X-0.337500X0.475000X0*%
%ADD24RoundRect,0.300800X-0.475000X0.337500X-0.475000X-0.337500X0.475000X-0.337500X0.475000X0.337500X0*%
%ADD25RoundRect,0.050800X-0.572500X0.275000X-0.572500X-0.275000X0.572500X-0.275000X0.572500X0.275000X0*%
%ADD26RoundRect,0.050800X-0.275000X0.572500X-0.275000X-0.572500X0.275000X-0.572500X0.275000X0.572500X0*%
%ADD27C,3.551600*%
%ADD28RoundRect,0.050800X-1.500000X1.500000X-1.500000X-1.500000X1.500000X-1.500000X1.500000X1.500000X0*%
%ADD29C,3.101600*%
G04 APERTURE END LIST*
D10*
%TO.C,S2*%
X161125000Y-142530000D03*
X169075000Y-142530000D03*
X161125000Y-147030000D03*
X169075000Y-147030000D03*
%TD*%
D11*
%TO.C,Q1*%
X163731400Y-122224800D03*
X167281400Y-122774800D03*
X167281400Y-121674800D03*
%TD*%
D10*
%TO.C,S1*%
X135725000Y-142530000D03*
X143675000Y-142530000D03*
X135725000Y-147030000D03*
X143675000Y-147030000D03*
%TD*%
D12*
%TO.C,J1*%
X171450000Y-99060000D03*
D13*
X168910000Y-99060000D03*
X166370000Y-99060000D03*
X163830000Y-99060000D03*
X161290000Y-99060000D03*
X158750000Y-99060000D03*
X156210000Y-99060000D03*
X153670000Y-99060000D03*
X151130000Y-99060000D03*
X148590000Y-99060000D03*
X146050000Y-99060000D03*
X143510000Y-99060000D03*
X140970000Y-99060000D03*
X138430000Y-99060000D03*
X135890000Y-99060000D03*
X133350000Y-99060000D03*
%TD*%
D12*
%TO.C,J2*%
X171450000Y-78740000D03*
D13*
X168910000Y-78740000D03*
X166370000Y-78740000D03*
X163830000Y-78740000D03*
X161290000Y-78740000D03*
X158750000Y-78740000D03*
X156210000Y-78740000D03*
X153670000Y-78740000D03*
X151130000Y-78740000D03*
X148590000Y-78740000D03*
X146050000Y-78740000D03*
X143510000Y-78740000D03*
%TD*%
D14*
%TO.C,J3*%
X129387600Y-105714800D03*
X131927600Y-105734800D03*
%TD*%
D15*
%TO.C,S3*%
X130606800Y-114604800D03*
D16*
X130606800Y-117104800D03*
X130606800Y-119604800D03*
%TD*%
D17*
%TO.C,D2*%
X148345000Y-107950000D03*
X146295000Y-107950000D03*
%TD*%
%TO.C,D4*%
X168665000Y-107950000D03*
X166615000Y-107950000D03*
%TD*%
D18*
%TO.C,R4*%
X135801100Y-135518400D03*
X135801100Y-133518400D03*
%TD*%
D19*
%TO.C,R8*%
X168640000Y-104140000D03*
X166640000Y-104140000D03*
%TD*%
%TO.C,R9*%
X158480000Y-104140000D03*
X156480000Y-104140000D03*
%TD*%
D20*
%TO.C,R7*%
X146320000Y-104140000D03*
X148320000Y-104140000D03*
%TD*%
D18*
%TO.C,R1*%
X171170600Y-123402600D03*
X171170600Y-121402600D03*
%TD*%
%TO.C,R5*%
X169011600Y-135721600D03*
X169011600Y-133721600D03*
%TD*%
D21*
%TO.C,U1*%
X143445000Y-123825000D03*
X143445000Y-122555000D03*
X143445000Y-121285000D03*
X143445000Y-120015000D03*
X138495000Y-120015000D03*
X138495000Y-121285000D03*
X138495000Y-122555000D03*
X138495000Y-123825000D03*
%TD*%
D22*
%TO.C,C1*%
X135107680Y-119985700D03*
X135107680Y-117910700D03*
%TD*%
D20*
%TO.C,R6*%
X136160000Y-104140000D03*
X138160000Y-104140000D03*
%TD*%
D17*
%TO.C,D1*%
X138185000Y-107950000D03*
X136135000Y-107950000D03*
%TD*%
D23*
%TO.C,C2*%
X151362500Y-89916000D03*
X153437500Y-89916000D03*
%TD*%
D22*
%TO.C,C3*%
X148082000Y-87165000D03*
X148082000Y-85090000D03*
%TD*%
D24*
%TO.C,C4*%
X156210000Y-87862500D03*
X156210000Y-89937500D03*
%TD*%
D20*
%TO.C,R2*%
X164243000Y-86487000D03*
X166243000Y-86487000D03*
%TD*%
%TO.C,R3*%
X164354000Y-82677000D03*
X166354000Y-82677000D03*
%TD*%
D25*
%TO.C,U2*%
X151302500Y-82709000D03*
X151302500Y-83509000D03*
X151302500Y-84309000D03*
X151302500Y-85109000D03*
X151302500Y-85909000D03*
X151302500Y-86709000D03*
D26*
X152400000Y-86806500D03*
D25*
X153497500Y-86709000D03*
X153497500Y-85909000D03*
X153497500Y-85109000D03*
X153497500Y-84309000D03*
X153497500Y-83509000D03*
X153497500Y-82709000D03*
D26*
X152400000Y-82611500D03*
%TD*%
D17*
%TO.C,D3*%
X158505000Y-107950000D03*
X156455000Y-107950000D03*
%TD*%
D27*
%TO.C,BT1*%
X140716000Y-127860000D03*
X164216000Y-127860000D03*
D28*
X140716000Y-104140000D03*
D29*
X153416000Y-104140000D03*
%TD*%
M02*
