%TF.GenerationSoftware,KiCad,Pcbnew,5.1.12-1.fc35*%
%TF.CreationDate,2022-01-06T11:44:33+01:00*%
%TF.ProjectId,burrboard,62757272-626f-4617-9264-2e6b69636164,v1.0*%
%TF.SameCoordinates,Original*%
%TF.FileFunction,Legend,Top*%
%TF.FilePolarity,Positive*%
%FSLAX46Y46*%
G04 Gerber Fmt 4.6, Leading zero omitted, Abs format (unit mm)*
G04 Created by KiCad (PCBNEW 5.1.12-1.fc35) date 2022-01-06 11:44:33*
%MOMM*%
%LPD*%
G01*
G04 APERTURE LIST*
%ADD10C,0.150000*%
%ADD11C,0.010000*%
%ADD12C,0.100000*%
%ADD13C,0.120000*%
G04 APERTURE END LIST*
D10*
X165171428Y-146486571D02*
X165314285Y-146534190D01*
X165361904Y-146581809D01*
X165409523Y-146677047D01*
X165409523Y-146819904D01*
X165361904Y-146915142D01*
X165314285Y-146962761D01*
X165219047Y-147010380D01*
X164838095Y-147010380D01*
X164838095Y-146010380D01*
X165171428Y-146010380D01*
X165266666Y-146058000D01*
X165314285Y-146105619D01*
X165361904Y-146200857D01*
X165361904Y-146296095D01*
X165314285Y-146391333D01*
X165266666Y-146438952D01*
X165171428Y-146486571D01*
X164838095Y-146486571D01*
X139461904Y-146724666D02*
X139938095Y-146724666D01*
X139366666Y-147010380D02*
X139700000Y-146010380D01*
X140033333Y-147010380D01*
X161790476Y-123388380D02*
X161314285Y-123388380D01*
X161314285Y-122388380D01*
X162123809Y-123388380D02*
X162123809Y-122721714D01*
X162123809Y-122388380D02*
X162076190Y-122436000D01*
X162123809Y-122483619D01*
X162171428Y-122436000D01*
X162123809Y-122388380D01*
X162123809Y-122483619D01*
X163028571Y-122721714D02*
X163028571Y-123531238D01*
X162980952Y-123626476D01*
X162933333Y-123674095D01*
X162838095Y-123721714D01*
X162695238Y-123721714D01*
X162600000Y-123674095D01*
X163028571Y-123340761D02*
X162933333Y-123388380D01*
X162742857Y-123388380D01*
X162647619Y-123340761D01*
X162600000Y-123293142D01*
X162552380Y-123197904D01*
X162552380Y-122912190D01*
X162600000Y-122816952D01*
X162647619Y-122769333D01*
X162742857Y-122721714D01*
X162933333Y-122721714D01*
X163028571Y-122769333D01*
X163504761Y-123388380D02*
X163504761Y-122388380D01*
X163933333Y-123388380D02*
X163933333Y-122864571D01*
X163885714Y-122769333D01*
X163790476Y-122721714D01*
X163647619Y-122721714D01*
X163552380Y-122769333D01*
X163504761Y-122816952D01*
X164266666Y-122721714D02*
X164647619Y-122721714D01*
X164409523Y-122388380D02*
X164409523Y-123245523D01*
X164457142Y-123340761D01*
X164552380Y-123388380D01*
X164647619Y-123388380D01*
X164933333Y-123340761D02*
X165076190Y-123388380D01*
X165314285Y-123388380D01*
X165409523Y-123340761D01*
X165457142Y-123293142D01*
X165504761Y-123197904D01*
X165504761Y-123102666D01*
X165457142Y-123007428D01*
X165409523Y-122959809D01*
X165314285Y-122912190D01*
X165123809Y-122864571D01*
X165028571Y-122816952D01*
X164980952Y-122769333D01*
X164933333Y-122674095D01*
X164933333Y-122578857D01*
X164980952Y-122483619D01*
X165028571Y-122436000D01*
X165123809Y-122388380D01*
X165361904Y-122388380D01*
X165504761Y-122436000D01*
X166314285Y-123340761D02*
X166219047Y-123388380D01*
X166028571Y-123388380D01*
X165933333Y-123340761D01*
X165885714Y-123245523D01*
X165885714Y-122864571D01*
X165933333Y-122769333D01*
X166028571Y-122721714D01*
X166219047Y-122721714D01*
X166314285Y-122769333D01*
X166361904Y-122864571D01*
X166361904Y-122959809D01*
X165885714Y-123055047D01*
X166790476Y-122721714D02*
X166790476Y-123388380D01*
X166790476Y-122816952D02*
X166838095Y-122769333D01*
X166933333Y-122721714D01*
X167076190Y-122721714D01*
X167171428Y-122769333D01*
X167219047Y-122864571D01*
X167219047Y-123388380D01*
X167647619Y-123340761D02*
X167742857Y-123388380D01*
X167933333Y-123388380D01*
X168028571Y-123340761D01*
X168076190Y-123245523D01*
X168076190Y-123197904D01*
X168028571Y-123102666D01*
X167933333Y-123055047D01*
X167790476Y-123055047D01*
X167695238Y-123007428D01*
X167647619Y-122912190D01*
X167647619Y-122864571D01*
X167695238Y-122769333D01*
X167790476Y-122721714D01*
X167933333Y-122721714D01*
X168028571Y-122769333D01*
X168885714Y-123340761D02*
X168790476Y-123388380D01*
X168600000Y-123388380D01*
X168504761Y-123340761D01*
X168457142Y-123245523D01*
X168457142Y-122864571D01*
X168504761Y-122769333D01*
X168600000Y-122721714D01*
X168790476Y-122721714D01*
X168885714Y-122769333D01*
X168933333Y-122864571D01*
X168933333Y-122959809D01*
X168457142Y-123055047D01*
X150614285Y-123102666D02*
X151090476Y-123102666D01*
X150519047Y-123388380D02*
X150852380Y-122388380D01*
X151185714Y-123388380D01*
X151947619Y-123340761D02*
X151852380Y-123388380D01*
X151661904Y-123388380D01*
X151566666Y-123340761D01*
X151519047Y-123293142D01*
X151471428Y-123197904D01*
X151471428Y-122912190D01*
X151519047Y-122816952D01*
X151566666Y-122769333D01*
X151661904Y-122721714D01*
X151852380Y-122721714D01*
X151947619Y-122769333D01*
X152804761Y-123340761D02*
X152709523Y-123388380D01*
X152519047Y-123388380D01*
X152423809Y-123340761D01*
X152376190Y-123293142D01*
X152328571Y-123197904D01*
X152328571Y-122912190D01*
X152376190Y-122816952D01*
X152423809Y-122769333D01*
X152519047Y-122721714D01*
X152709523Y-122721714D01*
X152804761Y-122769333D01*
X153614285Y-123340761D02*
X153519047Y-123388380D01*
X153328571Y-123388380D01*
X153233333Y-123340761D01*
X153185714Y-123245523D01*
X153185714Y-122864571D01*
X153233333Y-122769333D01*
X153328571Y-122721714D01*
X153519047Y-122721714D01*
X153614285Y-122769333D01*
X153661904Y-122864571D01*
X153661904Y-122959809D01*
X153185714Y-123055047D01*
X154233333Y-123388380D02*
X154138095Y-123340761D01*
X154090476Y-123245523D01*
X154090476Y-122388380D01*
X138120666Y-122388380D02*
X138692095Y-122388380D01*
X138406380Y-123388380D02*
X138406380Y-122388380D01*
X139406380Y-123340761D02*
X139311142Y-123388380D01*
X139120666Y-123388380D01*
X139025428Y-123340761D01*
X138977809Y-123245523D01*
X138977809Y-122864571D01*
X139025428Y-122769333D01*
X139120666Y-122721714D01*
X139311142Y-122721714D01*
X139406380Y-122769333D01*
X139454000Y-122864571D01*
X139454000Y-122959809D01*
X138977809Y-123055047D01*
X139882571Y-123388380D02*
X139882571Y-122721714D01*
X139882571Y-122816952D02*
X139930190Y-122769333D01*
X140025428Y-122721714D01*
X140168285Y-122721714D01*
X140263523Y-122769333D01*
X140311142Y-122864571D01*
X140311142Y-123388380D01*
X140311142Y-122864571D02*
X140358761Y-122769333D01*
X140454000Y-122721714D01*
X140596857Y-122721714D01*
X140692095Y-122769333D01*
X140739714Y-122864571D01*
X140739714Y-123388380D01*
X141215904Y-122721714D02*
X141215904Y-123721714D01*
X141215904Y-122769333D02*
X141311142Y-122721714D01*
X141501619Y-122721714D01*
X141596857Y-122769333D01*
X141644476Y-122816952D01*
X141692095Y-122912190D01*
X141692095Y-123197904D01*
X141644476Y-123293142D01*
X141596857Y-123340761D01*
X141501619Y-123388380D01*
X141311142Y-123388380D01*
X141215904Y-123340761D01*
D11*
%TO.C,G\u002A\u002A\u002A*%
G36*
X145743919Y-127800766D02*
G01*
X146047821Y-127827342D01*
X146410502Y-127866987D01*
X146795742Y-127915641D01*
X147167320Y-127969242D01*
X147489017Y-128023731D01*
X147574000Y-128040381D01*
X148656785Y-128315145D01*
X149727224Y-128687315D01*
X150743507Y-129138977D01*
X151663825Y-129652214D01*
X152216926Y-130029812D01*
X152681803Y-130407038D01*
X153168610Y-130853037D01*
X153636123Y-131326217D01*
X154043117Y-131784989D01*
X154332290Y-132163902D01*
X154616203Y-132631672D01*
X154910320Y-133202783D01*
X155185930Y-133815778D01*
X155414319Y-134409198D01*
X155491578Y-134645400D01*
X155577194Y-134959738D01*
X155684991Y-135407641D01*
X155808110Y-135955847D01*
X155939694Y-136571099D01*
X156072884Y-137220134D01*
X156200820Y-137869694D01*
X156316644Y-138486517D01*
X156413498Y-139037345D01*
X156470026Y-139390223D01*
X156572552Y-140071045D01*
X157038192Y-140406223D01*
X157449621Y-140727761D01*
X157846324Y-141083139D01*
X158195672Y-141439380D01*
X158465038Y-141763509D01*
X158608934Y-141993717D01*
X158744064Y-142386256D01*
X158773114Y-142744961D01*
X158696701Y-143032382D01*
X158589666Y-143164138D01*
X158407170Y-143272160D01*
X158183320Y-143314155D01*
X157879262Y-143291580D01*
X157458833Y-143206526D01*
X156972000Y-143091964D01*
X156978917Y-143398349D01*
X156988991Y-143598770D01*
X157011490Y-143924376D01*
X157043186Y-144331742D01*
X157080850Y-144777443D01*
X157084750Y-144821649D01*
X157183666Y-145938564D01*
X158084746Y-146533240D01*
X158703769Y-146971753D01*
X159161598Y-147363721D01*
X159458007Y-147708810D01*
X159592771Y-148006683D01*
X159565666Y-148257005D01*
X159376467Y-148459438D01*
X159374265Y-148460886D01*
X159144375Y-148547682D01*
X158792859Y-148605307D01*
X158365159Y-148632191D01*
X157906717Y-148626767D01*
X157462976Y-148587463D01*
X157175895Y-148536807D01*
X156807433Y-148437903D01*
X156391330Y-148303891D01*
X156110918Y-148200117D01*
X155766994Y-148084804D01*
X155422520Y-148004964D01*
X155187357Y-147979664D01*
X154881425Y-147965527D01*
X154415940Y-147924569D01*
X153798403Y-147857658D01*
X153389961Y-147808351D01*
X155596958Y-147808351D01*
X155992812Y-147978034D01*
X156410850Y-148136517D01*
X156894681Y-148289381D01*
X157350565Y-148407844D01*
X157480000Y-148434690D01*
X157735645Y-148461313D01*
X158070639Y-148467280D01*
X158438073Y-148455423D01*
X158791042Y-148428570D01*
X159082640Y-148389552D01*
X159265958Y-148341200D01*
X159292801Y-148325318D01*
X159408488Y-148140813D01*
X159369391Y-147906300D01*
X159174437Y-147620447D01*
X158822550Y-147281922D01*
X158312658Y-146889393D01*
X157915427Y-146617477D01*
X157525234Y-146365867D01*
X157249493Y-146204504D01*
X157066599Y-146122827D01*
X156954946Y-146110277D01*
X156916055Y-146129030D01*
X156816327Y-146242278D01*
X156655996Y-146456094D01*
X156466118Y-146728665D01*
X156424297Y-146791110D01*
X156212503Y-147095256D01*
X156003022Y-147372281D01*
X155837422Y-147567503D01*
X155822313Y-147582996D01*
X155596958Y-147808351D01*
X153389961Y-147808351D01*
X153036315Y-147765659D01*
X152137179Y-147649437D01*
X151108495Y-147509858D01*
X151070198Y-147504555D01*
X149444063Y-147279236D01*
X148823975Y-147585627D01*
X148338527Y-147795497D01*
X147832513Y-147962838D01*
X147350125Y-148076768D01*
X146935551Y-148126401D01*
X146683788Y-148112759D01*
X146394198Y-147996695D01*
X146221012Y-147797231D01*
X146201468Y-147655081D01*
X146349523Y-147655081D01*
X146405656Y-147842061D01*
X146544042Y-147926941D01*
X146771520Y-147948077D01*
X147104233Y-147926007D01*
X147485845Y-147868206D01*
X147860020Y-147782146D01*
X148029564Y-147729876D01*
X148392854Y-147591917D01*
X148734576Y-147439602D01*
X149014041Y-147293172D01*
X149190559Y-147172867D01*
X149223672Y-147135881D01*
X149227965Y-146978551D01*
X149119420Y-146738588D01*
X148914496Y-146442705D01*
X148629653Y-146117612D01*
X148541246Y-146028362D01*
X148072831Y-145567400D01*
X147314462Y-146371734D01*
X147016591Y-146694791D01*
X146752776Y-146994065D01*
X146550123Y-147237910D01*
X146435739Y-147394681D01*
X146430645Y-147403537D01*
X146349523Y-147655081D01*
X146201468Y-147655081D01*
X146186455Y-147545890D01*
X146213420Y-147445618D01*
X146300462Y-147304474D01*
X146480658Y-147071062D01*
X146729691Y-146775074D01*
X147023246Y-146446202D01*
X147099203Y-146363980D01*
X147901732Y-145501314D01*
X147952551Y-144941691D01*
X147984939Y-144611731D01*
X148017955Y-144317567D01*
X148040568Y-144149234D01*
X148051141Y-143981429D01*
X148025140Y-143916400D01*
X147926872Y-143940703D01*
X147705025Y-144006111D01*
X147397054Y-144101373D01*
X147179577Y-144170400D01*
X146661383Y-144323388D01*
X146273584Y-144404332D01*
X145993713Y-144414032D01*
X145799299Y-144353287D01*
X145668702Y-144224162D01*
X145599314Y-144073094D01*
X145597858Y-143959400D01*
X145767875Y-143959400D01*
X145793252Y-144142582D01*
X145948918Y-144235185D01*
X146238478Y-144237937D01*
X146665537Y-144151561D01*
X147233702Y-143976785D01*
X147265562Y-143965848D01*
X147618589Y-143839680D01*
X147911052Y-143726801D01*
X148106009Y-143641958D01*
X148165031Y-143606771D01*
X148214988Y-143484146D01*
X148262399Y-143262330D01*
X148275490Y-143171260D01*
X148292992Y-142991184D01*
X148275528Y-142858068D01*
X148199326Y-142733588D01*
X148175435Y-142710380D01*
X148341463Y-142710380D01*
X148829714Y-143093971D01*
X149575795Y-143603313D01*
X150472660Y-144080050D01*
X151045333Y-144333767D01*
X151771824Y-144696185D01*
X152350616Y-145117583D01*
X152758631Y-145570127D01*
X153023079Y-145945301D01*
X153325372Y-145720775D01*
X153551658Y-145546353D01*
X153839742Y-145315840D01*
X154091880Y-145108491D01*
X154727489Y-144553028D01*
X155317770Y-143989910D01*
X155830031Y-143451785D01*
X156230628Y-142972555D01*
X156444342Y-142695073D01*
X156578319Y-142537566D01*
X156654294Y-142484446D01*
X156694004Y-142520127D01*
X156718097Y-142622974D01*
X156759098Y-142754696D01*
X156850672Y-142846117D01*
X157032458Y-142922485D01*
X157310763Y-143000457D01*
X157770088Y-143105867D01*
X158100359Y-143145512D01*
X158329017Y-143118304D01*
X158483504Y-143023154D01*
X158540244Y-142951699D01*
X158618032Y-142685303D01*
X158565858Y-142349082D01*
X158394205Y-141967811D01*
X158113556Y-141566265D01*
X157820012Y-141249400D01*
X157468788Y-140910734D01*
X157241560Y-141170753D01*
X157039952Y-141413099D01*
X156851956Y-141656613D01*
X156836619Y-141677740D01*
X156658905Y-141924707D01*
X156508981Y-140773587D01*
X156359058Y-139622467D01*
X155853292Y-139779879D01*
X155578660Y-139855942D01*
X155369235Y-139896618D01*
X155279389Y-139895180D01*
X155237739Y-139795813D01*
X155192639Y-139574366D01*
X155153489Y-139277603D01*
X155151673Y-139259798D01*
X155047741Y-138725602D01*
X154851446Y-138319136D01*
X154555452Y-138036419D01*
X154152423Y-137873472D01*
X153635026Y-137826313D01*
X152995925Y-137890963D01*
X152724800Y-137942921D01*
X152196771Y-138082384D01*
X151783563Y-138262045D01*
X151431297Y-138507482D01*
X151313080Y-138613046D01*
X150972833Y-139021960D01*
X150765180Y-139470635D01*
X150706666Y-139855754D01*
X150706666Y-140204521D01*
X150431500Y-140145029D01*
X150066394Y-140022504D01*
X149595540Y-139793308D01*
X149036917Y-139466376D01*
X148929807Y-139398716D01*
X148691829Y-139249911D01*
X148520649Y-139148728D01*
X148454704Y-139117482D01*
X148449254Y-139202678D01*
X148440016Y-139432215D01*
X148427845Y-139781168D01*
X148413597Y-140224607D01*
X148398127Y-140737605D01*
X148392795Y-140921557D01*
X148341463Y-142710380D01*
X148175435Y-142710380D01*
X148040616Y-142579418D01*
X147775626Y-142357236D01*
X147765307Y-142348724D01*
X147504573Y-142146180D01*
X147289042Y-142001795D01*
X147153429Y-141937952D01*
X147130298Y-141939322D01*
X147032220Y-142038423D01*
X146865794Y-142243889D01*
X146656173Y-142520905D01*
X146428508Y-142834659D01*
X146207950Y-143150336D01*
X146019652Y-143433121D01*
X145888766Y-143648200D01*
X145869180Y-143684916D01*
X145767875Y-143959400D01*
X145597858Y-143959400D01*
X145597156Y-143904639D01*
X145672067Y-143689323D01*
X145833884Y-143397677D01*
X146062325Y-143045023D01*
X146548701Y-142373502D01*
X147128349Y-141675441D01*
X147731601Y-141018828D01*
X148274747Y-140449590D01*
X148227733Y-138140162D01*
X148198574Y-137082129D01*
X148171538Y-136508067D01*
X148375439Y-136508067D01*
X148404548Y-137668746D01*
X148433656Y-138829425D01*
X148992855Y-139182591D01*
X149335633Y-139389072D01*
X149692692Y-139588379D01*
X149981194Y-139734671D01*
X150410333Y-139933584D01*
X150502475Y-139575492D01*
X150596632Y-139276052D01*
X150711144Y-138995058D01*
X150733088Y-138950731D01*
X150964039Y-138634906D01*
X151306538Y-138322639D01*
X151707464Y-138056971D01*
X152010589Y-137915663D01*
X152270100Y-137803830D01*
X152401052Y-137698771D01*
X152440093Y-137570120D01*
X152440329Y-137559592D01*
X152506769Y-137391569D01*
X152709822Y-137286367D01*
X153061249Y-137238332D01*
X153112999Y-137236173D01*
X153413756Y-137156031D01*
X153606225Y-136953388D01*
X153670000Y-136667257D01*
X153625752Y-136435695D01*
X153479883Y-136292347D01*
X153212701Y-136226748D01*
X152840056Y-136226230D01*
X152561110Y-136234076D01*
X152409176Y-136209657D01*
X152343447Y-136143314D01*
X152332793Y-136106147D01*
X152379420Y-135963663D01*
X152565804Y-135861221D01*
X152865297Y-135807512D01*
X153239845Y-135810293D01*
X153647480Y-135899175D01*
X153922149Y-136091823D01*
X154067114Y-136391421D01*
X154093333Y-136643993D01*
X154060351Y-136928494D01*
X153975739Y-137196335D01*
X153860995Y-137397687D01*
X153737618Y-137482721D01*
X153731325Y-137483030D01*
X153691884Y-137513970D01*
X153754666Y-137566400D01*
X153928560Y-137626229D01*
X154144312Y-137649770D01*
X154461497Y-137723674D01*
X154784767Y-137917469D01*
X155057744Y-138193659D01*
X155133994Y-138307998D01*
X155231375Y-138548115D01*
X155310009Y-138871391D01*
X155341049Y-139093282D01*
X155373374Y-139367729D01*
X155410546Y-139564552D01*
X155438810Y-139633443D01*
X155555969Y-139632493D01*
X155757859Y-139579343D01*
X155986160Y-139495979D01*
X156182553Y-139404389D01*
X156288717Y-139326559D01*
X156294347Y-139310899D01*
X156278896Y-139199646D01*
X156236589Y-138952600D01*
X156173157Y-138600138D01*
X156094329Y-138172637D01*
X156005836Y-137700473D01*
X155913408Y-137214023D01*
X155822776Y-136743662D01*
X155739668Y-136319767D01*
X155669815Y-135972715D01*
X155621887Y-135746067D01*
X155493461Y-135214967D01*
X155361449Y-134754820D01*
X155234298Y-134390079D01*
X155120453Y-134145199D01*
X155034948Y-134046882D01*
X154902121Y-134022155D01*
X154636399Y-133995713D01*
X154274158Y-133970462D01*
X153851774Y-133949305D01*
X153774379Y-133946239D01*
X153227718Y-133932308D01*
X152801487Y-133939735D01*
X152447802Y-133971331D01*
X152118778Y-134029910D01*
X152038712Y-134048166D01*
X151295142Y-134285832D01*
X150544523Y-134638151D01*
X149830399Y-135078130D01*
X149196313Y-135578779D01*
X148685809Y-136113106D01*
X148664834Y-136139553D01*
X148375439Y-136508067D01*
X148171538Y-136508067D01*
X148154925Y-136155337D01*
X148093135Y-135322039D01*
X148009552Y-134544491D01*
X147900527Y-133784946D01*
X147762407Y-133005659D01*
X147700853Y-132693125D01*
X147488581Y-131787536D01*
X147227856Y-130917117D01*
X146929330Y-130107391D01*
X146603656Y-129383881D01*
X146261489Y-128772107D01*
X145913480Y-128297593D01*
X145826729Y-128203315D01*
X145634933Y-128003020D01*
X145501386Y-127857916D01*
X145457333Y-127803067D01*
X145535016Y-127791321D01*
X145743919Y-127800766D01*
G37*
X145743919Y-127800766D02*
X146047821Y-127827342D01*
X146410502Y-127866987D01*
X146795742Y-127915641D01*
X147167320Y-127969242D01*
X147489017Y-128023731D01*
X147574000Y-128040381D01*
X148656785Y-128315145D01*
X149727224Y-128687315D01*
X150743507Y-129138977D01*
X151663825Y-129652214D01*
X152216926Y-130029812D01*
X152681803Y-130407038D01*
X153168610Y-130853037D01*
X153636123Y-131326217D01*
X154043117Y-131784989D01*
X154332290Y-132163902D01*
X154616203Y-132631672D01*
X154910320Y-133202783D01*
X155185930Y-133815778D01*
X155414319Y-134409198D01*
X155491578Y-134645400D01*
X155577194Y-134959738D01*
X155684991Y-135407641D01*
X155808110Y-135955847D01*
X155939694Y-136571099D01*
X156072884Y-137220134D01*
X156200820Y-137869694D01*
X156316644Y-138486517D01*
X156413498Y-139037345D01*
X156470026Y-139390223D01*
X156572552Y-140071045D01*
X157038192Y-140406223D01*
X157449621Y-140727761D01*
X157846324Y-141083139D01*
X158195672Y-141439380D01*
X158465038Y-141763509D01*
X158608934Y-141993717D01*
X158744064Y-142386256D01*
X158773114Y-142744961D01*
X158696701Y-143032382D01*
X158589666Y-143164138D01*
X158407170Y-143272160D01*
X158183320Y-143314155D01*
X157879262Y-143291580D01*
X157458833Y-143206526D01*
X156972000Y-143091964D01*
X156978917Y-143398349D01*
X156988991Y-143598770D01*
X157011490Y-143924376D01*
X157043186Y-144331742D01*
X157080850Y-144777443D01*
X157084750Y-144821649D01*
X157183666Y-145938564D01*
X158084746Y-146533240D01*
X158703769Y-146971753D01*
X159161598Y-147363721D01*
X159458007Y-147708810D01*
X159592771Y-148006683D01*
X159565666Y-148257005D01*
X159376467Y-148459438D01*
X159374265Y-148460886D01*
X159144375Y-148547682D01*
X158792859Y-148605307D01*
X158365159Y-148632191D01*
X157906717Y-148626767D01*
X157462976Y-148587463D01*
X157175895Y-148536807D01*
X156807433Y-148437903D01*
X156391330Y-148303891D01*
X156110918Y-148200117D01*
X155766994Y-148084804D01*
X155422520Y-148004964D01*
X155187357Y-147979664D01*
X154881425Y-147965527D01*
X154415940Y-147924569D01*
X153798403Y-147857658D01*
X153389961Y-147808351D01*
X155596958Y-147808351D01*
X155992812Y-147978034D01*
X156410850Y-148136517D01*
X156894681Y-148289381D01*
X157350565Y-148407844D01*
X157480000Y-148434690D01*
X157735645Y-148461313D01*
X158070639Y-148467280D01*
X158438073Y-148455423D01*
X158791042Y-148428570D01*
X159082640Y-148389552D01*
X159265958Y-148341200D01*
X159292801Y-148325318D01*
X159408488Y-148140813D01*
X159369391Y-147906300D01*
X159174437Y-147620447D01*
X158822550Y-147281922D01*
X158312658Y-146889393D01*
X157915427Y-146617477D01*
X157525234Y-146365867D01*
X157249493Y-146204504D01*
X157066599Y-146122827D01*
X156954946Y-146110277D01*
X156916055Y-146129030D01*
X156816327Y-146242278D01*
X156655996Y-146456094D01*
X156466118Y-146728665D01*
X156424297Y-146791110D01*
X156212503Y-147095256D01*
X156003022Y-147372281D01*
X155837422Y-147567503D01*
X155822313Y-147582996D01*
X155596958Y-147808351D01*
X153389961Y-147808351D01*
X153036315Y-147765659D01*
X152137179Y-147649437D01*
X151108495Y-147509858D01*
X151070198Y-147504555D01*
X149444063Y-147279236D01*
X148823975Y-147585627D01*
X148338527Y-147795497D01*
X147832513Y-147962838D01*
X147350125Y-148076768D01*
X146935551Y-148126401D01*
X146683788Y-148112759D01*
X146394198Y-147996695D01*
X146221012Y-147797231D01*
X146201468Y-147655081D01*
X146349523Y-147655081D01*
X146405656Y-147842061D01*
X146544042Y-147926941D01*
X146771520Y-147948077D01*
X147104233Y-147926007D01*
X147485845Y-147868206D01*
X147860020Y-147782146D01*
X148029564Y-147729876D01*
X148392854Y-147591917D01*
X148734576Y-147439602D01*
X149014041Y-147293172D01*
X149190559Y-147172867D01*
X149223672Y-147135881D01*
X149227965Y-146978551D01*
X149119420Y-146738588D01*
X148914496Y-146442705D01*
X148629653Y-146117612D01*
X148541246Y-146028362D01*
X148072831Y-145567400D01*
X147314462Y-146371734D01*
X147016591Y-146694791D01*
X146752776Y-146994065D01*
X146550123Y-147237910D01*
X146435739Y-147394681D01*
X146430645Y-147403537D01*
X146349523Y-147655081D01*
X146201468Y-147655081D01*
X146186455Y-147545890D01*
X146213420Y-147445618D01*
X146300462Y-147304474D01*
X146480658Y-147071062D01*
X146729691Y-146775074D01*
X147023246Y-146446202D01*
X147099203Y-146363980D01*
X147901732Y-145501314D01*
X147952551Y-144941691D01*
X147984939Y-144611731D01*
X148017955Y-144317567D01*
X148040568Y-144149234D01*
X148051141Y-143981429D01*
X148025140Y-143916400D01*
X147926872Y-143940703D01*
X147705025Y-144006111D01*
X147397054Y-144101373D01*
X147179577Y-144170400D01*
X146661383Y-144323388D01*
X146273584Y-144404332D01*
X145993713Y-144414032D01*
X145799299Y-144353287D01*
X145668702Y-144224162D01*
X145599314Y-144073094D01*
X145597858Y-143959400D01*
X145767875Y-143959400D01*
X145793252Y-144142582D01*
X145948918Y-144235185D01*
X146238478Y-144237937D01*
X146665537Y-144151561D01*
X147233702Y-143976785D01*
X147265562Y-143965848D01*
X147618589Y-143839680D01*
X147911052Y-143726801D01*
X148106009Y-143641958D01*
X148165031Y-143606771D01*
X148214988Y-143484146D01*
X148262399Y-143262330D01*
X148275490Y-143171260D01*
X148292992Y-142991184D01*
X148275528Y-142858068D01*
X148199326Y-142733588D01*
X148175435Y-142710380D01*
X148341463Y-142710380D01*
X148829714Y-143093971D01*
X149575795Y-143603313D01*
X150472660Y-144080050D01*
X151045333Y-144333767D01*
X151771824Y-144696185D01*
X152350616Y-145117583D01*
X152758631Y-145570127D01*
X153023079Y-145945301D01*
X153325372Y-145720775D01*
X153551658Y-145546353D01*
X153839742Y-145315840D01*
X154091880Y-145108491D01*
X154727489Y-144553028D01*
X155317770Y-143989910D01*
X155830031Y-143451785D01*
X156230628Y-142972555D01*
X156444342Y-142695073D01*
X156578319Y-142537566D01*
X156654294Y-142484446D01*
X156694004Y-142520127D01*
X156718097Y-142622974D01*
X156759098Y-142754696D01*
X156850672Y-142846117D01*
X157032458Y-142922485D01*
X157310763Y-143000457D01*
X157770088Y-143105867D01*
X158100359Y-143145512D01*
X158329017Y-143118304D01*
X158483504Y-143023154D01*
X158540244Y-142951699D01*
X158618032Y-142685303D01*
X158565858Y-142349082D01*
X158394205Y-141967811D01*
X158113556Y-141566265D01*
X157820012Y-141249400D01*
X157468788Y-140910734D01*
X157241560Y-141170753D01*
X157039952Y-141413099D01*
X156851956Y-141656613D01*
X156836619Y-141677740D01*
X156658905Y-141924707D01*
X156508981Y-140773587D01*
X156359058Y-139622467D01*
X155853292Y-139779879D01*
X155578660Y-139855942D01*
X155369235Y-139896618D01*
X155279389Y-139895180D01*
X155237739Y-139795813D01*
X155192639Y-139574366D01*
X155153489Y-139277603D01*
X155151673Y-139259798D01*
X155047741Y-138725602D01*
X154851446Y-138319136D01*
X154555452Y-138036419D01*
X154152423Y-137873472D01*
X153635026Y-137826313D01*
X152995925Y-137890963D01*
X152724800Y-137942921D01*
X152196771Y-138082384D01*
X151783563Y-138262045D01*
X151431297Y-138507482D01*
X151313080Y-138613046D01*
X150972833Y-139021960D01*
X150765180Y-139470635D01*
X150706666Y-139855754D01*
X150706666Y-140204521D01*
X150431500Y-140145029D01*
X150066394Y-140022504D01*
X149595540Y-139793308D01*
X149036917Y-139466376D01*
X148929807Y-139398716D01*
X148691829Y-139249911D01*
X148520649Y-139148728D01*
X148454704Y-139117482D01*
X148449254Y-139202678D01*
X148440016Y-139432215D01*
X148427845Y-139781168D01*
X148413597Y-140224607D01*
X148398127Y-140737605D01*
X148392795Y-140921557D01*
X148341463Y-142710380D01*
X148175435Y-142710380D01*
X148040616Y-142579418D01*
X147775626Y-142357236D01*
X147765307Y-142348724D01*
X147504573Y-142146180D01*
X147289042Y-142001795D01*
X147153429Y-141937952D01*
X147130298Y-141939322D01*
X147032220Y-142038423D01*
X146865794Y-142243889D01*
X146656173Y-142520905D01*
X146428508Y-142834659D01*
X146207950Y-143150336D01*
X146019652Y-143433121D01*
X145888766Y-143648200D01*
X145869180Y-143684916D01*
X145767875Y-143959400D01*
X145597858Y-143959400D01*
X145597156Y-143904639D01*
X145672067Y-143689323D01*
X145833884Y-143397677D01*
X146062325Y-143045023D01*
X146548701Y-142373502D01*
X147128349Y-141675441D01*
X147731601Y-141018828D01*
X148274747Y-140449590D01*
X148227733Y-138140162D01*
X148198574Y-137082129D01*
X148171538Y-136508067D01*
X148375439Y-136508067D01*
X148404548Y-137668746D01*
X148433656Y-138829425D01*
X148992855Y-139182591D01*
X149335633Y-139389072D01*
X149692692Y-139588379D01*
X149981194Y-139734671D01*
X150410333Y-139933584D01*
X150502475Y-139575492D01*
X150596632Y-139276052D01*
X150711144Y-138995058D01*
X150733088Y-138950731D01*
X150964039Y-138634906D01*
X151306538Y-138322639D01*
X151707464Y-138056971D01*
X152010589Y-137915663D01*
X152270100Y-137803830D01*
X152401052Y-137698771D01*
X152440093Y-137570120D01*
X152440329Y-137559592D01*
X152506769Y-137391569D01*
X152709822Y-137286367D01*
X153061249Y-137238332D01*
X153112999Y-137236173D01*
X153413756Y-137156031D01*
X153606225Y-136953388D01*
X153670000Y-136667257D01*
X153625752Y-136435695D01*
X153479883Y-136292347D01*
X153212701Y-136226748D01*
X152840056Y-136226230D01*
X152561110Y-136234076D01*
X152409176Y-136209657D01*
X152343447Y-136143314D01*
X152332793Y-136106147D01*
X152379420Y-135963663D01*
X152565804Y-135861221D01*
X152865297Y-135807512D01*
X153239845Y-135810293D01*
X153647480Y-135899175D01*
X153922149Y-136091823D01*
X154067114Y-136391421D01*
X154093333Y-136643993D01*
X154060351Y-136928494D01*
X153975739Y-137196335D01*
X153860995Y-137397687D01*
X153737618Y-137482721D01*
X153731325Y-137483030D01*
X153691884Y-137513970D01*
X153754666Y-137566400D01*
X153928560Y-137626229D01*
X154144312Y-137649770D01*
X154461497Y-137723674D01*
X154784767Y-137917469D01*
X155057744Y-138193659D01*
X155133994Y-138307998D01*
X155231375Y-138548115D01*
X155310009Y-138871391D01*
X155341049Y-139093282D01*
X155373374Y-139367729D01*
X155410546Y-139564552D01*
X155438810Y-139633443D01*
X155555969Y-139632493D01*
X155757859Y-139579343D01*
X155986160Y-139495979D01*
X156182553Y-139404389D01*
X156288717Y-139326559D01*
X156294347Y-139310899D01*
X156278896Y-139199646D01*
X156236589Y-138952600D01*
X156173157Y-138600138D01*
X156094329Y-138172637D01*
X156005836Y-137700473D01*
X155913408Y-137214023D01*
X155822776Y-136743662D01*
X155739668Y-136319767D01*
X155669815Y-135972715D01*
X155621887Y-135746067D01*
X155493461Y-135214967D01*
X155361449Y-134754820D01*
X155234298Y-134390079D01*
X155120453Y-134145199D01*
X155034948Y-134046882D01*
X154902121Y-134022155D01*
X154636399Y-133995713D01*
X154274158Y-133970462D01*
X153851774Y-133949305D01*
X153774379Y-133946239D01*
X153227718Y-133932308D01*
X152801487Y-133939735D01*
X152447802Y-133971331D01*
X152118778Y-134029910D01*
X152038712Y-134048166D01*
X151295142Y-134285832D01*
X150544523Y-134638151D01*
X149830399Y-135078130D01*
X149196313Y-135578779D01*
X148685809Y-136113106D01*
X148664834Y-136139553D01*
X148375439Y-136508067D01*
X148171538Y-136508067D01*
X148154925Y-136155337D01*
X148093135Y-135322039D01*
X148009552Y-134544491D01*
X147900527Y-133784946D01*
X147762407Y-133005659D01*
X147700853Y-132693125D01*
X147488581Y-131787536D01*
X147227856Y-130917117D01*
X146929330Y-130107391D01*
X146603656Y-129383881D01*
X146261489Y-128772107D01*
X145913480Y-128297593D01*
X145826729Y-128203315D01*
X145634933Y-128003020D01*
X145501386Y-127857916D01*
X145457333Y-127803067D01*
X145535016Y-127791321D01*
X145743919Y-127800766D01*
G36*
X153596077Y-139929829D02*
G01*
X153669953Y-140029752D01*
X153670000Y-140032887D01*
X153594843Y-140123053D01*
X153406243Y-140212050D01*
X153159498Y-140284613D01*
X152909911Y-140325480D01*
X152712782Y-140319387D01*
X152675166Y-140307469D01*
X152571351Y-140204756D01*
X152599425Y-140090085D01*
X152738183Y-140023856D01*
X152775488Y-140021734D01*
X153019293Y-139990441D01*
X153198086Y-139939442D01*
X153419911Y-139895988D01*
X153596077Y-139929829D01*
G37*
X153596077Y-139929829D02*
X153669953Y-140029752D01*
X153670000Y-140032887D01*
X153594843Y-140123053D01*
X153406243Y-140212050D01*
X153159498Y-140284613D01*
X152909911Y-140325480D01*
X152712782Y-140319387D01*
X152675166Y-140307469D01*
X152571351Y-140204756D01*
X152599425Y-140090085D01*
X152738183Y-140023856D01*
X152775488Y-140021734D01*
X153019293Y-139990441D01*
X153198086Y-139939442D01*
X153419911Y-139895988D01*
X153596077Y-139929829D01*
G36*
X151194476Y-135443658D02*
G01*
X151407757Y-135527529D01*
X151444476Y-135558591D01*
X151561040Y-135778053D01*
X151554072Y-136030478D01*
X151444997Y-136263333D01*
X151255236Y-136424085D01*
X151074544Y-136465734D01*
X150866356Y-136407288D01*
X150706666Y-136296400D01*
X150580051Y-136115265D01*
X150537333Y-135965660D01*
X150578596Y-135847509D01*
X150706666Y-135848535D01*
X150845402Y-135842890D01*
X150876000Y-135755942D01*
X150824800Y-135637216D01*
X150774400Y-135619067D01*
X150717308Y-135590612D01*
X150768050Y-135523817D01*
X150952562Y-135440947D01*
X151194476Y-135443658D01*
G37*
X151194476Y-135443658D02*
X151407757Y-135527529D01*
X151444476Y-135558591D01*
X151561040Y-135778053D01*
X151554072Y-136030478D01*
X151444997Y-136263333D01*
X151255236Y-136424085D01*
X151074544Y-136465734D01*
X150866356Y-136407288D01*
X150706666Y-136296400D01*
X150580051Y-136115265D01*
X150537333Y-135965660D01*
X150578596Y-135847509D01*
X150706666Y-135848535D01*
X150845402Y-135842890D01*
X150876000Y-135755942D01*
X150824800Y-135637216D01*
X150774400Y-135619067D01*
X150717308Y-135590612D01*
X150768050Y-135523817D01*
X150952562Y-135440947D01*
X151194476Y-135443658D01*
G36*
X154557971Y-134882803D02*
G01*
X154683089Y-135048166D01*
X154765262Y-135232342D01*
X154748400Y-135382793D01*
X154683339Y-135513234D01*
X154527700Y-135693636D01*
X154290527Y-135767764D01*
X154252759Y-135771515D01*
X154015691Y-135759299D01*
X153866326Y-135690084D01*
X153863615Y-135686848D01*
X153768744Y-135519386D01*
X153714337Y-135377875D01*
X153688052Y-135237024D01*
X153757653Y-135215018D01*
X153823849Y-135233153D01*
X153994718Y-135235160D01*
X154067156Y-135143527D01*
X154011050Y-135011764D01*
X153968863Y-134975447D01*
X153875426Y-134891679D01*
X153921204Y-134843421D01*
X154033898Y-134811460D01*
X154339620Y-134781944D01*
X154557971Y-134882803D01*
G37*
X154557971Y-134882803D02*
X154683089Y-135048166D01*
X154765262Y-135232342D01*
X154748400Y-135382793D01*
X154683339Y-135513234D01*
X154527700Y-135693636D01*
X154290527Y-135767764D01*
X154252759Y-135771515D01*
X154015691Y-135759299D01*
X153866326Y-135690084D01*
X153863615Y-135686848D01*
X153768744Y-135519386D01*
X153714337Y-135377875D01*
X153688052Y-135237024D01*
X153757653Y-135215018D01*
X153823849Y-135233153D01*
X153994718Y-135235160D01*
X154067156Y-135143527D01*
X154011050Y-135011764D01*
X153968863Y-134975447D01*
X153875426Y-134891679D01*
X153921204Y-134843421D01*
X154033898Y-134811460D01*
X154339620Y-134781944D01*
X154557971Y-134882803D01*
D12*
%TO.C,Q1*%
X167200000Y-117010000D02*
X166700000Y-117010000D01*
X167200000Y-117010000D02*
X167200000Y-117650000D01*
X163000000Y-117010000D02*
X163000000Y-117110000D01*
X163350000Y-117010000D02*
X163000000Y-117010000D01*
X163000000Y-119210000D02*
X163350000Y-119210000D01*
X163000000Y-119110000D02*
X163000000Y-119210000D01*
X167200000Y-119210000D02*
X167200000Y-118710000D01*
X167200000Y-119210000D02*
X166650000Y-119210000D01*
X167200000Y-117650000D02*
X167400000Y-117650000D01*
%TO.C,S1*%
X136600000Y-142240000D02*
X136600000Y-141740000D01*
X136600000Y-142240000D02*
X136600000Y-142740000D01*
X142800000Y-142240000D02*
X142800000Y-141740000D01*
X142800000Y-142240000D02*
X142800000Y-142740000D01*
X139700000Y-145340000D02*
X139200000Y-145340000D01*
X139700000Y-145340000D02*
X140200000Y-145340000D01*
X139700000Y-139140000D02*
X140200000Y-139140000D01*
X139700000Y-139140000D02*
X139200000Y-139140000D01*
X136300000Y-139240000D02*
X135100000Y-139240000D01*
X136600000Y-139240000D02*
X136300000Y-139240000D01*
X136600000Y-139140000D02*
X136600000Y-139240000D01*
X137100000Y-139140000D02*
X136600000Y-139140000D01*
%TO.C,S2*%
X162000000Y-142240000D02*
X162000000Y-141740000D01*
X162000000Y-142240000D02*
X162000000Y-142740000D01*
X168200000Y-142240000D02*
X168200000Y-141740000D01*
X168200000Y-142240000D02*
X168200000Y-142740000D01*
X165100000Y-145340000D02*
X164600000Y-145340000D01*
X165100000Y-145340000D02*
X165600000Y-145340000D01*
X165100000Y-139140000D02*
X165600000Y-139140000D01*
X165100000Y-139140000D02*
X164600000Y-139140000D01*
X161700000Y-139240000D02*
X160500000Y-139240000D01*
X162000000Y-139240000D02*
X161700000Y-139240000D01*
X162000000Y-139140000D02*
X162000000Y-139240000D01*
X162500000Y-139140000D02*
X162000000Y-139140000D01*
%TO.C,U2*%
X154000000Y-115510000D02*
X154000000Y-115710000D01*
X154000000Y-115510000D02*
X153700000Y-115510000D01*
X150800000Y-115510000D02*
X151100000Y-115510000D01*
X150800000Y-115510000D02*
X150800000Y-115710000D01*
X150800000Y-120710000D02*
X151100000Y-120710000D01*
X150800000Y-120710000D02*
X150800000Y-120510000D01*
X153800000Y-120510000D02*
X154000000Y-120510000D01*
X153600000Y-120710000D02*
X153800000Y-120510000D01*
X153300000Y-120710000D02*
X153600000Y-120710000D01*
D13*
%TO.C,U1*%
X137140000Y-118110000D02*
X137140000Y-121560000D01*
X137140000Y-118110000D02*
X137140000Y-116160000D01*
X142260000Y-118110000D02*
X142260000Y-120060000D01*
X142260000Y-118110000D02*
X142260000Y-116160000D01*
%TO.C,J1*%
X170180000Y-97730000D02*
X170180000Y-100390000D01*
X170180000Y-97730000D02*
X132020000Y-97730000D01*
X132020000Y-97730000D02*
X132020000Y-100390000D01*
X170180000Y-100390000D02*
X132020000Y-100390000D01*
X172780000Y-100390000D02*
X171450000Y-100390000D01*
X172780000Y-99060000D02*
X172780000Y-100390000D01*
%TO.C,J2*%
X170180000Y-77410000D02*
X170180000Y-80070000D01*
X170180000Y-77410000D02*
X142180000Y-77410000D01*
X142180000Y-77410000D02*
X142180000Y-80070000D01*
X170180000Y-80070000D02*
X142180000Y-80070000D01*
X172780000Y-80070000D02*
X171450000Y-80070000D01*
X172780000Y-78740000D02*
X172780000Y-80070000D01*
%TO.C,C1*%
X134647000Y-117848748D02*
X134647000Y-118371252D01*
X136117000Y-117848748D02*
X136117000Y-118371252D01*
%TO.C,C2*%
X156964748Y-119915000D02*
X157487252Y-119915000D01*
X156964748Y-121385000D02*
X157487252Y-121385000D01*
%TO.C,C3*%
X156964748Y-115597000D02*
X157487252Y-115597000D01*
X156964748Y-117067000D02*
X157487252Y-117067000D01*
%TO.C,C4*%
X156964748Y-119226000D02*
X157487252Y-119226000D01*
X156964748Y-117756000D02*
X157487252Y-117756000D01*
%TO.C,R1*%
X164809936Y-115035000D02*
X165264064Y-115035000D01*
X164809936Y-113565000D02*
X165264064Y-113565000D01*
%TD*%
M02*
