%TF.GenerationSoftware,KiCad,Pcbnew,5.1.12-1.fc35*%
%TF.CreationDate,2022-01-13T15:21:34+01:00*%
%TF.ProjectId,burrboard,62757272-626f-4617-9264-2e6b69636164,v2.0*%
%TF.SameCoordinates,Original*%
%TF.FileFunction,Legend,Bot*%
%TF.FilePolarity,Positive*%
%FSLAX46Y46*%
G04 Gerber Fmt 4.6, Leading zero omitted, Abs format (unit mm)*
G04 Created by KiCad (PCBNEW 5.1.12-1.fc35) date 2022-01-13 15:21:34*
%MOMM*%
%LPD*%
G01*
G04 APERTURE LIST*
%ADD10C,0.300000*%
%ADD11C,0.010000*%
%ADD12C,0.120000*%
%ADD13C,0.150000*%
G04 APERTURE END LIST*
D10*
X130218571Y-124116571D02*
X128718571Y-124116571D01*
X128718571Y-124473714D01*
X128790000Y-124688000D01*
X128932857Y-124830857D01*
X129075714Y-124902285D01*
X129361428Y-124973714D01*
X129575714Y-124973714D01*
X129861428Y-124902285D01*
X130004285Y-124830857D01*
X130147142Y-124688000D01*
X130218571Y-124473714D01*
X130218571Y-124116571D01*
X130218571Y-125616571D02*
X129218571Y-125616571D01*
X129504285Y-125616571D02*
X129361428Y-125688000D01*
X129290000Y-125759428D01*
X129218571Y-125902285D01*
X129218571Y-126045142D01*
X130218571Y-126759428D02*
X130147142Y-126616571D01*
X130075714Y-126545142D01*
X129932857Y-126473714D01*
X129504285Y-126473714D01*
X129361428Y-126545142D01*
X129290000Y-126616571D01*
X129218571Y-126759428D01*
X129218571Y-126973714D01*
X129290000Y-127116571D01*
X129361428Y-127188000D01*
X129504285Y-127259428D01*
X129932857Y-127259428D01*
X130075714Y-127188000D01*
X130147142Y-127116571D01*
X130218571Y-126973714D01*
X130218571Y-126759428D01*
X129218571Y-128545142D02*
X130432857Y-128545142D01*
X130575714Y-128473714D01*
X130647142Y-128402285D01*
X130718571Y-128259428D01*
X130718571Y-128045142D01*
X130647142Y-127902285D01*
X130147142Y-128545142D02*
X130218571Y-128402285D01*
X130218571Y-128116571D01*
X130147142Y-127973714D01*
X130075714Y-127902285D01*
X129932857Y-127830857D01*
X129504285Y-127830857D01*
X129361428Y-127902285D01*
X129290000Y-127973714D01*
X129218571Y-128116571D01*
X129218571Y-128402285D01*
X129290000Y-128545142D01*
X129218571Y-129902285D02*
X130218571Y-129902285D01*
X129218571Y-129259428D02*
X130004285Y-129259428D01*
X130147142Y-129330857D01*
X130218571Y-129473714D01*
X130218571Y-129688000D01*
X130147142Y-129830857D01*
X130075714Y-129902285D01*
X130147142Y-131188000D02*
X130218571Y-131045142D01*
X130218571Y-130759428D01*
X130147142Y-130616571D01*
X130004285Y-130545142D01*
X129432857Y-130545142D01*
X129290000Y-130616571D01*
X129218571Y-130759428D01*
X129218571Y-131045142D01*
X129290000Y-131188000D01*
X129432857Y-131259428D01*
X129575714Y-131259428D01*
X129718571Y-130545142D01*
X130218571Y-133045142D02*
X128718571Y-133045142D01*
X130218571Y-133973714D02*
X130147142Y-133830857D01*
X130075714Y-133759428D01*
X129932857Y-133688000D01*
X129504285Y-133688000D01*
X129361428Y-133759428D01*
X129290000Y-133830857D01*
X129218571Y-133973714D01*
X129218571Y-134188000D01*
X129290000Y-134330857D01*
X129361428Y-134402285D01*
X129504285Y-134473714D01*
X129932857Y-134473714D01*
X130075714Y-134402285D01*
X130147142Y-134330857D01*
X130218571Y-134188000D01*
X130218571Y-133973714D01*
X128718571Y-134902285D02*
X128718571Y-135759428D01*
X130218571Y-135330857D02*
X128718571Y-135330857D01*
X129432857Y-137902285D02*
X129504285Y-138116571D01*
X129575714Y-138188000D01*
X129718571Y-138259428D01*
X129932857Y-138259428D01*
X130075714Y-138188000D01*
X130147142Y-138116571D01*
X130218571Y-137973714D01*
X130218571Y-137402285D01*
X128718571Y-137402285D01*
X128718571Y-137902285D01*
X128790000Y-138045142D01*
X128861428Y-138116571D01*
X129004285Y-138188000D01*
X129147142Y-138188000D01*
X129290000Y-138116571D01*
X129361428Y-138045142D01*
X129432857Y-137902285D01*
X129432857Y-137402285D01*
X129218571Y-139545142D02*
X130218571Y-139545142D01*
X129218571Y-138902285D02*
X130004285Y-138902285D01*
X130147142Y-138973714D01*
X130218571Y-139116571D01*
X130218571Y-139330857D01*
X130147142Y-139473714D01*
X130075714Y-139545142D01*
X130218571Y-140259428D02*
X129218571Y-140259428D01*
X129504285Y-140259428D02*
X129361428Y-140330857D01*
X129290000Y-140402285D01*
X129218571Y-140545142D01*
X129218571Y-140688000D01*
X130218571Y-141188000D02*
X129218571Y-141188000D01*
X129504285Y-141188000D02*
X129361428Y-141259428D01*
X129290000Y-141330857D01*
X129218571Y-141473714D01*
X129218571Y-141616571D01*
X129432857Y-142616571D02*
X129504285Y-142830857D01*
X129575714Y-142902285D01*
X129718571Y-142973714D01*
X129932857Y-142973714D01*
X130075714Y-142902285D01*
X130147142Y-142830857D01*
X130218571Y-142688000D01*
X130218571Y-142116571D01*
X128718571Y-142116571D01*
X128718571Y-142616571D01*
X128790000Y-142759428D01*
X128861428Y-142830857D01*
X129004285Y-142902285D01*
X129147142Y-142902285D01*
X129290000Y-142830857D01*
X129361428Y-142759428D01*
X129432857Y-142616571D01*
X129432857Y-142116571D01*
X130218571Y-143830857D02*
X130147142Y-143688000D01*
X130075714Y-143616571D01*
X129932857Y-143545142D01*
X129504285Y-143545142D01*
X129361428Y-143616571D01*
X129290000Y-143688000D01*
X129218571Y-143830857D01*
X129218571Y-144045142D01*
X129290000Y-144188000D01*
X129361428Y-144259428D01*
X129504285Y-144330857D01*
X129932857Y-144330857D01*
X130075714Y-144259428D01*
X130147142Y-144188000D01*
X130218571Y-144045142D01*
X130218571Y-143830857D01*
X130218571Y-145616571D02*
X129432857Y-145616571D01*
X129290000Y-145545142D01*
X129218571Y-145402285D01*
X129218571Y-145116571D01*
X129290000Y-144973714D01*
X130147142Y-145616571D02*
X130218571Y-145473714D01*
X130218571Y-145116571D01*
X130147142Y-144973714D01*
X130004285Y-144902285D01*
X129861428Y-144902285D01*
X129718571Y-144973714D01*
X129647142Y-145116571D01*
X129647142Y-145473714D01*
X129575714Y-145616571D01*
X130218571Y-146330857D02*
X129218571Y-146330857D01*
X129504285Y-146330857D02*
X129361428Y-146402285D01*
X129290000Y-146473714D01*
X129218571Y-146616571D01*
X129218571Y-146759428D01*
X130218571Y-147902285D02*
X128718571Y-147902285D01*
X130147142Y-147902285D02*
X130218571Y-147759428D01*
X130218571Y-147473714D01*
X130147142Y-147330857D01*
X130075714Y-147259428D01*
X129932857Y-147188000D01*
X129504285Y-147188000D01*
X129361428Y-147259428D01*
X129290000Y-147330857D01*
X129218571Y-147473714D01*
X129218571Y-147759428D01*
X129290000Y-147902285D01*
X129218571Y-149616571D02*
X130218571Y-149973714D01*
X129218571Y-150330857D01*
X128861428Y-150830857D02*
X128790000Y-150902285D01*
X128718571Y-151045142D01*
X128718571Y-151402285D01*
X128790000Y-151545142D01*
X128861428Y-151616571D01*
X129004285Y-151688000D01*
X129147142Y-151688000D01*
X129361428Y-151616571D01*
X130218571Y-150759428D01*
X130218571Y-151688000D01*
X130075714Y-152330857D02*
X130147142Y-152402285D01*
X130218571Y-152330857D01*
X130147142Y-152259428D01*
X130075714Y-152330857D01*
X130218571Y-152330857D01*
X128718571Y-153330857D02*
X128718571Y-153473714D01*
X128790000Y-153616571D01*
X128861428Y-153688000D01*
X129004285Y-153759428D01*
X129290000Y-153830857D01*
X129647142Y-153830857D01*
X129932857Y-153759428D01*
X130075714Y-153688000D01*
X130147142Y-153616571D01*
X130218571Y-153473714D01*
X130218571Y-153330857D01*
X130147142Y-153188000D01*
X130075714Y-153116571D01*
X129932857Y-153045142D01*
X129647142Y-152973714D01*
X129290000Y-152973714D01*
X129004285Y-153045142D01*
X128861428Y-153116571D01*
X128790000Y-153188000D01*
X128718571Y-153330857D01*
D11*
%TO.C,G\u002A\u002A\u002A*%
G36*
X138588851Y-76766002D02*
G01*
X138520669Y-76780169D01*
X138441624Y-76801261D01*
X138354331Y-76828286D01*
X138261403Y-76860249D01*
X138165454Y-76896157D01*
X138069100Y-76935016D01*
X137974953Y-76975834D01*
X137885629Y-77017616D01*
X137803741Y-77059368D01*
X137731903Y-77100097D01*
X137672730Y-77138811D01*
X137653183Y-77153515D01*
X137628957Y-77173508D01*
X137608131Y-77193473D01*
X137589892Y-77215529D01*
X137573427Y-77241796D01*
X137557922Y-77274393D01*
X137542565Y-77315440D01*
X137526541Y-77367057D01*
X137509038Y-77431362D01*
X137489242Y-77510475D01*
X137466339Y-77606516D01*
X137446153Y-77693005D01*
X137419808Y-77807497D01*
X137398400Y-77903595D01*
X137381694Y-77983433D01*
X137369453Y-78049144D01*
X137361444Y-78102859D01*
X137357432Y-78146711D01*
X137357181Y-78182833D01*
X137360456Y-78213357D01*
X137367023Y-78240416D01*
X137376647Y-78266142D01*
X137381751Y-78277508D01*
X137421435Y-78338439D01*
X137479383Y-78392444D01*
X137553410Y-78438068D01*
X137641335Y-78473860D01*
X137701735Y-78490445D01*
X137734611Y-78495580D01*
X137784219Y-78500330D01*
X137846124Y-78504542D01*
X137915893Y-78508059D01*
X137989092Y-78510728D01*
X138061287Y-78512395D01*
X138128044Y-78512904D01*
X138184929Y-78512101D01*
X138227508Y-78509833D01*
X138235267Y-78509034D01*
X138462440Y-78474476D01*
X138675880Y-78425866D01*
X138878348Y-78362419D01*
X139072605Y-78283347D01*
X139140142Y-78251356D01*
X139250214Y-78193715D01*
X139354851Y-78132045D01*
X139452419Y-78067762D01*
X139541284Y-78002280D01*
X139619811Y-77937014D01*
X139686368Y-77873378D01*
X139739319Y-77812788D01*
X139777031Y-77756657D01*
X139797870Y-77706401D01*
X139801600Y-77678663D01*
X139798099Y-77659537D01*
X139788277Y-77623537D01*
X139773158Y-77573642D01*
X139753766Y-77512829D01*
X139731123Y-77444076D01*
X139706253Y-77370362D01*
X139680180Y-77294665D01*
X139653927Y-77219962D01*
X139628516Y-77149231D01*
X139604973Y-77085452D01*
X139584320Y-77031601D01*
X139567579Y-76990658D01*
X139558020Y-76969839D01*
X139515254Y-76899441D01*
X139467306Y-76848177D01*
X139412954Y-76815724D01*
X139350976Y-76801761D01*
X139280149Y-76805964D01*
X139199251Y-76828011D01*
X139129558Y-76856837D01*
X139055904Y-76888630D01*
X138995650Y-76908083D01*
X138944804Y-76914920D01*
X138899373Y-76908864D01*
X138855366Y-76889639D01*
X138808790Y-76856968D01*
X138780028Y-76832636D01*
X138744831Y-76803298D01*
X138712598Y-76779474D01*
X138688506Y-76764879D01*
X138682170Y-76762421D01*
X138643556Y-76759755D01*
X138588851Y-76766002D01*
G37*
X138588851Y-76766002D02*
X138520669Y-76780169D01*
X138441624Y-76801261D01*
X138354331Y-76828286D01*
X138261403Y-76860249D01*
X138165454Y-76896157D01*
X138069100Y-76935016D01*
X137974953Y-76975834D01*
X137885629Y-77017616D01*
X137803741Y-77059368D01*
X137731903Y-77100097D01*
X137672730Y-77138811D01*
X137653183Y-77153515D01*
X137628957Y-77173508D01*
X137608131Y-77193473D01*
X137589892Y-77215529D01*
X137573427Y-77241796D01*
X137557922Y-77274393D01*
X137542565Y-77315440D01*
X137526541Y-77367057D01*
X137509038Y-77431362D01*
X137489242Y-77510475D01*
X137466339Y-77606516D01*
X137446153Y-77693005D01*
X137419808Y-77807497D01*
X137398400Y-77903595D01*
X137381694Y-77983433D01*
X137369453Y-78049144D01*
X137361444Y-78102859D01*
X137357432Y-78146711D01*
X137357181Y-78182833D01*
X137360456Y-78213357D01*
X137367023Y-78240416D01*
X137376647Y-78266142D01*
X137381751Y-78277508D01*
X137421435Y-78338439D01*
X137479383Y-78392444D01*
X137553410Y-78438068D01*
X137641335Y-78473860D01*
X137701735Y-78490445D01*
X137734611Y-78495580D01*
X137784219Y-78500330D01*
X137846124Y-78504542D01*
X137915893Y-78508059D01*
X137989092Y-78510728D01*
X138061287Y-78512395D01*
X138128044Y-78512904D01*
X138184929Y-78512101D01*
X138227508Y-78509833D01*
X138235267Y-78509034D01*
X138462440Y-78474476D01*
X138675880Y-78425866D01*
X138878348Y-78362419D01*
X139072605Y-78283347D01*
X139140142Y-78251356D01*
X139250214Y-78193715D01*
X139354851Y-78132045D01*
X139452419Y-78067762D01*
X139541284Y-78002280D01*
X139619811Y-77937014D01*
X139686368Y-77873378D01*
X139739319Y-77812788D01*
X139777031Y-77756657D01*
X139797870Y-77706401D01*
X139801600Y-77678663D01*
X139798099Y-77659537D01*
X139788277Y-77623537D01*
X139773158Y-77573642D01*
X139753766Y-77512829D01*
X139731123Y-77444076D01*
X139706253Y-77370362D01*
X139680180Y-77294665D01*
X139653927Y-77219962D01*
X139628516Y-77149231D01*
X139604973Y-77085452D01*
X139584320Y-77031601D01*
X139567579Y-76990658D01*
X139558020Y-76969839D01*
X139515254Y-76899441D01*
X139467306Y-76848177D01*
X139412954Y-76815724D01*
X139350976Y-76801761D01*
X139280149Y-76805964D01*
X139199251Y-76828011D01*
X139129558Y-76856837D01*
X139055904Y-76888630D01*
X138995650Y-76908083D01*
X138944804Y-76914920D01*
X138899373Y-76908864D01*
X138855366Y-76889639D01*
X138808790Y-76856968D01*
X138780028Y-76832636D01*
X138744831Y-76803298D01*
X138712598Y-76779474D01*
X138688506Y-76764879D01*
X138682170Y-76762421D01*
X138643556Y-76759755D01*
X138588851Y-76766002D01*
G36*
X129990850Y-77510217D02*
G01*
X129990850Y-79076550D01*
X130371850Y-79076550D01*
X130371850Y-78462717D01*
X131006526Y-78462717D01*
X131009334Y-78766987D01*
X131012142Y-79071258D01*
X131205288Y-79074143D01*
X131398433Y-79077027D01*
X131398433Y-77510217D01*
X131006850Y-77510217D01*
X131006850Y-78113781D01*
X130377142Y-78108175D01*
X130374331Y-77809196D01*
X130371521Y-77510216D01*
X130181185Y-77510216D01*
X129990850Y-77510217D01*
G37*
X129990850Y-77510217D02*
X129990850Y-79076550D01*
X130371850Y-79076550D01*
X130371850Y-78462717D01*
X131006526Y-78462717D01*
X131009334Y-78766987D01*
X131012142Y-79071258D01*
X131205288Y-79074143D01*
X131398433Y-79077027D01*
X131398433Y-77510217D01*
X131006850Y-77510217D01*
X131006850Y-78113781D01*
X130377142Y-78108175D01*
X130374331Y-77809196D01*
X130371521Y-77510216D01*
X130181185Y-77510216D01*
X129990850Y-77510217D01*
G36*
X135480954Y-77510400D02*
G01*
X135361016Y-77510589D01*
X135260024Y-77511201D01*
X135175759Y-77512472D01*
X135106000Y-77514636D01*
X135048530Y-77517928D01*
X135001126Y-77522584D01*
X134961571Y-77528836D01*
X134927645Y-77536922D01*
X134897128Y-77547075D01*
X134867800Y-77559530D01*
X134837442Y-77574521D01*
X134827944Y-77579474D01*
X134746311Y-77633502D01*
X134679484Y-77700404D01*
X134627982Y-77777503D01*
X134592323Y-77862118D01*
X134573023Y-77951570D01*
X134570601Y-78043178D01*
X134585574Y-78134264D01*
X134618460Y-78222148D01*
X134669776Y-78304150D01*
X134684462Y-78322155D01*
X134713498Y-78351083D01*
X134752310Y-78383362D01*
X134790898Y-78410920D01*
X134859115Y-78455037D01*
X134839309Y-78487981D01*
X134826880Y-78509461D01*
X134806968Y-78544833D01*
X134781065Y-78591370D01*
X134750663Y-78646345D01*
X134717251Y-78707032D01*
X134682323Y-78770703D01*
X134647367Y-78834634D01*
X134613877Y-78896096D01*
X134583342Y-78952364D01*
X134557254Y-79000710D01*
X134537104Y-79038408D01*
X134524382Y-79062732D01*
X134520517Y-79070920D01*
X134530575Y-79072621D01*
X134558653Y-79074115D01*
X134601603Y-79075320D01*
X134656277Y-79076155D01*
X134719529Y-79076535D01*
X134735021Y-79076550D01*
X134949526Y-79076550D01*
X135097500Y-78790867D01*
X135245475Y-78505185D01*
X135390996Y-78505117D01*
X135536517Y-78505050D01*
X135536517Y-79076550D01*
X135917517Y-79076550D01*
X135917517Y-78189035D01*
X135537048Y-78189035D01*
X135304696Y-78185647D01*
X135228209Y-78184410D01*
X135169927Y-78183033D01*
X135126888Y-78181228D01*
X135096129Y-78178706D01*
X135074690Y-78175178D01*
X135059608Y-78170357D01*
X135047922Y-78163954D01*
X135042493Y-78160118D01*
X134997247Y-78115677D01*
X134971660Y-78063736D01*
X134965056Y-78014006D01*
X134973296Y-77955706D01*
X134998636Y-77909428D01*
X135042148Y-77873367D01*
X135051914Y-77867863D01*
X135068340Y-77859677D01*
X135084829Y-77853575D01*
X135104688Y-77849253D01*
X135131226Y-77846404D01*
X135167750Y-77844722D01*
X135217567Y-77843903D01*
X135283986Y-77843641D01*
X135314267Y-77843624D01*
X135531225Y-77843592D01*
X135534137Y-78016313D01*
X135537048Y-78189035D01*
X135917517Y-78189035D01*
X135917517Y-77510217D01*
X135480954Y-77510400D01*
G37*
X135480954Y-77510400D02*
X135361016Y-77510589D01*
X135260024Y-77511201D01*
X135175759Y-77512472D01*
X135106000Y-77514636D01*
X135048530Y-77517928D01*
X135001126Y-77522584D01*
X134961571Y-77528836D01*
X134927645Y-77536922D01*
X134897128Y-77547075D01*
X134867800Y-77559530D01*
X134837442Y-77574521D01*
X134827944Y-77579474D01*
X134746311Y-77633502D01*
X134679484Y-77700404D01*
X134627982Y-77777503D01*
X134592323Y-77862118D01*
X134573023Y-77951570D01*
X134570601Y-78043178D01*
X134585574Y-78134264D01*
X134618460Y-78222148D01*
X134669776Y-78304150D01*
X134684462Y-78322155D01*
X134713498Y-78351083D01*
X134752310Y-78383362D01*
X134790898Y-78410920D01*
X134859115Y-78455037D01*
X134839309Y-78487981D01*
X134826880Y-78509461D01*
X134806968Y-78544833D01*
X134781065Y-78591370D01*
X134750663Y-78646345D01*
X134717251Y-78707032D01*
X134682323Y-78770703D01*
X134647367Y-78834634D01*
X134613877Y-78896096D01*
X134583342Y-78952364D01*
X134557254Y-79000710D01*
X134537104Y-79038408D01*
X134524382Y-79062732D01*
X134520517Y-79070920D01*
X134530575Y-79072621D01*
X134558653Y-79074115D01*
X134601603Y-79075320D01*
X134656277Y-79076155D01*
X134719529Y-79076535D01*
X134735021Y-79076550D01*
X134949526Y-79076550D01*
X135097500Y-78790867D01*
X135245475Y-78505185D01*
X135390996Y-78505117D01*
X135536517Y-78505050D01*
X135536517Y-79076550D01*
X135917517Y-79076550D01*
X135917517Y-78189035D01*
X135537048Y-78189035D01*
X135304696Y-78185647D01*
X135228209Y-78184410D01*
X135169927Y-78183033D01*
X135126888Y-78181228D01*
X135096129Y-78178706D01*
X135074690Y-78175178D01*
X135059608Y-78170357D01*
X135047922Y-78163954D01*
X135042493Y-78160118D01*
X134997247Y-78115677D01*
X134971660Y-78063736D01*
X134965056Y-78014006D01*
X134973296Y-77955706D01*
X134998636Y-77909428D01*
X135042148Y-77873367D01*
X135051914Y-77867863D01*
X135068340Y-77859677D01*
X135084829Y-77853575D01*
X135104688Y-77849253D01*
X135131226Y-77846404D01*
X135167750Y-77844722D01*
X135217567Y-77843903D01*
X135283986Y-77843641D01*
X135314267Y-77843624D01*
X135531225Y-77843592D01*
X135534137Y-78016313D01*
X135537048Y-78189035D01*
X135917517Y-78189035D01*
X135917517Y-77510217D01*
X135480954Y-77510400D01*
G36*
X128064683Y-77891217D02*
G01*
X127736600Y-77891217D01*
X127736600Y-78198133D01*
X128064683Y-78198133D01*
X128064683Y-78446344D01*
X128064118Y-78541553D01*
X128062437Y-78617346D01*
X128059659Y-78673254D01*
X128055806Y-78708805D01*
X128052634Y-78721000D01*
X128029002Y-78751262D01*
X127990188Y-78770146D01*
X127935001Y-78778038D01*
X127880267Y-78776845D01*
X127836739Y-78773076D01*
X127798940Y-78768648D01*
X127773871Y-78764405D01*
X127770996Y-78763651D01*
X127747183Y-78756581D01*
X127747183Y-79053629D01*
X127802746Y-79066464D01*
X127851479Y-79074642D01*
X127911913Y-79080229D01*
X127978080Y-79083146D01*
X128044016Y-79083311D01*
X128103754Y-79080645D01*
X128151328Y-79075066D01*
X128167864Y-79071393D01*
X128238123Y-79046859D01*
X128293700Y-79015480D01*
X128340837Y-78973586D01*
X128348350Y-78965280D01*
X128369611Y-78940226D01*
X128386745Y-78916680D01*
X128400232Y-78892019D01*
X128410557Y-78863622D01*
X128418202Y-78828867D01*
X128423650Y-78785130D01*
X128427383Y-78729790D01*
X128429885Y-78660224D01*
X128431638Y-78573810D01*
X128432600Y-78507696D01*
X128436777Y-78198133D01*
X128667933Y-78198133D01*
X128667933Y-77891217D01*
X128435100Y-77891217D01*
X128435100Y-77588012D01*
X128273704Y-77553655D01*
X128216184Y-77541372D01*
X128164498Y-77530263D01*
X128122880Y-77521243D01*
X128095568Y-77515229D01*
X128088496Y-77513610D01*
X128064683Y-77507922D01*
X128064683Y-77891217D01*
G37*
X128064683Y-77891217D02*
X127736600Y-77891217D01*
X127736600Y-78198133D01*
X128064683Y-78198133D01*
X128064683Y-78446344D01*
X128064118Y-78541553D01*
X128062437Y-78617346D01*
X128059659Y-78673254D01*
X128055806Y-78708805D01*
X128052634Y-78721000D01*
X128029002Y-78751262D01*
X127990188Y-78770146D01*
X127935001Y-78778038D01*
X127880267Y-78776845D01*
X127836739Y-78773076D01*
X127798940Y-78768648D01*
X127773871Y-78764405D01*
X127770996Y-78763651D01*
X127747183Y-78756581D01*
X127747183Y-79053629D01*
X127802746Y-79066464D01*
X127851479Y-79074642D01*
X127911913Y-79080229D01*
X127978080Y-79083146D01*
X128044016Y-79083311D01*
X128103754Y-79080645D01*
X128151328Y-79075066D01*
X128167864Y-79071393D01*
X128238123Y-79046859D01*
X128293700Y-79015480D01*
X128340837Y-78973586D01*
X128348350Y-78965280D01*
X128369611Y-78940226D01*
X128386745Y-78916680D01*
X128400232Y-78892019D01*
X128410557Y-78863622D01*
X128418202Y-78828867D01*
X128423650Y-78785130D01*
X128427383Y-78729790D01*
X128429885Y-78660224D01*
X128431638Y-78573810D01*
X128432600Y-78507696D01*
X128436777Y-78198133D01*
X128667933Y-78198133D01*
X128667933Y-77891217D01*
X128435100Y-77891217D01*
X128435100Y-77588012D01*
X128273704Y-77553655D01*
X128216184Y-77541372D01*
X128164498Y-77530263D01*
X128122880Y-77521243D01*
X128095568Y-77515229D01*
X128088496Y-77513610D01*
X128064683Y-77507922D01*
X128064683Y-77891217D01*
G36*
X131946331Y-77446590D02*
G01*
X131944577Y-77477459D01*
X131943015Y-77527985D01*
X131941654Y-77597413D01*
X131940504Y-77684990D01*
X131939575Y-77789960D01*
X131938874Y-77911569D01*
X131938412Y-78049064D01*
X131938198Y-78201688D01*
X131938183Y-78256342D01*
X131938183Y-79076550D01*
X132298017Y-79076550D01*
X132298017Y-78993919D01*
X132353876Y-79024174D01*
X132436558Y-79058608D01*
X132529576Y-79079890D01*
X132626085Y-79087233D01*
X132719242Y-79079852D01*
X132760575Y-79070897D01*
X132822811Y-79051778D01*
X132875154Y-79029299D01*
X132927957Y-78998691D01*
X132952253Y-78982611D01*
X133038051Y-78912143D01*
X133107115Y-78829176D01*
X133158798Y-78734972D01*
X133192451Y-78630790D01*
X133207426Y-78517892D01*
X133208183Y-78484992D01*
X133207654Y-78477029D01*
X132849673Y-78477029D01*
X132840280Y-78555243D01*
X132813611Y-78623894D01*
X132771934Y-78681553D01*
X132717517Y-78726789D01*
X132652625Y-78758172D01*
X132579526Y-78774271D01*
X132500487Y-78773655D01*
X132417775Y-78754896D01*
X132412281Y-78752999D01*
X132374546Y-78736100D01*
X132338405Y-78714522D01*
X132333139Y-78710679D01*
X132298017Y-78683889D01*
X132298017Y-78272517D01*
X132337704Y-78246669D01*
X132414625Y-78208753D01*
X132498803Y-78190604D01*
X132565690Y-78189805D01*
X132647477Y-78204118D01*
X132717612Y-78234601D01*
X132774492Y-78279634D01*
X132816513Y-78337593D01*
X132842071Y-78406858D01*
X132849673Y-78477029D01*
X133207654Y-78477029D01*
X133200831Y-78374359D01*
X133177955Y-78276248D01*
X133138329Y-78187571D01*
X133080723Y-78105238D01*
X133039133Y-78059722D01*
X132955842Y-77987234D01*
X132868052Y-77934271D01*
X132772474Y-77899226D01*
X132674115Y-77881350D01*
X132567811Y-77878114D01*
X132462026Y-77892332D01*
X132352531Y-77924683D01*
X132316538Y-77938761D01*
X132310312Y-77940072D01*
X132305659Y-77936447D01*
X132302350Y-77925318D01*
X132300159Y-77904115D01*
X132298859Y-77870270D01*
X132298223Y-77821212D01*
X132298025Y-77754372D01*
X132298017Y-77729020D01*
X132297881Y-77655559D01*
X132297321Y-77600536D01*
X132296110Y-77561224D01*
X132294022Y-77534895D01*
X132290831Y-77518824D01*
X132286308Y-77510281D01*
X132280227Y-77506540D01*
X132279496Y-77506317D01*
X132260455Y-77501598D01*
X132226628Y-77493917D01*
X132182450Y-77484214D01*
X132132354Y-77473428D01*
X132080772Y-77462499D01*
X132032138Y-77452365D01*
X131990886Y-77443967D01*
X131961449Y-77438243D01*
X131948268Y-77436133D01*
X131946331Y-77446590D01*
G37*
X131946331Y-77446590D02*
X131944577Y-77477459D01*
X131943015Y-77527985D01*
X131941654Y-77597413D01*
X131940504Y-77684990D01*
X131939575Y-77789960D01*
X131938874Y-77911569D01*
X131938412Y-78049064D01*
X131938198Y-78201688D01*
X131938183Y-78256342D01*
X131938183Y-79076550D01*
X132298017Y-79076550D01*
X132298017Y-78993919D01*
X132353876Y-79024174D01*
X132436558Y-79058608D01*
X132529576Y-79079890D01*
X132626085Y-79087233D01*
X132719242Y-79079852D01*
X132760575Y-79070897D01*
X132822811Y-79051778D01*
X132875154Y-79029299D01*
X132927957Y-78998691D01*
X132952253Y-78982611D01*
X133038051Y-78912143D01*
X133107115Y-78829176D01*
X133158798Y-78734972D01*
X133192451Y-78630790D01*
X133207426Y-78517892D01*
X133208183Y-78484992D01*
X133207654Y-78477029D01*
X132849673Y-78477029D01*
X132840280Y-78555243D01*
X132813611Y-78623894D01*
X132771934Y-78681553D01*
X132717517Y-78726789D01*
X132652625Y-78758172D01*
X132579526Y-78774271D01*
X132500487Y-78773655D01*
X132417775Y-78754896D01*
X132412281Y-78752999D01*
X132374546Y-78736100D01*
X132338405Y-78714522D01*
X132333139Y-78710679D01*
X132298017Y-78683889D01*
X132298017Y-78272517D01*
X132337704Y-78246669D01*
X132414625Y-78208753D01*
X132498803Y-78190604D01*
X132565690Y-78189805D01*
X132647477Y-78204118D01*
X132717612Y-78234601D01*
X132774492Y-78279634D01*
X132816513Y-78337593D01*
X132842071Y-78406858D01*
X132849673Y-78477029D01*
X133207654Y-78477029D01*
X133200831Y-78374359D01*
X133177955Y-78276248D01*
X133138329Y-78187571D01*
X133080723Y-78105238D01*
X133039133Y-78059722D01*
X132955842Y-77987234D01*
X132868052Y-77934271D01*
X132772474Y-77899226D01*
X132674115Y-77881350D01*
X132567811Y-77878114D01*
X132462026Y-77892332D01*
X132352531Y-77924683D01*
X132316538Y-77938761D01*
X132310312Y-77940072D01*
X132305659Y-77936447D01*
X132302350Y-77925318D01*
X132300159Y-77904115D01*
X132298859Y-77870270D01*
X132298223Y-77821212D01*
X132298025Y-77754372D01*
X132298017Y-77729020D01*
X132297881Y-77655559D01*
X132297321Y-77600536D01*
X132296110Y-77561224D01*
X132294022Y-77534895D01*
X132290831Y-77518824D01*
X132286308Y-77510281D01*
X132280227Y-77506540D01*
X132279496Y-77506317D01*
X132260455Y-77501598D01*
X132226628Y-77493917D01*
X132182450Y-77484214D01*
X132132354Y-77473428D01*
X132080772Y-77462499D01*
X132032138Y-77452365D01*
X131990886Y-77443967D01*
X131961449Y-77438243D01*
X131948268Y-77436133D01*
X131946331Y-77446590D01*
G36*
X129225234Y-77876441D02*
G01*
X129174861Y-77877413D01*
X129136813Y-77879737D01*
X129106672Y-77883845D01*
X129080020Y-77890171D01*
X129052439Y-77899148D01*
X129049505Y-77900192D01*
X128959253Y-77941157D01*
X128886456Y-77993447D01*
X128830345Y-78057620D01*
X128828218Y-78060769D01*
X128811673Y-78086263D01*
X128797946Y-78110184D01*
X128786776Y-78134744D01*
X128777898Y-78162158D01*
X128771052Y-78194640D01*
X128765973Y-78234402D01*
X128762399Y-78283659D01*
X128760067Y-78344624D01*
X128758715Y-78419511D01*
X128758079Y-78510532D01*
X128757897Y-78619903D01*
X128757892Y-78653217D01*
X128757892Y-79071258D01*
X129117725Y-79071258D01*
X129121074Y-79042154D01*
X129126020Y-79019688D01*
X129136488Y-79015250D01*
X129156954Y-79027396D01*
X129159908Y-79029607D01*
X129197499Y-79049606D01*
X129250673Y-79066760D01*
X129313941Y-79080217D01*
X129381813Y-79089130D01*
X129448800Y-79092650D01*
X129509412Y-79089926D01*
X129530475Y-79086929D01*
X129626743Y-79061159D01*
X129708152Y-79021218D01*
X129774039Y-78967742D01*
X129823741Y-78901365D01*
X129856594Y-78822724D01*
X129868959Y-78762664D01*
X129869021Y-78726368D01*
X129546497Y-78726368D01*
X129536139Y-78762318D01*
X129509345Y-78794003D01*
X129466570Y-78817270D01*
X129408352Y-78829744D01*
X129339800Y-78831369D01*
X129268600Y-78822403D01*
X129218267Y-78808946D01*
X129149475Y-78785508D01*
X129146392Y-78710079D01*
X129145500Y-78669721D01*
X129147539Y-78645570D01*
X129153439Y-78632763D01*
X129162267Y-78627129D01*
X129185489Y-78622048D01*
X129224040Y-78617770D01*
X129272090Y-78614540D01*
X129323810Y-78612605D01*
X129373368Y-78612209D01*
X129414935Y-78613598D01*
X129435301Y-78615633D01*
X129484820Y-78630786D01*
X129520250Y-78656817D01*
X129541004Y-78689939D01*
X129546497Y-78726368D01*
X129869021Y-78726368D01*
X129869071Y-78697933D01*
X129855240Y-78628461D01*
X129829692Y-78563164D01*
X129811430Y-78532229D01*
X129762213Y-78478737D01*
X129696164Y-78435166D01*
X129615472Y-78402149D01*
X129522323Y-78380317D01*
X129418906Y-78370305D01*
X129307409Y-78372744D01*
X129271594Y-78376123D01*
X129222888Y-78381924D01*
X129181048Y-78387619D01*
X129151144Y-78392474D01*
X129139230Y-78395260D01*
X129128661Y-78390909D01*
X129122997Y-78371438D01*
X129122064Y-78342273D01*
X129125687Y-78308843D01*
X129133692Y-78276575D01*
X129143755Y-78254209D01*
X129166226Y-78224449D01*
X129193852Y-78203799D01*
X129230590Y-78190853D01*
X129280393Y-78184201D01*
X129345267Y-78182431D01*
X129396191Y-78183138D01*
X129436367Y-78185950D01*
X129473126Y-78192172D01*
X129513798Y-78203110D01*
X129565712Y-78220073D01*
X129575814Y-78223523D01*
X129622422Y-78239074D01*
X129661165Y-78251207D01*
X129688018Y-78258718D01*
X129698954Y-78260400D01*
X129698962Y-78260392D01*
X129704805Y-78249946D01*
X129718225Y-78224131D01*
X129737384Y-78186536D01*
X129760443Y-78140749D01*
X129767053Y-78127541D01*
X129831416Y-77998740D01*
X129754121Y-77966562D01*
X129707906Y-77948944D01*
X129650915Y-77929544D01*
X129592927Y-77911630D01*
X129571900Y-77905683D01*
X129529346Y-77894617D01*
X129492172Y-77886768D01*
X129455048Y-77881579D01*
X129412642Y-77878491D01*
X129359621Y-77876945D01*
X129292350Y-77876388D01*
X129225234Y-77876441D01*
G37*
X129225234Y-77876441D02*
X129174861Y-77877413D01*
X129136813Y-77879737D01*
X129106672Y-77883845D01*
X129080020Y-77890171D01*
X129052439Y-77899148D01*
X129049505Y-77900192D01*
X128959253Y-77941157D01*
X128886456Y-77993447D01*
X128830345Y-78057620D01*
X128828218Y-78060769D01*
X128811673Y-78086263D01*
X128797946Y-78110184D01*
X128786776Y-78134744D01*
X128777898Y-78162158D01*
X128771052Y-78194640D01*
X128765973Y-78234402D01*
X128762399Y-78283659D01*
X128760067Y-78344624D01*
X128758715Y-78419511D01*
X128758079Y-78510532D01*
X128757897Y-78619903D01*
X128757892Y-78653217D01*
X128757892Y-79071258D01*
X129117725Y-79071258D01*
X129121074Y-79042154D01*
X129126020Y-79019688D01*
X129136488Y-79015250D01*
X129156954Y-79027396D01*
X129159908Y-79029607D01*
X129197499Y-79049606D01*
X129250673Y-79066760D01*
X129313941Y-79080217D01*
X129381813Y-79089130D01*
X129448800Y-79092650D01*
X129509412Y-79089926D01*
X129530475Y-79086929D01*
X129626743Y-79061159D01*
X129708152Y-79021218D01*
X129774039Y-78967742D01*
X129823741Y-78901365D01*
X129856594Y-78822724D01*
X129868959Y-78762664D01*
X129869021Y-78726368D01*
X129546497Y-78726368D01*
X129536139Y-78762318D01*
X129509345Y-78794003D01*
X129466570Y-78817270D01*
X129408352Y-78829744D01*
X129339800Y-78831369D01*
X129268600Y-78822403D01*
X129218267Y-78808946D01*
X129149475Y-78785508D01*
X129146392Y-78710079D01*
X129145500Y-78669721D01*
X129147539Y-78645570D01*
X129153439Y-78632763D01*
X129162267Y-78627129D01*
X129185489Y-78622048D01*
X129224040Y-78617770D01*
X129272090Y-78614540D01*
X129323810Y-78612605D01*
X129373368Y-78612209D01*
X129414935Y-78613598D01*
X129435301Y-78615633D01*
X129484820Y-78630786D01*
X129520250Y-78656817D01*
X129541004Y-78689939D01*
X129546497Y-78726368D01*
X129869021Y-78726368D01*
X129869071Y-78697933D01*
X129855240Y-78628461D01*
X129829692Y-78563164D01*
X129811430Y-78532229D01*
X129762213Y-78478737D01*
X129696164Y-78435166D01*
X129615472Y-78402149D01*
X129522323Y-78380317D01*
X129418906Y-78370305D01*
X129307409Y-78372744D01*
X129271594Y-78376123D01*
X129222888Y-78381924D01*
X129181048Y-78387619D01*
X129151144Y-78392474D01*
X129139230Y-78395260D01*
X129128661Y-78390909D01*
X129122997Y-78371438D01*
X129122064Y-78342273D01*
X129125687Y-78308843D01*
X129133692Y-78276575D01*
X129143755Y-78254209D01*
X129166226Y-78224449D01*
X129193852Y-78203799D01*
X129230590Y-78190853D01*
X129280393Y-78184201D01*
X129345267Y-78182431D01*
X129396191Y-78183138D01*
X129436367Y-78185950D01*
X129473126Y-78192172D01*
X129513798Y-78203110D01*
X129565712Y-78220073D01*
X129575814Y-78223523D01*
X129622422Y-78239074D01*
X129661165Y-78251207D01*
X129688018Y-78258718D01*
X129698954Y-78260400D01*
X129698962Y-78260392D01*
X129704805Y-78249946D01*
X129718225Y-78224131D01*
X129737384Y-78186536D01*
X129760443Y-78140749D01*
X129767053Y-78127541D01*
X129831416Y-77998740D01*
X129754121Y-77966562D01*
X129707906Y-77948944D01*
X129650915Y-77929544D01*
X129592927Y-77911630D01*
X129571900Y-77905683D01*
X129529346Y-77894617D01*
X129492172Y-77886768D01*
X129455048Y-77881579D01*
X129412642Y-77878491D01*
X129359621Y-77876945D01*
X129292350Y-77876388D01*
X129225234Y-77876441D01*
G36*
X133859052Y-77874805D02*
G01*
X133751934Y-77895595D01*
X133652396Y-77934956D01*
X133562357Y-77991909D01*
X133483733Y-78065475D01*
X133418442Y-78154673D01*
X133416924Y-78157217D01*
X133380053Y-78227621D01*
X133354160Y-78298293D01*
X133337532Y-78375521D01*
X133328461Y-78465594D01*
X133327365Y-78486529D01*
X133321695Y-78610883D01*
X134161428Y-78610883D01*
X134149599Y-78632986D01*
X134116941Y-78678361D01*
X134071554Y-78721281D01*
X134021337Y-78754560D01*
X134009783Y-78760162D01*
X133941571Y-78780800D01*
X133866621Y-78787016D01*
X133792439Y-78778901D01*
X133726767Y-78756667D01*
X133692649Y-78739122D01*
X133664483Y-78723495D01*
X133651473Y-78715301D01*
X133642555Y-78712316D01*
X133629749Y-78715997D01*
X133610509Y-78728082D01*
X133582293Y-78750306D01*
X133542557Y-78784407D01*
X133516245Y-78807634D01*
X133398103Y-78912508D01*
X133438081Y-78946662D01*
X133481408Y-78977906D01*
X133537656Y-79010406D01*
X133599207Y-79040299D01*
X133658444Y-79063716D01*
X133684433Y-79071687D01*
X133745840Y-79083569D01*
X133819303Y-79090792D01*
X133896923Y-79093145D01*
X133970800Y-79090416D01*
X134033035Y-79082396D01*
X134038975Y-79081150D01*
X134142131Y-79049205D01*
X134238958Y-79001356D01*
X134325431Y-78940155D01*
X134397526Y-78868155D01*
X134419309Y-78839911D01*
X134476498Y-78743284D01*
X134514285Y-78643063D01*
X134533589Y-78541236D01*
X134535331Y-78439788D01*
X134520430Y-78340706D01*
X134515491Y-78325426D01*
X134159081Y-78325426D01*
X134152877Y-78334761D01*
X134134808Y-78340797D01*
X134102946Y-78344252D01*
X134055362Y-78345843D01*
X133990126Y-78346288D01*
X133921881Y-78346300D01*
X133683079Y-78346300D01*
X133707569Y-78302605D01*
X133750405Y-78245448D01*
X133803686Y-78204287D01*
X133863969Y-78179386D01*
X133927815Y-78171009D01*
X133991782Y-78179422D01*
X134052432Y-78204889D01*
X134106322Y-78247674D01*
X134125795Y-78270454D01*
X134143612Y-78293990D01*
X134155350Y-78312075D01*
X134159081Y-78325426D01*
X134515491Y-78325426D01*
X134489806Y-78245976D01*
X134444379Y-78157585D01*
X134385069Y-78077519D01*
X134312795Y-78007765D01*
X134228477Y-77950308D01*
X134133036Y-77907137D01*
X134027391Y-77880236D01*
X133971833Y-77873569D01*
X133859052Y-77874805D01*
G37*
X133859052Y-77874805D02*
X133751934Y-77895595D01*
X133652396Y-77934956D01*
X133562357Y-77991909D01*
X133483733Y-78065475D01*
X133418442Y-78154673D01*
X133416924Y-78157217D01*
X133380053Y-78227621D01*
X133354160Y-78298293D01*
X133337532Y-78375521D01*
X133328461Y-78465594D01*
X133327365Y-78486529D01*
X133321695Y-78610883D01*
X134161428Y-78610883D01*
X134149599Y-78632986D01*
X134116941Y-78678361D01*
X134071554Y-78721281D01*
X134021337Y-78754560D01*
X134009783Y-78760162D01*
X133941571Y-78780800D01*
X133866621Y-78787016D01*
X133792439Y-78778901D01*
X133726767Y-78756667D01*
X133692649Y-78739122D01*
X133664483Y-78723495D01*
X133651473Y-78715301D01*
X133642555Y-78712316D01*
X133629749Y-78715997D01*
X133610509Y-78728082D01*
X133582293Y-78750306D01*
X133542557Y-78784407D01*
X133516245Y-78807634D01*
X133398103Y-78912508D01*
X133438081Y-78946662D01*
X133481408Y-78977906D01*
X133537656Y-79010406D01*
X133599207Y-79040299D01*
X133658444Y-79063716D01*
X133684433Y-79071687D01*
X133745840Y-79083569D01*
X133819303Y-79090792D01*
X133896923Y-79093145D01*
X133970800Y-79090416D01*
X134033035Y-79082396D01*
X134038975Y-79081150D01*
X134142131Y-79049205D01*
X134238958Y-79001356D01*
X134325431Y-78940155D01*
X134397526Y-78868155D01*
X134419309Y-78839911D01*
X134476498Y-78743284D01*
X134514285Y-78643063D01*
X134533589Y-78541236D01*
X134535331Y-78439788D01*
X134520430Y-78340706D01*
X134515491Y-78325426D01*
X134159081Y-78325426D01*
X134152877Y-78334761D01*
X134134808Y-78340797D01*
X134102946Y-78344252D01*
X134055362Y-78345843D01*
X133990126Y-78346288D01*
X133921881Y-78346300D01*
X133683079Y-78346300D01*
X133707569Y-78302605D01*
X133750405Y-78245448D01*
X133803686Y-78204287D01*
X133863969Y-78179386D01*
X133927815Y-78171009D01*
X133991782Y-78179422D01*
X134052432Y-78204889D01*
X134106322Y-78247674D01*
X134125795Y-78270454D01*
X134143612Y-78293990D01*
X134155350Y-78312075D01*
X134159081Y-78325426D01*
X134515491Y-78325426D01*
X134489806Y-78245976D01*
X134444379Y-78157585D01*
X134385069Y-78077519D01*
X134312795Y-78007765D01*
X134228477Y-77950308D01*
X134133036Y-77907137D01*
X134027391Y-77880236D01*
X133971833Y-77873569D01*
X133859052Y-77874805D01*
G36*
X139881061Y-77830720D02*
G01*
X139876846Y-77835881D01*
X139878057Y-77844494D01*
X139880112Y-77851529D01*
X139897099Y-77930660D01*
X139899599Y-78004430D01*
X139886720Y-78075297D01*
X139857566Y-78145721D01*
X139811245Y-78218160D01*
X139746864Y-78295072D01*
X139702017Y-78341583D01*
X139587902Y-78442826D01*
X139455877Y-78537994D01*
X139308622Y-78625923D01*
X139148814Y-78705452D01*
X138979134Y-78775417D01*
X138802259Y-78834657D01*
X138620870Y-78882009D01*
X138437644Y-78916310D01*
X138351683Y-78927589D01*
X138179132Y-78942295D01*
X138022886Y-78945450D01*
X137881411Y-78936899D01*
X137753175Y-78916484D01*
X137636645Y-78884051D01*
X137542058Y-78845201D01*
X137452067Y-78793819D01*
X137381828Y-78735157D01*
X137330959Y-78668472D01*
X137299080Y-78593021D01*
X137285812Y-78508061D01*
X137290773Y-78412849D01*
X137298283Y-78369226D01*
X137305888Y-78328642D01*
X137310627Y-78296612D01*
X137311794Y-78278244D01*
X137311174Y-78275929D01*
X137299948Y-78277802D01*
X137275163Y-78287507D01*
X137241979Y-78303002D01*
X137238859Y-78304560D01*
X137116836Y-78373597D01*
X137005603Y-78452159D01*
X136906866Y-78538380D01*
X136822333Y-78630394D01*
X136753710Y-78726334D01*
X136702702Y-78824336D01*
X136671018Y-78922533D01*
X136670215Y-78926258D01*
X136659150Y-79027469D01*
X136666701Y-79132722D01*
X136691855Y-79238146D01*
X136733598Y-79339865D01*
X136790915Y-79434007D01*
X136809465Y-79458291D01*
X136884901Y-79536296D01*
X136978893Y-79605920D01*
X137090333Y-79666617D01*
X137218111Y-79717842D01*
X137361122Y-79759047D01*
X137462683Y-79780374D01*
X137509375Y-79787399D01*
X137564900Y-79792851D01*
X137632286Y-79796910D01*
X137714557Y-79799755D01*
X137814741Y-79801564D01*
X137822517Y-79801657D01*
X137896674Y-79802325D01*
X137965663Y-79802589D01*
X138026051Y-79802464D01*
X138074405Y-79801966D01*
X138107292Y-79801110D01*
X138118850Y-79800356D01*
X138253028Y-79783828D01*
X138370469Y-79767237D01*
X138475593Y-79749912D01*
X138568642Y-79732046D01*
X138771843Y-79685208D01*
X138971545Y-79629536D01*
X139166482Y-79565793D01*
X139355390Y-79494747D01*
X139537004Y-79417161D01*
X139710059Y-79333803D01*
X139873292Y-79245437D01*
X140025436Y-79152830D01*
X140165228Y-79056746D01*
X140291403Y-78957952D01*
X140402696Y-78857212D01*
X140497842Y-78755294D01*
X140575577Y-78652961D01*
X140634637Y-78550980D01*
X140671025Y-78459321D01*
X140685598Y-78389199D01*
X140689929Y-78313025D01*
X140684261Y-78238247D01*
X140668838Y-78172312D01*
X140661007Y-78152313D01*
X140619658Y-78080844D01*
X140563466Y-78019008D01*
X140491599Y-77966401D01*
X140403229Y-77922619D01*
X140297522Y-77887259D01*
X140173648Y-77859917D01*
X140030776Y-77840190D01*
X140014791Y-77838559D01*
X139957568Y-77832930D01*
X139918292Y-77829545D01*
X139893833Y-77828708D01*
X139881061Y-77830720D01*
G37*
X139881061Y-77830720D02*
X139876846Y-77835881D01*
X139878057Y-77844494D01*
X139880112Y-77851529D01*
X139897099Y-77930660D01*
X139899599Y-78004430D01*
X139886720Y-78075297D01*
X139857566Y-78145721D01*
X139811245Y-78218160D01*
X139746864Y-78295072D01*
X139702017Y-78341583D01*
X139587902Y-78442826D01*
X139455877Y-78537994D01*
X139308622Y-78625923D01*
X139148814Y-78705452D01*
X138979134Y-78775417D01*
X138802259Y-78834657D01*
X138620870Y-78882009D01*
X138437644Y-78916310D01*
X138351683Y-78927589D01*
X138179132Y-78942295D01*
X138022886Y-78945450D01*
X137881411Y-78936899D01*
X137753175Y-78916484D01*
X137636645Y-78884051D01*
X137542058Y-78845201D01*
X137452067Y-78793819D01*
X137381828Y-78735157D01*
X137330959Y-78668472D01*
X137299080Y-78593021D01*
X137285812Y-78508061D01*
X137290773Y-78412849D01*
X137298283Y-78369226D01*
X137305888Y-78328642D01*
X137310627Y-78296612D01*
X137311794Y-78278244D01*
X137311174Y-78275929D01*
X137299948Y-78277802D01*
X137275163Y-78287507D01*
X137241979Y-78303002D01*
X137238859Y-78304560D01*
X137116836Y-78373597D01*
X137005603Y-78452159D01*
X136906866Y-78538380D01*
X136822333Y-78630394D01*
X136753710Y-78726334D01*
X136702702Y-78824336D01*
X136671018Y-78922533D01*
X136670215Y-78926258D01*
X136659150Y-79027469D01*
X136666701Y-79132722D01*
X136691855Y-79238146D01*
X136733598Y-79339865D01*
X136790915Y-79434007D01*
X136809465Y-79458291D01*
X136884901Y-79536296D01*
X136978893Y-79605920D01*
X137090333Y-79666617D01*
X137218111Y-79717842D01*
X137361122Y-79759047D01*
X137462683Y-79780374D01*
X137509375Y-79787399D01*
X137564900Y-79792851D01*
X137632286Y-79796910D01*
X137714557Y-79799755D01*
X137814741Y-79801564D01*
X137822517Y-79801657D01*
X137896674Y-79802325D01*
X137965663Y-79802589D01*
X138026051Y-79802464D01*
X138074405Y-79801966D01*
X138107292Y-79801110D01*
X138118850Y-79800356D01*
X138253028Y-79783828D01*
X138370469Y-79767237D01*
X138475593Y-79749912D01*
X138568642Y-79732046D01*
X138771843Y-79685208D01*
X138971545Y-79629536D01*
X139166482Y-79565793D01*
X139355390Y-79494747D01*
X139537004Y-79417161D01*
X139710059Y-79333803D01*
X139873292Y-79245437D01*
X140025436Y-79152830D01*
X140165228Y-79056746D01*
X140291403Y-78957952D01*
X140402696Y-78857212D01*
X140497842Y-78755294D01*
X140575577Y-78652961D01*
X140634637Y-78550980D01*
X140671025Y-78459321D01*
X140685598Y-78389199D01*
X140689929Y-78313025D01*
X140684261Y-78238247D01*
X140668838Y-78172312D01*
X140661007Y-78152313D01*
X140619658Y-78080844D01*
X140563466Y-78019008D01*
X140491599Y-77966401D01*
X140403229Y-77922619D01*
X140297522Y-77887259D01*
X140173648Y-77859917D01*
X140030776Y-77840190D01*
X140014791Y-77838559D01*
X139957568Y-77832930D01*
X139918292Y-77829545D01*
X139893833Y-77828708D01*
X139881061Y-77830720D01*
D12*
%TO.C,BT1*%
X133596000Y-101430000D02*
X171336000Y-101430000D01*
X171336000Y-101430000D02*
X171336000Y-154300000D01*
X133596000Y-154300000D02*
X171336000Y-154300000D01*
X133596000Y-101430000D02*
X133596000Y-154300000D01*
X133216000Y-101050000D02*
X133216000Y-104050000D01*
X136216000Y-101050000D02*
X133216000Y-101050000D01*
D13*
X140980285Y-98497142D02*
X140980285Y-100782857D01*
X142123142Y-99640000D02*
X139837428Y-99640000D01*
%TD*%
M02*
