%TF.GenerationSoftware,KiCad,Pcbnew,5.1.12-1.fc35*%
%TF.CreationDate,2022-01-06T11:44:33+01:00*%
%TF.ProjectId,burrboard,62757272-626f-4617-9264-2e6b69636164,v1.0*%
%TF.SameCoordinates,Original*%
%TF.FileFunction,Soldermask,Top*%
%TF.FilePolarity,Negative*%
%FSLAX46Y46*%
G04 Gerber Fmt 4.6, Leading zero omitted, Abs format (unit mm)*
G04 Created by KiCad (PCBNEW 5.1.12-1.fc35) date 2022-01-06 11:44:33*
%MOMM*%
%LPD*%
G01*
G04 APERTURE LIST*
%ADD10C,2.001600*%
%ADD11C,3.101600*%
%ADD12C,3.551600*%
%ADD13O,1.801600X1.801600*%
G04 APERTURE END LIST*
%TO.C,Q1*%
G36*
G01*
X166274200Y-118510000D02*
X166274200Y-117710000D01*
G75*
G02*
X166325000Y-117659200I50800J0D01*
G01*
X167425000Y-117659200D01*
G75*
G02*
X167475800Y-117710000I0J-50800D01*
G01*
X167475800Y-118510000D01*
G75*
G02*
X167425000Y-118560800I-50800J0D01*
G01*
X166325000Y-118560800D01*
G75*
G02*
X166274200Y-118510000I0J50800D01*
G01*
G37*
G36*
G01*
X162724200Y-119060000D02*
X162724200Y-118260000D01*
G75*
G02*
X162775000Y-118209200I50800J0D01*
G01*
X163875000Y-118209200D01*
G75*
G02*
X163925800Y-118260000I0J-50800D01*
G01*
X163925800Y-119060000D01*
G75*
G02*
X163875000Y-119110800I-50800J0D01*
G01*
X162775000Y-119110800D01*
G75*
G02*
X162724200Y-119060000I0J50800D01*
G01*
G37*
G36*
G01*
X162724200Y-117960000D02*
X162724200Y-117160000D01*
G75*
G02*
X162775000Y-117109200I50800J0D01*
G01*
X163875000Y-117109200D01*
G75*
G02*
X163925800Y-117160000I0J-50800D01*
G01*
X163925800Y-117960000D01*
G75*
G02*
X163875000Y-118010800I-50800J0D01*
G01*
X162775000Y-118010800D01*
G75*
G02*
X162724200Y-117960000I0J50800D01*
G01*
G37*
%TD*%
%TO.C,S1*%
G36*
G01*
X134899200Y-140640000D02*
X134899200Y-139340000D01*
G75*
G02*
X134950000Y-139289200I50800J0D01*
G01*
X136500000Y-139289200D01*
G75*
G02*
X136550800Y-139340000I0J-50800D01*
G01*
X136550800Y-140640000D01*
G75*
G02*
X136500000Y-140690800I-50800J0D01*
G01*
X134950000Y-140690800D01*
G75*
G02*
X134899200Y-140640000I0J50800D01*
G01*
G37*
G36*
G01*
X142849200Y-140640000D02*
X142849200Y-139340000D01*
G75*
G02*
X142900000Y-139289200I50800J0D01*
G01*
X144450000Y-139289200D01*
G75*
G02*
X144500800Y-139340000I0J-50800D01*
G01*
X144500800Y-140640000D01*
G75*
G02*
X144450000Y-140690800I-50800J0D01*
G01*
X142900000Y-140690800D01*
G75*
G02*
X142849200Y-140640000I0J50800D01*
G01*
G37*
G36*
G01*
X134899200Y-145140000D02*
X134899200Y-143840000D01*
G75*
G02*
X134950000Y-143789200I50800J0D01*
G01*
X136500000Y-143789200D01*
G75*
G02*
X136550800Y-143840000I0J-50800D01*
G01*
X136550800Y-145140000D01*
G75*
G02*
X136500000Y-145190800I-50800J0D01*
G01*
X134950000Y-145190800D01*
G75*
G02*
X134899200Y-145140000I0J50800D01*
G01*
G37*
G36*
G01*
X142849200Y-145140000D02*
X142849200Y-143840000D01*
G75*
G02*
X142900000Y-143789200I50800J0D01*
G01*
X144450000Y-143789200D01*
G75*
G02*
X144500800Y-143840000I0J-50800D01*
G01*
X144500800Y-145140000D01*
G75*
G02*
X144450000Y-145190800I-50800J0D01*
G01*
X142900000Y-145190800D01*
G75*
G02*
X142849200Y-145140000I0J50800D01*
G01*
G37*
%TD*%
%TO.C,S2*%
G36*
G01*
X160299200Y-140640000D02*
X160299200Y-139340000D01*
G75*
G02*
X160350000Y-139289200I50800J0D01*
G01*
X161900000Y-139289200D01*
G75*
G02*
X161950800Y-139340000I0J-50800D01*
G01*
X161950800Y-140640000D01*
G75*
G02*
X161900000Y-140690800I-50800J0D01*
G01*
X160350000Y-140690800D01*
G75*
G02*
X160299200Y-140640000I0J50800D01*
G01*
G37*
G36*
G01*
X168249200Y-140640000D02*
X168249200Y-139340000D01*
G75*
G02*
X168300000Y-139289200I50800J0D01*
G01*
X169850000Y-139289200D01*
G75*
G02*
X169900800Y-139340000I0J-50800D01*
G01*
X169900800Y-140640000D01*
G75*
G02*
X169850000Y-140690800I-50800J0D01*
G01*
X168300000Y-140690800D01*
G75*
G02*
X168249200Y-140640000I0J50800D01*
G01*
G37*
G36*
G01*
X160299200Y-145140000D02*
X160299200Y-143840000D01*
G75*
G02*
X160350000Y-143789200I50800J0D01*
G01*
X161900000Y-143789200D01*
G75*
G02*
X161950800Y-143840000I0J-50800D01*
G01*
X161950800Y-145140000D01*
G75*
G02*
X161900000Y-145190800I-50800J0D01*
G01*
X160350000Y-145190800D01*
G75*
G02*
X160299200Y-145140000I0J50800D01*
G01*
G37*
G36*
G01*
X168249200Y-145140000D02*
X168249200Y-143840000D01*
G75*
G02*
X168300000Y-143789200I50800J0D01*
G01*
X169850000Y-143789200D01*
G75*
G02*
X169900800Y-143840000I0J-50800D01*
G01*
X169900800Y-145140000D01*
G75*
G02*
X169850000Y-145190800I-50800J0D01*
G01*
X168300000Y-145190800D01*
G75*
G02*
X168249200Y-145140000I0J50800D01*
G01*
G37*
%TD*%
%TO.C,SW1*%
G36*
G01*
X155686800Y-84140000D02*
X155686800Y-86040000D01*
G75*
G02*
X155636000Y-86090800I-50800J0D01*
G01*
X153736000Y-86090800D01*
G75*
G02*
X153685200Y-86040000I0J50800D01*
G01*
X153685200Y-84140000D01*
G75*
G02*
X153736000Y-84089200I50800J0D01*
G01*
X155636000Y-84089200D01*
G75*
G02*
X155686800Y-84140000I0J-50800D01*
G01*
G37*
D10*
X152186000Y-85090000D03*
X149686000Y-85090000D03*
%TD*%
%TO.C,U2*%
G36*
G01*
X154070000Y-120435800D02*
X152925000Y-120435800D01*
G75*
G02*
X152874200Y-120385000I0J50800D01*
G01*
X152874200Y-119835000D01*
G75*
G02*
X152925000Y-119784200I50800J0D01*
G01*
X154070000Y-119784200D01*
G75*
G02*
X154120800Y-119835000I0J-50800D01*
G01*
X154120800Y-120385000D01*
G75*
G02*
X154070000Y-120435800I-50800J0D01*
G01*
G37*
G36*
G01*
X154070000Y-119635800D02*
X152925000Y-119635800D01*
G75*
G02*
X152874200Y-119585000I0J50800D01*
G01*
X152874200Y-119035000D01*
G75*
G02*
X152925000Y-118984200I50800J0D01*
G01*
X154070000Y-118984200D01*
G75*
G02*
X154120800Y-119035000I0J-50800D01*
G01*
X154120800Y-119585000D01*
G75*
G02*
X154070000Y-119635800I-50800J0D01*
G01*
G37*
G36*
G01*
X154070000Y-118835800D02*
X152925000Y-118835800D01*
G75*
G02*
X152874200Y-118785000I0J50800D01*
G01*
X152874200Y-118235000D01*
G75*
G02*
X152925000Y-118184200I50800J0D01*
G01*
X154070000Y-118184200D01*
G75*
G02*
X154120800Y-118235000I0J-50800D01*
G01*
X154120800Y-118785000D01*
G75*
G02*
X154070000Y-118835800I-50800J0D01*
G01*
G37*
G36*
G01*
X154070000Y-118035800D02*
X152925000Y-118035800D01*
G75*
G02*
X152874200Y-117985000I0J50800D01*
G01*
X152874200Y-117435000D01*
G75*
G02*
X152925000Y-117384200I50800J0D01*
G01*
X154070000Y-117384200D01*
G75*
G02*
X154120800Y-117435000I0J-50800D01*
G01*
X154120800Y-117985000D01*
G75*
G02*
X154070000Y-118035800I-50800J0D01*
G01*
G37*
G36*
G01*
X154070000Y-117235800D02*
X152925000Y-117235800D01*
G75*
G02*
X152874200Y-117185000I0J50800D01*
G01*
X152874200Y-116635000D01*
G75*
G02*
X152925000Y-116584200I50800J0D01*
G01*
X154070000Y-116584200D01*
G75*
G02*
X154120800Y-116635000I0J-50800D01*
G01*
X154120800Y-117185000D01*
G75*
G02*
X154070000Y-117235800I-50800J0D01*
G01*
G37*
G36*
G01*
X154070000Y-116435800D02*
X152925000Y-116435800D01*
G75*
G02*
X152874200Y-116385000I0J50800D01*
G01*
X152874200Y-115835000D01*
G75*
G02*
X152925000Y-115784200I50800J0D01*
G01*
X154070000Y-115784200D01*
G75*
G02*
X154120800Y-115835000I0J-50800D01*
G01*
X154120800Y-116385000D01*
G75*
G02*
X154070000Y-116435800I-50800J0D01*
G01*
G37*
G36*
G01*
X151875000Y-116435800D02*
X150730000Y-116435800D01*
G75*
G02*
X150679200Y-116385000I0J50800D01*
G01*
X150679200Y-115835000D01*
G75*
G02*
X150730000Y-115784200I50800J0D01*
G01*
X151875000Y-115784200D01*
G75*
G02*
X151925800Y-115835000I0J-50800D01*
G01*
X151925800Y-116385000D01*
G75*
G02*
X151875000Y-116435800I-50800J0D01*
G01*
G37*
G36*
G01*
X151875000Y-117235800D02*
X150730000Y-117235800D01*
G75*
G02*
X150679200Y-117185000I0J50800D01*
G01*
X150679200Y-116635000D01*
G75*
G02*
X150730000Y-116584200I50800J0D01*
G01*
X151875000Y-116584200D01*
G75*
G02*
X151925800Y-116635000I0J-50800D01*
G01*
X151925800Y-117185000D01*
G75*
G02*
X151875000Y-117235800I-50800J0D01*
G01*
G37*
G36*
G01*
X151875000Y-118035800D02*
X150730000Y-118035800D01*
G75*
G02*
X150679200Y-117985000I0J50800D01*
G01*
X150679200Y-117435000D01*
G75*
G02*
X150730000Y-117384200I50800J0D01*
G01*
X151875000Y-117384200D01*
G75*
G02*
X151925800Y-117435000I0J-50800D01*
G01*
X151925800Y-117985000D01*
G75*
G02*
X151875000Y-118035800I-50800J0D01*
G01*
G37*
G36*
G01*
X151875000Y-118835800D02*
X150730000Y-118835800D01*
G75*
G02*
X150679200Y-118785000I0J50800D01*
G01*
X150679200Y-118235000D01*
G75*
G02*
X150730000Y-118184200I50800J0D01*
G01*
X151875000Y-118184200D01*
G75*
G02*
X151925800Y-118235000I0J-50800D01*
G01*
X151925800Y-118785000D01*
G75*
G02*
X151875000Y-118835800I-50800J0D01*
G01*
G37*
G36*
G01*
X151875000Y-119635800D02*
X150730000Y-119635800D01*
G75*
G02*
X150679200Y-119585000I0J50800D01*
G01*
X150679200Y-119035000D01*
G75*
G02*
X150730000Y-118984200I50800J0D01*
G01*
X151875000Y-118984200D01*
G75*
G02*
X151925800Y-119035000I0J-50800D01*
G01*
X151925800Y-119585000D01*
G75*
G02*
X151875000Y-119635800I-50800J0D01*
G01*
G37*
G36*
G01*
X151875000Y-120435800D02*
X150730000Y-120435800D01*
G75*
G02*
X150679200Y-120385000I0J50800D01*
G01*
X150679200Y-119835000D01*
G75*
G02*
X150730000Y-119784200I50800J0D01*
G01*
X151875000Y-119784200D01*
G75*
G02*
X151925800Y-119835000I0J-50800D01*
G01*
X151925800Y-120385000D01*
G75*
G02*
X151875000Y-120435800I-50800J0D01*
G01*
G37*
G36*
G01*
X152675000Y-120830800D02*
X152125000Y-120830800D01*
G75*
G02*
X152074200Y-120780000I0J50800D01*
G01*
X152074200Y-119635000D01*
G75*
G02*
X152125000Y-119584200I50800J0D01*
G01*
X152675000Y-119584200D01*
G75*
G02*
X152725800Y-119635000I0J-50800D01*
G01*
X152725800Y-120780000D01*
G75*
G02*
X152675000Y-120830800I-50800J0D01*
G01*
G37*
G36*
G01*
X152675000Y-116635800D02*
X152125000Y-116635800D01*
G75*
G02*
X152074200Y-116585000I0J50800D01*
G01*
X152074200Y-115440000D01*
G75*
G02*
X152125000Y-115389200I50800J0D01*
G01*
X152675000Y-115389200D01*
G75*
G02*
X152725800Y-115440000I0J-50800D01*
G01*
X152725800Y-116585000D01*
G75*
G02*
X152675000Y-116635800I-50800J0D01*
G01*
G37*
%TD*%
%TO.C,BT1*%
G36*
G01*
X139216000Y-102589200D02*
X142216000Y-102589200D01*
G75*
G02*
X142266800Y-102640000I0J-50800D01*
G01*
X142266800Y-105640000D01*
G75*
G02*
X142216000Y-105690800I-50800J0D01*
G01*
X139216000Y-105690800D01*
G75*
G02*
X139165200Y-105640000I0J50800D01*
G01*
X139165200Y-102640000D01*
G75*
G02*
X139216000Y-102589200I50800J0D01*
G01*
G37*
D11*
X153416000Y-104140000D03*
D12*
X140716000Y-127860000D03*
X164216000Y-127860000D03*
%TD*%
%TO.C,U1*%
G36*
G01*
X137970400Y-121610800D02*
X137619600Y-121610800D01*
G75*
G02*
X137444200Y-121435400I0J175400D01*
G01*
X137444200Y-119734600D01*
G75*
G02*
X137619600Y-119559200I175400J0D01*
G01*
X137970400Y-119559200D01*
G75*
G02*
X138145800Y-119734600I0J-175400D01*
G01*
X138145800Y-121435400D01*
G75*
G02*
X137970400Y-121610800I-175400J0D01*
G01*
G37*
G36*
G01*
X139240400Y-121610800D02*
X138889600Y-121610800D01*
G75*
G02*
X138714200Y-121435400I0J175400D01*
G01*
X138714200Y-119734600D01*
G75*
G02*
X138889600Y-119559200I175400J0D01*
G01*
X139240400Y-119559200D01*
G75*
G02*
X139415800Y-119734600I0J-175400D01*
G01*
X139415800Y-121435400D01*
G75*
G02*
X139240400Y-121610800I-175400J0D01*
G01*
G37*
G36*
G01*
X140510400Y-121610800D02*
X140159600Y-121610800D01*
G75*
G02*
X139984200Y-121435400I0J175400D01*
G01*
X139984200Y-119734600D01*
G75*
G02*
X140159600Y-119559200I175400J0D01*
G01*
X140510400Y-119559200D01*
G75*
G02*
X140685800Y-119734600I0J-175400D01*
G01*
X140685800Y-121435400D01*
G75*
G02*
X140510400Y-121610800I-175400J0D01*
G01*
G37*
G36*
G01*
X141780400Y-121610800D02*
X141429600Y-121610800D01*
G75*
G02*
X141254200Y-121435400I0J175400D01*
G01*
X141254200Y-119734600D01*
G75*
G02*
X141429600Y-119559200I175400J0D01*
G01*
X141780400Y-119559200D01*
G75*
G02*
X141955800Y-119734600I0J-175400D01*
G01*
X141955800Y-121435400D01*
G75*
G02*
X141780400Y-121610800I-175400J0D01*
G01*
G37*
G36*
G01*
X141780400Y-116660800D02*
X141429600Y-116660800D01*
G75*
G02*
X141254200Y-116485400I0J175400D01*
G01*
X141254200Y-114784600D01*
G75*
G02*
X141429600Y-114609200I175400J0D01*
G01*
X141780400Y-114609200D01*
G75*
G02*
X141955800Y-114784600I0J-175400D01*
G01*
X141955800Y-116485400D01*
G75*
G02*
X141780400Y-116660800I-175400J0D01*
G01*
G37*
G36*
G01*
X140510400Y-116660800D02*
X140159600Y-116660800D01*
G75*
G02*
X139984200Y-116485400I0J175400D01*
G01*
X139984200Y-114784600D01*
G75*
G02*
X140159600Y-114609200I175400J0D01*
G01*
X140510400Y-114609200D01*
G75*
G02*
X140685800Y-114784600I0J-175400D01*
G01*
X140685800Y-116485400D01*
G75*
G02*
X140510400Y-116660800I-175400J0D01*
G01*
G37*
G36*
G01*
X139240400Y-116660800D02*
X138889600Y-116660800D01*
G75*
G02*
X138714200Y-116485400I0J175400D01*
G01*
X138714200Y-114784600D01*
G75*
G02*
X138889600Y-114609200I175400J0D01*
G01*
X139240400Y-114609200D01*
G75*
G02*
X139415800Y-114784600I0J-175400D01*
G01*
X139415800Y-116485400D01*
G75*
G02*
X139240400Y-116660800I-175400J0D01*
G01*
G37*
G36*
G01*
X137970400Y-116660800D02*
X137619600Y-116660800D01*
G75*
G02*
X137444200Y-116485400I0J175400D01*
G01*
X137444200Y-114784600D01*
G75*
G02*
X137619600Y-114609200I175400J0D01*
G01*
X137970400Y-114609200D01*
G75*
G02*
X138145800Y-114784600I0J-175400D01*
G01*
X138145800Y-116485400D01*
G75*
G02*
X137970400Y-116660800I-175400J0D01*
G01*
G37*
%TD*%
%TO.C,J1*%
G36*
G01*
X170600000Y-98159200D02*
X172300000Y-98159200D01*
G75*
G02*
X172350800Y-98210000I0J-50800D01*
G01*
X172350800Y-99910000D01*
G75*
G02*
X172300000Y-99960800I-50800J0D01*
G01*
X170600000Y-99960800D01*
G75*
G02*
X170549200Y-99910000I0J50800D01*
G01*
X170549200Y-98210000D01*
G75*
G02*
X170600000Y-98159200I50800J0D01*
G01*
G37*
D13*
X168910000Y-99060000D03*
X166370000Y-99060000D03*
X163830000Y-99060000D03*
X161290000Y-99060000D03*
X158750000Y-99060000D03*
X156210000Y-99060000D03*
X153670000Y-99060000D03*
X151130000Y-99060000D03*
X148590000Y-99060000D03*
X146050000Y-99060000D03*
X143510000Y-99060000D03*
X140970000Y-99060000D03*
X138430000Y-99060000D03*
X135890000Y-99060000D03*
X133350000Y-99060000D03*
%TD*%
%TO.C,J2*%
G36*
G01*
X170600000Y-77839200D02*
X172300000Y-77839200D01*
G75*
G02*
X172350800Y-77890000I0J-50800D01*
G01*
X172350800Y-79590000D01*
G75*
G02*
X172300000Y-79640800I-50800J0D01*
G01*
X170600000Y-79640800D01*
G75*
G02*
X170549200Y-79590000I0J50800D01*
G01*
X170549200Y-77890000D01*
G75*
G02*
X170600000Y-77839200I50800J0D01*
G01*
G37*
X168910000Y-78740000D03*
X166370000Y-78740000D03*
X163830000Y-78740000D03*
X161290000Y-78740000D03*
X158750000Y-78740000D03*
X156210000Y-78740000D03*
X153670000Y-78740000D03*
X151130000Y-78740000D03*
X148590000Y-78740000D03*
X146050000Y-78740000D03*
X143510000Y-78740000D03*
%TD*%
%TO.C,C1*%
G36*
G01*
X134877817Y-116434200D02*
X135886183Y-116434200D01*
G75*
G02*
X136157800Y-116705817I0J-271617D01*
G01*
X136157800Y-117439183D01*
G75*
G02*
X135886183Y-117710800I-271617J0D01*
G01*
X134877817Y-117710800D01*
G75*
G02*
X134606200Y-117439183I0J271617D01*
G01*
X134606200Y-116705817D01*
G75*
G02*
X134877817Y-116434200I271617J0D01*
G01*
G37*
G36*
G01*
X134877817Y-118509200D02*
X135886183Y-118509200D01*
G75*
G02*
X136157800Y-118780817I0J-271617D01*
G01*
X136157800Y-119514183D01*
G75*
G02*
X135886183Y-119785800I-271617J0D01*
G01*
X134877817Y-119785800D01*
G75*
G02*
X134606200Y-119514183I0J271617D01*
G01*
X134606200Y-118780817D01*
G75*
G02*
X134877817Y-118509200I271617J0D01*
G01*
G37*
%TD*%
%TO.C,C2*%
G36*
G01*
X157625200Y-121154183D02*
X157625200Y-120145817D01*
G75*
G02*
X157896817Y-119874200I271617J0D01*
G01*
X158630183Y-119874200D01*
G75*
G02*
X158901800Y-120145817I0J-271617D01*
G01*
X158901800Y-121154183D01*
G75*
G02*
X158630183Y-121425800I-271617J0D01*
G01*
X157896817Y-121425800D01*
G75*
G02*
X157625200Y-121154183I0J271617D01*
G01*
G37*
G36*
G01*
X155550200Y-121154183D02*
X155550200Y-120145817D01*
G75*
G02*
X155821817Y-119874200I271617J0D01*
G01*
X156555183Y-119874200D01*
G75*
G02*
X156826800Y-120145817I0J-271617D01*
G01*
X156826800Y-121154183D01*
G75*
G02*
X156555183Y-121425800I-271617J0D01*
G01*
X155821817Y-121425800D01*
G75*
G02*
X155550200Y-121154183I0J271617D01*
G01*
G37*
%TD*%
%TO.C,C3*%
G36*
G01*
X157625200Y-116836183D02*
X157625200Y-115827817D01*
G75*
G02*
X157896817Y-115556200I271617J0D01*
G01*
X158630183Y-115556200D01*
G75*
G02*
X158901800Y-115827817I0J-271617D01*
G01*
X158901800Y-116836183D01*
G75*
G02*
X158630183Y-117107800I-271617J0D01*
G01*
X157896817Y-117107800D01*
G75*
G02*
X157625200Y-116836183I0J271617D01*
G01*
G37*
G36*
G01*
X155550200Y-116836183D02*
X155550200Y-115827817D01*
G75*
G02*
X155821817Y-115556200I271617J0D01*
G01*
X156555183Y-115556200D01*
G75*
G02*
X156826800Y-115827817I0J-271617D01*
G01*
X156826800Y-116836183D01*
G75*
G02*
X156555183Y-117107800I-271617J0D01*
G01*
X155821817Y-117107800D01*
G75*
G02*
X155550200Y-116836183I0J271617D01*
G01*
G37*
%TD*%
%TO.C,C4*%
G36*
G01*
X155550200Y-118995183D02*
X155550200Y-117986817D01*
G75*
G02*
X155821817Y-117715200I271617J0D01*
G01*
X156555183Y-117715200D01*
G75*
G02*
X156826800Y-117986817I0J-271617D01*
G01*
X156826800Y-118995183D01*
G75*
G02*
X156555183Y-119266800I-271617J0D01*
G01*
X155821817Y-119266800D01*
G75*
G02*
X155550200Y-118995183I0J271617D01*
G01*
G37*
G36*
G01*
X157625200Y-118995183D02*
X157625200Y-117986817D01*
G75*
G02*
X157896817Y-117715200I271617J0D01*
G01*
X158630183Y-117715200D01*
G75*
G02*
X158901800Y-117986817I0J-271617D01*
G01*
X158901800Y-118995183D01*
G75*
G02*
X158630183Y-119266800I-271617J0D01*
G01*
X157896817Y-119266800D01*
G75*
G02*
X157625200Y-118995183I0J271617D01*
G01*
G37*
%TD*%
%TO.C,R1*%
G36*
G01*
X163386200Y-114779635D02*
X163386200Y-113820365D01*
G75*
G02*
X163657365Y-113549200I271165J0D01*
G01*
X164416635Y-113549200D01*
G75*
G02*
X164687800Y-113820365I0J-271165D01*
G01*
X164687800Y-114779635D01*
G75*
G02*
X164416635Y-115050800I-271165J0D01*
G01*
X163657365Y-115050800D01*
G75*
G02*
X163386200Y-114779635I0J271165D01*
G01*
G37*
G36*
G01*
X165386200Y-114779635D02*
X165386200Y-113820365D01*
G75*
G02*
X165657365Y-113549200I271165J0D01*
G01*
X166416635Y-113549200D01*
G75*
G02*
X166687800Y-113820365I0J-271165D01*
G01*
X166687800Y-114779635D01*
G75*
G02*
X166416635Y-115050800I-271165J0D01*
G01*
X165657365Y-115050800D01*
G75*
G02*
X165386200Y-114779635I0J271165D01*
G01*
G37*
%TD*%
M02*
