%TF.GenerationSoftware,KiCad,Pcbnew,(6.0.0-0)*%
%TF.CreationDate,2022-01-15T19:34:24+01:00*%
%TF.ProjectId,burrboard,62757272-626f-4617-9264-2e6b69636164,v2.0*%
%TF.SameCoordinates,Original*%
%TF.FileFunction,Copper,L2,Bot*%
%TF.FilePolarity,Positive*%
%FSLAX46Y46*%
G04 Gerber Fmt 4.6, Leading zero omitted, Abs format (unit mm)*
G04 Created by KiCad (PCBNEW (6.0.0-0)) date 2022-01-15 19:34:24*
%MOMM*%
%LPD*%
G01*
G04 APERTURE LIST*
%TA.AperFunction,ComponentPad*%
%ADD10R,1.700000X1.700000*%
%TD*%
%TA.AperFunction,ComponentPad*%
%ADD11O,1.700000X1.700000*%
%TD*%
%TA.AperFunction,ComponentPad*%
%ADD12C,1.524000*%
%TD*%
%TA.AperFunction,ComponentPad*%
%ADD13R,1.900000X1.900000*%
%TD*%
%TA.AperFunction,ComponentPad*%
%ADD14C,1.900000*%
%TD*%
%TA.AperFunction,ComponentPad*%
%ADD15R,3.000000X3.000000*%
%TD*%
%TA.AperFunction,ComponentPad*%
%ADD16C,3.000000*%
%TD*%
%TA.AperFunction,ViaPad*%
%ADD17C,0.762000*%
%TD*%
%TA.AperFunction,Conductor*%
%ADD18C,0.508000*%
%TD*%
%TA.AperFunction,Conductor*%
%ADD19C,0.304800*%
%TD*%
%TA.AperFunction,Conductor*%
%ADD20C,0.254000*%
%TD*%
G04 APERTURE END LIST*
D10*
%TO.P,J1,1,Pin_1*%
%TO.N,unconnected-(J1-Pad1)*%
X171450000Y-99060000D03*
D11*
%TO.P,J1,2,Pin_2*%
%TO.N,unconnected-(J1-Pad2)*%
X168910000Y-99060000D03*
%TO.P,J1,3,Pin_3*%
%TO.N,unconnected-(J1-Pad3)*%
X166370000Y-99060000D03*
%TO.P,J1,4,Pin_4*%
%TO.N,unconnected-(J1-Pad4)*%
X163830000Y-99060000D03*
%TO.P,J1,5,Pin_5*%
%TO.N,unconnected-(J1-Pad5)*%
X161290000Y-99060000D03*
%TO.P,J1,6,Pin_6*%
%TO.N,unconnected-(J1-Pad6)*%
X158750000Y-99060000D03*
%TO.P,J1,7,Pin_7*%
%TO.N,/A5*%
X156210000Y-99060000D03*
%TO.P,J1,8,Pin_8*%
%TO.N,/A4*%
X153670000Y-99060000D03*
%TO.P,J1,9,Pin_9*%
%TO.N,/A3*%
X151130000Y-99060000D03*
%TO.P,J1,10,Pin_10*%
%TO.N,/A2*%
X148590000Y-99060000D03*
%TO.P,J1,11,Pin_11*%
%TO.N,/A1*%
X146050000Y-99060000D03*
%TO.P,J1,12,Pin_12*%
%TO.N,/A0*%
X143510000Y-99060000D03*
%TO.P,J1,13,Pin_13*%
%TO.N,GND*%
X140970000Y-99060000D03*
%TO.P,J1,14,Pin_14*%
%TO.N,unconnected-(J1-Pad14)*%
X138430000Y-99060000D03*
%TO.P,J1,15,Pin_15*%
%TO.N,/3V3*%
X135890000Y-99060000D03*
%TO.P,J1,16,Pin_16*%
%TO.N,unconnected-(J1-Pad16)*%
X133350000Y-99060000D03*
%TD*%
D10*
%TO.P,J2,1,Pin_1*%
%TO.N,/SDA*%
X171450000Y-78740000D03*
D11*
%TO.P,J2,2,Pin_2*%
%TO.N,/SCL*%
X168910000Y-78740000D03*
%TO.P,J2,3,Pin_3*%
%TO.N,/F0*%
X166370000Y-78740000D03*
%TO.P,J2,4,Pin_4*%
%TO.N,/F1*%
X163830000Y-78740000D03*
%TO.P,J2,5,Pin_5*%
%TO.N,/F2*%
X161290000Y-78740000D03*
%TO.P,J2,6,Pin_6*%
%TO.N,/F3*%
X158750000Y-78740000D03*
%TO.P,J2,7,Pin_7*%
%TO.N,unconnected-(J2-Pad7)*%
X156210000Y-78740000D03*
%TO.P,J2,8,Pin_8*%
%TO.N,unconnected-(J2-Pad8)*%
X153670000Y-78740000D03*
%TO.P,J2,9,Pin_9*%
%TO.N,unconnected-(J2-Pad9)*%
X151130000Y-78740000D03*
%TO.P,J2,10,Pin_10*%
%TO.N,/VUSB*%
X148590000Y-78740000D03*
%TO.P,J2,11,Pin_11*%
%TO.N,/EN*%
X146050000Y-78740000D03*
%TO.P,J2,12,Pin_12*%
%TO.N,unconnected-(J2-Pad12)*%
X143510000Y-78740000D03*
%TD*%
D12*
%TO.P,J3,1*%
%TO.N,/VUSB*%
X129387600Y-105714800D03*
%TO.P,J3,2*%
%TO.N,VDD*%
X131927600Y-105734800D03*
%TD*%
D13*
%TO.P,S3,1,A*%
%TO.N,unconnected-(S3-Pad1)*%
X130606800Y-114604800D03*
D14*
%TO.P,S3,2,B*%
%TO.N,/EN*%
X130606800Y-117104800D03*
%TO.P,S3,3,C*%
%TO.N,GND*%
X130606800Y-119604800D03*
%TD*%
D15*
%TO.P,BT1,1,+*%
%TO.N,VDD*%
X140716000Y-104140000D03*
D16*
%TO.P,BT1,2,-*%
%TO.N,GND*%
X153416000Y-104140000D03*
%TD*%
D17*
%TO.N,/3V3*%
X148107400Y-89789000D03*
X148793200Y-82727800D03*
X161041080Y-122224800D03*
%TO.N,/SDA*%
X156362400Y-82702400D03*
%TO.N,/SCL*%
X154533600Y-81178400D03*
%TD*%
D18*
%TO.N,VDD*%
X133522400Y-104140000D02*
X131927600Y-105734800D01*
X140716000Y-104140000D02*
X133522400Y-104140000D01*
D19*
%TO.N,/3V3*%
X148107400Y-83413600D02*
X148107400Y-89789000D01*
X148793200Y-82727800D02*
X148107400Y-83413600D01*
X137146401Y-100316401D02*
X135890000Y-99060000D01*
X161041080Y-120733558D02*
X140623923Y-100316401D01*
X140623923Y-100316401D02*
X137146401Y-100316401D01*
X161041080Y-122224800D02*
X161041080Y-120733558D01*
D18*
%TO.N,/VUSB*%
X129387600Y-97942400D02*
X148590000Y-78740000D01*
X129387600Y-105714800D02*
X129387600Y-97942400D01*
D20*
%TO.N,/EN*%
X130606800Y-117104800D02*
X127355210Y-113853210D01*
X127355210Y-113853210D02*
X127355210Y-97973270D01*
X146050000Y-79278480D02*
X146050000Y-78740000D01*
X127355210Y-97973270D02*
X146050000Y-79278480D01*
%TO.N,/SDA*%
X156362400Y-82702400D02*
X167487600Y-82702400D01*
X167487600Y-82702400D02*
X171450000Y-78740000D01*
%TO.N,/SCL*%
X166471600Y-81178400D02*
X168910000Y-78740000D01*
X154533600Y-81178400D02*
X166471600Y-81178400D01*
%TD*%
%TA.AperFunction,Conductor*%
%TO.N,GND*%
G36*
X177488121Y-76474002D02*
G01*
X177534614Y-76527658D01*
X177546000Y-76580000D01*
X177546000Y-154560000D01*
X177525998Y-154628121D01*
X177472342Y-154674614D01*
X177420000Y-154686000D01*
X127380000Y-154686000D01*
X127311879Y-154665998D01*
X127265386Y-154612342D01*
X127254000Y-154560000D01*
X127254000Y-127828828D01*
X138731689Y-127828828D01*
X138731933Y-127833263D01*
X138731933Y-127833267D01*
X138734876Y-127886733D01*
X138747093Y-128108731D01*
X138801782Y-128383671D01*
X138894665Y-128648162D01*
X138896718Y-128652113D01*
X138896720Y-128652119D01*
X139021836Y-128892978D01*
X139023888Y-128896928D01*
X139026471Y-128900543D01*
X139026475Y-128900549D01*
X139184285Y-129121383D01*
X139186873Y-129125004D01*
X139380369Y-129327839D01*
X139383865Y-129330595D01*
X139383866Y-129330596D01*
X139436033Y-129371721D01*
X139600514Y-129501388D01*
X139654887Y-129532970D01*
X139839069Y-129639952D01*
X139839075Y-129639955D01*
X139842916Y-129642186D01*
X139847039Y-129643856D01*
X140098612Y-129745754D01*
X140098615Y-129745755D01*
X140102738Y-129747425D01*
X140107051Y-129748496D01*
X140107056Y-129748498D01*
X140370476Y-129813932D01*
X140370481Y-129813933D01*
X140374797Y-129815005D01*
X140379225Y-129815459D01*
X140379227Y-129815459D01*
X140453909Y-129823111D01*
X140613872Y-129839500D01*
X140787407Y-129839500D01*
X140995626Y-129824757D01*
X140999981Y-129823819D01*
X140999984Y-129823819D01*
X141265326Y-129766693D01*
X141265328Y-129766693D01*
X141269673Y-129765757D01*
X141532673Y-129668731D01*
X141581870Y-129642186D01*
X141775462Y-129537729D01*
X141779378Y-129535616D01*
X142004866Y-129369068D01*
X142204637Y-129172410D01*
X142374707Y-128949567D01*
X142511680Y-128704983D01*
X142612825Y-128443539D01*
X142625726Y-128387883D01*
X142675117Y-128174792D01*
X142676123Y-128170453D01*
X142700311Y-127891172D01*
X142700067Y-127886733D01*
X142696880Y-127828828D01*
X162231689Y-127828828D01*
X162231933Y-127833263D01*
X162231933Y-127833267D01*
X162234876Y-127886733D01*
X162247093Y-128108731D01*
X162301782Y-128383671D01*
X162394665Y-128648162D01*
X162396718Y-128652113D01*
X162396720Y-128652119D01*
X162521836Y-128892978D01*
X162523888Y-128896928D01*
X162526471Y-128900543D01*
X162526475Y-128900549D01*
X162684285Y-129121383D01*
X162686873Y-129125004D01*
X162880369Y-129327839D01*
X162883865Y-129330595D01*
X162883866Y-129330596D01*
X162936033Y-129371721D01*
X163100514Y-129501388D01*
X163154887Y-129532970D01*
X163339069Y-129639952D01*
X163339075Y-129639955D01*
X163342916Y-129642186D01*
X163347039Y-129643856D01*
X163598612Y-129745754D01*
X163598615Y-129745755D01*
X163602738Y-129747425D01*
X163607051Y-129748496D01*
X163607056Y-129748498D01*
X163870476Y-129813932D01*
X163870481Y-129813933D01*
X163874797Y-129815005D01*
X163879225Y-129815459D01*
X163879227Y-129815459D01*
X163953909Y-129823111D01*
X164113872Y-129839500D01*
X164287407Y-129839500D01*
X164495626Y-129824757D01*
X164499981Y-129823819D01*
X164499984Y-129823819D01*
X164765326Y-129766693D01*
X164765328Y-129766693D01*
X164769673Y-129765757D01*
X165032673Y-129668731D01*
X165081870Y-129642186D01*
X165275462Y-129537729D01*
X165279378Y-129535616D01*
X165504866Y-129369068D01*
X165704637Y-129172410D01*
X165874707Y-128949567D01*
X166011680Y-128704983D01*
X166112825Y-128443539D01*
X166125726Y-128387883D01*
X166175117Y-128174792D01*
X166176123Y-128170453D01*
X166200311Y-127891172D01*
X166200067Y-127886733D01*
X166185152Y-127615712D01*
X166185151Y-127615705D01*
X166184907Y-127611269D01*
X166130218Y-127336329D01*
X166037335Y-127071838D01*
X166009974Y-127019164D01*
X165910164Y-126827022D01*
X165910163Y-126827020D01*
X165908112Y-126823072D01*
X165905529Y-126819457D01*
X165905525Y-126819451D01*
X165747715Y-126598617D01*
X165747712Y-126598613D01*
X165745127Y-126594996D01*
X165551631Y-126392161D01*
X165503306Y-126354064D01*
X165334982Y-126221368D01*
X165331486Y-126218612D01*
X165222420Y-126155262D01*
X165092931Y-126080048D01*
X165092925Y-126080045D01*
X165089084Y-126077814D01*
X165019743Y-126049728D01*
X164833388Y-125974246D01*
X164833385Y-125974245D01*
X164829262Y-125972575D01*
X164824949Y-125971504D01*
X164824944Y-125971502D01*
X164561524Y-125906068D01*
X164561519Y-125906067D01*
X164557203Y-125904995D01*
X164552775Y-125904541D01*
X164552773Y-125904541D01*
X164462022Y-125895243D01*
X164318128Y-125880500D01*
X164144593Y-125880500D01*
X163936374Y-125895243D01*
X163932019Y-125896181D01*
X163932016Y-125896181D01*
X163666674Y-125953307D01*
X163666672Y-125953307D01*
X163662327Y-125954243D01*
X163399327Y-126051269D01*
X163395409Y-126053383D01*
X163345990Y-126080048D01*
X163152622Y-126184384D01*
X162927134Y-126350932D01*
X162727363Y-126547590D01*
X162557293Y-126770433D01*
X162420320Y-127015017D01*
X162319175Y-127276461D01*
X162318172Y-127280786D01*
X162318171Y-127280791D01*
X162305298Y-127336329D01*
X162255877Y-127549547D01*
X162231689Y-127828828D01*
X142696880Y-127828828D01*
X142685152Y-127615712D01*
X142685151Y-127615705D01*
X142684907Y-127611269D01*
X142630218Y-127336329D01*
X142537335Y-127071838D01*
X142509974Y-127019164D01*
X142410164Y-126827022D01*
X142410163Y-126827020D01*
X142408112Y-126823072D01*
X142405529Y-126819457D01*
X142405525Y-126819451D01*
X142247715Y-126598617D01*
X142247712Y-126598613D01*
X142245127Y-126594996D01*
X142051631Y-126392161D01*
X142003306Y-126354064D01*
X141834982Y-126221368D01*
X141831486Y-126218612D01*
X141722420Y-126155262D01*
X141592931Y-126080048D01*
X141592925Y-126080045D01*
X141589084Y-126077814D01*
X141519743Y-126049728D01*
X141333388Y-125974246D01*
X141333385Y-125974245D01*
X141329262Y-125972575D01*
X141324949Y-125971504D01*
X141324944Y-125971502D01*
X141061524Y-125906068D01*
X141061519Y-125906067D01*
X141057203Y-125904995D01*
X141052775Y-125904541D01*
X141052773Y-125904541D01*
X140962022Y-125895243D01*
X140818128Y-125880500D01*
X140644593Y-125880500D01*
X140436374Y-125895243D01*
X140432019Y-125896181D01*
X140432016Y-125896181D01*
X140166674Y-125953307D01*
X140166672Y-125953307D01*
X140162327Y-125954243D01*
X139899327Y-126051269D01*
X139895409Y-126053383D01*
X139845990Y-126080048D01*
X139652622Y-126184384D01*
X139427134Y-126350932D01*
X139227363Y-126547590D01*
X139057293Y-126770433D01*
X138920320Y-127015017D01*
X138819175Y-127276461D01*
X138818172Y-127280786D01*
X138818171Y-127280791D01*
X138805298Y-127336329D01*
X138755877Y-127549547D01*
X138731689Y-127828828D01*
X127254000Y-127828828D01*
X127254000Y-120803700D01*
X129773158Y-120803700D01*
X129776461Y-120808360D01*
X129970199Y-120921571D01*
X129979486Y-120926021D01*
X130193806Y-121007862D01*
X130203708Y-121010739D01*
X130428499Y-121056473D01*
X130438751Y-121057696D01*
X130668002Y-121066102D01*
X130678288Y-121065635D01*
X130905843Y-121036484D01*
X130915929Y-121034341D01*
X131135664Y-120968417D01*
X131145259Y-120964656D01*
X131351266Y-120863735D01*
X131360132Y-120858450D01*
X131427745Y-120810221D01*
X131436146Y-120799521D01*
X131429158Y-120786368D01*
X130619612Y-119976822D01*
X130605668Y-119969208D01*
X130603835Y-119969339D01*
X130597220Y-119973590D01*
X129780435Y-120790375D01*
X129773158Y-120803700D01*
X127254000Y-120803700D01*
X127254000Y-119574212D01*
X129144537Y-119574212D01*
X129157744Y-119803251D01*
X129159177Y-119813453D01*
X129209610Y-120037242D01*
X129212698Y-120047095D01*
X129299004Y-120259640D01*
X129303652Y-120268841D01*
X129400536Y-120426943D01*
X129410992Y-120436404D01*
X129419770Y-120432620D01*
X130234778Y-119617612D01*
X130241156Y-119605932D01*
X130971208Y-119605932D01*
X130971339Y-119607765D01*
X130975590Y-119614380D01*
X131788930Y-120427720D01*
X131800941Y-120434279D01*
X131812680Y-120425311D01*
X131857812Y-120362502D01*
X131863127Y-120353657D01*
X131964766Y-120148006D01*
X131968565Y-120138411D01*
X132035253Y-119918920D01*
X132037432Y-119908839D01*
X132067613Y-119679589D01*
X132068132Y-119672914D01*
X132069715Y-119608164D01*
X132069521Y-119601447D01*
X132050576Y-119371006D01*
X132048893Y-119360844D01*
X131993004Y-119138339D01*
X131989683Y-119128584D01*
X131898209Y-118918210D01*
X131893331Y-118909112D01*
X131812184Y-118783676D01*
X131801498Y-118774474D01*
X131791933Y-118778877D01*
X130978822Y-119591988D01*
X130971208Y-119605932D01*
X130241156Y-119605932D01*
X130242392Y-119603668D01*
X130242261Y-119601835D01*
X130238010Y-119595220D01*
X129424684Y-118781894D01*
X129413148Y-118775594D01*
X129400865Y-118785218D01*
X129337649Y-118877889D01*
X129332556Y-118886853D01*
X129235963Y-119094945D01*
X129232406Y-119104613D01*
X129171099Y-119325679D01*
X129169168Y-119335799D01*
X129144789Y-119563923D01*
X129144537Y-119574212D01*
X127254000Y-119574212D01*
X127254000Y-114595712D01*
X127274002Y-114527591D01*
X127327658Y-114481098D01*
X127397932Y-114470994D01*
X127462512Y-114500488D01*
X127469095Y-114506617D01*
X129463816Y-116501338D01*
X129497842Y-116563650D01*
X129491175Y-116638167D01*
X129489220Y-116641883D01*
X129487509Y-116647393D01*
X129487507Y-116647398D01*
X129478359Y-116676861D01*
X129423574Y-116853298D01*
X129422895Y-116859033D01*
X129422895Y-116859034D01*
X129419898Y-116884357D01*
X129397555Y-117073135D01*
X129412033Y-117294033D01*
X129466524Y-117508593D01*
X129559204Y-117709630D01*
X129686967Y-117890411D01*
X129845536Y-118044882D01*
X129850332Y-118048087D01*
X129850335Y-118048089D01*
X129931360Y-118102228D01*
X129976888Y-118156705D01*
X129985736Y-118227148D01*
X129955094Y-118291192D01*
X129919538Y-118318756D01*
X129831793Y-118364433D01*
X129823068Y-118369927D01*
X129785048Y-118398474D01*
X129776595Y-118409799D01*
X129783340Y-118422130D01*
X130593988Y-119232778D01*
X130607932Y-119240392D01*
X130609765Y-119240261D01*
X130616380Y-119236010D01*
X131431390Y-118421000D01*
X131438411Y-118408143D01*
X131430638Y-118397476D01*
X131420467Y-118389443D01*
X131411883Y-118383740D01*
X131295895Y-118319711D01*
X131245925Y-118269279D01*
X131231153Y-118199836D01*
X131256269Y-118133431D01*
X131285422Y-118105563D01*
X131286916Y-118104536D01*
X131291959Y-118101712D01*
X131462159Y-117960159D01*
X131603712Y-117789959D01*
X131711879Y-117596813D01*
X131783037Y-117387190D01*
X131814802Y-117168109D01*
X131816460Y-117104800D01*
X131796204Y-116884357D01*
X131787445Y-116853298D01*
X131737684Y-116676861D01*
X131736115Y-116671297D01*
X131638205Y-116472754D01*
X131505753Y-116295379D01*
X131343194Y-116145112D01*
X131179551Y-116041861D01*
X131132612Y-115988594D01*
X131121923Y-115918407D01*
X131150878Y-115853583D01*
X131210282Y-115814703D01*
X131246785Y-115809299D01*
X131581866Y-115809299D01*
X131617618Y-115802188D01*
X131643926Y-115796956D01*
X131643928Y-115796955D01*
X131656101Y-115794534D01*
X131666421Y-115787639D01*
X131666422Y-115787638D01*
X131729968Y-115745177D01*
X131740284Y-115738284D01*
X131796534Y-115654101D01*
X131811300Y-115579867D01*
X131811299Y-113629734D01*
X131796534Y-113555499D01*
X131740284Y-113471316D01*
X131656101Y-113415066D01*
X131581867Y-113400300D01*
X130606958Y-113400300D01*
X129631734Y-113400301D01*
X129595982Y-113407412D01*
X129569674Y-113412644D01*
X129569672Y-113412645D01*
X129557499Y-113415066D01*
X129547179Y-113421961D01*
X129547178Y-113421962D01*
X129486785Y-113462316D01*
X129473316Y-113471316D01*
X129417066Y-113555499D01*
X129402300Y-113629733D01*
X129402301Y-114481098D01*
X129402301Y-115056588D01*
X129382299Y-115124709D01*
X129328643Y-115171202D01*
X129258369Y-115181306D01*
X129193789Y-115151813D01*
X129187206Y-115145683D01*
X127773615Y-113732092D01*
X127739589Y-113669780D01*
X127736710Y-113642997D01*
X127736710Y-98183482D01*
X127756712Y-98115361D01*
X127773615Y-98094387D01*
X145984636Y-79883366D01*
X146046948Y-79849340D01*
X146078677Y-79846558D01*
X146088633Y-79846949D01*
X146108053Y-79847712D01*
X146215341Y-79832156D01*
X146303231Y-79819413D01*
X146303236Y-79819412D01*
X146308945Y-79818584D01*
X146314409Y-79816729D01*
X146314414Y-79816728D01*
X146495693Y-79755192D01*
X146495698Y-79755190D01*
X146501165Y-79753334D01*
X146516358Y-79744826D01*
X146585565Y-79728992D01*
X146652347Y-79753089D01*
X146695500Y-79809465D01*
X146701323Y-79880223D01*
X146667018Y-79943855D01*
X129078296Y-97532577D01*
X129068756Y-97540200D01*
X129069070Y-97540568D01*
X129062234Y-97546386D01*
X129054642Y-97551176D01*
X129048700Y-97557904D01*
X129019007Y-97591525D01*
X129013661Y-97597212D01*
X129002218Y-97608655D01*
X128996578Y-97616180D01*
X128995941Y-97617030D01*
X128989567Y-97624859D01*
X128958222Y-97660351D01*
X128954408Y-97668474D01*
X128952774Y-97670962D01*
X128943786Y-97685923D01*
X128942371Y-97688508D01*
X128936984Y-97695695D01*
X128921855Y-97736051D01*
X128920359Y-97740042D01*
X128916433Y-97749358D01*
X128896319Y-97792200D01*
X128894938Y-97801069D01*
X128894072Y-97803902D01*
X128889642Y-97820789D01*
X128889008Y-97823674D01*
X128885855Y-97832084D01*
X128885190Y-97841039D01*
X128882346Y-97879306D01*
X128881192Y-97889352D01*
X128879100Y-97902786D01*
X128879100Y-97918306D01*
X128878754Y-97927643D01*
X128875061Y-97977341D01*
X128876935Y-97986120D01*
X128877498Y-97994378D01*
X128879100Y-98009561D01*
X128879100Y-104759468D01*
X128859098Y-104827589D01*
X128827650Y-104859295D01*
X128828309Y-104860114D01*
X128672951Y-104985025D01*
X128544814Y-105137733D01*
X128448779Y-105312421D01*
X128446918Y-105318288D01*
X128446917Y-105318290D01*
X128440573Y-105338290D01*
X128388502Y-105502435D01*
X128366282Y-105700539D01*
X128382962Y-105899186D01*
X128394846Y-105940628D01*
X128425822Y-106048653D01*
X128437910Y-106090809D01*
X128529030Y-106268111D01*
X128652853Y-106424337D01*
X128804663Y-106553537D01*
X128810041Y-106556543D01*
X128810043Y-106556544D01*
X128851997Y-106579991D01*
X128978676Y-106650789D01*
X128984535Y-106652693D01*
X128984538Y-106652694D01*
X129020301Y-106664314D01*
X129168265Y-106712391D01*
X129174375Y-106713120D01*
X129174377Y-106713120D01*
X129241914Y-106721173D01*
X129366209Y-106735994D01*
X129372344Y-106735522D01*
X129372346Y-106735522D01*
X129558826Y-106721173D01*
X129558831Y-106721172D01*
X129564967Y-106720700D01*
X129570897Y-106719044D01*
X129570899Y-106719044D01*
X129660969Y-106693896D01*
X129756970Y-106667092D01*
X129762470Y-106664314D01*
X129929402Y-106579991D01*
X129929404Y-106579990D01*
X129934903Y-106577212D01*
X130091990Y-106454482D01*
X130114562Y-106428332D01*
X130218218Y-106308246D01*
X130218219Y-106308244D01*
X130222247Y-106303578D01*
X130231034Y-106288111D01*
X130245506Y-106262634D01*
X130320712Y-106130248D01*
X130383635Y-105941094D01*
X130401206Y-105802009D01*
X130408178Y-105746823D01*
X130408179Y-105746813D01*
X130408620Y-105743320D01*
X130408938Y-105720539D01*
X130906282Y-105720539D01*
X130922962Y-105919186D01*
X130934979Y-105961094D01*
X130976207Y-106104869D01*
X130977910Y-106110809D01*
X131069030Y-106288111D01*
X131192853Y-106444337D01*
X131344663Y-106573537D01*
X131350041Y-106576543D01*
X131350043Y-106576544D01*
X131391997Y-106599991D01*
X131518676Y-106670789D01*
X131524535Y-106672693D01*
X131524538Y-106672694D01*
X131560301Y-106684314D01*
X131708265Y-106732391D01*
X131714375Y-106733120D01*
X131714377Y-106733120D01*
X131781914Y-106741173D01*
X131906209Y-106755994D01*
X131912344Y-106755522D01*
X131912346Y-106755522D01*
X132098826Y-106741173D01*
X132098831Y-106741172D01*
X132104967Y-106740700D01*
X132110897Y-106739044D01*
X132110899Y-106739044D01*
X132213175Y-106710488D01*
X132296970Y-106687092D01*
X132302470Y-106684314D01*
X132469402Y-106599991D01*
X132469404Y-106599990D01*
X132474903Y-106597212D01*
X132631990Y-106474482D01*
X132649254Y-106454482D01*
X132758218Y-106328246D01*
X132758219Y-106328244D01*
X132762247Y-106323578D01*
X132776654Y-106298218D01*
X132857665Y-106155611D01*
X132860712Y-106150248D01*
X132923635Y-105961094D01*
X132932201Y-105893291D01*
X132948178Y-105766823D01*
X132948179Y-105766813D01*
X132948620Y-105763320D01*
X132949018Y-105734800D01*
X132929565Y-105536406D01*
X132928210Y-105531918D01*
X132934555Y-105461717D01*
X132962670Y-105418857D01*
X133696124Y-104685404D01*
X133758436Y-104651379D01*
X133785219Y-104648500D01*
X138835501Y-104648500D01*
X138903622Y-104668502D01*
X138950115Y-104722158D01*
X138961501Y-104774500D01*
X138961501Y-105665066D01*
X138976266Y-105739301D01*
X138983161Y-105749620D01*
X138983162Y-105749622D01*
X139018167Y-105802009D01*
X139032516Y-105823484D01*
X139116699Y-105879734D01*
X139190933Y-105894500D01*
X140715753Y-105894500D01*
X142241066Y-105894499D01*
X142276818Y-105887388D01*
X142303126Y-105882156D01*
X142303128Y-105882155D01*
X142315301Y-105879734D01*
X142325621Y-105872839D01*
X142325622Y-105872838D01*
X142389168Y-105830377D01*
X142399484Y-105823484D01*
X142455734Y-105739301D01*
X142470500Y-105665067D01*
X142470499Y-103042610D01*
X142490501Y-102974489D01*
X142544157Y-102927996D01*
X142614431Y-102917892D01*
X142679011Y-102947386D01*
X142685594Y-102953515D01*
X160597275Y-120865197D01*
X160631301Y-120927509D01*
X160634180Y-120954292D01*
X160634180Y-121679104D01*
X160614178Y-121747225D01*
X160591012Y-121774051D01*
X160565342Y-121796444D01*
X160476898Y-121922288D01*
X160474139Y-121929363D01*
X160474138Y-121929366D01*
X160423784Y-122058517D01*
X160421024Y-122065597D01*
X160400947Y-122218096D01*
X160417826Y-122370983D01*
X160420435Y-122378114D01*
X160420436Y-122378116D01*
X160427543Y-122397535D01*
X160470686Y-122515430D01*
X160474922Y-122521733D01*
X160474922Y-122521734D01*
X160552242Y-122636799D01*
X160552245Y-122636802D01*
X160556476Y-122643099D01*
X160670243Y-122746619D01*
X160805418Y-122820013D01*
X160954199Y-122859045D01*
X161034018Y-122860299D01*
X161100398Y-122861342D01*
X161100401Y-122861342D01*
X161107996Y-122861461D01*
X161115400Y-122859765D01*
X161115402Y-122859765D01*
X161170669Y-122847107D01*
X161257929Y-122827122D01*
X161279267Y-122816390D01*
X161388561Y-122761422D01*
X161388564Y-122761420D01*
X161395344Y-122758010D01*
X161512306Y-122658114D01*
X161602063Y-122533203D01*
X161659435Y-122390488D01*
X161681108Y-122238207D01*
X161681248Y-122224800D01*
X161679526Y-122210565D01*
X161663681Y-122079639D01*
X161662769Y-122072099D01*
X161608399Y-121928213D01*
X161521277Y-121801449D01*
X161515606Y-121796397D01*
X161515604Y-121796394D01*
X161490162Y-121773726D01*
X161452606Y-121713476D01*
X161447980Y-121679649D01*
X161447980Y-120701534D01*
X161447979Y-120701528D01*
X161447979Y-120669111D01*
X161441025Y-120647707D01*
X161436411Y-120628488D01*
X161434440Y-120616044D01*
X161432889Y-120606252D01*
X161422671Y-120586198D01*
X161415105Y-120567933D01*
X161411214Y-120555957D01*
X161408150Y-120546526D01*
X161394913Y-120528306D01*
X161384591Y-120511463D01*
X161374372Y-120491407D01*
X161351449Y-120468484D01*
X161351446Y-120468480D01*
X146612619Y-105729654D01*
X152191618Y-105729654D01*
X152198673Y-105739627D01*
X152229679Y-105765551D01*
X152236598Y-105770579D01*
X152461272Y-105911515D01*
X152468807Y-105915556D01*
X152710520Y-106024694D01*
X152718551Y-106027680D01*
X152972832Y-106103002D01*
X152981184Y-106104869D01*
X153243340Y-106144984D01*
X153251874Y-106145700D01*
X153517045Y-106149867D01*
X153525596Y-106149418D01*
X153788883Y-106117557D01*
X153797284Y-106115955D01*
X154053824Y-106048653D01*
X154061926Y-106045926D01*
X154306949Y-105944434D01*
X154314617Y-105940628D01*
X154543598Y-105806822D01*
X154550679Y-105802009D01*
X154630655Y-105739301D01*
X154639125Y-105727442D01*
X154632608Y-105715818D01*
X153428812Y-104512022D01*
X153414868Y-104504408D01*
X153413035Y-104504539D01*
X153406420Y-104508790D01*
X152198910Y-105716300D01*
X152191618Y-105729654D01*
X146612619Y-105729654D01*
X145006169Y-104123204D01*
X151403665Y-104123204D01*
X151418932Y-104387969D01*
X151420005Y-104396470D01*
X151471065Y-104656722D01*
X151473276Y-104664974D01*
X151559184Y-104915894D01*
X151562499Y-104923779D01*
X151681664Y-105160713D01*
X151686020Y-105168079D01*
X151815347Y-105356250D01*
X151825601Y-105364594D01*
X151839342Y-105357448D01*
X153043978Y-104152812D01*
X153050356Y-104141132D01*
X153780408Y-104141132D01*
X153780539Y-104142965D01*
X153784790Y-104149580D01*
X154991730Y-105356520D01*
X155003939Y-105363187D01*
X155015439Y-105354497D01*
X155112831Y-105221913D01*
X155117418Y-105214685D01*
X155243962Y-104981621D01*
X155247530Y-104973827D01*
X155341271Y-104725750D01*
X155343748Y-104717544D01*
X155402954Y-104459038D01*
X155404294Y-104450577D01*
X155428031Y-104184616D01*
X155428277Y-104179677D01*
X155428666Y-104142485D01*
X155428523Y-104137519D01*
X155410362Y-103871123D01*
X155409201Y-103862649D01*
X155355419Y-103602944D01*
X155353120Y-103594709D01*
X155264588Y-103344705D01*
X155261191Y-103336854D01*
X155139550Y-103101178D01*
X155135122Y-103093866D01*
X155016031Y-102924417D01*
X155005509Y-102916037D01*
X154992121Y-102923089D01*
X153788022Y-104127188D01*
X153780408Y-104141132D01*
X153050356Y-104141132D01*
X153051592Y-104138868D01*
X153051461Y-104137035D01*
X153047210Y-104130420D01*
X151839814Y-102923024D01*
X151827804Y-102916466D01*
X151816064Y-102925434D01*
X151707935Y-103075911D01*
X151703418Y-103083196D01*
X151579325Y-103317567D01*
X151575839Y-103325395D01*
X151484700Y-103574446D01*
X151482311Y-103582670D01*
X151425812Y-103841795D01*
X151424563Y-103850250D01*
X151403754Y-104114653D01*
X151403665Y-104123204D01*
X145006169Y-104123204D01*
X143435465Y-102552500D01*
X152192584Y-102552500D01*
X152198980Y-102563770D01*
X153403188Y-103767978D01*
X153417132Y-103775592D01*
X153418965Y-103775461D01*
X153425580Y-103771210D01*
X154632604Y-102564186D01*
X154639795Y-102551017D01*
X154632473Y-102540780D01*
X154585233Y-102502115D01*
X154578261Y-102497160D01*
X154352122Y-102358582D01*
X154344552Y-102354624D01*
X154101704Y-102248022D01*
X154093644Y-102245120D01*
X153838592Y-102172467D01*
X153830214Y-102170685D01*
X153567656Y-102133318D01*
X153559111Y-102132691D01*
X153293908Y-102131302D01*
X153285374Y-102131839D01*
X153022433Y-102166456D01*
X153014035Y-102168149D01*
X152758238Y-102238127D01*
X152750143Y-102240946D01*
X152506199Y-102344997D01*
X152498577Y-102348881D01*
X152271013Y-102485075D01*
X152263981Y-102489962D01*
X152201053Y-102540377D01*
X152192584Y-102552500D01*
X143435465Y-102552500D01*
X141419443Y-100536478D01*
X141385417Y-100474166D01*
X141390482Y-100403351D01*
X141433029Y-100346515D01*
X141462557Y-100330072D01*
X141471849Y-100326430D01*
X141663095Y-100232739D01*
X141671945Y-100227464D01*
X141845328Y-100103792D01*
X141853200Y-100097139D01*
X142004052Y-99946812D01*
X142010730Y-99938965D01*
X142135003Y-99766020D01*
X142140313Y-99757183D01*
X142234670Y-99566267D01*
X142238469Y-99556672D01*
X142255066Y-99502047D01*
X142294007Y-99442683D01*
X142358862Y-99413796D01*
X142429038Y-99424558D01*
X142482256Y-99471551D01*
X142490048Y-99485922D01*
X142549377Y-99614616D01*
X142666533Y-99780389D01*
X142811938Y-99922035D01*
X142980720Y-100034812D01*
X142986023Y-100037090D01*
X142986026Y-100037092D01*
X143161921Y-100112662D01*
X143167228Y-100114942D01*
X143240244Y-100131464D01*
X143359579Y-100158467D01*
X143359584Y-100158468D01*
X143365216Y-100159742D01*
X143370987Y-100159969D01*
X143370989Y-100159969D01*
X143430756Y-100162317D01*
X143568053Y-100167712D01*
X143675348Y-100152155D01*
X143763231Y-100139413D01*
X143763236Y-100139412D01*
X143768945Y-100138584D01*
X143774409Y-100136729D01*
X143774414Y-100136728D01*
X143955693Y-100075192D01*
X143955698Y-100075190D01*
X143961165Y-100073334D01*
X144138276Y-99974147D01*
X144177969Y-99941135D01*
X144289913Y-99848031D01*
X144294345Y-99844345D01*
X144347537Y-99780389D01*
X144420453Y-99692718D01*
X144420455Y-99692715D01*
X144424147Y-99688276D01*
X144523334Y-99511165D01*
X144525190Y-99505698D01*
X144525192Y-99505693D01*
X144586728Y-99324414D01*
X144586729Y-99324409D01*
X144588584Y-99318945D01*
X144589412Y-99313236D01*
X144589413Y-99313231D01*
X144617179Y-99121727D01*
X144617712Y-99118053D01*
X144619232Y-99060000D01*
X144616564Y-99030964D01*
X144941148Y-99030964D01*
X144954424Y-99233522D01*
X144955845Y-99239118D01*
X144955846Y-99239123D01*
X144974863Y-99314000D01*
X145004392Y-99430269D01*
X145006809Y-99435512D01*
X145044010Y-99516208D01*
X145089377Y-99614616D01*
X145206533Y-99780389D01*
X145351938Y-99922035D01*
X145520720Y-100034812D01*
X145526023Y-100037090D01*
X145526026Y-100037092D01*
X145701921Y-100112662D01*
X145707228Y-100114942D01*
X145780244Y-100131464D01*
X145899579Y-100158467D01*
X145899584Y-100158468D01*
X145905216Y-100159742D01*
X145910987Y-100159969D01*
X145910989Y-100159969D01*
X145970756Y-100162317D01*
X146108053Y-100167712D01*
X146215348Y-100152155D01*
X146303231Y-100139413D01*
X146303236Y-100139412D01*
X146308945Y-100138584D01*
X146314409Y-100136729D01*
X146314414Y-100136728D01*
X146495693Y-100075192D01*
X146495698Y-100075190D01*
X146501165Y-100073334D01*
X146678276Y-99974147D01*
X146717969Y-99941135D01*
X146829913Y-99848031D01*
X146834345Y-99844345D01*
X146887537Y-99780389D01*
X146960453Y-99692718D01*
X146960455Y-99692715D01*
X146964147Y-99688276D01*
X147063334Y-99511165D01*
X147065190Y-99505698D01*
X147065192Y-99505693D01*
X147126728Y-99324414D01*
X147126729Y-99324409D01*
X147128584Y-99318945D01*
X147129412Y-99313236D01*
X147129413Y-99313231D01*
X147157179Y-99121727D01*
X147157712Y-99118053D01*
X147159232Y-99060000D01*
X147156564Y-99030964D01*
X147481148Y-99030964D01*
X147494424Y-99233522D01*
X147495845Y-99239118D01*
X147495846Y-99239123D01*
X147514863Y-99314000D01*
X147544392Y-99430269D01*
X147546809Y-99435512D01*
X147584010Y-99516208D01*
X147629377Y-99614616D01*
X147746533Y-99780389D01*
X147891938Y-99922035D01*
X148060720Y-100034812D01*
X148066023Y-100037090D01*
X148066026Y-100037092D01*
X148241921Y-100112662D01*
X148247228Y-100114942D01*
X148320244Y-100131464D01*
X148439579Y-100158467D01*
X148439584Y-100158468D01*
X148445216Y-100159742D01*
X148450987Y-100159969D01*
X148450989Y-100159969D01*
X148510756Y-100162317D01*
X148648053Y-100167712D01*
X148755348Y-100152155D01*
X148843231Y-100139413D01*
X148843236Y-100139412D01*
X148848945Y-100138584D01*
X148854409Y-100136729D01*
X148854414Y-100136728D01*
X149035693Y-100075192D01*
X149035698Y-100075190D01*
X149041165Y-100073334D01*
X149218276Y-99974147D01*
X149257969Y-99941135D01*
X149369913Y-99848031D01*
X149374345Y-99844345D01*
X149427537Y-99780389D01*
X149500453Y-99692718D01*
X149500455Y-99692715D01*
X149504147Y-99688276D01*
X149603334Y-99511165D01*
X149605190Y-99505698D01*
X149605192Y-99505693D01*
X149666728Y-99324414D01*
X149666729Y-99324409D01*
X149668584Y-99318945D01*
X149669412Y-99313236D01*
X149669413Y-99313231D01*
X149697179Y-99121727D01*
X149697712Y-99118053D01*
X149699232Y-99060000D01*
X149696564Y-99030964D01*
X150021148Y-99030964D01*
X150034424Y-99233522D01*
X150035845Y-99239118D01*
X150035846Y-99239123D01*
X150054863Y-99314000D01*
X150084392Y-99430269D01*
X150086809Y-99435512D01*
X150124010Y-99516208D01*
X150169377Y-99614616D01*
X150286533Y-99780389D01*
X150431938Y-99922035D01*
X150600720Y-100034812D01*
X150606023Y-100037090D01*
X150606026Y-100037092D01*
X150781921Y-100112662D01*
X150787228Y-100114942D01*
X150860244Y-100131464D01*
X150979579Y-100158467D01*
X150979584Y-100158468D01*
X150985216Y-100159742D01*
X150990987Y-100159969D01*
X150990989Y-100159969D01*
X151050756Y-100162317D01*
X151188053Y-100167712D01*
X151295348Y-100152155D01*
X151383231Y-100139413D01*
X151383236Y-100139412D01*
X151388945Y-100138584D01*
X151394409Y-100136729D01*
X151394414Y-100136728D01*
X151575693Y-100075192D01*
X151575698Y-100075190D01*
X151581165Y-100073334D01*
X151758276Y-99974147D01*
X151797969Y-99941135D01*
X151909913Y-99848031D01*
X151914345Y-99844345D01*
X151967537Y-99780389D01*
X152040453Y-99692718D01*
X152040455Y-99692715D01*
X152044147Y-99688276D01*
X152143334Y-99511165D01*
X152145190Y-99505698D01*
X152145192Y-99505693D01*
X152206728Y-99324414D01*
X152206729Y-99324409D01*
X152208584Y-99318945D01*
X152209412Y-99313236D01*
X152209413Y-99313231D01*
X152237179Y-99121727D01*
X152237712Y-99118053D01*
X152239232Y-99060000D01*
X152236564Y-99030964D01*
X152561148Y-99030964D01*
X152574424Y-99233522D01*
X152575845Y-99239118D01*
X152575846Y-99239123D01*
X152594863Y-99314000D01*
X152624392Y-99430269D01*
X152626809Y-99435512D01*
X152664010Y-99516208D01*
X152709377Y-99614616D01*
X152826533Y-99780389D01*
X152971938Y-99922035D01*
X153140720Y-100034812D01*
X153146023Y-100037090D01*
X153146026Y-100037092D01*
X153321921Y-100112662D01*
X153327228Y-100114942D01*
X153400244Y-100131464D01*
X153519579Y-100158467D01*
X153519584Y-100158468D01*
X153525216Y-100159742D01*
X153530987Y-100159969D01*
X153530989Y-100159969D01*
X153590756Y-100162317D01*
X153728053Y-100167712D01*
X153835348Y-100152155D01*
X153923231Y-100139413D01*
X153923236Y-100139412D01*
X153928945Y-100138584D01*
X153934409Y-100136729D01*
X153934414Y-100136728D01*
X154115693Y-100075192D01*
X154115698Y-100075190D01*
X154121165Y-100073334D01*
X154298276Y-99974147D01*
X154337969Y-99941135D01*
X154449913Y-99848031D01*
X154454345Y-99844345D01*
X154507537Y-99780389D01*
X154580453Y-99692718D01*
X154580455Y-99692715D01*
X154584147Y-99688276D01*
X154683334Y-99511165D01*
X154685190Y-99505698D01*
X154685192Y-99505693D01*
X154746728Y-99324414D01*
X154746729Y-99324409D01*
X154748584Y-99318945D01*
X154749412Y-99313236D01*
X154749413Y-99313231D01*
X154777179Y-99121727D01*
X154777712Y-99118053D01*
X154779232Y-99060000D01*
X154776564Y-99030964D01*
X155101148Y-99030964D01*
X155114424Y-99233522D01*
X155115845Y-99239118D01*
X155115846Y-99239123D01*
X155134863Y-99314000D01*
X155164392Y-99430269D01*
X155166809Y-99435512D01*
X155204010Y-99516208D01*
X155249377Y-99614616D01*
X155366533Y-99780389D01*
X155511938Y-99922035D01*
X155680720Y-100034812D01*
X155686023Y-100037090D01*
X155686026Y-100037092D01*
X155861921Y-100112662D01*
X155867228Y-100114942D01*
X155940244Y-100131464D01*
X156059579Y-100158467D01*
X156059584Y-100158468D01*
X156065216Y-100159742D01*
X156070987Y-100159969D01*
X156070989Y-100159969D01*
X156130756Y-100162317D01*
X156268053Y-100167712D01*
X156375348Y-100152155D01*
X156463231Y-100139413D01*
X156463236Y-100139412D01*
X156468945Y-100138584D01*
X156474409Y-100136729D01*
X156474414Y-100136728D01*
X156655693Y-100075192D01*
X156655698Y-100075190D01*
X156661165Y-100073334D01*
X156838276Y-99974147D01*
X156877969Y-99941135D01*
X156989913Y-99848031D01*
X156994345Y-99844345D01*
X157047537Y-99780389D01*
X157120453Y-99692718D01*
X157120455Y-99692715D01*
X157124147Y-99688276D01*
X157223334Y-99511165D01*
X157225190Y-99505698D01*
X157225192Y-99505693D01*
X157286728Y-99324414D01*
X157286729Y-99324409D01*
X157288584Y-99318945D01*
X157289412Y-99313236D01*
X157289413Y-99313231D01*
X157317179Y-99121727D01*
X157317712Y-99118053D01*
X157319232Y-99060000D01*
X157316564Y-99030964D01*
X157641148Y-99030964D01*
X157654424Y-99233522D01*
X157655845Y-99239118D01*
X157655846Y-99239123D01*
X157674863Y-99314000D01*
X157704392Y-99430269D01*
X157706809Y-99435512D01*
X157744010Y-99516208D01*
X157789377Y-99614616D01*
X157906533Y-99780389D01*
X158051938Y-99922035D01*
X158220720Y-100034812D01*
X158226023Y-100037090D01*
X158226026Y-100037092D01*
X158401921Y-100112662D01*
X158407228Y-100114942D01*
X158480244Y-100131464D01*
X158599579Y-100158467D01*
X158599584Y-100158468D01*
X158605216Y-100159742D01*
X158610987Y-100159969D01*
X158610989Y-100159969D01*
X158670756Y-100162317D01*
X158808053Y-100167712D01*
X158915348Y-100152155D01*
X159003231Y-100139413D01*
X159003236Y-100139412D01*
X159008945Y-100138584D01*
X159014409Y-100136729D01*
X159014414Y-100136728D01*
X159195693Y-100075192D01*
X159195698Y-100075190D01*
X159201165Y-100073334D01*
X159378276Y-99974147D01*
X159417969Y-99941135D01*
X159529913Y-99848031D01*
X159534345Y-99844345D01*
X159587537Y-99780389D01*
X159660453Y-99692718D01*
X159660455Y-99692715D01*
X159664147Y-99688276D01*
X159763334Y-99511165D01*
X159765190Y-99505698D01*
X159765192Y-99505693D01*
X159826728Y-99324414D01*
X159826729Y-99324409D01*
X159828584Y-99318945D01*
X159829412Y-99313236D01*
X159829413Y-99313231D01*
X159857179Y-99121727D01*
X159857712Y-99118053D01*
X159859232Y-99060000D01*
X159856564Y-99030964D01*
X160181148Y-99030964D01*
X160194424Y-99233522D01*
X160195845Y-99239118D01*
X160195846Y-99239123D01*
X160214863Y-99314000D01*
X160244392Y-99430269D01*
X160246809Y-99435512D01*
X160284010Y-99516208D01*
X160329377Y-99614616D01*
X160446533Y-99780389D01*
X160591938Y-99922035D01*
X160760720Y-100034812D01*
X160766023Y-100037090D01*
X160766026Y-100037092D01*
X160941921Y-100112662D01*
X160947228Y-100114942D01*
X161020244Y-100131464D01*
X161139579Y-100158467D01*
X161139584Y-100158468D01*
X161145216Y-100159742D01*
X161150987Y-100159969D01*
X161150989Y-100159969D01*
X161210756Y-100162317D01*
X161348053Y-100167712D01*
X161455348Y-100152155D01*
X161543231Y-100139413D01*
X161543236Y-100139412D01*
X161548945Y-100138584D01*
X161554409Y-100136729D01*
X161554414Y-100136728D01*
X161735693Y-100075192D01*
X161735698Y-100075190D01*
X161741165Y-100073334D01*
X161918276Y-99974147D01*
X161957969Y-99941135D01*
X162069913Y-99848031D01*
X162074345Y-99844345D01*
X162127537Y-99780389D01*
X162200453Y-99692718D01*
X162200455Y-99692715D01*
X162204147Y-99688276D01*
X162303334Y-99511165D01*
X162305190Y-99505698D01*
X162305192Y-99505693D01*
X162366728Y-99324414D01*
X162366729Y-99324409D01*
X162368584Y-99318945D01*
X162369412Y-99313236D01*
X162369413Y-99313231D01*
X162397179Y-99121727D01*
X162397712Y-99118053D01*
X162399232Y-99060000D01*
X162396564Y-99030964D01*
X162721148Y-99030964D01*
X162734424Y-99233522D01*
X162735845Y-99239118D01*
X162735846Y-99239123D01*
X162754863Y-99314000D01*
X162784392Y-99430269D01*
X162786809Y-99435512D01*
X162824010Y-99516208D01*
X162869377Y-99614616D01*
X162986533Y-99780389D01*
X163131938Y-99922035D01*
X163300720Y-100034812D01*
X163306023Y-100037090D01*
X163306026Y-100037092D01*
X163481921Y-100112662D01*
X163487228Y-100114942D01*
X163560244Y-100131464D01*
X163679579Y-100158467D01*
X163679584Y-100158468D01*
X163685216Y-100159742D01*
X163690987Y-100159969D01*
X163690989Y-100159969D01*
X163750756Y-100162317D01*
X163888053Y-100167712D01*
X163995348Y-100152155D01*
X164083231Y-100139413D01*
X164083236Y-100139412D01*
X164088945Y-100138584D01*
X164094409Y-100136729D01*
X164094414Y-100136728D01*
X164275693Y-100075192D01*
X164275698Y-100075190D01*
X164281165Y-100073334D01*
X164458276Y-99974147D01*
X164497969Y-99941135D01*
X164609913Y-99848031D01*
X164614345Y-99844345D01*
X164667537Y-99780389D01*
X164740453Y-99692718D01*
X164740455Y-99692715D01*
X164744147Y-99688276D01*
X164843334Y-99511165D01*
X164845190Y-99505698D01*
X164845192Y-99505693D01*
X164906728Y-99324414D01*
X164906729Y-99324409D01*
X164908584Y-99318945D01*
X164909412Y-99313236D01*
X164909413Y-99313231D01*
X164937179Y-99121727D01*
X164937712Y-99118053D01*
X164939232Y-99060000D01*
X164936564Y-99030964D01*
X165261148Y-99030964D01*
X165274424Y-99233522D01*
X165275845Y-99239118D01*
X165275846Y-99239123D01*
X165294863Y-99314000D01*
X165324392Y-99430269D01*
X165326809Y-99435512D01*
X165364010Y-99516208D01*
X165409377Y-99614616D01*
X165526533Y-99780389D01*
X165671938Y-99922035D01*
X165840720Y-100034812D01*
X165846023Y-100037090D01*
X165846026Y-100037092D01*
X166021921Y-100112662D01*
X166027228Y-100114942D01*
X166100244Y-100131464D01*
X166219579Y-100158467D01*
X166219584Y-100158468D01*
X166225216Y-100159742D01*
X166230987Y-100159969D01*
X166230989Y-100159969D01*
X166290756Y-100162317D01*
X166428053Y-100167712D01*
X166535348Y-100152155D01*
X166623231Y-100139413D01*
X166623236Y-100139412D01*
X166628945Y-100138584D01*
X166634409Y-100136729D01*
X166634414Y-100136728D01*
X166815693Y-100075192D01*
X166815698Y-100075190D01*
X166821165Y-100073334D01*
X166998276Y-99974147D01*
X167037969Y-99941135D01*
X167149913Y-99848031D01*
X167154345Y-99844345D01*
X167207537Y-99780389D01*
X167280453Y-99692718D01*
X167280455Y-99692715D01*
X167284147Y-99688276D01*
X167383334Y-99511165D01*
X167385190Y-99505698D01*
X167385192Y-99505693D01*
X167446728Y-99324414D01*
X167446729Y-99324409D01*
X167448584Y-99318945D01*
X167449412Y-99313236D01*
X167449413Y-99313231D01*
X167477179Y-99121727D01*
X167477712Y-99118053D01*
X167479232Y-99060000D01*
X167476564Y-99030964D01*
X167801148Y-99030964D01*
X167814424Y-99233522D01*
X167815845Y-99239118D01*
X167815846Y-99239123D01*
X167834863Y-99314000D01*
X167864392Y-99430269D01*
X167866809Y-99435512D01*
X167904010Y-99516208D01*
X167949377Y-99614616D01*
X168066533Y-99780389D01*
X168211938Y-99922035D01*
X168380720Y-100034812D01*
X168386023Y-100037090D01*
X168386026Y-100037092D01*
X168561921Y-100112662D01*
X168567228Y-100114942D01*
X168640244Y-100131464D01*
X168759579Y-100158467D01*
X168759584Y-100158468D01*
X168765216Y-100159742D01*
X168770987Y-100159969D01*
X168770989Y-100159969D01*
X168830756Y-100162317D01*
X168968053Y-100167712D01*
X169075348Y-100152155D01*
X169163231Y-100139413D01*
X169163236Y-100139412D01*
X169168945Y-100138584D01*
X169174409Y-100136729D01*
X169174414Y-100136728D01*
X169355693Y-100075192D01*
X169355698Y-100075190D01*
X169361165Y-100073334D01*
X169538276Y-99974147D01*
X169577969Y-99941135D01*
X169689913Y-99848031D01*
X169694345Y-99844345D01*
X169747537Y-99780389D01*
X169820453Y-99692718D01*
X169820455Y-99692715D01*
X169824147Y-99688276D01*
X169923334Y-99511165D01*
X169925190Y-99505698D01*
X169925192Y-99505693D01*
X169986728Y-99324414D01*
X169986729Y-99324409D01*
X169988584Y-99318945D01*
X169989412Y-99313236D01*
X169989413Y-99313231D01*
X170017179Y-99121727D01*
X170017712Y-99118053D01*
X170019232Y-99060000D01*
X170000658Y-98857859D01*
X169999090Y-98852299D01*
X169947125Y-98668046D01*
X169947124Y-98668044D01*
X169945557Y-98662487D01*
X169934978Y-98641033D01*
X169858331Y-98485609D01*
X169855776Y-98480428D01*
X169734320Y-98317779D01*
X169590609Y-98184933D01*
X170345500Y-98184933D01*
X170345501Y-99935066D01*
X170352129Y-99968391D01*
X170355057Y-99983109D01*
X170360266Y-100009301D01*
X170367161Y-100019620D01*
X170367162Y-100019622D01*
X170405300Y-100076698D01*
X170416516Y-100093484D01*
X170500699Y-100149734D01*
X170574933Y-100164500D01*
X171449858Y-100164500D01*
X172325066Y-100164499D01*
X172360818Y-100157388D01*
X172387126Y-100152156D01*
X172387128Y-100152155D01*
X172399301Y-100149734D01*
X172409621Y-100142839D01*
X172409622Y-100142838D01*
X172473168Y-100100377D01*
X172483484Y-100093484D01*
X172539734Y-100009301D01*
X172554500Y-99935067D01*
X172554499Y-98184934D01*
X172539734Y-98110699D01*
X172513654Y-98071667D01*
X172490377Y-98036832D01*
X172483484Y-98026516D01*
X172399301Y-97970266D01*
X172325067Y-97955500D01*
X171450142Y-97955500D01*
X170574934Y-97955501D01*
X170539182Y-97962612D01*
X170512874Y-97967844D01*
X170512872Y-97967845D01*
X170500699Y-97970266D01*
X170490379Y-97977161D01*
X170490378Y-97977162D01*
X170441891Y-98009561D01*
X170416516Y-98026516D01*
X170360266Y-98110699D01*
X170345500Y-98184933D01*
X169590609Y-98184933D01*
X169585258Y-98179987D01*
X169580375Y-98176906D01*
X169580371Y-98176903D01*
X169418464Y-98074748D01*
X169413581Y-98071667D01*
X169225039Y-97996446D01*
X169219379Y-97995320D01*
X169219375Y-97995319D01*
X169031613Y-97957971D01*
X169031610Y-97957971D01*
X169025946Y-97956844D01*
X169020171Y-97956768D01*
X169020167Y-97956768D01*
X168918793Y-97955441D01*
X168822971Y-97954187D01*
X168817274Y-97955166D01*
X168817273Y-97955166D01*
X168628607Y-97987585D01*
X168622910Y-97988564D01*
X168432463Y-98058824D01*
X168258010Y-98162612D01*
X168253670Y-98166418D01*
X168253666Y-98166421D01*
X168109733Y-98292648D01*
X168105392Y-98296455D01*
X167979720Y-98455869D01*
X167977031Y-98460980D01*
X167977029Y-98460983D01*
X167964073Y-98485609D01*
X167885203Y-98635515D01*
X167825007Y-98829378D01*
X167801148Y-99030964D01*
X167476564Y-99030964D01*
X167460658Y-98857859D01*
X167459090Y-98852299D01*
X167407125Y-98668046D01*
X167407124Y-98668044D01*
X167405557Y-98662487D01*
X167394978Y-98641033D01*
X167318331Y-98485609D01*
X167315776Y-98480428D01*
X167194320Y-98317779D01*
X167045258Y-98179987D01*
X167040375Y-98176906D01*
X167040371Y-98176903D01*
X166878464Y-98074748D01*
X166873581Y-98071667D01*
X166685039Y-97996446D01*
X166679379Y-97995320D01*
X166679375Y-97995319D01*
X166491613Y-97957971D01*
X166491610Y-97957971D01*
X166485946Y-97956844D01*
X166480171Y-97956768D01*
X166480167Y-97956768D01*
X166378793Y-97955441D01*
X166282971Y-97954187D01*
X166277274Y-97955166D01*
X166277273Y-97955166D01*
X166088607Y-97987585D01*
X166082910Y-97988564D01*
X165892463Y-98058824D01*
X165718010Y-98162612D01*
X165713670Y-98166418D01*
X165713666Y-98166421D01*
X165569733Y-98292648D01*
X165565392Y-98296455D01*
X165439720Y-98455869D01*
X165437031Y-98460980D01*
X165437029Y-98460983D01*
X165424073Y-98485609D01*
X165345203Y-98635515D01*
X165285007Y-98829378D01*
X165261148Y-99030964D01*
X164936564Y-99030964D01*
X164920658Y-98857859D01*
X164919090Y-98852299D01*
X164867125Y-98668046D01*
X164867124Y-98668044D01*
X164865557Y-98662487D01*
X164854978Y-98641033D01*
X164778331Y-98485609D01*
X164775776Y-98480428D01*
X164654320Y-98317779D01*
X164505258Y-98179987D01*
X164500375Y-98176906D01*
X164500371Y-98176903D01*
X164338464Y-98074748D01*
X164333581Y-98071667D01*
X164145039Y-97996446D01*
X164139379Y-97995320D01*
X164139375Y-97995319D01*
X163951613Y-97957971D01*
X163951610Y-97957971D01*
X163945946Y-97956844D01*
X163940171Y-97956768D01*
X163940167Y-97956768D01*
X163838793Y-97955441D01*
X163742971Y-97954187D01*
X163737274Y-97955166D01*
X163737273Y-97955166D01*
X163548607Y-97987585D01*
X163542910Y-97988564D01*
X163352463Y-98058824D01*
X163178010Y-98162612D01*
X163173670Y-98166418D01*
X163173666Y-98166421D01*
X163029733Y-98292648D01*
X163025392Y-98296455D01*
X162899720Y-98455869D01*
X162897031Y-98460980D01*
X162897029Y-98460983D01*
X162884073Y-98485609D01*
X162805203Y-98635515D01*
X162745007Y-98829378D01*
X162721148Y-99030964D01*
X162396564Y-99030964D01*
X162380658Y-98857859D01*
X162379090Y-98852299D01*
X162327125Y-98668046D01*
X162327124Y-98668044D01*
X162325557Y-98662487D01*
X162314978Y-98641033D01*
X162238331Y-98485609D01*
X162235776Y-98480428D01*
X162114320Y-98317779D01*
X161965258Y-98179987D01*
X161960375Y-98176906D01*
X161960371Y-98176903D01*
X161798464Y-98074748D01*
X161793581Y-98071667D01*
X161605039Y-97996446D01*
X161599379Y-97995320D01*
X161599375Y-97995319D01*
X161411613Y-97957971D01*
X161411610Y-97957971D01*
X161405946Y-97956844D01*
X161400171Y-97956768D01*
X161400167Y-97956768D01*
X161298793Y-97955441D01*
X161202971Y-97954187D01*
X161197274Y-97955166D01*
X161197273Y-97955166D01*
X161008607Y-97987585D01*
X161002910Y-97988564D01*
X160812463Y-98058824D01*
X160638010Y-98162612D01*
X160633670Y-98166418D01*
X160633666Y-98166421D01*
X160489733Y-98292648D01*
X160485392Y-98296455D01*
X160359720Y-98455869D01*
X160357031Y-98460980D01*
X160357029Y-98460983D01*
X160344073Y-98485609D01*
X160265203Y-98635515D01*
X160205007Y-98829378D01*
X160181148Y-99030964D01*
X159856564Y-99030964D01*
X159840658Y-98857859D01*
X159839090Y-98852299D01*
X159787125Y-98668046D01*
X159787124Y-98668044D01*
X159785557Y-98662487D01*
X159774978Y-98641033D01*
X159698331Y-98485609D01*
X159695776Y-98480428D01*
X159574320Y-98317779D01*
X159425258Y-98179987D01*
X159420375Y-98176906D01*
X159420371Y-98176903D01*
X159258464Y-98074748D01*
X159253581Y-98071667D01*
X159065039Y-97996446D01*
X159059379Y-97995320D01*
X159059375Y-97995319D01*
X158871613Y-97957971D01*
X158871610Y-97957971D01*
X158865946Y-97956844D01*
X158860171Y-97956768D01*
X158860167Y-97956768D01*
X158758793Y-97955441D01*
X158662971Y-97954187D01*
X158657274Y-97955166D01*
X158657273Y-97955166D01*
X158468607Y-97987585D01*
X158462910Y-97988564D01*
X158272463Y-98058824D01*
X158098010Y-98162612D01*
X158093670Y-98166418D01*
X158093666Y-98166421D01*
X157949733Y-98292648D01*
X157945392Y-98296455D01*
X157819720Y-98455869D01*
X157817031Y-98460980D01*
X157817029Y-98460983D01*
X157804073Y-98485609D01*
X157725203Y-98635515D01*
X157665007Y-98829378D01*
X157641148Y-99030964D01*
X157316564Y-99030964D01*
X157300658Y-98857859D01*
X157299090Y-98852299D01*
X157247125Y-98668046D01*
X157247124Y-98668044D01*
X157245557Y-98662487D01*
X157234978Y-98641033D01*
X157158331Y-98485609D01*
X157155776Y-98480428D01*
X157034320Y-98317779D01*
X156885258Y-98179987D01*
X156880375Y-98176906D01*
X156880371Y-98176903D01*
X156718464Y-98074748D01*
X156713581Y-98071667D01*
X156525039Y-97996446D01*
X156519379Y-97995320D01*
X156519375Y-97995319D01*
X156331613Y-97957971D01*
X156331610Y-97957971D01*
X156325946Y-97956844D01*
X156320171Y-97956768D01*
X156320167Y-97956768D01*
X156218793Y-97955441D01*
X156122971Y-97954187D01*
X156117274Y-97955166D01*
X156117273Y-97955166D01*
X155928607Y-97987585D01*
X155922910Y-97988564D01*
X155732463Y-98058824D01*
X155558010Y-98162612D01*
X155553670Y-98166418D01*
X155553666Y-98166421D01*
X155409733Y-98292648D01*
X155405392Y-98296455D01*
X155279720Y-98455869D01*
X155277031Y-98460980D01*
X155277029Y-98460983D01*
X155264073Y-98485609D01*
X155185203Y-98635515D01*
X155125007Y-98829378D01*
X155101148Y-99030964D01*
X154776564Y-99030964D01*
X154760658Y-98857859D01*
X154759090Y-98852299D01*
X154707125Y-98668046D01*
X154707124Y-98668044D01*
X154705557Y-98662487D01*
X154694978Y-98641033D01*
X154618331Y-98485609D01*
X154615776Y-98480428D01*
X154494320Y-98317779D01*
X154345258Y-98179987D01*
X154340375Y-98176906D01*
X154340371Y-98176903D01*
X154178464Y-98074748D01*
X154173581Y-98071667D01*
X153985039Y-97996446D01*
X153979379Y-97995320D01*
X153979375Y-97995319D01*
X153791613Y-97957971D01*
X153791610Y-97957971D01*
X153785946Y-97956844D01*
X153780171Y-97956768D01*
X153780167Y-97956768D01*
X153678793Y-97955441D01*
X153582971Y-97954187D01*
X153577274Y-97955166D01*
X153577273Y-97955166D01*
X153388607Y-97987585D01*
X153382910Y-97988564D01*
X153192463Y-98058824D01*
X153018010Y-98162612D01*
X153013670Y-98166418D01*
X153013666Y-98166421D01*
X152869733Y-98292648D01*
X152865392Y-98296455D01*
X152739720Y-98455869D01*
X152737031Y-98460980D01*
X152737029Y-98460983D01*
X152724073Y-98485609D01*
X152645203Y-98635515D01*
X152585007Y-98829378D01*
X152561148Y-99030964D01*
X152236564Y-99030964D01*
X152220658Y-98857859D01*
X152219090Y-98852299D01*
X152167125Y-98668046D01*
X152167124Y-98668044D01*
X152165557Y-98662487D01*
X152154978Y-98641033D01*
X152078331Y-98485609D01*
X152075776Y-98480428D01*
X151954320Y-98317779D01*
X151805258Y-98179987D01*
X151800375Y-98176906D01*
X151800371Y-98176903D01*
X151638464Y-98074748D01*
X151633581Y-98071667D01*
X151445039Y-97996446D01*
X151439379Y-97995320D01*
X151439375Y-97995319D01*
X151251613Y-97957971D01*
X151251610Y-97957971D01*
X151245946Y-97956844D01*
X151240171Y-97956768D01*
X151240167Y-97956768D01*
X151138793Y-97955441D01*
X151042971Y-97954187D01*
X151037274Y-97955166D01*
X151037273Y-97955166D01*
X150848607Y-97987585D01*
X150842910Y-97988564D01*
X150652463Y-98058824D01*
X150478010Y-98162612D01*
X150473670Y-98166418D01*
X150473666Y-98166421D01*
X150329733Y-98292648D01*
X150325392Y-98296455D01*
X150199720Y-98455869D01*
X150197031Y-98460980D01*
X150197029Y-98460983D01*
X150184073Y-98485609D01*
X150105203Y-98635515D01*
X150045007Y-98829378D01*
X150021148Y-99030964D01*
X149696564Y-99030964D01*
X149680658Y-98857859D01*
X149679090Y-98852299D01*
X149627125Y-98668046D01*
X149627124Y-98668044D01*
X149625557Y-98662487D01*
X149614978Y-98641033D01*
X149538331Y-98485609D01*
X149535776Y-98480428D01*
X149414320Y-98317779D01*
X149265258Y-98179987D01*
X149260375Y-98176906D01*
X149260371Y-98176903D01*
X149098464Y-98074748D01*
X149093581Y-98071667D01*
X148905039Y-97996446D01*
X148899379Y-97995320D01*
X148899375Y-97995319D01*
X148711613Y-97957971D01*
X148711610Y-97957971D01*
X148705946Y-97956844D01*
X148700171Y-97956768D01*
X148700167Y-97956768D01*
X148598793Y-97955441D01*
X148502971Y-97954187D01*
X148497274Y-97955166D01*
X148497273Y-97955166D01*
X148308607Y-97987585D01*
X148302910Y-97988564D01*
X148112463Y-98058824D01*
X147938010Y-98162612D01*
X147933670Y-98166418D01*
X147933666Y-98166421D01*
X147789733Y-98292648D01*
X147785392Y-98296455D01*
X147659720Y-98455869D01*
X147657031Y-98460980D01*
X147657029Y-98460983D01*
X147644073Y-98485609D01*
X147565203Y-98635515D01*
X147505007Y-98829378D01*
X147481148Y-99030964D01*
X147156564Y-99030964D01*
X147140658Y-98857859D01*
X147139090Y-98852299D01*
X147087125Y-98668046D01*
X147087124Y-98668044D01*
X147085557Y-98662487D01*
X147074978Y-98641033D01*
X146998331Y-98485609D01*
X146995776Y-98480428D01*
X146874320Y-98317779D01*
X146725258Y-98179987D01*
X146720375Y-98176906D01*
X146720371Y-98176903D01*
X146558464Y-98074748D01*
X146553581Y-98071667D01*
X146365039Y-97996446D01*
X146359379Y-97995320D01*
X146359375Y-97995319D01*
X146171613Y-97957971D01*
X146171610Y-97957971D01*
X146165946Y-97956844D01*
X146160171Y-97956768D01*
X146160167Y-97956768D01*
X146058793Y-97955441D01*
X145962971Y-97954187D01*
X145957274Y-97955166D01*
X145957273Y-97955166D01*
X145768607Y-97987585D01*
X145762910Y-97988564D01*
X145572463Y-98058824D01*
X145398010Y-98162612D01*
X145393670Y-98166418D01*
X145393666Y-98166421D01*
X145249733Y-98292648D01*
X145245392Y-98296455D01*
X145119720Y-98455869D01*
X145117031Y-98460980D01*
X145117029Y-98460983D01*
X145104073Y-98485609D01*
X145025203Y-98635515D01*
X144965007Y-98829378D01*
X144941148Y-99030964D01*
X144616564Y-99030964D01*
X144600658Y-98857859D01*
X144599090Y-98852299D01*
X144547125Y-98668046D01*
X144547124Y-98668044D01*
X144545557Y-98662487D01*
X144534978Y-98641033D01*
X144458331Y-98485609D01*
X144455776Y-98480428D01*
X144334320Y-98317779D01*
X144185258Y-98179987D01*
X144180375Y-98176906D01*
X144180371Y-98176903D01*
X144018464Y-98074748D01*
X144013581Y-98071667D01*
X143825039Y-97996446D01*
X143819379Y-97995320D01*
X143819375Y-97995319D01*
X143631613Y-97957971D01*
X143631610Y-97957971D01*
X143625946Y-97956844D01*
X143620171Y-97956768D01*
X143620167Y-97956768D01*
X143518793Y-97955441D01*
X143422971Y-97954187D01*
X143417274Y-97955166D01*
X143417273Y-97955166D01*
X143228607Y-97987585D01*
X143222910Y-97988564D01*
X143032463Y-98058824D01*
X142858010Y-98162612D01*
X142853670Y-98166418D01*
X142853666Y-98166421D01*
X142709733Y-98292648D01*
X142705392Y-98296455D01*
X142579720Y-98455869D01*
X142577031Y-98460980D01*
X142577029Y-98460983D01*
X142487589Y-98630980D01*
X142438170Y-98681952D01*
X142369037Y-98698115D01*
X142302141Y-98674336D01*
X142262003Y-98619973D01*
X142259955Y-98620863D01*
X142172972Y-98420814D01*
X142168105Y-98411739D01*
X142052426Y-98232926D01*
X142046136Y-98224757D01*
X141902806Y-98067240D01*
X141895273Y-98060215D01*
X141728139Y-97928222D01*
X141719552Y-97922517D01*
X141533117Y-97819599D01*
X141523705Y-97815369D01*
X141322959Y-97744280D01*
X141312988Y-97741646D01*
X141241837Y-97728972D01*
X141228540Y-97730432D01*
X141224000Y-97744989D01*
X141224000Y-99188000D01*
X141203998Y-99256121D01*
X141150342Y-99302614D01*
X141098000Y-99314000D01*
X140842000Y-99314000D01*
X140773879Y-99293998D01*
X140727386Y-99240342D01*
X140716000Y-99188000D01*
X140716000Y-97743102D01*
X140712082Y-97729758D01*
X140697806Y-97727771D01*
X140659324Y-97733660D01*
X140649288Y-97736051D01*
X140446868Y-97802212D01*
X140437359Y-97806209D01*
X140248463Y-97904542D01*
X140239738Y-97910036D01*
X140069433Y-98037905D01*
X140061726Y-98044748D01*
X139914590Y-98198717D01*
X139908104Y-98206727D01*
X139788098Y-98382649D01*
X139783000Y-98391623D01*
X139693338Y-98584783D01*
X139689777Y-98594464D01*
X139685291Y-98610640D01*
X139647813Y-98670939D01*
X139583684Y-98701403D01*
X139513266Y-98692360D01*
X139458915Y-98646682D01*
X139450867Y-98632698D01*
X139378331Y-98485609D01*
X139375776Y-98480428D01*
X139254320Y-98317779D01*
X139105258Y-98179987D01*
X139100375Y-98176906D01*
X139100371Y-98176903D01*
X138938464Y-98074748D01*
X138933581Y-98071667D01*
X138745039Y-97996446D01*
X138739379Y-97995320D01*
X138739375Y-97995319D01*
X138551613Y-97957971D01*
X138551610Y-97957971D01*
X138545946Y-97956844D01*
X138540171Y-97956768D01*
X138540167Y-97956768D01*
X138438793Y-97955441D01*
X138342971Y-97954187D01*
X138337274Y-97955166D01*
X138337273Y-97955166D01*
X138148607Y-97987585D01*
X138142910Y-97988564D01*
X137952463Y-98058824D01*
X137778010Y-98162612D01*
X137773670Y-98166418D01*
X137773666Y-98166421D01*
X137629733Y-98292648D01*
X137625392Y-98296455D01*
X137499720Y-98455869D01*
X137497031Y-98460980D01*
X137497029Y-98460983D01*
X137484073Y-98485609D01*
X137405203Y-98635515D01*
X137345007Y-98829378D01*
X137321148Y-99030964D01*
X137334424Y-99233522D01*
X137335845Y-99239118D01*
X137335846Y-99239123D01*
X137354863Y-99314000D01*
X137384392Y-99430269D01*
X137386809Y-99435512D01*
X137424010Y-99516208D01*
X137469377Y-99614616D01*
X137472710Y-99619332D01*
X137537339Y-99710781D01*
X137560320Y-99777956D01*
X137543335Y-99846891D01*
X137491778Y-99895700D01*
X137434442Y-99909501D01*
X137367136Y-99909501D01*
X137299015Y-99889499D01*
X137278041Y-99872597D01*
X137123109Y-99717665D01*
X136962101Y-99556658D01*
X136928076Y-99494345D01*
X136931883Y-99427063D01*
X136968584Y-99318945D01*
X136969412Y-99313236D01*
X136969413Y-99313231D01*
X136997179Y-99121727D01*
X136997712Y-99118053D01*
X136999232Y-99060000D01*
X136980658Y-98857859D01*
X136979090Y-98852299D01*
X136927125Y-98668046D01*
X136927124Y-98668044D01*
X136925557Y-98662487D01*
X136914978Y-98641033D01*
X136838331Y-98485609D01*
X136835776Y-98480428D01*
X136714320Y-98317779D01*
X136565258Y-98179987D01*
X136560375Y-98176906D01*
X136560371Y-98176903D01*
X136398464Y-98074748D01*
X136393581Y-98071667D01*
X136205039Y-97996446D01*
X136199379Y-97995320D01*
X136199375Y-97995319D01*
X136011613Y-97957971D01*
X136011610Y-97957971D01*
X136005946Y-97956844D01*
X136000171Y-97956768D01*
X136000167Y-97956768D01*
X135898793Y-97955441D01*
X135802971Y-97954187D01*
X135797274Y-97955166D01*
X135797273Y-97955166D01*
X135608607Y-97987585D01*
X135602910Y-97988564D01*
X135412463Y-98058824D01*
X135238010Y-98162612D01*
X135233670Y-98166418D01*
X135233666Y-98166421D01*
X135089733Y-98292648D01*
X135085392Y-98296455D01*
X134959720Y-98455869D01*
X134957031Y-98460980D01*
X134957029Y-98460983D01*
X134944073Y-98485609D01*
X134865203Y-98635515D01*
X134805007Y-98829378D01*
X134781148Y-99030964D01*
X134794424Y-99233522D01*
X134795845Y-99239118D01*
X134795846Y-99239123D01*
X134814863Y-99314000D01*
X134844392Y-99430269D01*
X134846809Y-99435512D01*
X134884010Y-99516208D01*
X134929377Y-99614616D01*
X135046533Y-99780389D01*
X135191938Y-99922035D01*
X135360720Y-100034812D01*
X135366023Y-100037090D01*
X135366026Y-100037092D01*
X135541921Y-100112662D01*
X135547228Y-100114942D01*
X135620244Y-100131464D01*
X135739579Y-100158467D01*
X135739584Y-100158468D01*
X135745216Y-100159742D01*
X135750987Y-100159969D01*
X135750989Y-100159969D01*
X135810756Y-100162317D01*
X135948053Y-100167712D01*
X136055348Y-100152155D01*
X136143231Y-100139413D01*
X136143236Y-100139412D01*
X136148945Y-100138584D01*
X136257063Y-100101883D01*
X136327995Y-100098927D01*
X136386658Y-100132101D01*
X136881322Y-100626766D01*
X136881337Y-100626780D01*
X136904250Y-100649693D01*
X136924306Y-100659912D01*
X136941149Y-100670234D01*
X136959369Y-100683471D01*
X136980778Y-100690427D01*
X136999041Y-100697992D01*
X137019095Y-100708210D01*
X137028887Y-100709761D01*
X137041331Y-100711732D01*
X137060550Y-100716346D01*
X137081954Y-100723300D01*
X137114373Y-100723300D01*
X137114377Y-100723301D01*
X140403190Y-100723301D01*
X140471311Y-100743303D01*
X140492285Y-100760206D01*
X141902484Y-102170405D01*
X141936510Y-102232717D01*
X141931445Y-102303532D01*
X141888898Y-102360368D01*
X141822378Y-102385179D01*
X141813389Y-102385500D01*
X139249292Y-102385501D01*
X139190934Y-102385501D01*
X139155182Y-102392612D01*
X139128874Y-102397844D01*
X139128872Y-102397845D01*
X139116699Y-102400266D01*
X139106379Y-102407161D01*
X139106378Y-102407162D01*
X139045985Y-102447516D01*
X139032516Y-102456516D01*
X138976266Y-102540699D01*
X138961500Y-102614933D01*
X138961500Y-103505500D01*
X138941498Y-103573621D01*
X138887842Y-103620114D01*
X138835500Y-103631500D01*
X133593472Y-103631500D01*
X133581342Y-103630145D01*
X133581303Y-103630627D01*
X133572356Y-103629907D01*
X133563600Y-103627926D01*
X133520063Y-103630627D01*
X133509892Y-103631258D01*
X133502090Y-103631500D01*
X133485887Y-103631500D01*
X133476971Y-103632777D01*
X133475522Y-103632984D01*
X133465472Y-103634013D01*
X133427615Y-103636362D01*
X133418223Y-103636945D01*
X133409777Y-103639994D01*
X133406886Y-103640593D01*
X133389920Y-103644822D01*
X133387095Y-103645648D01*
X133378213Y-103646920D01*
X133335102Y-103666522D01*
X133325753Y-103670327D01*
X133281219Y-103686404D01*
X133273971Y-103691699D01*
X133271373Y-103693080D01*
X133256255Y-103701915D01*
X133253786Y-103703494D01*
X133245618Y-103707208D01*
X133238822Y-103713064D01*
X133209748Y-103738115D01*
X133201831Y-103744401D01*
X133194785Y-103749548D01*
X133194780Y-103749553D01*
X133190848Y-103752425D01*
X133179873Y-103763400D01*
X133173026Y-103769758D01*
X133135273Y-103802287D01*
X133130389Y-103809822D01*
X133124942Y-103816066D01*
X133115342Y-103827931D01*
X132243542Y-104699731D01*
X132181230Y-104733757D01*
X132133006Y-104734040D01*
X132132985Y-104734244D01*
X132131149Y-104734051D01*
X132017993Y-104722158D01*
X131940860Y-104714051D01*
X131940858Y-104714051D01*
X131934731Y-104713407D01*
X131811852Y-104724590D01*
X131742346Y-104730915D01*
X131742345Y-104730915D01*
X131736205Y-104731474D01*
X131730291Y-104733215D01*
X131730289Y-104733215D01*
X131641090Y-104759468D01*
X131544970Y-104787758D01*
X131368309Y-104880114D01*
X131212951Y-105005025D01*
X131084814Y-105157733D01*
X130988779Y-105332421D01*
X130928502Y-105522435D01*
X130906282Y-105720539D01*
X130408938Y-105720539D01*
X130409018Y-105714800D01*
X130389565Y-105516406D01*
X130387784Y-105510507D01*
X130387783Y-105510502D01*
X130333729Y-105331467D01*
X130331948Y-105325568D01*
X130245578Y-105163129D01*
X130241255Y-105154998D01*
X130241253Y-105154995D01*
X130238361Y-105149556D01*
X130234471Y-105144786D01*
X130234468Y-105144782D01*
X130116263Y-104999849D01*
X130116260Y-104999846D01*
X130112368Y-104995074D01*
X130096107Y-104981621D01*
X129963516Y-104871932D01*
X129963514Y-104871931D01*
X129958770Y-104868006D01*
X129953350Y-104865076D01*
X129951643Y-104863924D01*
X129906352Y-104809250D01*
X129896100Y-104759465D01*
X129896100Y-99030964D01*
X132241148Y-99030964D01*
X132254424Y-99233522D01*
X132255845Y-99239118D01*
X132255846Y-99239123D01*
X132274863Y-99314000D01*
X132304392Y-99430269D01*
X132306809Y-99435512D01*
X132344010Y-99516208D01*
X132389377Y-99614616D01*
X132506533Y-99780389D01*
X132651938Y-99922035D01*
X132820720Y-100034812D01*
X132826023Y-100037090D01*
X132826026Y-100037092D01*
X133001921Y-100112662D01*
X133007228Y-100114942D01*
X133080244Y-100131464D01*
X133199579Y-100158467D01*
X133199584Y-100158468D01*
X133205216Y-100159742D01*
X133210987Y-100159969D01*
X133210989Y-100159969D01*
X133270756Y-100162317D01*
X133408053Y-100167712D01*
X133515348Y-100152155D01*
X133603231Y-100139413D01*
X133603236Y-100139412D01*
X133608945Y-100138584D01*
X133614409Y-100136729D01*
X133614414Y-100136728D01*
X133795693Y-100075192D01*
X133795698Y-100075190D01*
X133801165Y-100073334D01*
X133978276Y-99974147D01*
X134017969Y-99941135D01*
X134129913Y-99848031D01*
X134134345Y-99844345D01*
X134187537Y-99780389D01*
X134260453Y-99692718D01*
X134260455Y-99692715D01*
X134264147Y-99688276D01*
X134363334Y-99511165D01*
X134365190Y-99505698D01*
X134365192Y-99505693D01*
X134426728Y-99324414D01*
X134426729Y-99324409D01*
X134428584Y-99318945D01*
X134429412Y-99313236D01*
X134429413Y-99313231D01*
X134457179Y-99121727D01*
X134457712Y-99118053D01*
X134459232Y-99060000D01*
X134440658Y-98857859D01*
X134439090Y-98852299D01*
X134387125Y-98668046D01*
X134387124Y-98668044D01*
X134385557Y-98662487D01*
X134374978Y-98641033D01*
X134298331Y-98485609D01*
X134295776Y-98480428D01*
X134174320Y-98317779D01*
X134025258Y-98179987D01*
X134020375Y-98176906D01*
X134020371Y-98176903D01*
X133858464Y-98074748D01*
X133853581Y-98071667D01*
X133665039Y-97996446D01*
X133659379Y-97995320D01*
X133659375Y-97995319D01*
X133471613Y-97957971D01*
X133471610Y-97957971D01*
X133465946Y-97956844D01*
X133460171Y-97956768D01*
X133460167Y-97956768D01*
X133358793Y-97955441D01*
X133262971Y-97954187D01*
X133257274Y-97955166D01*
X133257273Y-97955166D01*
X133068607Y-97987585D01*
X133062910Y-97988564D01*
X132872463Y-98058824D01*
X132698010Y-98162612D01*
X132693670Y-98166418D01*
X132693666Y-98166421D01*
X132549733Y-98292648D01*
X132545392Y-98296455D01*
X132419720Y-98455869D01*
X132417031Y-98460980D01*
X132417029Y-98460983D01*
X132404073Y-98485609D01*
X132325203Y-98635515D01*
X132265007Y-98829378D01*
X132241148Y-99030964D01*
X129896100Y-99030964D01*
X129896100Y-98205217D01*
X129916102Y-98137096D01*
X129933005Y-98116122D01*
X138266831Y-89782296D01*
X147467267Y-89782296D01*
X147484146Y-89935183D01*
X147486755Y-89942314D01*
X147486756Y-89942316D01*
X147493863Y-89961735D01*
X147537006Y-90079630D01*
X147541242Y-90085933D01*
X147541242Y-90085934D01*
X147618562Y-90200999D01*
X147618565Y-90201002D01*
X147622796Y-90207299D01*
X147736563Y-90310819D01*
X147871738Y-90384213D01*
X148020519Y-90423245D01*
X148100338Y-90424499D01*
X148166718Y-90425542D01*
X148166721Y-90425542D01*
X148174316Y-90425661D01*
X148181720Y-90423965D01*
X148181722Y-90423965D01*
X148236989Y-90411307D01*
X148324249Y-90391322D01*
X148345587Y-90380590D01*
X148454881Y-90325622D01*
X148454884Y-90325620D01*
X148461664Y-90322210D01*
X148578626Y-90222314D01*
X148668383Y-90097403D01*
X148725755Y-89954688D01*
X148747428Y-89802407D01*
X148747568Y-89789000D01*
X148745846Y-89774765D01*
X148730001Y-89643839D01*
X148729089Y-89636299D01*
X148674719Y-89492413D01*
X148587597Y-89365649D01*
X148581926Y-89360597D01*
X148581924Y-89360594D01*
X148556482Y-89337926D01*
X148518926Y-89277676D01*
X148514300Y-89243849D01*
X148514300Y-83634333D01*
X148534302Y-83566212D01*
X148551205Y-83545238D01*
X148696237Y-83400206D01*
X148758549Y-83366180D01*
X148787311Y-83363317D01*
X148806978Y-83363626D01*
X148852518Y-83364342D01*
X148852521Y-83364342D01*
X148860116Y-83364461D01*
X148867520Y-83362765D01*
X148867522Y-83362765D01*
X148968137Y-83339721D01*
X149010049Y-83330122D01*
X149070857Y-83299539D01*
X149140681Y-83264422D01*
X149140684Y-83264420D01*
X149147464Y-83261010D01*
X149241978Y-83180287D01*
X149258654Y-83166044D01*
X149258655Y-83166043D01*
X149264426Y-83161114D01*
X149354183Y-83036203D01*
X149369005Y-82999334D01*
X149408722Y-82900535D01*
X149411555Y-82893488D01*
X149433228Y-82741207D01*
X149433368Y-82727800D01*
X149431646Y-82713565D01*
X149429483Y-82695696D01*
X155722267Y-82695696D01*
X155739146Y-82848583D01*
X155741755Y-82855714D01*
X155741756Y-82855716D01*
X155758158Y-82900535D01*
X155792006Y-82993030D01*
X155796242Y-82999333D01*
X155796242Y-82999334D01*
X155873562Y-83114399D01*
X155873565Y-83114402D01*
X155877796Y-83120699D01*
X155991563Y-83224219D01*
X156126738Y-83297613D01*
X156275519Y-83336645D01*
X156355338Y-83337899D01*
X156421718Y-83338942D01*
X156421721Y-83338942D01*
X156429316Y-83339061D01*
X156436720Y-83337365D01*
X156436722Y-83337365D01*
X156519881Y-83318319D01*
X156579249Y-83304722D01*
X156655759Y-83266242D01*
X156709881Y-83239022D01*
X156709884Y-83239020D01*
X156716664Y-83235610D01*
X156833626Y-83135714D01*
X156838059Y-83129544D01*
X156842593Y-83124614D01*
X156903426Y-83088009D01*
X156935342Y-83083900D01*
X167433465Y-83083900D01*
X167457764Y-83086486D01*
X167459202Y-83086554D01*
X167469380Y-83088745D01*
X167502941Y-83084773D01*
X167508920Y-83084421D01*
X167508912Y-83084328D01*
X167514090Y-83083900D01*
X167519292Y-83083900D01*
X167538446Y-83080712D01*
X167544304Y-83079878D01*
X167560918Y-83077912D01*
X167585167Y-83075042D01*
X167585168Y-83075042D01*
X167595507Y-83073818D01*
X167603806Y-83069833D01*
X167612883Y-83068322D01*
X167658251Y-83043842D01*
X167663514Y-83041161D01*
X167702850Y-83022273D01*
X167702854Y-83022270D01*
X167709998Y-83018840D01*
X167714292Y-83015230D01*
X167716224Y-83013298D01*
X167718173Y-83011511D01*
X167718226Y-83011482D01*
X167718345Y-83011612D01*
X167718913Y-83011111D01*
X167724657Y-83008012D01*
X167761468Y-82968190D01*
X167764897Y-82964625D01*
X170848117Y-79881405D01*
X170910429Y-79847379D01*
X170937212Y-79844500D01*
X172172401Y-79844499D01*
X172325066Y-79844499D01*
X172360818Y-79837388D01*
X172387126Y-79832156D01*
X172387128Y-79832155D01*
X172399301Y-79829734D01*
X172409621Y-79822839D01*
X172409622Y-79822838D01*
X172473168Y-79780377D01*
X172483484Y-79773484D01*
X172539734Y-79689301D01*
X172554500Y-79615067D01*
X172554499Y-77864934D01*
X172539734Y-77790699D01*
X172513654Y-77751667D01*
X172490377Y-77716832D01*
X172483484Y-77706516D01*
X172399301Y-77650266D01*
X172325067Y-77635500D01*
X171450142Y-77635500D01*
X170574934Y-77635501D01*
X170539182Y-77642612D01*
X170512874Y-77647844D01*
X170512872Y-77647845D01*
X170500699Y-77650266D01*
X170490379Y-77657161D01*
X170490378Y-77657162D01*
X170429985Y-77697516D01*
X170416516Y-77706516D01*
X170360266Y-77790699D01*
X170345500Y-77864933D01*
X170345500Y-77871120D01*
X170345501Y-79252786D01*
X170325499Y-79320907D01*
X170308596Y-79341881D01*
X167366482Y-82283995D01*
X167304170Y-82318021D01*
X167277387Y-82320900D01*
X156935168Y-82320900D01*
X156867047Y-82300898D01*
X156844013Y-82281109D01*
X156842597Y-82279049D01*
X156836934Y-82274003D01*
X156836930Y-82273999D01*
X156752270Y-82198571D01*
X156727753Y-82176727D01*
X156714002Y-82169446D01*
X156598531Y-82108307D01*
X156598528Y-82108306D01*
X156591816Y-82104752D01*
X156442634Y-82067280D01*
X156435036Y-82067240D01*
X156435034Y-82067240D01*
X156369543Y-82066897D01*
X156288821Y-82066475D01*
X156281442Y-82068247D01*
X156281438Y-82068247D01*
X156146634Y-82100610D01*
X156146630Y-82100611D01*
X156139255Y-82102382D01*
X156002572Y-82172929D01*
X155996850Y-82177921D01*
X155996848Y-82177922D01*
X155967732Y-82203322D01*
X155886662Y-82274044D01*
X155798218Y-82399888D01*
X155795459Y-82406963D01*
X155795458Y-82406966D01*
X155745104Y-82536117D01*
X155742344Y-82543197D01*
X155722267Y-82695696D01*
X149429483Y-82695696D01*
X149415801Y-82582639D01*
X149414889Y-82575099D01*
X149360519Y-82431213D01*
X149334718Y-82393672D01*
X149277699Y-82310708D01*
X149277697Y-82310706D01*
X149273397Y-82304449D01*
X149158553Y-82202127D01*
X149144802Y-82194846D01*
X149029331Y-82133707D01*
X149029328Y-82133706D01*
X149022616Y-82130152D01*
X148873434Y-82092680D01*
X148865836Y-82092640D01*
X148865834Y-82092640D01*
X148800343Y-82092297D01*
X148719621Y-82091875D01*
X148712242Y-82093647D01*
X148712238Y-82093647D01*
X148577434Y-82126010D01*
X148577430Y-82126011D01*
X148570055Y-82127782D01*
X148433372Y-82198329D01*
X148317462Y-82299444D01*
X148229018Y-82425288D01*
X148226259Y-82432363D01*
X148226258Y-82432366D01*
X148175904Y-82561517D01*
X148173144Y-82568597D01*
X148153067Y-82721096D01*
X148153900Y-82728645D01*
X148153821Y-82736241D01*
X148151580Y-82736218D01*
X148141119Y-82795159D01*
X148117382Y-82828175D01*
X147774108Y-83171449D01*
X147769605Y-83180287D01*
X147763892Y-83191500D01*
X147753560Y-83208359D01*
X147740330Y-83226568D01*
X147737265Y-83236001D01*
X147737264Y-83236003D01*
X147733372Y-83247980D01*
X147725808Y-83266241D01*
X147715591Y-83286294D01*
X147714040Y-83296087D01*
X147712070Y-83308526D01*
X147707454Y-83327752D01*
X147700500Y-83349154D01*
X147700500Y-89243304D01*
X147680498Y-89311425D01*
X147657332Y-89338251D01*
X147631662Y-89360644D01*
X147543218Y-89486488D01*
X147540459Y-89493563D01*
X147540458Y-89493566D01*
X147490104Y-89622717D01*
X147487344Y-89629797D01*
X147467267Y-89782296D01*
X138266831Y-89782296D01*
X146877432Y-81171696D01*
X153893467Y-81171696D01*
X153910346Y-81324583D01*
X153912955Y-81331714D01*
X153912956Y-81331716D01*
X153954117Y-81444192D01*
X153963206Y-81469030D01*
X153967442Y-81475333D01*
X153967442Y-81475334D01*
X154044762Y-81590399D01*
X154044765Y-81590402D01*
X154048996Y-81596699D01*
X154162763Y-81700219D01*
X154297938Y-81773613D01*
X154446719Y-81812645D01*
X154526538Y-81813899D01*
X154592918Y-81814942D01*
X154592921Y-81814942D01*
X154600516Y-81815061D01*
X154607920Y-81813365D01*
X154607922Y-81813365D01*
X154663189Y-81800707D01*
X154750449Y-81780722D01*
X154771787Y-81769990D01*
X154881081Y-81715022D01*
X154881084Y-81715020D01*
X154887864Y-81711610D01*
X155004826Y-81611714D01*
X155009259Y-81605544D01*
X155013793Y-81600614D01*
X155074626Y-81564009D01*
X155106542Y-81559900D01*
X166417465Y-81559900D01*
X166441764Y-81562486D01*
X166443202Y-81562554D01*
X166453380Y-81564745D01*
X166486941Y-81560773D01*
X166492920Y-81560421D01*
X166492912Y-81560328D01*
X166498090Y-81559900D01*
X166503292Y-81559900D01*
X166522446Y-81556712D01*
X166528304Y-81555878D01*
X166544918Y-81553912D01*
X166569167Y-81551042D01*
X166569168Y-81551042D01*
X166579507Y-81549818D01*
X166587806Y-81545833D01*
X166596883Y-81544322D01*
X166642251Y-81519842D01*
X166647514Y-81517161D01*
X166686850Y-81498273D01*
X166686854Y-81498270D01*
X166693998Y-81494840D01*
X166698292Y-81491230D01*
X166700224Y-81489298D01*
X166702173Y-81487511D01*
X166702226Y-81487482D01*
X166702345Y-81487612D01*
X166702913Y-81487111D01*
X166708657Y-81484012D01*
X166745467Y-81444191D01*
X166748896Y-81440626D01*
X168386086Y-79803437D01*
X168448398Y-79769411D01*
X168524920Y-79776765D01*
X168561917Y-79792661D01*
X168561925Y-79792663D01*
X168567228Y-79794942D01*
X168604771Y-79803437D01*
X168759579Y-79838467D01*
X168759584Y-79838468D01*
X168765216Y-79839742D01*
X168770987Y-79839969D01*
X168770989Y-79839969D01*
X168830756Y-79842317D01*
X168968053Y-79847712D01*
X169075341Y-79832156D01*
X169163231Y-79819413D01*
X169163236Y-79819412D01*
X169168945Y-79818584D01*
X169174409Y-79816729D01*
X169174414Y-79816728D01*
X169355693Y-79755192D01*
X169355698Y-79755190D01*
X169361165Y-79753334D01*
X169538276Y-79654147D01*
X169577969Y-79621135D01*
X169689913Y-79528031D01*
X169694345Y-79524345D01*
X169805211Y-79391044D01*
X169820453Y-79372718D01*
X169820455Y-79372715D01*
X169824147Y-79368276D01*
X169923334Y-79191165D01*
X169925190Y-79185698D01*
X169925192Y-79185693D01*
X169986728Y-79004414D01*
X169986729Y-79004409D01*
X169988584Y-78998945D01*
X169989412Y-78993236D01*
X169989413Y-78993231D01*
X170017179Y-78801727D01*
X170017712Y-78798053D01*
X170019232Y-78740000D01*
X170000658Y-78537859D01*
X169999090Y-78532299D01*
X169947125Y-78348046D01*
X169947124Y-78348044D01*
X169945557Y-78342487D01*
X169934978Y-78321033D01*
X169858331Y-78165609D01*
X169855776Y-78160428D01*
X169734320Y-77997779D01*
X169585258Y-77859987D01*
X169580375Y-77856906D01*
X169580371Y-77856903D01*
X169418464Y-77754748D01*
X169413581Y-77751667D01*
X169225039Y-77676446D01*
X169219379Y-77675320D01*
X169219375Y-77675319D01*
X169031613Y-77637971D01*
X169031610Y-77637971D01*
X169025946Y-77636844D01*
X169020171Y-77636768D01*
X169020167Y-77636768D01*
X168918793Y-77635441D01*
X168822971Y-77634187D01*
X168817274Y-77635166D01*
X168817273Y-77635166D01*
X168729397Y-77650266D01*
X168622910Y-77668564D01*
X168432463Y-77738824D01*
X168258010Y-77842612D01*
X168253670Y-77846418D01*
X168253666Y-77846421D01*
X168109733Y-77972648D01*
X168105392Y-77976455D01*
X167979720Y-78135869D01*
X167977031Y-78140980D01*
X167977029Y-78140983D01*
X167964073Y-78165609D01*
X167885203Y-78315515D01*
X167825007Y-78509378D01*
X167801148Y-78710964D01*
X167814424Y-78913522D01*
X167815845Y-78919118D01*
X167815846Y-78919123D01*
X167834668Y-78993231D01*
X167864392Y-79110269D01*
X167866809Y-79115512D01*
X167866811Y-79115517D01*
X167870483Y-79123483D01*
X167880836Y-79193721D01*
X167851573Y-79258406D01*
X167845151Y-79265327D01*
X166350482Y-80759995D01*
X166288170Y-80794021D01*
X166261387Y-80796900D01*
X155106368Y-80796900D01*
X155038247Y-80776898D01*
X155015213Y-80757109D01*
X155013797Y-80755049D01*
X155008134Y-80750003D01*
X155008130Y-80749999D01*
X154904624Y-80657780D01*
X154898953Y-80652727D01*
X154885202Y-80645446D01*
X154769731Y-80584307D01*
X154769728Y-80584306D01*
X154763016Y-80580752D01*
X154613834Y-80543280D01*
X154606236Y-80543240D01*
X154606234Y-80543240D01*
X154540743Y-80542897D01*
X154460021Y-80542475D01*
X154452642Y-80544247D01*
X154452638Y-80544247D01*
X154317834Y-80576610D01*
X154317830Y-80576611D01*
X154310455Y-80578382D01*
X154173772Y-80648929D01*
X154057862Y-80750044D01*
X153969418Y-80875888D01*
X153913544Y-81019197D01*
X153893467Y-81171696D01*
X146877432Y-81171696D01*
X148203769Y-79845359D01*
X148266081Y-79811333D01*
X148320671Y-79811561D01*
X148432871Y-79836949D01*
X148445216Y-79839742D01*
X148450987Y-79839969D01*
X148450989Y-79839969D01*
X148510756Y-79842317D01*
X148648053Y-79847712D01*
X148755341Y-79832156D01*
X148843231Y-79819413D01*
X148843236Y-79819412D01*
X148848945Y-79818584D01*
X148854409Y-79816729D01*
X148854414Y-79816728D01*
X149035693Y-79755192D01*
X149035698Y-79755190D01*
X149041165Y-79753334D01*
X149218276Y-79654147D01*
X149257969Y-79621135D01*
X149369913Y-79528031D01*
X149374345Y-79524345D01*
X149485211Y-79391044D01*
X149500453Y-79372718D01*
X149500455Y-79372715D01*
X149504147Y-79368276D01*
X149603334Y-79191165D01*
X149605190Y-79185698D01*
X149605192Y-79185693D01*
X149666728Y-79004414D01*
X149666729Y-79004409D01*
X149668584Y-78998945D01*
X149669412Y-78993236D01*
X149669413Y-78993231D01*
X149697179Y-78801727D01*
X149697712Y-78798053D01*
X149699232Y-78740000D01*
X149696564Y-78710964D01*
X150021148Y-78710964D01*
X150034424Y-78913522D01*
X150035845Y-78919118D01*
X150035846Y-78919123D01*
X150082971Y-79104674D01*
X150084392Y-79110269D01*
X150086809Y-79115512D01*
X150122864Y-79193721D01*
X150169377Y-79294616D01*
X150172710Y-79299332D01*
X150233946Y-79385979D01*
X150286533Y-79460389D01*
X150431938Y-79602035D01*
X150600720Y-79714812D01*
X150606023Y-79717090D01*
X150606026Y-79717092D01*
X150727803Y-79769411D01*
X150787228Y-79794942D01*
X150824771Y-79803437D01*
X150979579Y-79838467D01*
X150979584Y-79838468D01*
X150985216Y-79839742D01*
X150990987Y-79839969D01*
X150990989Y-79839969D01*
X151050756Y-79842317D01*
X151188053Y-79847712D01*
X151295341Y-79832156D01*
X151383231Y-79819413D01*
X151383236Y-79819412D01*
X151388945Y-79818584D01*
X151394409Y-79816729D01*
X151394414Y-79816728D01*
X151575693Y-79755192D01*
X151575698Y-79755190D01*
X151581165Y-79753334D01*
X151758276Y-79654147D01*
X151797969Y-79621135D01*
X151909913Y-79528031D01*
X151914345Y-79524345D01*
X152025211Y-79391044D01*
X152040453Y-79372718D01*
X152040455Y-79372715D01*
X152044147Y-79368276D01*
X152143334Y-79191165D01*
X152145190Y-79185698D01*
X152145192Y-79185693D01*
X152206728Y-79004414D01*
X152206729Y-79004409D01*
X152208584Y-78998945D01*
X152209412Y-78993236D01*
X152209413Y-78993231D01*
X152237179Y-78801727D01*
X152237712Y-78798053D01*
X152239232Y-78740000D01*
X152236564Y-78710964D01*
X152561148Y-78710964D01*
X152574424Y-78913522D01*
X152575845Y-78919118D01*
X152575846Y-78919123D01*
X152622971Y-79104674D01*
X152624392Y-79110269D01*
X152626809Y-79115512D01*
X152662864Y-79193721D01*
X152709377Y-79294616D01*
X152712710Y-79299332D01*
X152773946Y-79385979D01*
X152826533Y-79460389D01*
X152971938Y-79602035D01*
X153140720Y-79714812D01*
X153146023Y-79717090D01*
X153146026Y-79717092D01*
X153267803Y-79769411D01*
X153327228Y-79794942D01*
X153364771Y-79803437D01*
X153519579Y-79838467D01*
X153519584Y-79838468D01*
X153525216Y-79839742D01*
X153530987Y-79839969D01*
X153530989Y-79839969D01*
X153590756Y-79842317D01*
X153728053Y-79847712D01*
X153835341Y-79832156D01*
X153923231Y-79819413D01*
X153923236Y-79819412D01*
X153928945Y-79818584D01*
X153934409Y-79816729D01*
X153934414Y-79816728D01*
X154115693Y-79755192D01*
X154115698Y-79755190D01*
X154121165Y-79753334D01*
X154298276Y-79654147D01*
X154337969Y-79621135D01*
X154449913Y-79528031D01*
X154454345Y-79524345D01*
X154565211Y-79391044D01*
X154580453Y-79372718D01*
X154580455Y-79372715D01*
X154584147Y-79368276D01*
X154683334Y-79191165D01*
X154685190Y-79185698D01*
X154685192Y-79185693D01*
X154746728Y-79004414D01*
X154746729Y-79004409D01*
X154748584Y-78998945D01*
X154749412Y-78993236D01*
X154749413Y-78993231D01*
X154777179Y-78801727D01*
X154777712Y-78798053D01*
X154779232Y-78740000D01*
X154776564Y-78710964D01*
X155101148Y-78710964D01*
X155114424Y-78913522D01*
X155115845Y-78919118D01*
X155115846Y-78919123D01*
X155162971Y-79104674D01*
X155164392Y-79110269D01*
X155166809Y-79115512D01*
X155202864Y-79193721D01*
X155249377Y-79294616D01*
X155252710Y-79299332D01*
X155313946Y-79385979D01*
X155366533Y-79460389D01*
X155511938Y-79602035D01*
X155680720Y-79714812D01*
X155686023Y-79717090D01*
X155686026Y-79717092D01*
X155807803Y-79769411D01*
X155867228Y-79794942D01*
X155904771Y-79803437D01*
X156059579Y-79838467D01*
X156059584Y-79838468D01*
X156065216Y-79839742D01*
X156070987Y-79839969D01*
X156070989Y-79839969D01*
X156130756Y-79842317D01*
X156268053Y-79847712D01*
X156375341Y-79832156D01*
X156463231Y-79819413D01*
X156463236Y-79819412D01*
X156468945Y-79818584D01*
X156474409Y-79816729D01*
X156474414Y-79816728D01*
X156655693Y-79755192D01*
X156655698Y-79755190D01*
X156661165Y-79753334D01*
X156838276Y-79654147D01*
X156877969Y-79621135D01*
X156989913Y-79528031D01*
X156994345Y-79524345D01*
X157105211Y-79391044D01*
X157120453Y-79372718D01*
X157120455Y-79372715D01*
X157124147Y-79368276D01*
X157223334Y-79191165D01*
X157225190Y-79185698D01*
X157225192Y-79185693D01*
X157286728Y-79004414D01*
X157286729Y-79004409D01*
X157288584Y-78998945D01*
X157289412Y-78993236D01*
X157289413Y-78993231D01*
X157317179Y-78801727D01*
X157317712Y-78798053D01*
X157319232Y-78740000D01*
X157316564Y-78710964D01*
X157641148Y-78710964D01*
X157654424Y-78913522D01*
X157655845Y-78919118D01*
X157655846Y-78919123D01*
X157702971Y-79104674D01*
X157704392Y-79110269D01*
X157706809Y-79115512D01*
X157742864Y-79193721D01*
X157789377Y-79294616D01*
X157792710Y-79299332D01*
X157853946Y-79385979D01*
X157906533Y-79460389D01*
X158051938Y-79602035D01*
X158220720Y-79714812D01*
X158226023Y-79717090D01*
X158226026Y-79717092D01*
X158347803Y-79769411D01*
X158407228Y-79794942D01*
X158444771Y-79803437D01*
X158599579Y-79838467D01*
X158599584Y-79838468D01*
X158605216Y-79839742D01*
X158610987Y-79839969D01*
X158610989Y-79839969D01*
X158670756Y-79842317D01*
X158808053Y-79847712D01*
X158915341Y-79832156D01*
X159003231Y-79819413D01*
X159003236Y-79819412D01*
X159008945Y-79818584D01*
X159014409Y-79816729D01*
X159014414Y-79816728D01*
X159195693Y-79755192D01*
X159195698Y-79755190D01*
X159201165Y-79753334D01*
X159378276Y-79654147D01*
X159417969Y-79621135D01*
X159529913Y-79528031D01*
X159534345Y-79524345D01*
X159645211Y-79391044D01*
X159660453Y-79372718D01*
X159660455Y-79372715D01*
X159664147Y-79368276D01*
X159763334Y-79191165D01*
X159765190Y-79185698D01*
X159765192Y-79185693D01*
X159826728Y-79004414D01*
X159826729Y-79004409D01*
X159828584Y-78998945D01*
X159829412Y-78993236D01*
X159829413Y-78993231D01*
X159857179Y-78801727D01*
X159857712Y-78798053D01*
X159859232Y-78740000D01*
X159856564Y-78710964D01*
X160181148Y-78710964D01*
X160194424Y-78913522D01*
X160195845Y-78919118D01*
X160195846Y-78919123D01*
X160242971Y-79104674D01*
X160244392Y-79110269D01*
X160246809Y-79115512D01*
X160282864Y-79193721D01*
X160329377Y-79294616D01*
X160332710Y-79299332D01*
X160393946Y-79385979D01*
X160446533Y-79460389D01*
X160591938Y-79602035D01*
X160760720Y-79714812D01*
X160766023Y-79717090D01*
X160766026Y-79717092D01*
X160887803Y-79769411D01*
X160947228Y-79794942D01*
X160984771Y-79803437D01*
X161139579Y-79838467D01*
X161139584Y-79838468D01*
X161145216Y-79839742D01*
X161150987Y-79839969D01*
X161150989Y-79839969D01*
X161210756Y-79842317D01*
X161348053Y-79847712D01*
X161455341Y-79832156D01*
X161543231Y-79819413D01*
X161543236Y-79819412D01*
X161548945Y-79818584D01*
X161554409Y-79816729D01*
X161554414Y-79816728D01*
X161735693Y-79755192D01*
X161735698Y-79755190D01*
X161741165Y-79753334D01*
X161918276Y-79654147D01*
X161957969Y-79621135D01*
X162069913Y-79528031D01*
X162074345Y-79524345D01*
X162185211Y-79391044D01*
X162200453Y-79372718D01*
X162200455Y-79372715D01*
X162204147Y-79368276D01*
X162303334Y-79191165D01*
X162305190Y-79185698D01*
X162305192Y-79185693D01*
X162366728Y-79004414D01*
X162366729Y-79004409D01*
X162368584Y-78998945D01*
X162369412Y-78993236D01*
X162369413Y-78993231D01*
X162397179Y-78801727D01*
X162397712Y-78798053D01*
X162399232Y-78740000D01*
X162396564Y-78710964D01*
X162721148Y-78710964D01*
X162734424Y-78913522D01*
X162735845Y-78919118D01*
X162735846Y-78919123D01*
X162782971Y-79104674D01*
X162784392Y-79110269D01*
X162786809Y-79115512D01*
X162822864Y-79193721D01*
X162869377Y-79294616D01*
X162872710Y-79299332D01*
X162933946Y-79385979D01*
X162986533Y-79460389D01*
X163131938Y-79602035D01*
X163300720Y-79714812D01*
X163306023Y-79717090D01*
X163306026Y-79717092D01*
X163427803Y-79769411D01*
X163487228Y-79794942D01*
X163524771Y-79803437D01*
X163679579Y-79838467D01*
X163679584Y-79838468D01*
X163685216Y-79839742D01*
X163690987Y-79839969D01*
X163690989Y-79839969D01*
X163750756Y-79842317D01*
X163888053Y-79847712D01*
X163995341Y-79832156D01*
X164083231Y-79819413D01*
X164083236Y-79819412D01*
X164088945Y-79818584D01*
X164094409Y-79816729D01*
X164094414Y-79816728D01*
X164275693Y-79755192D01*
X164275698Y-79755190D01*
X164281165Y-79753334D01*
X164458276Y-79654147D01*
X164497969Y-79621135D01*
X164609913Y-79528031D01*
X164614345Y-79524345D01*
X164725211Y-79391044D01*
X164740453Y-79372718D01*
X164740455Y-79372715D01*
X164744147Y-79368276D01*
X164843334Y-79191165D01*
X164845190Y-79185698D01*
X164845192Y-79185693D01*
X164906728Y-79004414D01*
X164906729Y-79004409D01*
X164908584Y-78998945D01*
X164909412Y-78993236D01*
X164909413Y-78993231D01*
X164937179Y-78801727D01*
X164937712Y-78798053D01*
X164939232Y-78740000D01*
X164936564Y-78710964D01*
X165261148Y-78710964D01*
X165274424Y-78913522D01*
X165275845Y-78919118D01*
X165275846Y-78919123D01*
X165322971Y-79104674D01*
X165324392Y-79110269D01*
X165326809Y-79115512D01*
X165362864Y-79193721D01*
X165409377Y-79294616D01*
X165412710Y-79299332D01*
X165473946Y-79385979D01*
X165526533Y-79460389D01*
X165671938Y-79602035D01*
X165840720Y-79714812D01*
X165846023Y-79717090D01*
X165846026Y-79717092D01*
X165967803Y-79769411D01*
X166027228Y-79794942D01*
X166064771Y-79803437D01*
X166219579Y-79838467D01*
X166219584Y-79838468D01*
X166225216Y-79839742D01*
X166230987Y-79839969D01*
X166230989Y-79839969D01*
X166290756Y-79842317D01*
X166428053Y-79847712D01*
X166535341Y-79832156D01*
X166623231Y-79819413D01*
X166623236Y-79819412D01*
X166628945Y-79818584D01*
X166634409Y-79816729D01*
X166634414Y-79816728D01*
X166815693Y-79755192D01*
X166815698Y-79755190D01*
X166821165Y-79753334D01*
X166998276Y-79654147D01*
X167037969Y-79621135D01*
X167149913Y-79528031D01*
X167154345Y-79524345D01*
X167265211Y-79391044D01*
X167280453Y-79372718D01*
X167280455Y-79372715D01*
X167284147Y-79368276D01*
X167383334Y-79191165D01*
X167385190Y-79185698D01*
X167385192Y-79185693D01*
X167446728Y-79004414D01*
X167446729Y-79004409D01*
X167448584Y-78998945D01*
X167449412Y-78993236D01*
X167449413Y-78993231D01*
X167477179Y-78801727D01*
X167477712Y-78798053D01*
X167479232Y-78740000D01*
X167460658Y-78537859D01*
X167459090Y-78532299D01*
X167407125Y-78348046D01*
X167407124Y-78348044D01*
X167405557Y-78342487D01*
X167394978Y-78321033D01*
X167318331Y-78165609D01*
X167315776Y-78160428D01*
X167194320Y-77997779D01*
X167045258Y-77859987D01*
X167040375Y-77856906D01*
X167040371Y-77856903D01*
X166878464Y-77754748D01*
X166873581Y-77751667D01*
X166685039Y-77676446D01*
X166679379Y-77675320D01*
X166679375Y-77675319D01*
X166491613Y-77637971D01*
X166491610Y-77637971D01*
X166485946Y-77636844D01*
X166480171Y-77636768D01*
X166480167Y-77636768D01*
X166378793Y-77635441D01*
X166282971Y-77634187D01*
X166277274Y-77635166D01*
X166277273Y-77635166D01*
X166189397Y-77650266D01*
X166082910Y-77668564D01*
X165892463Y-77738824D01*
X165718010Y-77842612D01*
X165713670Y-77846418D01*
X165713666Y-77846421D01*
X165569733Y-77972648D01*
X165565392Y-77976455D01*
X165439720Y-78135869D01*
X165437031Y-78140980D01*
X165437029Y-78140983D01*
X165424073Y-78165609D01*
X165345203Y-78315515D01*
X165285007Y-78509378D01*
X165261148Y-78710964D01*
X164936564Y-78710964D01*
X164920658Y-78537859D01*
X164919090Y-78532299D01*
X164867125Y-78348046D01*
X164867124Y-78348044D01*
X164865557Y-78342487D01*
X164854978Y-78321033D01*
X164778331Y-78165609D01*
X164775776Y-78160428D01*
X164654320Y-77997779D01*
X164505258Y-77859987D01*
X164500375Y-77856906D01*
X164500371Y-77856903D01*
X164338464Y-77754748D01*
X164333581Y-77751667D01*
X164145039Y-77676446D01*
X164139379Y-77675320D01*
X164139375Y-77675319D01*
X163951613Y-77637971D01*
X163951610Y-77637971D01*
X163945946Y-77636844D01*
X163940171Y-77636768D01*
X163940167Y-77636768D01*
X163838793Y-77635441D01*
X163742971Y-77634187D01*
X163737274Y-77635166D01*
X163737273Y-77635166D01*
X163649397Y-77650266D01*
X163542910Y-77668564D01*
X163352463Y-77738824D01*
X163178010Y-77842612D01*
X163173670Y-77846418D01*
X163173666Y-77846421D01*
X163029733Y-77972648D01*
X163025392Y-77976455D01*
X162899720Y-78135869D01*
X162897031Y-78140980D01*
X162897029Y-78140983D01*
X162884073Y-78165609D01*
X162805203Y-78315515D01*
X162745007Y-78509378D01*
X162721148Y-78710964D01*
X162396564Y-78710964D01*
X162380658Y-78537859D01*
X162379090Y-78532299D01*
X162327125Y-78348046D01*
X162327124Y-78348044D01*
X162325557Y-78342487D01*
X162314978Y-78321033D01*
X162238331Y-78165609D01*
X162235776Y-78160428D01*
X162114320Y-77997779D01*
X161965258Y-77859987D01*
X161960375Y-77856906D01*
X161960371Y-77856903D01*
X161798464Y-77754748D01*
X161793581Y-77751667D01*
X161605039Y-77676446D01*
X161599379Y-77675320D01*
X161599375Y-77675319D01*
X161411613Y-77637971D01*
X161411610Y-77637971D01*
X161405946Y-77636844D01*
X161400171Y-77636768D01*
X161400167Y-77636768D01*
X161298793Y-77635441D01*
X161202971Y-77634187D01*
X161197274Y-77635166D01*
X161197273Y-77635166D01*
X161109397Y-77650266D01*
X161002910Y-77668564D01*
X160812463Y-77738824D01*
X160638010Y-77842612D01*
X160633670Y-77846418D01*
X160633666Y-77846421D01*
X160489733Y-77972648D01*
X160485392Y-77976455D01*
X160359720Y-78135869D01*
X160357031Y-78140980D01*
X160357029Y-78140983D01*
X160344073Y-78165609D01*
X160265203Y-78315515D01*
X160205007Y-78509378D01*
X160181148Y-78710964D01*
X159856564Y-78710964D01*
X159840658Y-78537859D01*
X159839090Y-78532299D01*
X159787125Y-78348046D01*
X159787124Y-78348044D01*
X159785557Y-78342487D01*
X159774978Y-78321033D01*
X159698331Y-78165609D01*
X159695776Y-78160428D01*
X159574320Y-77997779D01*
X159425258Y-77859987D01*
X159420375Y-77856906D01*
X159420371Y-77856903D01*
X159258464Y-77754748D01*
X159253581Y-77751667D01*
X159065039Y-77676446D01*
X159059379Y-77675320D01*
X159059375Y-77675319D01*
X158871613Y-77637971D01*
X158871610Y-77637971D01*
X158865946Y-77636844D01*
X158860171Y-77636768D01*
X158860167Y-77636768D01*
X158758793Y-77635441D01*
X158662971Y-77634187D01*
X158657274Y-77635166D01*
X158657273Y-77635166D01*
X158569397Y-77650266D01*
X158462910Y-77668564D01*
X158272463Y-77738824D01*
X158098010Y-77842612D01*
X158093670Y-77846418D01*
X158093666Y-77846421D01*
X157949733Y-77972648D01*
X157945392Y-77976455D01*
X157819720Y-78135869D01*
X157817031Y-78140980D01*
X157817029Y-78140983D01*
X157804073Y-78165609D01*
X157725203Y-78315515D01*
X157665007Y-78509378D01*
X157641148Y-78710964D01*
X157316564Y-78710964D01*
X157300658Y-78537859D01*
X157299090Y-78532299D01*
X157247125Y-78348046D01*
X157247124Y-78348044D01*
X157245557Y-78342487D01*
X157234978Y-78321033D01*
X157158331Y-78165609D01*
X157155776Y-78160428D01*
X157034320Y-77997779D01*
X156885258Y-77859987D01*
X156880375Y-77856906D01*
X156880371Y-77856903D01*
X156718464Y-77754748D01*
X156713581Y-77751667D01*
X156525039Y-77676446D01*
X156519379Y-77675320D01*
X156519375Y-77675319D01*
X156331613Y-77637971D01*
X156331610Y-77637971D01*
X156325946Y-77636844D01*
X156320171Y-77636768D01*
X156320167Y-77636768D01*
X156218793Y-77635441D01*
X156122971Y-77634187D01*
X156117274Y-77635166D01*
X156117273Y-77635166D01*
X156029397Y-77650266D01*
X155922910Y-77668564D01*
X155732463Y-77738824D01*
X155558010Y-77842612D01*
X155553670Y-77846418D01*
X155553666Y-77846421D01*
X155409733Y-77972648D01*
X155405392Y-77976455D01*
X155279720Y-78135869D01*
X155277031Y-78140980D01*
X155277029Y-78140983D01*
X155264073Y-78165609D01*
X155185203Y-78315515D01*
X155125007Y-78509378D01*
X155101148Y-78710964D01*
X154776564Y-78710964D01*
X154760658Y-78537859D01*
X154759090Y-78532299D01*
X154707125Y-78348046D01*
X154707124Y-78348044D01*
X154705557Y-78342487D01*
X154694978Y-78321033D01*
X154618331Y-78165609D01*
X154615776Y-78160428D01*
X154494320Y-77997779D01*
X154345258Y-77859987D01*
X154340375Y-77856906D01*
X154340371Y-77856903D01*
X154178464Y-77754748D01*
X154173581Y-77751667D01*
X153985039Y-77676446D01*
X153979379Y-77675320D01*
X153979375Y-77675319D01*
X153791613Y-77637971D01*
X153791610Y-77637971D01*
X153785946Y-77636844D01*
X153780171Y-77636768D01*
X153780167Y-77636768D01*
X153678793Y-77635441D01*
X153582971Y-77634187D01*
X153577274Y-77635166D01*
X153577273Y-77635166D01*
X153489397Y-77650266D01*
X153382910Y-77668564D01*
X153192463Y-77738824D01*
X153018010Y-77842612D01*
X153013670Y-77846418D01*
X153013666Y-77846421D01*
X152869733Y-77972648D01*
X152865392Y-77976455D01*
X152739720Y-78135869D01*
X152737031Y-78140980D01*
X152737029Y-78140983D01*
X152724073Y-78165609D01*
X152645203Y-78315515D01*
X152585007Y-78509378D01*
X152561148Y-78710964D01*
X152236564Y-78710964D01*
X152220658Y-78537859D01*
X152219090Y-78532299D01*
X152167125Y-78348046D01*
X152167124Y-78348044D01*
X152165557Y-78342487D01*
X152154978Y-78321033D01*
X152078331Y-78165609D01*
X152075776Y-78160428D01*
X151954320Y-77997779D01*
X151805258Y-77859987D01*
X151800375Y-77856906D01*
X151800371Y-77856903D01*
X151638464Y-77754748D01*
X151633581Y-77751667D01*
X151445039Y-77676446D01*
X151439379Y-77675320D01*
X151439375Y-77675319D01*
X151251613Y-77637971D01*
X151251610Y-77637971D01*
X151245946Y-77636844D01*
X151240171Y-77636768D01*
X151240167Y-77636768D01*
X151138793Y-77635441D01*
X151042971Y-77634187D01*
X151037274Y-77635166D01*
X151037273Y-77635166D01*
X150949397Y-77650266D01*
X150842910Y-77668564D01*
X150652463Y-77738824D01*
X150478010Y-77842612D01*
X150473670Y-77846418D01*
X150473666Y-77846421D01*
X150329733Y-77972648D01*
X150325392Y-77976455D01*
X150199720Y-78135869D01*
X150197031Y-78140980D01*
X150197029Y-78140983D01*
X150184073Y-78165609D01*
X150105203Y-78315515D01*
X150045007Y-78509378D01*
X150021148Y-78710964D01*
X149696564Y-78710964D01*
X149680658Y-78537859D01*
X149679090Y-78532299D01*
X149627125Y-78348046D01*
X149627124Y-78348044D01*
X149625557Y-78342487D01*
X149614978Y-78321033D01*
X149538331Y-78165609D01*
X149535776Y-78160428D01*
X149414320Y-77997779D01*
X149265258Y-77859987D01*
X149260375Y-77856906D01*
X149260371Y-77856903D01*
X149098464Y-77754748D01*
X149093581Y-77751667D01*
X148905039Y-77676446D01*
X148899379Y-77675320D01*
X148899375Y-77675319D01*
X148711613Y-77637971D01*
X148711610Y-77637971D01*
X148705946Y-77636844D01*
X148700171Y-77636768D01*
X148700167Y-77636768D01*
X148598793Y-77635441D01*
X148502971Y-77634187D01*
X148497274Y-77635166D01*
X148497273Y-77635166D01*
X148409397Y-77650266D01*
X148302910Y-77668564D01*
X148112463Y-77738824D01*
X147938010Y-77842612D01*
X147933670Y-77846418D01*
X147933666Y-77846421D01*
X147789733Y-77972648D01*
X147785392Y-77976455D01*
X147659720Y-78135869D01*
X147657031Y-78140980D01*
X147657029Y-78140983D01*
X147644073Y-78165609D01*
X147565203Y-78315515D01*
X147505007Y-78509378D01*
X147481148Y-78710964D01*
X147494424Y-78913522D01*
X147495847Y-78919124D01*
X147517886Y-79005905D01*
X147515268Y-79076853D01*
X147484858Y-79126015D01*
X147253855Y-79357018D01*
X147191543Y-79391044D01*
X147120728Y-79385979D01*
X147063892Y-79343432D01*
X147039081Y-79276912D01*
X147054826Y-79206358D01*
X147063334Y-79191165D01*
X147065190Y-79185698D01*
X147065192Y-79185693D01*
X147126728Y-79004414D01*
X147126729Y-79004409D01*
X147128584Y-78998945D01*
X147129412Y-78993236D01*
X147129413Y-78993231D01*
X147157179Y-78801727D01*
X147157712Y-78798053D01*
X147159232Y-78740000D01*
X147140658Y-78537859D01*
X147139090Y-78532299D01*
X147087125Y-78348046D01*
X147087124Y-78348044D01*
X147085557Y-78342487D01*
X147074978Y-78321033D01*
X146998331Y-78165609D01*
X146995776Y-78160428D01*
X146874320Y-77997779D01*
X146725258Y-77859987D01*
X146720375Y-77856906D01*
X146720371Y-77856903D01*
X146558464Y-77754748D01*
X146553581Y-77751667D01*
X146365039Y-77676446D01*
X146359379Y-77675320D01*
X146359375Y-77675319D01*
X146171613Y-77637971D01*
X146171610Y-77637971D01*
X146165946Y-77636844D01*
X146160171Y-77636768D01*
X146160167Y-77636768D01*
X146058793Y-77635441D01*
X145962971Y-77634187D01*
X145957274Y-77635166D01*
X145957273Y-77635166D01*
X145869397Y-77650266D01*
X145762910Y-77668564D01*
X145572463Y-77738824D01*
X145398010Y-77842612D01*
X145393670Y-77846418D01*
X145393666Y-77846421D01*
X145249733Y-77972648D01*
X145245392Y-77976455D01*
X145119720Y-78135869D01*
X145117031Y-78140980D01*
X145117029Y-78140983D01*
X145104073Y-78165609D01*
X145025203Y-78315515D01*
X144965007Y-78509378D01*
X144941148Y-78710964D01*
X144954424Y-78913522D01*
X144955845Y-78919118D01*
X144955846Y-78919123D01*
X145002971Y-79104674D01*
X145004392Y-79110269D01*
X145006809Y-79115512D01*
X145042864Y-79193721D01*
X145089377Y-79294616D01*
X145092710Y-79299332D01*
X145195776Y-79445168D01*
X145218757Y-79512342D01*
X145201772Y-79581277D01*
X145181974Y-79606983D01*
X127469095Y-97319862D01*
X127406783Y-97353888D01*
X127335968Y-97348823D01*
X127279132Y-97306276D01*
X127254321Y-97239756D01*
X127254000Y-97230767D01*
X127254000Y-78710964D01*
X142401148Y-78710964D01*
X142414424Y-78913522D01*
X142415845Y-78919118D01*
X142415846Y-78919123D01*
X142462971Y-79104674D01*
X142464392Y-79110269D01*
X142466809Y-79115512D01*
X142502864Y-79193721D01*
X142549377Y-79294616D01*
X142552710Y-79299332D01*
X142613946Y-79385979D01*
X142666533Y-79460389D01*
X142811938Y-79602035D01*
X142980720Y-79714812D01*
X142986023Y-79717090D01*
X142986026Y-79717092D01*
X143107803Y-79769411D01*
X143167228Y-79794942D01*
X143204771Y-79803437D01*
X143359579Y-79838467D01*
X143359584Y-79838468D01*
X143365216Y-79839742D01*
X143370987Y-79839969D01*
X143370989Y-79839969D01*
X143430756Y-79842317D01*
X143568053Y-79847712D01*
X143675341Y-79832156D01*
X143763231Y-79819413D01*
X143763236Y-79819412D01*
X143768945Y-79818584D01*
X143774409Y-79816729D01*
X143774414Y-79816728D01*
X143955693Y-79755192D01*
X143955698Y-79755190D01*
X143961165Y-79753334D01*
X144138276Y-79654147D01*
X144177969Y-79621135D01*
X144289913Y-79528031D01*
X144294345Y-79524345D01*
X144405211Y-79391044D01*
X144420453Y-79372718D01*
X144420455Y-79372715D01*
X144424147Y-79368276D01*
X144523334Y-79191165D01*
X144525190Y-79185698D01*
X144525192Y-79185693D01*
X144586728Y-79004414D01*
X144586729Y-79004409D01*
X144588584Y-78998945D01*
X144589412Y-78993236D01*
X144589413Y-78993231D01*
X144617179Y-78801727D01*
X144617712Y-78798053D01*
X144619232Y-78740000D01*
X144600658Y-78537859D01*
X144599090Y-78532299D01*
X144547125Y-78348046D01*
X144547124Y-78348044D01*
X144545557Y-78342487D01*
X144534978Y-78321033D01*
X144458331Y-78165609D01*
X144455776Y-78160428D01*
X144334320Y-77997779D01*
X144185258Y-77859987D01*
X144180375Y-77856906D01*
X144180371Y-77856903D01*
X144018464Y-77754748D01*
X144013581Y-77751667D01*
X143825039Y-77676446D01*
X143819379Y-77675320D01*
X143819375Y-77675319D01*
X143631613Y-77637971D01*
X143631610Y-77637971D01*
X143625946Y-77636844D01*
X143620171Y-77636768D01*
X143620167Y-77636768D01*
X143518793Y-77635441D01*
X143422971Y-77634187D01*
X143417274Y-77635166D01*
X143417273Y-77635166D01*
X143329397Y-77650266D01*
X143222910Y-77668564D01*
X143032463Y-77738824D01*
X142858010Y-77842612D01*
X142853670Y-77846418D01*
X142853666Y-77846421D01*
X142709733Y-77972648D01*
X142705392Y-77976455D01*
X142579720Y-78135869D01*
X142577031Y-78140980D01*
X142577029Y-78140983D01*
X142564073Y-78165609D01*
X142485203Y-78315515D01*
X142425007Y-78509378D01*
X142401148Y-78710964D01*
X127254000Y-78710964D01*
X127254000Y-76580000D01*
X127274002Y-76511879D01*
X127327658Y-76465386D01*
X127380000Y-76454000D01*
X177420000Y-76454000D01*
X177488121Y-76474002D01*
G37*
%TD.AperFunction*%
%TD*%
M02*
