%TF.GenerationSoftware,KiCad,Pcbnew,(6.0.0-0)*%
%TF.CreationDate,2022-01-17T13:15:27+01:00*%
%TF.ProjectId,burrboard,62757272-626f-4617-9264-2e6b69636164,v2.0*%
%TF.SameCoordinates,Original*%
%TF.FileFunction,Soldermask,Top*%
%TF.FilePolarity,Negative*%
%FSLAX46Y46*%
G04 Gerber Fmt 4.6, Leading zero omitted, Abs format (unit mm)*
G04 Created by KiCad (PCBNEW (6.0.0-0)) date 2022-01-17 13:15:27*
%MOMM*%
%LPD*%
G01*
G04 APERTURE LIST*
G04 Aperture macros list*
%AMRoundRect*
0 Rectangle with rounded corners*
0 $1 Rounding radius*
0 $2 $3 $4 $5 $6 $7 $8 $9 X,Y pos of 4 corners*
0 Add a 4 corners polygon primitive as box body*
4,1,4,$2,$3,$4,$5,$6,$7,$8,$9,$2,$3,0*
0 Add four circle primitives for the rounded corners*
1,1,$1+$1,$2,$3*
1,1,$1+$1,$4,$5*
1,1,$1+$1,$6,$7*
1,1,$1+$1,$8,$9*
0 Add four rect primitives between the rounded corners*
20,1,$1+$1,$2,$3,$4,$5,0*
20,1,$1+$1,$4,$5,$6,$7,0*
20,1,$1+$1,$6,$7,$8,$9,0*
20,1,$1+$1,$8,$9,$2,$3,0*%
G04 Aperture macros list end*
%ADD10RoundRect,0.200800X-0.150000X0.825000X-0.150000X-0.825000X0.150000X-0.825000X0.150000X0.825000X0*%
%ADD11RoundRect,0.300799X0.350001X0.450001X-0.350001X0.450001X-0.350001X-0.450001X0.350001X-0.450001X0*%
%ADD12RoundRect,0.050800X-0.850000X-0.850000X0.850000X-0.850000X0.850000X0.850000X-0.850000X0.850000X0*%
%ADD13O,1.801600X1.801600*%
%ADD14RoundRect,0.050800X-0.775000X-0.650000X0.775000X-0.650000X0.775000X0.650000X-0.775000X0.650000X0*%
%ADD15RoundRect,0.050800X0.550000X0.400000X-0.550000X0.400000X-0.550000X-0.400000X0.550000X-0.400000X0*%
%ADD16RoundRect,0.050800X-0.850000X0.850000X-0.850000X-0.850000X0.850000X-0.850000X0.850000X0.850000X0*%
%ADD17RoundRect,0.050800X-0.950000X0.950000X-0.950000X-0.950000X0.950000X-0.950000X0.950000X0.950000X0*%
%ADD18C,2.001600*%
%ADD19RoundRect,0.300799X0.325001X0.450001X-0.325001X0.450001X-0.325001X-0.450001X0.325001X-0.450001X0*%
%ADD20RoundRect,0.300799X0.450001X-0.350001X0.450001X0.350001X-0.450001X0.350001X-0.450001X-0.350001X0*%
%ADD21RoundRect,0.300799X-0.350001X-0.450001X0.350001X-0.450001X0.350001X0.450001X-0.350001X0.450001X0*%
%ADD22RoundRect,0.300800X-0.475000X0.337500X-0.475000X-0.337500X0.475000X-0.337500X0.475000X0.337500X0*%
%ADD23RoundRect,0.300800X-0.337500X-0.475000X0.337500X-0.475000X0.337500X0.475000X-0.337500X0.475000X0*%
%ADD24RoundRect,0.300800X0.475000X-0.337500X0.475000X0.337500X-0.475000X0.337500X-0.475000X-0.337500X0*%
%ADD25RoundRect,0.050800X-0.572500X0.275000X-0.572500X-0.275000X0.572500X-0.275000X0.572500X0.275000X0*%
%ADD26RoundRect,0.050800X-0.275000X0.572500X-0.275000X-0.572500X0.275000X-0.572500X0.275000X0.572500X0*%
%ADD27C,3.101600*%
%ADD28RoundRect,0.050800X-1.500000X1.500000X-1.500000X-1.500000X1.500000X-1.500000X1.500000X1.500000X0*%
%ADD29C,3.551600*%
G04 APERTURE END LIST*
D10*
%TO.C,U1*%
X192405000Y-110221800D03*
X191135000Y-110221800D03*
X189865000Y-110221800D03*
X188595000Y-110221800D03*
X188595000Y-105271800D03*
X189865000Y-105271800D03*
X191135000Y-105271800D03*
X192405000Y-105271800D03*
%TD*%
D11*
%TO.C,R9*%
X210372200Y-89966800D03*
X208372200Y-89966800D03*
%TD*%
D12*
%TO.C,J3*%
X182600600Y-90368200D03*
D13*
X182600600Y-92908200D03*
%TD*%
D14*
%TO.C,S2*%
X217005000Y-128356800D03*
X224955000Y-128356800D03*
X217005000Y-132856800D03*
X224955000Y-132856800D03*
%TD*%
D15*
%TO.C,Q1*%
X219173600Y-107501600D03*
X219173600Y-108601600D03*
X215623600Y-108051600D03*
%TD*%
D14*
%TO.C,S1*%
X183985000Y-128356800D03*
X191935000Y-128356800D03*
X183985000Y-132856800D03*
X191935000Y-132856800D03*
%TD*%
D16*
%TO.C,J1*%
X223342200Y-84886800D03*
D13*
X220802200Y-84886800D03*
X218262200Y-84886800D03*
X215722200Y-84886800D03*
X213182200Y-84886800D03*
X210642200Y-84886800D03*
X208102200Y-84886800D03*
X205562200Y-84886800D03*
X203022200Y-84886800D03*
X200482200Y-84886800D03*
X197942200Y-84886800D03*
X195402200Y-84886800D03*
X192862200Y-84886800D03*
X190322200Y-84886800D03*
X187782200Y-84886800D03*
X185242200Y-84886800D03*
%TD*%
D16*
%TO.C,J2*%
X223342200Y-64566800D03*
D13*
X220802200Y-64566800D03*
X218262200Y-64566800D03*
X215722200Y-64566800D03*
X213182200Y-64566800D03*
X210642200Y-64566800D03*
X208102200Y-64566800D03*
X205562200Y-64566800D03*
X203022200Y-64566800D03*
X200482200Y-64566800D03*
X197942200Y-64566800D03*
X195402200Y-64566800D03*
%TD*%
D17*
%TO.C,S3*%
X182499000Y-100431600D03*
D18*
X182499000Y-102931600D03*
X182499000Y-105431600D03*
%TD*%
D19*
%TO.C,D2*%
X200237200Y-93776800D03*
X198187200Y-93776800D03*
%TD*%
%TO.C,D4*%
X220557200Y-93776800D03*
X218507200Y-93776800D03*
%TD*%
D20*
%TO.C,R4*%
X187693300Y-121345200D03*
X187693300Y-119345200D03*
%TD*%
D11*
%TO.C,R8*%
X220532200Y-89966800D03*
X218532200Y-89966800D03*
%TD*%
D21*
%TO.C,R7*%
X198212200Y-89966800D03*
X200212200Y-89966800D03*
%TD*%
D20*
%TO.C,R1*%
X223062800Y-107229400D03*
X223062800Y-109229400D03*
%TD*%
%TO.C,R5*%
X220903800Y-121548400D03*
X220903800Y-119548400D03*
%TD*%
D22*
%TO.C,C1*%
X186385200Y-112311000D03*
X186385200Y-110236000D03*
%TD*%
D21*
%TO.C,R6*%
X188052200Y-89966800D03*
X190052200Y-89966800D03*
%TD*%
D19*
%TO.C,D1*%
X190077200Y-93776800D03*
X188027200Y-93776800D03*
%TD*%
D23*
%TO.C,C2*%
X203254700Y-75742800D03*
X205329700Y-75742800D03*
%TD*%
D24*
%TO.C,C3*%
X199974200Y-72991800D03*
X199974200Y-70916800D03*
%TD*%
D22*
%TO.C,C4*%
X208102200Y-73689300D03*
X208102200Y-75764300D03*
%TD*%
D21*
%TO.C,R2*%
X216135200Y-72313800D03*
X218135200Y-72313800D03*
%TD*%
%TO.C,R3*%
X216246200Y-68503800D03*
X218246200Y-68503800D03*
%TD*%
D25*
%TO.C,U2*%
X203194700Y-68535800D03*
X203194700Y-69335800D03*
X203194700Y-70135800D03*
X203194700Y-70935800D03*
X203194700Y-71735800D03*
X203194700Y-72535800D03*
D26*
X204292200Y-72633300D03*
D25*
X205389700Y-72535800D03*
X205389700Y-71735800D03*
X205389700Y-70935800D03*
X205389700Y-70135800D03*
X205389700Y-69335800D03*
X205389700Y-68535800D03*
D26*
X204292200Y-68438300D03*
%TD*%
D19*
%TO.C,D3*%
X210397200Y-93776800D03*
X208347200Y-93776800D03*
%TD*%
D27*
%TO.C,BT1*%
X205308200Y-89712800D03*
D28*
X192608200Y-89712800D03*
D29*
X216108200Y-113432800D03*
X192608200Y-113432800D03*
%TD*%
M02*
