M48
; DRILL file {KiCad 5.1.12-1.fc35} date Thu 13 Jan 2022 03:21:36 PM CET
; FORMAT={-:-/ absolute / inch / decimal}
; #@! TF.CreationDate,2022-01-13T15:21:36+01:00
; #@! TF.GenerationSoftware,Kicad,Pcbnew,5.1.12-1.fc35
FMAT,2
INCH
T1C0.0150
T2C0.0300
T3C0.0354
T4C0.0394
T5C0.0433
T6C0.1358
%
G90
G05
T1
X5.8602Y-3.7308
X5.8707Y-3.6807
X5.9638Y-3.7992
X6.0514Y-3.3984
X6.2756Y-3.257
X6.309Y-3.688
X6.3402Y-4.812
X6.3818Y-3.2616
X6.6764Y-3.3744
T2
X5.094Y-4.162
X5.194Y-4.1628
T3
X5.142Y-4.512
X5.142Y-4.6104
X5.142Y-4.7089
T4
X5.25Y-3.9
X5.35Y-3.9
X5.45Y-3.9
X5.55Y-3.9
X5.65Y-3.1
X5.65Y-3.9
X5.75Y-3.1
X5.75Y-3.9
X5.85Y-3.1
X5.85Y-3.9
X5.95Y-3.1
X5.95Y-3.9
X6.05Y-3.1
X6.05Y-3.9
X6.15Y-3.1
X6.15Y-3.9
X6.25Y-3.1
X6.25Y-3.9
X6.35Y-3.1
X6.35Y-3.9
X6.45Y-3.1
X6.45Y-3.9
X6.55Y-3.1
X6.55Y-3.9
X6.65Y-3.1
X6.65Y-3.9
X6.75Y-3.1
X6.75Y-3.9
T5
X5.54Y-4.1
X6.04Y-4.1
T6
X5.54Y-5.0339
X6.4652Y-5.0339
T0
M30
