%TF.GenerationSoftware,KiCad,Pcbnew,5.1.12-1.fc35*%
%TF.CreationDate,2022-01-13T15:21:34+01:00*%
%TF.ProjectId,burrboard,62757272-626f-4617-9264-2e6b69636164,v2.0*%
%TF.SameCoordinates,Original*%
%TF.FileFunction,Soldermask,Top*%
%TF.FilePolarity,Negative*%
%FSLAX46Y46*%
G04 Gerber Fmt 4.6, Leading zero omitted, Abs format (unit mm)*
G04 Created by KiCad (PCBNEW 5.1.12-1.fc35) date 2022-01-13 15:21:34*
%MOMM*%
%LPD*%
G01*
G04 APERTURE LIST*
%ADD10C,3.101600*%
%ADD11C,3.551600*%
%ADD12O,1.801600X1.801600*%
%ADD13C,1.625600*%
%ADD14C,2.001600*%
G04 APERTURE END LIST*
%TO.C,Q1*%
G36*
G01*
X164332200Y-121824800D02*
X164332200Y-122624800D01*
G75*
G02*
X164281400Y-122675600I-50800J0D01*
G01*
X163181400Y-122675600D01*
G75*
G02*
X163130600Y-122624800I0J50800D01*
G01*
X163130600Y-121824800D01*
G75*
G02*
X163181400Y-121774000I50800J0D01*
G01*
X164281400Y-121774000D01*
G75*
G02*
X164332200Y-121824800I0J-50800D01*
G01*
G37*
G36*
G01*
X167882200Y-121274800D02*
X167882200Y-122074800D01*
G75*
G02*
X167831400Y-122125600I-50800J0D01*
G01*
X166731400Y-122125600D01*
G75*
G02*
X166680600Y-122074800I0J50800D01*
G01*
X166680600Y-121274800D01*
G75*
G02*
X166731400Y-121224000I50800J0D01*
G01*
X167831400Y-121224000D01*
G75*
G02*
X167882200Y-121274800I0J-50800D01*
G01*
G37*
G36*
G01*
X167882200Y-122374800D02*
X167882200Y-123174800D01*
G75*
G02*
X167831400Y-123225600I-50800J0D01*
G01*
X166731400Y-123225600D01*
G75*
G02*
X166680600Y-123174800I0J50800D01*
G01*
X166680600Y-122374800D01*
G75*
G02*
X166731400Y-122324000I50800J0D01*
G01*
X167831400Y-122324000D01*
G75*
G02*
X167882200Y-122374800I0J-50800D01*
G01*
G37*
%TD*%
%TO.C,S1*%
G36*
G01*
X134899200Y-143180000D02*
X134899200Y-141880000D01*
G75*
G02*
X134950000Y-141829200I50800J0D01*
G01*
X136500000Y-141829200D01*
G75*
G02*
X136550800Y-141880000I0J-50800D01*
G01*
X136550800Y-143180000D01*
G75*
G02*
X136500000Y-143230800I-50800J0D01*
G01*
X134950000Y-143230800D01*
G75*
G02*
X134899200Y-143180000I0J50800D01*
G01*
G37*
G36*
G01*
X142849200Y-143180000D02*
X142849200Y-141880000D01*
G75*
G02*
X142900000Y-141829200I50800J0D01*
G01*
X144450000Y-141829200D01*
G75*
G02*
X144500800Y-141880000I0J-50800D01*
G01*
X144500800Y-143180000D01*
G75*
G02*
X144450000Y-143230800I-50800J0D01*
G01*
X142900000Y-143230800D01*
G75*
G02*
X142849200Y-143180000I0J50800D01*
G01*
G37*
G36*
G01*
X134899200Y-147680000D02*
X134899200Y-146380000D01*
G75*
G02*
X134950000Y-146329200I50800J0D01*
G01*
X136500000Y-146329200D01*
G75*
G02*
X136550800Y-146380000I0J-50800D01*
G01*
X136550800Y-147680000D01*
G75*
G02*
X136500000Y-147730800I-50800J0D01*
G01*
X134950000Y-147730800D01*
G75*
G02*
X134899200Y-147680000I0J50800D01*
G01*
G37*
G36*
G01*
X142849200Y-147680000D02*
X142849200Y-146380000D01*
G75*
G02*
X142900000Y-146329200I50800J0D01*
G01*
X144450000Y-146329200D01*
G75*
G02*
X144500800Y-146380000I0J-50800D01*
G01*
X144500800Y-147680000D01*
G75*
G02*
X144450000Y-147730800I-50800J0D01*
G01*
X142900000Y-147730800D01*
G75*
G02*
X142849200Y-147680000I0J50800D01*
G01*
G37*
%TD*%
%TO.C,S2*%
G36*
G01*
X160299200Y-143180000D02*
X160299200Y-141880000D01*
G75*
G02*
X160350000Y-141829200I50800J0D01*
G01*
X161900000Y-141829200D01*
G75*
G02*
X161950800Y-141880000I0J-50800D01*
G01*
X161950800Y-143180000D01*
G75*
G02*
X161900000Y-143230800I-50800J0D01*
G01*
X160350000Y-143230800D01*
G75*
G02*
X160299200Y-143180000I0J50800D01*
G01*
G37*
G36*
G01*
X168249200Y-143180000D02*
X168249200Y-141880000D01*
G75*
G02*
X168300000Y-141829200I50800J0D01*
G01*
X169850000Y-141829200D01*
G75*
G02*
X169900800Y-141880000I0J-50800D01*
G01*
X169900800Y-143180000D01*
G75*
G02*
X169850000Y-143230800I-50800J0D01*
G01*
X168300000Y-143230800D01*
G75*
G02*
X168249200Y-143180000I0J50800D01*
G01*
G37*
G36*
G01*
X160299200Y-147680000D02*
X160299200Y-146380000D01*
G75*
G02*
X160350000Y-146329200I50800J0D01*
G01*
X161900000Y-146329200D01*
G75*
G02*
X161950800Y-146380000I0J-50800D01*
G01*
X161950800Y-147680000D01*
G75*
G02*
X161900000Y-147730800I-50800J0D01*
G01*
X160350000Y-147730800D01*
G75*
G02*
X160299200Y-147680000I0J50800D01*
G01*
G37*
G36*
G01*
X168249200Y-147680000D02*
X168249200Y-146380000D01*
G75*
G02*
X168300000Y-146329200I50800J0D01*
G01*
X169850000Y-146329200D01*
G75*
G02*
X169900800Y-146380000I0J-50800D01*
G01*
X169900800Y-147680000D01*
G75*
G02*
X169850000Y-147730800I-50800J0D01*
G01*
X168300000Y-147730800D01*
G75*
G02*
X168249200Y-147680000I0J50800D01*
G01*
G37*
%TD*%
%TO.C,U2*%
G36*
G01*
X155015360Y-91972180D02*
X155015360Y-93117180D01*
G75*
G02*
X154964560Y-93167980I-50800J0D01*
G01*
X154414560Y-93167980D01*
G75*
G02*
X154363760Y-93117180I0J50800D01*
G01*
X154363760Y-91972180D01*
G75*
G02*
X154414560Y-91921380I50800J0D01*
G01*
X154964560Y-91921380D01*
G75*
G02*
X155015360Y-91972180I0J-50800D01*
G01*
G37*
G36*
G01*
X154215360Y-91972180D02*
X154215360Y-93117180D01*
G75*
G02*
X154164560Y-93167980I-50800J0D01*
G01*
X153614560Y-93167980D01*
G75*
G02*
X153563760Y-93117180I0J50800D01*
G01*
X153563760Y-91972180D01*
G75*
G02*
X153614560Y-91921380I50800J0D01*
G01*
X154164560Y-91921380D01*
G75*
G02*
X154215360Y-91972180I0J-50800D01*
G01*
G37*
G36*
G01*
X153415360Y-91972180D02*
X153415360Y-93117180D01*
G75*
G02*
X153364560Y-93167980I-50800J0D01*
G01*
X152814560Y-93167980D01*
G75*
G02*
X152763760Y-93117180I0J50800D01*
G01*
X152763760Y-91972180D01*
G75*
G02*
X152814560Y-91921380I50800J0D01*
G01*
X153364560Y-91921380D01*
G75*
G02*
X153415360Y-91972180I0J-50800D01*
G01*
G37*
G36*
G01*
X152615360Y-91972180D02*
X152615360Y-93117180D01*
G75*
G02*
X152564560Y-93167980I-50800J0D01*
G01*
X152014560Y-93167980D01*
G75*
G02*
X151963760Y-93117180I0J50800D01*
G01*
X151963760Y-91972180D01*
G75*
G02*
X152014560Y-91921380I50800J0D01*
G01*
X152564560Y-91921380D01*
G75*
G02*
X152615360Y-91972180I0J-50800D01*
G01*
G37*
G36*
G01*
X151815360Y-91972180D02*
X151815360Y-93117180D01*
G75*
G02*
X151764560Y-93167980I-50800J0D01*
G01*
X151214560Y-93167980D01*
G75*
G02*
X151163760Y-93117180I0J50800D01*
G01*
X151163760Y-91972180D01*
G75*
G02*
X151214560Y-91921380I50800J0D01*
G01*
X151764560Y-91921380D01*
G75*
G02*
X151815360Y-91972180I0J-50800D01*
G01*
G37*
G36*
G01*
X151015360Y-91972180D02*
X151015360Y-93117180D01*
G75*
G02*
X150964560Y-93167980I-50800J0D01*
G01*
X150414560Y-93167980D01*
G75*
G02*
X150363760Y-93117180I0J50800D01*
G01*
X150363760Y-91972180D01*
G75*
G02*
X150414560Y-91921380I50800J0D01*
G01*
X150964560Y-91921380D01*
G75*
G02*
X151015360Y-91972180I0J-50800D01*
G01*
G37*
G36*
G01*
X151015360Y-94167180D02*
X151015360Y-95312180D01*
G75*
G02*
X150964560Y-95362980I-50800J0D01*
G01*
X150414560Y-95362980D01*
G75*
G02*
X150363760Y-95312180I0J50800D01*
G01*
X150363760Y-94167180D01*
G75*
G02*
X150414560Y-94116380I50800J0D01*
G01*
X150964560Y-94116380D01*
G75*
G02*
X151015360Y-94167180I0J-50800D01*
G01*
G37*
G36*
G01*
X151815360Y-94167180D02*
X151815360Y-95312180D01*
G75*
G02*
X151764560Y-95362980I-50800J0D01*
G01*
X151214560Y-95362980D01*
G75*
G02*
X151163760Y-95312180I0J50800D01*
G01*
X151163760Y-94167180D01*
G75*
G02*
X151214560Y-94116380I50800J0D01*
G01*
X151764560Y-94116380D01*
G75*
G02*
X151815360Y-94167180I0J-50800D01*
G01*
G37*
G36*
G01*
X152615360Y-94167180D02*
X152615360Y-95312180D01*
G75*
G02*
X152564560Y-95362980I-50800J0D01*
G01*
X152014560Y-95362980D01*
G75*
G02*
X151963760Y-95312180I0J50800D01*
G01*
X151963760Y-94167180D01*
G75*
G02*
X152014560Y-94116380I50800J0D01*
G01*
X152564560Y-94116380D01*
G75*
G02*
X152615360Y-94167180I0J-50800D01*
G01*
G37*
G36*
G01*
X153415360Y-94167180D02*
X153415360Y-95312180D01*
G75*
G02*
X153364560Y-95362980I-50800J0D01*
G01*
X152814560Y-95362980D01*
G75*
G02*
X152763760Y-95312180I0J50800D01*
G01*
X152763760Y-94167180D01*
G75*
G02*
X152814560Y-94116380I50800J0D01*
G01*
X153364560Y-94116380D01*
G75*
G02*
X153415360Y-94167180I0J-50800D01*
G01*
G37*
G36*
G01*
X154215360Y-94167180D02*
X154215360Y-95312180D01*
G75*
G02*
X154164560Y-95362980I-50800J0D01*
G01*
X153614560Y-95362980D01*
G75*
G02*
X153563760Y-95312180I0J50800D01*
G01*
X153563760Y-94167180D01*
G75*
G02*
X153614560Y-94116380I50800J0D01*
G01*
X154164560Y-94116380D01*
G75*
G02*
X154215360Y-94167180I0J-50800D01*
G01*
G37*
G36*
G01*
X155015360Y-94167180D02*
X155015360Y-95312180D01*
G75*
G02*
X154964560Y-95362980I-50800J0D01*
G01*
X154414560Y-95362980D01*
G75*
G02*
X154363760Y-95312180I0J50800D01*
G01*
X154363760Y-94167180D01*
G75*
G02*
X154414560Y-94116380I50800J0D01*
G01*
X154964560Y-94116380D01*
G75*
G02*
X155015360Y-94167180I0J-50800D01*
G01*
G37*
G36*
G01*
X155410360Y-93367180D02*
X155410360Y-93917180D01*
G75*
G02*
X155359560Y-93967980I-50800J0D01*
G01*
X154214560Y-93967980D01*
G75*
G02*
X154163760Y-93917180I0J50800D01*
G01*
X154163760Y-93367180D01*
G75*
G02*
X154214560Y-93316380I50800J0D01*
G01*
X155359560Y-93316380D01*
G75*
G02*
X155410360Y-93367180I0J-50800D01*
G01*
G37*
G36*
G01*
X151215360Y-93367180D02*
X151215360Y-93917180D01*
G75*
G02*
X151164560Y-93967980I-50800J0D01*
G01*
X150019560Y-93967980D01*
G75*
G02*
X149968760Y-93917180I0J50800D01*
G01*
X149968760Y-93367180D01*
G75*
G02*
X150019560Y-93316380I50800J0D01*
G01*
X151164560Y-93316380D01*
G75*
G02*
X151215360Y-93367180I0J-50800D01*
G01*
G37*
%TD*%
%TO.C,BT1*%
G36*
G01*
X139216000Y-102589200D02*
X142216000Y-102589200D01*
G75*
G02*
X142266800Y-102640000I0J-50800D01*
G01*
X142266800Y-105640000D01*
G75*
G02*
X142216000Y-105690800I-50800J0D01*
G01*
X139216000Y-105690800D01*
G75*
G02*
X139165200Y-105640000I0J50800D01*
G01*
X139165200Y-102640000D01*
G75*
G02*
X139216000Y-102589200I50800J0D01*
G01*
G37*
D10*
X153416000Y-104140000D03*
D11*
X140716000Y-127860000D03*
X164216000Y-127860000D03*
%TD*%
%TO.C,U1*%
G36*
G01*
X144470800Y-123649600D02*
X144470800Y-124000400D01*
G75*
G02*
X144295400Y-124175800I-175400J0D01*
G01*
X142594600Y-124175800D01*
G75*
G02*
X142419200Y-124000400I0J175400D01*
G01*
X142419200Y-123649600D01*
G75*
G02*
X142594600Y-123474200I175400J0D01*
G01*
X144295400Y-123474200D01*
G75*
G02*
X144470800Y-123649600I0J-175400D01*
G01*
G37*
G36*
G01*
X144470800Y-122379600D02*
X144470800Y-122730400D01*
G75*
G02*
X144295400Y-122905800I-175400J0D01*
G01*
X142594600Y-122905800D01*
G75*
G02*
X142419200Y-122730400I0J175400D01*
G01*
X142419200Y-122379600D01*
G75*
G02*
X142594600Y-122204200I175400J0D01*
G01*
X144295400Y-122204200D01*
G75*
G02*
X144470800Y-122379600I0J-175400D01*
G01*
G37*
G36*
G01*
X144470800Y-121109600D02*
X144470800Y-121460400D01*
G75*
G02*
X144295400Y-121635800I-175400J0D01*
G01*
X142594600Y-121635800D01*
G75*
G02*
X142419200Y-121460400I0J175400D01*
G01*
X142419200Y-121109600D01*
G75*
G02*
X142594600Y-120934200I175400J0D01*
G01*
X144295400Y-120934200D01*
G75*
G02*
X144470800Y-121109600I0J-175400D01*
G01*
G37*
G36*
G01*
X144470800Y-119839600D02*
X144470800Y-120190400D01*
G75*
G02*
X144295400Y-120365800I-175400J0D01*
G01*
X142594600Y-120365800D01*
G75*
G02*
X142419200Y-120190400I0J175400D01*
G01*
X142419200Y-119839600D01*
G75*
G02*
X142594600Y-119664200I175400J0D01*
G01*
X144295400Y-119664200D01*
G75*
G02*
X144470800Y-119839600I0J-175400D01*
G01*
G37*
G36*
G01*
X139520800Y-119839600D02*
X139520800Y-120190400D01*
G75*
G02*
X139345400Y-120365800I-175400J0D01*
G01*
X137644600Y-120365800D01*
G75*
G02*
X137469200Y-120190400I0J175400D01*
G01*
X137469200Y-119839600D01*
G75*
G02*
X137644600Y-119664200I175400J0D01*
G01*
X139345400Y-119664200D01*
G75*
G02*
X139520800Y-119839600I0J-175400D01*
G01*
G37*
G36*
G01*
X139520800Y-121109600D02*
X139520800Y-121460400D01*
G75*
G02*
X139345400Y-121635800I-175400J0D01*
G01*
X137644600Y-121635800D01*
G75*
G02*
X137469200Y-121460400I0J175400D01*
G01*
X137469200Y-121109600D01*
G75*
G02*
X137644600Y-120934200I175400J0D01*
G01*
X139345400Y-120934200D01*
G75*
G02*
X139520800Y-121109600I0J-175400D01*
G01*
G37*
G36*
G01*
X139520800Y-122379600D02*
X139520800Y-122730400D01*
G75*
G02*
X139345400Y-122905800I-175400J0D01*
G01*
X137644600Y-122905800D01*
G75*
G02*
X137469200Y-122730400I0J175400D01*
G01*
X137469200Y-122379600D01*
G75*
G02*
X137644600Y-122204200I175400J0D01*
G01*
X139345400Y-122204200D01*
G75*
G02*
X139520800Y-122379600I0J-175400D01*
G01*
G37*
G36*
G01*
X139520800Y-123649600D02*
X139520800Y-124000400D01*
G75*
G02*
X139345400Y-124175800I-175400J0D01*
G01*
X137644600Y-124175800D01*
G75*
G02*
X137469200Y-124000400I0J175400D01*
G01*
X137469200Y-123649600D01*
G75*
G02*
X137644600Y-123474200I175400J0D01*
G01*
X139345400Y-123474200D01*
G75*
G02*
X139520800Y-123649600I0J-175400D01*
G01*
G37*
%TD*%
%TO.C,J1*%
G36*
G01*
X170600000Y-98159200D02*
X172300000Y-98159200D01*
G75*
G02*
X172350800Y-98210000I0J-50800D01*
G01*
X172350800Y-99910000D01*
G75*
G02*
X172300000Y-99960800I-50800J0D01*
G01*
X170600000Y-99960800D01*
G75*
G02*
X170549200Y-99910000I0J50800D01*
G01*
X170549200Y-98210000D01*
G75*
G02*
X170600000Y-98159200I50800J0D01*
G01*
G37*
D12*
X168910000Y-99060000D03*
X166370000Y-99060000D03*
X163830000Y-99060000D03*
X161290000Y-99060000D03*
X158750000Y-99060000D03*
X156210000Y-99060000D03*
X153670000Y-99060000D03*
X151130000Y-99060000D03*
X148590000Y-99060000D03*
X146050000Y-99060000D03*
X143510000Y-99060000D03*
X140970000Y-99060000D03*
X138430000Y-99060000D03*
X135890000Y-99060000D03*
X133350000Y-99060000D03*
%TD*%
%TO.C,J2*%
G36*
G01*
X170600000Y-77839200D02*
X172300000Y-77839200D01*
G75*
G02*
X172350800Y-77890000I0J-50800D01*
G01*
X172350800Y-79590000D01*
G75*
G02*
X172300000Y-79640800I-50800J0D01*
G01*
X170600000Y-79640800D01*
G75*
G02*
X170549200Y-79590000I0J50800D01*
G01*
X170549200Y-77890000D01*
G75*
G02*
X170600000Y-77839200I50800J0D01*
G01*
G37*
X168910000Y-78740000D03*
X166370000Y-78740000D03*
X163830000Y-78740000D03*
X161290000Y-78740000D03*
X158750000Y-78740000D03*
X156210000Y-78740000D03*
X153670000Y-78740000D03*
X151130000Y-78740000D03*
X148590000Y-78740000D03*
X146050000Y-78740000D03*
X143510000Y-78740000D03*
%TD*%
%TO.C,C1*%
G36*
G01*
X135611863Y-120624000D02*
X134603497Y-120624000D01*
G75*
G02*
X134331880Y-120352383I0J271617D01*
G01*
X134331880Y-119619017D01*
G75*
G02*
X134603497Y-119347400I271617J0D01*
G01*
X135611863Y-119347400D01*
G75*
G02*
X135883480Y-119619017I0J-271617D01*
G01*
X135883480Y-120352383D01*
G75*
G02*
X135611863Y-120624000I-271617J0D01*
G01*
G37*
G36*
G01*
X135611863Y-118549000D02*
X134603497Y-118549000D01*
G75*
G02*
X134331880Y-118277383I0J271617D01*
G01*
X134331880Y-117544017D01*
G75*
G02*
X134603497Y-117272400I271617J0D01*
G01*
X135611863Y-117272400D01*
G75*
G02*
X135883480Y-117544017I0J-271617D01*
G01*
X135883480Y-118277383D01*
G75*
G02*
X135611863Y-118549000I-271617J0D01*
G01*
G37*
%TD*%
%TO.C,C2*%
G36*
G01*
X152226860Y-89340697D02*
X152226860Y-90349063D01*
G75*
G02*
X151955243Y-90620680I-271617J0D01*
G01*
X151221877Y-90620680D01*
G75*
G02*
X150950260Y-90349063I0J271617D01*
G01*
X150950260Y-89340697D01*
G75*
G02*
X151221877Y-89069080I271617J0D01*
G01*
X151955243Y-89069080D01*
G75*
G02*
X152226860Y-89340697I0J-271617D01*
G01*
G37*
G36*
G01*
X154301860Y-89340697D02*
X154301860Y-90349063D01*
G75*
G02*
X154030243Y-90620680I-271617J0D01*
G01*
X153296877Y-90620680D01*
G75*
G02*
X153025260Y-90349063I0J271617D01*
G01*
X153025260Y-89340697D01*
G75*
G02*
X153296877Y-89069080I271617J0D01*
G01*
X154030243Y-89069080D01*
G75*
G02*
X154301860Y-89340697I0J-271617D01*
G01*
G37*
%TD*%
%TO.C,C3*%
G36*
G01*
X158311843Y-91045880D02*
X157303477Y-91045880D01*
G75*
G02*
X157031860Y-90774263I0J271617D01*
G01*
X157031860Y-90040897D01*
G75*
G02*
X157303477Y-89769280I271617J0D01*
G01*
X158311843Y-89769280D01*
G75*
G02*
X158583460Y-90040897I0J-271617D01*
G01*
X158583460Y-90774263D01*
G75*
G02*
X158311843Y-91045880I-271617J0D01*
G01*
G37*
G36*
G01*
X158311843Y-93120880D02*
X157303477Y-93120880D01*
G75*
G02*
X157031860Y-92849263I0J271617D01*
G01*
X157031860Y-92115897D01*
G75*
G02*
X157303477Y-91844280I271617J0D01*
G01*
X158311843Y-91844280D01*
G75*
G02*
X158583460Y-92115897I0J-271617D01*
G01*
X158583460Y-92849263D01*
G75*
G02*
X158311843Y-93120880I-271617J0D01*
G01*
G37*
%TD*%
%TO.C,C4*%
G36*
G01*
X147796243Y-93044680D02*
X146787877Y-93044680D01*
G75*
G02*
X146516260Y-92773063I0J271617D01*
G01*
X146516260Y-92039697D01*
G75*
G02*
X146787877Y-91768080I271617J0D01*
G01*
X147796243Y-91768080D01*
G75*
G02*
X148067860Y-92039697I0J-271617D01*
G01*
X148067860Y-92773063D01*
G75*
G02*
X147796243Y-93044680I-271617J0D01*
G01*
G37*
G36*
G01*
X147796243Y-90969680D02*
X146787877Y-90969680D01*
G75*
G02*
X146516260Y-90698063I0J271617D01*
G01*
X146516260Y-89964697D01*
G75*
G02*
X146787877Y-89693080I271617J0D01*
G01*
X147796243Y-89693080D01*
G75*
G02*
X148067860Y-89964697I0J-271617D01*
G01*
X148067860Y-90698063D01*
G75*
G02*
X147796243Y-90969680I-271617J0D01*
G01*
G37*
%TD*%
%TO.C,R1*%
G36*
G01*
X171650235Y-124053400D02*
X170690965Y-124053400D01*
G75*
G02*
X170419800Y-123782235I0J271165D01*
G01*
X170419800Y-123022965D01*
G75*
G02*
X170690965Y-122751800I271165J0D01*
G01*
X171650235Y-122751800D01*
G75*
G02*
X171921400Y-123022965I0J-271165D01*
G01*
X171921400Y-123782235D01*
G75*
G02*
X171650235Y-124053400I-271165J0D01*
G01*
G37*
G36*
G01*
X171650235Y-122053400D02*
X170690965Y-122053400D01*
G75*
G02*
X170419800Y-121782235I0J271165D01*
G01*
X170419800Y-121022965D01*
G75*
G02*
X170690965Y-120751800I271165J0D01*
G01*
X171650235Y-120751800D01*
G75*
G02*
X171921400Y-121022965I0J-271165D01*
G01*
X171921400Y-121782235D01*
G75*
G02*
X171650235Y-122053400I-271165J0D01*
G01*
G37*
%TD*%
D13*
%TO.C,J3*%
X131927600Y-105734800D03*
X129387600Y-105714800D03*
%TD*%
%TO.C,S3*%
G36*
G01*
X129656800Y-113604000D02*
X131556800Y-113604000D01*
G75*
G02*
X131607600Y-113654800I0J-50800D01*
G01*
X131607600Y-115554800D01*
G75*
G02*
X131556800Y-115605600I-50800J0D01*
G01*
X129656800Y-115605600D01*
G75*
G02*
X129606000Y-115554800I0J50800D01*
G01*
X129606000Y-113654800D01*
G75*
G02*
X129656800Y-113604000I50800J0D01*
G01*
G37*
D14*
X130606800Y-117104800D03*
X130606800Y-119604800D03*
%TD*%
%TO.C,R2*%
G36*
G01*
X164706500Y-89544735D02*
X164706500Y-88585465D01*
G75*
G02*
X164977665Y-88314300I271165J0D01*
G01*
X165736935Y-88314300D01*
G75*
G02*
X166008100Y-88585465I0J-271165D01*
G01*
X166008100Y-89544735D01*
G75*
G02*
X165736935Y-89815900I-271165J0D01*
G01*
X164977665Y-89815900D01*
G75*
G02*
X164706500Y-89544735I0J271165D01*
G01*
G37*
G36*
G01*
X166706500Y-89544735D02*
X166706500Y-88585465D01*
G75*
G02*
X166977665Y-88314300I271165J0D01*
G01*
X167736935Y-88314300D01*
G75*
G02*
X168008100Y-88585465I0J-271165D01*
G01*
X168008100Y-89544735D01*
G75*
G02*
X167736935Y-89815900I-271165J0D01*
G01*
X166977665Y-89815900D01*
G75*
G02*
X166706500Y-89544735I0J271165D01*
G01*
G37*
%TD*%
%TO.C,R3*%
G36*
G01*
X166770000Y-86141135D02*
X166770000Y-85181865D01*
G75*
G02*
X167041165Y-84910700I271165J0D01*
G01*
X167800435Y-84910700D01*
G75*
G02*
X168071600Y-85181865I0J-271165D01*
G01*
X168071600Y-86141135D01*
G75*
G02*
X167800435Y-86412300I-271165J0D01*
G01*
X167041165Y-86412300D01*
G75*
G02*
X166770000Y-86141135I0J271165D01*
G01*
G37*
G36*
G01*
X164770000Y-86141135D02*
X164770000Y-85181865D01*
G75*
G02*
X165041165Y-84910700I271165J0D01*
G01*
X165800435Y-84910700D01*
G75*
G02*
X166071600Y-85181865I0J-271165D01*
G01*
X166071600Y-86141135D01*
G75*
G02*
X165800435Y-86412300I-271165J0D01*
G01*
X165041165Y-86412300D01*
G75*
G02*
X164770000Y-86141135I0J271165D01*
G01*
G37*
%TD*%
%TO.C,R7*%
G36*
G01*
X147669200Y-104619635D02*
X147669200Y-103660365D01*
G75*
G02*
X147940365Y-103389200I271165J0D01*
G01*
X148699635Y-103389200D01*
G75*
G02*
X148970800Y-103660365I0J-271165D01*
G01*
X148970800Y-104619635D01*
G75*
G02*
X148699635Y-104890800I-271165J0D01*
G01*
X147940365Y-104890800D01*
G75*
G02*
X147669200Y-104619635I0J271165D01*
G01*
G37*
G36*
G01*
X145669200Y-104619635D02*
X145669200Y-103660365D01*
G75*
G02*
X145940365Y-103389200I271165J0D01*
G01*
X146699635Y-103389200D01*
G75*
G02*
X146970800Y-103660365I0J-271165D01*
G01*
X146970800Y-104619635D01*
G75*
G02*
X146699635Y-104890800I-271165J0D01*
G01*
X145940365Y-104890800D01*
G75*
G02*
X145669200Y-104619635I0J271165D01*
G01*
G37*
%TD*%
%TO.C,R9*%
G36*
G01*
X159130800Y-103660365D02*
X159130800Y-104619635D01*
G75*
G02*
X158859635Y-104890800I-271165J0D01*
G01*
X158100365Y-104890800D01*
G75*
G02*
X157829200Y-104619635I0J271165D01*
G01*
X157829200Y-103660365D01*
G75*
G02*
X158100365Y-103389200I271165J0D01*
G01*
X158859635Y-103389200D01*
G75*
G02*
X159130800Y-103660365I0J-271165D01*
G01*
G37*
G36*
G01*
X157130800Y-103660365D02*
X157130800Y-104619635D01*
G75*
G02*
X156859635Y-104890800I-271165J0D01*
G01*
X156100365Y-104890800D01*
G75*
G02*
X155829200Y-104619635I0J271165D01*
G01*
X155829200Y-103660365D01*
G75*
G02*
X156100365Y-103389200I271165J0D01*
G01*
X156859635Y-103389200D01*
G75*
G02*
X157130800Y-103660365I0J-271165D01*
G01*
G37*
%TD*%
%TO.C,RED*%
G36*
G01*
X138810800Y-107471285D02*
X138810800Y-108428715D01*
G75*
G02*
X138538715Y-108700800I-272085J0D01*
G01*
X137831285Y-108700800D01*
G75*
G02*
X137559200Y-108428715I0J272085D01*
G01*
X137559200Y-107471285D01*
G75*
G02*
X137831285Y-107199200I272085J0D01*
G01*
X138538715Y-107199200D01*
G75*
G02*
X138810800Y-107471285I0J-272085D01*
G01*
G37*
G36*
G01*
X136760800Y-107471285D02*
X136760800Y-108428715D01*
G75*
G02*
X136488715Y-108700800I-272085J0D01*
G01*
X135781285Y-108700800D01*
G75*
G02*
X135509200Y-108428715I0J272085D01*
G01*
X135509200Y-107471285D01*
G75*
G02*
X135781285Y-107199200I272085J0D01*
G01*
X136488715Y-107199200D01*
G75*
G02*
X136760800Y-107471285I0J-272085D01*
G01*
G37*
%TD*%
%TO.C,GREEN*%
G36*
G01*
X146920800Y-107471285D02*
X146920800Y-108428715D01*
G75*
G02*
X146648715Y-108700800I-272085J0D01*
G01*
X145941285Y-108700800D01*
G75*
G02*
X145669200Y-108428715I0J272085D01*
G01*
X145669200Y-107471285D01*
G75*
G02*
X145941285Y-107199200I272085J0D01*
G01*
X146648715Y-107199200D01*
G75*
G02*
X146920800Y-107471285I0J-272085D01*
G01*
G37*
G36*
G01*
X148970800Y-107471285D02*
X148970800Y-108428715D01*
G75*
G02*
X148698715Y-108700800I-272085J0D01*
G01*
X147991285Y-108700800D01*
G75*
G02*
X147719200Y-108428715I0J272085D01*
G01*
X147719200Y-107471285D01*
G75*
G02*
X147991285Y-107199200I272085J0D01*
G01*
X148698715Y-107199200D01*
G75*
G02*
X148970800Y-107471285I0J-272085D01*
G01*
G37*
%TD*%
%TO.C,BLUE*%
G36*
G01*
X159130800Y-107471285D02*
X159130800Y-108428715D01*
G75*
G02*
X158858715Y-108700800I-272085J0D01*
G01*
X158151285Y-108700800D01*
G75*
G02*
X157879200Y-108428715I0J272085D01*
G01*
X157879200Y-107471285D01*
G75*
G02*
X158151285Y-107199200I272085J0D01*
G01*
X158858715Y-107199200D01*
G75*
G02*
X159130800Y-107471285I0J-272085D01*
G01*
G37*
G36*
G01*
X157080800Y-107471285D02*
X157080800Y-108428715D01*
G75*
G02*
X156808715Y-108700800I-272085J0D01*
G01*
X156101285Y-108700800D01*
G75*
G02*
X155829200Y-108428715I0J272085D01*
G01*
X155829200Y-107471285D01*
G75*
G02*
X156101285Y-107199200I272085J0D01*
G01*
X156808715Y-107199200D01*
G75*
G02*
X157080800Y-107471285I0J-272085D01*
G01*
G37*
%TD*%
%TO.C,YELLOW*%
G36*
G01*
X167240800Y-107471285D02*
X167240800Y-108428715D01*
G75*
G02*
X166968715Y-108700800I-272085J0D01*
G01*
X166261285Y-108700800D01*
G75*
G02*
X165989200Y-108428715I0J272085D01*
G01*
X165989200Y-107471285D01*
G75*
G02*
X166261285Y-107199200I272085J0D01*
G01*
X166968715Y-107199200D01*
G75*
G02*
X167240800Y-107471285I0J-272085D01*
G01*
G37*
G36*
G01*
X169290800Y-107471285D02*
X169290800Y-108428715D01*
G75*
G02*
X169018715Y-108700800I-272085J0D01*
G01*
X168311285Y-108700800D01*
G75*
G02*
X168039200Y-108428715I0J272085D01*
G01*
X168039200Y-107471285D01*
G75*
G02*
X168311285Y-107199200I272085J0D01*
G01*
X169018715Y-107199200D01*
G75*
G02*
X169290800Y-107471285I0J-272085D01*
G01*
G37*
%TD*%
%TO.C,R4*%
G36*
G01*
X136280735Y-136169200D02*
X135321465Y-136169200D01*
G75*
G02*
X135050300Y-135898035I0J271165D01*
G01*
X135050300Y-135138765D01*
G75*
G02*
X135321465Y-134867600I271165J0D01*
G01*
X136280735Y-134867600D01*
G75*
G02*
X136551900Y-135138765I0J-271165D01*
G01*
X136551900Y-135898035D01*
G75*
G02*
X136280735Y-136169200I-271165J0D01*
G01*
G37*
G36*
G01*
X136280735Y-134169200D02*
X135321465Y-134169200D01*
G75*
G02*
X135050300Y-133898035I0J271165D01*
G01*
X135050300Y-133138765D01*
G75*
G02*
X135321465Y-132867600I271165J0D01*
G01*
X136280735Y-132867600D01*
G75*
G02*
X136551900Y-133138765I0J-271165D01*
G01*
X136551900Y-133898035D01*
G75*
G02*
X136280735Y-134169200I-271165J0D01*
G01*
G37*
%TD*%
%TO.C,R5*%
G36*
G01*
X169491235Y-134372400D02*
X168531965Y-134372400D01*
G75*
G02*
X168260800Y-134101235I0J271165D01*
G01*
X168260800Y-133341965D01*
G75*
G02*
X168531965Y-133070800I271165J0D01*
G01*
X169491235Y-133070800D01*
G75*
G02*
X169762400Y-133341965I0J-271165D01*
G01*
X169762400Y-134101235D01*
G75*
G02*
X169491235Y-134372400I-271165J0D01*
G01*
G37*
G36*
G01*
X169491235Y-136372400D02*
X168531965Y-136372400D01*
G75*
G02*
X168260800Y-136101235I0J271165D01*
G01*
X168260800Y-135341965D01*
G75*
G02*
X168531965Y-135070800I271165J0D01*
G01*
X169491235Y-135070800D01*
G75*
G02*
X169762400Y-135341965I0J-271165D01*
G01*
X169762400Y-136101235D01*
G75*
G02*
X169491235Y-136372400I-271165J0D01*
G01*
G37*
%TD*%
%TO.C,R6*%
G36*
G01*
X135509200Y-104619635D02*
X135509200Y-103660365D01*
G75*
G02*
X135780365Y-103389200I271165J0D01*
G01*
X136539635Y-103389200D01*
G75*
G02*
X136810800Y-103660365I0J-271165D01*
G01*
X136810800Y-104619635D01*
G75*
G02*
X136539635Y-104890800I-271165J0D01*
G01*
X135780365Y-104890800D01*
G75*
G02*
X135509200Y-104619635I0J271165D01*
G01*
G37*
G36*
G01*
X137509200Y-104619635D02*
X137509200Y-103660365D01*
G75*
G02*
X137780365Y-103389200I271165J0D01*
G01*
X138539635Y-103389200D01*
G75*
G02*
X138810800Y-103660365I0J-271165D01*
G01*
X138810800Y-104619635D01*
G75*
G02*
X138539635Y-104890800I-271165J0D01*
G01*
X137780365Y-104890800D01*
G75*
G02*
X137509200Y-104619635I0J271165D01*
G01*
G37*
%TD*%
%TO.C,R8*%
G36*
G01*
X167290800Y-103660365D02*
X167290800Y-104619635D01*
G75*
G02*
X167019635Y-104890800I-271165J0D01*
G01*
X166260365Y-104890800D01*
G75*
G02*
X165989200Y-104619635I0J271165D01*
G01*
X165989200Y-103660365D01*
G75*
G02*
X166260365Y-103389200I271165J0D01*
G01*
X167019635Y-103389200D01*
G75*
G02*
X167290800Y-103660365I0J-271165D01*
G01*
G37*
G36*
G01*
X169290800Y-103660365D02*
X169290800Y-104619635D01*
G75*
G02*
X169019635Y-104890800I-271165J0D01*
G01*
X168260365Y-104890800D01*
G75*
G02*
X167989200Y-104619635I0J271165D01*
G01*
X167989200Y-103660365D01*
G75*
G02*
X168260365Y-103389200I271165J0D01*
G01*
X169019635Y-103389200D01*
G75*
G02*
X169290800Y-103660365I0J-271165D01*
G01*
G37*
%TD*%
M02*
