%TF.GenerationSoftware,KiCad,Pcbnew,5.1.12-1.fc35*%
%TF.CreationDate,2022-01-05T13:14:36+01:00*%
%TF.ProjectId,burrboard,62757272-626f-4617-9264-2e6b69636164,v1.0*%
%TF.SameCoordinates,Original*%
%TF.FileFunction,Legend,Bot*%
%TF.FilePolarity,Positive*%
%FSLAX46Y46*%
G04 Gerber Fmt 4.6, Leading zero omitted, Abs format (unit mm)*
G04 Created by KiCad (PCBNEW 5.1.12-1.fc35) date 2022-01-05 13:14:36*
%MOMM*%
%LPD*%
G01*
G04 APERTURE LIST*
%ADD10C,0.010000*%
%ADD11C,0.100000*%
%ADD12C,0.120000*%
%ADD13C,0.150000*%
G04 APERTURE END LIST*
D10*
%TO.C,G\u002A\u002A\u002A*%
G36*
X128850939Y-79192080D02*
G01*
X128855154Y-79186919D01*
X128853943Y-79178306D01*
X128851888Y-79171271D01*
X128834901Y-79092140D01*
X128832401Y-79018370D01*
X128845280Y-78947503D01*
X128874434Y-78877079D01*
X128920755Y-78804640D01*
X128985136Y-78727728D01*
X129029983Y-78681217D01*
X129144098Y-78579974D01*
X129276123Y-78484806D01*
X129423378Y-78396877D01*
X129583186Y-78317348D01*
X129752866Y-78247383D01*
X129929741Y-78188143D01*
X130111130Y-78140791D01*
X130294356Y-78106490D01*
X130380317Y-78095211D01*
X130552868Y-78080505D01*
X130709114Y-78077350D01*
X130850589Y-78085901D01*
X130978825Y-78106316D01*
X131095355Y-78138749D01*
X131189942Y-78177599D01*
X131279933Y-78228981D01*
X131350172Y-78287643D01*
X131401041Y-78354328D01*
X131432920Y-78429779D01*
X131446188Y-78514739D01*
X131441227Y-78609951D01*
X131433717Y-78653574D01*
X131426112Y-78694158D01*
X131421373Y-78726188D01*
X131420206Y-78744556D01*
X131420826Y-78746871D01*
X131432052Y-78744998D01*
X131456837Y-78735293D01*
X131490021Y-78719798D01*
X131493141Y-78718240D01*
X131615164Y-78649203D01*
X131726397Y-78570641D01*
X131825134Y-78484420D01*
X131909667Y-78392406D01*
X131978290Y-78296466D01*
X132029298Y-78198464D01*
X132060982Y-78100267D01*
X132061785Y-78096542D01*
X132072850Y-77995331D01*
X132065299Y-77890078D01*
X132040145Y-77784654D01*
X131998402Y-77682935D01*
X131941085Y-77588793D01*
X131922535Y-77564509D01*
X131847099Y-77486504D01*
X131753107Y-77416880D01*
X131641667Y-77356183D01*
X131513889Y-77304958D01*
X131370878Y-77263753D01*
X131269317Y-77242426D01*
X131222625Y-77235401D01*
X131167100Y-77229949D01*
X131099714Y-77225890D01*
X131017443Y-77223045D01*
X130917259Y-77221236D01*
X130909483Y-77221143D01*
X130835326Y-77220475D01*
X130766337Y-77220211D01*
X130705949Y-77220336D01*
X130657595Y-77220834D01*
X130624708Y-77221690D01*
X130613150Y-77222444D01*
X130478972Y-77238972D01*
X130361531Y-77255563D01*
X130256407Y-77272888D01*
X130163358Y-77290754D01*
X129960157Y-77337592D01*
X129760455Y-77393264D01*
X129565518Y-77457007D01*
X129376610Y-77528053D01*
X129194996Y-77605639D01*
X129021941Y-77688997D01*
X128858708Y-77777363D01*
X128706564Y-77869970D01*
X128566772Y-77966054D01*
X128440597Y-78064848D01*
X128329304Y-78165588D01*
X128234158Y-78267506D01*
X128156423Y-78369839D01*
X128097363Y-78471820D01*
X128060975Y-78563479D01*
X128046402Y-78633601D01*
X128042071Y-78709775D01*
X128047739Y-78784553D01*
X128063162Y-78850488D01*
X128070993Y-78870487D01*
X128112342Y-78941956D01*
X128168534Y-79003792D01*
X128240401Y-79056399D01*
X128328771Y-79100181D01*
X128434478Y-79135541D01*
X128558352Y-79162883D01*
X128701224Y-79182610D01*
X128717209Y-79184241D01*
X128774432Y-79189870D01*
X128813708Y-79193255D01*
X128838167Y-79194092D01*
X128850939Y-79192080D01*
G37*
X128850939Y-79192080D02*
X128855154Y-79186919D01*
X128853943Y-79178306D01*
X128851888Y-79171271D01*
X128834901Y-79092140D01*
X128832401Y-79018370D01*
X128845280Y-78947503D01*
X128874434Y-78877079D01*
X128920755Y-78804640D01*
X128985136Y-78727728D01*
X129029983Y-78681217D01*
X129144098Y-78579974D01*
X129276123Y-78484806D01*
X129423378Y-78396877D01*
X129583186Y-78317348D01*
X129752866Y-78247383D01*
X129929741Y-78188143D01*
X130111130Y-78140791D01*
X130294356Y-78106490D01*
X130380317Y-78095211D01*
X130552868Y-78080505D01*
X130709114Y-78077350D01*
X130850589Y-78085901D01*
X130978825Y-78106316D01*
X131095355Y-78138749D01*
X131189942Y-78177599D01*
X131279933Y-78228981D01*
X131350172Y-78287643D01*
X131401041Y-78354328D01*
X131432920Y-78429779D01*
X131446188Y-78514739D01*
X131441227Y-78609951D01*
X131433717Y-78653574D01*
X131426112Y-78694158D01*
X131421373Y-78726188D01*
X131420206Y-78744556D01*
X131420826Y-78746871D01*
X131432052Y-78744998D01*
X131456837Y-78735293D01*
X131490021Y-78719798D01*
X131493141Y-78718240D01*
X131615164Y-78649203D01*
X131726397Y-78570641D01*
X131825134Y-78484420D01*
X131909667Y-78392406D01*
X131978290Y-78296466D01*
X132029298Y-78198464D01*
X132060982Y-78100267D01*
X132061785Y-78096542D01*
X132072850Y-77995331D01*
X132065299Y-77890078D01*
X132040145Y-77784654D01*
X131998402Y-77682935D01*
X131941085Y-77588793D01*
X131922535Y-77564509D01*
X131847099Y-77486504D01*
X131753107Y-77416880D01*
X131641667Y-77356183D01*
X131513889Y-77304958D01*
X131370878Y-77263753D01*
X131269317Y-77242426D01*
X131222625Y-77235401D01*
X131167100Y-77229949D01*
X131099714Y-77225890D01*
X131017443Y-77223045D01*
X130917259Y-77221236D01*
X130909483Y-77221143D01*
X130835326Y-77220475D01*
X130766337Y-77220211D01*
X130705949Y-77220336D01*
X130657595Y-77220834D01*
X130624708Y-77221690D01*
X130613150Y-77222444D01*
X130478972Y-77238972D01*
X130361531Y-77255563D01*
X130256407Y-77272888D01*
X130163358Y-77290754D01*
X129960157Y-77337592D01*
X129760455Y-77393264D01*
X129565518Y-77457007D01*
X129376610Y-77528053D01*
X129194996Y-77605639D01*
X129021941Y-77688997D01*
X128858708Y-77777363D01*
X128706564Y-77869970D01*
X128566772Y-77966054D01*
X128440597Y-78064848D01*
X128329304Y-78165588D01*
X128234158Y-78267506D01*
X128156423Y-78369839D01*
X128097363Y-78471820D01*
X128060975Y-78563479D01*
X128046402Y-78633601D01*
X128042071Y-78709775D01*
X128047739Y-78784553D01*
X128063162Y-78850488D01*
X128070993Y-78870487D01*
X128112342Y-78941956D01*
X128168534Y-79003792D01*
X128240401Y-79056399D01*
X128328771Y-79100181D01*
X128434478Y-79135541D01*
X128558352Y-79162883D01*
X128701224Y-79182610D01*
X128717209Y-79184241D01*
X128774432Y-79189870D01*
X128813708Y-79193255D01*
X128838167Y-79194092D01*
X128850939Y-79192080D01*
G36*
X134872948Y-79147995D02*
G01*
X134980066Y-79127205D01*
X135079604Y-79087844D01*
X135169643Y-79030891D01*
X135248267Y-78957325D01*
X135313558Y-78868127D01*
X135315076Y-78865583D01*
X135351947Y-78795179D01*
X135377840Y-78724507D01*
X135394468Y-78647279D01*
X135403539Y-78557206D01*
X135404635Y-78536271D01*
X135410305Y-78411917D01*
X134570572Y-78411917D01*
X134582401Y-78389814D01*
X134615059Y-78344439D01*
X134660446Y-78301519D01*
X134710663Y-78268240D01*
X134722217Y-78262638D01*
X134790429Y-78242000D01*
X134865379Y-78235784D01*
X134939561Y-78243899D01*
X135005233Y-78266133D01*
X135039351Y-78283678D01*
X135067517Y-78299305D01*
X135080527Y-78307499D01*
X135089445Y-78310484D01*
X135102251Y-78306803D01*
X135121491Y-78294718D01*
X135149707Y-78272494D01*
X135189443Y-78238393D01*
X135215755Y-78215166D01*
X135333897Y-78110292D01*
X135293919Y-78076138D01*
X135250592Y-78044894D01*
X135194344Y-78012394D01*
X135132793Y-77982501D01*
X135073556Y-77959084D01*
X135047567Y-77951113D01*
X134986160Y-77939231D01*
X134912697Y-77932008D01*
X134835077Y-77929655D01*
X134761200Y-77932384D01*
X134698965Y-77940404D01*
X134693025Y-77941650D01*
X134589869Y-77973595D01*
X134493042Y-78021444D01*
X134406569Y-78082645D01*
X134334474Y-78154645D01*
X134312691Y-78182889D01*
X134255502Y-78279516D01*
X134217715Y-78379737D01*
X134198411Y-78481564D01*
X134196669Y-78583012D01*
X134211570Y-78682094D01*
X134216509Y-78697374D01*
X134572919Y-78697374D01*
X134579123Y-78688039D01*
X134597192Y-78682003D01*
X134629054Y-78678548D01*
X134676638Y-78676957D01*
X134741874Y-78676512D01*
X134810119Y-78676500D01*
X135048921Y-78676500D01*
X135024431Y-78720195D01*
X134981595Y-78777352D01*
X134928314Y-78818513D01*
X134868031Y-78843414D01*
X134804185Y-78851791D01*
X134740218Y-78843378D01*
X134679568Y-78817911D01*
X134625678Y-78775126D01*
X134606205Y-78752346D01*
X134588388Y-78728810D01*
X134576650Y-78710725D01*
X134572919Y-78697374D01*
X134216509Y-78697374D01*
X134242194Y-78776824D01*
X134287621Y-78865215D01*
X134346931Y-78945281D01*
X134419205Y-79015035D01*
X134503523Y-79072492D01*
X134598964Y-79115663D01*
X134704609Y-79142564D01*
X134760167Y-79149231D01*
X134872948Y-79147995D01*
G37*
X134872948Y-79147995D02*
X134980066Y-79127205D01*
X135079604Y-79087844D01*
X135169643Y-79030891D01*
X135248267Y-78957325D01*
X135313558Y-78868127D01*
X135315076Y-78865583D01*
X135351947Y-78795179D01*
X135377840Y-78724507D01*
X135394468Y-78647279D01*
X135403539Y-78557206D01*
X135404635Y-78536271D01*
X135410305Y-78411917D01*
X134570572Y-78411917D01*
X134582401Y-78389814D01*
X134615059Y-78344439D01*
X134660446Y-78301519D01*
X134710663Y-78268240D01*
X134722217Y-78262638D01*
X134790429Y-78242000D01*
X134865379Y-78235784D01*
X134939561Y-78243899D01*
X135005233Y-78266133D01*
X135039351Y-78283678D01*
X135067517Y-78299305D01*
X135080527Y-78307499D01*
X135089445Y-78310484D01*
X135102251Y-78306803D01*
X135121491Y-78294718D01*
X135149707Y-78272494D01*
X135189443Y-78238393D01*
X135215755Y-78215166D01*
X135333897Y-78110292D01*
X135293919Y-78076138D01*
X135250592Y-78044894D01*
X135194344Y-78012394D01*
X135132793Y-77982501D01*
X135073556Y-77959084D01*
X135047567Y-77951113D01*
X134986160Y-77939231D01*
X134912697Y-77932008D01*
X134835077Y-77929655D01*
X134761200Y-77932384D01*
X134698965Y-77940404D01*
X134693025Y-77941650D01*
X134589869Y-77973595D01*
X134493042Y-78021444D01*
X134406569Y-78082645D01*
X134334474Y-78154645D01*
X134312691Y-78182889D01*
X134255502Y-78279516D01*
X134217715Y-78379737D01*
X134198411Y-78481564D01*
X134196669Y-78583012D01*
X134211570Y-78682094D01*
X134216509Y-78697374D01*
X134572919Y-78697374D01*
X134579123Y-78688039D01*
X134597192Y-78682003D01*
X134629054Y-78678548D01*
X134676638Y-78676957D01*
X134741874Y-78676512D01*
X134810119Y-78676500D01*
X135048921Y-78676500D01*
X135024431Y-78720195D01*
X134981595Y-78777352D01*
X134928314Y-78818513D01*
X134868031Y-78843414D01*
X134804185Y-78851791D01*
X134740218Y-78843378D01*
X134679568Y-78817911D01*
X134625678Y-78775126D01*
X134606205Y-78752346D01*
X134588388Y-78728810D01*
X134576650Y-78710725D01*
X134572919Y-78697374D01*
X134216509Y-78697374D01*
X134242194Y-78776824D01*
X134287621Y-78865215D01*
X134346931Y-78945281D01*
X134419205Y-79015035D01*
X134503523Y-79072492D01*
X134598964Y-79115663D01*
X134704609Y-79142564D01*
X134760167Y-79149231D01*
X134872948Y-79147995D01*
G36*
X139506766Y-79146359D02*
G01*
X139557139Y-79145387D01*
X139595187Y-79143063D01*
X139625328Y-79138955D01*
X139651980Y-79132629D01*
X139679561Y-79123652D01*
X139682495Y-79122608D01*
X139772747Y-79081643D01*
X139845544Y-79029353D01*
X139901655Y-78965180D01*
X139903782Y-78962031D01*
X139920327Y-78936537D01*
X139934054Y-78912616D01*
X139945224Y-78888056D01*
X139954102Y-78860642D01*
X139960948Y-78828160D01*
X139966027Y-78788398D01*
X139969601Y-78739141D01*
X139971933Y-78678176D01*
X139973285Y-78603289D01*
X139973921Y-78512268D01*
X139974103Y-78402897D01*
X139974108Y-78369583D01*
X139974108Y-77951542D01*
X139614275Y-77951542D01*
X139610926Y-77980646D01*
X139605980Y-78003112D01*
X139595512Y-78007550D01*
X139575046Y-77995404D01*
X139572092Y-77993193D01*
X139534501Y-77973194D01*
X139481327Y-77956040D01*
X139418059Y-77942583D01*
X139350187Y-77933670D01*
X139283200Y-77930150D01*
X139222588Y-77932874D01*
X139201525Y-77935871D01*
X139105257Y-77961641D01*
X139023848Y-78001582D01*
X138957961Y-78055058D01*
X138908259Y-78121435D01*
X138875406Y-78200076D01*
X138863041Y-78260136D01*
X138862979Y-78296432D01*
X139185503Y-78296432D01*
X139195861Y-78260482D01*
X139222655Y-78228797D01*
X139265430Y-78205530D01*
X139323648Y-78193056D01*
X139392200Y-78191431D01*
X139463400Y-78200397D01*
X139513733Y-78213854D01*
X139582525Y-78237292D01*
X139585608Y-78312721D01*
X139586500Y-78353079D01*
X139584461Y-78377230D01*
X139578561Y-78390037D01*
X139569733Y-78395671D01*
X139546511Y-78400752D01*
X139507960Y-78405030D01*
X139459910Y-78408260D01*
X139408190Y-78410195D01*
X139358632Y-78410591D01*
X139317065Y-78409202D01*
X139296699Y-78407167D01*
X139247180Y-78392014D01*
X139211750Y-78365983D01*
X139190996Y-78332861D01*
X139185503Y-78296432D01*
X138862979Y-78296432D01*
X138862929Y-78324867D01*
X138876760Y-78394339D01*
X138902308Y-78459636D01*
X138920570Y-78490571D01*
X138969787Y-78544063D01*
X139035836Y-78587634D01*
X139116528Y-78620651D01*
X139209677Y-78642483D01*
X139313094Y-78652495D01*
X139424591Y-78650056D01*
X139460406Y-78646677D01*
X139509112Y-78640876D01*
X139550952Y-78635181D01*
X139580856Y-78630326D01*
X139592770Y-78627540D01*
X139603339Y-78631891D01*
X139609003Y-78651362D01*
X139609936Y-78680527D01*
X139606313Y-78713957D01*
X139598308Y-78746225D01*
X139588245Y-78768591D01*
X139565774Y-78798351D01*
X139538148Y-78819001D01*
X139501410Y-78831947D01*
X139451607Y-78838599D01*
X139386733Y-78840369D01*
X139335809Y-78839662D01*
X139295633Y-78836850D01*
X139258874Y-78830628D01*
X139218202Y-78819690D01*
X139166288Y-78802727D01*
X139156186Y-78799277D01*
X139109578Y-78783726D01*
X139070835Y-78771593D01*
X139043982Y-78764082D01*
X139033046Y-78762400D01*
X139033038Y-78762408D01*
X139027195Y-78772854D01*
X139013775Y-78798669D01*
X138994616Y-78836264D01*
X138971557Y-78882051D01*
X138964947Y-78895259D01*
X138900584Y-79024060D01*
X138977879Y-79056238D01*
X139024094Y-79073856D01*
X139081085Y-79093256D01*
X139139073Y-79111170D01*
X139160100Y-79117117D01*
X139202654Y-79128183D01*
X139239828Y-79136032D01*
X139276952Y-79141221D01*
X139319358Y-79144309D01*
X139372379Y-79145855D01*
X139439650Y-79146412D01*
X139506766Y-79146359D01*
G37*
X139506766Y-79146359D02*
X139557139Y-79145387D01*
X139595187Y-79143063D01*
X139625328Y-79138955D01*
X139651980Y-79132629D01*
X139679561Y-79123652D01*
X139682495Y-79122608D01*
X139772747Y-79081643D01*
X139845544Y-79029353D01*
X139901655Y-78965180D01*
X139903782Y-78962031D01*
X139920327Y-78936537D01*
X139934054Y-78912616D01*
X139945224Y-78888056D01*
X139954102Y-78860642D01*
X139960948Y-78828160D01*
X139966027Y-78788398D01*
X139969601Y-78739141D01*
X139971933Y-78678176D01*
X139973285Y-78603289D01*
X139973921Y-78512268D01*
X139974103Y-78402897D01*
X139974108Y-78369583D01*
X139974108Y-77951542D01*
X139614275Y-77951542D01*
X139610926Y-77980646D01*
X139605980Y-78003112D01*
X139595512Y-78007550D01*
X139575046Y-77995404D01*
X139572092Y-77993193D01*
X139534501Y-77973194D01*
X139481327Y-77956040D01*
X139418059Y-77942583D01*
X139350187Y-77933670D01*
X139283200Y-77930150D01*
X139222588Y-77932874D01*
X139201525Y-77935871D01*
X139105257Y-77961641D01*
X139023848Y-78001582D01*
X138957961Y-78055058D01*
X138908259Y-78121435D01*
X138875406Y-78200076D01*
X138863041Y-78260136D01*
X138862979Y-78296432D01*
X139185503Y-78296432D01*
X139195861Y-78260482D01*
X139222655Y-78228797D01*
X139265430Y-78205530D01*
X139323648Y-78193056D01*
X139392200Y-78191431D01*
X139463400Y-78200397D01*
X139513733Y-78213854D01*
X139582525Y-78237292D01*
X139585608Y-78312721D01*
X139586500Y-78353079D01*
X139584461Y-78377230D01*
X139578561Y-78390037D01*
X139569733Y-78395671D01*
X139546511Y-78400752D01*
X139507960Y-78405030D01*
X139459910Y-78408260D01*
X139408190Y-78410195D01*
X139358632Y-78410591D01*
X139317065Y-78409202D01*
X139296699Y-78407167D01*
X139247180Y-78392014D01*
X139211750Y-78365983D01*
X139190996Y-78332861D01*
X139185503Y-78296432D01*
X138862979Y-78296432D01*
X138862929Y-78324867D01*
X138876760Y-78394339D01*
X138902308Y-78459636D01*
X138920570Y-78490571D01*
X138969787Y-78544063D01*
X139035836Y-78587634D01*
X139116528Y-78620651D01*
X139209677Y-78642483D01*
X139313094Y-78652495D01*
X139424591Y-78650056D01*
X139460406Y-78646677D01*
X139509112Y-78640876D01*
X139550952Y-78635181D01*
X139580856Y-78630326D01*
X139592770Y-78627540D01*
X139603339Y-78631891D01*
X139609003Y-78651362D01*
X139609936Y-78680527D01*
X139606313Y-78713957D01*
X139598308Y-78746225D01*
X139588245Y-78768591D01*
X139565774Y-78798351D01*
X139538148Y-78819001D01*
X139501410Y-78831947D01*
X139451607Y-78838599D01*
X139386733Y-78840369D01*
X139335809Y-78839662D01*
X139295633Y-78836850D01*
X139258874Y-78830628D01*
X139218202Y-78819690D01*
X139166288Y-78802727D01*
X139156186Y-78799277D01*
X139109578Y-78783726D01*
X139070835Y-78771593D01*
X139043982Y-78764082D01*
X139033046Y-78762400D01*
X139033038Y-78762408D01*
X139027195Y-78772854D01*
X139013775Y-78798669D01*
X138994616Y-78836264D01*
X138971557Y-78882051D01*
X138964947Y-78895259D01*
X138900584Y-79024060D01*
X138977879Y-79056238D01*
X139024094Y-79073856D01*
X139081085Y-79093256D01*
X139139073Y-79111170D01*
X139160100Y-79117117D01*
X139202654Y-79128183D01*
X139239828Y-79136032D01*
X139276952Y-79141221D01*
X139319358Y-79144309D01*
X139372379Y-79145855D01*
X139439650Y-79146412D01*
X139506766Y-79146359D01*
G36*
X136785669Y-79576210D02*
G01*
X136787423Y-79545341D01*
X136788985Y-79494815D01*
X136790346Y-79425387D01*
X136791496Y-79337810D01*
X136792425Y-79232840D01*
X136793126Y-79111231D01*
X136793588Y-78973736D01*
X136793802Y-78821112D01*
X136793817Y-78766458D01*
X136793817Y-77946250D01*
X136433983Y-77946250D01*
X136433983Y-78028881D01*
X136378124Y-77998626D01*
X136295442Y-77964192D01*
X136202424Y-77942910D01*
X136105915Y-77935567D01*
X136012758Y-77942948D01*
X135971425Y-77951903D01*
X135909189Y-77971022D01*
X135856846Y-77993501D01*
X135804043Y-78024109D01*
X135779747Y-78040189D01*
X135693949Y-78110657D01*
X135624885Y-78193624D01*
X135573202Y-78287828D01*
X135539549Y-78392010D01*
X135524574Y-78504908D01*
X135523817Y-78537808D01*
X135524346Y-78545771D01*
X135882327Y-78545771D01*
X135891720Y-78467557D01*
X135918389Y-78398906D01*
X135960066Y-78341247D01*
X136014483Y-78296011D01*
X136079375Y-78264628D01*
X136152474Y-78248529D01*
X136231513Y-78249145D01*
X136314225Y-78267904D01*
X136319719Y-78269801D01*
X136357454Y-78286700D01*
X136393595Y-78308278D01*
X136398861Y-78312121D01*
X136433983Y-78338911D01*
X136433983Y-78750283D01*
X136394296Y-78776131D01*
X136317375Y-78814047D01*
X136233197Y-78832196D01*
X136166310Y-78832995D01*
X136084523Y-78818682D01*
X136014388Y-78788199D01*
X135957508Y-78743166D01*
X135915487Y-78685207D01*
X135889929Y-78615942D01*
X135882327Y-78545771D01*
X135524346Y-78545771D01*
X135531169Y-78648441D01*
X135554045Y-78746552D01*
X135593671Y-78835229D01*
X135651277Y-78917562D01*
X135692867Y-78963078D01*
X135776158Y-79035566D01*
X135863948Y-79088529D01*
X135959526Y-79123574D01*
X136057885Y-79141450D01*
X136164189Y-79144686D01*
X136269974Y-79130468D01*
X136379469Y-79098117D01*
X136415462Y-79084039D01*
X136421688Y-79082728D01*
X136426341Y-79086353D01*
X136429650Y-79097482D01*
X136431841Y-79118685D01*
X136433141Y-79152530D01*
X136433777Y-79201588D01*
X136433975Y-79268428D01*
X136433983Y-79293780D01*
X136434119Y-79367241D01*
X136434679Y-79422264D01*
X136435890Y-79461576D01*
X136437978Y-79487905D01*
X136441169Y-79503976D01*
X136445692Y-79512519D01*
X136451773Y-79516260D01*
X136452504Y-79516483D01*
X136471545Y-79521202D01*
X136505372Y-79528883D01*
X136549550Y-79538586D01*
X136599646Y-79549372D01*
X136651228Y-79560301D01*
X136699862Y-79570435D01*
X136741114Y-79578833D01*
X136770551Y-79584557D01*
X136783732Y-79586667D01*
X136785669Y-79576210D01*
G37*
X136785669Y-79576210D02*
X136787423Y-79545341D01*
X136788985Y-79494815D01*
X136790346Y-79425387D01*
X136791496Y-79337810D01*
X136792425Y-79232840D01*
X136793126Y-79111231D01*
X136793588Y-78973736D01*
X136793802Y-78821112D01*
X136793817Y-78766458D01*
X136793817Y-77946250D01*
X136433983Y-77946250D01*
X136433983Y-78028881D01*
X136378124Y-77998626D01*
X136295442Y-77964192D01*
X136202424Y-77942910D01*
X136105915Y-77935567D01*
X136012758Y-77942948D01*
X135971425Y-77951903D01*
X135909189Y-77971022D01*
X135856846Y-77993501D01*
X135804043Y-78024109D01*
X135779747Y-78040189D01*
X135693949Y-78110657D01*
X135624885Y-78193624D01*
X135573202Y-78287828D01*
X135539549Y-78392010D01*
X135524574Y-78504908D01*
X135523817Y-78537808D01*
X135524346Y-78545771D01*
X135882327Y-78545771D01*
X135891720Y-78467557D01*
X135918389Y-78398906D01*
X135960066Y-78341247D01*
X136014483Y-78296011D01*
X136079375Y-78264628D01*
X136152474Y-78248529D01*
X136231513Y-78249145D01*
X136314225Y-78267904D01*
X136319719Y-78269801D01*
X136357454Y-78286700D01*
X136393595Y-78308278D01*
X136398861Y-78312121D01*
X136433983Y-78338911D01*
X136433983Y-78750283D01*
X136394296Y-78776131D01*
X136317375Y-78814047D01*
X136233197Y-78832196D01*
X136166310Y-78832995D01*
X136084523Y-78818682D01*
X136014388Y-78788199D01*
X135957508Y-78743166D01*
X135915487Y-78685207D01*
X135889929Y-78615942D01*
X135882327Y-78545771D01*
X135524346Y-78545771D01*
X135531169Y-78648441D01*
X135554045Y-78746552D01*
X135593671Y-78835229D01*
X135651277Y-78917562D01*
X135692867Y-78963078D01*
X135776158Y-79035566D01*
X135863948Y-79088529D01*
X135959526Y-79123574D01*
X136057885Y-79141450D01*
X136164189Y-79144686D01*
X136269974Y-79130468D01*
X136379469Y-79098117D01*
X136415462Y-79084039D01*
X136421688Y-79082728D01*
X136426341Y-79086353D01*
X136429650Y-79097482D01*
X136431841Y-79118685D01*
X136433141Y-79152530D01*
X136433777Y-79201588D01*
X136433975Y-79268428D01*
X136433983Y-79293780D01*
X136434119Y-79367241D01*
X136434679Y-79422264D01*
X136435890Y-79461576D01*
X136437978Y-79487905D01*
X136441169Y-79503976D01*
X136445692Y-79512519D01*
X136451773Y-79516260D01*
X136452504Y-79516483D01*
X136471545Y-79521202D01*
X136505372Y-79528883D01*
X136549550Y-79538586D01*
X136599646Y-79549372D01*
X136651228Y-79560301D01*
X136699862Y-79570435D01*
X136741114Y-79578833D01*
X136770551Y-79584557D01*
X136783732Y-79586667D01*
X136785669Y-79576210D01*
G36*
X140667317Y-79131583D02*
G01*
X140995400Y-79131583D01*
X140995400Y-78824667D01*
X140667317Y-78824667D01*
X140667317Y-78576456D01*
X140667882Y-78481247D01*
X140669563Y-78405454D01*
X140672341Y-78349546D01*
X140676194Y-78313995D01*
X140679366Y-78301800D01*
X140702998Y-78271538D01*
X140741812Y-78252654D01*
X140796999Y-78244762D01*
X140851733Y-78245955D01*
X140895261Y-78249724D01*
X140933060Y-78254152D01*
X140958129Y-78258395D01*
X140961004Y-78259149D01*
X140984817Y-78266219D01*
X140984817Y-77969171D01*
X140929254Y-77956336D01*
X140880521Y-77948158D01*
X140820087Y-77942571D01*
X140753920Y-77939654D01*
X140687984Y-77939489D01*
X140628246Y-77942155D01*
X140580672Y-77947734D01*
X140564136Y-77951407D01*
X140493877Y-77975941D01*
X140438300Y-78007320D01*
X140391163Y-78049214D01*
X140383650Y-78057520D01*
X140362389Y-78082574D01*
X140345255Y-78106120D01*
X140331768Y-78130781D01*
X140321443Y-78159178D01*
X140313798Y-78193933D01*
X140308350Y-78237670D01*
X140304617Y-78293010D01*
X140302115Y-78362576D01*
X140300362Y-78448990D01*
X140299400Y-78515104D01*
X140295223Y-78824667D01*
X140064067Y-78824667D01*
X140064067Y-79131583D01*
X140296900Y-79131583D01*
X140296900Y-79434788D01*
X140458296Y-79469145D01*
X140515816Y-79481428D01*
X140567502Y-79492537D01*
X140609120Y-79501557D01*
X140636432Y-79507571D01*
X140643504Y-79509190D01*
X140667317Y-79514878D01*
X140667317Y-79131583D01*
G37*
X140667317Y-79131583D02*
X140995400Y-79131583D01*
X140995400Y-78824667D01*
X140667317Y-78824667D01*
X140667317Y-78576456D01*
X140667882Y-78481247D01*
X140669563Y-78405454D01*
X140672341Y-78349546D01*
X140676194Y-78313995D01*
X140679366Y-78301800D01*
X140702998Y-78271538D01*
X140741812Y-78252654D01*
X140796999Y-78244762D01*
X140851733Y-78245955D01*
X140895261Y-78249724D01*
X140933060Y-78254152D01*
X140958129Y-78258395D01*
X140961004Y-78259149D01*
X140984817Y-78266219D01*
X140984817Y-77969171D01*
X140929254Y-77956336D01*
X140880521Y-77948158D01*
X140820087Y-77942571D01*
X140753920Y-77939654D01*
X140687984Y-77939489D01*
X140628246Y-77942155D01*
X140580672Y-77947734D01*
X140564136Y-77951407D01*
X140493877Y-77975941D01*
X140438300Y-78007320D01*
X140391163Y-78049214D01*
X140383650Y-78057520D01*
X140362389Y-78082574D01*
X140345255Y-78106120D01*
X140331768Y-78130781D01*
X140321443Y-78159178D01*
X140313798Y-78193933D01*
X140308350Y-78237670D01*
X140304617Y-78293010D01*
X140302115Y-78362576D01*
X140300362Y-78448990D01*
X140299400Y-78515104D01*
X140295223Y-78824667D01*
X140064067Y-78824667D01*
X140064067Y-79131583D01*
X140296900Y-79131583D01*
X140296900Y-79434788D01*
X140458296Y-79469145D01*
X140515816Y-79481428D01*
X140567502Y-79492537D01*
X140609120Y-79501557D01*
X140636432Y-79507571D01*
X140643504Y-79509190D01*
X140667317Y-79514878D01*
X140667317Y-79131583D01*
G36*
X133251046Y-79512400D02*
G01*
X133370984Y-79512211D01*
X133471976Y-79511599D01*
X133556241Y-79510328D01*
X133626000Y-79508164D01*
X133683470Y-79504872D01*
X133730874Y-79500216D01*
X133770429Y-79493964D01*
X133804355Y-79485878D01*
X133834872Y-79475725D01*
X133864200Y-79463270D01*
X133894558Y-79448279D01*
X133904056Y-79443326D01*
X133985689Y-79389298D01*
X134052516Y-79322396D01*
X134104018Y-79245297D01*
X134139677Y-79160682D01*
X134158977Y-79071230D01*
X134161399Y-78979622D01*
X134146426Y-78888536D01*
X134113540Y-78800652D01*
X134062224Y-78718650D01*
X134047538Y-78700645D01*
X134018502Y-78671717D01*
X133979690Y-78639438D01*
X133941102Y-78611880D01*
X133872885Y-78567763D01*
X133892691Y-78534819D01*
X133905120Y-78513339D01*
X133925032Y-78477967D01*
X133950935Y-78431430D01*
X133981337Y-78376455D01*
X134014749Y-78315768D01*
X134049677Y-78252097D01*
X134084633Y-78188166D01*
X134118123Y-78126704D01*
X134148658Y-78070436D01*
X134174746Y-78022090D01*
X134194896Y-77984392D01*
X134207618Y-77960068D01*
X134211483Y-77951880D01*
X134201425Y-77950179D01*
X134173347Y-77948685D01*
X134130397Y-77947480D01*
X134075723Y-77946645D01*
X134012471Y-77946265D01*
X133996979Y-77946250D01*
X133782474Y-77946250D01*
X133634500Y-78231933D01*
X133486525Y-78517615D01*
X133341004Y-78517683D01*
X133195483Y-78517750D01*
X133195483Y-77946250D01*
X132814483Y-77946250D01*
X132814483Y-78833765D01*
X133194952Y-78833765D01*
X133427304Y-78837153D01*
X133503791Y-78838390D01*
X133562073Y-78839767D01*
X133605112Y-78841572D01*
X133635871Y-78844094D01*
X133657310Y-78847622D01*
X133672392Y-78852443D01*
X133684078Y-78858846D01*
X133689507Y-78862682D01*
X133734753Y-78907123D01*
X133760340Y-78959064D01*
X133766944Y-79008794D01*
X133758704Y-79067094D01*
X133733364Y-79113372D01*
X133689852Y-79149433D01*
X133680086Y-79154937D01*
X133663660Y-79163123D01*
X133647171Y-79169225D01*
X133627312Y-79173547D01*
X133600774Y-79176396D01*
X133564250Y-79178078D01*
X133514433Y-79178897D01*
X133448014Y-79179159D01*
X133417733Y-79179176D01*
X133200775Y-79179208D01*
X133197863Y-79006487D01*
X133194952Y-78833765D01*
X132814483Y-78833765D01*
X132814483Y-79512583D01*
X133251046Y-79512400D01*
G37*
X133251046Y-79512400D02*
X133370984Y-79512211D01*
X133471976Y-79511599D01*
X133556241Y-79510328D01*
X133626000Y-79508164D01*
X133683470Y-79504872D01*
X133730874Y-79500216D01*
X133770429Y-79493964D01*
X133804355Y-79485878D01*
X133834872Y-79475725D01*
X133864200Y-79463270D01*
X133894558Y-79448279D01*
X133904056Y-79443326D01*
X133985689Y-79389298D01*
X134052516Y-79322396D01*
X134104018Y-79245297D01*
X134139677Y-79160682D01*
X134158977Y-79071230D01*
X134161399Y-78979622D01*
X134146426Y-78888536D01*
X134113540Y-78800652D01*
X134062224Y-78718650D01*
X134047538Y-78700645D01*
X134018502Y-78671717D01*
X133979690Y-78639438D01*
X133941102Y-78611880D01*
X133872885Y-78567763D01*
X133892691Y-78534819D01*
X133905120Y-78513339D01*
X133925032Y-78477967D01*
X133950935Y-78431430D01*
X133981337Y-78376455D01*
X134014749Y-78315768D01*
X134049677Y-78252097D01*
X134084633Y-78188166D01*
X134118123Y-78126704D01*
X134148658Y-78070436D01*
X134174746Y-78022090D01*
X134194896Y-77984392D01*
X134207618Y-77960068D01*
X134211483Y-77951880D01*
X134201425Y-77950179D01*
X134173347Y-77948685D01*
X134130397Y-77947480D01*
X134075723Y-77946645D01*
X134012471Y-77946265D01*
X133996979Y-77946250D01*
X133782474Y-77946250D01*
X133634500Y-78231933D01*
X133486525Y-78517615D01*
X133341004Y-78517683D01*
X133195483Y-78517750D01*
X133195483Y-77946250D01*
X132814483Y-77946250D01*
X132814483Y-78833765D01*
X133194952Y-78833765D01*
X133427304Y-78837153D01*
X133503791Y-78838390D01*
X133562073Y-78839767D01*
X133605112Y-78841572D01*
X133635871Y-78844094D01*
X133657310Y-78847622D01*
X133672392Y-78852443D01*
X133684078Y-78858846D01*
X133689507Y-78862682D01*
X133734753Y-78907123D01*
X133760340Y-78959064D01*
X133766944Y-79008794D01*
X133758704Y-79067094D01*
X133733364Y-79113372D01*
X133689852Y-79149433D01*
X133680086Y-79154937D01*
X133663660Y-79163123D01*
X133647171Y-79169225D01*
X133627312Y-79173547D01*
X133600774Y-79176396D01*
X133564250Y-79178078D01*
X133514433Y-79178897D01*
X133448014Y-79179159D01*
X133417733Y-79179176D01*
X133200775Y-79179208D01*
X133197863Y-79006487D01*
X133194952Y-78833765D01*
X132814483Y-78833765D01*
X132814483Y-79512583D01*
X133251046Y-79512400D01*
G36*
X138741150Y-79512583D02*
G01*
X138741150Y-77946250D01*
X138360150Y-77946250D01*
X138360150Y-78560083D01*
X137725474Y-78560083D01*
X137722666Y-78255813D01*
X137719858Y-77951542D01*
X137526712Y-77948657D01*
X137333567Y-77945773D01*
X137333567Y-79512583D01*
X137725150Y-79512583D01*
X137725150Y-78909019D01*
X138354858Y-78914625D01*
X138357669Y-79213604D01*
X138360479Y-79512584D01*
X138550815Y-79512584D01*
X138741150Y-79512583D01*
G37*
X138741150Y-79512583D02*
X138741150Y-77946250D01*
X138360150Y-77946250D01*
X138360150Y-78560083D01*
X137725474Y-78560083D01*
X137722666Y-78255813D01*
X137719858Y-77951542D01*
X137526712Y-77948657D01*
X137333567Y-77945773D01*
X137333567Y-79512583D01*
X137725150Y-79512583D01*
X137725150Y-78909019D01*
X138354858Y-78914625D01*
X138357669Y-79213604D01*
X138360479Y-79512584D01*
X138550815Y-79512584D01*
X138741150Y-79512583D01*
G36*
X130143149Y-80256798D02*
G01*
X130211331Y-80242631D01*
X130290376Y-80221539D01*
X130377669Y-80194514D01*
X130470597Y-80162551D01*
X130566546Y-80126643D01*
X130662900Y-80087784D01*
X130757047Y-80046966D01*
X130846371Y-80005184D01*
X130928259Y-79963432D01*
X131000097Y-79922703D01*
X131059270Y-79883989D01*
X131078817Y-79869285D01*
X131103043Y-79849292D01*
X131123869Y-79829327D01*
X131142108Y-79807271D01*
X131158573Y-79781004D01*
X131174078Y-79748407D01*
X131189435Y-79707360D01*
X131205459Y-79655743D01*
X131222962Y-79591438D01*
X131242758Y-79512325D01*
X131265661Y-79416284D01*
X131285847Y-79329795D01*
X131312192Y-79215303D01*
X131333600Y-79119205D01*
X131350306Y-79039367D01*
X131362547Y-78973656D01*
X131370556Y-78919941D01*
X131374568Y-78876089D01*
X131374819Y-78839967D01*
X131371544Y-78809443D01*
X131364977Y-78782384D01*
X131355353Y-78756658D01*
X131350249Y-78745292D01*
X131310565Y-78684361D01*
X131252617Y-78630356D01*
X131178590Y-78584732D01*
X131090665Y-78548940D01*
X131030265Y-78532355D01*
X130997389Y-78527220D01*
X130947781Y-78522470D01*
X130885876Y-78518258D01*
X130816107Y-78514741D01*
X130742908Y-78512072D01*
X130670713Y-78510405D01*
X130603956Y-78509896D01*
X130547071Y-78510699D01*
X130504492Y-78512967D01*
X130496733Y-78513766D01*
X130269560Y-78548324D01*
X130056120Y-78596934D01*
X129853652Y-78660381D01*
X129659395Y-78739453D01*
X129591858Y-78771444D01*
X129481786Y-78829085D01*
X129377149Y-78890755D01*
X129279581Y-78955038D01*
X129190716Y-79020520D01*
X129112189Y-79085786D01*
X129045632Y-79149422D01*
X128992681Y-79210012D01*
X128954969Y-79266143D01*
X128934130Y-79316399D01*
X128930400Y-79344137D01*
X128933901Y-79363263D01*
X128943723Y-79399263D01*
X128958842Y-79449158D01*
X128978234Y-79509971D01*
X129000877Y-79578724D01*
X129025747Y-79652438D01*
X129051820Y-79728135D01*
X129078073Y-79802838D01*
X129103484Y-79873569D01*
X129127027Y-79937348D01*
X129147680Y-79991199D01*
X129164421Y-80032142D01*
X129173980Y-80052961D01*
X129216746Y-80123359D01*
X129264694Y-80174623D01*
X129319046Y-80207076D01*
X129381024Y-80221039D01*
X129451851Y-80216836D01*
X129532749Y-80194789D01*
X129602442Y-80165963D01*
X129676096Y-80134170D01*
X129736350Y-80114717D01*
X129787196Y-80107880D01*
X129832627Y-80113936D01*
X129876634Y-80133161D01*
X129923210Y-80165832D01*
X129951972Y-80190164D01*
X129987169Y-80219502D01*
X130019402Y-80243326D01*
X130043494Y-80257921D01*
X130049830Y-80260379D01*
X130088444Y-80263045D01*
X130143149Y-80256798D01*
G37*
X130143149Y-80256798D02*
X130211331Y-80242631D01*
X130290376Y-80221539D01*
X130377669Y-80194514D01*
X130470597Y-80162551D01*
X130566546Y-80126643D01*
X130662900Y-80087784D01*
X130757047Y-80046966D01*
X130846371Y-80005184D01*
X130928259Y-79963432D01*
X131000097Y-79922703D01*
X131059270Y-79883989D01*
X131078817Y-79869285D01*
X131103043Y-79849292D01*
X131123869Y-79829327D01*
X131142108Y-79807271D01*
X131158573Y-79781004D01*
X131174078Y-79748407D01*
X131189435Y-79707360D01*
X131205459Y-79655743D01*
X131222962Y-79591438D01*
X131242758Y-79512325D01*
X131265661Y-79416284D01*
X131285847Y-79329795D01*
X131312192Y-79215303D01*
X131333600Y-79119205D01*
X131350306Y-79039367D01*
X131362547Y-78973656D01*
X131370556Y-78919941D01*
X131374568Y-78876089D01*
X131374819Y-78839967D01*
X131371544Y-78809443D01*
X131364977Y-78782384D01*
X131355353Y-78756658D01*
X131350249Y-78745292D01*
X131310565Y-78684361D01*
X131252617Y-78630356D01*
X131178590Y-78584732D01*
X131090665Y-78548940D01*
X131030265Y-78532355D01*
X130997389Y-78527220D01*
X130947781Y-78522470D01*
X130885876Y-78518258D01*
X130816107Y-78514741D01*
X130742908Y-78512072D01*
X130670713Y-78510405D01*
X130603956Y-78509896D01*
X130547071Y-78510699D01*
X130504492Y-78512967D01*
X130496733Y-78513766D01*
X130269560Y-78548324D01*
X130056120Y-78596934D01*
X129853652Y-78660381D01*
X129659395Y-78739453D01*
X129591858Y-78771444D01*
X129481786Y-78829085D01*
X129377149Y-78890755D01*
X129279581Y-78955038D01*
X129190716Y-79020520D01*
X129112189Y-79085786D01*
X129045632Y-79149422D01*
X128992681Y-79210012D01*
X128954969Y-79266143D01*
X128934130Y-79316399D01*
X128930400Y-79344137D01*
X128933901Y-79363263D01*
X128943723Y-79399263D01*
X128958842Y-79449158D01*
X128978234Y-79509971D01*
X129000877Y-79578724D01*
X129025747Y-79652438D01*
X129051820Y-79728135D01*
X129078073Y-79802838D01*
X129103484Y-79873569D01*
X129127027Y-79937348D01*
X129147680Y-79991199D01*
X129164421Y-80032142D01*
X129173980Y-80052961D01*
X129216746Y-80123359D01*
X129264694Y-80174623D01*
X129319046Y-80207076D01*
X129381024Y-80221039D01*
X129451851Y-80216836D01*
X129532749Y-80194789D01*
X129602442Y-80165963D01*
X129676096Y-80134170D01*
X129736350Y-80114717D01*
X129787196Y-80107880D01*
X129832627Y-80113936D01*
X129876634Y-80133161D01*
X129923210Y-80165832D01*
X129951972Y-80190164D01*
X129987169Y-80219502D01*
X130019402Y-80243326D01*
X130043494Y-80257921D01*
X130049830Y-80260379D01*
X130088444Y-80263045D01*
X130143149Y-80256798D01*
D11*
%TO.C,SW1*%
X146386000Y-82990000D02*
X146886000Y-82990000D01*
X146386000Y-82990000D02*
X146386000Y-83490000D01*
X158286000Y-82990000D02*
X158286000Y-83490000D01*
X158286000Y-82990000D02*
X157786000Y-82990000D01*
X158286000Y-87190000D02*
X158286000Y-86690000D01*
X158286000Y-87190000D02*
X157786000Y-87190000D01*
X146386000Y-87190000D02*
X146386000Y-86690000D01*
X146386000Y-87190000D02*
X146886000Y-87190000D01*
D12*
%TO.C,BT1*%
X133596000Y-101430000D02*
X171336000Y-101430000D01*
X171336000Y-101430000D02*
X171336000Y-154300000D01*
X133596000Y-154300000D02*
X171336000Y-154300000D01*
X133596000Y-101430000D02*
X133596000Y-154300000D01*
X133216000Y-101050000D02*
X133216000Y-104050000D01*
X136216000Y-101050000D02*
X133216000Y-101050000D01*
D13*
X140980285Y-98497142D02*
X140980285Y-100782857D01*
X142123142Y-99640000D02*
X139837428Y-99640000D01*
%TD*%
M02*
