M48
; DRILL file {KiCad 5.1.12-1.fc35} date Wed 05 Jan 2022 02:47:20 PM CET
; FORMAT={-:-/ absolute / inch / decimal}
; #@! TF.CreationDate,2022-01-05T14:47:20+01:00
; #@! TF.GenerationSoftware,Kicad,Pcbnew,5.1.12-1.fc35
FMAT,2
INCH
T1C0.0150
T2C0.0354
T3C0.0394
T4C0.0433
T5C0.1358
%
G90
G05
T1
X6.069Y-4.772
X6.5Y-4.34
X6.61Y-4.46
T2
X5.8931Y-3.35
X5.9916Y-3.35
X6.09Y-3.35
T3
X5.25Y-3.9
X5.35Y-3.9
X5.45Y-3.9
X5.55Y-3.9
X5.65Y-3.1
X5.65Y-3.9
X5.75Y-3.1
X5.75Y-3.9
X5.85Y-3.1
X5.85Y-3.9
X5.95Y-3.1
X5.95Y-3.9
X6.05Y-3.1
X6.05Y-3.9
X6.15Y-3.1
X6.15Y-3.9
X6.25Y-3.1
X6.25Y-3.9
X6.35Y-3.1
X6.35Y-3.9
X6.45Y-3.1
X6.45Y-3.9
X6.55Y-3.1
X6.55Y-3.9
X6.65Y-3.1
X6.65Y-3.9
X6.75Y-3.1
X6.75Y-3.9
T4
X5.54Y-4.1
X6.04Y-4.1
T5
X5.54Y-5.0339
X6.4652Y-5.0339
T0
M30
