%TF.GenerationSoftware,KiCad,Pcbnew,5.1.12-1.fc35*%
%TF.CreationDate,2022-01-05T14:32:38+01:00*%
%TF.ProjectId,burrboard,62757272-626f-4617-9264-2e6b69636164,v1.0*%
%TF.SameCoordinates,Original*%
%TF.FileFunction,Copper,L1,Top*%
%TF.FilePolarity,Positive*%
%FSLAX46Y46*%
G04 Gerber Fmt 4.6, Leading zero omitted, Abs format (unit mm)*
G04 Created by KiCad (PCBNEW 5.1.12-1.fc35) date 2022-01-05 14:32:38*
%MOMM*%
%LPD*%
G01*
G04 APERTURE LIST*
%TA.AperFunction,ComponentPad*%
%ADD10R,1.700000X1.700000*%
%TD*%
%TA.AperFunction,ComponentPad*%
%ADD11O,1.700000X1.700000*%
%TD*%
%TA.AperFunction,SMDPad,CuDef*%
%ADD12R,1.100000X0.800000*%
%TD*%
%TA.AperFunction,SMDPad,CuDef*%
%ADD13R,1.550000X1.300000*%
%TD*%
%TA.AperFunction,ComponentPad*%
%ADD14R,1.900000X1.900000*%
%TD*%
%TA.AperFunction,ComponentPad*%
%ADD15C,1.900000*%
%TD*%
%TA.AperFunction,SMDPad,CuDef*%
%ADD16R,1.145000X0.550000*%
%TD*%
%TA.AperFunction,SMDPad,CuDef*%
%ADD17R,0.550000X1.145000*%
%TD*%
%TA.AperFunction,ComponentPad*%
%ADD18R,3.000000X3.000000*%
%TD*%
%TA.AperFunction,ComponentPad*%
%ADD19C,3.000000*%
%TD*%
%TA.AperFunction,ViaPad*%
%ADD20C,0.762000*%
%TD*%
%TA.AperFunction,Conductor*%
%ADD21C,0.304800*%
%TD*%
%TA.AperFunction,Conductor*%
%ADD22C,0.254000*%
%TD*%
%TA.AperFunction,Conductor*%
%ADD23C,0.100000*%
%TD*%
G04 APERTURE END LIST*
D10*
%TO.P,J2,1*%
%TO.N,Net-(J2-Pad1)*%
X171450000Y-78740000D03*
D11*
%TO.P,J2,2*%
%TO.N,Net-(J2-Pad2)*%
X168910000Y-78740000D03*
%TO.P,J2,3*%
%TO.N,/F0*%
X166370000Y-78740000D03*
%TO.P,J2,4*%
%TO.N,/F1*%
X163830000Y-78740000D03*
%TO.P,J2,5*%
%TO.N,/F2*%
X161290000Y-78740000D03*
%TO.P,J2,6*%
%TO.N,/F3*%
X158750000Y-78740000D03*
%TO.P,J2,7*%
%TO.N,/F4*%
X156210000Y-78740000D03*
%TO.P,J2,8*%
%TO.N,Net-(J2-Pad8)*%
X153670000Y-78740000D03*
%TO.P,J2,9*%
%TO.N,Net-(J2-Pad9)*%
X151130000Y-78740000D03*
%TO.P,J2,10*%
%TO.N,/VUSB*%
X148590000Y-78740000D03*
%TO.P,J2,11*%
%TO.N,Net-(J2-Pad11)*%
X146050000Y-78740000D03*
%TO.P,J2,12*%
%TO.N,Net-(J2-Pad12)*%
X143510000Y-78740000D03*
%TD*%
D10*
%TO.P,J1,1*%
%TO.N,Net-(J1-Pad1)*%
X171450000Y-99060000D03*
D11*
%TO.P,J1,2*%
%TO.N,Net-(J1-Pad2)*%
X168910000Y-99060000D03*
%TO.P,J1,3*%
%TO.N,Net-(J1-Pad3)*%
X166370000Y-99060000D03*
%TO.P,J1,4*%
%TO.N,/MISO*%
X163830000Y-99060000D03*
%TO.P,J1,5*%
%TO.N,/MOSI*%
X161290000Y-99060000D03*
%TO.P,J1,6*%
%TO.N,/SCK*%
X158750000Y-99060000D03*
%TO.P,J1,7*%
%TO.N,Net-(J1-Pad7)*%
X156210000Y-99060000D03*
%TO.P,J1,8*%
%TO.N,Net-(J1-Pad8)*%
X153670000Y-99060000D03*
%TO.P,J1,9*%
%TO.N,Net-(J1-Pad9)*%
X151130000Y-99060000D03*
%TO.P,J1,10*%
%TO.N,Net-(J1-Pad10)*%
X148590000Y-99060000D03*
%TO.P,J1,11*%
%TO.N,/A1*%
X146050000Y-99060000D03*
%TO.P,J1,12*%
%TO.N,/A0*%
X143510000Y-99060000D03*
%TO.P,J1,13*%
%TO.N,GND*%
X140970000Y-99060000D03*
%TO.P,J1,14*%
%TO.N,Net-(J1-Pad14)*%
X138430000Y-99060000D03*
%TO.P,J1,15*%
%TO.N,/3V3*%
X135890000Y-99060000D03*
%TO.P,J1,16*%
%TO.N,Net-(J1-Pad16)*%
X133350000Y-99060000D03*
%TD*%
D12*
%TO.P,Q1,1*%
%TO.N,/3V3*%
X166875000Y-118110000D03*
%TO.P,Q1,3*%
%TO.N,Net-(Q1-Pad3)*%
X163325000Y-118660000D03*
%TO.P,Q1,2*%
%TO.N,/A1*%
X163325000Y-117560000D03*
%TD*%
D13*
%TO.P,S1,1*%
%TO.N,/F4*%
X135725000Y-139990000D03*
%TO.P,S1,2*%
%TO.N,Net-(S1-Pad2)*%
X143675000Y-139990000D03*
%TO.P,S1,3*%
%TO.N,Net-(S1-Pad3)*%
X135725000Y-144490000D03*
%TO.P,S1,4*%
%TO.N,GND*%
X143675000Y-144490000D03*
%TD*%
%TO.P,S2,1*%
%TO.N,/F3*%
X161125000Y-139990000D03*
%TO.P,S2,2*%
%TO.N,Net-(S2-Pad2)*%
X169075000Y-139990000D03*
%TO.P,S2,3*%
%TO.N,Net-(S2-Pad3)*%
X161125000Y-144490000D03*
%TO.P,S2,4*%
%TO.N,GND*%
X169075000Y-144490000D03*
%TD*%
D14*
%TO.P,SW1,1*%
%TO.N,/VUSB*%
X154686000Y-85090000D03*
D15*
%TO.P,SW1,2*%
%TO.N,VDD*%
X152186000Y-85090000D03*
%TO.P,SW1,3*%
%TO.N,Net-(SW1-Pad3)*%
X149686000Y-85090000D03*
%TD*%
D16*
%TO.P,U2,1*%
%TO.N,/3V3*%
X153497500Y-120110000D03*
%TO.P,U2,2*%
%TO.N,GND*%
X153497500Y-119310000D03*
%TO.P,U2,3*%
%TO.N,Net-(U2-Pad3)*%
X153497500Y-118510000D03*
%TO.P,U2,4*%
%TO.N,GND*%
X153497500Y-117710000D03*
%TO.P,U2,5*%
X153497500Y-116910000D03*
%TO.P,U2,6*%
%TO.N,/3V3*%
X153497500Y-116110000D03*
%TO.P,U2,8*%
%TO.N,/F1*%
X151302500Y-116110000D03*
%TO.P,U2,9*%
%TO.N,/F2*%
X151302500Y-116910000D03*
%TO.P,U2,10*%
%TO.N,Net-(U2-Pad10)*%
X151302500Y-117710000D03*
%TO.P,U2,11*%
%TO.N,Net-(U2-Pad11)*%
X151302500Y-118510000D03*
%TO.P,U2,12*%
%TO.N,/MISO*%
X151302500Y-119310000D03*
%TO.P,U2,13*%
%TO.N,/MOSI*%
X151302500Y-120110000D03*
D17*
%TO.P,U2,14*%
%TO.N,/SCK*%
X152400000Y-120207500D03*
%TO.P,U2,7*%
%TO.N,/F0*%
X152400000Y-116012500D03*
%TD*%
D18*
%TO.P,BT1,1*%
%TO.N,VDD*%
X140716000Y-104140000D03*
D19*
%TO.P,BT1,2*%
%TO.N,GND*%
X153416000Y-104140000D03*
%TD*%
%TO.P,R1,1*%
%TO.N,/A1*%
%TA.AperFunction,SMDPad,CuDef*%
G36*
G01*
X163812000Y-114575000D02*
X163812000Y-114025000D01*
G75*
G02*
X164012000Y-113825000I200000J0D01*
G01*
X164412000Y-113825000D01*
G75*
G02*
X164612000Y-114025000I0J-200000D01*
G01*
X164612000Y-114575000D01*
G75*
G02*
X164412000Y-114775000I-200000J0D01*
G01*
X164012000Y-114775000D01*
G75*
G02*
X163812000Y-114575000I0J200000D01*
G01*
G37*
%TD.AperFunction*%
%TO.P,R1,2*%
%TO.N,GND*%
%TA.AperFunction,SMDPad,CuDef*%
G36*
G01*
X165462000Y-114575000D02*
X165462000Y-114025000D01*
G75*
G02*
X165662000Y-113825000I200000J0D01*
G01*
X166062000Y-113825000D01*
G75*
G02*
X166262000Y-114025000I0J-200000D01*
G01*
X166262000Y-114575000D01*
G75*
G02*
X166062000Y-114775000I-200000J0D01*
G01*
X165662000Y-114775000D01*
G75*
G02*
X165462000Y-114575000I0J200000D01*
G01*
G37*
%TD.AperFunction*%
%TD*%
%TO.P,C1,2*%
%TO.N,GND*%
%TA.AperFunction,SMDPad,CuDef*%
G36*
G01*
X143340000Y-117929000D02*
X143680000Y-117929000D01*
G75*
G02*
X143820000Y-118069000I0J-140000D01*
G01*
X143820000Y-118349000D01*
G75*
G02*
X143680000Y-118489000I-140000J0D01*
G01*
X143340000Y-118489000D01*
G75*
G02*
X143200000Y-118349000I0J140000D01*
G01*
X143200000Y-118069000D01*
G75*
G02*
X143340000Y-117929000I140000J0D01*
G01*
G37*
%TD.AperFunction*%
%TO.P,C1,1*%
%TO.N,/3V3*%
%TA.AperFunction,SMDPad,CuDef*%
G36*
G01*
X143340000Y-116969000D02*
X143680000Y-116969000D01*
G75*
G02*
X143820000Y-117109000I0J-140000D01*
G01*
X143820000Y-117389000D01*
G75*
G02*
X143680000Y-117529000I-140000J0D01*
G01*
X143340000Y-117529000D01*
G75*
G02*
X143200000Y-117389000I0J140000D01*
G01*
X143200000Y-117109000D01*
G75*
G02*
X143340000Y-116969000I140000J0D01*
G01*
G37*
%TD.AperFunction*%
%TD*%
%TO.P,C2,2*%
%TO.N,GND*%
%TA.AperFunction,SMDPad,CuDef*%
G36*
G01*
X156664000Y-120058000D02*
X156664000Y-119718000D01*
G75*
G02*
X156804000Y-119578000I140000J0D01*
G01*
X157084000Y-119578000D01*
G75*
G02*
X157224000Y-119718000I0J-140000D01*
G01*
X157224000Y-120058000D01*
G75*
G02*
X157084000Y-120198000I-140000J0D01*
G01*
X156804000Y-120198000D01*
G75*
G02*
X156664000Y-120058000I0J140000D01*
G01*
G37*
%TD.AperFunction*%
%TO.P,C2,1*%
%TO.N,/3V3*%
%TA.AperFunction,SMDPad,CuDef*%
G36*
G01*
X155704000Y-120058000D02*
X155704000Y-119718000D01*
G75*
G02*
X155844000Y-119578000I140000J0D01*
G01*
X156124000Y-119578000D01*
G75*
G02*
X156264000Y-119718000I0J-140000D01*
G01*
X156264000Y-120058000D01*
G75*
G02*
X156124000Y-120198000I-140000J0D01*
G01*
X155844000Y-120198000D01*
G75*
G02*
X155704000Y-120058000I0J140000D01*
G01*
G37*
%TD.AperFunction*%
%TD*%
%TO.P,C3,1*%
%TO.N,/3V3*%
%TA.AperFunction,SMDPad,CuDef*%
G36*
G01*
X155704000Y-116502000D02*
X155704000Y-116162000D01*
G75*
G02*
X155844000Y-116022000I140000J0D01*
G01*
X156124000Y-116022000D01*
G75*
G02*
X156264000Y-116162000I0J-140000D01*
G01*
X156264000Y-116502000D01*
G75*
G02*
X156124000Y-116642000I-140000J0D01*
G01*
X155844000Y-116642000D01*
G75*
G02*
X155704000Y-116502000I0J140000D01*
G01*
G37*
%TD.AperFunction*%
%TO.P,C3,2*%
%TO.N,GND*%
%TA.AperFunction,SMDPad,CuDef*%
G36*
G01*
X156664000Y-116502000D02*
X156664000Y-116162000D01*
G75*
G02*
X156804000Y-116022000I140000J0D01*
G01*
X157084000Y-116022000D01*
G75*
G02*
X157224000Y-116162000I0J-140000D01*
G01*
X157224000Y-116502000D01*
G75*
G02*
X157084000Y-116642000I-140000J0D01*
G01*
X156804000Y-116642000D01*
G75*
G02*
X156664000Y-116502000I0J140000D01*
G01*
G37*
%TD.AperFunction*%
%TD*%
%TO.P,C4,2*%
%TO.N,GND*%
%TA.AperFunction,SMDPad,CuDef*%
G36*
G01*
X156664000Y-118280000D02*
X156664000Y-117940000D01*
G75*
G02*
X156804000Y-117800000I140000J0D01*
G01*
X157084000Y-117800000D01*
G75*
G02*
X157224000Y-117940000I0J-140000D01*
G01*
X157224000Y-118280000D01*
G75*
G02*
X157084000Y-118420000I-140000J0D01*
G01*
X156804000Y-118420000D01*
G75*
G02*
X156664000Y-118280000I0J140000D01*
G01*
G37*
%TD.AperFunction*%
%TO.P,C4,1*%
%TO.N,/3V3*%
%TA.AperFunction,SMDPad,CuDef*%
G36*
G01*
X155704000Y-118280000D02*
X155704000Y-117940000D01*
G75*
G02*
X155844000Y-117800000I140000J0D01*
G01*
X156124000Y-117800000D01*
G75*
G02*
X156264000Y-117940000I0J-140000D01*
G01*
X156264000Y-118280000D01*
G75*
G02*
X156124000Y-118420000I-140000J0D01*
G01*
X155844000Y-118420000D01*
G75*
G02*
X155704000Y-118280000I0J140000D01*
G01*
G37*
%TD.AperFunction*%
%TD*%
%TO.P,U1,1*%
%TO.N,/A0*%
%TA.AperFunction,SMDPad,CuDef*%
G36*
G01*
X137945000Y-121560000D02*
X137645000Y-121560000D01*
G75*
G02*
X137495000Y-121410000I0J150000D01*
G01*
X137495000Y-119760000D01*
G75*
G02*
X137645000Y-119610000I150000J0D01*
G01*
X137945000Y-119610000D01*
G75*
G02*
X138095000Y-119760000I0J-150000D01*
G01*
X138095000Y-121410000D01*
G75*
G02*
X137945000Y-121560000I-150000J0D01*
G01*
G37*
%TD.AperFunction*%
%TO.P,U1,2*%
%TO.N,N/C*%
%TA.AperFunction,SMDPad,CuDef*%
G36*
G01*
X139215000Y-121560000D02*
X138915000Y-121560000D01*
G75*
G02*
X138765000Y-121410000I0J150000D01*
G01*
X138765000Y-119760000D01*
G75*
G02*
X138915000Y-119610000I150000J0D01*
G01*
X139215000Y-119610000D01*
G75*
G02*
X139365000Y-119760000I0J-150000D01*
G01*
X139365000Y-121410000D01*
G75*
G02*
X139215000Y-121560000I-150000J0D01*
G01*
G37*
%TD.AperFunction*%
%TO.P,U1,3*%
%TA.AperFunction,SMDPad,CuDef*%
G36*
G01*
X140485000Y-121560000D02*
X140185000Y-121560000D01*
G75*
G02*
X140035000Y-121410000I0J150000D01*
G01*
X140035000Y-119760000D01*
G75*
G02*
X140185000Y-119610000I150000J0D01*
G01*
X140485000Y-119610000D01*
G75*
G02*
X140635000Y-119760000I0J-150000D01*
G01*
X140635000Y-121410000D01*
G75*
G02*
X140485000Y-121560000I-150000J0D01*
G01*
G37*
%TD.AperFunction*%
%TO.P,U1,4*%
%TO.N,GND*%
%TA.AperFunction,SMDPad,CuDef*%
G36*
G01*
X141755000Y-121560000D02*
X141455000Y-121560000D01*
G75*
G02*
X141305000Y-121410000I0J150000D01*
G01*
X141305000Y-119760000D01*
G75*
G02*
X141455000Y-119610000I150000J0D01*
G01*
X141755000Y-119610000D01*
G75*
G02*
X141905000Y-119760000I0J-150000D01*
G01*
X141905000Y-121410000D01*
G75*
G02*
X141755000Y-121560000I-150000J0D01*
G01*
G37*
%TD.AperFunction*%
%TO.P,U1,5*%
%TO.N,/3V3*%
%TA.AperFunction,SMDPad,CuDef*%
G36*
G01*
X141755000Y-116610000D02*
X141455000Y-116610000D01*
G75*
G02*
X141305000Y-116460000I0J150000D01*
G01*
X141305000Y-114810000D01*
G75*
G02*
X141455000Y-114660000I150000J0D01*
G01*
X141755000Y-114660000D01*
G75*
G02*
X141905000Y-114810000I0J-150000D01*
G01*
X141905000Y-116460000D01*
G75*
G02*
X141755000Y-116610000I-150000J0D01*
G01*
G37*
%TD.AperFunction*%
%TO.P,U1,6*%
%TO.N,N/C*%
%TA.AperFunction,SMDPad,CuDef*%
G36*
G01*
X140485000Y-116610000D02*
X140185000Y-116610000D01*
G75*
G02*
X140035000Y-116460000I0J150000D01*
G01*
X140035000Y-114810000D01*
G75*
G02*
X140185000Y-114660000I150000J0D01*
G01*
X140485000Y-114660000D01*
G75*
G02*
X140635000Y-114810000I0J-150000D01*
G01*
X140635000Y-116460000D01*
G75*
G02*
X140485000Y-116610000I-150000J0D01*
G01*
G37*
%TD.AperFunction*%
%TO.P,U1,7*%
%TA.AperFunction,SMDPad,CuDef*%
G36*
G01*
X139215000Y-116610000D02*
X138915000Y-116610000D01*
G75*
G02*
X138765000Y-116460000I0J150000D01*
G01*
X138765000Y-114810000D01*
G75*
G02*
X138915000Y-114660000I150000J0D01*
G01*
X139215000Y-114660000D01*
G75*
G02*
X139365000Y-114810000I0J-150000D01*
G01*
X139365000Y-116460000D01*
G75*
G02*
X139215000Y-116610000I-150000J0D01*
G01*
G37*
%TD.AperFunction*%
%TO.P,U1,8*%
%TO.N,/3V3*%
%TA.AperFunction,SMDPad,CuDef*%
G36*
G01*
X137945000Y-116610000D02*
X137645000Y-116610000D01*
G75*
G02*
X137495000Y-116460000I0J150000D01*
G01*
X137495000Y-114810000D01*
G75*
G02*
X137645000Y-114660000I150000J0D01*
G01*
X137945000Y-114660000D01*
G75*
G02*
X138095000Y-114810000I0J-150000D01*
G01*
X138095000Y-116460000D01*
G75*
G02*
X137945000Y-116610000I-150000J0D01*
G01*
G37*
%TD.AperFunction*%
%TD*%
D20*
%TO.N,/3V3*%
X165100000Y-110236000D03*
X154152600Y-121208800D03*
X167894000Y-113284000D03*
%TD*%
D21*
%TO.N,GND*%
X156944000Y-116281100D02*
X156944000Y-116332000D01*
D22*
%TO.N,/MISO*%
X163830000Y-99060000D02*
X148590000Y-114300000D01*
X150476000Y-119310000D02*
X151302500Y-119310000D01*
X148590000Y-117424000D02*
X150476000Y-119310000D01*
X148590000Y-114300000D02*
X148590000Y-117424000D01*
%TO.N,/MOSI*%
X161290000Y-99060000D02*
X161290000Y-100584000D01*
X150476000Y-120110000D02*
X151302500Y-120110000D01*
X148132790Y-117766790D02*
X150476000Y-120110000D01*
X148132790Y-113741210D02*
X148132790Y-117766790D01*
X161290000Y-100584000D02*
X148132790Y-113741210D01*
%TO.N,/SCK*%
X158750000Y-99060000D02*
X158750000Y-102108000D01*
X152400000Y-120505000D02*
X152400000Y-120207500D01*
X150753408Y-121034000D02*
X151871000Y-121034000D01*
X147675581Y-117956173D02*
X150753408Y-121034000D01*
X147675580Y-113182420D02*
X147675581Y-117956173D01*
X151871000Y-121034000D02*
X152400000Y-120505000D01*
X158750000Y-102108000D02*
X147675580Y-113182420D01*
%TO.N,/A1*%
X163325000Y-115187000D02*
X164212000Y-114300000D01*
X163325000Y-117560000D02*
X163325000Y-115187000D01*
X162880638Y-117560000D02*
X163325000Y-117560000D01*
X156361638Y-124079000D02*
X162880638Y-117560000D01*
X150749000Y-124079000D02*
X156361638Y-124079000D01*
X145161000Y-118491000D02*
X150749000Y-124079000D01*
X145161000Y-99949000D02*
X145161000Y-118491000D01*
X146050000Y-99060000D02*
X145161000Y-99949000D01*
%TO.N,/A0*%
X144373600Y-119470522D02*
X144373600Y-99923600D01*
X141953912Y-121890210D02*
X144373600Y-119470522D01*
X138125210Y-121890210D02*
X141953912Y-121890210D01*
X137795000Y-121560000D02*
X138125210Y-121890210D01*
X144373600Y-99923600D02*
X143510000Y-99060000D01*
X137795000Y-120585000D02*
X137795000Y-121560000D01*
D21*
%TO.N,/3V3*%
X141605000Y-114660000D02*
X141605000Y-115635000D01*
X137795000Y-114660000D02*
X138150610Y-114304390D01*
X141249390Y-114304390D02*
X141605000Y-114660000D01*
X138150610Y-114304390D02*
X141249390Y-114304390D01*
X137795000Y-115635000D02*
X137795000Y-114660000D01*
X155984000Y-116332000D02*
X155762000Y-116110000D01*
X155984000Y-118110000D02*
X155984000Y-116332000D01*
X155984000Y-118110000D02*
X155984000Y-119888000D01*
X155762000Y-120110000D02*
X155984000Y-119888000D01*
X135890000Y-113730000D02*
X137795000Y-115635000D01*
X135890000Y-99060000D02*
X135890000Y-113730000D01*
X155984000Y-116022000D02*
X155984000Y-116332000D01*
X141896000Y-115635000D02*
X143510000Y-117249000D01*
X141605000Y-115635000D02*
X141896000Y-115635000D01*
X155896000Y-116110000D02*
X153497500Y-116110000D01*
X161770000Y-110236000D02*
X155896000Y-116110000D01*
X165100000Y-110236000D02*
X161770000Y-110236000D01*
X153497500Y-120553700D02*
X154152600Y-121208800D01*
X153497500Y-120110000D02*
X153497500Y-120553700D01*
X167894000Y-117091000D02*
X166875000Y-118110000D01*
X167894000Y-113284000D02*
X167894000Y-117091000D01*
D22*
%TO.N,/F0*%
X152400000Y-115765638D02*
X152400000Y-116012500D01*
X154532918Y-115183780D02*
X152981858Y-115183780D01*
X152981858Y-115183780D02*
X152400000Y-115765638D01*
X170090201Y-99626497D02*
X154532918Y-115183780D01*
X170090201Y-82460201D02*
X170090201Y-99626497D01*
X166370000Y-78740000D02*
X170090201Y-82460201D01*
%TO.N,/F1*%
X167550201Y-82460201D02*
X163830000Y-78740000D01*
X166936497Y-100240201D02*
X167550201Y-99626497D01*
X166643299Y-100240201D02*
X166936497Y-100240201D01*
X167550201Y-99626497D02*
X167550201Y-82460201D01*
X151302500Y-115581000D02*
X166643299Y-100240201D01*
X151302500Y-116110000D02*
X151302500Y-115581000D01*
%TO.N,/F2*%
X165010201Y-82460201D02*
X165010201Y-99911799D01*
X161290000Y-78740000D02*
X165010201Y-82460201D01*
X165010201Y-99911799D02*
X149606000Y-115316000D01*
X150476000Y-116910000D02*
X151302500Y-116910000D01*
X149606000Y-116040000D02*
X150476000Y-116910000D01*
X149606000Y-115316000D02*
X149606000Y-116040000D01*
%TO.N,/F3*%
X175056800Y-126058200D02*
X161125000Y-139990000D01*
X175056800Y-78282800D02*
X175056800Y-126058200D01*
X174333799Y-77559799D02*
X175056800Y-78282800D01*
X159930201Y-77559799D02*
X174333799Y-77559799D01*
X158750000Y-78740000D02*
X159930201Y-77559799D01*
%TO.N,/F4*%
X155029799Y-79920201D02*
X156210000Y-78740000D01*
X150743101Y-79920201D02*
X155029799Y-79920201D01*
X131826000Y-98837302D02*
X150743101Y-79920201D01*
X131826000Y-136091000D02*
X131826000Y-98837302D01*
X135725000Y-139990000D02*
X131826000Y-136091000D01*
%TD*%
%TO.N,GND*%
X177394000Y-154534000D02*
X127406000Y-154534000D01*
X127406000Y-143840000D01*
X134567157Y-143840000D01*
X134567157Y-145140000D01*
X134574513Y-145214689D01*
X134596299Y-145286508D01*
X134631678Y-145352696D01*
X134679289Y-145410711D01*
X134737304Y-145458322D01*
X134803492Y-145493701D01*
X134875311Y-145515487D01*
X134950000Y-145522843D01*
X136500000Y-145522843D01*
X136574689Y-145515487D01*
X136646508Y-145493701D01*
X136712696Y-145458322D01*
X136770711Y-145410711D01*
X136818322Y-145352696D01*
X136853701Y-145286508D01*
X136875487Y-145214689D01*
X136882843Y-145140000D01*
X142261928Y-145140000D01*
X142274188Y-145264482D01*
X142310498Y-145384180D01*
X142369463Y-145494494D01*
X142448815Y-145591185D01*
X142545506Y-145670537D01*
X142655820Y-145729502D01*
X142775518Y-145765812D01*
X142900000Y-145778072D01*
X143389250Y-145775000D01*
X143548000Y-145616250D01*
X143548000Y-144617000D01*
X143802000Y-144617000D01*
X143802000Y-145616250D01*
X143960750Y-145775000D01*
X144450000Y-145778072D01*
X144574482Y-145765812D01*
X144694180Y-145729502D01*
X144804494Y-145670537D01*
X144901185Y-145591185D01*
X144980537Y-145494494D01*
X145039502Y-145384180D01*
X145075812Y-145264482D01*
X145088072Y-145140000D01*
X145085000Y-144775750D01*
X144926250Y-144617000D01*
X143802000Y-144617000D01*
X143548000Y-144617000D01*
X142423750Y-144617000D01*
X142265000Y-144775750D01*
X142261928Y-145140000D01*
X136882843Y-145140000D01*
X136882843Y-143840000D01*
X142261928Y-143840000D01*
X142265000Y-144204250D01*
X142423750Y-144363000D01*
X143548000Y-144363000D01*
X143548000Y-143363750D01*
X143802000Y-143363750D01*
X143802000Y-144363000D01*
X144926250Y-144363000D01*
X145085000Y-144204250D01*
X145088072Y-143840000D01*
X159967157Y-143840000D01*
X159967157Y-145140000D01*
X159974513Y-145214689D01*
X159996299Y-145286508D01*
X160031678Y-145352696D01*
X160079289Y-145410711D01*
X160137304Y-145458322D01*
X160203492Y-145493701D01*
X160275311Y-145515487D01*
X160350000Y-145522843D01*
X161900000Y-145522843D01*
X161974689Y-145515487D01*
X162046508Y-145493701D01*
X162112696Y-145458322D01*
X162170711Y-145410711D01*
X162218322Y-145352696D01*
X162253701Y-145286508D01*
X162275487Y-145214689D01*
X162282843Y-145140000D01*
X167661928Y-145140000D01*
X167674188Y-145264482D01*
X167710498Y-145384180D01*
X167769463Y-145494494D01*
X167848815Y-145591185D01*
X167945506Y-145670537D01*
X168055820Y-145729502D01*
X168175518Y-145765812D01*
X168300000Y-145778072D01*
X168789250Y-145775000D01*
X168948000Y-145616250D01*
X168948000Y-144617000D01*
X169202000Y-144617000D01*
X169202000Y-145616250D01*
X169360750Y-145775000D01*
X169850000Y-145778072D01*
X169974482Y-145765812D01*
X170094180Y-145729502D01*
X170204494Y-145670537D01*
X170301185Y-145591185D01*
X170380537Y-145494494D01*
X170439502Y-145384180D01*
X170475812Y-145264482D01*
X170488072Y-145140000D01*
X170485000Y-144775750D01*
X170326250Y-144617000D01*
X169202000Y-144617000D01*
X168948000Y-144617000D01*
X167823750Y-144617000D01*
X167665000Y-144775750D01*
X167661928Y-145140000D01*
X162282843Y-145140000D01*
X162282843Y-143840000D01*
X167661928Y-143840000D01*
X167665000Y-144204250D01*
X167823750Y-144363000D01*
X168948000Y-144363000D01*
X168948000Y-143363750D01*
X169202000Y-143363750D01*
X169202000Y-144363000D01*
X170326250Y-144363000D01*
X170485000Y-144204250D01*
X170488072Y-143840000D01*
X170475812Y-143715518D01*
X170439502Y-143595820D01*
X170380537Y-143485506D01*
X170301185Y-143388815D01*
X170204494Y-143309463D01*
X170094180Y-143250498D01*
X169974482Y-143214188D01*
X169850000Y-143201928D01*
X169360750Y-143205000D01*
X169202000Y-143363750D01*
X168948000Y-143363750D01*
X168789250Y-143205000D01*
X168300000Y-143201928D01*
X168175518Y-143214188D01*
X168055820Y-143250498D01*
X167945506Y-143309463D01*
X167848815Y-143388815D01*
X167769463Y-143485506D01*
X167710498Y-143595820D01*
X167674188Y-143715518D01*
X167661928Y-143840000D01*
X162282843Y-143840000D01*
X162275487Y-143765311D01*
X162253701Y-143693492D01*
X162218322Y-143627304D01*
X162170711Y-143569289D01*
X162112696Y-143521678D01*
X162046508Y-143486299D01*
X161974689Y-143464513D01*
X161900000Y-143457157D01*
X160350000Y-143457157D01*
X160275311Y-143464513D01*
X160203492Y-143486299D01*
X160137304Y-143521678D01*
X160079289Y-143569289D01*
X160031678Y-143627304D01*
X159996299Y-143693492D01*
X159974513Y-143765311D01*
X159967157Y-143840000D01*
X145088072Y-143840000D01*
X145075812Y-143715518D01*
X145039502Y-143595820D01*
X144980537Y-143485506D01*
X144901185Y-143388815D01*
X144804494Y-143309463D01*
X144694180Y-143250498D01*
X144574482Y-143214188D01*
X144450000Y-143201928D01*
X143960750Y-143205000D01*
X143802000Y-143363750D01*
X143548000Y-143363750D01*
X143389250Y-143205000D01*
X142900000Y-143201928D01*
X142775518Y-143214188D01*
X142655820Y-143250498D01*
X142545506Y-143309463D01*
X142448815Y-143388815D01*
X142369463Y-143485506D01*
X142310498Y-143595820D01*
X142274188Y-143715518D01*
X142261928Y-143840000D01*
X136882843Y-143840000D01*
X136875487Y-143765311D01*
X136853701Y-143693492D01*
X136818322Y-143627304D01*
X136770711Y-143569289D01*
X136712696Y-143521678D01*
X136646508Y-143486299D01*
X136574689Y-143464513D01*
X136500000Y-143457157D01*
X134950000Y-143457157D01*
X134875311Y-143464513D01*
X134803492Y-143486299D01*
X134737304Y-143521678D01*
X134679289Y-143569289D01*
X134631678Y-143627304D01*
X134596299Y-143693492D01*
X134574513Y-143765311D01*
X134567157Y-143840000D01*
X127406000Y-143840000D01*
X127406000Y-98837302D01*
X131315543Y-98837302D01*
X131318001Y-98862256D01*
X131318000Y-136066056D01*
X131315543Y-136091000D01*
X131318000Y-136115944D01*
X131318000Y-136115946D01*
X131325351Y-136190584D01*
X131354399Y-136286342D01*
X131401571Y-136374595D01*
X131465052Y-136451948D01*
X131484435Y-136467855D01*
X134567157Y-139550577D01*
X134567157Y-140640000D01*
X134574513Y-140714689D01*
X134596299Y-140786508D01*
X134631678Y-140852696D01*
X134679289Y-140910711D01*
X134737304Y-140958322D01*
X134803492Y-140993701D01*
X134875311Y-141015487D01*
X134950000Y-141022843D01*
X136500000Y-141022843D01*
X136574689Y-141015487D01*
X136646508Y-140993701D01*
X136712696Y-140958322D01*
X136770711Y-140910711D01*
X136818322Y-140852696D01*
X136853701Y-140786508D01*
X136875487Y-140714689D01*
X136882843Y-140640000D01*
X136882843Y-139340000D01*
X142517157Y-139340000D01*
X142517157Y-140640000D01*
X142524513Y-140714689D01*
X142546299Y-140786508D01*
X142581678Y-140852696D01*
X142629289Y-140910711D01*
X142687304Y-140958322D01*
X142753492Y-140993701D01*
X142825311Y-141015487D01*
X142900000Y-141022843D01*
X144450000Y-141022843D01*
X144524689Y-141015487D01*
X144596508Y-140993701D01*
X144662696Y-140958322D01*
X144720711Y-140910711D01*
X144768322Y-140852696D01*
X144803701Y-140786508D01*
X144825487Y-140714689D01*
X144832843Y-140640000D01*
X144832843Y-139340000D01*
X144825487Y-139265311D01*
X144803701Y-139193492D01*
X144768322Y-139127304D01*
X144720711Y-139069289D01*
X144662696Y-139021678D01*
X144596508Y-138986299D01*
X144524689Y-138964513D01*
X144450000Y-138957157D01*
X142900000Y-138957157D01*
X142825311Y-138964513D01*
X142753492Y-138986299D01*
X142687304Y-139021678D01*
X142629289Y-139069289D01*
X142581678Y-139127304D01*
X142546299Y-139193492D01*
X142524513Y-139265311D01*
X142517157Y-139340000D01*
X136882843Y-139340000D01*
X136875487Y-139265311D01*
X136853701Y-139193492D01*
X136818322Y-139127304D01*
X136770711Y-139069289D01*
X136712696Y-139021678D01*
X136646508Y-138986299D01*
X136574689Y-138964513D01*
X136500000Y-138957157D01*
X135410577Y-138957157D01*
X132334000Y-135880580D01*
X132334000Y-127652577D01*
X138610000Y-127652577D01*
X138610000Y-128067423D01*
X138690932Y-128474298D01*
X138849687Y-128857565D01*
X139080163Y-129202497D01*
X139373503Y-129495837D01*
X139718435Y-129726313D01*
X140101702Y-129885068D01*
X140508577Y-129966000D01*
X140923423Y-129966000D01*
X141330298Y-129885068D01*
X141713565Y-129726313D01*
X142058497Y-129495837D01*
X142351837Y-129202497D01*
X142582313Y-128857565D01*
X142741068Y-128474298D01*
X142822000Y-128067423D01*
X142822000Y-127652577D01*
X162110000Y-127652577D01*
X162110000Y-128067423D01*
X162190932Y-128474298D01*
X162349687Y-128857565D01*
X162580163Y-129202497D01*
X162873503Y-129495837D01*
X163218435Y-129726313D01*
X163601702Y-129885068D01*
X164008577Y-129966000D01*
X164423423Y-129966000D01*
X164830298Y-129885068D01*
X165213565Y-129726313D01*
X165558497Y-129495837D01*
X165851837Y-129202497D01*
X166082313Y-128857565D01*
X166241068Y-128474298D01*
X166322000Y-128067423D01*
X166322000Y-127652577D01*
X166241068Y-127245702D01*
X166082313Y-126862435D01*
X165851837Y-126517503D01*
X165558497Y-126224163D01*
X165213565Y-125993687D01*
X164830298Y-125834932D01*
X164423423Y-125754000D01*
X164008577Y-125754000D01*
X163601702Y-125834932D01*
X163218435Y-125993687D01*
X162873503Y-126224163D01*
X162580163Y-126517503D01*
X162349687Y-126862435D01*
X162190932Y-127245702D01*
X162110000Y-127652577D01*
X142822000Y-127652577D01*
X142741068Y-127245702D01*
X142582313Y-126862435D01*
X142351837Y-126517503D01*
X142058497Y-126224163D01*
X141713565Y-125993687D01*
X141330298Y-125834932D01*
X140923423Y-125754000D01*
X140508577Y-125754000D01*
X140101702Y-125834932D01*
X139718435Y-125993687D01*
X139373503Y-126224163D01*
X139080163Y-126517503D01*
X138849687Y-126862435D01*
X138690932Y-127245702D01*
X138610000Y-127652577D01*
X132334000Y-127652577D01*
X132334000Y-118494750D01*
X142565000Y-118494750D01*
X142574765Y-118616348D01*
X142611623Y-118735878D01*
X142671092Y-118845921D01*
X142750887Y-118942247D01*
X142847941Y-119021156D01*
X142958524Y-119079614D01*
X143078387Y-119115375D01*
X143202923Y-119127065D01*
X143224250Y-119124000D01*
X143383000Y-118965250D01*
X143383000Y-118336000D01*
X142723750Y-118336000D01*
X142565000Y-118494750D01*
X132334000Y-118494750D01*
X132334000Y-99755190D01*
X132393820Y-99844717D01*
X132565283Y-100016180D01*
X132766903Y-100150898D01*
X132990931Y-100243693D01*
X133228757Y-100291000D01*
X133471243Y-100291000D01*
X133709069Y-100243693D01*
X133933097Y-100150898D01*
X134134717Y-100016180D01*
X134306180Y-99844717D01*
X134440898Y-99643097D01*
X134533693Y-99419069D01*
X134581000Y-99181243D01*
X134581000Y-98938757D01*
X134659000Y-98938757D01*
X134659000Y-99181243D01*
X134706307Y-99419069D01*
X134799102Y-99643097D01*
X134933820Y-99844717D01*
X135105283Y-100016180D01*
X135306903Y-100150898D01*
X135356600Y-100171483D01*
X135356601Y-113703803D01*
X135354021Y-113730000D01*
X135364319Y-113834564D01*
X135394819Y-113935110D01*
X135396927Y-113939053D01*
X135444350Y-114027775D01*
X135459307Y-114046000D01*
X135494307Y-114088648D01*
X135494310Y-114088651D01*
X135511006Y-114108995D01*
X135531350Y-114125691D01*
X137112157Y-115706498D01*
X137112157Y-116460000D01*
X137122395Y-116563953D01*
X137152717Y-116663910D01*
X137201957Y-116756032D01*
X137268223Y-116836777D01*
X137348968Y-116903043D01*
X137441090Y-116952283D01*
X137541047Y-116982605D01*
X137645000Y-116992843D01*
X137945000Y-116992843D01*
X138048953Y-116982605D01*
X138148910Y-116952283D01*
X138241032Y-116903043D01*
X138321777Y-116836777D01*
X138388043Y-116756032D01*
X138430000Y-116677536D01*
X138471957Y-116756032D01*
X138538223Y-116836777D01*
X138618968Y-116903043D01*
X138711090Y-116952283D01*
X138811047Y-116982605D01*
X138915000Y-116992843D01*
X139215000Y-116992843D01*
X139318953Y-116982605D01*
X139418910Y-116952283D01*
X139511032Y-116903043D01*
X139591777Y-116836777D01*
X139658043Y-116756032D01*
X139700000Y-116677536D01*
X139741957Y-116756032D01*
X139808223Y-116836777D01*
X139888968Y-116903043D01*
X139981090Y-116952283D01*
X140081047Y-116982605D01*
X140185000Y-116992843D01*
X140485000Y-116992843D01*
X140588953Y-116982605D01*
X140688910Y-116952283D01*
X140781032Y-116903043D01*
X140861777Y-116836777D01*
X140928043Y-116756032D01*
X140970000Y-116677536D01*
X141011957Y-116756032D01*
X141078223Y-116836777D01*
X141158968Y-116903043D01*
X141251090Y-116952283D01*
X141351047Y-116982605D01*
X141455000Y-116992843D01*
X141755000Y-116992843D01*
X141858953Y-116982605D01*
X141958910Y-116952283D01*
X142051032Y-116903043D01*
X142131777Y-116836777D01*
X142198043Y-116756032D01*
X142220562Y-116713903D01*
X142817157Y-117310498D01*
X142817157Y-117389000D01*
X142820155Y-117419436D01*
X142750887Y-117475753D01*
X142671092Y-117572079D01*
X142611623Y-117682122D01*
X142574765Y-117801652D01*
X142565000Y-117923250D01*
X142723750Y-118082000D01*
X143383000Y-118082000D01*
X143383000Y-118062000D01*
X143637000Y-118062000D01*
X143637000Y-118082000D01*
X143657000Y-118082000D01*
X143657000Y-118336000D01*
X143637000Y-118336000D01*
X143637000Y-118965250D01*
X143795750Y-119124000D01*
X143817077Y-119127065D01*
X143865600Y-119122510D01*
X143865600Y-119260102D01*
X142397476Y-120728226D01*
X142381250Y-120712000D01*
X141732000Y-120712000D01*
X141732000Y-120732000D01*
X141478000Y-120732000D01*
X141478000Y-120712000D01*
X141458000Y-120712000D01*
X141458000Y-120458000D01*
X141478000Y-120458000D01*
X141478000Y-119133750D01*
X141732000Y-119133750D01*
X141732000Y-120458000D01*
X142381250Y-120458000D01*
X142540000Y-120299250D01*
X142543072Y-119610000D01*
X142530812Y-119485518D01*
X142494502Y-119365820D01*
X142435537Y-119255506D01*
X142356185Y-119158815D01*
X142259494Y-119079463D01*
X142149180Y-119020498D01*
X142029482Y-118984188D01*
X141905000Y-118971928D01*
X141890750Y-118975000D01*
X141732000Y-119133750D01*
X141478000Y-119133750D01*
X141319250Y-118975000D01*
X141305000Y-118971928D01*
X141180518Y-118984188D01*
X141060820Y-119020498D01*
X140950506Y-119079463D01*
X140853815Y-119158815D01*
X140774463Y-119255506D01*
X140750375Y-119300571D01*
X140688910Y-119267717D01*
X140588953Y-119237395D01*
X140485000Y-119227157D01*
X140185000Y-119227157D01*
X140081047Y-119237395D01*
X139981090Y-119267717D01*
X139888968Y-119316957D01*
X139808223Y-119383223D01*
X139741957Y-119463968D01*
X139700000Y-119542464D01*
X139658043Y-119463968D01*
X139591777Y-119383223D01*
X139511032Y-119316957D01*
X139418910Y-119267717D01*
X139318953Y-119237395D01*
X139215000Y-119227157D01*
X138915000Y-119227157D01*
X138811047Y-119237395D01*
X138711090Y-119267717D01*
X138618968Y-119316957D01*
X138538223Y-119383223D01*
X138471957Y-119463968D01*
X138430000Y-119542464D01*
X138388043Y-119463968D01*
X138321777Y-119383223D01*
X138241032Y-119316957D01*
X138148910Y-119267717D01*
X138048953Y-119237395D01*
X137945000Y-119227157D01*
X137645000Y-119227157D01*
X137541047Y-119237395D01*
X137441090Y-119267717D01*
X137348968Y-119316957D01*
X137268223Y-119383223D01*
X137201957Y-119463968D01*
X137152717Y-119556090D01*
X137122395Y-119656047D01*
X137112157Y-119760000D01*
X137112157Y-121410000D01*
X137122395Y-121513953D01*
X137152717Y-121613910D01*
X137201957Y-121706032D01*
X137268223Y-121786777D01*
X137348968Y-121853043D01*
X137401266Y-121880997D01*
X137408827Y-121890210D01*
X137434053Y-121920948D01*
X137453430Y-121936850D01*
X137748355Y-122231775D01*
X137764262Y-122251158D01*
X137813498Y-122291564D01*
X137841614Y-122314639D01*
X137929865Y-122361810D01*
X137929867Y-122361811D01*
X138025625Y-122390859D01*
X138100263Y-122398210D01*
X138100265Y-122398210D01*
X138125209Y-122400667D01*
X138150153Y-122398210D01*
X141928968Y-122398210D01*
X141953912Y-122400667D01*
X141978856Y-122398210D01*
X141978859Y-122398210D01*
X142053497Y-122390859D01*
X142149255Y-122361811D01*
X142237507Y-122314639D01*
X142314860Y-122251158D01*
X142330767Y-122231775D01*
X144715165Y-119847377D01*
X144734548Y-119831470D01*
X144798029Y-119754117D01*
X144845201Y-119665865D01*
X144874249Y-119570107D01*
X144881600Y-119495469D01*
X144881600Y-119495466D01*
X144884057Y-119470522D01*
X144881600Y-119445578D01*
X144881600Y-118930020D01*
X150372150Y-124420571D01*
X150388052Y-124439948D01*
X150407429Y-124455850D01*
X150465404Y-124503429D01*
X150553655Y-124550600D01*
X150553657Y-124550601D01*
X150649415Y-124579649D01*
X150724053Y-124587000D01*
X150724055Y-124587000D01*
X150748999Y-124589457D01*
X150773943Y-124587000D01*
X156336694Y-124587000D01*
X156361638Y-124589457D01*
X156386582Y-124587000D01*
X156386585Y-124587000D01*
X156461223Y-124579649D01*
X156556981Y-124550601D01*
X156645233Y-124503429D01*
X156722586Y-124439948D01*
X156738493Y-124420565D01*
X162392157Y-118766902D01*
X162392157Y-119060000D01*
X162399513Y-119134689D01*
X162421299Y-119206508D01*
X162456678Y-119272696D01*
X162504289Y-119330711D01*
X162562304Y-119378322D01*
X162628492Y-119413701D01*
X162700311Y-119435487D01*
X162775000Y-119442843D01*
X163875000Y-119442843D01*
X163949689Y-119435487D01*
X164021508Y-119413701D01*
X164087696Y-119378322D01*
X164145711Y-119330711D01*
X164193322Y-119272696D01*
X164228701Y-119206508D01*
X164250487Y-119134689D01*
X164257843Y-119060000D01*
X164257843Y-118260000D01*
X164250487Y-118185311D01*
X164228701Y-118113492D01*
X164226834Y-118110000D01*
X164228701Y-118106508D01*
X164250487Y-118034689D01*
X164257843Y-117960000D01*
X164257843Y-117710000D01*
X165942157Y-117710000D01*
X165942157Y-118510000D01*
X165949513Y-118584689D01*
X165971299Y-118656508D01*
X166006678Y-118722696D01*
X166054289Y-118780711D01*
X166112304Y-118828322D01*
X166178492Y-118863701D01*
X166250311Y-118885487D01*
X166325000Y-118892843D01*
X167425000Y-118892843D01*
X167499689Y-118885487D01*
X167571508Y-118863701D01*
X167637696Y-118828322D01*
X167695711Y-118780711D01*
X167743322Y-118722696D01*
X167778701Y-118656508D01*
X167800487Y-118584689D01*
X167807843Y-118510000D01*
X167807843Y-117931498D01*
X168252645Y-117486696D01*
X168272995Y-117469995D01*
X168339651Y-117388775D01*
X168389181Y-117296111D01*
X168419681Y-117195565D01*
X168427400Y-117117195D01*
X168427400Y-117117194D01*
X168429980Y-117091000D01*
X168427400Y-117064806D01*
X168427400Y-113828231D01*
X168485884Y-113769747D01*
X168569276Y-113644942D01*
X168626717Y-113506267D01*
X168656000Y-113359050D01*
X168656000Y-113208950D01*
X168626717Y-113061733D01*
X168569276Y-112923058D01*
X168485884Y-112798253D01*
X168379747Y-112692116D01*
X168254942Y-112608724D01*
X168116267Y-112551283D01*
X167969050Y-112522000D01*
X167818950Y-112522000D01*
X167671733Y-112551283D01*
X167533058Y-112608724D01*
X167408253Y-112692116D01*
X167302116Y-112798253D01*
X167218724Y-112923058D01*
X167161283Y-113061733D01*
X167132000Y-113208950D01*
X167132000Y-113359050D01*
X167161283Y-113506267D01*
X167218724Y-113644942D01*
X167302116Y-113769747D01*
X167360600Y-113828231D01*
X167360601Y-116870058D01*
X166903502Y-117327157D01*
X166325000Y-117327157D01*
X166250311Y-117334513D01*
X166178492Y-117356299D01*
X166112304Y-117391678D01*
X166054289Y-117439289D01*
X166006678Y-117497304D01*
X165971299Y-117563492D01*
X165949513Y-117635311D01*
X165942157Y-117710000D01*
X164257843Y-117710000D01*
X164257843Y-117160000D01*
X164250487Y-117085311D01*
X164228701Y-117013492D01*
X164193322Y-116947304D01*
X164145711Y-116889289D01*
X164087696Y-116841678D01*
X164021508Y-116806299D01*
X163949689Y-116784513D01*
X163875000Y-116777157D01*
X163833000Y-116777157D01*
X163833000Y-115397420D01*
X164072577Y-115157843D01*
X164412000Y-115157843D01*
X164525707Y-115146644D01*
X164635044Y-115113477D01*
X164735810Y-115059616D01*
X164824132Y-114987132D01*
X164852347Y-114952752D01*
X164872498Y-115019180D01*
X164931463Y-115129494D01*
X165010815Y-115226185D01*
X165107506Y-115305537D01*
X165217820Y-115364502D01*
X165337518Y-115400812D01*
X165462000Y-115413072D01*
X165576250Y-115410000D01*
X165735000Y-115251250D01*
X165735000Y-114427000D01*
X165989000Y-114427000D01*
X165989000Y-115251250D01*
X166147750Y-115410000D01*
X166262000Y-115413072D01*
X166386482Y-115400812D01*
X166506180Y-115364502D01*
X166616494Y-115305537D01*
X166713185Y-115226185D01*
X166792537Y-115129494D01*
X166851502Y-115019180D01*
X166887812Y-114899482D01*
X166900072Y-114775000D01*
X166897000Y-114585750D01*
X166738250Y-114427000D01*
X165989000Y-114427000D01*
X165735000Y-114427000D01*
X165715000Y-114427000D01*
X165715000Y-114173000D01*
X165735000Y-114173000D01*
X165735000Y-113348750D01*
X165989000Y-113348750D01*
X165989000Y-114173000D01*
X166738250Y-114173000D01*
X166897000Y-114014250D01*
X166900072Y-113825000D01*
X166887812Y-113700518D01*
X166851502Y-113580820D01*
X166792537Y-113470506D01*
X166713185Y-113373815D01*
X166616494Y-113294463D01*
X166506180Y-113235498D01*
X166386482Y-113199188D01*
X166262000Y-113186928D01*
X166147750Y-113190000D01*
X165989000Y-113348750D01*
X165735000Y-113348750D01*
X165576250Y-113190000D01*
X165462000Y-113186928D01*
X165337518Y-113199188D01*
X165217820Y-113235498D01*
X165107506Y-113294463D01*
X165010815Y-113373815D01*
X164931463Y-113470506D01*
X164872498Y-113580820D01*
X164852347Y-113647248D01*
X164824132Y-113612868D01*
X164735810Y-113540384D01*
X164635044Y-113486523D01*
X164525707Y-113453356D01*
X164412000Y-113442157D01*
X164012000Y-113442157D01*
X163898293Y-113453356D01*
X163788956Y-113486523D01*
X163688190Y-113540384D01*
X163599868Y-113612868D01*
X163527384Y-113701190D01*
X163473523Y-113801956D01*
X163440356Y-113911293D01*
X163429157Y-114025000D01*
X163429157Y-114364422D01*
X162983430Y-114810150D01*
X162964053Y-114826052D01*
X162948151Y-114845429D01*
X162948150Y-114845430D01*
X162900571Y-114903405D01*
X162871511Y-114957773D01*
X162853400Y-114991657D01*
X162825329Y-115084196D01*
X162824352Y-115087416D01*
X162814543Y-115187000D01*
X162817001Y-115211954D01*
X162817000Y-116777157D01*
X162775000Y-116777157D01*
X162700311Y-116784513D01*
X162628492Y-116806299D01*
X162562304Y-116841678D01*
X162504289Y-116889289D01*
X162456678Y-116947304D01*
X162421299Y-117013492D01*
X162399513Y-117085311D01*
X162392157Y-117160000D01*
X162392157Y-117330060D01*
X156151218Y-123571000D01*
X150959421Y-123571000D01*
X145669000Y-118280580D01*
X145669000Y-113182420D01*
X147165123Y-113182420D01*
X147167580Y-113207364D01*
X147167582Y-117931219D01*
X147165124Y-117956173D01*
X147171352Y-118019400D01*
X147174933Y-118055758D01*
X147192646Y-118114150D01*
X147203981Y-118151516D01*
X147251152Y-118239768D01*
X147282793Y-118278322D01*
X147314634Y-118317121D01*
X147334011Y-118333023D01*
X150376553Y-121375565D01*
X150392460Y-121394948D01*
X150469813Y-121458429D01*
X150558065Y-121505601D01*
X150653823Y-121534649D01*
X150728461Y-121542000D01*
X150728464Y-121542000D01*
X150753408Y-121544457D01*
X150778352Y-121542000D01*
X151846056Y-121542000D01*
X151871000Y-121544457D01*
X151895944Y-121542000D01*
X151895947Y-121542000D01*
X151970585Y-121534649D01*
X152066343Y-121505601D01*
X152154595Y-121458429D01*
X152231948Y-121394948D01*
X152247855Y-121375565D01*
X152460577Y-121162843D01*
X152675000Y-121162843D01*
X152749689Y-121155487D01*
X152821508Y-121133701D01*
X152887696Y-121098322D01*
X152945711Y-121050711D01*
X152993322Y-120992696D01*
X153028701Y-120926508D01*
X153050487Y-120854689D01*
X153050966Y-120849822D01*
X153051850Y-120851475D01*
X153054488Y-120854689D01*
X153101807Y-120912348D01*
X153101810Y-120912351D01*
X153118506Y-120932695D01*
X153138850Y-120949391D01*
X153390600Y-121201141D01*
X153390600Y-121283850D01*
X153419883Y-121431067D01*
X153477324Y-121569742D01*
X153560716Y-121694547D01*
X153666853Y-121800684D01*
X153791658Y-121884076D01*
X153930333Y-121941517D01*
X154077550Y-121970800D01*
X154227650Y-121970800D01*
X154374867Y-121941517D01*
X154513542Y-121884076D01*
X154638347Y-121800684D01*
X154744484Y-121694547D01*
X154827876Y-121569742D01*
X154885317Y-121431067D01*
X154914600Y-121283850D01*
X154914600Y-121133750D01*
X154885317Y-120986533D01*
X154827876Y-120847858D01*
X154744484Y-120723053D01*
X154638347Y-120616916D01*
X154513542Y-120533524D01*
X154433186Y-120500240D01*
X154445487Y-120459689D01*
X154452843Y-120385000D01*
X154452843Y-120092086D01*
X154518452Y-120038902D01*
X154598387Y-119942691D01*
X154658016Y-119832735D01*
X154695048Y-119713259D01*
X154705000Y-119595750D01*
X154546250Y-119437000D01*
X153624500Y-119437000D01*
X153624500Y-119452157D01*
X153370500Y-119452157D01*
X153370500Y-119437000D01*
X153350500Y-119437000D01*
X153350500Y-119183000D01*
X153370500Y-119183000D01*
X153370500Y-119167843D01*
X153624500Y-119167843D01*
X153624500Y-119183000D01*
X154546250Y-119183000D01*
X154705000Y-119024250D01*
X154695048Y-118906741D01*
X154658016Y-118787265D01*
X154598387Y-118677309D01*
X154518452Y-118581098D01*
X154452843Y-118527914D01*
X154452843Y-118492086D01*
X154518452Y-118438902D01*
X154598387Y-118342691D01*
X154658016Y-118232735D01*
X154695048Y-118113259D01*
X154705000Y-117995750D01*
X154546250Y-117837000D01*
X153624500Y-117837000D01*
X153624500Y-117852157D01*
X153370500Y-117852157D01*
X153370500Y-117837000D01*
X152448750Y-117837000D01*
X152290000Y-117995750D01*
X152299952Y-118113259D01*
X152336984Y-118232735D01*
X152396613Y-118342691D01*
X152476548Y-118438902D01*
X152542157Y-118492086D01*
X152542157Y-118527914D01*
X152476548Y-118581098D01*
X152396613Y-118677309D01*
X152336984Y-118787265D01*
X152299952Y-118906741D01*
X152290000Y-119024250D01*
X152448748Y-119182998D01*
X152290000Y-119182998D01*
X152290000Y-119252157D01*
X152257843Y-119252157D01*
X152257843Y-119035000D01*
X152250487Y-118960311D01*
X152235225Y-118910000D01*
X152250487Y-118859689D01*
X152257843Y-118785000D01*
X152257843Y-118235000D01*
X152250487Y-118160311D01*
X152235225Y-118110000D01*
X152250487Y-118059689D01*
X152257843Y-117985000D01*
X152257843Y-117435000D01*
X152250487Y-117360311D01*
X152235225Y-117310000D01*
X152250487Y-117259689D01*
X152257843Y-117185000D01*
X152257843Y-116967843D01*
X152290000Y-116967843D01*
X152290000Y-117037002D01*
X152430101Y-117037002D01*
X152396613Y-117077309D01*
X152382599Y-117103151D01*
X152290000Y-117195750D01*
X152299676Y-117310000D01*
X152290000Y-117424250D01*
X152382599Y-117516849D01*
X152396613Y-117542691D01*
X152476548Y-117638902D01*
X152573717Y-117717669D01*
X152684385Y-117775966D01*
X152804300Y-117811552D01*
X152928853Y-117823060D01*
X153211750Y-117820000D01*
X153370500Y-117661250D01*
X153370500Y-116958750D01*
X153624500Y-116958750D01*
X153624500Y-117661250D01*
X153783250Y-117820000D01*
X154066147Y-117823060D01*
X154190700Y-117811552D01*
X154310615Y-117775966D01*
X154421283Y-117717669D01*
X154518452Y-117638902D01*
X154598387Y-117542691D01*
X154612401Y-117516849D01*
X154705000Y-117424250D01*
X154695324Y-117310000D01*
X154705000Y-117195750D01*
X154612401Y-117103151D01*
X154598387Y-117077309D01*
X154518452Y-116981098D01*
X154421283Y-116902331D01*
X154310615Y-116844034D01*
X154190700Y-116808448D01*
X154066147Y-116796940D01*
X153783250Y-116800000D01*
X153624500Y-116958750D01*
X153370500Y-116958750D01*
X153350500Y-116938750D01*
X153350500Y-116783000D01*
X153370500Y-116783000D01*
X153370500Y-116767843D01*
X153624500Y-116767843D01*
X153624500Y-116783000D01*
X154546250Y-116783000D01*
X154685850Y-116643400D01*
X155343154Y-116643400D01*
X155360956Y-116702083D01*
X155409272Y-116792476D01*
X155450601Y-116842835D01*
X155450600Y-117599165D01*
X155409272Y-117649524D01*
X155360956Y-117739917D01*
X155331203Y-117837998D01*
X155321157Y-117940000D01*
X155321157Y-118280000D01*
X155331203Y-118382002D01*
X155360956Y-118480083D01*
X155409272Y-118570476D01*
X155450600Y-118620835D01*
X155450601Y-119377165D01*
X155409272Y-119427524D01*
X155360956Y-119517917D01*
X155331203Y-119615998D01*
X155321157Y-119718000D01*
X155321157Y-119806368D01*
X155316349Y-119812227D01*
X155266819Y-119904890D01*
X155236319Y-120005436D01*
X155226021Y-120110000D01*
X155236319Y-120214564D01*
X155266819Y-120315110D01*
X155316349Y-120407773D01*
X155383005Y-120488995D01*
X155464227Y-120555651D01*
X155556890Y-120605181D01*
X155657436Y-120635681D01*
X155762000Y-120645979D01*
X155866564Y-120635681D01*
X155967110Y-120605181D01*
X156012643Y-120580843D01*
X156124000Y-120580843D01*
X156154436Y-120577845D01*
X156210753Y-120647113D01*
X156307079Y-120726908D01*
X156417122Y-120786377D01*
X156536652Y-120823235D01*
X156658250Y-120833000D01*
X156817000Y-120674250D01*
X156817000Y-120015000D01*
X157071000Y-120015000D01*
X157071000Y-120674250D01*
X157229750Y-120833000D01*
X157351348Y-120823235D01*
X157470878Y-120786377D01*
X157580921Y-120726908D01*
X157677247Y-120647113D01*
X157756156Y-120550059D01*
X157814614Y-120439476D01*
X157850375Y-120319613D01*
X157862065Y-120195077D01*
X157859000Y-120173750D01*
X157700250Y-120015000D01*
X157071000Y-120015000D01*
X156817000Y-120015000D01*
X156797000Y-120015000D01*
X156797000Y-119761000D01*
X156817000Y-119761000D01*
X156817000Y-119101750D01*
X156714250Y-118999000D01*
X156817000Y-118896250D01*
X156817000Y-118237000D01*
X157071000Y-118237000D01*
X157071000Y-118896250D01*
X157173750Y-118999000D01*
X157071000Y-119101750D01*
X157071000Y-119761000D01*
X157700250Y-119761000D01*
X157859000Y-119602250D01*
X157862065Y-119580923D01*
X157850375Y-119456387D01*
X157814614Y-119336524D01*
X157756156Y-119225941D01*
X157677247Y-119128887D01*
X157580921Y-119049092D01*
X157488229Y-118999000D01*
X157580921Y-118948908D01*
X157677247Y-118869113D01*
X157756156Y-118772059D01*
X157814614Y-118661476D01*
X157850375Y-118541613D01*
X157862065Y-118417077D01*
X157859000Y-118395750D01*
X157700250Y-118237000D01*
X157071000Y-118237000D01*
X156817000Y-118237000D01*
X156797000Y-118237000D01*
X156797000Y-117983000D01*
X156817000Y-117983000D01*
X156817000Y-117323750D01*
X156714250Y-117221000D01*
X156817000Y-117118250D01*
X156817000Y-116459000D01*
X157071000Y-116459000D01*
X157071000Y-117118250D01*
X157173750Y-117221000D01*
X157071000Y-117323750D01*
X157071000Y-117983000D01*
X157700250Y-117983000D01*
X157859000Y-117824250D01*
X157862065Y-117802923D01*
X157850375Y-117678387D01*
X157814614Y-117558524D01*
X157756156Y-117447941D01*
X157677247Y-117350887D01*
X157580921Y-117271092D01*
X157488229Y-117221000D01*
X157580921Y-117170908D01*
X157677247Y-117091113D01*
X157756156Y-116994059D01*
X157814614Y-116883476D01*
X157850375Y-116763613D01*
X157862065Y-116639077D01*
X157859000Y-116617750D01*
X157700250Y-116459000D01*
X157071000Y-116459000D01*
X156817000Y-116459000D01*
X156797000Y-116459000D01*
X156797000Y-116205000D01*
X156817000Y-116205000D01*
X156817000Y-116185000D01*
X157071000Y-116185000D01*
X157071000Y-116205000D01*
X157700250Y-116205000D01*
X157859000Y-116046250D01*
X157862065Y-116024923D01*
X157850375Y-115900387D01*
X157814614Y-115780524D01*
X157756156Y-115669941D01*
X157677247Y-115572887D01*
X157580921Y-115493092D01*
X157470878Y-115433623D01*
X157360694Y-115399647D01*
X161990942Y-110769400D01*
X164555769Y-110769400D01*
X164614253Y-110827884D01*
X164739058Y-110911276D01*
X164877733Y-110968717D01*
X165024950Y-110998000D01*
X165175050Y-110998000D01*
X165322267Y-110968717D01*
X165460942Y-110911276D01*
X165585747Y-110827884D01*
X165691884Y-110721747D01*
X165775276Y-110596942D01*
X165832717Y-110458267D01*
X165862000Y-110311050D01*
X165862000Y-110160950D01*
X165832717Y-110013733D01*
X165775276Y-109875058D01*
X165691884Y-109750253D01*
X165585747Y-109644116D01*
X165460942Y-109560724D01*
X165322267Y-109503283D01*
X165175050Y-109474000D01*
X165024950Y-109474000D01*
X164877733Y-109503283D01*
X164739058Y-109560724D01*
X164614253Y-109644116D01*
X164555769Y-109702600D01*
X161796186Y-109702600D01*
X161769999Y-109700021D01*
X161743812Y-109702600D01*
X161743805Y-109702600D01*
X161665435Y-109710319D01*
X161564889Y-109740819D01*
X161472225Y-109790349D01*
X161391005Y-109857005D01*
X161374309Y-109877349D01*
X155675059Y-115576600D01*
X154855029Y-115576600D01*
X154893866Y-115544728D01*
X154909773Y-115525345D01*
X170295536Y-100139582D01*
X170329289Y-100180711D01*
X170387304Y-100228322D01*
X170453492Y-100263701D01*
X170525311Y-100285487D01*
X170600000Y-100292843D01*
X172300000Y-100292843D01*
X172374689Y-100285487D01*
X172446508Y-100263701D01*
X172512696Y-100228322D01*
X172570711Y-100180711D01*
X172618322Y-100122696D01*
X172653701Y-100056508D01*
X172675487Y-99984689D01*
X172682843Y-99910000D01*
X172682843Y-98210000D01*
X172675487Y-98135311D01*
X172653701Y-98063492D01*
X172618322Y-97997304D01*
X172570711Y-97939289D01*
X172512696Y-97891678D01*
X172446508Y-97856299D01*
X172374689Y-97834513D01*
X172300000Y-97827157D01*
X170600000Y-97827157D01*
X170598201Y-97827334D01*
X170598201Y-82485145D01*
X170600658Y-82460201D01*
X170598201Y-82435254D01*
X170590850Y-82360616D01*
X170561802Y-82264858D01*
X170514630Y-82176606D01*
X170451149Y-82099253D01*
X170431766Y-82083346D01*
X167522587Y-79174167D01*
X167553693Y-79099069D01*
X167601000Y-78861243D01*
X167601000Y-78618757D01*
X167553693Y-78380931D01*
X167460898Y-78156903D01*
X167401361Y-78067799D01*
X167878639Y-78067799D01*
X167819102Y-78156903D01*
X167726307Y-78380931D01*
X167679000Y-78618757D01*
X167679000Y-78861243D01*
X167726307Y-79099069D01*
X167819102Y-79323097D01*
X167953820Y-79524717D01*
X168125283Y-79696180D01*
X168326903Y-79830898D01*
X168550931Y-79923693D01*
X168788757Y-79971000D01*
X169031243Y-79971000D01*
X169269069Y-79923693D01*
X169493097Y-79830898D01*
X169694717Y-79696180D01*
X169866180Y-79524717D01*
X170000898Y-79323097D01*
X170093693Y-79099069D01*
X170141000Y-78861243D01*
X170141000Y-78618757D01*
X170093693Y-78380931D01*
X170000898Y-78156903D01*
X169941361Y-78067799D01*
X170217157Y-78067799D01*
X170217157Y-79590000D01*
X170224513Y-79664689D01*
X170246299Y-79736508D01*
X170281678Y-79802696D01*
X170329289Y-79860711D01*
X170387304Y-79908322D01*
X170453492Y-79943701D01*
X170525311Y-79965487D01*
X170600000Y-79972843D01*
X172300000Y-79972843D01*
X172374689Y-79965487D01*
X172446508Y-79943701D01*
X172512696Y-79908322D01*
X172570711Y-79860711D01*
X172618322Y-79802696D01*
X172653701Y-79736508D01*
X172675487Y-79664689D01*
X172682843Y-79590000D01*
X172682843Y-78067799D01*
X174123379Y-78067799D01*
X174548800Y-78493220D01*
X174548801Y-125847779D01*
X161439423Y-138957157D01*
X160350000Y-138957157D01*
X160275311Y-138964513D01*
X160203492Y-138986299D01*
X160137304Y-139021678D01*
X160079289Y-139069289D01*
X160031678Y-139127304D01*
X159996299Y-139193492D01*
X159974513Y-139265311D01*
X159967157Y-139340000D01*
X159967157Y-140640000D01*
X159974513Y-140714689D01*
X159996299Y-140786508D01*
X160031678Y-140852696D01*
X160079289Y-140910711D01*
X160137304Y-140958322D01*
X160203492Y-140993701D01*
X160275311Y-141015487D01*
X160350000Y-141022843D01*
X161900000Y-141022843D01*
X161974689Y-141015487D01*
X162046508Y-140993701D01*
X162112696Y-140958322D01*
X162170711Y-140910711D01*
X162218322Y-140852696D01*
X162253701Y-140786508D01*
X162275487Y-140714689D01*
X162282843Y-140640000D01*
X162282843Y-139550577D01*
X162493420Y-139340000D01*
X167917157Y-139340000D01*
X167917157Y-140640000D01*
X167924513Y-140714689D01*
X167946299Y-140786508D01*
X167981678Y-140852696D01*
X168029289Y-140910711D01*
X168087304Y-140958322D01*
X168153492Y-140993701D01*
X168225311Y-141015487D01*
X168300000Y-141022843D01*
X169850000Y-141022843D01*
X169924689Y-141015487D01*
X169996508Y-140993701D01*
X170062696Y-140958322D01*
X170120711Y-140910711D01*
X170168322Y-140852696D01*
X170203701Y-140786508D01*
X170225487Y-140714689D01*
X170232843Y-140640000D01*
X170232843Y-139340000D01*
X170225487Y-139265311D01*
X170203701Y-139193492D01*
X170168322Y-139127304D01*
X170120711Y-139069289D01*
X170062696Y-139021678D01*
X169996508Y-138986299D01*
X169924689Y-138964513D01*
X169850000Y-138957157D01*
X168300000Y-138957157D01*
X168225311Y-138964513D01*
X168153492Y-138986299D01*
X168087304Y-139021678D01*
X168029289Y-139069289D01*
X167981678Y-139127304D01*
X167946299Y-139193492D01*
X167924513Y-139265311D01*
X167917157Y-139340000D01*
X162493420Y-139340000D01*
X175398365Y-126435055D01*
X175417748Y-126419148D01*
X175481229Y-126341795D01*
X175528401Y-126253543D01*
X175557449Y-126157785D01*
X175564800Y-126083147D01*
X175564800Y-126083144D01*
X175567257Y-126058200D01*
X175564800Y-126033256D01*
X175564800Y-78307744D01*
X175567257Y-78282800D01*
X175564800Y-78257853D01*
X175557449Y-78183215D01*
X175528401Y-78087457D01*
X175481229Y-77999205D01*
X175417748Y-77921852D01*
X175398365Y-77905945D01*
X174710654Y-77218234D01*
X174694747Y-77198851D01*
X174617394Y-77135370D01*
X174529142Y-77088198D01*
X174433384Y-77059150D01*
X174358746Y-77051799D01*
X174358743Y-77051799D01*
X174333799Y-77049342D01*
X174308855Y-77051799D01*
X159955144Y-77051799D01*
X159930200Y-77049342D01*
X159905256Y-77051799D01*
X159905254Y-77051799D01*
X159830616Y-77059150D01*
X159734858Y-77088198D01*
X159734856Y-77088199D01*
X159646605Y-77135370D01*
X159592011Y-77180175D01*
X159569253Y-77198851D01*
X159553351Y-77218228D01*
X159184166Y-77587413D01*
X159109069Y-77556307D01*
X158871243Y-77509000D01*
X158628757Y-77509000D01*
X158390931Y-77556307D01*
X158166903Y-77649102D01*
X157965283Y-77783820D01*
X157793820Y-77955283D01*
X157659102Y-78156903D01*
X157566307Y-78380931D01*
X157519000Y-78618757D01*
X157519000Y-78861243D01*
X157566307Y-79099069D01*
X157659102Y-79323097D01*
X157793820Y-79524717D01*
X157965283Y-79696180D01*
X158166903Y-79830898D01*
X158390931Y-79923693D01*
X158628757Y-79971000D01*
X158871243Y-79971000D01*
X159109069Y-79923693D01*
X159333097Y-79830898D01*
X159534717Y-79696180D01*
X159706180Y-79524717D01*
X159840898Y-79323097D01*
X159933693Y-79099069D01*
X159981000Y-78861243D01*
X159981000Y-78618757D01*
X159933693Y-78380931D01*
X159902587Y-78305834D01*
X160140622Y-78067799D01*
X160258639Y-78067799D01*
X160199102Y-78156903D01*
X160106307Y-78380931D01*
X160059000Y-78618757D01*
X160059000Y-78861243D01*
X160106307Y-79099069D01*
X160199102Y-79323097D01*
X160333820Y-79524717D01*
X160505283Y-79696180D01*
X160706903Y-79830898D01*
X160930931Y-79923693D01*
X161168757Y-79971000D01*
X161411243Y-79971000D01*
X161649069Y-79923693D01*
X161724167Y-79892587D01*
X164502201Y-82670621D01*
X164502202Y-98028640D01*
X164413097Y-97969102D01*
X164189069Y-97876307D01*
X163951243Y-97829000D01*
X163708757Y-97829000D01*
X163470931Y-97876307D01*
X163246903Y-97969102D01*
X163045283Y-98103820D01*
X162873820Y-98275283D01*
X162739102Y-98476903D01*
X162646307Y-98700931D01*
X162599000Y-98938757D01*
X162599000Y-99181243D01*
X162646307Y-99419069D01*
X162677413Y-99494167D01*
X161798000Y-100373580D01*
X161798000Y-100182004D01*
X161873097Y-100150898D01*
X162074717Y-100016180D01*
X162246180Y-99844717D01*
X162380898Y-99643097D01*
X162473693Y-99419069D01*
X162521000Y-99181243D01*
X162521000Y-98938757D01*
X162473693Y-98700931D01*
X162380898Y-98476903D01*
X162246180Y-98275283D01*
X162074717Y-98103820D01*
X161873097Y-97969102D01*
X161649069Y-97876307D01*
X161411243Y-97829000D01*
X161168757Y-97829000D01*
X160930931Y-97876307D01*
X160706903Y-97969102D01*
X160505283Y-98103820D01*
X160333820Y-98275283D01*
X160199102Y-98476903D01*
X160106307Y-98700931D01*
X160059000Y-98938757D01*
X160059000Y-99181243D01*
X160106307Y-99419069D01*
X160199102Y-99643097D01*
X160333820Y-99844717D01*
X160505283Y-100016180D01*
X160706903Y-100150898D01*
X160782001Y-100182004D01*
X160782001Y-100373579D01*
X159258000Y-101897580D01*
X159258000Y-100182004D01*
X159333097Y-100150898D01*
X159534717Y-100016180D01*
X159706180Y-99844717D01*
X159840898Y-99643097D01*
X159933693Y-99419069D01*
X159981000Y-99181243D01*
X159981000Y-98938757D01*
X159933693Y-98700931D01*
X159840898Y-98476903D01*
X159706180Y-98275283D01*
X159534717Y-98103820D01*
X159333097Y-97969102D01*
X159109069Y-97876307D01*
X158871243Y-97829000D01*
X158628757Y-97829000D01*
X158390931Y-97876307D01*
X158166903Y-97969102D01*
X157965283Y-98103820D01*
X157793820Y-98275283D01*
X157659102Y-98476903D01*
X157566307Y-98700931D01*
X157519000Y-98938757D01*
X157519000Y-99181243D01*
X157566307Y-99419069D01*
X157659102Y-99643097D01*
X157793820Y-99844717D01*
X157965283Y-100016180D01*
X158166903Y-100150898D01*
X158242000Y-100182004D01*
X158242001Y-101897578D01*
X155490758Y-104648821D01*
X155528044Y-104516449D01*
X155560902Y-104097176D01*
X155511334Y-103679549D01*
X155381243Y-103279617D01*
X155223214Y-102983962D01*
X154907653Y-102827952D01*
X153595605Y-104140000D01*
X153609748Y-104154143D01*
X153430143Y-104333748D01*
X153416000Y-104319605D01*
X152103952Y-105631653D01*
X152259962Y-105947214D01*
X152634745Y-106138020D01*
X153039551Y-106252044D01*
X153458824Y-106284902D01*
X153876451Y-106235334D01*
X153917645Y-106221934D01*
X147334009Y-112805571D01*
X147314632Y-112821473D01*
X147298730Y-112840850D01*
X147251151Y-112898825D01*
X147225937Y-112945997D01*
X147203979Y-112987078D01*
X147174931Y-113082836D01*
X147167580Y-113157473D01*
X147165123Y-113182420D01*
X145669000Y-113182420D01*
X145669000Y-104182824D01*
X151271098Y-104182824D01*
X151320666Y-104600451D01*
X151450757Y-105000383D01*
X151608786Y-105296038D01*
X151924347Y-105452048D01*
X153236395Y-104140000D01*
X151924347Y-102827952D01*
X151608786Y-102983962D01*
X151417980Y-103358745D01*
X151303956Y-103763551D01*
X151271098Y-104182824D01*
X145669000Y-104182824D01*
X145669000Y-102648347D01*
X152103952Y-102648347D01*
X153416000Y-103960395D01*
X154728048Y-102648347D01*
X154572038Y-102332786D01*
X154197255Y-102141980D01*
X153792449Y-102027956D01*
X153373176Y-101995098D01*
X152955549Y-102044666D01*
X152555617Y-102174757D01*
X152259962Y-102332786D01*
X152103952Y-102648347D01*
X145669000Y-102648347D01*
X145669000Y-100234609D01*
X145690931Y-100243693D01*
X145928757Y-100291000D01*
X146171243Y-100291000D01*
X146409069Y-100243693D01*
X146633097Y-100150898D01*
X146834717Y-100016180D01*
X147006180Y-99844717D01*
X147140898Y-99643097D01*
X147233693Y-99419069D01*
X147281000Y-99181243D01*
X147281000Y-98938757D01*
X147359000Y-98938757D01*
X147359000Y-99181243D01*
X147406307Y-99419069D01*
X147499102Y-99643097D01*
X147633820Y-99844717D01*
X147805283Y-100016180D01*
X148006903Y-100150898D01*
X148230931Y-100243693D01*
X148468757Y-100291000D01*
X148711243Y-100291000D01*
X148949069Y-100243693D01*
X149173097Y-100150898D01*
X149374717Y-100016180D01*
X149546180Y-99844717D01*
X149680898Y-99643097D01*
X149773693Y-99419069D01*
X149821000Y-99181243D01*
X149821000Y-98938757D01*
X149899000Y-98938757D01*
X149899000Y-99181243D01*
X149946307Y-99419069D01*
X150039102Y-99643097D01*
X150173820Y-99844717D01*
X150345283Y-100016180D01*
X150546903Y-100150898D01*
X150770931Y-100243693D01*
X151008757Y-100291000D01*
X151251243Y-100291000D01*
X151489069Y-100243693D01*
X151713097Y-100150898D01*
X151914717Y-100016180D01*
X152086180Y-99844717D01*
X152220898Y-99643097D01*
X152313693Y-99419069D01*
X152361000Y-99181243D01*
X152361000Y-98938757D01*
X152439000Y-98938757D01*
X152439000Y-99181243D01*
X152486307Y-99419069D01*
X152579102Y-99643097D01*
X152713820Y-99844717D01*
X152885283Y-100016180D01*
X153086903Y-100150898D01*
X153310931Y-100243693D01*
X153548757Y-100291000D01*
X153791243Y-100291000D01*
X154029069Y-100243693D01*
X154253097Y-100150898D01*
X154454717Y-100016180D01*
X154626180Y-99844717D01*
X154760898Y-99643097D01*
X154853693Y-99419069D01*
X154901000Y-99181243D01*
X154901000Y-98938757D01*
X154979000Y-98938757D01*
X154979000Y-99181243D01*
X155026307Y-99419069D01*
X155119102Y-99643097D01*
X155253820Y-99844717D01*
X155425283Y-100016180D01*
X155626903Y-100150898D01*
X155850931Y-100243693D01*
X156088757Y-100291000D01*
X156331243Y-100291000D01*
X156569069Y-100243693D01*
X156793097Y-100150898D01*
X156994717Y-100016180D01*
X157166180Y-99844717D01*
X157300898Y-99643097D01*
X157393693Y-99419069D01*
X157441000Y-99181243D01*
X157441000Y-98938757D01*
X157393693Y-98700931D01*
X157300898Y-98476903D01*
X157166180Y-98275283D01*
X156994717Y-98103820D01*
X156793097Y-97969102D01*
X156569069Y-97876307D01*
X156331243Y-97829000D01*
X156088757Y-97829000D01*
X155850931Y-97876307D01*
X155626903Y-97969102D01*
X155425283Y-98103820D01*
X155253820Y-98275283D01*
X155119102Y-98476903D01*
X155026307Y-98700931D01*
X154979000Y-98938757D01*
X154901000Y-98938757D01*
X154853693Y-98700931D01*
X154760898Y-98476903D01*
X154626180Y-98275283D01*
X154454717Y-98103820D01*
X154253097Y-97969102D01*
X154029069Y-97876307D01*
X153791243Y-97829000D01*
X153548757Y-97829000D01*
X153310931Y-97876307D01*
X153086903Y-97969102D01*
X152885283Y-98103820D01*
X152713820Y-98275283D01*
X152579102Y-98476903D01*
X152486307Y-98700931D01*
X152439000Y-98938757D01*
X152361000Y-98938757D01*
X152313693Y-98700931D01*
X152220898Y-98476903D01*
X152086180Y-98275283D01*
X151914717Y-98103820D01*
X151713097Y-97969102D01*
X151489069Y-97876307D01*
X151251243Y-97829000D01*
X151008757Y-97829000D01*
X150770931Y-97876307D01*
X150546903Y-97969102D01*
X150345283Y-98103820D01*
X150173820Y-98275283D01*
X150039102Y-98476903D01*
X149946307Y-98700931D01*
X149899000Y-98938757D01*
X149821000Y-98938757D01*
X149773693Y-98700931D01*
X149680898Y-98476903D01*
X149546180Y-98275283D01*
X149374717Y-98103820D01*
X149173097Y-97969102D01*
X148949069Y-97876307D01*
X148711243Y-97829000D01*
X148468757Y-97829000D01*
X148230931Y-97876307D01*
X148006903Y-97969102D01*
X147805283Y-98103820D01*
X147633820Y-98275283D01*
X147499102Y-98476903D01*
X147406307Y-98700931D01*
X147359000Y-98938757D01*
X147281000Y-98938757D01*
X147233693Y-98700931D01*
X147140898Y-98476903D01*
X147006180Y-98275283D01*
X146834717Y-98103820D01*
X146633097Y-97969102D01*
X146409069Y-97876307D01*
X146171243Y-97829000D01*
X145928757Y-97829000D01*
X145690931Y-97876307D01*
X145466903Y-97969102D01*
X145265283Y-98103820D01*
X145093820Y-98275283D01*
X144959102Y-98476903D01*
X144866307Y-98700931D01*
X144819000Y-98938757D01*
X144819000Y-99181243D01*
X144866307Y-99419069D01*
X144897413Y-99494167D01*
X144819435Y-99572145D01*
X144800052Y-99588052D01*
X144777722Y-99615261D01*
X144734548Y-99562652D01*
X144715165Y-99546745D01*
X144662587Y-99494167D01*
X144693693Y-99419069D01*
X144741000Y-99181243D01*
X144741000Y-98938757D01*
X144693693Y-98700931D01*
X144600898Y-98476903D01*
X144466180Y-98275283D01*
X144294717Y-98103820D01*
X144093097Y-97969102D01*
X143869069Y-97876307D01*
X143631243Y-97829000D01*
X143388757Y-97829000D01*
X143150931Y-97876307D01*
X142926903Y-97969102D01*
X142725283Y-98103820D01*
X142553820Y-98275283D01*
X142419102Y-98476903D01*
X142371772Y-98591168D01*
X142314157Y-98428748D01*
X142165178Y-98178645D01*
X141970269Y-97962412D01*
X141736920Y-97788359D01*
X141474099Y-97663175D01*
X141326890Y-97618524D01*
X141097000Y-97739845D01*
X141097000Y-98933000D01*
X141117000Y-98933000D01*
X141117000Y-99187000D01*
X141097000Y-99187000D01*
X141097000Y-100380155D01*
X141326890Y-100501476D01*
X141474099Y-100456825D01*
X141736920Y-100331641D01*
X141970269Y-100157588D01*
X142165178Y-99941355D01*
X142314157Y-99691252D01*
X142371772Y-99528832D01*
X142419102Y-99643097D01*
X142553820Y-99844717D01*
X142725283Y-100016180D01*
X142926903Y-100150898D01*
X143150931Y-100243693D01*
X143388757Y-100291000D01*
X143631243Y-100291000D01*
X143865601Y-100244383D01*
X143865600Y-116621563D01*
X143782002Y-116596203D01*
X143680000Y-116586157D01*
X143601498Y-116586157D01*
X142291693Y-115276352D01*
X142287843Y-115271660D01*
X142287843Y-114810000D01*
X142277605Y-114706047D01*
X142247283Y-114606090D01*
X142198043Y-114513968D01*
X142131777Y-114433223D01*
X142054859Y-114370098D01*
X142050651Y-114362225D01*
X141983995Y-114281005D01*
X141963645Y-114264304D01*
X141645086Y-113945745D01*
X141628385Y-113925395D01*
X141547165Y-113858739D01*
X141454501Y-113809209D01*
X141353955Y-113778709D01*
X141275585Y-113770990D01*
X141275577Y-113770990D01*
X141249390Y-113768411D01*
X141223203Y-113770990D01*
X138176796Y-113770990D01*
X138150609Y-113768411D01*
X138124422Y-113770990D01*
X138124415Y-113770990D01*
X138046045Y-113778709D01*
X137945499Y-113809209D01*
X137852835Y-113858739D01*
X137771615Y-113925395D01*
X137754914Y-113945745D01*
X137436350Y-114264309D01*
X137416006Y-114281005D01*
X137399310Y-114301349D01*
X137399307Y-114301352D01*
X137396814Y-114304390D01*
X137349350Y-114362225D01*
X137349349Y-114362227D01*
X137345143Y-114370096D01*
X137311801Y-114397460D01*
X136423400Y-113509059D01*
X136423400Y-102640000D01*
X138833157Y-102640000D01*
X138833157Y-105640000D01*
X138840513Y-105714689D01*
X138862299Y-105786508D01*
X138897678Y-105852696D01*
X138945289Y-105910711D01*
X139003304Y-105958322D01*
X139069492Y-105993701D01*
X139141311Y-106015487D01*
X139216000Y-106022843D01*
X142216000Y-106022843D01*
X142290689Y-106015487D01*
X142362508Y-105993701D01*
X142428696Y-105958322D01*
X142486711Y-105910711D01*
X142534322Y-105852696D01*
X142569701Y-105786508D01*
X142591487Y-105714689D01*
X142598843Y-105640000D01*
X142598843Y-102640000D01*
X142591487Y-102565311D01*
X142569701Y-102493492D01*
X142534322Y-102427304D01*
X142486711Y-102369289D01*
X142428696Y-102321678D01*
X142362508Y-102286299D01*
X142290689Y-102264513D01*
X142216000Y-102257157D01*
X139216000Y-102257157D01*
X139141311Y-102264513D01*
X139069492Y-102286299D01*
X139003304Y-102321678D01*
X138945289Y-102369289D01*
X138897678Y-102427304D01*
X138862299Y-102493492D01*
X138840513Y-102565311D01*
X138833157Y-102640000D01*
X136423400Y-102640000D01*
X136423400Y-100171483D01*
X136473097Y-100150898D01*
X136674717Y-100016180D01*
X136846180Y-99844717D01*
X136980898Y-99643097D01*
X137073693Y-99419069D01*
X137121000Y-99181243D01*
X137121000Y-98938757D01*
X137199000Y-98938757D01*
X137199000Y-99181243D01*
X137246307Y-99419069D01*
X137339102Y-99643097D01*
X137473820Y-99844717D01*
X137645283Y-100016180D01*
X137846903Y-100150898D01*
X138070931Y-100243693D01*
X138308757Y-100291000D01*
X138551243Y-100291000D01*
X138789069Y-100243693D01*
X139013097Y-100150898D01*
X139214717Y-100016180D01*
X139386180Y-99844717D01*
X139520898Y-99643097D01*
X139568228Y-99528832D01*
X139625843Y-99691252D01*
X139774822Y-99941355D01*
X139969731Y-100157588D01*
X140203080Y-100331641D01*
X140465901Y-100456825D01*
X140613110Y-100501476D01*
X140843000Y-100380155D01*
X140843000Y-99187000D01*
X140823000Y-99187000D01*
X140823000Y-98933000D01*
X140843000Y-98933000D01*
X140843000Y-97739845D01*
X140613110Y-97618524D01*
X140465901Y-97663175D01*
X140203080Y-97788359D01*
X139969731Y-97962412D01*
X139774822Y-98178645D01*
X139625843Y-98428748D01*
X139568228Y-98591168D01*
X139520898Y-98476903D01*
X139386180Y-98275283D01*
X139214717Y-98103820D01*
X139013097Y-97969102D01*
X138789069Y-97876307D01*
X138551243Y-97829000D01*
X138308757Y-97829000D01*
X138070931Y-97876307D01*
X137846903Y-97969102D01*
X137645283Y-98103820D01*
X137473820Y-98275283D01*
X137339102Y-98476903D01*
X137246307Y-98700931D01*
X137199000Y-98938757D01*
X137121000Y-98938757D01*
X137073693Y-98700931D01*
X136980898Y-98476903D01*
X136846180Y-98275283D01*
X136674717Y-98103820D01*
X136473097Y-97969102D01*
X136249069Y-97876307D01*
X136011243Y-97829000D01*
X135768757Y-97829000D01*
X135530931Y-97876307D01*
X135306903Y-97969102D01*
X135105283Y-98103820D01*
X134933820Y-98275283D01*
X134799102Y-98476903D01*
X134706307Y-98700931D01*
X134659000Y-98938757D01*
X134581000Y-98938757D01*
X134533693Y-98700931D01*
X134440898Y-98476903D01*
X134306180Y-98275283D01*
X134134717Y-98103820D01*
X133933097Y-97969102D01*
X133709069Y-97876307D01*
X133539204Y-97842518D01*
X146422814Y-84958908D01*
X148355000Y-84958908D01*
X148355000Y-85221092D01*
X148406150Y-85478238D01*
X148506483Y-85720465D01*
X148652145Y-85938463D01*
X148837537Y-86123855D01*
X149055535Y-86269517D01*
X149297762Y-86369850D01*
X149554908Y-86421000D01*
X149817092Y-86421000D01*
X150074238Y-86369850D01*
X150316465Y-86269517D01*
X150534463Y-86123855D01*
X150719855Y-85938463D01*
X150865517Y-85720465D01*
X150936000Y-85550303D01*
X151006483Y-85720465D01*
X151152145Y-85938463D01*
X151337537Y-86123855D01*
X151555535Y-86269517D01*
X151797762Y-86369850D01*
X152054908Y-86421000D01*
X152317092Y-86421000D01*
X152574238Y-86369850D01*
X152816465Y-86269517D01*
X153034463Y-86123855D01*
X153219855Y-85938463D01*
X153353157Y-85738963D01*
X153353157Y-86040000D01*
X153360513Y-86114689D01*
X153382299Y-86186508D01*
X153417678Y-86252696D01*
X153465289Y-86310711D01*
X153523304Y-86358322D01*
X153589492Y-86393701D01*
X153661311Y-86415487D01*
X153736000Y-86422843D01*
X155636000Y-86422843D01*
X155710689Y-86415487D01*
X155782508Y-86393701D01*
X155848696Y-86358322D01*
X155906711Y-86310711D01*
X155954322Y-86252696D01*
X155989701Y-86186508D01*
X156011487Y-86114689D01*
X156018843Y-86040000D01*
X156018843Y-84140000D01*
X156011487Y-84065311D01*
X155989701Y-83993492D01*
X155954322Y-83927304D01*
X155906711Y-83869289D01*
X155848696Y-83821678D01*
X155782508Y-83786299D01*
X155710689Y-83764513D01*
X155636000Y-83757157D01*
X153736000Y-83757157D01*
X153661311Y-83764513D01*
X153589492Y-83786299D01*
X153523304Y-83821678D01*
X153465289Y-83869289D01*
X153417678Y-83927304D01*
X153382299Y-83993492D01*
X153360513Y-84065311D01*
X153353157Y-84140000D01*
X153353157Y-84441037D01*
X153219855Y-84241537D01*
X153034463Y-84056145D01*
X152816465Y-83910483D01*
X152574238Y-83810150D01*
X152317092Y-83759000D01*
X152054908Y-83759000D01*
X151797762Y-83810150D01*
X151555535Y-83910483D01*
X151337537Y-84056145D01*
X151152145Y-84241537D01*
X151006483Y-84459535D01*
X150936000Y-84629697D01*
X150865517Y-84459535D01*
X150719855Y-84241537D01*
X150534463Y-84056145D01*
X150316465Y-83910483D01*
X150074238Y-83810150D01*
X149817092Y-83759000D01*
X149554908Y-83759000D01*
X149297762Y-83810150D01*
X149055535Y-83910483D01*
X148837537Y-84056145D01*
X148652145Y-84241537D01*
X148506483Y-84459535D01*
X148406150Y-84701762D01*
X148355000Y-84958908D01*
X146422814Y-84958908D01*
X150953521Y-80428201D01*
X155004855Y-80428201D01*
X155029799Y-80430658D01*
X155054743Y-80428201D01*
X155054746Y-80428201D01*
X155129384Y-80420850D01*
X155225142Y-80391802D01*
X155313394Y-80344630D01*
X155390747Y-80281149D01*
X155406654Y-80261766D01*
X155775834Y-79892587D01*
X155850931Y-79923693D01*
X156088757Y-79971000D01*
X156331243Y-79971000D01*
X156569069Y-79923693D01*
X156793097Y-79830898D01*
X156994717Y-79696180D01*
X157166180Y-79524717D01*
X157300898Y-79323097D01*
X157393693Y-79099069D01*
X157441000Y-78861243D01*
X157441000Y-78618757D01*
X157393693Y-78380931D01*
X157300898Y-78156903D01*
X157166180Y-77955283D01*
X156994717Y-77783820D01*
X156793097Y-77649102D01*
X156569069Y-77556307D01*
X156331243Y-77509000D01*
X156088757Y-77509000D01*
X155850931Y-77556307D01*
X155626903Y-77649102D01*
X155425283Y-77783820D01*
X155253820Y-77955283D01*
X155119102Y-78156903D01*
X155026307Y-78380931D01*
X154979000Y-78618757D01*
X154979000Y-78861243D01*
X155026307Y-79099069D01*
X155057413Y-79174166D01*
X154819379Y-79412201D01*
X154701361Y-79412201D01*
X154760898Y-79323097D01*
X154853693Y-79099069D01*
X154901000Y-78861243D01*
X154901000Y-78618757D01*
X154853693Y-78380931D01*
X154760898Y-78156903D01*
X154626180Y-77955283D01*
X154454717Y-77783820D01*
X154253097Y-77649102D01*
X154029069Y-77556307D01*
X153791243Y-77509000D01*
X153548757Y-77509000D01*
X153310931Y-77556307D01*
X153086903Y-77649102D01*
X152885283Y-77783820D01*
X152713820Y-77955283D01*
X152579102Y-78156903D01*
X152486307Y-78380931D01*
X152439000Y-78618757D01*
X152439000Y-78861243D01*
X152486307Y-79099069D01*
X152579102Y-79323097D01*
X152638639Y-79412201D01*
X152161361Y-79412201D01*
X152220898Y-79323097D01*
X152313693Y-79099069D01*
X152361000Y-78861243D01*
X152361000Y-78618757D01*
X152313693Y-78380931D01*
X152220898Y-78156903D01*
X152086180Y-77955283D01*
X151914717Y-77783820D01*
X151713097Y-77649102D01*
X151489069Y-77556307D01*
X151251243Y-77509000D01*
X151008757Y-77509000D01*
X150770931Y-77556307D01*
X150546903Y-77649102D01*
X150345283Y-77783820D01*
X150173820Y-77955283D01*
X150039102Y-78156903D01*
X149946307Y-78380931D01*
X149899000Y-78618757D01*
X149899000Y-78861243D01*
X149946307Y-79099069D01*
X150039102Y-79323097D01*
X150173820Y-79524717D01*
X150296993Y-79647890D01*
X131484430Y-98460452D01*
X131465053Y-98476354D01*
X131449151Y-98495731D01*
X131449150Y-98495732D01*
X131401571Y-98553707D01*
X131369158Y-98614349D01*
X131354400Y-98641959D01*
X131342556Y-98681005D01*
X131325352Y-98737718D01*
X131315543Y-98837302D01*
X127406000Y-98837302D01*
X127406000Y-78618757D01*
X142279000Y-78618757D01*
X142279000Y-78861243D01*
X142326307Y-79099069D01*
X142419102Y-79323097D01*
X142553820Y-79524717D01*
X142725283Y-79696180D01*
X142926903Y-79830898D01*
X143150931Y-79923693D01*
X143388757Y-79971000D01*
X143631243Y-79971000D01*
X143869069Y-79923693D01*
X144093097Y-79830898D01*
X144294717Y-79696180D01*
X144466180Y-79524717D01*
X144600898Y-79323097D01*
X144693693Y-79099069D01*
X144741000Y-78861243D01*
X144741000Y-78618757D01*
X144819000Y-78618757D01*
X144819000Y-78861243D01*
X144866307Y-79099069D01*
X144959102Y-79323097D01*
X145093820Y-79524717D01*
X145265283Y-79696180D01*
X145466903Y-79830898D01*
X145690931Y-79923693D01*
X145928757Y-79971000D01*
X146171243Y-79971000D01*
X146409069Y-79923693D01*
X146633097Y-79830898D01*
X146834717Y-79696180D01*
X147006180Y-79524717D01*
X147140898Y-79323097D01*
X147233693Y-79099069D01*
X147281000Y-78861243D01*
X147281000Y-78618757D01*
X147359000Y-78618757D01*
X147359000Y-78861243D01*
X147406307Y-79099069D01*
X147499102Y-79323097D01*
X147633820Y-79524717D01*
X147805283Y-79696180D01*
X148006903Y-79830898D01*
X148230931Y-79923693D01*
X148468757Y-79971000D01*
X148711243Y-79971000D01*
X148949069Y-79923693D01*
X149173097Y-79830898D01*
X149374717Y-79696180D01*
X149546180Y-79524717D01*
X149680898Y-79323097D01*
X149773693Y-79099069D01*
X149821000Y-78861243D01*
X149821000Y-78618757D01*
X149773693Y-78380931D01*
X149680898Y-78156903D01*
X149546180Y-77955283D01*
X149374717Y-77783820D01*
X149173097Y-77649102D01*
X148949069Y-77556307D01*
X148711243Y-77509000D01*
X148468757Y-77509000D01*
X148230931Y-77556307D01*
X148006903Y-77649102D01*
X147805283Y-77783820D01*
X147633820Y-77955283D01*
X147499102Y-78156903D01*
X147406307Y-78380931D01*
X147359000Y-78618757D01*
X147281000Y-78618757D01*
X147233693Y-78380931D01*
X147140898Y-78156903D01*
X147006180Y-77955283D01*
X146834717Y-77783820D01*
X146633097Y-77649102D01*
X146409069Y-77556307D01*
X146171243Y-77509000D01*
X145928757Y-77509000D01*
X145690931Y-77556307D01*
X145466903Y-77649102D01*
X145265283Y-77783820D01*
X145093820Y-77955283D01*
X144959102Y-78156903D01*
X144866307Y-78380931D01*
X144819000Y-78618757D01*
X144741000Y-78618757D01*
X144693693Y-78380931D01*
X144600898Y-78156903D01*
X144466180Y-77955283D01*
X144294717Y-77783820D01*
X144093097Y-77649102D01*
X143869069Y-77556307D01*
X143631243Y-77509000D01*
X143388757Y-77509000D01*
X143150931Y-77556307D01*
X142926903Y-77649102D01*
X142725283Y-77783820D01*
X142553820Y-77955283D01*
X142419102Y-78156903D01*
X142326307Y-78380931D01*
X142279000Y-78618757D01*
X127406000Y-78618757D01*
X127406000Y-76606000D01*
X177394001Y-76606000D01*
X177394000Y-154534000D01*
%TA.AperFunction,Conductor*%
D23*
G36*
X177394000Y-154534000D02*
G01*
X127406000Y-154534000D01*
X127406000Y-143840000D01*
X134567157Y-143840000D01*
X134567157Y-145140000D01*
X134574513Y-145214689D01*
X134596299Y-145286508D01*
X134631678Y-145352696D01*
X134679289Y-145410711D01*
X134737304Y-145458322D01*
X134803492Y-145493701D01*
X134875311Y-145515487D01*
X134950000Y-145522843D01*
X136500000Y-145522843D01*
X136574689Y-145515487D01*
X136646508Y-145493701D01*
X136712696Y-145458322D01*
X136770711Y-145410711D01*
X136818322Y-145352696D01*
X136853701Y-145286508D01*
X136875487Y-145214689D01*
X136882843Y-145140000D01*
X142261928Y-145140000D01*
X142274188Y-145264482D01*
X142310498Y-145384180D01*
X142369463Y-145494494D01*
X142448815Y-145591185D01*
X142545506Y-145670537D01*
X142655820Y-145729502D01*
X142775518Y-145765812D01*
X142900000Y-145778072D01*
X143389250Y-145775000D01*
X143548000Y-145616250D01*
X143548000Y-144617000D01*
X143802000Y-144617000D01*
X143802000Y-145616250D01*
X143960750Y-145775000D01*
X144450000Y-145778072D01*
X144574482Y-145765812D01*
X144694180Y-145729502D01*
X144804494Y-145670537D01*
X144901185Y-145591185D01*
X144980537Y-145494494D01*
X145039502Y-145384180D01*
X145075812Y-145264482D01*
X145088072Y-145140000D01*
X145085000Y-144775750D01*
X144926250Y-144617000D01*
X143802000Y-144617000D01*
X143548000Y-144617000D01*
X142423750Y-144617000D01*
X142265000Y-144775750D01*
X142261928Y-145140000D01*
X136882843Y-145140000D01*
X136882843Y-143840000D01*
X142261928Y-143840000D01*
X142265000Y-144204250D01*
X142423750Y-144363000D01*
X143548000Y-144363000D01*
X143548000Y-143363750D01*
X143802000Y-143363750D01*
X143802000Y-144363000D01*
X144926250Y-144363000D01*
X145085000Y-144204250D01*
X145088072Y-143840000D01*
X159967157Y-143840000D01*
X159967157Y-145140000D01*
X159974513Y-145214689D01*
X159996299Y-145286508D01*
X160031678Y-145352696D01*
X160079289Y-145410711D01*
X160137304Y-145458322D01*
X160203492Y-145493701D01*
X160275311Y-145515487D01*
X160350000Y-145522843D01*
X161900000Y-145522843D01*
X161974689Y-145515487D01*
X162046508Y-145493701D01*
X162112696Y-145458322D01*
X162170711Y-145410711D01*
X162218322Y-145352696D01*
X162253701Y-145286508D01*
X162275487Y-145214689D01*
X162282843Y-145140000D01*
X167661928Y-145140000D01*
X167674188Y-145264482D01*
X167710498Y-145384180D01*
X167769463Y-145494494D01*
X167848815Y-145591185D01*
X167945506Y-145670537D01*
X168055820Y-145729502D01*
X168175518Y-145765812D01*
X168300000Y-145778072D01*
X168789250Y-145775000D01*
X168948000Y-145616250D01*
X168948000Y-144617000D01*
X169202000Y-144617000D01*
X169202000Y-145616250D01*
X169360750Y-145775000D01*
X169850000Y-145778072D01*
X169974482Y-145765812D01*
X170094180Y-145729502D01*
X170204494Y-145670537D01*
X170301185Y-145591185D01*
X170380537Y-145494494D01*
X170439502Y-145384180D01*
X170475812Y-145264482D01*
X170488072Y-145140000D01*
X170485000Y-144775750D01*
X170326250Y-144617000D01*
X169202000Y-144617000D01*
X168948000Y-144617000D01*
X167823750Y-144617000D01*
X167665000Y-144775750D01*
X167661928Y-145140000D01*
X162282843Y-145140000D01*
X162282843Y-143840000D01*
X167661928Y-143840000D01*
X167665000Y-144204250D01*
X167823750Y-144363000D01*
X168948000Y-144363000D01*
X168948000Y-143363750D01*
X169202000Y-143363750D01*
X169202000Y-144363000D01*
X170326250Y-144363000D01*
X170485000Y-144204250D01*
X170488072Y-143840000D01*
X170475812Y-143715518D01*
X170439502Y-143595820D01*
X170380537Y-143485506D01*
X170301185Y-143388815D01*
X170204494Y-143309463D01*
X170094180Y-143250498D01*
X169974482Y-143214188D01*
X169850000Y-143201928D01*
X169360750Y-143205000D01*
X169202000Y-143363750D01*
X168948000Y-143363750D01*
X168789250Y-143205000D01*
X168300000Y-143201928D01*
X168175518Y-143214188D01*
X168055820Y-143250498D01*
X167945506Y-143309463D01*
X167848815Y-143388815D01*
X167769463Y-143485506D01*
X167710498Y-143595820D01*
X167674188Y-143715518D01*
X167661928Y-143840000D01*
X162282843Y-143840000D01*
X162275487Y-143765311D01*
X162253701Y-143693492D01*
X162218322Y-143627304D01*
X162170711Y-143569289D01*
X162112696Y-143521678D01*
X162046508Y-143486299D01*
X161974689Y-143464513D01*
X161900000Y-143457157D01*
X160350000Y-143457157D01*
X160275311Y-143464513D01*
X160203492Y-143486299D01*
X160137304Y-143521678D01*
X160079289Y-143569289D01*
X160031678Y-143627304D01*
X159996299Y-143693492D01*
X159974513Y-143765311D01*
X159967157Y-143840000D01*
X145088072Y-143840000D01*
X145075812Y-143715518D01*
X145039502Y-143595820D01*
X144980537Y-143485506D01*
X144901185Y-143388815D01*
X144804494Y-143309463D01*
X144694180Y-143250498D01*
X144574482Y-143214188D01*
X144450000Y-143201928D01*
X143960750Y-143205000D01*
X143802000Y-143363750D01*
X143548000Y-143363750D01*
X143389250Y-143205000D01*
X142900000Y-143201928D01*
X142775518Y-143214188D01*
X142655820Y-143250498D01*
X142545506Y-143309463D01*
X142448815Y-143388815D01*
X142369463Y-143485506D01*
X142310498Y-143595820D01*
X142274188Y-143715518D01*
X142261928Y-143840000D01*
X136882843Y-143840000D01*
X136875487Y-143765311D01*
X136853701Y-143693492D01*
X136818322Y-143627304D01*
X136770711Y-143569289D01*
X136712696Y-143521678D01*
X136646508Y-143486299D01*
X136574689Y-143464513D01*
X136500000Y-143457157D01*
X134950000Y-143457157D01*
X134875311Y-143464513D01*
X134803492Y-143486299D01*
X134737304Y-143521678D01*
X134679289Y-143569289D01*
X134631678Y-143627304D01*
X134596299Y-143693492D01*
X134574513Y-143765311D01*
X134567157Y-143840000D01*
X127406000Y-143840000D01*
X127406000Y-98837302D01*
X131315543Y-98837302D01*
X131318001Y-98862256D01*
X131318000Y-136066056D01*
X131315543Y-136091000D01*
X131318000Y-136115944D01*
X131318000Y-136115946D01*
X131325351Y-136190584D01*
X131354399Y-136286342D01*
X131401571Y-136374595D01*
X131465052Y-136451948D01*
X131484435Y-136467855D01*
X134567157Y-139550577D01*
X134567157Y-140640000D01*
X134574513Y-140714689D01*
X134596299Y-140786508D01*
X134631678Y-140852696D01*
X134679289Y-140910711D01*
X134737304Y-140958322D01*
X134803492Y-140993701D01*
X134875311Y-141015487D01*
X134950000Y-141022843D01*
X136500000Y-141022843D01*
X136574689Y-141015487D01*
X136646508Y-140993701D01*
X136712696Y-140958322D01*
X136770711Y-140910711D01*
X136818322Y-140852696D01*
X136853701Y-140786508D01*
X136875487Y-140714689D01*
X136882843Y-140640000D01*
X136882843Y-139340000D01*
X142517157Y-139340000D01*
X142517157Y-140640000D01*
X142524513Y-140714689D01*
X142546299Y-140786508D01*
X142581678Y-140852696D01*
X142629289Y-140910711D01*
X142687304Y-140958322D01*
X142753492Y-140993701D01*
X142825311Y-141015487D01*
X142900000Y-141022843D01*
X144450000Y-141022843D01*
X144524689Y-141015487D01*
X144596508Y-140993701D01*
X144662696Y-140958322D01*
X144720711Y-140910711D01*
X144768322Y-140852696D01*
X144803701Y-140786508D01*
X144825487Y-140714689D01*
X144832843Y-140640000D01*
X144832843Y-139340000D01*
X144825487Y-139265311D01*
X144803701Y-139193492D01*
X144768322Y-139127304D01*
X144720711Y-139069289D01*
X144662696Y-139021678D01*
X144596508Y-138986299D01*
X144524689Y-138964513D01*
X144450000Y-138957157D01*
X142900000Y-138957157D01*
X142825311Y-138964513D01*
X142753492Y-138986299D01*
X142687304Y-139021678D01*
X142629289Y-139069289D01*
X142581678Y-139127304D01*
X142546299Y-139193492D01*
X142524513Y-139265311D01*
X142517157Y-139340000D01*
X136882843Y-139340000D01*
X136875487Y-139265311D01*
X136853701Y-139193492D01*
X136818322Y-139127304D01*
X136770711Y-139069289D01*
X136712696Y-139021678D01*
X136646508Y-138986299D01*
X136574689Y-138964513D01*
X136500000Y-138957157D01*
X135410577Y-138957157D01*
X132334000Y-135880580D01*
X132334000Y-127652577D01*
X138610000Y-127652577D01*
X138610000Y-128067423D01*
X138690932Y-128474298D01*
X138849687Y-128857565D01*
X139080163Y-129202497D01*
X139373503Y-129495837D01*
X139718435Y-129726313D01*
X140101702Y-129885068D01*
X140508577Y-129966000D01*
X140923423Y-129966000D01*
X141330298Y-129885068D01*
X141713565Y-129726313D01*
X142058497Y-129495837D01*
X142351837Y-129202497D01*
X142582313Y-128857565D01*
X142741068Y-128474298D01*
X142822000Y-128067423D01*
X142822000Y-127652577D01*
X162110000Y-127652577D01*
X162110000Y-128067423D01*
X162190932Y-128474298D01*
X162349687Y-128857565D01*
X162580163Y-129202497D01*
X162873503Y-129495837D01*
X163218435Y-129726313D01*
X163601702Y-129885068D01*
X164008577Y-129966000D01*
X164423423Y-129966000D01*
X164830298Y-129885068D01*
X165213565Y-129726313D01*
X165558497Y-129495837D01*
X165851837Y-129202497D01*
X166082313Y-128857565D01*
X166241068Y-128474298D01*
X166322000Y-128067423D01*
X166322000Y-127652577D01*
X166241068Y-127245702D01*
X166082313Y-126862435D01*
X165851837Y-126517503D01*
X165558497Y-126224163D01*
X165213565Y-125993687D01*
X164830298Y-125834932D01*
X164423423Y-125754000D01*
X164008577Y-125754000D01*
X163601702Y-125834932D01*
X163218435Y-125993687D01*
X162873503Y-126224163D01*
X162580163Y-126517503D01*
X162349687Y-126862435D01*
X162190932Y-127245702D01*
X162110000Y-127652577D01*
X142822000Y-127652577D01*
X142741068Y-127245702D01*
X142582313Y-126862435D01*
X142351837Y-126517503D01*
X142058497Y-126224163D01*
X141713565Y-125993687D01*
X141330298Y-125834932D01*
X140923423Y-125754000D01*
X140508577Y-125754000D01*
X140101702Y-125834932D01*
X139718435Y-125993687D01*
X139373503Y-126224163D01*
X139080163Y-126517503D01*
X138849687Y-126862435D01*
X138690932Y-127245702D01*
X138610000Y-127652577D01*
X132334000Y-127652577D01*
X132334000Y-118494750D01*
X142565000Y-118494750D01*
X142574765Y-118616348D01*
X142611623Y-118735878D01*
X142671092Y-118845921D01*
X142750887Y-118942247D01*
X142847941Y-119021156D01*
X142958524Y-119079614D01*
X143078387Y-119115375D01*
X143202923Y-119127065D01*
X143224250Y-119124000D01*
X143383000Y-118965250D01*
X143383000Y-118336000D01*
X142723750Y-118336000D01*
X142565000Y-118494750D01*
X132334000Y-118494750D01*
X132334000Y-99755190D01*
X132393820Y-99844717D01*
X132565283Y-100016180D01*
X132766903Y-100150898D01*
X132990931Y-100243693D01*
X133228757Y-100291000D01*
X133471243Y-100291000D01*
X133709069Y-100243693D01*
X133933097Y-100150898D01*
X134134717Y-100016180D01*
X134306180Y-99844717D01*
X134440898Y-99643097D01*
X134533693Y-99419069D01*
X134581000Y-99181243D01*
X134581000Y-98938757D01*
X134659000Y-98938757D01*
X134659000Y-99181243D01*
X134706307Y-99419069D01*
X134799102Y-99643097D01*
X134933820Y-99844717D01*
X135105283Y-100016180D01*
X135306903Y-100150898D01*
X135356600Y-100171483D01*
X135356601Y-113703803D01*
X135354021Y-113730000D01*
X135364319Y-113834564D01*
X135394819Y-113935110D01*
X135396927Y-113939053D01*
X135444350Y-114027775D01*
X135459307Y-114046000D01*
X135494307Y-114088648D01*
X135494310Y-114088651D01*
X135511006Y-114108995D01*
X135531350Y-114125691D01*
X137112157Y-115706498D01*
X137112157Y-116460000D01*
X137122395Y-116563953D01*
X137152717Y-116663910D01*
X137201957Y-116756032D01*
X137268223Y-116836777D01*
X137348968Y-116903043D01*
X137441090Y-116952283D01*
X137541047Y-116982605D01*
X137645000Y-116992843D01*
X137945000Y-116992843D01*
X138048953Y-116982605D01*
X138148910Y-116952283D01*
X138241032Y-116903043D01*
X138321777Y-116836777D01*
X138388043Y-116756032D01*
X138430000Y-116677536D01*
X138471957Y-116756032D01*
X138538223Y-116836777D01*
X138618968Y-116903043D01*
X138711090Y-116952283D01*
X138811047Y-116982605D01*
X138915000Y-116992843D01*
X139215000Y-116992843D01*
X139318953Y-116982605D01*
X139418910Y-116952283D01*
X139511032Y-116903043D01*
X139591777Y-116836777D01*
X139658043Y-116756032D01*
X139700000Y-116677536D01*
X139741957Y-116756032D01*
X139808223Y-116836777D01*
X139888968Y-116903043D01*
X139981090Y-116952283D01*
X140081047Y-116982605D01*
X140185000Y-116992843D01*
X140485000Y-116992843D01*
X140588953Y-116982605D01*
X140688910Y-116952283D01*
X140781032Y-116903043D01*
X140861777Y-116836777D01*
X140928043Y-116756032D01*
X140970000Y-116677536D01*
X141011957Y-116756032D01*
X141078223Y-116836777D01*
X141158968Y-116903043D01*
X141251090Y-116952283D01*
X141351047Y-116982605D01*
X141455000Y-116992843D01*
X141755000Y-116992843D01*
X141858953Y-116982605D01*
X141958910Y-116952283D01*
X142051032Y-116903043D01*
X142131777Y-116836777D01*
X142198043Y-116756032D01*
X142220562Y-116713903D01*
X142817157Y-117310498D01*
X142817157Y-117389000D01*
X142820155Y-117419436D01*
X142750887Y-117475753D01*
X142671092Y-117572079D01*
X142611623Y-117682122D01*
X142574765Y-117801652D01*
X142565000Y-117923250D01*
X142723750Y-118082000D01*
X143383000Y-118082000D01*
X143383000Y-118062000D01*
X143637000Y-118062000D01*
X143637000Y-118082000D01*
X143657000Y-118082000D01*
X143657000Y-118336000D01*
X143637000Y-118336000D01*
X143637000Y-118965250D01*
X143795750Y-119124000D01*
X143817077Y-119127065D01*
X143865600Y-119122510D01*
X143865600Y-119260102D01*
X142397476Y-120728226D01*
X142381250Y-120712000D01*
X141732000Y-120712000D01*
X141732000Y-120732000D01*
X141478000Y-120732000D01*
X141478000Y-120712000D01*
X141458000Y-120712000D01*
X141458000Y-120458000D01*
X141478000Y-120458000D01*
X141478000Y-119133750D01*
X141732000Y-119133750D01*
X141732000Y-120458000D01*
X142381250Y-120458000D01*
X142540000Y-120299250D01*
X142543072Y-119610000D01*
X142530812Y-119485518D01*
X142494502Y-119365820D01*
X142435537Y-119255506D01*
X142356185Y-119158815D01*
X142259494Y-119079463D01*
X142149180Y-119020498D01*
X142029482Y-118984188D01*
X141905000Y-118971928D01*
X141890750Y-118975000D01*
X141732000Y-119133750D01*
X141478000Y-119133750D01*
X141319250Y-118975000D01*
X141305000Y-118971928D01*
X141180518Y-118984188D01*
X141060820Y-119020498D01*
X140950506Y-119079463D01*
X140853815Y-119158815D01*
X140774463Y-119255506D01*
X140750375Y-119300571D01*
X140688910Y-119267717D01*
X140588953Y-119237395D01*
X140485000Y-119227157D01*
X140185000Y-119227157D01*
X140081047Y-119237395D01*
X139981090Y-119267717D01*
X139888968Y-119316957D01*
X139808223Y-119383223D01*
X139741957Y-119463968D01*
X139700000Y-119542464D01*
X139658043Y-119463968D01*
X139591777Y-119383223D01*
X139511032Y-119316957D01*
X139418910Y-119267717D01*
X139318953Y-119237395D01*
X139215000Y-119227157D01*
X138915000Y-119227157D01*
X138811047Y-119237395D01*
X138711090Y-119267717D01*
X138618968Y-119316957D01*
X138538223Y-119383223D01*
X138471957Y-119463968D01*
X138430000Y-119542464D01*
X138388043Y-119463968D01*
X138321777Y-119383223D01*
X138241032Y-119316957D01*
X138148910Y-119267717D01*
X138048953Y-119237395D01*
X137945000Y-119227157D01*
X137645000Y-119227157D01*
X137541047Y-119237395D01*
X137441090Y-119267717D01*
X137348968Y-119316957D01*
X137268223Y-119383223D01*
X137201957Y-119463968D01*
X137152717Y-119556090D01*
X137122395Y-119656047D01*
X137112157Y-119760000D01*
X137112157Y-121410000D01*
X137122395Y-121513953D01*
X137152717Y-121613910D01*
X137201957Y-121706032D01*
X137268223Y-121786777D01*
X137348968Y-121853043D01*
X137401266Y-121880997D01*
X137408827Y-121890210D01*
X137434053Y-121920948D01*
X137453430Y-121936850D01*
X137748355Y-122231775D01*
X137764262Y-122251158D01*
X137813498Y-122291564D01*
X137841614Y-122314639D01*
X137929865Y-122361810D01*
X137929867Y-122361811D01*
X138025625Y-122390859D01*
X138100263Y-122398210D01*
X138100265Y-122398210D01*
X138125209Y-122400667D01*
X138150153Y-122398210D01*
X141928968Y-122398210D01*
X141953912Y-122400667D01*
X141978856Y-122398210D01*
X141978859Y-122398210D01*
X142053497Y-122390859D01*
X142149255Y-122361811D01*
X142237507Y-122314639D01*
X142314860Y-122251158D01*
X142330767Y-122231775D01*
X144715165Y-119847377D01*
X144734548Y-119831470D01*
X144798029Y-119754117D01*
X144845201Y-119665865D01*
X144874249Y-119570107D01*
X144881600Y-119495469D01*
X144881600Y-119495466D01*
X144884057Y-119470522D01*
X144881600Y-119445578D01*
X144881600Y-118930020D01*
X150372150Y-124420571D01*
X150388052Y-124439948D01*
X150407429Y-124455850D01*
X150465404Y-124503429D01*
X150553655Y-124550600D01*
X150553657Y-124550601D01*
X150649415Y-124579649D01*
X150724053Y-124587000D01*
X150724055Y-124587000D01*
X150748999Y-124589457D01*
X150773943Y-124587000D01*
X156336694Y-124587000D01*
X156361638Y-124589457D01*
X156386582Y-124587000D01*
X156386585Y-124587000D01*
X156461223Y-124579649D01*
X156556981Y-124550601D01*
X156645233Y-124503429D01*
X156722586Y-124439948D01*
X156738493Y-124420565D01*
X162392157Y-118766902D01*
X162392157Y-119060000D01*
X162399513Y-119134689D01*
X162421299Y-119206508D01*
X162456678Y-119272696D01*
X162504289Y-119330711D01*
X162562304Y-119378322D01*
X162628492Y-119413701D01*
X162700311Y-119435487D01*
X162775000Y-119442843D01*
X163875000Y-119442843D01*
X163949689Y-119435487D01*
X164021508Y-119413701D01*
X164087696Y-119378322D01*
X164145711Y-119330711D01*
X164193322Y-119272696D01*
X164228701Y-119206508D01*
X164250487Y-119134689D01*
X164257843Y-119060000D01*
X164257843Y-118260000D01*
X164250487Y-118185311D01*
X164228701Y-118113492D01*
X164226834Y-118110000D01*
X164228701Y-118106508D01*
X164250487Y-118034689D01*
X164257843Y-117960000D01*
X164257843Y-117710000D01*
X165942157Y-117710000D01*
X165942157Y-118510000D01*
X165949513Y-118584689D01*
X165971299Y-118656508D01*
X166006678Y-118722696D01*
X166054289Y-118780711D01*
X166112304Y-118828322D01*
X166178492Y-118863701D01*
X166250311Y-118885487D01*
X166325000Y-118892843D01*
X167425000Y-118892843D01*
X167499689Y-118885487D01*
X167571508Y-118863701D01*
X167637696Y-118828322D01*
X167695711Y-118780711D01*
X167743322Y-118722696D01*
X167778701Y-118656508D01*
X167800487Y-118584689D01*
X167807843Y-118510000D01*
X167807843Y-117931498D01*
X168252645Y-117486696D01*
X168272995Y-117469995D01*
X168339651Y-117388775D01*
X168389181Y-117296111D01*
X168419681Y-117195565D01*
X168427400Y-117117195D01*
X168427400Y-117117194D01*
X168429980Y-117091000D01*
X168427400Y-117064806D01*
X168427400Y-113828231D01*
X168485884Y-113769747D01*
X168569276Y-113644942D01*
X168626717Y-113506267D01*
X168656000Y-113359050D01*
X168656000Y-113208950D01*
X168626717Y-113061733D01*
X168569276Y-112923058D01*
X168485884Y-112798253D01*
X168379747Y-112692116D01*
X168254942Y-112608724D01*
X168116267Y-112551283D01*
X167969050Y-112522000D01*
X167818950Y-112522000D01*
X167671733Y-112551283D01*
X167533058Y-112608724D01*
X167408253Y-112692116D01*
X167302116Y-112798253D01*
X167218724Y-112923058D01*
X167161283Y-113061733D01*
X167132000Y-113208950D01*
X167132000Y-113359050D01*
X167161283Y-113506267D01*
X167218724Y-113644942D01*
X167302116Y-113769747D01*
X167360600Y-113828231D01*
X167360601Y-116870058D01*
X166903502Y-117327157D01*
X166325000Y-117327157D01*
X166250311Y-117334513D01*
X166178492Y-117356299D01*
X166112304Y-117391678D01*
X166054289Y-117439289D01*
X166006678Y-117497304D01*
X165971299Y-117563492D01*
X165949513Y-117635311D01*
X165942157Y-117710000D01*
X164257843Y-117710000D01*
X164257843Y-117160000D01*
X164250487Y-117085311D01*
X164228701Y-117013492D01*
X164193322Y-116947304D01*
X164145711Y-116889289D01*
X164087696Y-116841678D01*
X164021508Y-116806299D01*
X163949689Y-116784513D01*
X163875000Y-116777157D01*
X163833000Y-116777157D01*
X163833000Y-115397420D01*
X164072577Y-115157843D01*
X164412000Y-115157843D01*
X164525707Y-115146644D01*
X164635044Y-115113477D01*
X164735810Y-115059616D01*
X164824132Y-114987132D01*
X164852347Y-114952752D01*
X164872498Y-115019180D01*
X164931463Y-115129494D01*
X165010815Y-115226185D01*
X165107506Y-115305537D01*
X165217820Y-115364502D01*
X165337518Y-115400812D01*
X165462000Y-115413072D01*
X165576250Y-115410000D01*
X165735000Y-115251250D01*
X165735000Y-114427000D01*
X165989000Y-114427000D01*
X165989000Y-115251250D01*
X166147750Y-115410000D01*
X166262000Y-115413072D01*
X166386482Y-115400812D01*
X166506180Y-115364502D01*
X166616494Y-115305537D01*
X166713185Y-115226185D01*
X166792537Y-115129494D01*
X166851502Y-115019180D01*
X166887812Y-114899482D01*
X166900072Y-114775000D01*
X166897000Y-114585750D01*
X166738250Y-114427000D01*
X165989000Y-114427000D01*
X165735000Y-114427000D01*
X165715000Y-114427000D01*
X165715000Y-114173000D01*
X165735000Y-114173000D01*
X165735000Y-113348750D01*
X165989000Y-113348750D01*
X165989000Y-114173000D01*
X166738250Y-114173000D01*
X166897000Y-114014250D01*
X166900072Y-113825000D01*
X166887812Y-113700518D01*
X166851502Y-113580820D01*
X166792537Y-113470506D01*
X166713185Y-113373815D01*
X166616494Y-113294463D01*
X166506180Y-113235498D01*
X166386482Y-113199188D01*
X166262000Y-113186928D01*
X166147750Y-113190000D01*
X165989000Y-113348750D01*
X165735000Y-113348750D01*
X165576250Y-113190000D01*
X165462000Y-113186928D01*
X165337518Y-113199188D01*
X165217820Y-113235498D01*
X165107506Y-113294463D01*
X165010815Y-113373815D01*
X164931463Y-113470506D01*
X164872498Y-113580820D01*
X164852347Y-113647248D01*
X164824132Y-113612868D01*
X164735810Y-113540384D01*
X164635044Y-113486523D01*
X164525707Y-113453356D01*
X164412000Y-113442157D01*
X164012000Y-113442157D01*
X163898293Y-113453356D01*
X163788956Y-113486523D01*
X163688190Y-113540384D01*
X163599868Y-113612868D01*
X163527384Y-113701190D01*
X163473523Y-113801956D01*
X163440356Y-113911293D01*
X163429157Y-114025000D01*
X163429157Y-114364422D01*
X162983430Y-114810150D01*
X162964053Y-114826052D01*
X162948151Y-114845429D01*
X162948150Y-114845430D01*
X162900571Y-114903405D01*
X162871511Y-114957773D01*
X162853400Y-114991657D01*
X162825329Y-115084196D01*
X162824352Y-115087416D01*
X162814543Y-115187000D01*
X162817001Y-115211954D01*
X162817000Y-116777157D01*
X162775000Y-116777157D01*
X162700311Y-116784513D01*
X162628492Y-116806299D01*
X162562304Y-116841678D01*
X162504289Y-116889289D01*
X162456678Y-116947304D01*
X162421299Y-117013492D01*
X162399513Y-117085311D01*
X162392157Y-117160000D01*
X162392157Y-117330060D01*
X156151218Y-123571000D01*
X150959421Y-123571000D01*
X145669000Y-118280580D01*
X145669000Y-113182420D01*
X147165123Y-113182420D01*
X147167580Y-113207364D01*
X147167582Y-117931219D01*
X147165124Y-117956173D01*
X147171352Y-118019400D01*
X147174933Y-118055758D01*
X147192646Y-118114150D01*
X147203981Y-118151516D01*
X147251152Y-118239768D01*
X147282793Y-118278322D01*
X147314634Y-118317121D01*
X147334011Y-118333023D01*
X150376553Y-121375565D01*
X150392460Y-121394948D01*
X150469813Y-121458429D01*
X150558065Y-121505601D01*
X150653823Y-121534649D01*
X150728461Y-121542000D01*
X150728464Y-121542000D01*
X150753408Y-121544457D01*
X150778352Y-121542000D01*
X151846056Y-121542000D01*
X151871000Y-121544457D01*
X151895944Y-121542000D01*
X151895947Y-121542000D01*
X151970585Y-121534649D01*
X152066343Y-121505601D01*
X152154595Y-121458429D01*
X152231948Y-121394948D01*
X152247855Y-121375565D01*
X152460577Y-121162843D01*
X152675000Y-121162843D01*
X152749689Y-121155487D01*
X152821508Y-121133701D01*
X152887696Y-121098322D01*
X152945711Y-121050711D01*
X152993322Y-120992696D01*
X153028701Y-120926508D01*
X153050487Y-120854689D01*
X153050966Y-120849822D01*
X153051850Y-120851475D01*
X153054488Y-120854689D01*
X153101807Y-120912348D01*
X153101810Y-120912351D01*
X153118506Y-120932695D01*
X153138850Y-120949391D01*
X153390600Y-121201141D01*
X153390600Y-121283850D01*
X153419883Y-121431067D01*
X153477324Y-121569742D01*
X153560716Y-121694547D01*
X153666853Y-121800684D01*
X153791658Y-121884076D01*
X153930333Y-121941517D01*
X154077550Y-121970800D01*
X154227650Y-121970800D01*
X154374867Y-121941517D01*
X154513542Y-121884076D01*
X154638347Y-121800684D01*
X154744484Y-121694547D01*
X154827876Y-121569742D01*
X154885317Y-121431067D01*
X154914600Y-121283850D01*
X154914600Y-121133750D01*
X154885317Y-120986533D01*
X154827876Y-120847858D01*
X154744484Y-120723053D01*
X154638347Y-120616916D01*
X154513542Y-120533524D01*
X154433186Y-120500240D01*
X154445487Y-120459689D01*
X154452843Y-120385000D01*
X154452843Y-120092086D01*
X154518452Y-120038902D01*
X154598387Y-119942691D01*
X154658016Y-119832735D01*
X154695048Y-119713259D01*
X154705000Y-119595750D01*
X154546250Y-119437000D01*
X153624500Y-119437000D01*
X153624500Y-119452157D01*
X153370500Y-119452157D01*
X153370500Y-119437000D01*
X153350500Y-119437000D01*
X153350500Y-119183000D01*
X153370500Y-119183000D01*
X153370500Y-119167843D01*
X153624500Y-119167843D01*
X153624500Y-119183000D01*
X154546250Y-119183000D01*
X154705000Y-119024250D01*
X154695048Y-118906741D01*
X154658016Y-118787265D01*
X154598387Y-118677309D01*
X154518452Y-118581098D01*
X154452843Y-118527914D01*
X154452843Y-118492086D01*
X154518452Y-118438902D01*
X154598387Y-118342691D01*
X154658016Y-118232735D01*
X154695048Y-118113259D01*
X154705000Y-117995750D01*
X154546250Y-117837000D01*
X153624500Y-117837000D01*
X153624500Y-117852157D01*
X153370500Y-117852157D01*
X153370500Y-117837000D01*
X152448750Y-117837000D01*
X152290000Y-117995750D01*
X152299952Y-118113259D01*
X152336984Y-118232735D01*
X152396613Y-118342691D01*
X152476548Y-118438902D01*
X152542157Y-118492086D01*
X152542157Y-118527914D01*
X152476548Y-118581098D01*
X152396613Y-118677309D01*
X152336984Y-118787265D01*
X152299952Y-118906741D01*
X152290000Y-119024250D01*
X152448748Y-119182998D01*
X152290000Y-119182998D01*
X152290000Y-119252157D01*
X152257843Y-119252157D01*
X152257843Y-119035000D01*
X152250487Y-118960311D01*
X152235225Y-118910000D01*
X152250487Y-118859689D01*
X152257843Y-118785000D01*
X152257843Y-118235000D01*
X152250487Y-118160311D01*
X152235225Y-118110000D01*
X152250487Y-118059689D01*
X152257843Y-117985000D01*
X152257843Y-117435000D01*
X152250487Y-117360311D01*
X152235225Y-117310000D01*
X152250487Y-117259689D01*
X152257843Y-117185000D01*
X152257843Y-116967843D01*
X152290000Y-116967843D01*
X152290000Y-117037002D01*
X152430101Y-117037002D01*
X152396613Y-117077309D01*
X152382599Y-117103151D01*
X152290000Y-117195750D01*
X152299676Y-117310000D01*
X152290000Y-117424250D01*
X152382599Y-117516849D01*
X152396613Y-117542691D01*
X152476548Y-117638902D01*
X152573717Y-117717669D01*
X152684385Y-117775966D01*
X152804300Y-117811552D01*
X152928853Y-117823060D01*
X153211750Y-117820000D01*
X153370500Y-117661250D01*
X153370500Y-116958750D01*
X153624500Y-116958750D01*
X153624500Y-117661250D01*
X153783250Y-117820000D01*
X154066147Y-117823060D01*
X154190700Y-117811552D01*
X154310615Y-117775966D01*
X154421283Y-117717669D01*
X154518452Y-117638902D01*
X154598387Y-117542691D01*
X154612401Y-117516849D01*
X154705000Y-117424250D01*
X154695324Y-117310000D01*
X154705000Y-117195750D01*
X154612401Y-117103151D01*
X154598387Y-117077309D01*
X154518452Y-116981098D01*
X154421283Y-116902331D01*
X154310615Y-116844034D01*
X154190700Y-116808448D01*
X154066147Y-116796940D01*
X153783250Y-116800000D01*
X153624500Y-116958750D01*
X153370500Y-116958750D01*
X153350500Y-116938750D01*
X153350500Y-116783000D01*
X153370500Y-116783000D01*
X153370500Y-116767843D01*
X153624500Y-116767843D01*
X153624500Y-116783000D01*
X154546250Y-116783000D01*
X154685850Y-116643400D01*
X155343154Y-116643400D01*
X155360956Y-116702083D01*
X155409272Y-116792476D01*
X155450601Y-116842835D01*
X155450600Y-117599165D01*
X155409272Y-117649524D01*
X155360956Y-117739917D01*
X155331203Y-117837998D01*
X155321157Y-117940000D01*
X155321157Y-118280000D01*
X155331203Y-118382002D01*
X155360956Y-118480083D01*
X155409272Y-118570476D01*
X155450600Y-118620835D01*
X155450601Y-119377165D01*
X155409272Y-119427524D01*
X155360956Y-119517917D01*
X155331203Y-119615998D01*
X155321157Y-119718000D01*
X155321157Y-119806368D01*
X155316349Y-119812227D01*
X155266819Y-119904890D01*
X155236319Y-120005436D01*
X155226021Y-120110000D01*
X155236319Y-120214564D01*
X155266819Y-120315110D01*
X155316349Y-120407773D01*
X155383005Y-120488995D01*
X155464227Y-120555651D01*
X155556890Y-120605181D01*
X155657436Y-120635681D01*
X155762000Y-120645979D01*
X155866564Y-120635681D01*
X155967110Y-120605181D01*
X156012643Y-120580843D01*
X156124000Y-120580843D01*
X156154436Y-120577845D01*
X156210753Y-120647113D01*
X156307079Y-120726908D01*
X156417122Y-120786377D01*
X156536652Y-120823235D01*
X156658250Y-120833000D01*
X156817000Y-120674250D01*
X156817000Y-120015000D01*
X157071000Y-120015000D01*
X157071000Y-120674250D01*
X157229750Y-120833000D01*
X157351348Y-120823235D01*
X157470878Y-120786377D01*
X157580921Y-120726908D01*
X157677247Y-120647113D01*
X157756156Y-120550059D01*
X157814614Y-120439476D01*
X157850375Y-120319613D01*
X157862065Y-120195077D01*
X157859000Y-120173750D01*
X157700250Y-120015000D01*
X157071000Y-120015000D01*
X156817000Y-120015000D01*
X156797000Y-120015000D01*
X156797000Y-119761000D01*
X156817000Y-119761000D01*
X156817000Y-119101750D01*
X156714250Y-118999000D01*
X156817000Y-118896250D01*
X156817000Y-118237000D01*
X157071000Y-118237000D01*
X157071000Y-118896250D01*
X157173750Y-118999000D01*
X157071000Y-119101750D01*
X157071000Y-119761000D01*
X157700250Y-119761000D01*
X157859000Y-119602250D01*
X157862065Y-119580923D01*
X157850375Y-119456387D01*
X157814614Y-119336524D01*
X157756156Y-119225941D01*
X157677247Y-119128887D01*
X157580921Y-119049092D01*
X157488229Y-118999000D01*
X157580921Y-118948908D01*
X157677247Y-118869113D01*
X157756156Y-118772059D01*
X157814614Y-118661476D01*
X157850375Y-118541613D01*
X157862065Y-118417077D01*
X157859000Y-118395750D01*
X157700250Y-118237000D01*
X157071000Y-118237000D01*
X156817000Y-118237000D01*
X156797000Y-118237000D01*
X156797000Y-117983000D01*
X156817000Y-117983000D01*
X156817000Y-117323750D01*
X156714250Y-117221000D01*
X156817000Y-117118250D01*
X156817000Y-116459000D01*
X157071000Y-116459000D01*
X157071000Y-117118250D01*
X157173750Y-117221000D01*
X157071000Y-117323750D01*
X157071000Y-117983000D01*
X157700250Y-117983000D01*
X157859000Y-117824250D01*
X157862065Y-117802923D01*
X157850375Y-117678387D01*
X157814614Y-117558524D01*
X157756156Y-117447941D01*
X157677247Y-117350887D01*
X157580921Y-117271092D01*
X157488229Y-117221000D01*
X157580921Y-117170908D01*
X157677247Y-117091113D01*
X157756156Y-116994059D01*
X157814614Y-116883476D01*
X157850375Y-116763613D01*
X157862065Y-116639077D01*
X157859000Y-116617750D01*
X157700250Y-116459000D01*
X157071000Y-116459000D01*
X156817000Y-116459000D01*
X156797000Y-116459000D01*
X156797000Y-116205000D01*
X156817000Y-116205000D01*
X156817000Y-116185000D01*
X157071000Y-116185000D01*
X157071000Y-116205000D01*
X157700250Y-116205000D01*
X157859000Y-116046250D01*
X157862065Y-116024923D01*
X157850375Y-115900387D01*
X157814614Y-115780524D01*
X157756156Y-115669941D01*
X157677247Y-115572887D01*
X157580921Y-115493092D01*
X157470878Y-115433623D01*
X157360694Y-115399647D01*
X161990942Y-110769400D01*
X164555769Y-110769400D01*
X164614253Y-110827884D01*
X164739058Y-110911276D01*
X164877733Y-110968717D01*
X165024950Y-110998000D01*
X165175050Y-110998000D01*
X165322267Y-110968717D01*
X165460942Y-110911276D01*
X165585747Y-110827884D01*
X165691884Y-110721747D01*
X165775276Y-110596942D01*
X165832717Y-110458267D01*
X165862000Y-110311050D01*
X165862000Y-110160950D01*
X165832717Y-110013733D01*
X165775276Y-109875058D01*
X165691884Y-109750253D01*
X165585747Y-109644116D01*
X165460942Y-109560724D01*
X165322267Y-109503283D01*
X165175050Y-109474000D01*
X165024950Y-109474000D01*
X164877733Y-109503283D01*
X164739058Y-109560724D01*
X164614253Y-109644116D01*
X164555769Y-109702600D01*
X161796186Y-109702600D01*
X161769999Y-109700021D01*
X161743812Y-109702600D01*
X161743805Y-109702600D01*
X161665435Y-109710319D01*
X161564889Y-109740819D01*
X161472225Y-109790349D01*
X161391005Y-109857005D01*
X161374309Y-109877349D01*
X155675059Y-115576600D01*
X154855029Y-115576600D01*
X154893866Y-115544728D01*
X154909773Y-115525345D01*
X170295536Y-100139582D01*
X170329289Y-100180711D01*
X170387304Y-100228322D01*
X170453492Y-100263701D01*
X170525311Y-100285487D01*
X170600000Y-100292843D01*
X172300000Y-100292843D01*
X172374689Y-100285487D01*
X172446508Y-100263701D01*
X172512696Y-100228322D01*
X172570711Y-100180711D01*
X172618322Y-100122696D01*
X172653701Y-100056508D01*
X172675487Y-99984689D01*
X172682843Y-99910000D01*
X172682843Y-98210000D01*
X172675487Y-98135311D01*
X172653701Y-98063492D01*
X172618322Y-97997304D01*
X172570711Y-97939289D01*
X172512696Y-97891678D01*
X172446508Y-97856299D01*
X172374689Y-97834513D01*
X172300000Y-97827157D01*
X170600000Y-97827157D01*
X170598201Y-97827334D01*
X170598201Y-82485145D01*
X170600658Y-82460201D01*
X170598201Y-82435254D01*
X170590850Y-82360616D01*
X170561802Y-82264858D01*
X170514630Y-82176606D01*
X170451149Y-82099253D01*
X170431766Y-82083346D01*
X167522587Y-79174167D01*
X167553693Y-79099069D01*
X167601000Y-78861243D01*
X167601000Y-78618757D01*
X167553693Y-78380931D01*
X167460898Y-78156903D01*
X167401361Y-78067799D01*
X167878639Y-78067799D01*
X167819102Y-78156903D01*
X167726307Y-78380931D01*
X167679000Y-78618757D01*
X167679000Y-78861243D01*
X167726307Y-79099069D01*
X167819102Y-79323097D01*
X167953820Y-79524717D01*
X168125283Y-79696180D01*
X168326903Y-79830898D01*
X168550931Y-79923693D01*
X168788757Y-79971000D01*
X169031243Y-79971000D01*
X169269069Y-79923693D01*
X169493097Y-79830898D01*
X169694717Y-79696180D01*
X169866180Y-79524717D01*
X170000898Y-79323097D01*
X170093693Y-79099069D01*
X170141000Y-78861243D01*
X170141000Y-78618757D01*
X170093693Y-78380931D01*
X170000898Y-78156903D01*
X169941361Y-78067799D01*
X170217157Y-78067799D01*
X170217157Y-79590000D01*
X170224513Y-79664689D01*
X170246299Y-79736508D01*
X170281678Y-79802696D01*
X170329289Y-79860711D01*
X170387304Y-79908322D01*
X170453492Y-79943701D01*
X170525311Y-79965487D01*
X170600000Y-79972843D01*
X172300000Y-79972843D01*
X172374689Y-79965487D01*
X172446508Y-79943701D01*
X172512696Y-79908322D01*
X172570711Y-79860711D01*
X172618322Y-79802696D01*
X172653701Y-79736508D01*
X172675487Y-79664689D01*
X172682843Y-79590000D01*
X172682843Y-78067799D01*
X174123379Y-78067799D01*
X174548800Y-78493220D01*
X174548801Y-125847779D01*
X161439423Y-138957157D01*
X160350000Y-138957157D01*
X160275311Y-138964513D01*
X160203492Y-138986299D01*
X160137304Y-139021678D01*
X160079289Y-139069289D01*
X160031678Y-139127304D01*
X159996299Y-139193492D01*
X159974513Y-139265311D01*
X159967157Y-139340000D01*
X159967157Y-140640000D01*
X159974513Y-140714689D01*
X159996299Y-140786508D01*
X160031678Y-140852696D01*
X160079289Y-140910711D01*
X160137304Y-140958322D01*
X160203492Y-140993701D01*
X160275311Y-141015487D01*
X160350000Y-141022843D01*
X161900000Y-141022843D01*
X161974689Y-141015487D01*
X162046508Y-140993701D01*
X162112696Y-140958322D01*
X162170711Y-140910711D01*
X162218322Y-140852696D01*
X162253701Y-140786508D01*
X162275487Y-140714689D01*
X162282843Y-140640000D01*
X162282843Y-139550577D01*
X162493420Y-139340000D01*
X167917157Y-139340000D01*
X167917157Y-140640000D01*
X167924513Y-140714689D01*
X167946299Y-140786508D01*
X167981678Y-140852696D01*
X168029289Y-140910711D01*
X168087304Y-140958322D01*
X168153492Y-140993701D01*
X168225311Y-141015487D01*
X168300000Y-141022843D01*
X169850000Y-141022843D01*
X169924689Y-141015487D01*
X169996508Y-140993701D01*
X170062696Y-140958322D01*
X170120711Y-140910711D01*
X170168322Y-140852696D01*
X170203701Y-140786508D01*
X170225487Y-140714689D01*
X170232843Y-140640000D01*
X170232843Y-139340000D01*
X170225487Y-139265311D01*
X170203701Y-139193492D01*
X170168322Y-139127304D01*
X170120711Y-139069289D01*
X170062696Y-139021678D01*
X169996508Y-138986299D01*
X169924689Y-138964513D01*
X169850000Y-138957157D01*
X168300000Y-138957157D01*
X168225311Y-138964513D01*
X168153492Y-138986299D01*
X168087304Y-139021678D01*
X168029289Y-139069289D01*
X167981678Y-139127304D01*
X167946299Y-139193492D01*
X167924513Y-139265311D01*
X167917157Y-139340000D01*
X162493420Y-139340000D01*
X175398365Y-126435055D01*
X175417748Y-126419148D01*
X175481229Y-126341795D01*
X175528401Y-126253543D01*
X175557449Y-126157785D01*
X175564800Y-126083147D01*
X175564800Y-126083144D01*
X175567257Y-126058200D01*
X175564800Y-126033256D01*
X175564800Y-78307744D01*
X175567257Y-78282800D01*
X175564800Y-78257853D01*
X175557449Y-78183215D01*
X175528401Y-78087457D01*
X175481229Y-77999205D01*
X175417748Y-77921852D01*
X175398365Y-77905945D01*
X174710654Y-77218234D01*
X174694747Y-77198851D01*
X174617394Y-77135370D01*
X174529142Y-77088198D01*
X174433384Y-77059150D01*
X174358746Y-77051799D01*
X174358743Y-77051799D01*
X174333799Y-77049342D01*
X174308855Y-77051799D01*
X159955144Y-77051799D01*
X159930200Y-77049342D01*
X159905256Y-77051799D01*
X159905254Y-77051799D01*
X159830616Y-77059150D01*
X159734858Y-77088198D01*
X159734856Y-77088199D01*
X159646605Y-77135370D01*
X159592011Y-77180175D01*
X159569253Y-77198851D01*
X159553351Y-77218228D01*
X159184166Y-77587413D01*
X159109069Y-77556307D01*
X158871243Y-77509000D01*
X158628757Y-77509000D01*
X158390931Y-77556307D01*
X158166903Y-77649102D01*
X157965283Y-77783820D01*
X157793820Y-77955283D01*
X157659102Y-78156903D01*
X157566307Y-78380931D01*
X157519000Y-78618757D01*
X157519000Y-78861243D01*
X157566307Y-79099069D01*
X157659102Y-79323097D01*
X157793820Y-79524717D01*
X157965283Y-79696180D01*
X158166903Y-79830898D01*
X158390931Y-79923693D01*
X158628757Y-79971000D01*
X158871243Y-79971000D01*
X159109069Y-79923693D01*
X159333097Y-79830898D01*
X159534717Y-79696180D01*
X159706180Y-79524717D01*
X159840898Y-79323097D01*
X159933693Y-79099069D01*
X159981000Y-78861243D01*
X159981000Y-78618757D01*
X159933693Y-78380931D01*
X159902587Y-78305834D01*
X160140622Y-78067799D01*
X160258639Y-78067799D01*
X160199102Y-78156903D01*
X160106307Y-78380931D01*
X160059000Y-78618757D01*
X160059000Y-78861243D01*
X160106307Y-79099069D01*
X160199102Y-79323097D01*
X160333820Y-79524717D01*
X160505283Y-79696180D01*
X160706903Y-79830898D01*
X160930931Y-79923693D01*
X161168757Y-79971000D01*
X161411243Y-79971000D01*
X161649069Y-79923693D01*
X161724167Y-79892587D01*
X164502201Y-82670621D01*
X164502202Y-98028640D01*
X164413097Y-97969102D01*
X164189069Y-97876307D01*
X163951243Y-97829000D01*
X163708757Y-97829000D01*
X163470931Y-97876307D01*
X163246903Y-97969102D01*
X163045283Y-98103820D01*
X162873820Y-98275283D01*
X162739102Y-98476903D01*
X162646307Y-98700931D01*
X162599000Y-98938757D01*
X162599000Y-99181243D01*
X162646307Y-99419069D01*
X162677413Y-99494167D01*
X161798000Y-100373580D01*
X161798000Y-100182004D01*
X161873097Y-100150898D01*
X162074717Y-100016180D01*
X162246180Y-99844717D01*
X162380898Y-99643097D01*
X162473693Y-99419069D01*
X162521000Y-99181243D01*
X162521000Y-98938757D01*
X162473693Y-98700931D01*
X162380898Y-98476903D01*
X162246180Y-98275283D01*
X162074717Y-98103820D01*
X161873097Y-97969102D01*
X161649069Y-97876307D01*
X161411243Y-97829000D01*
X161168757Y-97829000D01*
X160930931Y-97876307D01*
X160706903Y-97969102D01*
X160505283Y-98103820D01*
X160333820Y-98275283D01*
X160199102Y-98476903D01*
X160106307Y-98700931D01*
X160059000Y-98938757D01*
X160059000Y-99181243D01*
X160106307Y-99419069D01*
X160199102Y-99643097D01*
X160333820Y-99844717D01*
X160505283Y-100016180D01*
X160706903Y-100150898D01*
X160782001Y-100182004D01*
X160782001Y-100373579D01*
X159258000Y-101897580D01*
X159258000Y-100182004D01*
X159333097Y-100150898D01*
X159534717Y-100016180D01*
X159706180Y-99844717D01*
X159840898Y-99643097D01*
X159933693Y-99419069D01*
X159981000Y-99181243D01*
X159981000Y-98938757D01*
X159933693Y-98700931D01*
X159840898Y-98476903D01*
X159706180Y-98275283D01*
X159534717Y-98103820D01*
X159333097Y-97969102D01*
X159109069Y-97876307D01*
X158871243Y-97829000D01*
X158628757Y-97829000D01*
X158390931Y-97876307D01*
X158166903Y-97969102D01*
X157965283Y-98103820D01*
X157793820Y-98275283D01*
X157659102Y-98476903D01*
X157566307Y-98700931D01*
X157519000Y-98938757D01*
X157519000Y-99181243D01*
X157566307Y-99419069D01*
X157659102Y-99643097D01*
X157793820Y-99844717D01*
X157965283Y-100016180D01*
X158166903Y-100150898D01*
X158242000Y-100182004D01*
X158242001Y-101897578D01*
X155490758Y-104648821D01*
X155528044Y-104516449D01*
X155560902Y-104097176D01*
X155511334Y-103679549D01*
X155381243Y-103279617D01*
X155223214Y-102983962D01*
X154907653Y-102827952D01*
X153595605Y-104140000D01*
X153609748Y-104154143D01*
X153430143Y-104333748D01*
X153416000Y-104319605D01*
X152103952Y-105631653D01*
X152259962Y-105947214D01*
X152634745Y-106138020D01*
X153039551Y-106252044D01*
X153458824Y-106284902D01*
X153876451Y-106235334D01*
X153917645Y-106221934D01*
X147334009Y-112805571D01*
X147314632Y-112821473D01*
X147298730Y-112840850D01*
X147251151Y-112898825D01*
X147225937Y-112945997D01*
X147203979Y-112987078D01*
X147174931Y-113082836D01*
X147167580Y-113157473D01*
X147165123Y-113182420D01*
X145669000Y-113182420D01*
X145669000Y-104182824D01*
X151271098Y-104182824D01*
X151320666Y-104600451D01*
X151450757Y-105000383D01*
X151608786Y-105296038D01*
X151924347Y-105452048D01*
X153236395Y-104140000D01*
X151924347Y-102827952D01*
X151608786Y-102983962D01*
X151417980Y-103358745D01*
X151303956Y-103763551D01*
X151271098Y-104182824D01*
X145669000Y-104182824D01*
X145669000Y-102648347D01*
X152103952Y-102648347D01*
X153416000Y-103960395D01*
X154728048Y-102648347D01*
X154572038Y-102332786D01*
X154197255Y-102141980D01*
X153792449Y-102027956D01*
X153373176Y-101995098D01*
X152955549Y-102044666D01*
X152555617Y-102174757D01*
X152259962Y-102332786D01*
X152103952Y-102648347D01*
X145669000Y-102648347D01*
X145669000Y-100234609D01*
X145690931Y-100243693D01*
X145928757Y-100291000D01*
X146171243Y-100291000D01*
X146409069Y-100243693D01*
X146633097Y-100150898D01*
X146834717Y-100016180D01*
X147006180Y-99844717D01*
X147140898Y-99643097D01*
X147233693Y-99419069D01*
X147281000Y-99181243D01*
X147281000Y-98938757D01*
X147359000Y-98938757D01*
X147359000Y-99181243D01*
X147406307Y-99419069D01*
X147499102Y-99643097D01*
X147633820Y-99844717D01*
X147805283Y-100016180D01*
X148006903Y-100150898D01*
X148230931Y-100243693D01*
X148468757Y-100291000D01*
X148711243Y-100291000D01*
X148949069Y-100243693D01*
X149173097Y-100150898D01*
X149374717Y-100016180D01*
X149546180Y-99844717D01*
X149680898Y-99643097D01*
X149773693Y-99419069D01*
X149821000Y-99181243D01*
X149821000Y-98938757D01*
X149899000Y-98938757D01*
X149899000Y-99181243D01*
X149946307Y-99419069D01*
X150039102Y-99643097D01*
X150173820Y-99844717D01*
X150345283Y-100016180D01*
X150546903Y-100150898D01*
X150770931Y-100243693D01*
X151008757Y-100291000D01*
X151251243Y-100291000D01*
X151489069Y-100243693D01*
X151713097Y-100150898D01*
X151914717Y-100016180D01*
X152086180Y-99844717D01*
X152220898Y-99643097D01*
X152313693Y-99419069D01*
X152361000Y-99181243D01*
X152361000Y-98938757D01*
X152439000Y-98938757D01*
X152439000Y-99181243D01*
X152486307Y-99419069D01*
X152579102Y-99643097D01*
X152713820Y-99844717D01*
X152885283Y-100016180D01*
X153086903Y-100150898D01*
X153310931Y-100243693D01*
X153548757Y-100291000D01*
X153791243Y-100291000D01*
X154029069Y-100243693D01*
X154253097Y-100150898D01*
X154454717Y-100016180D01*
X154626180Y-99844717D01*
X154760898Y-99643097D01*
X154853693Y-99419069D01*
X154901000Y-99181243D01*
X154901000Y-98938757D01*
X154979000Y-98938757D01*
X154979000Y-99181243D01*
X155026307Y-99419069D01*
X155119102Y-99643097D01*
X155253820Y-99844717D01*
X155425283Y-100016180D01*
X155626903Y-100150898D01*
X155850931Y-100243693D01*
X156088757Y-100291000D01*
X156331243Y-100291000D01*
X156569069Y-100243693D01*
X156793097Y-100150898D01*
X156994717Y-100016180D01*
X157166180Y-99844717D01*
X157300898Y-99643097D01*
X157393693Y-99419069D01*
X157441000Y-99181243D01*
X157441000Y-98938757D01*
X157393693Y-98700931D01*
X157300898Y-98476903D01*
X157166180Y-98275283D01*
X156994717Y-98103820D01*
X156793097Y-97969102D01*
X156569069Y-97876307D01*
X156331243Y-97829000D01*
X156088757Y-97829000D01*
X155850931Y-97876307D01*
X155626903Y-97969102D01*
X155425283Y-98103820D01*
X155253820Y-98275283D01*
X155119102Y-98476903D01*
X155026307Y-98700931D01*
X154979000Y-98938757D01*
X154901000Y-98938757D01*
X154853693Y-98700931D01*
X154760898Y-98476903D01*
X154626180Y-98275283D01*
X154454717Y-98103820D01*
X154253097Y-97969102D01*
X154029069Y-97876307D01*
X153791243Y-97829000D01*
X153548757Y-97829000D01*
X153310931Y-97876307D01*
X153086903Y-97969102D01*
X152885283Y-98103820D01*
X152713820Y-98275283D01*
X152579102Y-98476903D01*
X152486307Y-98700931D01*
X152439000Y-98938757D01*
X152361000Y-98938757D01*
X152313693Y-98700931D01*
X152220898Y-98476903D01*
X152086180Y-98275283D01*
X151914717Y-98103820D01*
X151713097Y-97969102D01*
X151489069Y-97876307D01*
X151251243Y-97829000D01*
X151008757Y-97829000D01*
X150770931Y-97876307D01*
X150546903Y-97969102D01*
X150345283Y-98103820D01*
X150173820Y-98275283D01*
X150039102Y-98476903D01*
X149946307Y-98700931D01*
X149899000Y-98938757D01*
X149821000Y-98938757D01*
X149773693Y-98700931D01*
X149680898Y-98476903D01*
X149546180Y-98275283D01*
X149374717Y-98103820D01*
X149173097Y-97969102D01*
X148949069Y-97876307D01*
X148711243Y-97829000D01*
X148468757Y-97829000D01*
X148230931Y-97876307D01*
X148006903Y-97969102D01*
X147805283Y-98103820D01*
X147633820Y-98275283D01*
X147499102Y-98476903D01*
X147406307Y-98700931D01*
X147359000Y-98938757D01*
X147281000Y-98938757D01*
X147233693Y-98700931D01*
X147140898Y-98476903D01*
X147006180Y-98275283D01*
X146834717Y-98103820D01*
X146633097Y-97969102D01*
X146409069Y-97876307D01*
X146171243Y-97829000D01*
X145928757Y-97829000D01*
X145690931Y-97876307D01*
X145466903Y-97969102D01*
X145265283Y-98103820D01*
X145093820Y-98275283D01*
X144959102Y-98476903D01*
X144866307Y-98700931D01*
X144819000Y-98938757D01*
X144819000Y-99181243D01*
X144866307Y-99419069D01*
X144897413Y-99494167D01*
X144819435Y-99572145D01*
X144800052Y-99588052D01*
X144777722Y-99615261D01*
X144734548Y-99562652D01*
X144715165Y-99546745D01*
X144662587Y-99494167D01*
X144693693Y-99419069D01*
X144741000Y-99181243D01*
X144741000Y-98938757D01*
X144693693Y-98700931D01*
X144600898Y-98476903D01*
X144466180Y-98275283D01*
X144294717Y-98103820D01*
X144093097Y-97969102D01*
X143869069Y-97876307D01*
X143631243Y-97829000D01*
X143388757Y-97829000D01*
X143150931Y-97876307D01*
X142926903Y-97969102D01*
X142725283Y-98103820D01*
X142553820Y-98275283D01*
X142419102Y-98476903D01*
X142371772Y-98591168D01*
X142314157Y-98428748D01*
X142165178Y-98178645D01*
X141970269Y-97962412D01*
X141736920Y-97788359D01*
X141474099Y-97663175D01*
X141326890Y-97618524D01*
X141097000Y-97739845D01*
X141097000Y-98933000D01*
X141117000Y-98933000D01*
X141117000Y-99187000D01*
X141097000Y-99187000D01*
X141097000Y-100380155D01*
X141326890Y-100501476D01*
X141474099Y-100456825D01*
X141736920Y-100331641D01*
X141970269Y-100157588D01*
X142165178Y-99941355D01*
X142314157Y-99691252D01*
X142371772Y-99528832D01*
X142419102Y-99643097D01*
X142553820Y-99844717D01*
X142725283Y-100016180D01*
X142926903Y-100150898D01*
X143150931Y-100243693D01*
X143388757Y-100291000D01*
X143631243Y-100291000D01*
X143865601Y-100244383D01*
X143865600Y-116621563D01*
X143782002Y-116596203D01*
X143680000Y-116586157D01*
X143601498Y-116586157D01*
X142291693Y-115276352D01*
X142287843Y-115271660D01*
X142287843Y-114810000D01*
X142277605Y-114706047D01*
X142247283Y-114606090D01*
X142198043Y-114513968D01*
X142131777Y-114433223D01*
X142054859Y-114370098D01*
X142050651Y-114362225D01*
X141983995Y-114281005D01*
X141963645Y-114264304D01*
X141645086Y-113945745D01*
X141628385Y-113925395D01*
X141547165Y-113858739D01*
X141454501Y-113809209D01*
X141353955Y-113778709D01*
X141275585Y-113770990D01*
X141275577Y-113770990D01*
X141249390Y-113768411D01*
X141223203Y-113770990D01*
X138176796Y-113770990D01*
X138150609Y-113768411D01*
X138124422Y-113770990D01*
X138124415Y-113770990D01*
X138046045Y-113778709D01*
X137945499Y-113809209D01*
X137852835Y-113858739D01*
X137771615Y-113925395D01*
X137754914Y-113945745D01*
X137436350Y-114264309D01*
X137416006Y-114281005D01*
X137399310Y-114301349D01*
X137399307Y-114301352D01*
X137396814Y-114304390D01*
X137349350Y-114362225D01*
X137349349Y-114362227D01*
X137345143Y-114370096D01*
X137311801Y-114397460D01*
X136423400Y-113509059D01*
X136423400Y-102640000D01*
X138833157Y-102640000D01*
X138833157Y-105640000D01*
X138840513Y-105714689D01*
X138862299Y-105786508D01*
X138897678Y-105852696D01*
X138945289Y-105910711D01*
X139003304Y-105958322D01*
X139069492Y-105993701D01*
X139141311Y-106015487D01*
X139216000Y-106022843D01*
X142216000Y-106022843D01*
X142290689Y-106015487D01*
X142362508Y-105993701D01*
X142428696Y-105958322D01*
X142486711Y-105910711D01*
X142534322Y-105852696D01*
X142569701Y-105786508D01*
X142591487Y-105714689D01*
X142598843Y-105640000D01*
X142598843Y-102640000D01*
X142591487Y-102565311D01*
X142569701Y-102493492D01*
X142534322Y-102427304D01*
X142486711Y-102369289D01*
X142428696Y-102321678D01*
X142362508Y-102286299D01*
X142290689Y-102264513D01*
X142216000Y-102257157D01*
X139216000Y-102257157D01*
X139141311Y-102264513D01*
X139069492Y-102286299D01*
X139003304Y-102321678D01*
X138945289Y-102369289D01*
X138897678Y-102427304D01*
X138862299Y-102493492D01*
X138840513Y-102565311D01*
X138833157Y-102640000D01*
X136423400Y-102640000D01*
X136423400Y-100171483D01*
X136473097Y-100150898D01*
X136674717Y-100016180D01*
X136846180Y-99844717D01*
X136980898Y-99643097D01*
X137073693Y-99419069D01*
X137121000Y-99181243D01*
X137121000Y-98938757D01*
X137199000Y-98938757D01*
X137199000Y-99181243D01*
X137246307Y-99419069D01*
X137339102Y-99643097D01*
X137473820Y-99844717D01*
X137645283Y-100016180D01*
X137846903Y-100150898D01*
X138070931Y-100243693D01*
X138308757Y-100291000D01*
X138551243Y-100291000D01*
X138789069Y-100243693D01*
X139013097Y-100150898D01*
X139214717Y-100016180D01*
X139386180Y-99844717D01*
X139520898Y-99643097D01*
X139568228Y-99528832D01*
X139625843Y-99691252D01*
X139774822Y-99941355D01*
X139969731Y-100157588D01*
X140203080Y-100331641D01*
X140465901Y-100456825D01*
X140613110Y-100501476D01*
X140843000Y-100380155D01*
X140843000Y-99187000D01*
X140823000Y-99187000D01*
X140823000Y-98933000D01*
X140843000Y-98933000D01*
X140843000Y-97739845D01*
X140613110Y-97618524D01*
X140465901Y-97663175D01*
X140203080Y-97788359D01*
X139969731Y-97962412D01*
X139774822Y-98178645D01*
X139625843Y-98428748D01*
X139568228Y-98591168D01*
X139520898Y-98476903D01*
X139386180Y-98275283D01*
X139214717Y-98103820D01*
X139013097Y-97969102D01*
X138789069Y-97876307D01*
X138551243Y-97829000D01*
X138308757Y-97829000D01*
X138070931Y-97876307D01*
X137846903Y-97969102D01*
X137645283Y-98103820D01*
X137473820Y-98275283D01*
X137339102Y-98476903D01*
X137246307Y-98700931D01*
X137199000Y-98938757D01*
X137121000Y-98938757D01*
X137073693Y-98700931D01*
X136980898Y-98476903D01*
X136846180Y-98275283D01*
X136674717Y-98103820D01*
X136473097Y-97969102D01*
X136249069Y-97876307D01*
X136011243Y-97829000D01*
X135768757Y-97829000D01*
X135530931Y-97876307D01*
X135306903Y-97969102D01*
X135105283Y-98103820D01*
X134933820Y-98275283D01*
X134799102Y-98476903D01*
X134706307Y-98700931D01*
X134659000Y-98938757D01*
X134581000Y-98938757D01*
X134533693Y-98700931D01*
X134440898Y-98476903D01*
X134306180Y-98275283D01*
X134134717Y-98103820D01*
X133933097Y-97969102D01*
X133709069Y-97876307D01*
X133539204Y-97842518D01*
X146422814Y-84958908D01*
X148355000Y-84958908D01*
X148355000Y-85221092D01*
X148406150Y-85478238D01*
X148506483Y-85720465D01*
X148652145Y-85938463D01*
X148837537Y-86123855D01*
X149055535Y-86269517D01*
X149297762Y-86369850D01*
X149554908Y-86421000D01*
X149817092Y-86421000D01*
X150074238Y-86369850D01*
X150316465Y-86269517D01*
X150534463Y-86123855D01*
X150719855Y-85938463D01*
X150865517Y-85720465D01*
X150936000Y-85550303D01*
X151006483Y-85720465D01*
X151152145Y-85938463D01*
X151337537Y-86123855D01*
X151555535Y-86269517D01*
X151797762Y-86369850D01*
X152054908Y-86421000D01*
X152317092Y-86421000D01*
X152574238Y-86369850D01*
X152816465Y-86269517D01*
X153034463Y-86123855D01*
X153219855Y-85938463D01*
X153353157Y-85738963D01*
X153353157Y-86040000D01*
X153360513Y-86114689D01*
X153382299Y-86186508D01*
X153417678Y-86252696D01*
X153465289Y-86310711D01*
X153523304Y-86358322D01*
X153589492Y-86393701D01*
X153661311Y-86415487D01*
X153736000Y-86422843D01*
X155636000Y-86422843D01*
X155710689Y-86415487D01*
X155782508Y-86393701D01*
X155848696Y-86358322D01*
X155906711Y-86310711D01*
X155954322Y-86252696D01*
X155989701Y-86186508D01*
X156011487Y-86114689D01*
X156018843Y-86040000D01*
X156018843Y-84140000D01*
X156011487Y-84065311D01*
X155989701Y-83993492D01*
X155954322Y-83927304D01*
X155906711Y-83869289D01*
X155848696Y-83821678D01*
X155782508Y-83786299D01*
X155710689Y-83764513D01*
X155636000Y-83757157D01*
X153736000Y-83757157D01*
X153661311Y-83764513D01*
X153589492Y-83786299D01*
X153523304Y-83821678D01*
X153465289Y-83869289D01*
X153417678Y-83927304D01*
X153382299Y-83993492D01*
X153360513Y-84065311D01*
X153353157Y-84140000D01*
X153353157Y-84441037D01*
X153219855Y-84241537D01*
X153034463Y-84056145D01*
X152816465Y-83910483D01*
X152574238Y-83810150D01*
X152317092Y-83759000D01*
X152054908Y-83759000D01*
X151797762Y-83810150D01*
X151555535Y-83910483D01*
X151337537Y-84056145D01*
X151152145Y-84241537D01*
X151006483Y-84459535D01*
X150936000Y-84629697D01*
X150865517Y-84459535D01*
X150719855Y-84241537D01*
X150534463Y-84056145D01*
X150316465Y-83910483D01*
X150074238Y-83810150D01*
X149817092Y-83759000D01*
X149554908Y-83759000D01*
X149297762Y-83810150D01*
X149055535Y-83910483D01*
X148837537Y-84056145D01*
X148652145Y-84241537D01*
X148506483Y-84459535D01*
X148406150Y-84701762D01*
X148355000Y-84958908D01*
X146422814Y-84958908D01*
X150953521Y-80428201D01*
X155004855Y-80428201D01*
X155029799Y-80430658D01*
X155054743Y-80428201D01*
X155054746Y-80428201D01*
X155129384Y-80420850D01*
X155225142Y-80391802D01*
X155313394Y-80344630D01*
X155390747Y-80281149D01*
X155406654Y-80261766D01*
X155775834Y-79892587D01*
X155850931Y-79923693D01*
X156088757Y-79971000D01*
X156331243Y-79971000D01*
X156569069Y-79923693D01*
X156793097Y-79830898D01*
X156994717Y-79696180D01*
X157166180Y-79524717D01*
X157300898Y-79323097D01*
X157393693Y-79099069D01*
X157441000Y-78861243D01*
X157441000Y-78618757D01*
X157393693Y-78380931D01*
X157300898Y-78156903D01*
X157166180Y-77955283D01*
X156994717Y-77783820D01*
X156793097Y-77649102D01*
X156569069Y-77556307D01*
X156331243Y-77509000D01*
X156088757Y-77509000D01*
X155850931Y-77556307D01*
X155626903Y-77649102D01*
X155425283Y-77783820D01*
X155253820Y-77955283D01*
X155119102Y-78156903D01*
X155026307Y-78380931D01*
X154979000Y-78618757D01*
X154979000Y-78861243D01*
X155026307Y-79099069D01*
X155057413Y-79174166D01*
X154819379Y-79412201D01*
X154701361Y-79412201D01*
X154760898Y-79323097D01*
X154853693Y-79099069D01*
X154901000Y-78861243D01*
X154901000Y-78618757D01*
X154853693Y-78380931D01*
X154760898Y-78156903D01*
X154626180Y-77955283D01*
X154454717Y-77783820D01*
X154253097Y-77649102D01*
X154029069Y-77556307D01*
X153791243Y-77509000D01*
X153548757Y-77509000D01*
X153310931Y-77556307D01*
X153086903Y-77649102D01*
X152885283Y-77783820D01*
X152713820Y-77955283D01*
X152579102Y-78156903D01*
X152486307Y-78380931D01*
X152439000Y-78618757D01*
X152439000Y-78861243D01*
X152486307Y-79099069D01*
X152579102Y-79323097D01*
X152638639Y-79412201D01*
X152161361Y-79412201D01*
X152220898Y-79323097D01*
X152313693Y-79099069D01*
X152361000Y-78861243D01*
X152361000Y-78618757D01*
X152313693Y-78380931D01*
X152220898Y-78156903D01*
X152086180Y-77955283D01*
X151914717Y-77783820D01*
X151713097Y-77649102D01*
X151489069Y-77556307D01*
X151251243Y-77509000D01*
X151008757Y-77509000D01*
X150770931Y-77556307D01*
X150546903Y-77649102D01*
X150345283Y-77783820D01*
X150173820Y-77955283D01*
X150039102Y-78156903D01*
X149946307Y-78380931D01*
X149899000Y-78618757D01*
X149899000Y-78861243D01*
X149946307Y-79099069D01*
X150039102Y-79323097D01*
X150173820Y-79524717D01*
X150296993Y-79647890D01*
X131484430Y-98460452D01*
X131465053Y-98476354D01*
X131449151Y-98495731D01*
X131449150Y-98495732D01*
X131401571Y-98553707D01*
X131369158Y-98614349D01*
X131354400Y-98641959D01*
X131342556Y-98681005D01*
X131325352Y-98737718D01*
X131315543Y-98837302D01*
X127406000Y-98837302D01*
X127406000Y-78618757D01*
X142279000Y-78618757D01*
X142279000Y-78861243D01*
X142326307Y-79099069D01*
X142419102Y-79323097D01*
X142553820Y-79524717D01*
X142725283Y-79696180D01*
X142926903Y-79830898D01*
X143150931Y-79923693D01*
X143388757Y-79971000D01*
X143631243Y-79971000D01*
X143869069Y-79923693D01*
X144093097Y-79830898D01*
X144294717Y-79696180D01*
X144466180Y-79524717D01*
X144600898Y-79323097D01*
X144693693Y-79099069D01*
X144741000Y-78861243D01*
X144741000Y-78618757D01*
X144819000Y-78618757D01*
X144819000Y-78861243D01*
X144866307Y-79099069D01*
X144959102Y-79323097D01*
X145093820Y-79524717D01*
X145265283Y-79696180D01*
X145466903Y-79830898D01*
X145690931Y-79923693D01*
X145928757Y-79971000D01*
X146171243Y-79971000D01*
X146409069Y-79923693D01*
X146633097Y-79830898D01*
X146834717Y-79696180D01*
X147006180Y-79524717D01*
X147140898Y-79323097D01*
X147233693Y-79099069D01*
X147281000Y-78861243D01*
X147281000Y-78618757D01*
X147359000Y-78618757D01*
X147359000Y-78861243D01*
X147406307Y-79099069D01*
X147499102Y-79323097D01*
X147633820Y-79524717D01*
X147805283Y-79696180D01*
X148006903Y-79830898D01*
X148230931Y-79923693D01*
X148468757Y-79971000D01*
X148711243Y-79971000D01*
X148949069Y-79923693D01*
X149173097Y-79830898D01*
X149374717Y-79696180D01*
X149546180Y-79524717D01*
X149680898Y-79323097D01*
X149773693Y-79099069D01*
X149821000Y-78861243D01*
X149821000Y-78618757D01*
X149773693Y-78380931D01*
X149680898Y-78156903D01*
X149546180Y-77955283D01*
X149374717Y-77783820D01*
X149173097Y-77649102D01*
X148949069Y-77556307D01*
X148711243Y-77509000D01*
X148468757Y-77509000D01*
X148230931Y-77556307D01*
X148006903Y-77649102D01*
X147805283Y-77783820D01*
X147633820Y-77955283D01*
X147499102Y-78156903D01*
X147406307Y-78380931D01*
X147359000Y-78618757D01*
X147281000Y-78618757D01*
X147233693Y-78380931D01*
X147140898Y-78156903D01*
X147006180Y-77955283D01*
X146834717Y-77783820D01*
X146633097Y-77649102D01*
X146409069Y-77556307D01*
X146171243Y-77509000D01*
X145928757Y-77509000D01*
X145690931Y-77556307D01*
X145466903Y-77649102D01*
X145265283Y-77783820D01*
X145093820Y-77955283D01*
X144959102Y-78156903D01*
X144866307Y-78380931D01*
X144819000Y-78618757D01*
X144741000Y-78618757D01*
X144693693Y-78380931D01*
X144600898Y-78156903D01*
X144466180Y-77955283D01*
X144294717Y-77783820D01*
X144093097Y-77649102D01*
X143869069Y-77556307D01*
X143631243Y-77509000D01*
X143388757Y-77509000D01*
X143150931Y-77556307D01*
X142926903Y-77649102D01*
X142725283Y-77783820D01*
X142553820Y-77955283D01*
X142419102Y-78156903D01*
X142326307Y-78380931D01*
X142279000Y-78618757D01*
X127406000Y-78618757D01*
X127406000Y-76606000D01*
X177394001Y-76606000D01*
X177394000Y-154534000D01*
G37*
%TD.AperFunction*%
%TD*%
M02*
