%TF.GenerationSoftware,KiCad,Pcbnew,5.1.12-1.fc35*%
%TF.CreationDate,2022-01-14T09:49:59+01:00*%
%TF.ProjectId,burrboard,62757272-626f-4617-9264-2e6b69636164,v2.0*%
%TF.SameCoordinates,Original*%
%TF.FileFunction,Legend,Top*%
%TF.FilePolarity,Positive*%
%FSLAX46Y46*%
G04 Gerber Fmt 4.6, Leading zero omitted, Abs format (unit mm)*
G04 Created by KiCad (PCBNEW 5.1.12-1.fc35) date 2022-01-14 09:49:59*
%MOMM*%
%LPD*%
G01*
G04 APERTURE LIST*
%ADD10C,0.150000*%
%ADD11C,0.120000*%
%ADD12C,0.010000*%
%ADD13C,0.100000*%
G04 APERTURE END LIST*
D10*
X153087485Y-123159828D02*
X153849390Y-123159828D01*
X153468438Y-123540780D02*
X153468438Y-122778876D01*
X154230342Y-122874114D02*
X154754152Y-122874114D01*
X154230342Y-123540780D01*
X154754152Y-123540780D01*
X152020685Y-118587828D02*
X152782590Y-118587828D01*
X152401638Y-118968780D02*
X152401638Y-118206876D01*
X153163542Y-118968780D02*
X153687352Y-118302114D01*
X153163542Y-118302114D02*
X153687352Y-118968780D01*
X147624895Y-121788228D02*
X148386800Y-121788228D01*
X148005847Y-122169180D02*
X148005847Y-121407276D01*
X148767752Y-121502514D02*
X149005847Y-122169180D01*
X149243942Y-121502514D02*
X149005847Y-122169180D01*
X148910609Y-122407276D01*
X148862990Y-122454895D01*
X148767752Y-122502514D01*
D11*
X148590000Y-123190000D02*
X149047200Y-123698000D01*
X148590000Y-123190000D02*
X149047200Y-122732800D01*
X152400000Y-119380000D02*
X151892000Y-119888000D01*
X152400000Y-119380000D02*
X152908000Y-119888000D01*
X152471842Y-123190000D02*
G75*
G03*
X152471842Y-123190000I-71842J0D01*
G01*
X152725279Y-123190000D02*
G75*
G03*
X152725279Y-123190000I-325279J0D01*
G01*
X152019000Y-123190000D02*
X148590000Y-123190000D01*
X152400000Y-119380000D02*
X152400000Y-122809000D01*
D10*
X148506323Y-116800380D02*
X148696800Y-116800380D01*
X148792038Y-116848000D01*
X148887276Y-116943238D01*
X148934895Y-117133714D01*
X148934895Y-117467047D01*
X148887276Y-117657523D01*
X148792038Y-117752761D01*
X148696800Y-117800380D01*
X148506323Y-117800380D01*
X148411085Y-117752761D01*
X148315847Y-117657523D01*
X148268228Y-117467047D01*
X148268228Y-117133714D01*
X148315847Y-116943238D01*
X148411085Y-116848000D01*
X148506323Y-116800380D01*
X149363466Y-117800380D02*
X149363466Y-117133714D01*
X149363466Y-117324190D02*
X149411085Y-117228952D01*
X149458704Y-117181333D01*
X149553942Y-117133714D01*
X149649180Y-117133714D01*
X149982514Y-117800380D02*
X149982514Y-117133714D01*
X149982514Y-116800380D02*
X149934895Y-116848000D01*
X149982514Y-116895619D01*
X150030133Y-116848000D01*
X149982514Y-116800380D01*
X149982514Y-116895619D01*
X150839657Y-117752761D02*
X150744419Y-117800380D01*
X150553942Y-117800380D01*
X150458704Y-117752761D01*
X150411085Y-117657523D01*
X150411085Y-117276571D01*
X150458704Y-117181333D01*
X150553942Y-117133714D01*
X150744419Y-117133714D01*
X150839657Y-117181333D01*
X150887276Y-117276571D01*
X150887276Y-117371809D01*
X150411085Y-117467047D01*
X151315847Y-117133714D02*
X151315847Y-117800380D01*
X151315847Y-117228952D02*
X151363466Y-117181333D01*
X151458704Y-117133714D01*
X151601561Y-117133714D01*
X151696800Y-117181333D01*
X151744419Y-117276571D01*
X151744419Y-117800380D01*
X152077752Y-117133714D02*
X152458704Y-117133714D01*
X152220609Y-116800380D02*
X152220609Y-117657523D01*
X152268228Y-117752761D01*
X152363466Y-117800380D01*
X152458704Y-117800380D01*
X153220609Y-117800380D02*
X153220609Y-117276571D01*
X153172990Y-117181333D01*
X153077752Y-117133714D01*
X152887276Y-117133714D01*
X152792038Y-117181333D01*
X153220609Y-117752761D02*
X153125371Y-117800380D01*
X152887276Y-117800380D01*
X152792038Y-117752761D01*
X152744419Y-117657523D01*
X152744419Y-117562285D01*
X152792038Y-117467047D01*
X152887276Y-117419428D01*
X153125371Y-117419428D01*
X153220609Y-117371809D01*
X153553942Y-117133714D02*
X153934895Y-117133714D01*
X153696800Y-116800380D02*
X153696800Y-117657523D01*
X153744419Y-117752761D01*
X153839657Y-117800380D01*
X153934895Y-117800380D01*
X154268228Y-117800380D02*
X154268228Y-117133714D01*
X154268228Y-116800380D02*
X154220609Y-116848000D01*
X154268228Y-116895619D01*
X154315847Y-116848000D01*
X154268228Y-116800380D01*
X154268228Y-116895619D01*
X154887276Y-117800380D02*
X154792038Y-117752761D01*
X154744419Y-117705142D01*
X154696800Y-117609904D01*
X154696800Y-117324190D01*
X154744419Y-117228952D01*
X154792038Y-117181333D01*
X154887276Y-117133714D01*
X155030133Y-117133714D01*
X155125371Y-117181333D01*
X155172990Y-117228952D01*
X155220609Y-117324190D01*
X155220609Y-117609904D01*
X155172990Y-117705142D01*
X155125371Y-117752761D01*
X155030133Y-117800380D01*
X154887276Y-117800380D01*
X155649180Y-117133714D02*
X155649180Y-117800380D01*
X155649180Y-117228952D02*
X155696800Y-117181333D01*
X155792038Y-117133714D01*
X155934895Y-117133714D01*
X156030133Y-117181333D01*
X156077752Y-117276571D01*
X156077752Y-117800380D01*
X129705219Y-123658380D02*
X129895695Y-123658380D01*
X129990933Y-123706000D01*
X130086171Y-123801238D01*
X130133790Y-123991714D01*
X130133790Y-124325047D01*
X130086171Y-124515523D01*
X129990933Y-124610761D01*
X129895695Y-124658380D01*
X129705219Y-124658380D01*
X129609980Y-124610761D01*
X129514742Y-124515523D01*
X129467123Y-124325047D01*
X129467123Y-123991714D01*
X129514742Y-123801238D01*
X129609980Y-123706000D01*
X129705219Y-123658380D01*
X130895695Y-124134571D02*
X130562361Y-124134571D01*
X130562361Y-124658380D02*
X130562361Y-123658380D01*
X131038552Y-123658380D01*
X131752838Y-124134571D02*
X131419504Y-124134571D01*
X131419504Y-124658380D02*
X131419504Y-123658380D01*
X131895695Y-123658380D01*
X130038552Y-109535980D02*
X130229028Y-109535980D01*
X130324266Y-109583600D01*
X130419504Y-109678838D01*
X130467123Y-109869314D01*
X130467123Y-110202647D01*
X130419504Y-110393123D01*
X130324266Y-110488361D01*
X130229028Y-110535980D01*
X130038552Y-110535980D01*
X129943314Y-110488361D01*
X129848076Y-110393123D01*
X129800457Y-110202647D01*
X129800457Y-109869314D01*
X129848076Y-109678838D01*
X129943314Y-109583600D01*
X130038552Y-109535980D01*
X130895695Y-110535980D02*
X130895695Y-109535980D01*
X131467123Y-110535980D01*
X131467123Y-109535980D01*
X134294571Y-107786228D02*
X134342190Y-107643371D01*
X134389809Y-107595752D01*
X134485047Y-107548133D01*
X134627904Y-107548133D01*
X134723142Y-107595752D01*
X134770761Y-107643371D01*
X134818380Y-107738609D01*
X134818380Y-108119561D01*
X133818380Y-108119561D01*
X133818380Y-107786228D01*
X133866000Y-107690990D01*
X133913619Y-107643371D01*
X134008857Y-107595752D01*
X134104095Y-107595752D01*
X134199333Y-107643371D01*
X134246952Y-107690990D01*
X134294571Y-107786228D01*
X134294571Y-108119561D01*
X134818380Y-106690990D02*
X134294571Y-106690990D01*
X134199333Y-106738609D01*
X134151714Y-106833847D01*
X134151714Y-107024323D01*
X134199333Y-107119561D01*
X134770761Y-106690990D02*
X134818380Y-106786228D01*
X134818380Y-107024323D01*
X134770761Y-107119561D01*
X134675523Y-107167180D01*
X134580285Y-107167180D01*
X134485047Y-107119561D01*
X134437428Y-107024323D01*
X134437428Y-106786228D01*
X134389809Y-106690990D01*
X134151714Y-106357657D02*
X134151714Y-105976704D01*
X133818380Y-106214800D02*
X134675523Y-106214800D01*
X134770761Y-106167180D01*
X134818380Y-106071942D01*
X134818380Y-105976704D01*
X134151714Y-105786228D02*
X134151714Y-105405276D01*
X133818380Y-105643371D02*
X134675523Y-105643371D01*
X134770761Y-105595752D01*
X134818380Y-105500514D01*
X134818380Y-105405276D01*
X134770761Y-104690990D02*
X134818380Y-104786228D01*
X134818380Y-104976704D01*
X134770761Y-105071942D01*
X134675523Y-105119561D01*
X134294571Y-105119561D01*
X134199333Y-105071942D01*
X134151714Y-104976704D01*
X134151714Y-104786228D01*
X134199333Y-104690990D01*
X134294571Y-104643371D01*
X134389809Y-104643371D01*
X134485047Y-105119561D01*
X134818380Y-104214800D02*
X134151714Y-104214800D01*
X134342190Y-104214800D02*
X134246952Y-104167180D01*
X134199333Y-104119561D01*
X134151714Y-104024323D01*
X134151714Y-103929085D01*
X134151714Y-103690990D02*
X134818380Y-103452895D01*
X134151714Y-103214800D02*
X134818380Y-103452895D01*
X135056476Y-103548133D01*
X135104095Y-103595752D01*
X135151714Y-103690990D01*
X165191748Y-149026571D02*
X165334605Y-149074190D01*
X165382224Y-149121809D01*
X165429843Y-149217047D01*
X165429843Y-149359904D01*
X165382224Y-149455142D01*
X165334605Y-149502761D01*
X165239367Y-149550380D01*
X164858415Y-149550380D01*
X164858415Y-148550380D01*
X165191748Y-148550380D01*
X165286986Y-148598000D01*
X165334605Y-148645619D01*
X165382224Y-148740857D01*
X165382224Y-148836095D01*
X165334605Y-148931333D01*
X165286986Y-148978952D01*
X165191748Y-149026571D01*
X164858415Y-149026571D01*
X139446664Y-149264666D02*
X139922855Y-149264666D01*
X139351426Y-149550380D02*
X139684760Y-148550380D01*
X140018093Y-149550380D01*
X161942876Y-117800380D02*
X161466685Y-117800380D01*
X161466685Y-116800380D01*
X162276209Y-117800380D02*
X162276209Y-117133714D01*
X162276209Y-116800380D02*
X162228590Y-116848000D01*
X162276209Y-116895619D01*
X162323828Y-116848000D01*
X162276209Y-116800380D01*
X162276209Y-116895619D01*
X163180971Y-117133714D02*
X163180971Y-117943238D01*
X163133352Y-118038476D01*
X163085733Y-118086095D01*
X162990495Y-118133714D01*
X162847638Y-118133714D01*
X162752400Y-118086095D01*
X163180971Y-117752761D02*
X163085733Y-117800380D01*
X162895257Y-117800380D01*
X162800019Y-117752761D01*
X162752400Y-117705142D01*
X162704780Y-117609904D01*
X162704780Y-117324190D01*
X162752400Y-117228952D01*
X162800019Y-117181333D01*
X162895257Y-117133714D01*
X163085733Y-117133714D01*
X163180971Y-117181333D01*
X163657161Y-117800380D02*
X163657161Y-116800380D01*
X164085733Y-117800380D02*
X164085733Y-117276571D01*
X164038114Y-117181333D01*
X163942876Y-117133714D01*
X163800019Y-117133714D01*
X163704780Y-117181333D01*
X163657161Y-117228952D01*
X164419066Y-117133714D02*
X164800019Y-117133714D01*
X164561923Y-116800380D02*
X164561923Y-117657523D01*
X164609542Y-117752761D01*
X164704780Y-117800380D01*
X164800019Y-117800380D01*
X165085733Y-117752761D02*
X165228590Y-117800380D01*
X165466685Y-117800380D01*
X165561923Y-117752761D01*
X165609542Y-117705142D01*
X165657161Y-117609904D01*
X165657161Y-117514666D01*
X165609542Y-117419428D01*
X165561923Y-117371809D01*
X165466685Y-117324190D01*
X165276209Y-117276571D01*
X165180971Y-117228952D01*
X165133352Y-117181333D01*
X165085733Y-117086095D01*
X165085733Y-116990857D01*
X165133352Y-116895619D01*
X165180971Y-116848000D01*
X165276209Y-116800380D01*
X165514304Y-116800380D01*
X165657161Y-116848000D01*
X166466685Y-117752761D02*
X166371447Y-117800380D01*
X166180971Y-117800380D01*
X166085733Y-117752761D01*
X166038114Y-117657523D01*
X166038114Y-117276571D01*
X166085733Y-117181333D01*
X166180971Y-117133714D01*
X166371447Y-117133714D01*
X166466685Y-117181333D01*
X166514304Y-117276571D01*
X166514304Y-117371809D01*
X166038114Y-117467047D01*
X166942876Y-117133714D02*
X166942876Y-117800380D01*
X166942876Y-117228952D02*
X166990495Y-117181333D01*
X167085733Y-117133714D01*
X167228590Y-117133714D01*
X167323828Y-117181333D01*
X167371447Y-117276571D01*
X167371447Y-117800380D01*
X167800019Y-117752761D02*
X167895257Y-117800380D01*
X168085733Y-117800380D01*
X168180971Y-117752761D01*
X168228590Y-117657523D01*
X168228590Y-117609904D01*
X168180971Y-117514666D01*
X168085733Y-117467047D01*
X167942876Y-117467047D01*
X167847638Y-117419428D01*
X167800019Y-117324190D01*
X167800019Y-117276571D01*
X167847638Y-117181333D01*
X167942876Y-117133714D01*
X168085733Y-117133714D01*
X168180971Y-117181333D01*
X169038114Y-117752761D02*
X168942876Y-117800380D01*
X168752400Y-117800380D01*
X168657161Y-117752761D01*
X168609542Y-117657523D01*
X168609542Y-117276571D01*
X168657161Y-117181333D01*
X168752400Y-117133714D01*
X168942876Y-117133714D01*
X169038114Y-117181333D01*
X169085733Y-117276571D01*
X169085733Y-117371809D01*
X168609542Y-117467047D01*
X139223026Y-116800380D02*
X139794455Y-116800380D01*
X139508740Y-117800380D02*
X139508740Y-116800380D01*
X140508740Y-117752761D02*
X140413502Y-117800380D01*
X140223026Y-117800380D01*
X140127788Y-117752761D01*
X140080169Y-117657523D01*
X140080169Y-117276571D01*
X140127788Y-117181333D01*
X140223026Y-117133714D01*
X140413502Y-117133714D01*
X140508740Y-117181333D01*
X140556360Y-117276571D01*
X140556360Y-117371809D01*
X140080169Y-117467047D01*
X140984931Y-117800380D02*
X140984931Y-117133714D01*
X140984931Y-117228952D02*
X141032550Y-117181333D01*
X141127788Y-117133714D01*
X141270645Y-117133714D01*
X141365883Y-117181333D01*
X141413502Y-117276571D01*
X141413502Y-117800380D01*
X141413502Y-117276571D02*
X141461121Y-117181333D01*
X141556360Y-117133714D01*
X141699217Y-117133714D01*
X141794455Y-117181333D01*
X141842074Y-117276571D01*
X141842074Y-117800380D01*
X142318264Y-117133714D02*
X142318264Y-118133714D01*
X142318264Y-117181333D02*
X142413502Y-117133714D01*
X142603979Y-117133714D01*
X142699217Y-117181333D01*
X142746836Y-117228952D01*
X142794455Y-117324190D01*
X142794455Y-117609904D01*
X142746836Y-117705142D01*
X142699217Y-117752761D01*
X142603979Y-117800380D01*
X142413502Y-117800380D01*
X142318264Y-117752761D01*
D12*
%TO.C,G\u002A\u002A\u002A*%
G36*
X145743919Y-131712366D02*
G01*
X146047821Y-131738942D01*
X146410502Y-131778587D01*
X146795742Y-131827241D01*
X147167320Y-131880842D01*
X147489017Y-131935331D01*
X147574000Y-131951981D01*
X148656785Y-132226745D01*
X149727224Y-132598915D01*
X150743507Y-133050577D01*
X151663825Y-133563814D01*
X152216926Y-133941412D01*
X152681803Y-134318638D01*
X153168610Y-134764637D01*
X153636123Y-135237817D01*
X154043117Y-135696589D01*
X154332290Y-136075502D01*
X154616203Y-136543272D01*
X154910320Y-137114383D01*
X155185930Y-137727378D01*
X155414319Y-138320798D01*
X155491578Y-138557000D01*
X155577194Y-138871338D01*
X155684991Y-139319241D01*
X155808110Y-139867447D01*
X155939694Y-140482699D01*
X156072884Y-141131734D01*
X156200820Y-141781294D01*
X156316644Y-142398117D01*
X156413498Y-142948945D01*
X156470026Y-143301823D01*
X156572552Y-143982645D01*
X157038192Y-144317823D01*
X157449621Y-144639361D01*
X157846324Y-144994739D01*
X158195672Y-145350980D01*
X158465038Y-145675109D01*
X158608934Y-145905317D01*
X158744064Y-146297856D01*
X158773114Y-146656561D01*
X158696701Y-146943982D01*
X158589666Y-147075738D01*
X158407170Y-147183760D01*
X158183320Y-147225755D01*
X157879262Y-147203180D01*
X157458833Y-147118126D01*
X156972000Y-147003564D01*
X156978917Y-147309949D01*
X156988991Y-147510370D01*
X157011490Y-147835976D01*
X157043186Y-148243342D01*
X157080850Y-148689043D01*
X157084750Y-148733249D01*
X157183666Y-149850164D01*
X158084746Y-150444840D01*
X158703769Y-150883353D01*
X159161598Y-151275321D01*
X159458007Y-151620410D01*
X159592771Y-151918283D01*
X159565666Y-152168605D01*
X159376467Y-152371038D01*
X159374265Y-152372486D01*
X159144375Y-152459282D01*
X158792859Y-152516907D01*
X158365159Y-152543791D01*
X157906717Y-152538367D01*
X157462976Y-152499063D01*
X157175895Y-152448407D01*
X156807433Y-152349503D01*
X156391330Y-152215491D01*
X156110918Y-152111717D01*
X155766994Y-151996404D01*
X155422520Y-151916564D01*
X155187357Y-151891264D01*
X154881425Y-151877127D01*
X154415940Y-151836169D01*
X153798403Y-151769258D01*
X153389961Y-151719951D01*
X155596958Y-151719951D01*
X155992812Y-151889634D01*
X156410850Y-152048117D01*
X156894681Y-152200981D01*
X157350565Y-152319444D01*
X157480000Y-152346290D01*
X157735645Y-152372913D01*
X158070639Y-152378880D01*
X158438073Y-152367023D01*
X158791042Y-152340170D01*
X159082640Y-152301152D01*
X159265958Y-152252800D01*
X159292801Y-152236918D01*
X159408488Y-152052413D01*
X159369391Y-151817900D01*
X159174437Y-151532047D01*
X158822550Y-151193522D01*
X158312658Y-150800993D01*
X157915427Y-150529077D01*
X157525234Y-150277467D01*
X157249493Y-150116104D01*
X157066599Y-150034427D01*
X156954946Y-150021877D01*
X156916055Y-150040630D01*
X156816327Y-150153878D01*
X156655996Y-150367694D01*
X156466118Y-150640265D01*
X156424297Y-150702710D01*
X156212503Y-151006856D01*
X156003022Y-151283881D01*
X155837422Y-151479103D01*
X155822313Y-151494596D01*
X155596958Y-151719951D01*
X153389961Y-151719951D01*
X153036315Y-151677259D01*
X152137179Y-151561037D01*
X151108495Y-151421458D01*
X151070198Y-151416155D01*
X149444063Y-151190836D01*
X148823975Y-151497227D01*
X148338527Y-151707097D01*
X147832513Y-151874438D01*
X147350125Y-151988368D01*
X146935551Y-152038001D01*
X146683788Y-152024359D01*
X146394198Y-151908295D01*
X146221012Y-151708831D01*
X146201468Y-151566681D01*
X146349523Y-151566681D01*
X146405656Y-151753661D01*
X146544042Y-151838541D01*
X146771520Y-151859677D01*
X147104233Y-151837607D01*
X147485845Y-151779806D01*
X147860020Y-151693746D01*
X148029564Y-151641476D01*
X148392854Y-151503517D01*
X148734576Y-151351202D01*
X149014041Y-151204772D01*
X149190559Y-151084467D01*
X149223672Y-151047481D01*
X149227965Y-150890151D01*
X149119420Y-150650188D01*
X148914496Y-150354305D01*
X148629653Y-150029212D01*
X148541246Y-149939962D01*
X148072831Y-149479000D01*
X147314462Y-150283334D01*
X147016591Y-150606391D01*
X146752776Y-150905665D01*
X146550123Y-151149510D01*
X146435739Y-151306281D01*
X146430645Y-151315137D01*
X146349523Y-151566681D01*
X146201468Y-151566681D01*
X146186455Y-151457490D01*
X146213420Y-151357218D01*
X146300462Y-151216074D01*
X146480658Y-150982662D01*
X146729691Y-150686674D01*
X147023246Y-150357802D01*
X147099203Y-150275580D01*
X147901732Y-149412914D01*
X147952551Y-148853291D01*
X147984939Y-148523331D01*
X148017955Y-148229167D01*
X148040568Y-148060834D01*
X148051141Y-147893029D01*
X148025140Y-147828000D01*
X147926872Y-147852303D01*
X147705025Y-147917711D01*
X147397054Y-148012973D01*
X147179577Y-148082000D01*
X146661383Y-148234988D01*
X146273584Y-148315932D01*
X145993713Y-148325632D01*
X145799299Y-148264887D01*
X145668702Y-148135762D01*
X145599314Y-147984694D01*
X145597858Y-147871000D01*
X145767875Y-147871000D01*
X145793252Y-148054182D01*
X145948918Y-148146785D01*
X146238478Y-148149537D01*
X146665537Y-148063161D01*
X147233702Y-147888385D01*
X147265562Y-147877448D01*
X147618589Y-147751280D01*
X147911052Y-147638401D01*
X148106009Y-147553558D01*
X148165031Y-147518371D01*
X148214988Y-147395746D01*
X148262399Y-147173930D01*
X148275490Y-147082860D01*
X148292992Y-146902784D01*
X148275528Y-146769668D01*
X148199326Y-146645188D01*
X148175435Y-146621980D01*
X148341463Y-146621980D01*
X148829714Y-147005571D01*
X149575795Y-147514913D01*
X150472660Y-147991650D01*
X151045333Y-148245367D01*
X151771824Y-148607785D01*
X152350616Y-149029183D01*
X152758631Y-149481727D01*
X153023079Y-149856901D01*
X153325372Y-149632375D01*
X153551658Y-149457953D01*
X153839742Y-149227440D01*
X154091880Y-149020091D01*
X154727489Y-148464628D01*
X155317770Y-147901510D01*
X155830031Y-147363385D01*
X156230628Y-146884155D01*
X156444342Y-146606673D01*
X156578319Y-146449166D01*
X156654294Y-146396046D01*
X156694004Y-146431727D01*
X156718097Y-146534574D01*
X156759098Y-146666296D01*
X156850672Y-146757717D01*
X157032458Y-146834085D01*
X157310763Y-146912057D01*
X157770088Y-147017467D01*
X158100359Y-147057112D01*
X158329017Y-147029904D01*
X158483504Y-146934754D01*
X158540244Y-146863299D01*
X158618032Y-146596903D01*
X158565858Y-146260682D01*
X158394205Y-145879411D01*
X158113556Y-145477865D01*
X157820012Y-145161000D01*
X157468788Y-144822334D01*
X157241560Y-145082353D01*
X157039952Y-145324699D01*
X156851956Y-145568213D01*
X156836619Y-145589340D01*
X156658905Y-145836307D01*
X156508981Y-144685187D01*
X156359058Y-143534067D01*
X155853292Y-143691479D01*
X155578660Y-143767542D01*
X155369235Y-143808218D01*
X155279389Y-143806780D01*
X155237739Y-143707413D01*
X155192639Y-143485966D01*
X155153489Y-143189203D01*
X155151673Y-143171398D01*
X155047741Y-142637202D01*
X154851446Y-142230736D01*
X154555452Y-141948019D01*
X154152423Y-141785072D01*
X153635026Y-141737913D01*
X152995925Y-141802563D01*
X152724800Y-141854521D01*
X152196771Y-141993984D01*
X151783563Y-142173645D01*
X151431297Y-142419082D01*
X151313080Y-142524646D01*
X150972833Y-142933560D01*
X150765180Y-143382235D01*
X150706666Y-143767354D01*
X150706666Y-144116121D01*
X150431500Y-144056629D01*
X150066394Y-143934104D01*
X149595540Y-143704908D01*
X149036917Y-143377976D01*
X148929807Y-143310316D01*
X148691829Y-143161511D01*
X148520649Y-143060328D01*
X148454704Y-143029082D01*
X148449254Y-143114278D01*
X148440016Y-143343815D01*
X148427845Y-143692768D01*
X148413597Y-144136207D01*
X148398127Y-144649205D01*
X148392795Y-144833157D01*
X148341463Y-146621980D01*
X148175435Y-146621980D01*
X148040616Y-146491018D01*
X147775626Y-146268836D01*
X147765307Y-146260324D01*
X147504573Y-146057780D01*
X147289042Y-145913395D01*
X147153429Y-145849552D01*
X147130298Y-145850922D01*
X147032220Y-145950023D01*
X146865794Y-146155489D01*
X146656173Y-146432505D01*
X146428508Y-146746259D01*
X146207950Y-147061936D01*
X146019652Y-147344721D01*
X145888766Y-147559800D01*
X145869180Y-147596516D01*
X145767875Y-147871000D01*
X145597858Y-147871000D01*
X145597156Y-147816239D01*
X145672067Y-147600923D01*
X145833884Y-147309277D01*
X146062325Y-146956623D01*
X146548701Y-146285102D01*
X147128349Y-145587041D01*
X147731601Y-144930428D01*
X148274747Y-144361190D01*
X148227733Y-142051762D01*
X148198574Y-140993729D01*
X148171538Y-140419667D01*
X148375439Y-140419667D01*
X148404548Y-141580346D01*
X148433656Y-142741025D01*
X148992855Y-143094191D01*
X149335633Y-143300672D01*
X149692692Y-143499979D01*
X149981194Y-143646271D01*
X150410333Y-143845184D01*
X150502475Y-143487092D01*
X150596632Y-143187652D01*
X150711144Y-142906658D01*
X150733088Y-142862331D01*
X150964039Y-142546506D01*
X151306538Y-142234239D01*
X151707464Y-141968571D01*
X152010589Y-141827263D01*
X152270100Y-141715430D01*
X152401052Y-141610371D01*
X152440093Y-141481720D01*
X152440329Y-141471192D01*
X152506769Y-141303169D01*
X152709822Y-141197967D01*
X153061249Y-141149932D01*
X153112999Y-141147773D01*
X153413756Y-141067631D01*
X153606225Y-140864988D01*
X153670000Y-140578857D01*
X153625752Y-140347295D01*
X153479883Y-140203947D01*
X153212701Y-140138348D01*
X152840056Y-140137830D01*
X152561110Y-140145676D01*
X152409176Y-140121257D01*
X152343447Y-140054914D01*
X152332793Y-140017747D01*
X152379420Y-139875263D01*
X152565804Y-139772821D01*
X152865297Y-139719112D01*
X153239845Y-139721893D01*
X153647480Y-139810775D01*
X153922149Y-140003423D01*
X154067114Y-140303021D01*
X154093333Y-140555593D01*
X154060351Y-140840094D01*
X153975739Y-141107935D01*
X153860995Y-141309287D01*
X153737618Y-141394321D01*
X153731325Y-141394630D01*
X153691884Y-141425570D01*
X153754666Y-141478000D01*
X153928560Y-141537829D01*
X154144312Y-141561370D01*
X154461497Y-141635274D01*
X154784767Y-141829069D01*
X155057744Y-142105259D01*
X155133994Y-142219598D01*
X155231375Y-142459715D01*
X155310009Y-142782991D01*
X155341049Y-143004882D01*
X155373374Y-143279329D01*
X155410546Y-143476152D01*
X155438810Y-143545043D01*
X155555969Y-143544093D01*
X155757859Y-143490943D01*
X155986160Y-143407579D01*
X156182553Y-143315989D01*
X156288717Y-143238159D01*
X156294347Y-143222499D01*
X156278896Y-143111246D01*
X156236589Y-142864200D01*
X156173157Y-142511738D01*
X156094329Y-142084237D01*
X156005836Y-141612073D01*
X155913408Y-141125623D01*
X155822776Y-140655262D01*
X155739668Y-140231367D01*
X155669815Y-139884315D01*
X155621887Y-139657667D01*
X155493461Y-139126567D01*
X155361449Y-138666420D01*
X155234298Y-138301679D01*
X155120453Y-138056799D01*
X155034948Y-137958482D01*
X154902121Y-137933755D01*
X154636399Y-137907313D01*
X154274158Y-137882062D01*
X153851774Y-137860905D01*
X153774379Y-137857839D01*
X153227718Y-137843908D01*
X152801487Y-137851335D01*
X152447802Y-137882931D01*
X152118778Y-137941510D01*
X152038712Y-137959766D01*
X151295142Y-138197432D01*
X150544523Y-138549751D01*
X149830399Y-138989730D01*
X149196313Y-139490379D01*
X148685809Y-140024706D01*
X148664834Y-140051153D01*
X148375439Y-140419667D01*
X148171538Y-140419667D01*
X148154925Y-140066937D01*
X148093135Y-139233639D01*
X148009552Y-138456091D01*
X147900527Y-137696546D01*
X147762407Y-136917259D01*
X147700853Y-136604725D01*
X147488581Y-135699136D01*
X147227856Y-134828717D01*
X146929330Y-134018991D01*
X146603656Y-133295481D01*
X146261489Y-132683707D01*
X145913480Y-132209193D01*
X145826729Y-132114915D01*
X145634933Y-131914620D01*
X145501386Y-131769516D01*
X145457333Y-131714667D01*
X145535016Y-131702921D01*
X145743919Y-131712366D01*
G37*
X145743919Y-131712366D02*
X146047821Y-131738942D01*
X146410502Y-131778587D01*
X146795742Y-131827241D01*
X147167320Y-131880842D01*
X147489017Y-131935331D01*
X147574000Y-131951981D01*
X148656785Y-132226745D01*
X149727224Y-132598915D01*
X150743507Y-133050577D01*
X151663825Y-133563814D01*
X152216926Y-133941412D01*
X152681803Y-134318638D01*
X153168610Y-134764637D01*
X153636123Y-135237817D01*
X154043117Y-135696589D01*
X154332290Y-136075502D01*
X154616203Y-136543272D01*
X154910320Y-137114383D01*
X155185930Y-137727378D01*
X155414319Y-138320798D01*
X155491578Y-138557000D01*
X155577194Y-138871338D01*
X155684991Y-139319241D01*
X155808110Y-139867447D01*
X155939694Y-140482699D01*
X156072884Y-141131734D01*
X156200820Y-141781294D01*
X156316644Y-142398117D01*
X156413498Y-142948945D01*
X156470026Y-143301823D01*
X156572552Y-143982645D01*
X157038192Y-144317823D01*
X157449621Y-144639361D01*
X157846324Y-144994739D01*
X158195672Y-145350980D01*
X158465038Y-145675109D01*
X158608934Y-145905317D01*
X158744064Y-146297856D01*
X158773114Y-146656561D01*
X158696701Y-146943982D01*
X158589666Y-147075738D01*
X158407170Y-147183760D01*
X158183320Y-147225755D01*
X157879262Y-147203180D01*
X157458833Y-147118126D01*
X156972000Y-147003564D01*
X156978917Y-147309949D01*
X156988991Y-147510370D01*
X157011490Y-147835976D01*
X157043186Y-148243342D01*
X157080850Y-148689043D01*
X157084750Y-148733249D01*
X157183666Y-149850164D01*
X158084746Y-150444840D01*
X158703769Y-150883353D01*
X159161598Y-151275321D01*
X159458007Y-151620410D01*
X159592771Y-151918283D01*
X159565666Y-152168605D01*
X159376467Y-152371038D01*
X159374265Y-152372486D01*
X159144375Y-152459282D01*
X158792859Y-152516907D01*
X158365159Y-152543791D01*
X157906717Y-152538367D01*
X157462976Y-152499063D01*
X157175895Y-152448407D01*
X156807433Y-152349503D01*
X156391330Y-152215491D01*
X156110918Y-152111717D01*
X155766994Y-151996404D01*
X155422520Y-151916564D01*
X155187357Y-151891264D01*
X154881425Y-151877127D01*
X154415940Y-151836169D01*
X153798403Y-151769258D01*
X153389961Y-151719951D01*
X155596958Y-151719951D01*
X155992812Y-151889634D01*
X156410850Y-152048117D01*
X156894681Y-152200981D01*
X157350565Y-152319444D01*
X157480000Y-152346290D01*
X157735645Y-152372913D01*
X158070639Y-152378880D01*
X158438073Y-152367023D01*
X158791042Y-152340170D01*
X159082640Y-152301152D01*
X159265958Y-152252800D01*
X159292801Y-152236918D01*
X159408488Y-152052413D01*
X159369391Y-151817900D01*
X159174437Y-151532047D01*
X158822550Y-151193522D01*
X158312658Y-150800993D01*
X157915427Y-150529077D01*
X157525234Y-150277467D01*
X157249493Y-150116104D01*
X157066599Y-150034427D01*
X156954946Y-150021877D01*
X156916055Y-150040630D01*
X156816327Y-150153878D01*
X156655996Y-150367694D01*
X156466118Y-150640265D01*
X156424297Y-150702710D01*
X156212503Y-151006856D01*
X156003022Y-151283881D01*
X155837422Y-151479103D01*
X155822313Y-151494596D01*
X155596958Y-151719951D01*
X153389961Y-151719951D01*
X153036315Y-151677259D01*
X152137179Y-151561037D01*
X151108495Y-151421458D01*
X151070198Y-151416155D01*
X149444063Y-151190836D01*
X148823975Y-151497227D01*
X148338527Y-151707097D01*
X147832513Y-151874438D01*
X147350125Y-151988368D01*
X146935551Y-152038001D01*
X146683788Y-152024359D01*
X146394198Y-151908295D01*
X146221012Y-151708831D01*
X146201468Y-151566681D01*
X146349523Y-151566681D01*
X146405656Y-151753661D01*
X146544042Y-151838541D01*
X146771520Y-151859677D01*
X147104233Y-151837607D01*
X147485845Y-151779806D01*
X147860020Y-151693746D01*
X148029564Y-151641476D01*
X148392854Y-151503517D01*
X148734576Y-151351202D01*
X149014041Y-151204772D01*
X149190559Y-151084467D01*
X149223672Y-151047481D01*
X149227965Y-150890151D01*
X149119420Y-150650188D01*
X148914496Y-150354305D01*
X148629653Y-150029212D01*
X148541246Y-149939962D01*
X148072831Y-149479000D01*
X147314462Y-150283334D01*
X147016591Y-150606391D01*
X146752776Y-150905665D01*
X146550123Y-151149510D01*
X146435739Y-151306281D01*
X146430645Y-151315137D01*
X146349523Y-151566681D01*
X146201468Y-151566681D01*
X146186455Y-151457490D01*
X146213420Y-151357218D01*
X146300462Y-151216074D01*
X146480658Y-150982662D01*
X146729691Y-150686674D01*
X147023246Y-150357802D01*
X147099203Y-150275580D01*
X147901732Y-149412914D01*
X147952551Y-148853291D01*
X147984939Y-148523331D01*
X148017955Y-148229167D01*
X148040568Y-148060834D01*
X148051141Y-147893029D01*
X148025140Y-147828000D01*
X147926872Y-147852303D01*
X147705025Y-147917711D01*
X147397054Y-148012973D01*
X147179577Y-148082000D01*
X146661383Y-148234988D01*
X146273584Y-148315932D01*
X145993713Y-148325632D01*
X145799299Y-148264887D01*
X145668702Y-148135762D01*
X145599314Y-147984694D01*
X145597858Y-147871000D01*
X145767875Y-147871000D01*
X145793252Y-148054182D01*
X145948918Y-148146785D01*
X146238478Y-148149537D01*
X146665537Y-148063161D01*
X147233702Y-147888385D01*
X147265562Y-147877448D01*
X147618589Y-147751280D01*
X147911052Y-147638401D01*
X148106009Y-147553558D01*
X148165031Y-147518371D01*
X148214988Y-147395746D01*
X148262399Y-147173930D01*
X148275490Y-147082860D01*
X148292992Y-146902784D01*
X148275528Y-146769668D01*
X148199326Y-146645188D01*
X148175435Y-146621980D01*
X148341463Y-146621980D01*
X148829714Y-147005571D01*
X149575795Y-147514913D01*
X150472660Y-147991650D01*
X151045333Y-148245367D01*
X151771824Y-148607785D01*
X152350616Y-149029183D01*
X152758631Y-149481727D01*
X153023079Y-149856901D01*
X153325372Y-149632375D01*
X153551658Y-149457953D01*
X153839742Y-149227440D01*
X154091880Y-149020091D01*
X154727489Y-148464628D01*
X155317770Y-147901510D01*
X155830031Y-147363385D01*
X156230628Y-146884155D01*
X156444342Y-146606673D01*
X156578319Y-146449166D01*
X156654294Y-146396046D01*
X156694004Y-146431727D01*
X156718097Y-146534574D01*
X156759098Y-146666296D01*
X156850672Y-146757717D01*
X157032458Y-146834085D01*
X157310763Y-146912057D01*
X157770088Y-147017467D01*
X158100359Y-147057112D01*
X158329017Y-147029904D01*
X158483504Y-146934754D01*
X158540244Y-146863299D01*
X158618032Y-146596903D01*
X158565858Y-146260682D01*
X158394205Y-145879411D01*
X158113556Y-145477865D01*
X157820012Y-145161000D01*
X157468788Y-144822334D01*
X157241560Y-145082353D01*
X157039952Y-145324699D01*
X156851956Y-145568213D01*
X156836619Y-145589340D01*
X156658905Y-145836307D01*
X156508981Y-144685187D01*
X156359058Y-143534067D01*
X155853292Y-143691479D01*
X155578660Y-143767542D01*
X155369235Y-143808218D01*
X155279389Y-143806780D01*
X155237739Y-143707413D01*
X155192639Y-143485966D01*
X155153489Y-143189203D01*
X155151673Y-143171398D01*
X155047741Y-142637202D01*
X154851446Y-142230736D01*
X154555452Y-141948019D01*
X154152423Y-141785072D01*
X153635026Y-141737913D01*
X152995925Y-141802563D01*
X152724800Y-141854521D01*
X152196771Y-141993984D01*
X151783563Y-142173645D01*
X151431297Y-142419082D01*
X151313080Y-142524646D01*
X150972833Y-142933560D01*
X150765180Y-143382235D01*
X150706666Y-143767354D01*
X150706666Y-144116121D01*
X150431500Y-144056629D01*
X150066394Y-143934104D01*
X149595540Y-143704908D01*
X149036917Y-143377976D01*
X148929807Y-143310316D01*
X148691829Y-143161511D01*
X148520649Y-143060328D01*
X148454704Y-143029082D01*
X148449254Y-143114278D01*
X148440016Y-143343815D01*
X148427845Y-143692768D01*
X148413597Y-144136207D01*
X148398127Y-144649205D01*
X148392795Y-144833157D01*
X148341463Y-146621980D01*
X148175435Y-146621980D01*
X148040616Y-146491018D01*
X147775626Y-146268836D01*
X147765307Y-146260324D01*
X147504573Y-146057780D01*
X147289042Y-145913395D01*
X147153429Y-145849552D01*
X147130298Y-145850922D01*
X147032220Y-145950023D01*
X146865794Y-146155489D01*
X146656173Y-146432505D01*
X146428508Y-146746259D01*
X146207950Y-147061936D01*
X146019652Y-147344721D01*
X145888766Y-147559800D01*
X145869180Y-147596516D01*
X145767875Y-147871000D01*
X145597858Y-147871000D01*
X145597156Y-147816239D01*
X145672067Y-147600923D01*
X145833884Y-147309277D01*
X146062325Y-146956623D01*
X146548701Y-146285102D01*
X147128349Y-145587041D01*
X147731601Y-144930428D01*
X148274747Y-144361190D01*
X148227733Y-142051762D01*
X148198574Y-140993729D01*
X148171538Y-140419667D01*
X148375439Y-140419667D01*
X148404548Y-141580346D01*
X148433656Y-142741025D01*
X148992855Y-143094191D01*
X149335633Y-143300672D01*
X149692692Y-143499979D01*
X149981194Y-143646271D01*
X150410333Y-143845184D01*
X150502475Y-143487092D01*
X150596632Y-143187652D01*
X150711144Y-142906658D01*
X150733088Y-142862331D01*
X150964039Y-142546506D01*
X151306538Y-142234239D01*
X151707464Y-141968571D01*
X152010589Y-141827263D01*
X152270100Y-141715430D01*
X152401052Y-141610371D01*
X152440093Y-141481720D01*
X152440329Y-141471192D01*
X152506769Y-141303169D01*
X152709822Y-141197967D01*
X153061249Y-141149932D01*
X153112999Y-141147773D01*
X153413756Y-141067631D01*
X153606225Y-140864988D01*
X153670000Y-140578857D01*
X153625752Y-140347295D01*
X153479883Y-140203947D01*
X153212701Y-140138348D01*
X152840056Y-140137830D01*
X152561110Y-140145676D01*
X152409176Y-140121257D01*
X152343447Y-140054914D01*
X152332793Y-140017747D01*
X152379420Y-139875263D01*
X152565804Y-139772821D01*
X152865297Y-139719112D01*
X153239845Y-139721893D01*
X153647480Y-139810775D01*
X153922149Y-140003423D01*
X154067114Y-140303021D01*
X154093333Y-140555593D01*
X154060351Y-140840094D01*
X153975739Y-141107935D01*
X153860995Y-141309287D01*
X153737618Y-141394321D01*
X153731325Y-141394630D01*
X153691884Y-141425570D01*
X153754666Y-141478000D01*
X153928560Y-141537829D01*
X154144312Y-141561370D01*
X154461497Y-141635274D01*
X154784767Y-141829069D01*
X155057744Y-142105259D01*
X155133994Y-142219598D01*
X155231375Y-142459715D01*
X155310009Y-142782991D01*
X155341049Y-143004882D01*
X155373374Y-143279329D01*
X155410546Y-143476152D01*
X155438810Y-143545043D01*
X155555969Y-143544093D01*
X155757859Y-143490943D01*
X155986160Y-143407579D01*
X156182553Y-143315989D01*
X156288717Y-143238159D01*
X156294347Y-143222499D01*
X156278896Y-143111246D01*
X156236589Y-142864200D01*
X156173157Y-142511738D01*
X156094329Y-142084237D01*
X156005836Y-141612073D01*
X155913408Y-141125623D01*
X155822776Y-140655262D01*
X155739668Y-140231367D01*
X155669815Y-139884315D01*
X155621887Y-139657667D01*
X155493461Y-139126567D01*
X155361449Y-138666420D01*
X155234298Y-138301679D01*
X155120453Y-138056799D01*
X155034948Y-137958482D01*
X154902121Y-137933755D01*
X154636399Y-137907313D01*
X154274158Y-137882062D01*
X153851774Y-137860905D01*
X153774379Y-137857839D01*
X153227718Y-137843908D01*
X152801487Y-137851335D01*
X152447802Y-137882931D01*
X152118778Y-137941510D01*
X152038712Y-137959766D01*
X151295142Y-138197432D01*
X150544523Y-138549751D01*
X149830399Y-138989730D01*
X149196313Y-139490379D01*
X148685809Y-140024706D01*
X148664834Y-140051153D01*
X148375439Y-140419667D01*
X148171538Y-140419667D01*
X148154925Y-140066937D01*
X148093135Y-139233639D01*
X148009552Y-138456091D01*
X147900527Y-137696546D01*
X147762407Y-136917259D01*
X147700853Y-136604725D01*
X147488581Y-135699136D01*
X147227856Y-134828717D01*
X146929330Y-134018991D01*
X146603656Y-133295481D01*
X146261489Y-132683707D01*
X145913480Y-132209193D01*
X145826729Y-132114915D01*
X145634933Y-131914620D01*
X145501386Y-131769516D01*
X145457333Y-131714667D01*
X145535016Y-131702921D01*
X145743919Y-131712366D01*
G36*
X153596077Y-143841429D02*
G01*
X153669953Y-143941352D01*
X153670000Y-143944487D01*
X153594843Y-144034653D01*
X153406243Y-144123650D01*
X153159498Y-144196213D01*
X152909911Y-144237080D01*
X152712782Y-144230987D01*
X152675166Y-144219069D01*
X152571351Y-144116356D01*
X152599425Y-144001685D01*
X152738183Y-143935456D01*
X152775488Y-143933334D01*
X153019293Y-143902041D01*
X153198086Y-143851042D01*
X153419911Y-143807588D01*
X153596077Y-143841429D01*
G37*
X153596077Y-143841429D02*
X153669953Y-143941352D01*
X153670000Y-143944487D01*
X153594843Y-144034653D01*
X153406243Y-144123650D01*
X153159498Y-144196213D01*
X152909911Y-144237080D01*
X152712782Y-144230987D01*
X152675166Y-144219069D01*
X152571351Y-144116356D01*
X152599425Y-144001685D01*
X152738183Y-143935456D01*
X152775488Y-143933334D01*
X153019293Y-143902041D01*
X153198086Y-143851042D01*
X153419911Y-143807588D01*
X153596077Y-143841429D01*
G36*
X151194476Y-139355258D02*
G01*
X151407757Y-139439129D01*
X151444476Y-139470191D01*
X151561040Y-139689653D01*
X151554072Y-139942078D01*
X151444997Y-140174933D01*
X151255236Y-140335685D01*
X151074544Y-140377334D01*
X150866356Y-140318888D01*
X150706666Y-140208000D01*
X150580051Y-140026865D01*
X150537333Y-139877260D01*
X150578596Y-139759109D01*
X150706666Y-139760135D01*
X150845402Y-139754490D01*
X150876000Y-139667542D01*
X150824800Y-139548816D01*
X150774400Y-139530667D01*
X150717308Y-139502212D01*
X150768050Y-139435417D01*
X150952562Y-139352547D01*
X151194476Y-139355258D01*
G37*
X151194476Y-139355258D02*
X151407757Y-139439129D01*
X151444476Y-139470191D01*
X151561040Y-139689653D01*
X151554072Y-139942078D01*
X151444997Y-140174933D01*
X151255236Y-140335685D01*
X151074544Y-140377334D01*
X150866356Y-140318888D01*
X150706666Y-140208000D01*
X150580051Y-140026865D01*
X150537333Y-139877260D01*
X150578596Y-139759109D01*
X150706666Y-139760135D01*
X150845402Y-139754490D01*
X150876000Y-139667542D01*
X150824800Y-139548816D01*
X150774400Y-139530667D01*
X150717308Y-139502212D01*
X150768050Y-139435417D01*
X150952562Y-139352547D01*
X151194476Y-139355258D01*
G36*
X154557971Y-138794403D02*
G01*
X154683089Y-138959766D01*
X154765262Y-139143942D01*
X154748400Y-139294393D01*
X154683339Y-139424834D01*
X154527700Y-139605236D01*
X154290527Y-139679364D01*
X154252759Y-139683115D01*
X154015691Y-139670899D01*
X153866326Y-139601684D01*
X153863615Y-139598448D01*
X153768744Y-139430986D01*
X153714337Y-139289475D01*
X153688052Y-139148624D01*
X153757653Y-139126618D01*
X153823849Y-139144753D01*
X153994718Y-139146760D01*
X154067156Y-139055127D01*
X154011050Y-138923364D01*
X153968863Y-138887047D01*
X153875426Y-138803279D01*
X153921204Y-138755021D01*
X154033898Y-138723060D01*
X154339620Y-138693544D01*
X154557971Y-138794403D01*
G37*
X154557971Y-138794403D02*
X154683089Y-138959766D01*
X154765262Y-139143942D01*
X154748400Y-139294393D01*
X154683339Y-139424834D01*
X154527700Y-139605236D01*
X154290527Y-139679364D01*
X154252759Y-139683115D01*
X154015691Y-139670899D01*
X153866326Y-139601684D01*
X153863615Y-139598448D01*
X153768744Y-139430986D01*
X153714337Y-139289475D01*
X153688052Y-139148624D01*
X153757653Y-139126618D01*
X153823849Y-139144753D01*
X153994718Y-139146760D01*
X154067156Y-139055127D01*
X154011050Y-138923364D01*
X153968863Y-138887047D01*
X153875426Y-138803279D01*
X153921204Y-138755021D01*
X154033898Y-138723060D01*
X154339620Y-138693544D01*
X154557971Y-138794403D01*
D13*
%TO.C,Q1*%
X163406400Y-122684800D02*
X163206400Y-122684800D01*
X163406400Y-121124800D02*
X163956400Y-121124800D01*
X163406400Y-121124800D02*
X163406400Y-121624800D01*
X167606400Y-121224800D02*
X167606400Y-121124800D01*
X167606400Y-121124800D02*
X167256400Y-121124800D01*
X167256400Y-123324800D02*
X167606400Y-123324800D01*
X167606400Y-123324800D02*
X167606400Y-123224800D01*
X163406400Y-123324800D02*
X163406400Y-122684800D01*
X163406400Y-123324800D02*
X163906400Y-123324800D01*
%TO.C,S1*%
X137100000Y-141680000D02*
X136600000Y-141680000D01*
X136600000Y-141680000D02*
X136600000Y-141780000D01*
X136600000Y-141780000D02*
X136300000Y-141780000D01*
X136300000Y-141780000D02*
X135100000Y-141780000D01*
X139700000Y-141680000D02*
X139200000Y-141680000D01*
X139700000Y-141680000D02*
X140200000Y-141680000D01*
X139700000Y-147880000D02*
X140200000Y-147880000D01*
X139700000Y-147880000D02*
X139200000Y-147880000D01*
X142800000Y-144780000D02*
X142800000Y-145280000D01*
X142800000Y-144780000D02*
X142800000Y-144280000D01*
X136600000Y-144780000D02*
X136600000Y-145280000D01*
X136600000Y-144780000D02*
X136600000Y-144280000D01*
%TO.C,S2*%
X162500000Y-141680000D02*
X162000000Y-141680000D01*
X162000000Y-141680000D02*
X162000000Y-141780000D01*
X162000000Y-141780000D02*
X161700000Y-141780000D01*
X161700000Y-141780000D02*
X160500000Y-141780000D01*
X165100000Y-141680000D02*
X164600000Y-141680000D01*
X165100000Y-141680000D02*
X165600000Y-141680000D01*
X165100000Y-147880000D02*
X165600000Y-147880000D01*
X165100000Y-147880000D02*
X164600000Y-147880000D01*
X168200000Y-144780000D02*
X168200000Y-145280000D01*
X168200000Y-144780000D02*
X168200000Y-144280000D01*
X162000000Y-144780000D02*
X162000000Y-145280000D01*
X162000000Y-144780000D02*
X162000000Y-144280000D01*
D11*
%TO.C,U1*%
X140970000Y-119360000D02*
X139020000Y-119360000D01*
X140970000Y-119360000D02*
X142920000Y-119360000D01*
X140970000Y-124480000D02*
X139020000Y-124480000D01*
X140970000Y-124480000D02*
X144420000Y-124480000D01*
%TO.C,J1*%
X172780000Y-99060000D02*
X172780000Y-100390000D01*
X172780000Y-100390000D02*
X171450000Y-100390000D01*
X170180000Y-100390000D02*
X132020000Y-100390000D01*
X132020000Y-97730000D02*
X132020000Y-100390000D01*
X170180000Y-97730000D02*
X132020000Y-97730000D01*
X170180000Y-97730000D02*
X170180000Y-100390000D01*
%TO.C,J2*%
X172780000Y-78740000D02*
X172780000Y-80070000D01*
X172780000Y-80070000D02*
X171450000Y-80070000D01*
X170180000Y-80070000D02*
X142180000Y-80070000D01*
X142180000Y-77410000D02*
X142180000Y-80070000D01*
X170180000Y-77410000D02*
X142180000Y-77410000D01*
X170180000Y-77410000D02*
X170180000Y-80070000D01*
%TO.C,C1*%
X134372680Y-119209452D02*
X134372680Y-118686948D01*
X135842680Y-119209452D02*
X135842680Y-118686948D01*
%TO.C,R1*%
X170435600Y-122629664D02*
X170435600Y-122175536D01*
X171905600Y-122629664D02*
X171905600Y-122175536D01*
D13*
%TO.C,J3*%
X133287600Y-104314800D02*
X132787600Y-104314800D01*
X133287600Y-104314800D02*
X133287600Y-104814800D01*
X127987600Y-104314800D02*
X128487600Y-104314800D01*
X127987600Y-104314800D02*
X127987600Y-104814800D01*
X127987600Y-107114800D02*
X128487600Y-107114800D01*
X127987600Y-107114800D02*
X127987600Y-106614800D01*
X133287600Y-107114800D02*
X132787600Y-107114800D01*
X133287600Y-107114800D02*
X133287600Y-106614800D01*
%TO.C,S3*%
X128506800Y-122904800D02*
X128506800Y-122404800D01*
X128506800Y-122904800D02*
X129006800Y-122904800D01*
X128506800Y-111004800D02*
X128506800Y-111504800D01*
X128506800Y-111004800D02*
X129006800Y-111004800D01*
X132706800Y-111004800D02*
X132706800Y-111504800D01*
X132706800Y-111004800D02*
X132206800Y-111004800D01*
X132706800Y-122904800D02*
X132206800Y-122904800D01*
X132706800Y-122904800D02*
X132706800Y-122404800D01*
D11*
%TO.C,R7*%
X147092936Y-104875000D02*
X147547064Y-104875000D01*
X147092936Y-103405000D02*
X147547064Y-103405000D01*
%TO.C,R9*%
X157707064Y-104875000D02*
X157252936Y-104875000D01*
X157707064Y-103405000D02*
X157252936Y-103405000D01*
%TO.C,D1*%
X139020000Y-106990000D02*
X136160000Y-106990000D01*
X139020000Y-108910000D02*
X139020000Y-106990000D01*
X136160000Y-108910000D02*
X139020000Y-108910000D01*
%TO.C,D2*%
X146320000Y-108910000D02*
X149180000Y-108910000D01*
X149180000Y-108910000D02*
X149180000Y-106990000D01*
X149180000Y-106990000D02*
X146320000Y-106990000D01*
%TO.C,D3*%
X159340000Y-106990000D02*
X156480000Y-106990000D01*
X159340000Y-108910000D02*
X159340000Y-106990000D01*
X156480000Y-108910000D02*
X159340000Y-108910000D01*
%TO.C,D4*%
X166640000Y-108910000D02*
X169500000Y-108910000D01*
X169500000Y-108910000D02*
X169500000Y-106990000D01*
X169500000Y-106990000D02*
X166640000Y-106990000D01*
%TO.C,R4*%
X136536100Y-134745464D02*
X136536100Y-134291336D01*
X135066100Y-134745464D02*
X135066100Y-134291336D01*
%TO.C,R5*%
X168276600Y-134948664D02*
X168276600Y-134494536D01*
X169746600Y-134948664D02*
X169746600Y-134494536D01*
%TO.C,R6*%
X136932936Y-104875000D02*
X137387064Y-104875000D01*
X136932936Y-103405000D02*
X137387064Y-103405000D01*
%TO.C,R8*%
X167867064Y-104875000D02*
X167412936Y-104875000D01*
X167867064Y-103405000D02*
X167412936Y-103405000D01*
%TO.C,C2*%
X152138748Y-90651000D02*
X152661252Y-90651000D01*
X152138748Y-89181000D02*
X152661252Y-89181000D01*
%TO.C,C3*%
X148817000Y-86388752D02*
X148817000Y-85866248D01*
X147347000Y-86388752D02*
X147347000Y-85866248D01*
%TO.C,C4*%
X156945000Y-88638748D02*
X156945000Y-89161252D01*
X155475000Y-88638748D02*
X155475000Y-89161252D01*
%TO.C,R2*%
X165015936Y-85752000D02*
X165470064Y-85752000D01*
X165015936Y-87222000D02*
X165470064Y-87222000D01*
%TO.C,R3*%
X165126936Y-83412000D02*
X165581064Y-83412000D01*
X165126936Y-81942000D02*
X165581064Y-81942000D01*
D13*
%TO.C,U2*%
X150800000Y-87309000D02*
X150800000Y-87109000D01*
X150800000Y-87309000D02*
X151100000Y-87309000D01*
X154000000Y-87309000D02*
X153700000Y-87309000D01*
X154000000Y-87309000D02*
X154000000Y-87109000D01*
X154000000Y-82109000D02*
X153700000Y-82109000D01*
X154000000Y-82109000D02*
X154000000Y-82309000D01*
X151000000Y-82309000D02*
X150800000Y-82309000D01*
X151200000Y-82109000D02*
X151000000Y-82309000D01*
X151500000Y-82109000D02*
X151200000Y-82109000D01*
%TD*%
M02*
