%TF.GenerationSoftware,KiCad,Pcbnew,5.1.12-1.fc35*%
%TF.CreationDate,2022-01-13T15:21:34+01:00*%
%TF.ProjectId,burrboard,62757272-626f-4617-9264-2e6b69636164,v2.0*%
%TF.SameCoordinates,Original*%
%TF.FileFunction,Copper,L2,Bot*%
%TF.FilePolarity,Positive*%
%FSLAX46Y46*%
G04 Gerber Fmt 4.6, Leading zero omitted, Abs format (unit mm)*
G04 Created by KiCad (PCBNEW 5.1.12-1.fc35) date 2022-01-13 15:21:34*
%MOMM*%
%LPD*%
G01*
G04 APERTURE LIST*
%TA.AperFunction,ComponentPad*%
%ADD10R,3.000000X3.000000*%
%TD*%
%TA.AperFunction,ComponentPad*%
%ADD11C,3.000000*%
%TD*%
%TA.AperFunction,ComponentPad*%
%ADD12R,1.700000X1.700000*%
%TD*%
%TA.AperFunction,ComponentPad*%
%ADD13O,1.700000X1.700000*%
%TD*%
%TA.AperFunction,ComponentPad*%
%ADD14C,1.524000*%
%TD*%
%TA.AperFunction,ComponentPad*%
%ADD15R,1.900000X1.900000*%
%TD*%
%TA.AperFunction,ComponentPad*%
%ADD16C,1.900000*%
%TD*%
%TA.AperFunction,ViaPad*%
%ADD17C,0.762000*%
%TD*%
%TA.AperFunction,Conductor*%
%ADD18C,0.508000*%
%TD*%
%TA.AperFunction,Conductor*%
%ADD19C,0.304800*%
%TD*%
%TA.AperFunction,Conductor*%
%ADD20C,0.254000*%
%TD*%
%TA.AperFunction,Conductor*%
%ADD21C,0.100000*%
%TD*%
G04 APERTURE END LIST*
D10*
%TO.P,BT1,1*%
%TO.N,VDD*%
X140716000Y-104140000D03*
D11*
%TO.P,BT1,2*%
%TO.N,GND*%
X153416000Y-104140000D03*
%TD*%
D12*
%TO.P,J1,1*%
%TO.N,Net-(J1-Pad1)*%
X171450000Y-99060000D03*
D13*
%TO.P,J1,2*%
%TO.N,Net-(J1-Pad2)*%
X168910000Y-99060000D03*
%TO.P,J1,3*%
%TO.N,Net-(J1-Pad3)*%
X166370000Y-99060000D03*
%TO.P,J1,4*%
%TO.N,Net-(J1-Pad4)*%
X163830000Y-99060000D03*
%TO.P,J1,5*%
%TO.N,Net-(J1-Pad5)*%
X161290000Y-99060000D03*
%TO.P,J1,6*%
%TO.N,Net-(J1-Pad6)*%
X158750000Y-99060000D03*
%TO.P,J1,7*%
%TO.N,/A5*%
X156210000Y-99060000D03*
%TO.P,J1,8*%
%TO.N,/A4*%
X153670000Y-99060000D03*
%TO.P,J1,9*%
%TO.N,/A3*%
X151130000Y-99060000D03*
%TO.P,J1,10*%
%TO.N,/A2*%
X148590000Y-99060000D03*
%TO.P,J1,11*%
%TO.N,/A1*%
X146050000Y-99060000D03*
%TO.P,J1,12*%
%TO.N,/A0*%
X143510000Y-99060000D03*
%TO.P,J1,13*%
%TO.N,GND*%
X140970000Y-99060000D03*
%TO.P,J1,14*%
%TO.N,Net-(J1-Pad14)*%
X138430000Y-99060000D03*
%TO.P,J1,15*%
%TO.N,/3V3*%
X135890000Y-99060000D03*
%TO.P,J1,16*%
%TO.N,Net-(J1-Pad16)*%
X133350000Y-99060000D03*
%TD*%
D12*
%TO.P,J2,1*%
%TO.N,/SDA*%
X171450000Y-78740000D03*
D13*
%TO.P,J2,2*%
%TO.N,/SCL*%
X168910000Y-78740000D03*
%TO.P,J2,3*%
%TO.N,/F0*%
X166370000Y-78740000D03*
%TO.P,J2,4*%
%TO.N,/F1*%
X163830000Y-78740000D03*
%TO.P,J2,5*%
%TO.N,/F2*%
X161290000Y-78740000D03*
%TO.P,J2,6*%
%TO.N,/F3*%
X158750000Y-78740000D03*
%TO.P,J2,7*%
%TO.N,Net-(J2-Pad7)*%
X156210000Y-78740000D03*
%TO.P,J2,8*%
%TO.N,Net-(J2-Pad8)*%
X153670000Y-78740000D03*
%TO.P,J2,9*%
%TO.N,Net-(J2-Pad9)*%
X151130000Y-78740000D03*
%TO.P,J2,10*%
%TO.N,/VUSB*%
X148590000Y-78740000D03*
%TO.P,J2,11*%
%TO.N,/EN*%
X146050000Y-78740000D03*
%TO.P,J2,12*%
%TO.N,Net-(J2-Pad12)*%
X143510000Y-78740000D03*
%TD*%
D14*
%TO.P,J3,2*%
%TO.N,VDD*%
X131927600Y-105734800D03*
%TO.P,J3,1*%
%TO.N,/VUSB*%
X129387600Y-105714800D03*
%TD*%
D15*
%TO.P,S3,1*%
%TO.N,Net-(S3-Pad1)*%
X130606800Y-114604800D03*
D16*
%TO.P,S3,2*%
%TO.N,/EN*%
X130606800Y-117104800D03*
%TO.P,S3,3*%
%TO.N,GND*%
X130606800Y-119604800D03*
%TD*%
D17*
%TO.N,/3V3*%
X161041080Y-122224800D03*
X149115805Y-93489805D03*
X153705560Y-86319360D03*
%TO.N,/F0*%
X151480520Y-96499680D03*
X162097720Y-82844640D03*
%TO.N,/F1*%
X148849080Y-94762320D03*
X159400240Y-82727800D03*
%TO.N,/SCL*%
X160248600Y-93675200D03*
X169580560Y-85709760D03*
%TD*%
D18*
%TO.N,VDD*%
X133522400Y-104140000D02*
X131927600Y-105734800D01*
X140716000Y-104140000D02*
X133522400Y-104140000D01*
D19*
%TO.N,/3V3*%
X137146401Y-100316401D02*
X135890000Y-99060000D01*
X140623923Y-100316401D02*
X137146401Y-100316401D01*
X161041080Y-120733558D02*
X140623923Y-100316401D01*
X161041080Y-122224800D02*
X161041080Y-120733558D01*
X149115805Y-90909115D02*
X149115805Y-93489805D01*
X153705560Y-86319360D02*
X149115805Y-90909115D01*
D20*
%TO.N,/F0*%
X152310201Y-92632159D02*
X152310201Y-95669999D01*
X152310201Y-95669999D02*
X151480520Y-96499680D01*
X162097720Y-82844640D02*
X152310201Y-92632159D01*
%TO.N,/F1*%
X154416761Y-89194639D02*
X154416761Y-89184479D01*
X148849080Y-94762320D02*
X154416761Y-89194639D01*
X159400240Y-84201000D02*
X159400240Y-82727800D01*
X154416761Y-89184479D02*
X159400240Y-84201000D01*
D18*
%TO.N,/VUSB*%
X129387600Y-97942400D02*
X148590000Y-78740000D01*
X129387600Y-105714800D02*
X129387600Y-97942400D01*
D20*
%TO.N,/EN*%
X127355210Y-113853210D02*
X127355210Y-97973270D01*
X130606800Y-117104800D02*
X127355210Y-113853210D01*
X146050000Y-79278480D02*
X146050000Y-78740000D01*
X127355210Y-97973270D02*
X146050000Y-79278480D01*
%TO.N,/SCL*%
X168214040Y-85709760D02*
X169580560Y-85709760D01*
X160248600Y-93675200D02*
X168214040Y-85709760D01*
%TD*%
%TO.N,GND*%
X177394000Y-154534000D02*
X127406000Y-154534000D01*
X127406000Y-127652577D01*
X138610000Y-127652577D01*
X138610000Y-128067423D01*
X138690932Y-128474298D01*
X138849687Y-128857565D01*
X139080163Y-129202497D01*
X139373503Y-129495837D01*
X139718435Y-129726313D01*
X140101702Y-129885068D01*
X140508577Y-129966000D01*
X140923423Y-129966000D01*
X141330298Y-129885068D01*
X141713565Y-129726313D01*
X142058497Y-129495837D01*
X142351837Y-129202497D01*
X142582313Y-128857565D01*
X142741068Y-128474298D01*
X142822000Y-128067423D01*
X142822000Y-127652577D01*
X162110000Y-127652577D01*
X162110000Y-128067423D01*
X162190932Y-128474298D01*
X162349687Y-128857565D01*
X162580163Y-129202497D01*
X162873503Y-129495837D01*
X163218435Y-129726313D01*
X163601702Y-129885068D01*
X164008577Y-129966000D01*
X164423423Y-129966000D01*
X164830298Y-129885068D01*
X165213565Y-129726313D01*
X165558497Y-129495837D01*
X165851837Y-129202497D01*
X166082313Y-128857565D01*
X166241068Y-128474298D01*
X166322000Y-128067423D01*
X166322000Y-127652577D01*
X166241068Y-127245702D01*
X166082313Y-126862435D01*
X165851837Y-126517503D01*
X165558497Y-126224163D01*
X165213565Y-125993687D01*
X164830298Y-125834932D01*
X164423423Y-125754000D01*
X164008577Y-125754000D01*
X163601702Y-125834932D01*
X163218435Y-125993687D01*
X162873503Y-126224163D01*
X162580163Y-126517503D01*
X162349687Y-126862435D01*
X162190932Y-127245702D01*
X162110000Y-127652577D01*
X142822000Y-127652577D01*
X142741068Y-127245702D01*
X142582313Y-126862435D01*
X142351837Y-126517503D01*
X142058497Y-126224163D01*
X141713565Y-125993687D01*
X141330298Y-125834932D01*
X140923423Y-125754000D01*
X140508577Y-125754000D01*
X140101702Y-125834932D01*
X139718435Y-125993687D01*
X139373503Y-126224163D01*
X139080163Y-126517503D01*
X138849687Y-126862435D01*
X138690932Y-127245702D01*
X138610000Y-127652577D01*
X127406000Y-127652577D01*
X127406000Y-120704552D01*
X129686653Y-120704552D01*
X129776379Y-120963842D01*
X130057471Y-121099735D01*
X130359673Y-121178179D01*
X130671373Y-121196159D01*
X130980591Y-121152984D01*
X131275444Y-121050313D01*
X131437221Y-120963842D01*
X131526947Y-120704552D01*
X130606800Y-119784405D01*
X129686653Y-120704552D01*
X127406000Y-120704552D01*
X127406000Y-119669373D01*
X129015441Y-119669373D01*
X129058616Y-119978591D01*
X129161287Y-120273444D01*
X129247758Y-120435221D01*
X129507048Y-120524947D01*
X130427195Y-119604800D01*
X130786405Y-119604800D01*
X131706552Y-120524947D01*
X131965842Y-120435221D01*
X132101735Y-120154129D01*
X132180179Y-119851927D01*
X132198159Y-119540227D01*
X132154984Y-119231009D01*
X132052313Y-118936156D01*
X131965842Y-118774379D01*
X131706552Y-118684653D01*
X130786405Y-119604800D01*
X130427195Y-119604800D01*
X129507048Y-118684653D01*
X129247758Y-118774379D01*
X129111865Y-119055471D01*
X129033421Y-119357673D01*
X129015441Y-119669373D01*
X127406000Y-119669373D01*
X127406000Y-114622420D01*
X129377677Y-116594097D01*
X129326950Y-116716562D01*
X129275800Y-116973708D01*
X129275800Y-117235892D01*
X129326950Y-117493038D01*
X129427283Y-117735265D01*
X129572945Y-117953263D01*
X129758337Y-118138655D01*
X129855408Y-118203516D01*
X129776379Y-118245758D01*
X129686653Y-118505048D01*
X130606800Y-119425195D01*
X131526947Y-118505048D01*
X131437221Y-118245758D01*
X131354688Y-118205858D01*
X131455263Y-118138655D01*
X131640655Y-117953263D01*
X131786317Y-117735265D01*
X131886650Y-117493038D01*
X131937800Y-117235892D01*
X131937800Y-116973708D01*
X131886650Y-116716562D01*
X131786317Y-116474335D01*
X131640655Y-116256337D01*
X131455263Y-116070945D01*
X131255763Y-115937643D01*
X131556800Y-115937643D01*
X131631489Y-115930287D01*
X131703308Y-115908501D01*
X131769496Y-115873122D01*
X131827511Y-115825511D01*
X131875122Y-115767496D01*
X131910501Y-115701308D01*
X131932287Y-115629489D01*
X131939643Y-115554800D01*
X131939643Y-113654800D01*
X131932287Y-113580111D01*
X131910501Y-113508292D01*
X131875122Y-113442104D01*
X131827511Y-113384089D01*
X131769496Y-113336478D01*
X131703308Y-113301099D01*
X131631489Y-113279313D01*
X131556800Y-113271957D01*
X129656800Y-113271957D01*
X129582111Y-113279313D01*
X129510292Y-113301099D01*
X129444104Y-113336478D01*
X129386089Y-113384089D01*
X129338478Y-113442104D01*
X129303099Y-113508292D01*
X129281313Y-113580111D01*
X129273957Y-113654800D01*
X129273957Y-115053537D01*
X127863210Y-113642790D01*
X127863210Y-98183690D01*
X146075900Y-79971000D01*
X146171243Y-79971000D01*
X146409069Y-79923693D01*
X146578434Y-79853540D01*
X128960646Y-97471330D01*
X128936416Y-97491215D01*
X128916532Y-97515444D01*
X128857063Y-97587907D01*
X128798098Y-97698221D01*
X128785472Y-97739845D01*
X128761789Y-97817918D01*
X128752601Y-97911208D01*
X128749529Y-97942400D01*
X128752601Y-97973591D01*
X128752600Y-104764419D01*
X128658980Y-104826974D01*
X128499774Y-104986180D01*
X128374687Y-105173387D01*
X128288525Y-105381399D01*
X128244600Y-105602224D01*
X128244600Y-105827376D01*
X128288525Y-106048201D01*
X128374687Y-106256213D01*
X128499774Y-106443420D01*
X128658980Y-106602626D01*
X128846187Y-106727713D01*
X129054199Y-106813875D01*
X129275024Y-106857800D01*
X129500176Y-106857800D01*
X129721001Y-106813875D01*
X129929013Y-106727713D01*
X130116220Y-106602626D01*
X130275426Y-106443420D01*
X130400513Y-106256213D01*
X130486675Y-106048201D01*
X130530600Y-105827376D01*
X130530600Y-105622224D01*
X130784600Y-105622224D01*
X130784600Y-105847376D01*
X130828525Y-106068201D01*
X130914687Y-106276213D01*
X131039774Y-106463420D01*
X131198980Y-106622626D01*
X131386187Y-106747713D01*
X131594199Y-106833875D01*
X131815024Y-106877800D01*
X132040176Y-106877800D01*
X132261001Y-106833875D01*
X132469013Y-106747713D01*
X132656220Y-106622626D01*
X132815426Y-106463420D01*
X132940513Y-106276213D01*
X133026675Y-106068201D01*
X133070600Y-105847376D01*
X133070600Y-105622224D01*
X133048633Y-105511791D01*
X133785426Y-104775000D01*
X138833157Y-104775000D01*
X138833157Y-105640000D01*
X138840513Y-105714689D01*
X138862299Y-105786508D01*
X138897678Y-105852696D01*
X138945289Y-105910711D01*
X139003304Y-105958322D01*
X139069492Y-105993701D01*
X139141311Y-106015487D01*
X139216000Y-106022843D01*
X142216000Y-106022843D01*
X142290689Y-106015487D01*
X142362508Y-105993701D01*
X142428696Y-105958322D01*
X142486711Y-105910711D01*
X142534322Y-105852696D01*
X142569701Y-105786508D01*
X142591487Y-105714689D01*
X142598843Y-105640000D01*
X142598843Y-103045662D01*
X160507681Y-120954501D01*
X160507680Y-121680569D01*
X160449196Y-121739053D01*
X160365804Y-121863858D01*
X160308363Y-122002533D01*
X160279080Y-122149750D01*
X160279080Y-122299850D01*
X160308363Y-122447067D01*
X160365804Y-122585742D01*
X160449196Y-122710547D01*
X160555333Y-122816684D01*
X160680138Y-122900076D01*
X160818813Y-122957517D01*
X160966030Y-122986800D01*
X161116130Y-122986800D01*
X161263347Y-122957517D01*
X161402022Y-122900076D01*
X161526827Y-122816684D01*
X161632964Y-122710547D01*
X161716356Y-122585742D01*
X161773797Y-122447067D01*
X161803080Y-122299850D01*
X161803080Y-122149750D01*
X161773797Y-122002533D01*
X161716356Y-121863858D01*
X161632964Y-121739053D01*
X161574480Y-121680569D01*
X161574480Y-120759744D01*
X161577059Y-120733557D01*
X161574480Y-120707370D01*
X161574480Y-120707363D01*
X161566761Y-120628993D01*
X161536261Y-120528447D01*
X161486731Y-120435783D01*
X161420075Y-120354563D01*
X161399731Y-120337867D01*
X146693517Y-105631653D01*
X152103952Y-105631653D01*
X152259962Y-105947214D01*
X152634745Y-106138020D01*
X153039551Y-106252044D01*
X153458824Y-106284902D01*
X153876451Y-106235334D01*
X154276383Y-106105243D01*
X154572038Y-105947214D01*
X154728048Y-105631653D01*
X153416000Y-104319605D01*
X152103952Y-105631653D01*
X146693517Y-105631653D01*
X145244688Y-104182824D01*
X151271098Y-104182824D01*
X151320666Y-104600451D01*
X151450757Y-105000383D01*
X151608786Y-105296038D01*
X151924347Y-105452048D01*
X153236395Y-104140000D01*
X153595605Y-104140000D01*
X154907653Y-105452048D01*
X155223214Y-105296038D01*
X155414020Y-104921255D01*
X155528044Y-104516449D01*
X155560902Y-104097176D01*
X155511334Y-103679549D01*
X155381243Y-103279617D01*
X155223214Y-102983962D01*
X154907653Y-102827952D01*
X153595605Y-104140000D01*
X153236395Y-104140000D01*
X151924347Y-102827952D01*
X151608786Y-102983962D01*
X151417980Y-103358745D01*
X151303956Y-103763551D01*
X151271098Y-104182824D01*
X145244688Y-104182824D01*
X143710211Y-102648347D01*
X152103952Y-102648347D01*
X153416000Y-103960395D01*
X154728048Y-102648347D01*
X154572038Y-102332786D01*
X154197255Y-102141980D01*
X153792449Y-102027956D01*
X153373176Y-101995098D01*
X152955549Y-102044666D01*
X152555617Y-102174757D01*
X152259962Y-102332786D01*
X152103952Y-102648347D01*
X143710211Y-102648347D01*
X141504302Y-100442439D01*
X141736920Y-100331641D01*
X141970269Y-100157588D01*
X142165178Y-99941355D01*
X142314157Y-99691252D01*
X142371772Y-99528832D01*
X142419102Y-99643097D01*
X142553820Y-99844717D01*
X142725283Y-100016180D01*
X142926903Y-100150898D01*
X143150931Y-100243693D01*
X143388757Y-100291000D01*
X143631243Y-100291000D01*
X143869069Y-100243693D01*
X144093097Y-100150898D01*
X144294717Y-100016180D01*
X144466180Y-99844717D01*
X144600898Y-99643097D01*
X144693693Y-99419069D01*
X144741000Y-99181243D01*
X144741000Y-98938757D01*
X144819000Y-98938757D01*
X144819000Y-99181243D01*
X144866307Y-99419069D01*
X144959102Y-99643097D01*
X145093820Y-99844717D01*
X145265283Y-100016180D01*
X145466903Y-100150898D01*
X145690931Y-100243693D01*
X145928757Y-100291000D01*
X146171243Y-100291000D01*
X146409069Y-100243693D01*
X146633097Y-100150898D01*
X146834717Y-100016180D01*
X147006180Y-99844717D01*
X147140898Y-99643097D01*
X147233693Y-99419069D01*
X147281000Y-99181243D01*
X147281000Y-98938757D01*
X147359000Y-98938757D01*
X147359000Y-99181243D01*
X147406307Y-99419069D01*
X147499102Y-99643097D01*
X147633820Y-99844717D01*
X147805283Y-100016180D01*
X148006903Y-100150898D01*
X148230931Y-100243693D01*
X148468757Y-100291000D01*
X148711243Y-100291000D01*
X148949069Y-100243693D01*
X149173097Y-100150898D01*
X149374717Y-100016180D01*
X149546180Y-99844717D01*
X149680898Y-99643097D01*
X149773693Y-99419069D01*
X149821000Y-99181243D01*
X149821000Y-98938757D01*
X149899000Y-98938757D01*
X149899000Y-99181243D01*
X149946307Y-99419069D01*
X150039102Y-99643097D01*
X150173820Y-99844717D01*
X150345283Y-100016180D01*
X150546903Y-100150898D01*
X150770931Y-100243693D01*
X151008757Y-100291000D01*
X151251243Y-100291000D01*
X151489069Y-100243693D01*
X151713097Y-100150898D01*
X151914717Y-100016180D01*
X152086180Y-99844717D01*
X152220898Y-99643097D01*
X152313693Y-99419069D01*
X152361000Y-99181243D01*
X152361000Y-98938757D01*
X152439000Y-98938757D01*
X152439000Y-99181243D01*
X152486307Y-99419069D01*
X152579102Y-99643097D01*
X152713820Y-99844717D01*
X152885283Y-100016180D01*
X153086903Y-100150898D01*
X153310931Y-100243693D01*
X153548757Y-100291000D01*
X153791243Y-100291000D01*
X154029069Y-100243693D01*
X154253097Y-100150898D01*
X154454717Y-100016180D01*
X154626180Y-99844717D01*
X154760898Y-99643097D01*
X154853693Y-99419069D01*
X154901000Y-99181243D01*
X154901000Y-98938757D01*
X154979000Y-98938757D01*
X154979000Y-99181243D01*
X155026307Y-99419069D01*
X155119102Y-99643097D01*
X155253820Y-99844717D01*
X155425283Y-100016180D01*
X155626903Y-100150898D01*
X155850931Y-100243693D01*
X156088757Y-100291000D01*
X156331243Y-100291000D01*
X156569069Y-100243693D01*
X156793097Y-100150898D01*
X156994717Y-100016180D01*
X157166180Y-99844717D01*
X157300898Y-99643097D01*
X157393693Y-99419069D01*
X157441000Y-99181243D01*
X157441000Y-98938757D01*
X157519000Y-98938757D01*
X157519000Y-99181243D01*
X157566307Y-99419069D01*
X157659102Y-99643097D01*
X157793820Y-99844717D01*
X157965283Y-100016180D01*
X158166903Y-100150898D01*
X158390931Y-100243693D01*
X158628757Y-100291000D01*
X158871243Y-100291000D01*
X159109069Y-100243693D01*
X159333097Y-100150898D01*
X159534717Y-100016180D01*
X159706180Y-99844717D01*
X159840898Y-99643097D01*
X159933693Y-99419069D01*
X159981000Y-99181243D01*
X159981000Y-98938757D01*
X160059000Y-98938757D01*
X160059000Y-99181243D01*
X160106307Y-99419069D01*
X160199102Y-99643097D01*
X160333820Y-99844717D01*
X160505283Y-100016180D01*
X160706903Y-100150898D01*
X160930931Y-100243693D01*
X161168757Y-100291000D01*
X161411243Y-100291000D01*
X161649069Y-100243693D01*
X161873097Y-100150898D01*
X162074717Y-100016180D01*
X162246180Y-99844717D01*
X162380898Y-99643097D01*
X162473693Y-99419069D01*
X162521000Y-99181243D01*
X162521000Y-98938757D01*
X162599000Y-98938757D01*
X162599000Y-99181243D01*
X162646307Y-99419069D01*
X162739102Y-99643097D01*
X162873820Y-99844717D01*
X163045283Y-100016180D01*
X163246903Y-100150898D01*
X163470931Y-100243693D01*
X163708757Y-100291000D01*
X163951243Y-100291000D01*
X164189069Y-100243693D01*
X164413097Y-100150898D01*
X164614717Y-100016180D01*
X164786180Y-99844717D01*
X164920898Y-99643097D01*
X165013693Y-99419069D01*
X165061000Y-99181243D01*
X165061000Y-98938757D01*
X165139000Y-98938757D01*
X165139000Y-99181243D01*
X165186307Y-99419069D01*
X165279102Y-99643097D01*
X165413820Y-99844717D01*
X165585283Y-100016180D01*
X165786903Y-100150898D01*
X166010931Y-100243693D01*
X166248757Y-100291000D01*
X166491243Y-100291000D01*
X166729069Y-100243693D01*
X166953097Y-100150898D01*
X167154717Y-100016180D01*
X167326180Y-99844717D01*
X167460898Y-99643097D01*
X167553693Y-99419069D01*
X167601000Y-99181243D01*
X167601000Y-98938757D01*
X167679000Y-98938757D01*
X167679000Y-99181243D01*
X167726307Y-99419069D01*
X167819102Y-99643097D01*
X167953820Y-99844717D01*
X168125283Y-100016180D01*
X168326903Y-100150898D01*
X168550931Y-100243693D01*
X168788757Y-100291000D01*
X169031243Y-100291000D01*
X169269069Y-100243693D01*
X169493097Y-100150898D01*
X169694717Y-100016180D01*
X169866180Y-99844717D01*
X170000898Y-99643097D01*
X170093693Y-99419069D01*
X170141000Y-99181243D01*
X170141000Y-98938757D01*
X170093693Y-98700931D01*
X170000898Y-98476903D01*
X169866180Y-98275283D01*
X169800897Y-98210000D01*
X170217157Y-98210000D01*
X170217157Y-99910000D01*
X170224513Y-99984689D01*
X170246299Y-100056508D01*
X170281678Y-100122696D01*
X170329289Y-100180711D01*
X170387304Y-100228322D01*
X170453492Y-100263701D01*
X170525311Y-100285487D01*
X170600000Y-100292843D01*
X172300000Y-100292843D01*
X172374689Y-100285487D01*
X172446508Y-100263701D01*
X172512696Y-100228322D01*
X172570711Y-100180711D01*
X172618322Y-100122696D01*
X172653701Y-100056508D01*
X172675487Y-99984689D01*
X172682843Y-99910000D01*
X172682843Y-98210000D01*
X172675487Y-98135311D01*
X172653701Y-98063492D01*
X172618322Y-97997304D01*
X172570711Y-97939289D01*
X172512696Y-97891678D01*
X172446508Y-97856299D01*
X172374689Y-97834513D01*
X172300000Y-97827157D01*
X170600000Y-97827157D01*
X170525311Y-97834513D01*
X170453492Y-97856299D01*
X170387304Y-97891678D01*
X170329289Y-97939289D01*
X170281678Y-97997304D01*
X170246299Y-98063492D01*
X170224513Y-98135311D01*
X170217157Y-98210000D01*
X169800897Y-98210000D01*
X169694717Y-98103820D01*
X169493097Y-97969102D01*
X169269069Y-97876307D01*
X169031243Y-97829000D01*
X168788757Y-97829000D01*
X168550931Y-97876307D01*
X168326903Y-97969102D01*
X168125283Y-98103820D01*
X167953820Y-98275283D01*
X167819102Y-98476903D01*
X167726307Y-98700931D01*
X167679000Y-98938757D01*
X167601000Y-98938757D01*
X167553693Y-98700931D01*
X167460898Y-98476903D01*
X167326180Y-98275283D01*
X167154717Y-98103820D01*
X166953097Y-97969102D01*
X166729069Y-97876307D01*
X166491243Y-97829000D01*
X166248757Y-97829000D01*
X166010931Y-97876307D01*
X165786903Y-97969102D01*
X165585283Y-98103820D01*
X165413820Y-98275283D01*
X165279102Y-98476903D01*
X165186307Y-98700931D01*
X165139000Y-98938757D01*
X165061000Y-98938757D01*
X165013693Y-98700931D01*
X164920898Y-98476903D01*
X164786180Y-98275283D01*
X164614717Y-98103820D01*
X164413097Y-97969102D01*
X164189069Y-97876307D01*
X163951243Y-97829000D01*
X163708757Y-97829000D01*
X163470931Y-97876307D01*
X163246903Y-97969102D01*
X163045283Y-98103820D01*
X162873820Y-98275283D01*
X162739102Y-98476903D01*
X162646307Y-98700931D01*
X162599000Y-98938757D01*
X162521000Y-98938757D01*
X162473693Y-98700931D01*
X162380898Y-98476903D01*
X162246180Y-98275283D01*
X162074717Y-98103820D01*
X161873097Y-97969102D01*
X161649069Y-97876307D01*
X161411243Y-97829000D01*
X161168757Y-97829000D01*
X160930931Y-97876307D01*
X160706903Y-97969102D01*
X160505283Y-98103820D01*
X160333820Y-98275283D01*
X160199102Y-98476903D01*
X160106307Y-98700931D01*
X160059000Y-98938757D01*
X159981000Y-98938757D01*
X159933693Y-98700931D01*
X159840898Y-98476903D01*
X159706180Y-98275283D01*
X159534717Y-98103820D01*
X159333097Y-97969102D01*
X159109069Y-97876307D01*
X158871243Y-97829000D01*
X158628757Y-97829000D01*
X158390931Y-97876307D01*
X158166903Y-97969102D01*
X157965283Y-98103820D01*
X157793820Y-98275283D01*
X157659102Y-98476903D01*
X157566307Y-98700931D01*
X157519000Y-98938757D01*
X157441000Y-98938757D01*
X157393693Y-98700931D01*
X157300898Y-98476903D01*
X157166180Y-98275283D01*
X156994717Y-98103820D01*
X156793097Y-97969102D01*
X156569069Y-97876307D01*
X156331243Y-97829000D01*
X156088757Y-97829000D01*
X155850931Y-97876307D01*
X155626903Y-97969102D01*
X155425283Y-98103820D01*
X155253820Y-98275283D01*
X155119102Y-98476903D01*
X155026307Y-98700931D01*
X154979000Y-98938757D01*
X154901000Y-98938757D01*
X154853693Y-98700931D01*
X154760898Y-98476903D01*
X154626180Y-98275283D01*
X154454717Y-98103820D01*
X154253097Y-97969102D01*
X154029069Y-97876307D01*
X153791243Y-97829000D01*
X153548757Y-97829000D01*
X153310931Y-97876307D01*
X153086903Y-97969102D01*
X152885283Y-98103820D01*
X152713820Y-98275283D01*
X152579102Y-98476903D01*
X152486307Y-98700931D01*
X152439000Y-98938757D01*
X152361000Y-98938757D01*
X152313693Y-98700931D01*
X152220898Y-98476903D01*
X152086180Y-98275283D01*
X151914717Y-98103820D01*
X151713097Y-97969102D01*
X151489069Y-97876307D01*
X151251243Y-97829000D01*
X151008757Y-97829000D01*
X150770931Y-97876307D01*
X150546903Y-97969102D01*
X150345283Y-98103820D01*
X150173820Y-98275283D01*
X150039102Y-98476903D01*
X149946307Y-98700931D01*
X149899000Y-98938757D01*
X149821000Y-98938757D01*
X149773693Y-98700931D01*
X149680898Y-98476903D01*
X149546180Y-98275283D01*
X149374717Y-98103820D01*
X149173097Y-97969102D01*
X148949069Y-97876307D01*
X148711243Y-97829000D01*
X148468757Y-97829000D01*
X148230931Y-97876307D01*
X148006903Y-97969102D01*
X147805283Y-98103820D01*
X147633820Y-98275283D01*
X147499102Y-98476903D01*
X147406307Y-98700931D01*
X147359000Y-98938757D01*
X147281000Y-98938757D01*
X147233693Y-98700931D01*
X147140898Y-98476903D01*
X147006180Y-98275283D01*
X146834717Y-98103820D01*
X146633097Y-97969102D01*
X146409069Y-97876307D01*
X146171243Y-97829000D01*
X145928757Y-97829000D01*
X145690931Y-97876307D01*
X145466903Y-97969102D01*
X145265283Y-98103820D01*
X145093820Y-98275283D01*
X144959102Y-98476903D01*
X144866307Y-98700931D01*
X144819000Y-98938757D01*
X144741000Y-98938757D01*
X144693693Y-98700931D01*
X144600898Y-98476903D01*
X144466180Y-98275283D01*
X144294717Y-98103820D01*
X144093097Y-97969102D01*
X143869069Y-97876307D01*
X143631243Y-97829000D01*
X143388757Y-97829000D01*
X143150931Y-97876307D01*
X142926903Y-97969102D01*
X142725283Y-98103820D01*
X142553820Y-98275283D01*
X142419102Y-98476903D01*
X142371772Y-98591168D01*
X142314157Y-98428748D01*
X142165178Y-98178645D01*
X141970269Y-97962412D01*
X141736920Y-97788359D01*
X141474099Y-97663175D01*
X141326890Y-97618524D01*
X141097000Y-97739845D01*
X141097000Y-98933000D01*
X141117000Y-98933000D01*
X141117000Y-99187000D01*
X141097000Y-99187000D01*
X141097000Y-99207000D01*
X140843000Y-99207000D01*
X140843000Y-99187000D01*
X140823000Y-99187000D01*
X140823000Y-98933000D01*
X140843000Y-98933000D01*
X140843000Y-97739845D01*
X140613110Y-97618524D01*
X140465901Y-97663175D01*
X140203080Y-97788359D01*
X139969731Y-97962412D01*
X139774822Y-98178645D01*
X139625843Y-98428748D01*
X139568228Y-98591168D01*
X139520898Y-98476903D01*
X139386180Y-98275283D01*
X139214717Y-98103820D01*
X139013097Y-97969102D01*
X138789069Y-97876307D01*
X138551243Y-97829000D01*
X138308757Y-97829000D01*
X138070931Y-97876307D01*
X137846903Y-97969102D01*
X137645283Y-98103820D01*
X137473820Y-98275283D01*
X137339102Y-98476903D01*
X137246307Y-98700931D01*
X137199000Y-98938757D01*
X137199000Y-99181243D01*
X137246307Y-99419069D01*
X137339102Y-99643097D01*
X137432583Y-99783001D01*
X137367343Y-99783001D01*
X137053108Y-99468766D01*
X137073693Y-99419069D01*
X137121000Y-99181243D01*
X137121000Y-98938757D01*
X137073693Y-98700931D01*
X136980898Y-98476903D01*
X136846180Y-98275283D01*
X136674717Y-98103820D01*
X136473097Y-97969102D01*
X136249069Y-97876307D01*
X136011243Y-97829000D01*
X135768757Y-97829000D01*
X135530931Y-97876307D01*
X135306903Y-97969102D01*
X135105283Y-98103820D01*
X134933820Y-98275283D01*
X134799102Y-98476903D01*
X134706307Y-98700931D01*
X134659000Y-98938757D01*
X134659000Y-99181243D01*
X134706307Y-99419069D01*
X134799102Y-99643097D01*
X134933820Y-99844717D01*
X135105283Y-100016180D01*
X135306903Y-100150898D01*
X135530931Y-100243693D01*
X135768757Y-100291000D01*
X136011243Y-100291000D01*
X136249069Y-100243693D01*
X136298766Y-100223108D01*
X136750710Y-100675052D01*
X136767406Y-100695396D01*
X136848626Y-100762052D01*
X136941290Y-100811582D01*
X137041836Y-100842082D01*
X137120206Y-100849801D01*
X137120213Y-100849801D01*
X137146400Y-100852380D01*
X137172587Y-100849801D01*
X140402982Y-100849801D01*
X141810338Y-102257157D01*
X139216000Y-102257157D01*
X139141311Y-102264513D01*
X139069492Y-102286299D01*
X139003304Y-102321678D01*
X138945289Y-102369289D01*
X138897678Y-102427304D01*
X138862299Y-102493492D01*
X138840513Y-102565311D01*
X138833157Y-102640000D01*
X138833157Y-103505000D01*
X133553589Y-103505000D01*
X133522400Y-103501928D01*
X133491211Y-103505000D01*
X133491208Y-103505000D01*
X133397918Y-103514188D01*
X133278220Y-103550498D01*
X133167906Y-103609462D01*
X133095443Y-103668931D01*
X133095439Y-103668935D01*
X133071215Y-103688815D01*
X133051334Y-103713040D01*
X132150609Y-104613767D01*
X132040176Y-104591800D01*
X131815024Y-104591800D01*
X131594199Y-104635725D01*
X131386187Y-104721887D01*
X131198980Y-104846974D01*
X131039774Y-105006180D01*
X130914687Y-105193387D01*
X130828525Y-105401399D01*
X130784600Y-105622224D01*
X130530600Y-105622224D01*
X130530600Y-105602224D01*
X130486675Y-105381399D01*
X130400513Y-105173387D01*
X130275426Y-104986180D01*
X130116220Y-104826974D01*
X130022600Y-104764419D01*
X130022600Y-98938757D01*
X132119000Y-98938757D01*
X132119000Y-99181243D01*
X132166307Y-99419069D01*
X132259102Y-99643097D01*
X132393820Y-99844717D01*
X132565283Y-100016180D01*
X132766903Y-100150898D01*
X132990931Y-100243693D01*
X133228757Y-100291000D01*
X133471243Y-100291000D01*
X133709069Y-100243693D01*
X133933097Y-100150898D01*
X134134717Y-100016180D01*
X134306180Y-99844717D01*
X134440898Y-99643097D01*
X134533693Y-99419069D01*
X134581000Y-99181243D01*
X134581000Y-98938757D01*
X134533693Y-98700931D01*
X134440898Y-98476903D01*
X134306180Y-98275283D01*
X134134717Y-98103820D01*
X133933097Y-97969102D01*
X133709069Y-97876307D01*
X133471243Y-97829000D01*
X133228757Y-97829000D01*
X132990931Y-97876307D01*
X132766903Y-97969102D01*
X132565283Y-98103820D01*
X132393820Y-98275283D01*
X132259102Y-98476903D01*
X132166307Y-98700931D01*
X132119000Y-98938757D01*
X130022600Y-98938757D01*
X130022600Y-98205424D01*
X133540754Y-94687270D01*
X148087080Y-94687270D01*
X148087080Y-94837370D01*
X148116363Y-94984587D01*
X148173804Y-95123262D01*
X148257196Y-95248067D01*
X148363333Y-95354204D01*
X148488138Y-95437596D01*
X148626813Y-95495037D01*
X148774030Y-95524320D01*
X148924130Y-95524320D01*
X149071347Y-95495037D01*
X149210022Y-95437596D01*
X149334827Y-95354204D01*
X149440964Y-95248067D01*
X149524356Y-95123262D01*
X149581797Y-94984587D01*
X149611080Y-94837370D01*
X149611080Y-94718740D01*
X151814911Y-92514910D01*
X151809552Y-92532575D01*
X151802201Y-92607212D01*
X151799744Y-92632159D01*
X151802201Y-92657103D01*
X151802202Y-95459577D01*
X151524100Y-95737680D01*
X151405470Y-95737680D01*
X151258253Y-95766963D01*
X151119578Y-95824404D01*
X150994773Y-95907796D01*
X150888636Y-96013933D01*
X150805244Y-96138738D01*
X150747803Y-96277413D01*
X150718520Y-96424630D01*
X150718520Y-96574730D01*
X150747803Y-96721947D01*
X150805244Y-96860622D01*
X150888636Y-96985427D01*
X150994773Y-97091564D01*
X151119578Y-97174956D01*
X151258253Y-97232397D01*
X151405470Y-97261680D01*
X151555570Y-97261680D01*
X151702787Y-97232397D01*
X151841462Y-97174956D01*
X151966267Y-97091564D01*
X152072404Y-96985427D01*
X152155796Y-96860622D01*
X152213237Y-96721947D01*
X152242520Y-96574730D01*
X152242520Y-96456100D01*
X152651771Y-96046849D01*
X152671149Y-96030947D01*
X152689825Y-96008189D01*
X152734630Y-95953595D01*
X152781801Y-95865343D01*
X152781802Y-95865342D01*
X152810850Y-95769584D01*
X152818201Y-95694946D01*
X152818201Y-95694944D01*
X152820658Y-95670000D01*
X152818201Y-95645056D01*
X152818201Y-93600150D01*
X159486600Y-93600150D01*
X159486600Y-93750250D01*
X159515883Y-93897467D01*
X159573324Y-94036142D01*
X159656716Y-94160947D01*
X159762853Y-94267084D01*
X159887658Y-94350476D01*
X160026333Y-94407917D01*
X160173550Y-94437200D01*
X160323650Y-94437200D01*
X160470867Y-94407917D01*
X160609542Y-94350476D01*
X160734347Y-94267084D01*
X160840484Y-94160947D01*
X160923876Y-94036142D01*
X160981317Y-93897467D01*
X161010600Y-93750250D01*
X161010600Y-93631620D01*
X168424461Y-86217760D01*
X169010929Y-86217760D01*
X169094813Y-86301644D01*
X169219618Y-86385036D01*
X169358293Y-86442477D01*
X169505510Y-86471760D01*
X169655610Y-86471760D01*
X169802827Y-86442477D01*
X169941502Y-86385036D01*
X170066307Y-86301644D01*
X170172444Y-86195507D01*
X170255836Y-86070702D01*
X170313277Y-85932027D01*
X170342560Y-85784810D01*
X170342560Y-85634710D01*
X170313277Y-85487493D01*
X170255836Y-85348818D01*
X170172444Y-85224013D01*
X170066307Y-85117876D01*
X169941502Y-85034484D01*
X169802827Y-84977043D01*
X169655610Y-84947760D01*
X169505510Y-84947760D01*
X169358293Y-84977043D01*
X169219618Y-85034484D01*
X169094813Y-85117876D01*
X169010929Y-85201760D01*
X168238983Y-85201760D01*
X168214039Y-85199303D01*
X168189095Y-85201760D01*
X168189093Y-85201760D01*
X168114455Y-85209111D01*
X168018697Y-85238159D01*
X168018695Y-85238160D01*
X167930444Y-85285331D01*
X167875850Y-85330136D01*
X167853092Y-85348812D01*
X167837190Y-85368189D01*
X160292180Y-92913200D01*
X160173550Y-92913200D01*
X160026333Y-92942483D01*
X159887658Y-92999924D01*
X159762853Y-93083316D01*
X159656716Y-93189453D01*
X159573324Y-93314258D01*
X159515883Y-93452933D01*
X159486600Y-93600150D01*
X152818201Y-93600150D01*
X152818201Y-92842579D01*
X162054141Y-83606640D01*
X162172770Y-83606640D01*
X162319987Y-83577357D01*
X162458662Y-83519916D01*
X162583467Y-83436524D01*
X162689604Y-83330387D01*
X162772996Y-83205582D01*
X162830437Y-83066907D01*
X162859720Y-82919690D01*
X162859720Y-82769590D01*
X162830437Y-82622373D01*
X162772996Y-82483698D01*
X162689604Y-82358893D01*
X162583467Y-82252756D01*
X162458662Y-82169364D01*
X162319987Y-82111923D01*
X162172770Y-82082640D01*
X162022670Y-82082640D01*
X161875453Y-82111923D01*
X161736778Y-82169364D01*
X161611973Y-82252756D01*
X161505836Y-82358893D01*
X161422444Y-82483698D01*
X161365003Y-82622373D01*
X161335720Y-82769590D01*
X161335720Y-82888219D01*
X159891107Y-84332832D01*
X159900889Y-84300585D01*
X159908240Y-84225947D01*
X159908240Y-84225944D01*
X159910697Y-84201000D01*
X159908240Y-84176056D01*
X159908240Y-83297431D01*
X159992124Y-83213547D01*
X160075516Y-83088742D01*
X160132957Y-82950067D01*
X160162240Y-82802850D01*
X160162240Y-82652750D01*
X160132957Y-82505533D01*
X160075516Y-82366858D01*
X159992124Y-82242053D01*
X159885987Y-82135916D01*
X159761182Y-82052524D01*
X159622507Y-81995083D01*
X159475290Y-81965800D01*
X159325190Y-81965800D01*
X159177973Y-81995083D01*
X159039298Y-82052524D01*
X158914493Y-82135916D01*
X158808356Y-82242053D01*
X158724964Y-82366858D01*
X158667523Y-82505533D01*
X158638240Y-82652750D01*
X158638240Y-82802850D01*
X158667523Y-82950067D01*
X158724964Y-83088742D01*
X158808356Y-83213547D01*
X158892241Y-83297432D01*
X158892240Y-83990580D01*
X154075196Y-88807624D01*
X154055813Y-88823531D01*
X153993416Y-88899563D01*
X149780281Y-93112699D01*
X149707689Y-93004058D01*
X149649205Y-92945574D01*
X149649205Y-91130056D01*
X153697901Y-87081360D01*
X153780610Y-87081360D01*
X153927827Y-87052077D01*
X154066502Y-86994636D01*
X154191307Y-86911244D01*
X154297444Y-86805107D01*
X154380836Y-86680302D01*
X154438277Y-86541627D01*
X154467560Y-86394410D01*
X154467560Y-86244310D01*
X154438277Y-86097093D01*
X154380836Y-85958418D01*
X154297444Y-85833613D01*
X154191307Y-85727476D01*
X154066502Y-85644084D01*
X153927827Y-85586643D01*
X153780610Y-85557360D01*
X153630510Y-85557360D01*
X153483293Y-85586643D01*
X153344618Y-85644084D01*
X153219813Y-85727476D01*
X153113676Y-85833613D01*
X153030284Y-85958418D01*
X152972843Y-86097093D01*
X152943560Y-86244310D01*
X152943560Y-86327019D01*
X148757160Y-90513419D01*
X148736810Y-90530120D01*
X148670154Y-90611340D01*
X148620624Y-90704005D01*
X148590124Y-90804551D01*
X148582405Y-90882921D01*
X148582405Y-90882928D01*
X148579826Y-90909115D01*
X148582405Y-90935302D01*
X148582406Y-92945573D01*
X148523921Y-93004058D01*
X148440529Y-93128863D01*
X148383088Y-93267538D01*
X148353805Y-93414755D01*
X148353805Y-93564855D01*
X148383088Y-93712072D01*
X148440529Y-93850747D01*
X148523921Y-93975552D01*
X148592277Y-94043908D01*
X148488138Y-94087044D01*
X148363333Y-94170436D01*
X148257196Y-94276573D01*
X148173804Y-94401378D01*
X148116363Y-94540053D01*
X148087080Y-94687270D01*
X133540754Y-94687270D01*
X148292155Y-79935871D01*
X148468757Y-79971000D01*
X148711243Y-79971000D01*
X148949069Y-79923693D01*
X149173097Y-79830898D01*
X149374717Y-79696180D01*
X149546180Y-79524717D01*
X149680898Y-79323097D01*
X149773693Y-79099069D01*
X149821000Y-78861243D01*
X149821000Y-78618757D01*
X149899000Y-78618757D01*
X149899000Y-78861243D01*
X149946307Y-79099069D01*
X150039102Y-79323097D01*
X150173820Y-79524717D01*
X150345283Y-79696180D01*
X150546903Y-79830898D01*
X150770931Y-79923693D01*
X151008757Y-79971000D01*
X151251243Y-79971000D01*
X151489069Y-79923693D01*
X151713097Y-79830898D01*
X151914717Y-79696180D01*
X152086180Y-79524717D01*
X152220898Y-79323097D01*
X152313693Y-79099069D01*
X152361000Y-78861243D01*
X152361000Y-78618757D01*
X152439000Y-78618757D01*
X152439000Y-78861243D01*
X152486307Y-79099069D01*
X152579102Y-79323097D01*
X152713820Y-79524717D01*
X152885283Y-79696180D01*
X153086903Y-79830898D01*
X153310931Y-79923693D01*
X153548757Y-79971000D01*
X153791243Y-79971000D01*
X154029069Y-79923693D01*
X154253097Y-79830898D01*
X154454717Y-79696180D01*
X154626180Y-79524717D01*
X154760898Y-79323097D01*
X154853693Y-79099069D01*
X154901000Y-78861243D01*
X154901000Y-78618757D01*
X154979000Y-78618757D01*
X154979000Y-78861243D01*
X155026307Y-79099069D01*
X155119102Y-79323097D01*
X155253820Y-79524717D01*
X155425283Y-79696180D01*
X155626903Y-79830898D01*
X155850931Y-79923693D01*
X156088757Y-79971000D01*
X156331243Y-79971000D01*
X156569069Y-79923693D01*
X156793097Y-79830898D01*
X156994717Y-79696180D01*
X157166180Y-79524717D01*
X157300898Y-79323097D01*
X157393693Y-79099069D01*
X157441000Y-78861243D01*
X157441000Y-78618757D01*
X157519000Y-78618757D01*
X157519000Y-78861243D01*
X157566307Y-79099069D01*
X157659102Y-79323097D01*
X157793820Y-79524717D01*
X157965283Y-79696180D01*
X158166903Y-79830898D01*
X158390931Y-79923693D01*
X158628757Y-79971000D01*
X158871243Y-79971000D01*
X159109069Y-79923693D01*
X159333097Y-79830898D01*
X159534717Y-79696180D01*
X159706180Y-79524717D01*
X159840898Y-79323097D01*
X159933693Y-79099069D01*
X159981000Y-78861243D01*
X159981000Y-78618757D01*
X160059000Y-78618757D01*
X160059000Y-78861243D01*
X160106307Y-79099069D01*
X160199102Y-79323097D01*
X160333820Y-79524717D01*
X160505283Y-79696180D01*
X160706903Y-79830898D01*
X160930931Y-79923693D01*
X161168757Y-79971000D01*
X161411243Y-79971000D01*
X161649069Y-79923693D01*
X161873097Y-79830898D01*
X162074717Y-79696180D01*
X162246180Y-79524717D01*
X162380898Y-79323097D01*
X162473693Y-79099069D01*
X162521000Y-78861243D01*
X162521000Y-78618757D01*
X162599000Y-78618757D01*
X162599000Y-78861243D01*
X162646307Y-79099069D01*
X162739102Y-79323097D01*
X162873820Y-79524717D01*
X163045283Y-79696180D01*
X163246903Y-79830898D01*
X163470931Y-79923693D01*
X163708757Y-79971000D01*
X163951243Y-79971000D01*
X164189069Y-79923693D01*
X164413097Y-79830898D01*
X164614717Y-79696180D01*
X164786180Y-79524717D01*
X164920898Y-79323097D01*
X165013693Y-79099069D01*
X165061000Y-78861243D01*
X165061000Y-78618757D01*
X165139000Y-78618757D01*
X165139000Y-78861243D01*
X165186307Y-79099069D01*
X165279102Y-79323097D01*
X165413820Y-79524717D01*
X165585283Y-79696180D01*
X165786903Y-79830898D01*
X166010931Y-79923693D01*
X166248757Y-79971000D01*
X166491243Y-79971000D01*
X166729069Y-79923693D01*
X166953097Y-79830898D01*
X167154717Y-79696180D01*
X167326180Y-79524717D01*
X167460898Y-79323097D01*
X167553693Y-79099069D01*
X167601000Y-78861243D01*
X167601000Y-78618757D01*
X167679000Y-78618757D01*
X167679000Y-78861243D01*
X167726307Y-79099069D01*
X167819102Y-79323097D01*
X167953820Y-79524717D01*
X168125283Y-79696180D01*
X168326903Y-79830898D01*
X168550931Y-79923693D01*
X168788757Y-79971000D01*
X169031243Y-79971000D01*
X169269069Y-79923693D01*
X169493097Y-79830898D01*
X169694717Y-79696180D01*
X169866180Y-79524717D01*
X170000898Y-79323097D01*
X170093693Y-79099069D01*
X170141000Y-78861243D01*
X170141000Y-78618757D01*
X170093693Y-78380931D01*
X170000898Y-78156903D01*
X169866180Y-77955283D01*
X169800897Y-77890000D01*
X170217157Y-77890000D01*
X170217157Y-79590000D01*
X170224513Y-79664689D01*
X170246299Y-79736508D01*
X170281678Y-79802696D01*
X170329289Y-79860711D01*
X170387304Y-79908322D01*
X170453492Y-79943701D01*
X170525311Y-79965487D01*
X170600000Y-79972843D01*
X172300000Y-79972843D01*
X172374689Y-79965487D01*
X172446508Y-79943701D01*
X172512696Y-79908322D01*
X172570711Y-79860711D01*
X172618322Y-79802696D01*
X172653701Y-79736508D01*
X172675487Y-79664689D01*
X172682843Y-79590000D01*
X172682843Y-77890000D01*
X172675487Y-77815311D01*
X172653701Y-77743492D01*
X172618322Y-77677304D01*
X172570711Y-77619289D01*
X172512696Y-77571678D01*
X172446508Y-77536299D01*
X172374689Y-77514513D01*
X172300000Y-77507157D01*
X170600000Y-77507157D01*
X170525311Y-77514513D01*
X170453492Y-77536299D01*
X170387304Y-77571678D01*
X170329289Y-77619289D01*
X170281678Y-77677304D01*
X170246299Y-77743492D01*
X170224513Y-77815311D01*
X170217157Y-77890000D01*
X169800897Y-77890000D01*
X169694717Y-77783820D01*
X169493097Y-77649102D01*
X169269069Y-77556307D01*
X169031243Y-77509000D01*
X168788757Y-77509000D01*
X168550931Y-77556307D01*
X168326903Y-77649102D01*
X168125283Y-77783820D01*
X167953820Y-77955283D01*
X167819102Y-78156903D01*
X167726307Y-78380931D01*
X167679000Y-78618757D01*
X167601000Y-78618757D01*
X167553693Y-78380931D01*
X167460898Y-78156903D01*
X167326180Y-77955283D01*
X167154717Y-77783820D01*
X166953097Y-77649102D01*
X166729069Y-77556307D01*
X166491243Y-77509000D01*
X166248757Y-77509000D01*
X166010931Y-77556307D01*
X165786903Y-77649102D01*
X165585283Y-77783820D01*
X165413820Y-77955283D01*
X165279102Y-78156903D01*
X165186307Y-78380931D01*
X165139000Y-78618757D01*
X165061000Y-78618757D01*
X165013693Y-78380931D01*
X164920898Y-78156903D01*
X164786180Y-77955283D01*
X164614717Y-77783820D01*
X164413097Y-77649102D01*
X164189069Y-77556307D01*
X163951243Y-77509000D01*
X163708757Y-77509000D01*
X163470931Y-77556307D01*
X163246903Y-77649102D01*
X163045283Y-77783820D01*
X162873820Y-77955283D01*
X162739102Y-78156903D01*
X162646307Y-78380931D01*
X162599000Y-78618757D01*
X162521000Y-78618757D01*
X162473693Y-78380931D01*
X162380898Y-78156903D01*
X162246180Y-77955283D01*
X162074717Y-77783820D01*
X161873097Y-77649102D01*
X161649069Y-77556307D01*
X161411243Y-77509000D01*
X161168757Y-77509000D01*
X160930931Y-77556307D01*
X160706903Y-77649102D01*
X160505283Y-77783820D01*
X160333820Y-77955283D01*
X160199102Y-78156903D01*
X160106307Y-78380931D01*
X160059000Y-78618757D01*
X159981000Y-78618757D01*
X159933693Y-78380931D01*
X159840898Y-78156903D01*
X159706180Y-77955283D01*
X159534717Y-77783820D01*
X159333097Y-77649102D01*
X159109069Y-77556307D01*
X158871243Y-77509000D01*
X158628757Y-77509000D01*
X158390931Y-77556307D01*
X158166903Y-77649102D01*
X157965283Y-77783820D01*
X157793820Y-77955283D01*
X157659102Y-78156903D01*
X157566307Y-78380931D01*
X157519000Y-78618757D01*
X157441000Y-78618757D01*
X157393693Y-78380931D01*
X157300898Y-78156903D01*
X157166180Y-77955283D01*
X156994717Y-77783820D01*
X156793097Y-77649102D01*
X156569069Y-77556307D01*
X156331243Y-77509000D01*
X156088757Y-77509000D01*
X155850931Y-77556307D01*
X155626903Y-77649102D01*
X155425283Y-77783820D01*
X155253820Y-77955283D01*
X155119102Y-78156903D01*
X155026307Y-78380931D01*
X154979000Y-78618757D01*
X154901000Y-78618757D01*
X154853693Y-78380931D01*
X154760898Y-78156903D01*
X154626180Y-77955283D01*
X154454717Y-77783820D01*
X154253097Y-77649102D01*
X154029069Y-77556307D01*
X153791243Y-77509000D01*
X153548757Y-77509000D01*
X153310931Y-77556307D01*
X153086903Y-77649102D01*
X152885283Y-77783820D01*
X152713820Y-77955283D01*
X152579102Y-78156903D01*
X152486307Y-78380931D01*
X152439000Y-78618757D01*
X152361000Y-78618757D01*
X152313693Y-78380931D01*
X152220898Y-78156903D01*
X152086180Y-77955283D01*
X151914717Y-77783820D01*
X151713097Y-77649102D01*
X151489069Y-77556307D01*
X151251243Y-77509000D01*
X151008757Y-77509000D01*
X150770931Y-77556307D01*
X150546903Y-77649102D01*
X150345283Y-77783820D01*
X150173820Y-77955283D01*
X150039102Y-78156903D01*
X149946307Y-78380931D01*
X149899000Y-78618757D01*
X149821000Y-78618757D01*
X149773693Y-78380931D01*
X149680898Y-78156903D01*
X149546180Y-77955283D01*
X149374717Y-77783820D01*
X149173097Y-77649102D01*
X148949069Y-77556307D01*
X148711243Y-77509000D01*
X148468757Y-77509000D01*
X148230931Y-77556307D01*
X148006903Y-77649102D01*
X147805283Y-77783820D01*
X147633820Y-77955283D01*
X147499102Y-78156903D01*
X147406307Y-78380931D01*
X147359000Y-78618757D01*
X147359000Y-78861243D01*
X147394129Y-79037845D01*
X147163540Y-79268434D01*
X147233693Y-79099069D01*
X147281000Y-78861243D01*
X147281000Y-78618757D01*
X147233693Y-78380931D01*
X147140898Y-78156903D01*
X147006180Y-77955283D01*
X146834717Y-77783820D01*
X146633097Y-77649102D01*
X146409069Y-77556307D01*
X146171243Y-77509000D01*
X145928757Y-77509000D01*
X145690931Y-77556307D01*
X145466903Y-77649102D01*
X145265283Y-77783820D01*
X145093820Y-77955283D01*
X144959102Y-78156903D01*
X144866307Y-78380931D01*
X144819000Y-78618757D01*
X144819000Y-78861243D01*
X144866307Y-79099069D01*
X144959102Y-79323097D01*
X145090425Y-79519635D01*
X127406000Y-97204060D01*
X127406000Y-78618757D01*
X142279000Y-78618757D01*
X142279000Y-78861243D01*
X142326307Y-79099069D01*
X142419102Y-79323097D01*
X142553820Y-79524717D01*
X142725283Y-79696180D01*
X142926903Y-79830898D01*
X143150931Y-79923693D01*
X143388757Y-79971000D01*
X143631243Y-79971000D01*
X143869069Y-79923693D01*
X144093097Y-79830898D01*
X144294717Y-79696180D01*
X144466180Y-79524717D01*
X144600898Y-79323097D01*
X144693693Y-79099069D01*
X144741000Y-78861243D01*
X144741000Y-78618757D01*
X144693693Y-78380931D01*
X144600898Y-78156903D01*
X144466180Y-77955283D01*
X144294717Y-77783820D01*
X144093097Y-77649102D01*
X143869069Y-77556307D01*
X143631243Y-77509000D01*
X143388757Y-77509000D01*
X143150931Y-77556307D01*
X142926903Y-77649102D01*
X142725283Y-77783820D01*
X142553820Y-77955283D01*
X142419102Y-78156903D01*
X142326307Y-78380931D01*
X142279000Y-78618757D01*
X127406000Y-78618757D01*
X127406000Y-76606000D01*
X177394001Y-76606000D01*
X177394000Y-154534000D01*
%TA.AperFunction,Conductor*%
D21*
G36*
X177394000Y-154534000D02*
G01*
X127406000Y-154534000D01*
X127406000Y-127652577D01*
X138610000Y-127652577D01*
X138610000Y-128067423D01*
X138690932Y-128474298D01*
X138849687Y-128857565D01*
X139080163Y-129202497D01*
X139373503Y-129495837D01*
X139718435Y-129726313D01*
X140101702Y-129885068D01*
X140508577Y-129966000D01*
X140923423Y-129966000D01*
X141330298Y-129885068D01*
X141713565Y-129726313D01*
X142058497Y-129495837D01*
X142351837Y-129202497D01*
X142582313Y-128857565D01*
X142741068Y-128474298D01*
X142822000Y-128067423D01*
X142822000Y-127652577D01*
X162110000Y-127652577D01*
X162110000Y-128067423D01*
X162190932Y-128474298D01*
X162349687Y-128857565D01*
X162580163Y-129202497D01*
X162873503Y-129495837D01*
X163218435Y-129726313D01*
X163601702Y-129885068D01*
X164008577Y-129966000D01*
X164423423Y-129966000D01*
X164830298Y-129885068D01*
X165213565Y-129726313D01*
X165558497Y-129495837D01*
X165851837Y-129202497D01*
X166082313Y-128857565D01*
X166241068Y-128474298D01*
X166322000Y-128067423D01*
X166322000Y-127652577D01*
X166241068Y-127245702D01*
X166082313Y-126862435D01*
X165851837Y-126517503D01*
X165558497Y-126224163D01*
X165213565Y-125993687D01*
X164830298Y-125834932D01*
X164423423Y-125754000D01*
X164008577Y-125754000D01*
X163601702Y-125834932D01*
X163218435Y-125993687D01*
X162873503Y-126224163D01*
X162580163Y-126517503D01*
X162349687Y-126862435D01*
X162190932Y-127245702D01*
X162110000Y-127652577D01*
X142822000Y-127652577D01*
X142741068Y-127245702D01*
X142582313Y-126862435D01*
X142351837Y-126517503D01*
X142058497Y-126224163D01*
X141713565Y-125993687D01*
X141330298Y-125834932D01*
X140923423Y-125754000D01*
X140508577Y-125754000D01*
X140101702Y-125834932D01*
X139718435Y-125993687D01*
X139373503Y-126224163D01*
X139080163Y-126517503D01*
X138849687Y-126862435D01*
X138690932Y-127245702D01*
X138610000Y-127652577D01*
X127406000Y-127652577D01*
X127406000Y-120704552D01*
X129686653Y-120704552D01*
X129776379Y-120963842D01*
X130057471Y-121099735D01*
X130359673Y-121178179D01*
X130671373Y-121196159D01*
X130980591Y-121152984D01*
X131275444Y-121050313D01*
X131437221Y-120963842D01*
X131526947Y-120704552D01*
X130606800Y-119784405D01*
X129686653Y-120704552D01*
X127406000Y-120704552D01*
X127406000Y-119669373D01*
X129015441Y-119669373D01*
X129058616Y-119978591D01*
X129161287Y-120273444D01*
X129247758Y-120435221D01*
X129507048Y-120524947D01*
X130427195Y-119604800D01*
X130786405Y-119604800D01*
X131706552Y-120524947D01*
X131965842Y-120435221D01*
X132101735Y-120154129D01*
X132180179Y-119851927D01*
X132198159Y-119540227D01*
X132154984Y-119231009D01*
X132052313Y-118936156D01*
X131965842Y-118774379D01*
X131706552Y-118684653D01*
X130786405Y-119604800D01*
X130427195Y-119604800D01*
X129507048Y-118684653D01*
X129247758Y-118774379D01*
X129111865Y-119055471D01*
X129033421Y-119357673D01*
X129015441Y-119669373D01*
X127406000Y-119669373D01*
X127406000Y-114622420D01*
X129377677Y-116594097D01*
X129326950Y-116716562D01*
X129275800Y-116973708D01*
X129275800Y-117235892D01*
X129326950Y-117493038D01*
X129427283Y-117735265D01*
X129572945Y-117953263D01*
X129758337Y-118138655D01*
X129855408Y-118203516D01*
X129776379Y-118245758D01*
X129686653Y-118505048D01*
X130606800Y-119425195D01*
X131526947Y-118505048D01*
X131437221Y-118245758D01*
X131354688Y-118205858D01*
X131455263Y-118138655D01*
X131640655Y-117953263D01*
X131786317Y-117735265D01*
X131886650Y-117493038D01*
X131937800Y-117235892D01*
X131937800Y-116973708D01*
X131886650Y-116716562D01*
X131786317Y-116474335D01*
X131640655Y-116256337D01*
X131455263Y-116070945D01*
X131255763Y-115937643D01*
X131556800Y-115937643D01*
X131631489Y-115930287D01*
X131703308Y-115908501D01*
X131769496Y-115873122D01*
X131827511Y-115825511D01*
X131875122Y-115767496D01*
X131910501Y-115701308D01*
X131932287Y-115629489D01*
X131939643Y-115554800D01*
X131939643Y-113654800D01*
X131932287Y-113580111D01*
X131910501Y-113508292D01*
X131875122Y-113442104D01*
X131827511Y-113384089D01*
X131769496Y-113336478D01*
X131703308Y-113301099D01*
X131631489Y-113279313D01*
X131556800Y-113271957D01*
X129656800Y-113271957D01*
X129582111Y-113279313D01*
X129510292Y-113301099D01*
X129444104Y-113336478D01*
X129386089Y-113384089D01*
X129338478Y-113442104D01*
X129303099Y-113508292D01*
X129281313Y-113580111D01*
X129273957Y-113654800D01*
X129273957Y-115053537D01*
X127863210Y-113642790D01*
X127863210Y-98183690D01*
X146075900Y-79971000D01*
X146171243Y-79971000D01*
X146409069Y-79923693D01*
X146578434Y-79853540D01*
X128960646Y-97471330D01*
X128936416Y-97491215D01*
X128916532Y-97515444D01*
X128857063Y-97587907D01*
X128798098Y-97698221D01*
X128785472Y-97739845D01*
X128761789Y-97817918D01*
X128752601Y-97911208D01*
X128749529Y-97942400D01*
X128752601Y-97973591D01*
X128752600Y-104764419D01*
X128658980Y-104826974D01*
X128499774Y-104986180D01*
X128374687Y-105173387D01*
X128288525Y-105381399D01*
X128244600Y-105602224D01*
X128244600Y-105827376D01*
X128288525Y-106048201D01*
X128374687Y-106256213D01*
X128499774Y-106443420D01*
X128658980Y-106602626D01*
X128846187Y-106727713D01*
X129054199Y-106813875D01*
X129275024Y-106857800D01*
X129500176Y-106857800D01*
X129721001Y-106813875D01*
X129929013Y-106727713D01*
X130116220Y-106602626D01*
X130275426Y-106443420D01*
X130400513Y-106256213D01*
X130486675Y-106048201D01*
X130530600Y-105827376D01*
X130530600Y-105622224D01*
X130784600Y-105622224D01*
X130784600Y-105847376D01*
X130828525Y-106068201D01*
X130914687Y-106276213D01*
X131039774Y-106463420D01*
X131198980Y-106622626D01*
X131386187Y-106747713D01*
X131594199Y-106833875D01*
X131815024Y-106877800D01*
X132040176Y-106877800D01*
X132261001Y-106833875D01*
X132469013Y-106747713D01*
X132656220Y-106622626D01*
X132815426Y-106463420D01*
X132940513Y-106276213D01*
X133026675Y-106068201D01*
X133070600Y-105847376D01*
X133070600Y-105622224D01*
X133048633Y-105511791D01*
X133785426Y-104775000D01*
X138833157Y-104775000D01*
X138833157Y-105640000D01*
X138840513Y-105714689D01*
X138862299Y-105786508D01*
X138897678Y-105852696D01*
X138945289Y-105910711D01*
X139003304Y-105958322D01*
X139069492Y-105993701D01*
X139141311Y-106015487D01*
X139216000Y-106022843D01*
X142216000Y-106022843D01*
X142290689Y-106015487D01*
X142362508Y-105993701D01*
X142428696Y-105958322D01*
X142486711Y-105910711D01*
X142534322Y-105852696D01*
X142569701Y-105786508D01*
X142591487Y-105714689D01*
X142598843Y-105640000D01*
X142598843Y-103045662D01*
X160507681Y-120954501D01*
X160507680Y-121680569D01*
X160449196Y-121739053D01*
X160365804Y-121863858D01*
X160308363Y-122002533D01*
X160279080Y-122149750D01*
X160279080Y-122299850D01*
X160308363Y-122447067D01*
X160365804Y-122585742D01*
X160449196Y-122710547D01*
X160555333Y-122816684D01*
X160680138Y-122900076D01*
X160818813Y-122957517D01*
X160966030Y-122986800D01*
X161116130Y-122986800D01*
X161263347Y-122957517D01*
X161402022Y-122900076D01*
X161526827Y-122816684D01*
X161632964Y-122710547D01*
X161716356Y-122585742D01*
X161773797Y-122447067D01*
X161803080Y-122299850D01*
X161803080Y-122149750D01*
X161773797Y-122002533D01*
X161716356Y-121863858D01*
X161632964Y-121739053D01*
X161574480Y-121680569D01*
X161574480Y-120759744D01*
X161577059Y-120733557D01*
X161574480Y-120707370D01*
X161574480Y-120707363D01*
X161566761Y-120628993D01*
X161536261Y-120528447D01*
X161486731Y-120435783D01*
X161420075Y-120354563D01*
X161399731Y-120337867D01*
X146693517Y-105631653D01*
X152103952Y-105631653D01*
X152259962Y-105947214D01*
X152634745Y-106138020D01*
X153039551Y-106252044D01*
X153458824Y-106284902D01*
X153876451Y-106235334D01*
X154276383Y-106105243D01*
X154572038Y-105947214D01*
X154728048Y-105631653D01*
X153416000Y-104319605D01*
X152103952Y-105631653D01*
X146693517Y-105631653D01*
X145244688Y-104182824D01*
X151271098Y-104182824D01*
X151320666Y-104600451D01*
X151450757Y-105000383D01*
X151608786Y-105296038D01*
X151924347Y-105452048D01*
X153236395Y-104140000D01*
X153595605Y-104140000D01*
X154907653Y-105452048D01*
X155223214Y-105296038D01*
X155414020Y-104921255D01*
X155528044Y-104516449D01*
X155560902Y-104097176D01*
X155511334Y-103679549D01*
X155381243Y-103279617D01*
X155223214Y-102983962D01*
X154907653Y-102827952D01*
X153595605Y-104140000D01*
X153236395Y-104140000D01*
X151924347Y-102827952D01*
X151608786Y-102983962D01*
X151417980Y-103358745D01*
X151303956Y-103763551D01*
X151271098Y-104182824D01*
X145244688Y-104182824D01*
X143710211Y-102648347D01*
X152103952Y-102648347D01*
X153416000Y-103960395D01*
X154728048Y-102648347D01*
X154572038Y-102332786D01*
X154197255Y-102141980D01*
X153792449Y-102027956D01*
X153373176Y-101995098D01*
X152955549Y-102044666D01*
X152555617Y-102174757D01*
X152259962Y-102332786D01*
X152103952Y-102648347D01*
X143710211Y-102648347D01*
X141504302Y-100442439D01*
X141736920Y-100331641D01*
X141970269Y-100157588D01*
X142165178Y-99941355D01*
X142314157Y-99691252D01*
X142371772Y-99528832D01*
X142419102Y-99643097D01*
X142553820Y-99844717D01*
X142725283Y-100016180D01*
X142926903Y-100150898D01*
X143150931Y-100243693D01*
X143388757Y-100291000D01*
X143631243Y-100291000D01*
X143869069Y-100243693D01*
X144093097Y-100150898D01*
X144294717Y-100016180D01*
X144466180Y-99844717D01*
X144600898Y-99643097D01*
X144693693Y-99419069D01*
X144741000Y-99181243D01*
X144741000Y-98938757D01*
X144819000Y-98938757D01*
X144819000Y-99181243D01*
X144866307Y-99419069D01*
X144959102Y-99643097D01*
X145093820Y-99844717D01*
X145265283Y-100016180D01*
X145466903Y-100150898D01*
X145690931Y-100243693D01*
X145928757Y-100291000D01*
X146171243Y-100291000D01*
X146409069Y-100243693D01*
X146633097Y-100150898D01*
X146834717Y-100016180D01*
X147006180Y-99844717D01*
X147140898Y-99643097D01*
X147233693Y-99419069D01*
X147281000Y-99181243D01*
X147281000Y-98938757D01*
X147359000Y-98938757D01*
X147359000Y-99181243D01*
X147406307Y-99419069D01*
X147499102Y-99643097D01*
X147633820Y-99844717D01*
X147805283Y-100016180D01*
X148006903Y-100150898D01*
X148230931Y-100243693D01*
X148468757Y-100291000D01*
X148711243Y-100291000D01*
X148949069Y-100243693D01*
X149173097Y-100150898D01*
X149374717Y-100016180D01*
X149546180Y-99844717D01*
X149680898Y-99643097D01*
X149773693Y-99419069D01*
X149821000Y-99181243D01*
X149821000Y-98938757D01*
X149899000Y-98938757D01*
X149899000Y-99181243D01*
X149946307Y-99419069D01*
X150039102Y-99643097D01*
X150173820Y-99844717D01*
X150345283Y-100016180D01*
X150546903Y-100150898D01*
X150770931Y-100243693D01*
X151008757Y-100291000D01*
X151251243Y-100291000D01*
X151489069Y-100243693D01*
X151713097Y-100150898D01*
X151914717Y-100016180D01*
X152086180Y-99844717D01*
X152220898Y-99643097D01*
X152313693Y-99419069D01*
X152361000Y-99181243D01*
X152361000Y-98938757D01*
X152439000Y-98938757D01*
X152439000Y-99181243D01*
X152486307Y-99419069D01*
X152579102Y-99643097D01*
X152713820Y-99844717D01*
X152885283Y-100016180D01*
X153086903Y-100150898D01*
X153310931Y-100243693D01*
X153548757Y-100291000D01*
X153791243Y-100291000D01*
X154029069Y-100243693D01*
X154253097Y-100150898D01*
X154454717Y-100016180D01*
X154626180Y-99844717D01*
X154760898Y-99643097D01*
X154853693Y-99419069D01*
X154901000Y-99181243D01*
X154901000Y-98938757D01*
X154979000Y-98938757D01*
X154979000Y-99181243D01*
X155026307Y-99419069D01*
X155119102Y-99643097D01*
X155253820Y-99844717D01*
X155425283Y-100016180D01*
X155626903Y-100150898D01*
X155850931Y-100243693D01*
X156088757Y-100291000D01*
X156331243Y-100291000D01*
X156569069Y-100243693D01*
X156793097Y-100150898D01*
X156994717Y-100016180D01*
X157166180Y-99844717D01*
X157300898Y-99643097D01*
X157393693Y-99419069D01*
X157441000Y-99181243D01*
X157441000Y-98938757D01*
X157519000Y-98938757D01*
X157519000Y-99181243D01*
X157566307Y-99419069D01*
X157659102Y-99643097D01*
X157793820Y-99844717D01*
X157965283Y-100016180D01*
X158166903Y-100150898D01*
X158390931Y-100243693D01*
X158628757Y-100291000D01*
X158871243Y-100291000D01*
X159109069Y-100243693D01*
X159333097Y-100150898D01*
X159534717Y-100016180D01*
X159706180Y-99844717D01*
X159840898Y-99643097D01*
X159933693Y-99419069D01*
X159981000Y-99181243D01*
X159981000Y-98938757D01*
X160059000Y-98938757D01*
X160059000Y-99181243D01*
X160106307Y-99419069D01*
X160199102Y-99643097D01*
X160333820Y-99844717D01*
X160505283Y-100016180D01*
X160706903Y-100150898D01*
X160930931Y-100243693D01*
X161168757Y-100291000D01*
X161411243Y-100291000D01*
X161649069Y-100243693D01*
X161873097Y-100150898D01*
X162074717Y-100016180D01*
X162246180Y-99844717D01*
X162380898Y-99643097D01*
X162473693Y-99419069D01*
X162521000Y-99181243D01*
X162521000Y-98938757D01*
X162599000Y-98938757D01*
X162599000Y-99181243D01*
X162646307Y-99419069D01*
X162739102Y-99643097D01*
X162873820Y-99844717D01*
X163045283Y-100016180D01*
X163246903Y-100150898D01*
X163470931Y-100243693D01*
X163708757Y-100291000D01*
X163951243Y-100291000D01*
X164189069Y-100243693D01*
X164413097Y-100150898D01*
X164614717Y-100016180D01*
X164786180Y-99844717D01*
X164920898Y-99643097D01*
X165013693Y-99419069D01*
X165061000Y-99181243D01*
X165061000Y-98938757D01*
X165139000Y-98938757D01*
X165139000Y-99181243D01*
X165186307Y-99419069D01*
X165279102Y-99643097D01*
X165413820Y-99844717D01*
X165585283Y-100016180D01*
X165786903Y-100150898D01*
X166010931Y-100243693D01*
X166248757Y-100291000D01*
X166491243Y-100291000D01*
X166729069Y-100243693D01*
X166953097Y-100150898D01*
X167154717Y-100016180D01*
X167326180Y-99844717D01*
X167460898Y-99643097D01*
X167553693Y-99419069D01*
X167601000Y-99181243D01*
X167601000Y-98938757D01*
X167679000Y-98938757D01*
X167679000Y-99181243D01*
X167726307Y-99419069D01*
X167819102Y-99643097D01*
X167953820Y-99844717D01*
X168125283Y-100016180D01*
X168326903Y-100150898D01*
X168550931Y-100243693D01*
X168788757Y-100291000D01*
X169031243Y-100291000D01*
X169269069Y-100243693D01*
X169493097Y-100150898D01*
X169694717Y-100016180D01*
X169866180Y-99844717D01*
X170000898Y-99643097D01*
X170093693Y-99419069D01*
X170141000Y-99181243D01*
X170141000Y-98938757D01*
X170093693Y-98700931D01*
X170000898Y-98476903D01*
X169866180Y-98275283D01*
X169800897Y-98210000D01*
X170217157Y-98210000D01*
X170217157Y-99910000D01*
X170224513Y-99984689D01*
X170246299Y-100056508D01*
X170281678Y-100122696D01*
X170329289Y-100180711D01*
X170387304Y-100228322D01*
X170453492Y-100263701D01*
X170525311Y-100285487D01*
X170600000Y-100292843D01*
X172300000Y-100292843D01*
X172374689Y-100285487D01*
X172446508Y-100263701D01*
X172512696Y-100228322D01*
X172570711Y-100180711D01*
X172618322Y-100122696D01*
X172653701Y-100056508D01*
X172675487Y-99984689D01*
X172682843Y-99910000D01*
X172682843Y-98210000D01*
X172675487Y-98135311D01*
X172653701Y-98063492D01*
X172618322Y-97997304D01*
X172570711Y-97939289D01*
X172512696Y-97891678D01*
X172446508Y-97856299D01*
X172374689Y-97834513D01*
X172300000Y-97827157D01*
X170600000Y-97827157D01*
X170525311Y-97834513D01*
X170453492Y-97856299D01*
X170387304Y-97891678D01*
X170329289Y-97939289D01*
X170281678Y-97997304D01*
X170246299Y-98063492D01*
X170224513Y-98135311D01*
X170217157Y-98210000D01*
X169800897Y-98210000D01*
X169694717Y-98103820D01*
X169493097Y-97969102D01*
X169269069Y-97876307D01*
X169031243Y-97829000D01*
X168788757Y-97829000D01*
X168550931Y-97876307D01*
X168326903Y-97969102D01*
X168125283Y-98103820D01*
X167953820Y-98275283D01*
X167819102Y-98476903D01*
X167726307Y-98700931D01*
X167679000Y-98938757D01*
X167601000Y-98938757D01*
X167553693Y-98700931D01*
X167460898Y-98476903D01*
X167326180Y-98275283D01*
X167154717Y-98103820D01*
X166953097Y-97969102D01*
X166729069Y-97876307D01*
X166491243Y-97829000D01*
X166248757Y-97829000D01*
X166010931Y-97876307D01*
X165786903Y-97969102D01*
X165585283Y-98103820D01*
X165413820Y-98275283D01*
X165279102Y-98476903D01*
X165186307Y-98700931D01*
X165139000Y-98938757D01*
X165061000Y-98938757D01*
X165013693Y-98700931D01*
X164920898Y-98476903D01*
X164786180Y-98275283D01*
X164614717Y-98103820D01*
X164413097Y-97969102D01*
X164189069Y-97876307D01*
X163951243Y-97829000D01*
X163708757Y-97829000D01*
X163470931Y-97876307D01*
X163246903Y-97969102D01*
X163045283Y-98103820D01*
X162873820Y-98275283D01*
X162739102Y-98476903D01*
X162646307Y-98700931D01*
X162599000Y-98938757D01*
X162521000Y-98938757D01*
X162473693Y-98700931D01*
X162380898Y-98476903D01*
X162246180Y-98275283D01*
X162074717Y-98103820D01*
X161873097Y-97969102D01*
X161649069Y-97876307D01*
X161411243Y-97829000D01*
X161168757Y-97829000D01*
X160930931Y-97876307D01*
X160706903Y-97969102D01*
X160505283Y-98103820D01*
X160333820Y-98275283D01*
X160199102Y-98476903D01*
X160106307Y-98700931D01*
X160059000Y-98938757D01*
X159981000Y-98938757D01*
X159933693Y-98700931D01*
X159840898Y-98476903D01*
X159706180Y-98275283D01*
X159534717Y-98103820D01*
X159333097Y-97969102D01*
X159109069Y-97876307D01*
X158871243Y-97829000D01*
X158628757Y-97829000D01*
X158390931Y-97876307D01*
X158166903Y-97969102D01*
X157965283Y-98103820D01*
X157793820Y-98275283D01*
X157659102Y-98476903D01*
X157566307Y-98700931D01*
X157519000Y-98938757D01*
X157441000Y-98938757D01*
X157393693Y-98700931D01*
X157300898Y-98476903D01*
X157166180Y-98275283D01*
X156994717Y-98103820D01*
X156793097Y-97969102D01*
X156569069Y-97876307D01*
X156331243Y-97829000D01*
X156088757Y-97829000D01*
X155850931Y-97876307D01*
X155626903Y-97969102D01*
X155425283Y-98103820D01*
X155253820Y-98275283D01*
X155119102Y-98476903D01*
X155026307Y-98700931D01*
X154979000Y-98938757D01*
X154901000Y-98938757D01*
X154853693Y-98700931D01*
X154760898Y-98476903D01*
X154626180Y-98275283D01*
X154454717Y-98103820D01*
X154253097Y-97969102D01*
X154029069Y-97876307D01*
X153791243Y-97829000D01*
X153548757Y-97829000D01*
X153310931Y-97876307D01*
X153086903Y-97969102D01*
X152885283Y-98103820D01*
X152713820Y-98275283D01*
X152579102Y-98476903D01*
X152486307Y-98700931D01*
X152439000Y-98938757D01*
X152361000Y-98938757D01*
X152313693Y-98700931D01*
X152220898Y-98476903D01*
X152086180Y-98275283D01*
X151914717Y-98103820D01*
X151713097Y-97969102D01*
X151489069Y-97876307D01*
X151251243Y-97829000D01*
X151008757Y-97829000D01*
X150770931Y-97876307D01*
X150546903Y-97969102D01*
X150345283Y-98103820D01*
X150173820Y-98275283D01*
X150039102Y-98476903D01*
X149946307Y-98700931D01*
X149899000Y-98938757D01*
X149821000Y-98938757D01*
X149773693Y-98700931D01*
X149680898Y-98476903D01*
X149546180Y-98275283D01*
X149374717Y-98103820D01*
X149173097Y-97969102D01*
X148949069Y-97876307D01*
X148711243Y-97829000D01*
X148468757Y-97829000D01*
X148230931Y-97876307D01*
X148006903Y-97969102D01*
X147805283Y-98103820D01*
X147633820Y-98275283D01*
X147499102Y-98476903D01*
X147406307Y-98700931D01*
X147359000Y-98938757D01*
X147281000Y-98938757D01*
X147233693Y-98700931D01*
X147140898Y-98476903D01*
X147006180Y-98275283D01*
X146834717Y-98103820D01*
X146633097Y-97969102D01*
X146409069Y-97876307D01*
X146171243Y-97829000D01*
X145928757Y-97829000D01*
X145690931Y-97876307D01*
X145466903Y-97969102D01*
X145265283Y-98103820D01*
X145093820Y-98275283D01*
X144959102Y-98476903D01*
X144866307Y-98700931D01*
X144819000Y-98938757D01*
X144741000Y-98938757D01*
X144693693Y-98700931D01*
X144600898Y-98476903D01*
X144466180Y-98275283D01*
X144294717Y-98103820D01*
X144093097Y-97969102D01*
X143869069Y-97876307D01*
X143631243Y-97829000D01*
X143388757Y-97829000D01*
X143150931Y-97876307D01*
X142926903Y-97969102D01*
X142725283Y-98103820D01*
X142553820Y-98275283D01*
X142419102Y-98476903D01*
X142371772Y-98591168D01*
X142314157Y-98428748D01*
X142165178Y-98178645D01*
X141970269Y-97962412D01*
X141736920Y-97788359D01*
X141474099Y-97663175D01*
X141326890Y-97618524D01*
X141097000Y-97739845D01*
X141097000Y-98933000D01*
X141117000Y-98933000D01*
X141117000Y-99187000D01*
X141097000Y-99187000D01*
X141097000Y-99207000D01*
X140843000Y-99207000D01*
X140843000Y-99187000D01*
X140823000Y-99187000D01*
X140823000Y-98933000D01*
X140843000Y-98933000D01*
X140843000Y-97739845D01*
X140613110Y-97618524D01*
X140465901Y-97663175D01*
X140203080Y-97788359D01*
X139969731Y-97962412D01*
X139774822Y-98178645D01*
X139625843Y-98428748D01*
X139568228Y-98591168D01*
X139520898Y-98476903D01*
X139386180Y-98275283D01*
X139214717Y-98103820D01*
X139013097Y-97969102D01*
X138789069Y-97876307D01*
X138551243Y-97829000D01*
X138308757Y-97829000D01*
X138070931Y-97876307D01*
X137846903Y-97969102D01*
X137645283Y-98103820D01*
X137473820Y-98275283D01*
X137339102Y-98476903D01*
X137246307Y-98700931D01*
X137199000Y-98938757D01*
X137199000Y-99181243D01*
X137246307Y-99419069D01*
X137339102Y-99643097D01*
X137432583Y-99783001D01*
X137367343Y-99783001D01*
X137053108Y-99468766D01*
X137073693Y-99419069D01*
X137121000Y-99181243D01*
X137121000Y-98938757D01*
X137073693Y-98700931D01*
X136980898Y-98476903D01*
X136846180Y-98275283D01*
X136674717Y-98103820D01*
X136473097Y-97969102D01*
X136249069Y-97876307D01*
X136011243Y-97829000D01*
X135768757Y-97829000D01*
X135530931Y-97876307D01*
X135306903Y-97969102D01*
X135105283Y-98103820D01*
X134933820Y-98275283D01*
X134799102Y-98476903D01*
X134706307Y-98700931D01*
X134659000Y-98938757D01*
X134659000Y-99181243D01*
X134706307Y-99419069D01*
X134799102Y-99643097D01*
X134933820Y-99844717D01*
X135105283Y-100016180D01*
X135306903Y-100150898D01*
X135530931Y-100243693D01*
X135768757Y-100291000D01*
X136011243Y-100291000D01*
X136249069Y-100243693D01*
X136298766Y-100223108D01*
X136750710Y-100675052D01*
X136767406Y-100695396D01*
X136848626Y-100762052D01*
X136941290Y-100811582D01*
X137041836Y-100842082D01*
X137120206Y-100849801D01*
X137120213Y-100849801D01*
X137146400Y-100852380D01*
X137172587Y-100849801D01*
X140402982Y-100849801D01*
X141810338Y-102257157D01*
X139216000Y-102257157D01*
X139141311Y-102264513D01*
X139069492Y-102286299D01*
X139003304Y-102321678D01*
X138945289Y-102369289D01*
X138897678Y-102427304D01*
X138862299Y-102493492D01*
X138840513Y-102565311D01*
X138833157Y-102640000D01*
X138833157Y-103505000D01*
X133553589Y-103505000D01*
X133522400Y-103501928D01*
X133491211Y-103505000D01*
X133491208Y-103505000D01*
X133397918Y-103514188D01*
X133278220Y-103550498D01*
X133167906Y-103609462D01*
X133095443Y-103668931D01*
X133095439Y-103668935D01*
X133071215Y-103688815D01*
X133051334Y-103713040D01*
X132150609Y-104613767D01*
X132040176Y-104591800D01*
X131815024Y-104591800D01*
X131594199Y-104635725D01*
X131386187Y-104721887D01*
X131198980Y-104846974D01*
X131039774Y-105006180D01*
X130914687Y-105193387D01*
X130828525Y-105401399D01*
X130784600Y-105622224D01*
X130530600Y-105622224D01*
X130530600Y-105602224D01*
X130486675Y-105381399D01*
X130400513Y-105173387D01*
X130275426Y-104986180D01*
X130116220Y-104826974D01*
X130022600Y-104764419D01*
X130022600Y-98938757D01*
X132119000Y-98938757D01*
X132119000Y-99181243D01*
X132166307Y-99419069D01*
X132259102Y-99643097D01*
X132393820Y-99844717D01*
X132565283Y-100016180D01*
X132766903Y-100150898D01*
X132990931Y-100243693D01*
X133228757Y-100291000D01*
X133471243Y-100291000D01*
X133709069Y-100243693D01*
X133933097Y-100150898D01*
X134134717Y-100016180D01*
X134306180Y-99844717D01*
X134440898Y-99643097D01*
X134533693Y-99419069D01*
X134581000Y-99181243D01*
X134581000Y-98938757D01*
X134533693Y-98700931D01*
X134440898Y-98476903D01*
X134306180Y-98275283D01*
X134134717Y-98103820D01*
X133933097Y-97969102D01*
X133709069Y-97876307D01*
X133471243Y-97829000D01*
X133228757Y-97829000D01*
X132990931Y-97876307D01*
X132766903Y-97969102D01*
X132565283Y-98103820D01*
X132393820Y-98275283D01*
X132259102Y-98476903D01*
X132166307Y-98700931D01*
X132119000Y-98938757D01*
X130022600Y-98938757D01*
X130022600Y-98205424D01*
X133540754Y-94687270D01*
X148087080Y-94687270D01*
X148087080Y-94837370D01*
X148116363Y-94984587D01*
X148173804Y-95123262D01*
X148257196Y-95248067D01*
X148363333Y-95354204D01*
X148488138Y-95437596D01*
X148626813Y-95495037D01*
X148774030Y-95524320D01*
X148924130Y-95524320D01*
X149071347Y-95495037D01*
X149210022Y-95437596D01*
X149334827Y-95354204D01*
X149440964Y-95248067D01*
X149524356Y-95123262D01*
X149581797Y-94984587D01*
X149611080Y-94837370D01*
X149611080Y-94718740D01*
X151814911Y-92514910D01*
X151809552Y-92532575D01*
X151802201Y-92607212D01*
X151799744Y-92632159D01*
X151802201Y-92657103D01*
X151802202Y-95459577D01*
X151524100Y-95737680D01*
X151405470Y-95737680D01*
X151258253Y-95766963D01*
X151119578Y-95824404D01*
X150994773Y-95907796D01*
X150888636Y-96013933D01*
X150805244Y-96138738D01*
X150747803Y-96277413D01*
X150718520Y-96424630D01*
X150718520Y-96574730D01*
X150747803Y-96721947D01*
X150805244Y-96860622D01*
X150888636Y-96985427D01*
X150994773Y-97091564D01*
X151119578Y-97174956D01*
X151258253Y-97232397D01*
X151405470Y-97261680D01*
X151555570Y-97261680D01*
X151702787Y-97232397D01*
X151841462Y-97174956D01*
X151966267Y-97091564D01*
X152072404Y-96985427D01*
X152155796Y-96860622D01*
X152213237Y-96721947D01*
X152242520Y-96574730D01*
X152242520Y-96456100D01*
X152651771Y-96046849D01*
X152671149Y-96030947D01*
X152689825Y-96008189D01*
X152734630Y-95953595D01*
X152781801Y-95865343D01*
X152781802Y-95865342D01*
X152810850Y-95769584D01*
X152818201Y-95694946D01*
X152818201Y-95694944D01*
X152820658Y-95670000D01*
X152818201Y-95645056D01*
X152818201Y-93600150D01*
X159486600Y-93600150D01*
X159486600Y-93750250D01*
X159515883Y-93897467D01*
X159573324Y-94036142D01*
X159656716Y-94160947D01*
X159762853Y-94267084D01*
X159887658Y-94350476D01*
X160026333Y-94407917D01*
X160173550Y-94437200D01*
X160323650Y-94437200D01*
X160470867Y-94407917D01*
X160609542Y-94350476D01*
X160734347Y-94267084D01*
X160840484Y-94160947D01*
X160923876Y-94036142D01*
X160981317Y-93897467D01*
X161010600Y-93750250D01*
X161010600Y-93631620D01*
X168424461Y-86217760D01*
X169010929Y-86217760D01*
X169094813Y-86301644D01*
X169219618Y-86385036D01*
X169358293Y-86442477D01*
X169505510Y-86471760D01*
X169655610Y-86471760D01*
X169802827Y-86442477D01*
X169941502Y-86385036D01*
X170066307Y-86301644D01*
X170172444Y-86195507D01*
X170255836Y-86070702D01*
X170313277Y-85932027D01*
X170342560Y-85784810D01*
X170342560Y-85634710D01*
X170313277Y-85487493D01*
X170255836Y-85348818D01*
X170172444Y-85224013D01*
X170066307Y-85117876D01*
X169941502Y-85034484D01*
X169802827Y-84977043D01*
X169655610Y-84947760D01*
X169505510Y-84947760D01*
X169358293Y-84977043D01*
X169219618Y-85034484D01*
X169094813Y-85117876D01*
X169010929Y-85201760D01*
X168238983Y-85201760D01*
X168214039Y-85199303D01*
X168189095Y-85201760D01*
X168189093Y-85201760D01*
X168114455Y-85209111D01*
X168018697Y-85238159D01*
X168018695Y-85238160D01*
X167930444Y-85285331D01*
X167875850Y-85330136D01*
X167853092Y-85348812D01*
X167837190Y-85368189D01*
X160292180Y-92913200D01*
X160173550Y-92913200D01*
X160026333Y-92942483D01*
X159887658Y-92999924D01*
X159762853Y-93083316D01*
X159656716Y-93189453D01*
X159573324Y-93314258D01*
X159515883Y-93452933D01*
X159486600Y-93600150D01*
X152818201Y-93600150D01*
X152818201Y-92842579D01*
X162054141Y-83606640D01*
X162172770Y-83606640D01*
X162319987Y-83577357D01*
X162458662Y-83519916D01*
X162583467Y-83436524D01*
X162689604Y-83330387D01*
X162772996Y-83205582D01*
X162830437Y-83066907D01*
X162859720Y-82919690D01*
X162859720Y-82769590D01*
X162830437Y-82622373D01*
X162772996Y-82483698D01*
X162689604Y-82358893D01*
X162583467Y-82252756D01*
X162458662Y-82169364D01*
X162319987Y-82111923D01*
X162172770Y-82082640D01*
X162022670Y-82082640D01*
X161875453Y-82111923D01*
X161736778Y-82169364D01*
X161611973Y-82252756D01*
X161505836Y-82358893D01*
X161422444Y-82483698D01*
X161365003Y-82622373D01*
X161335720Y-82769590D01*
X161335720Y-82888219D01*
X159891107Y-84332832D01*
X159900889Y-84300585D01*
X159908240Y-84225947D01*
X159908240Y-84225944D01*
X159910697Y-84201000D01*
X159908240Y-84176056D01*
X159908240Y-83297431D01*
X159992124Y-83213547D01*
X160075516Y-83088742D01*
X160132957Y-82950067D01*
X160162240Y-82802850D01*
X160162240Y-82652750D01*
X160132957Y-82505533D01*
X160075516Y-82366858D01*
X159992124Y-82242053D01*
X159885987Y-82135916D01*
X159761182Y-82052524D01*
X159622507Y-81995083D01*
X159475290Y-81965800D01*
X159325190Y-81965800D01*
X159177973Y-81995083D01*
X159039298Y-82052524D01*
X158914493Y-82135916D01*
X158808356Y-82242053D01*
X158724964Y-82366858D01*
X158667523Y-82505533D01*
X158638240Y-82652750D01*
X158638240Y-82802850D01*
X158667523Y-82950067D01*
X158724964Y-83088742D01*
X158808356Y-83213547D01*
X158892241Y-83297432D01*
X158892240Y-83990580D01*
X154075196Y-88807624D01*
X154055813Y-88823531D01*
X153993416Y-88899563D01*
X149780281Y-93112699D01*
X149707689Y-93004058D01*
X149649205Y-92945574D01*
X149649205Y-91130056D01*
X153697901Y-87081360D01*
X153780610Y-87081360D01*
X153927827Y-87052077D01*
X154066502Y-86994636D01*
X154191307Y-86911244D01*
X154297444Y-86805107D01*
X154380836Y-86680302D01*
X154438277Y-86541627D01*
X154467560Y-86394410D01*
X154467560Y-86244310D01*
X154438277Y-86097093D01*
X154380836Y-85958418D01*
X154297444Y-85833613D01*
X154191307Y-85727476D01*
X154066502Y-85644084D01*
X153927827Y-85586643D01*
X153780610Y-85557360D01*
X153630510Y-85557360D01*
X153483293Y-85586643D01*
X153344618Y-85644084D01*
X153219813Y-85727476D01*
X153113676Y-85833613D01*
X153030284Y-85958418D01*
X152972843Y-86097093D01*
X152943560Y-86244310D01*
X152943560Y-86327019D01*
X148757160Y-90513419D01*
X148736810Y-90530120D01*
X148670154Y-90611340D01*
X148620624Y-90704005D01*
X148590124Y-90804551D01*
X148582405Y-90882921D01*
X148582405Y-90882928D01*
X148579826Y-90909115D01*
X148582405Y-90935302D01*
X148582406Y-92945573D01*
X148523921Y-93004058D01*
X148440529Y-93128863D01*
X148383088Y-93267538D01*
X148353805Y-93414755D01*
X148353805Y-93564855D01*
X148383088Y-93712072D01*
X148440529Y-93850747D01*
X148523921Y-93975552D01*
X148592277Y-94043908D01*
X148488138Y-94087044D01*
X148363333Y-94170436D01*
X148257196Y-94276573D01*
X148173804Y-94401378D01*
X148116363Y-94540053D01*
X148087080Y-94687270D01*
X133540754Y-94687270D01*
X148292155Y-79935871D01*
X148468757Y-79971000D01*
X148711243Y-79971000D01*
X148949069Y-79923693D01*
X149173097Y-79830898D01*
X149374717Y-79696180D01*
X149546180Y-79524717D01*
X149680898Y-79323097D01*
X149773693Y-79099069D01*
X149821000Y-78861243D01*
X149821000Y-78618757D01*
X149899000Y-78618757D01*
X149899000Y-78861243D01*
X149946307Y-79099069D01*
X150039102Y-79323097D01*
X150173820Y-79524717D01*
X150345283Y-79696180D01*
X150546903Y-79830898D01*
X150770931Y-79923693D01*
X151008757Y-79971000D01*
X151251243Y-79971000D01*
X151489069Y-79923693D01*
X151713097Y-79830898D01*
X151914717Y-79696180D01*
X152086180Y-79524717D01*
X152220898Y-79323097D01*
X152313693Y-79099069D01*
X152361000Y-78861243D01*
X152361000Y-78618757D01*
X152439000Y-78618757D01*
X152439000Y-78861243D01*
X152486307Y-79099069D01*
X152579102Y-79323097D01*
X152713820Y-79524717D01*
X152885283Y-79696180D01*
X153086903Y-79830898D01*
X153310931Y-79923693D01*
X153548757Y-79971000D01*
X153791243Y-79971000D01*
X154029069Y-79923693D01*
X154253097Y-79830898D01*
X154454717Y-79696180D01*
X154626180Y-79524717D01*
X154760898Y-79323097D01*
X154853693Y-79099069D01*
X154901000Y-78861243D01*
X154901000Y-78618757D01*
X154979000Y-78618757D01*
X154979000Y-78861243D01*
X155026307Y-79099069D01*
X155119102Y-79323097D01*
X155253820Y-79524717D01*
X155425283Y-79696180D01*
X155626903Y-79830898D01*
X155850931Y-79923693D01*
X156088757Y-79971000D01*
X156331243Y-79971000D01*
X156569069Y-79923693D01*
X156793097Y-79830898D01*
X156994717Y-79696180D01*
X157166180Y-79524717D01*
X157300898Y-79323097D01*
X157393693Y-79099069D01*
X157441000Y-78861243D01*
X157441000Y-78618757D01*
X157519000Y-78618757D01*
X157519000Y-78861243D01*
X157566307Y-79099069D01*
X157659102Y-79323097D01*
X157793820Y-79524717D01*
X157965283Y-79696180D01*
X158166903Y-79830898D01*
X158390931Y-79923693D01*
X158628757Y-79971000D01*
X158871243Y-79971000D01*
X159109069Y-79923693D01*
X159333097Y-79830898D01*
X159534717Y-79696180D01*
X159706180Y-79524717D01*
X159840898Y-79323097D01*
X159933693Y-79099069D01*
X159981000Y-78861243D01*
X159981000Y-78618757D01*
X160059000Y-78618757D01*
X160059000Y-78861243D01*
X160106307Y-79099069D01*
X160199102Y-79323097D01*
X160333820Y-79524717D01*
X160505283Y-79696180D01*
X160706903Y-79830898D01*
X160930931Y-79923693D01*
X161168757Y-79971000D01*
X161411243Y-79971000D01*
X161649069Y-79923693D01*
X161873097Y-79830898D01*
X162074717Y-79696180D01*
X162246180Y-79524717D01*
X162380898Y-79323097D01*
X162473693Y-79099069D01*
X162521000Y-78861243D01*
X162521000Y-78618757D01*
X162599000Y-78618757D01*
X162599000Y-78861243D01*
X162646307Y-79099069D01*
X162739102Y-79323097D01*
X162873820Y-79524717D01*
X163045283Y-79696180D01*
X163246903Y-79830898D01*
X163470931Y-79923693D01*
X163708757Y-79971000D01*
X163951243Y-79971000D01*
X164189069Y-79923693D01*
X164413097Y-79830898D01*
X164614717Y-79696180D01*
X164786180Y-79524717D01*
X164920898Y-79323097D01*
X165013693Y-79099069D01*
X165061000Y-78861243D01*
X165061000Y-78618757D01*
X165139000Y-78618757D01*
X165139000Y-78861243D01*
X165186307Y-79099069D01*
X165279102Y-79323097D01*
X165413820Y-79524717D01*
X165585283Y-79696180D01*
X165786903Y-79830898D01*
X166010931Y-79923693D01*
X166248757Y-79971000D01*
X166491243Y-79971000D01*
X166729069Y-79923693D01*
X166953097Y-79830898D01*
X167154717Y-79696180D01*
X167326180Y-79524717D01*
X167460898Y-79323097D01*
X167553693Y-79099069D01*
X167601000Y-78861243D01*
X167601000Y-78618757D01*
X167679000Y-78618757D01*
X167679000Y-78861243D01*
X167726307Y-79099069D01*
X167819102Y-79323097D01*
X167953820Y-79524717D01*
X168125283Y-79696180D01*
X168326903Y-79830898D01*
X168550931Y-79923693D01*
X168788757Y-79971000D01*
X169031243Y-79971000D01*
X169269069Y-79923693D01*
X169493097Y-79830898D01*
X169694717Y-79696180D01*
X169866180Y-79524717D01*
X170000898Y-79323097D01*
X170093693Y-79099069D01*
X170141000Y-78861243D01*
X170141000Y-78618757D01*
X170093693Y-78380931D01*
X170000898Y-78156903D01*
X169866180Y-77955283D01*
X169800897Y-77890000D01*
X170217157Y-77890000D01*
X170217157Y-79590000D01*
X170224513Y-79664689D01*
X170246299Y-79736508D01*
X170281678Y-79802696D01*
X170329289Y-79860711D01*
X170387304Y-79908322D01*
X170453492Y-79943701D01*
X170525311Y-79965487D01*
X170600000Y-79972843D01*
X172300000Y-79972843D01*
X172374689Y-79965487D01*
X172446508Y-79943701D01*
X172512696Y-79908322D01*
X172570711Y-79860711D01*
X172618322Y-79802696D01*
X172653701Y-79736508D01*
X172675487Y-79664689D01*
X172682843Y-79590000D01*
X172682843Y-77890000D01*
X172675487Y-77815311D01*
X172653701Y-77743492D01*
X172618322Y-77677304D01*
X172570711Y-77619289D01*
X172512696Y-77571678D01*
X172446508Y-77536299D01*
X172374689Y-77514513D01*
X172300000Y-77507157D01*
X170600000Y-77507157D01*
X170525311Y-77514513D01*
X170453492Y-77536299D01*
X170387304Y-77571678D01*
X170329289Y-77619289D01*
X170281678Y-77677304D01*
X170246299Y-77743492D01*
X170224513Y-77815311D01*
X170217157Y-77890000D01*
X169800897Y-77890000D01*
X169694717Y-77783820D01*
X169493097Y-77649102D01*
X169269069Y-77556307D01*
X169031243Y-77509000D01*
X168788757Y-77509000D01*
X168550931Y-77556307D01*
X168326903Y-77649102D01*
X168125283Y-77783820D01*
X167953820Y-77955283D01*
X167819102Y-78156903D01*
X167726307Y-78380931D01*
X167679000Y-78618757D01*
X167601000Y-78618757D01*
X167553693Y-78380931D01*
X167460898Y-78156903D01*
X167326180Y-77955283D01*
X167154717Y-77783820D01*
X166953097Y-77649102D01*
X166729069Y-77556307D01*
X166491243Y-77509000D01*
X166248757Y-77509000D01*
X166010931Y-77556307D01*
X165786903Y-77649102D01*
X165585283Y-77783820D01*
X165413820Y-77955283D01*
X165279102Y-78156903D01*
X165186307Y-78380931D01*
X165139000Y-78618757D01*
X165061000Y-78618757D01*
X165013693Y-78380931D01*
X164920898Y-78156903D01*
X164786180Y-77955283D01*
X164614717Y-77783820D01*
X164413097Y-77649102D01*
X164189069Y-77556307D01*
X163951243Y-77509000D01*
X163708757Y-77509000D01*
X163470931Y-77556307D01*
X163246903Y-77649102D01*
X163045283Y-77783820D01*
X162873820Y-77955283D01*
X162739102Y-78156903D01*
X162646307Y-78380931D01*
X162599000Y-78618757D01*
X162521000Y-78618757D01*
X162473693Y-78380931D01*
X162380898Y-78156903D01*
X162246180Y-77955283D01*
X162074717Y-77783820D01*
X161873097Y-77649102D01*
X161649069Y-77556307D01*
X161411243Y-77509000D01*
X161168757Y-77509000D01*
X160930931Y-77556307D01*
X160706903Y-77649102D01*
X160505283Y-77783820D01*
X160333820Y-77955283D01*
X160199102Y-78156903D01*
X160106307Y-78380931D01*
X160059000Y-78618757D01*
X159981000Y-78618757D01*
X159933693Y-78380931D01*
X159840898Y-78156903D01*
X159706180Y-77955283D01*
X159534717Y-77783820D01*
X159333097Y-77649102D01*
X159109069Y-77556307D01*
X158871243Y-77509000D01*
X158628757Y-77509000D01*
X158390931Y-77556307D01*
X158166903Y-77649102D01*
X157965283Y-77783820D01*
X157793820Y-77955283D01*
X157659102Y-78156903D01*
X157566307Y-78380931D01*
X157519000Y-78618757D01*
X157441000Y-78618757D01*
X157393693Y-78380931D01*
X157300898Y-78156903D01*
X157166180Y-77955283D01*
X156994717Y-77783820D01*
X156793097Y-77649102D01*
X156569069Y-77556307D01*
X156331243Y-77509000D01*
X156088757Y-77509000D01*
X155850931Y-77556307D01*
X155626903Y-77649102D01*
X155425283Y-77783820D01*
X155253820Y-77955283D01*
X155119102Y-78156903D01*
X155026307Y-78380931D01*
X154979000Y-78618757D01*
X154901000Y-78618757D01*
X154853693Y-78380931D01*
X154760898Y-78156903D01*
X154626180Y-77955283D01*
X154454717Y-77783820D01*
X154253097Y-77649102D01*
X154029069Y-77556307D01*
X153791243Y-77509000D01*
X153548757Y-77509000D01*
X153310931Y-77556307D01*
X153086903Y-77649102D01*
X152885283Y-77783820D01*
X152713820Y-77955283D01*
X152579102Y-78156903D01*
X152486307Y-78380931D01*
X152439000Y-78618757D01*
X152361000Y-78618757D01*
X152313693Y-78380931D01*
X152220898Y-78156903D01*
X152086180Y-77955283D01*
X151914717Y-77783820D01*
X151713097Y-77649102D01*
X151489069Y-77556307D01*
X151251243Y-77509000D01*
X151008757Y-77509000D01*
X150770931Y-77556307D01*
X150546903Y-77649102D01*
X150345283Y-77783820D01*
X150173820Y-77955283D01*
X150039102Y-78156903D01*
X149946307Y-78380931D01*
X149899000Y-78618757D01*
X149821000Y-78618757D01*
X149773693Y-78380931D01*
X149680898Y-78156903D01*
X149546180Y-77955283D01*
X149374717Y-77783820D01*
X149173097Y-77649102D01*
X148949069Y-77556307D01*
X148711243Y-77509000D01*
X148468757Y-77509000D01*
X148230931Y-77556307D01*
X148006903Y-77649102D01*
X147805283Y-77783820D01*
X147633820Y-77955283D01*
X147499102Y-78156903D01*
X147406307Y-78380931D01*
X147359000Y-78618757D01*
X147359000Y-78861243D01*
X147394129Y-79037845D01*
X147163540Y-79268434D01*
X147233693Y-79099069D01*
X147281000Y-78861243D01*
X147281000Y-78618757D01*
X147233693Y-78380931D01*
X147140898Y-78156903D01*
X147006180Y-77955283D01*
X146834717Y-77783820D01*
X146633097Y-77649102D01*
X146409069Y-77556307D01*
X146171243Y-77509000D01*
X145928757Y-77509000D01*
X145690931Y-77556307D01*
X145466903Y-77649102D01*
X145265283Y-77783820D01*
X145093820Y-77955283D01*
X144959102Y-78156903D01*
X144866307Y-78380931D01*
X144819000Y-78618757D01*
X144819000Y-78861243D01*
X144866307Y-79099069D01*
X144959102Y-79323097D01*
X145090425Y-79519635D01*
X127406000Y-97204060D01*
X127406000Y-78618757D01*
X142279000Y-78618757D01*
X142279000Y-78861243D01*
X142326307Y-79099069D01*
X142419102Y-79323097D01*
X142553820Y-79524717D01*
X142725283Y-79696180D01*
X142926903Y-79830898D01*
X143150931Y-79923693D01*
X143388757Y-79971000D01*
X143631243Y-79971000D01*
X143869069Y-79923693D01*
X144093097Y-79830898D01*
X144294717Y-79696180D01*
X144466180Y-79524717D01*
X144600898Y-79323097D01*
X144693693Y-79099069D01*
X144741000Y-78861243D01*
X144741000Y-78618757D01*
X144693693Y-78380931D01*
X144600898Y-78156903D01*
X144466180Y-77955283D01*
X144294717Y-77783820D01*
X144093097Y-77649102D01*
X143869069Y-77556307D01*
X143631243Y-77509000D01*
X143388757Y-77509000D01*
X143150931Y-77556307D01*
X142926903Y-77649102D01*
X142725283Y-77783820D01*
X142553820Y-77955283D01*
X142419102Y-78156903D01*
X142326307Y-78380931D01*
X142279000Y-78618757D01*
X127406000Y-78618757D01*
X127406000Y-76606000D01*
X177394001Y-76606000D01*
X177394000Y-154534000D01*
G37*
%TD.AperFunction*%
%TD*%
M02*
