M48
; DRILL file {KiCad (6.0.0-0)} date 2022 January 18, Tuesday 08:39:47
; FORMAT={-:-/ absolute / inch / decimal}
; #@! TF.CreationDate,2022-01-18T08:39:47+01:00
; #@! TF.GenerationSoftware,Kicad,Pcbnew,(6.0.0-0)
; #@! TF.FileFunction,MixedPlating,1,2
FMAT,2
INCH
; #@! TA.AperFunction,Plated,PTH,ViaDrill
T1C0.0150
; #@! TA.AperFunction,Plated,PTH,ComponentDrill
T2C0.0354
; #@! TA.AperFunction,Plated,PTH,ComponentDrill
T3C0.0394
; #@! TA.AperFunction,Plated,PTH,ComponentDrill
T4C0.0433
; #@! TA.AperFunction,NonPlated,NPTH,ComponentDrill
T5C0.1358
%
G90
G05
T1
X7.546Y-3.246
X7.874Y-2.977
X7.901Y-2.699
X8.127Y-2.638
X8.199Y-2.698
X8.63Y-4.346
T2
X7.185Y-3.954
X7.185Y-4.0524
X7.185Y-4.1509
T3
X7.189Y-3.5578
X7.189Y-3.6578
X7.293Y-3.342
X7.393Y-3.342
X7.493Y-3.342
X7.593Y-3.342
X7.693Y-2.542
X7.693Y-3.342
X7.793Y-2.542
X7.793Y-3.342
X7.893Y-2.542
X7.893Y-3.342
X7.993Y-2.542
X7.993Y-3.342
X8.093Y-2.542
X8.093Y-3.342
X8.193Y-2.542
X8.193Y-3.342
X8.293Y-2.542
X8.293Y-3.342
X8.393Y-2.542
X8.393Y-3.342
X8.493Y-2.542
X8.493Y-3.342
X8.593Y-2.542
X8.593Y-3.342
X8.693Y-2.542
X8.693Y-3.342
X8.793Y-2.542
X8.793Y-3.342
T4
X7.583Y-3.532
X8.083Y-3.532
T5
X7.583Y-4.4659
X8.5082Y-4.4659
T0
M30
