%TF.GenerationSoftware,KiCad,Pcbnew,6.0.1-1.fc35*%
%TF.CreationDate,2022-01-26T14:41:52+01:00*%
%TF.ProjectId,burrboard,62757272-626f-4617-9264-2e6b69636164,v3.0*%
%TF.SameCoordinates,Original*%
%TF.FileFunction,Copper,L1,Top*%
%TF.FilePolarity,Positive*%
%FSLAX46Y46*%
G04 Gerber Fmt 4.6, Leading zero omitted, Abs format (unit mm)*
G04 Created by KiCad (PCBNEW 6.0.1-1.fc35) date 2022-01-26 14:41:52*
%MOMM*%
%LPD*%
G01*
G04 APERTURE LIST*
G04 Aperture macros list*
%AMRoundRect*
0 Rectangle with rounded corners*
0 $1 Rounding radius*
0 $2 $3 $4 $5 $6 $7 $8 $9 X,Y pos of 4 corners*
0 Add a 4 corners polygon primitive as box body*
4,1,4,$2,$3,$4,$5,$6,$7,$8,$9,$2,$3,0*
0 Add four circle primitives for the rounded corners*
1,1,$1+$1,$2,$3*
1,1,$1+$1,$4,$5*
1,1,$1+$1,$6,$7*
1,1,$1+$1,$8,$9*
0 Add four rect primitives between the rounded corners*
20,1,$1+$1,$2,$3,$4,$5,0*
20,1,$1+$1,$4,$5,$6,$7,0*
20,1,$1+$1,$6,$7,$8,$9,0*
20,1,$1+$1,$8,$9,$2,$3,0*%
G04 Aperture macros list end*
%TA.AperFunction,SMDPad,CuDef*%
%ADD10R,1.550000X1.300000*%
%TD*%
%TA.AperFunction,SMDPad,CuDef*%
%ADD11R,1.100000X0.800000*%
%TD*%
%TA.AperFunction,ComponentPad*%
%ADD12R,1.700000X1.700000*%
%TD*%
%TA.AperFunction,ComponentPad*%
%ADD13O,1.700000X1.700000*%
%TD*%
%TA.AperFunction,SMDPad,CuDef*%
%ADD14RoundRect,0.243750X0.243750X0.456250X-0.243750X0.456250X-0.243750X-0.456250X0.243750X-0.456250X0*%
%TD*%
%TA.AperFunction,SMDPad,CuDef*%
%ADD15RoundRect,0.250000X0.450000X-0.262500X0.450000X0.262500X-0.450000X0.262500X-0.450000X-0.262500X0*%
%TD*%
%TA.AperFunction,SMDPad,CuDef*%
%ADD16RoundRect,0.250000X-0.262500X-0.450000X0.262500X-0.450000X0.262500X0.450000X-0.262500X0.450000X0*%
%TD*%
%TA.AperFunction,SMDPad,CuDef*%
%ADD17RoundRect,0.250000X0.262500X0.450000X-0.262500X0.450000X-0.262500X-0.450000X0.262500X-0.450000X0*%
%TD*%
%TA.AperFunction,SMDPad,CuDef*%
%ADD18RoundRect,0.250000X-0.450000X0.262500X-0.450000X-0.262500X0.450000X-0.262500X0.450000X0.262500X0*%
%TD*%
%TA.AperFunction,SMDPad,CuDef*%
%ADD19RoundRect,0.150000X-0.150000X0.825000X-0.150000X-0.825000X0.150000X-0.825000X0.150000X0.825000X0*%
%TD*%
%TA.AperFunction,SMDPad,CuDef*%
%ADD20RoundRect,0.250000X-0.250000X-0.475000X0.250000X-0.475000X0.250000X0.475000X-0.250000X0.475000X0*%
%TD*%
%TA.AperFunction,SMDPad,CuDef*%
%ADD21RoundRect,0.250000X0.250000X0.475000X-0.250000X0.475000X-0.250000X-0.475000X0.250000X-0.475000X0*%
%TD*%
%TA.AperFunction,ComponentPad*%
%ADD22R,3.000000X3.000000*%
%TD*%
%TA.AperFunction,ComponentPad*%
%ADD23C,3.000000*%
%TD*%
%TA.AperFunction,ComponentPad*%
%ADD24R,1.900000X1.900000*%
%TD*%
%TA.AperFunction,ComponentPad*%
%ADD25C,1.900000*%
%TD*%
%TA.AperFunction,ViaPad*%
%ADD26C,0.762000*%
%TD*%
%TA.AperFunction,Conductor*%
%ADD27C,0.254000*%
%TD*%
%TA.AperFunction,Conductor*%
%ADD28C,0.304800*%
%TD*%
%TA.AperFunction,Conductor*%
%ADD29C,0.508000*%
%TD*%
G04 APERTURE END LIST*
D10*
%TO.P,S2,1*%
%TO.N,/F3*%
X209385000Y-127112200D03*
%TO.P,S2,2*%
%TO.N,unconnected-(S2-Pad2)*%
X217335000Y-127112200D03*
%TO.P,S2,3*%
%TO.N,unconnected-(S2-Pad3)*%
X209385000Y-131612200D03*
%TO.P,S2,4*%
%TO.N,GND*%
X217335000Y-131612200D03*
%TD*%
D11*
%TO.P,Q1,1,E_1*%
%TO.N,unconnected-(Q1-Pad1)*%
X226819000Y-107958800D03*
%TO.P,Q1,2,E_2*%
%TO.N,/A5*%
X226819000Y-109058800D03*
%TO.P,Q1,3,C*%
%TO.N,/3V3*%
X223269000Y-108508800D03*
%TD*%
D10*
%TO.P,S1,1*%
%TO.N,/F4*%
X191605000Y-127112200D03*
%TO.P,S1,2*%
%TO.N,unconnected-(S1-Pad2)*%
X199555000Y-127112200D03*
%TO.P,S1,3*%
%TO.N,unconnected-(S1-Pad3)*%
X191605000Y-131612200D03*
%TO.P,S1,4*%
%TO.N,GND*%
X199555000Y-131612200D03*
%TD*%
D12*
%TO.P,J1,1,Pin_1*%
%TO.N,unconnected-(J1-Pad1)*%
X223342200Y-84886800D03*
D13*
%TO.P,J1,2,Pin_2*%
%TO.N,unconnected-(J1-Pad2)*%
X220802200Y-84886800D03*
%TO.P,J1,3,Pin_3*%
%TO.N,unconnected-(J1-Pad3)*%
X218262200Y-84886800D03*
%TO.P,J1,4,Pin_4*%
%TO.N,unconnected-(J1-Pad4)*%
X215722200Y-84886800D03*
%TO.P,J1,5,Pin_5*%
%TO.N,unconnected-(J1-Pad5)*%
X213182200Y-84886800D03*
%TO.P,J1,6,Pin_6*%
%TO.N,unconnected-(J1-Pad6)*%
X210642200Y-84886800D03*
%TO.P,J1,7,Pin_7*%
%TO.N,/A5*%
X208102200Y-84886800D03*
%TO.P,J1,8,Pin_8*%
%TO.N,/A4*%
X205562200Y-84886800D03*
%TO.P,J1,9,Pin_9*%
%TO.N,/A3*%
X203022200Y-84886800D03*
%TO.P,J1,10,Pin_10*%
%TO.N,/A2*%
X200482200Y-84886800D03*
%TO.P,J1,11,Pin_11*%
%TO.N,/A1*%
X197942200Y-84886800D03*
%TO.P,J1,12,Pin_12*%
%TO.N,/A0*%
X195402200Y-84886800D03*
%TO.P,J1,13,Pin_13*%
%TO.N,GND*%
X192862200Y-84886800D03*
%TO.P,J1,14,Pin_14*%
%TO.N,unconnected-(J1-Pad14)*%
X190322200Y-84886800D03*
%TO.P,J1,15,Pin_15*%
%TO.N,/3V3*%
X187782200Y-84886800D03*
%TO.P,J1,16,Pin_16*%
%TO.N,unconnected-(J1-Pad16)*%
X185242200Y-84886800D03*
%TD*%
D12*
%TO.P,J2,1,Pin_1*%
%TO.N,unconnected-(J2-Pad1)*%
X223342200Y-64566800D03*
D13*
%TO.P,J2,2,Pin_2*%
%TO.N,unconnected-(J2-Pad2)*%
X220802200Y-64566800D03*
%TO.P,J2,3,Pin_3*%
%TO.N,unconnected-(J2-Pad3)*%
X218262200Y-64566800D03*
%TO.P,J2,4,Pin_4*%
%TO.N,unconnected-(J2-Pad4)*%
X215722200Y-64566800D03*
%TO.P,J2,5,Pin_5*%
%TO.N,/F2*%
X213182200Y-64566800D03*
%TO.P,J2,6,Pin_6*%
%TO.N,/F3*%
X210642200Y-64566800D03*
%TO.P,J2,7,Pin_7*%
%TO.N,/F4*%
X208102200Y-64566800D03*
%TO.P,J2,8,Pin_8*%
%TO.N,unconnected-(J2-Pad8)*%
X205562200Y-64566800D03*
%TO.P,J2,9,Pin_9*%
%TO.N,unconnected-(J2-Pad9)*%
X203022200Y-64566800D03*
%TO.P,J2,10,Pin_10*%
%TO.N,/VUSB*%
X200482200Y-64566800D03*
%TO.P,J2,11,Pin_11*%
%TO.N,unconnected-(J2-Pad11)*%
X197942200Y-64566800D03*
%TO.P,J2,12,Pin_12*%
%TO.N,unconnected-(J2-Pad12)*%
X195402200Y-64566800D03*
%TD*%
D14*
%TO.P,D2,1,K*%
%TO.N,GND*%
X199946500Y-90932000D03*
%TO.P,D2,2,A*%
%TO.N,Net-(D2-Pad2)*%
X198071500Y-90932000D03*
%TD*%
%TO.P,D4,1,K*%
%TO.N,GND*%
X221917500Y-90932000D03*
%TO.P,D4,2,A*%
%TO.N,Net-(D4-Pad2)*%
X220042500Y-90932000D03*
%TD*%
D15*
%TO.P,R4,1*%
%TO.N,/F4*%
X183591200Y-124102500D03*
%TO.P,R4,2*%
%TO.N,/3V3*%
X183591200Y-122277500D03*
%TD*%
%TO.P,R8,1*%
%TO.N,Net-(D4-Pad2)*%
X224536000Y-90066500D03*
%TO.P,R8,2*%
%TO.N,/F2*%
X224536000Y-88241500D03*
%TD*%
D16*
%TO.P,R7,1*%
%TO.N,Net-(D2-Pad2)*%
X200763500Y-88595200D03*
%TO.P,R7,2*%
%TO.N,/A3*%
X202588500Y-88595200D03*
%TD*%
D17*
%TO.P,R1,1*%
%TO.N,/A5*%
X225956500Y-114180000D03*
%TO.P,R1,2*%
%TO.N,GND*%
X224131500Y-114180000D03*
%TD*%
D18*
%TO.P,R5,1*%
%TO.N,/F3*%
X225044000Y-122277500D03*
%TO.P,R5,2*%
%TO.N,/3V3*%
X225044000Y-124102500D03*
%TD*%
D19*
%TO.P,U1,1,Vout*%
%TO.N,/A1*%
X185496200Y-106033800D03*
%TO.P,U1,2*%
%TO.N,N/C*%
X184226200Y-106033800D03*
%TO.P,U1,3*%
X182956200Y-106033800D03*
%TO.P,U1,4,GND*%
%TO.N,GND*%
X181686200Y-106033800D03*
%TO.P,U1,5,~{SHUTDOWN}*%
%TO.N,/3V3*%
X181686200Y-110983800D03*
%TO.P,U1,6*%
%TO.N,N/C*%
X182956200Y-110983800D03*
%TO.P,U1,7*%
X184226200Y-110983800D03*
%TO.P,U1,8,+Vs*%
%TO.N,/3V3*%
X185496200Y-110983800D03*
%TD*%
D20*
%TO.P,C1,1*%
%TO.N,/3V3*%
X182641200Y-116128800D03*
%TO.P,C1,2*%
%TO.N,GND*%
X184541200Y-116128800D03*
%TD*%
D16*
%TO.P,R6,1*%
%TO.N,Net-(D1-Pad2)*%
X191670300Y-92608400D03*
%TO.P,R6,2*%
%TO.N,/A2*%
X193495300Y-92608400D03*
%TD*%
D14*
%TO.P,D1,2,A*%
%TO.N,Net-(D1-Pad2)*%
X187022500Y-90932000D03*
%TO.P,D1,1,K*%
%TO.N,GND*%
X188897500Y-90932000D03*
%TD*%
D15*
%TO.P,R2,1*%
%TO.N,Net-(D3-Pad2)*%
X215036400Y-90066500D03*
%TO.P,R2,2*%
%TO.N,/A4*%
X215036400Y-88241500D03*
%TD*%
D14*
%TO.P,D3,1,K*%
%TO.N,GND*%
X210995500Y-90932000D03*
%TO.P,D3,2,A*%
%TO.N,Net-(D3-Pad2)*%
X209120500Y-90932000D03*
%TD*%
D17*
%TO.P,R11,1*%
%TO.N,GND*%
X192936500Y-79502000D03*
%TO.P,R11,2*%
%TO.N,/A0*%
X191111500Y-79502000D03*
%TD*%
D16*
%TO.P,R10,1*%
%TO.N,/A0*%
X184456700Y-79502000D03*
%TO.P,R10,2*%
%TO.N,VDD*%
X186281700Y-79502000D03*
%TD*%
D21*
%TO.P,C5,1*%
%TO.N,/A0*%
X193024800Y-75184000D03*
%TO.P,C5,2*%
%TO.N,GND*%
X191124800Y-75184000D03*
%TD*%
D22*
%TO.P,BT1,1,+*%
%TO.N,VDD*%
X192608200Y-89712800D03*
D23*
%TO.P,BT1,2,-*%
%TO.N,GND*%
X205308200Y-89712800D03*
%TD*%
D24*
%TO.P,S3,1,A*%
%TO.N,/VUSB*%
X206850000Y-73660000D03*
D25*
%TO.P,S3,2,B*%
%TO.N,VDD*%
X204350000Y-73660000D03*
%TO.P,S3,3,C*%
%TO.N,unconnected-(S3-Pad3)*%
X201850000Y-73660000D03*
%TD*%
D26*
%TO.N,/A5*%
X226822000Y-110540800D03*
%TO.N,/3V3*%
X222351600Y-110947200D03*
%TD*%
D27*
%TO.N,Net-(D2-Pad2)*%
X198071500Y-90932000D02*
X200408300Y-88595200D01*
X200408300Y-88595200D02*
X200763500Y-88595200D01*
%TO.N,/A3*%
X203022200Y-84886800D02*
X203022200Y-88161500D01*
X203022200Y-88161500D02*
X202588500Y-88595200D01*
%TO.N,Net-(D4-Pad2)*%
X220042500Y-90932000D02*
X221072220Y-89902280D01*
X221072220Y-89902280D02*
X224371780Y-89902280D01*
X224371780Y-89902280D02*
X224536000Y-90066500D01*
%TO.N,Net-(D3-Pad2)*%
X214225500Y-89255600D02*
X210159600Y-89255600D01*
X215036400Y-90066500D02*
X214225500Y-89255600D01*
X210159600Y-89255600D02*
X209120500Y-90294700D01*
X209120500Y-90294700D02*
X209120500Y-90932000D01*
%TO.N,/A5*%
X226822000Y-110540800D02*
X226822000Y-113314500D01*
X226822000Y-113314500D02*
X225956500Y-114180000D01*
D28*
%TO.N,/A0*%
X184456700Y-79502000D02*
X184456700Y-80113500D01*
X186791600Y-81483200D02*
X188772800Y-79502000D01*
X184456700Y-80113500D02*
X185826400Y-81483200D01*
X188772800Y-79502000D02*
X191111500Y-79502000D01*
X185826400Y-81483200D02*
X186791600Y-81483200D01*
X191111500Y-79502000D02*
X191111500Y-77097300D01*
X191111500Y-77097300D02*
X193024800Y-75184000D01*
X195402200Y-84886800D02*
X191111500Y-80596100D01*
X191111500Y-80596100D02*
X191111500Y-79502000D01*
D27*
%TO.N,/F4*%
X191605000Y-127112200D02*
X186600900Y-127112200D01*
X186600900Y-127112200D02*
X183591200Y-124102500D01*
%TO.N,/F3*%
X222656400Y-129438400D02*
X213004400Y-129438400D01*
X226720400Y-125374400D02*
X222656400Y-129438400D01*
X225044000Y-122277500D02*
X226720400Y-123953900D01*
X226720400Y-123953900D02*
X226720400Y-125374400D01*
X213004400Y-129438400D02*
X210678200Y-127112200D01*
X210678200Y-127112200D02*
X209385000Y-127112200D01*
X210642200Y-64566800D02*
X212471000Y-62738000D01*
X212471000Y-62738000D02*
X224637600Y-62738000D01*
X224637600Y-62738000D02*
X228498400Y-66598800D01*
X228498400Y-66598800D02*
X228498400Y-118823100D01*
X228498400Y-118823100D02*
X225044000Y-122277500D01*
%TO.N,/F2*%
X224536000Y-88239600D02*
X225806000Y-86969600D01*
X224536000Y-88241500D02*
X224536000Y-88239600D01*
X225806000Y-86969600D02*
X225806000Y-77190600D01*
X225806000Y-77190600D02*
X213182200Y-64566800D01*
%TO.N,/A5*%
X226822000Y-110540800D02*
X226822000Y-109061800D01*
X226822000Y-109061800D02*
X226819000Y-109058800D01*
%TO.N,/A1*%
X197942200Y-84886800D02*
X195605400Y-87223600D01*
X185420000Y-101498400D02*
X186588400Y-102666800D01*
X195605400Y-87223600D02*
X187807600Y-87223600D01*
X187807600Y-87223600D02*
X185420000Y-89611200D01*
X186588400Y-104941600D02*
X185496200Y-106033800D01*
X185420000Y-89611200D02*
X185420000Y-101498400D01*
X186588400Y-102666800D02*
X186588400Y-104941600D01*
%TO.N,Net-(D1-Pad2)*%
X191670300Y-92608400D02*
X188698900Y-92608400D01*
X188698900Y-92608400D02*
X187022500Y-90932000D01*
%TO.N,/A2*%
X200482200Y-84886800D02*
X200482200Y-85621500D01*
X200482200Y-85621500D02*
X193495300Y-92608400D01*
%TO.N,/A4*%
X205562200Y-84886800D02*
X208916900Y-88241500D01*
X208916900Y-88241500D02*
X215036400Y-88241500D01*
D28*
%TO.N,/3V3*%
X181686200Y-110983800D02*
X181686200Y-110564453D01*
X181686200Y-110564453D02*
X182596973Y-109653680D01*
X182596973Y-109653680D02*
X184634480Y-109653680D01*
X184634480Y-109653680D02*
X185496200Y-110515400D01*
X185496200Y-110515400D02*
X185496200Y-110983800D01*
X182641200Y-116128800D02*
X181686200Y-115173800D01*
X181686200Y-115173800D02*
X181686200Y-110983800D01*
X187782200Y-84886800D02*
X186577089Y-86091911D01*
X186577089Y-86091911D02*
X185442521Y-86091911D01*
X185442521Y-86091911D02*
X181000400Y-90534032D01*
X181000400Y-90534032D02*
X181000400Y-110298000D01*
X181000400Y-110298000D02*
X181686200Y-110983800D01*
D27*
%TO.N,/F4*%
X206375000Y-62839600D02*
X193294000Y-62839600D01*
X208102200Y-64566800D02*
X206375000Y-62839600D01*
X179756281Y-120267581D02*
X183591200Y-124102500D01*
X193294000Y-62839600D02*
X179756281Y-76377319D01*
X179756281Y-76377319D02*
X179756281Y-120267581D01*
D28*
%TO.N,/3V3*%
X222351600Y-121410100D02*
X222351600Y-110947200D01*
X225044000Y-124102500D02*
X222351600Y-121410100D01*
X222351600Y-110947200D02*
X223269000Y-110029800D01*
X223269000Y-110029800D02*
X223269000Y-108508800D01*
X182641200Y-116128800D02*
X182641200Y-121327500D01*
X182641200Y-121327500D02*
X183591200Y-122277500D01*
D29*
%TO.N,VDD*%
X201606800Y-70916800D02*
X191109600Y-70916800D01*
X191109600Y-70916800D02*
X186281700Y-75744700D01*
X204350000Y-73660000D02*
X201606800Y-70916800D01*
X186281700Y-75744700D02*
X186281700Y-79502000D01*
%TD*%
%TA.AperFunction,Conductor*%
%TO.N,GND*%
G36*
X212152608Y-62300802D02*
G01*
X212199101Y-62354458D01*
X212209205Y-62424732D01*
X212179711Y-62489312D01*
X212173582Y-62495895D01*
X211165322Y-63504155D01*
X211103010Y-63538181D01*
X211029537Y-63532090D01*
X210962603Y-63505386D01*
X210957239Y-63503246D01*
X210951579Y-63502120D01*
X210951575Y-63502119D01*
X210763813Y-63464771D01*
X210763810Y-63464771D01*
X210758146Y-63463644D01*
X210752371Y-63463568D01*
X210752367Y-63463568D01*
X210650993Y-63462241D01*
X210555171Y-63460987D01*
X210549474Y-63461966D01*
X210549473Y-63461966D01*
X210461597Y-63477066D01*
X210355110Y-63495364D01*
X210164663Y-63565624D01*
X209990210Y-63669412D01*
X209985870Y-63673218D01*
X209985866Y-63673221D01*
X209841933Y-63799448D01*
X209837592Y-63803255D01*
X209711920Y-63962669D01*
X209709231Y-63967780D01*
X209709229Y-63967783D01*
X209696273Y-63992409D01*
X209617403Y-64142315D01*
X209557207Y-64336178D01*
X209533348Y-64537764D01*
X209546624Y-64740322D01*
X209548045Y-64745918D01*
X209548046Y-64745923D01*
X209568319Y-64825745D01*
X209596592Y-64937069D01*
X209599009Y-64942312D01*
X209636210Y-65023008D01*
X209681577Y-65121416D01*
X209798733Y-65287189D01*
X209944138Y-65428835D01*
X210112920Y-65541612D01*
X210118223Y-65543890D01*
X210118226Y-65543892D01*
X210240964Y-65596624D01*
X210299428Y-65621742D01*
X210372444Y-65638264D01*
X210491779Y-65665267D01*
X210491784Y-65665268D01*
X210497416Y-65666542D01*
X210503187Y-65666769D01*
X210503189Y-65666769D01*
X210562956Y-65669117D01*
X210700253Y-65674512D01*
X210807548Y-65658955D01*
X210895431Y-65646213D01*
X210895436Y-65646212D01*
X210901145Y-65645384D01*
X210906609Y-65643529D01*
X210906614Y-65643528D01*
X211087893Y-65581992D01*
X211087898Y-65581990D01*
X211093365Y-65580134D01*
X211270476Y-65480947D01*
X211310169Y-65447935D01*
X211422113Y-65354831D01*
X211426545Y-65351145D01*
X211556347Y-65195076D01*
X211655534Y-65017965D01*
X211657390Y-65012498D01*
X211657392Y-65012493D01*
X211718928Y-64831214D01*
X211718929Y-64831209D01*
X211720784Y-64825745D01*
X211721612Y-64820036D01*
X211721613Y-64820031D01*
X211749379Y-64628527D01*
X211749912Y-64624853D01*
X211751432Y-64566800D01*
X211748764Y-64537764D01*
X212073348Y-64537764D01*
X212086624Y-64740322D01*
X212088045Y-64745918D01*
X212088046Y-64745923D01*
X212108319Y-64825745D01*
X212136592Y-64937069D01*
X212139009Y-64942312D01*
X212176210Y-65023008D01*
X212221577Y-65121416D01*
X212338733Y-65287189D01*
X212484138Y-65428835D01*
X212652920Y-65541612D01*
X212658223Y-65543890D01*
X212658226Y-65543892D01*
X212780964Y-65596624D01*
X212839428Y-65621742D01*
X212912444Y-65638264D01*
X213031779Y-65665267D01*
X213031784Y-65665268D01*
X213037416Y-65666542D01*
X213043187Y-65666769D01*
X213043189Y-65666769D01*
X213102956Y-65669117D01*
X213240253Y-65674512D01*
X213347548Y-65658955D01*
X213435431Y-65646213D01*
X213435436Y-65646212D01*
X213441145Y-65645384D01*
X213446609Y-65643529D01*
X213446614Y-65643528D01*
X213576080Y-65599580D01*
X213647015Y-65596624D01*
X213705676Y-65629798D01*
X220351219Y-72275342D01*
X225387595Y-77311718D01*
X225421621Y-77374030D01*
X225424500Y-77400813D01*
X225424500Y-86759387D01*
X225404498Y-86827508D01*
X225387595Y-86848483D01*
X224798481Y-87437596D01*
X224736169Y-87471621D01*
X224709386Y-87474500D01*
X224038244Y-87474500D01*
X224034848Y-87474869D01*
X224034847Y-87474869D01*
X223984403Y-87480349D01*
X223984402Y-87480349D01*
X223976552Y-87481202D01*
X223969159Y-87483974D01*
X223969157Y-87483974D01*
X223954705Y-87489392D01*
X223841236Y-87531929D01*
X223834057Y-87537309D01*
X223834054Y-87537311D01*
X223763728Y-87590018D01*
X223725596Y-87618596D01*
X223720215Y-87625776D01*
X223644311Y-87727054D01*
X223644309Y-87727057D01*
X223638929Y-87734236D01*
X223607558Y-87817920D01*
X223591898Y-87859694D01*
X223588202Y-87869552D01*
X223581500Y-87931244D01*
X223581500Y-88551756D01*
X223581869Y-88555152D01*
X223581869Y-88555153D01*
X223585363Y-88587311D01*
X223588202Y-88613448D01*
X223590974Y-88620841D01*
X223590974Y-88620843D01*
X223592617Y-88625225D01*
X223638929Y-88748764D01*
X223644309Y-88755943D01*
X223644311Y-88755946D01*
X223652545Y-88766932D01*
X223725596Y-88864404D01*
X223732776Y-88869785D01*
X223834054Y-88945689D01*
X223834057Y-88945691D01*
X223841236Y-88951071D01*
X223930954Y-88984704D01*
X223969157Y-88999026D01*
X223969159Y-88999026D01*
X223976552Y-89001798D01*
X223984402Y-89002651D01*
X223984403Y-89002651D01*
X224034847Y-89008131D01*
X224038244Y-89008500D01*
X225033756Y-89008500D01*
X225037153Y-89008131D01*
X225087597Y-89002651D01*
X225087598Y-89002651D01*
X225095448Y-89001798D01*
X225102841Y-88999026D01*
X225102843Y-88999026D01*
X225141046Y-88984704D01*
X225230764Y-88951071D01*
X225237943Y-88945691D01*
X225237946Y-88945689D01*
X225339224Y-88869785D01*
X225346404Y-88864404D01*
X225419455Y-88766932D01*
X225427689Y-88755946D01*
X225427691Y-88755943D01*
X225433071Y-88748764D01*
X225479383Y-88625225D01*
X225481026Y-88620843D01*
X225481026Y-88620841D01*
X225483798Y-88613448D01*
X225486638Y-88587311D01*
X225490131Y-88555153D01*
X225490131Y-88555152D01*
X225490500Y-88551756D01*
X225490500Y-87931244D01*
X225486572Y-87895087D01*
X225499100Y-87825205D01*
X225522739Y-87792384D01*
X226037482Y-87277640D01*
X226056478Y-87262299D01*
X226057552Y-87261322D01*
X226066304Y-87255671D01*
X226087229Y-87229128D01*
X226091208Y-87224650D01*
X226091137Y-87224590D01*
X226094490Y-87220633D01*
X226098171Y-87216952D01*
X226109469Y-87201143D01*
X226113032Y-87196398D01*
X226138485Y-87164110D01*
X226144934Y-87155930D01*
X226147984Y-87147245D01*
X226153334Y-87139758D01*
X226168109Y-87090353D01*
X226169930Y-87084750D01*
X226184388Y-87043581D01*
X226187016Y-87036098D01*
X226187500Y-87030509D01*
X226187500Y-87027796D01*
X226187615Y-87025131D01*
X226187634Y-87025068D01*
X226187808Y-87025075D01*
X226187855Y-87024329D01*
X226189725Y-87018076D01*
X226187597Y-86963922D01*
X226187500Y-86958975D01*
X226187500Y-77244735D01*
X226190086Y-77220436D01*
X226190154Y-77218998D01*
X226192345Y-77208820D01*
X226188373Y-77175258D01*
X226188021Y-77169280D01*
X226187928Y-77169288D01*
X226187500Y-77164110D01*
X226187500Y-77158908D01*
X226184312Y-77139754D01*
X226183477Y-77133889D01*
X226178642Y-77093033D01*
X226178642Y-77093032D01*
X226177418Y-77082693D01*
X226173433Y-77074394D01*
X226171922Y-77065317D01*
X226147442Y-77019949D01*
X226144761Y-77014686D01*
X226125873Y-76975350D01*
X226125870Y-76975346D01*
X226122440Y-76968202D01*
X226118830Y-76963908D01*
X226116898Y-76961976D01*
X226115111Y-76960027D01*
X226115082Y-76959974D01*
X226115212Y-76959855D01*
X226114711Y-76959287D01*
X226111612Y-76953543D01*
X226071790Y-76916732D01*
X226068225Y-76913303D01*
X214245198Y-65090275D01*
X214211172Y-65027963D01*
X214214980Y-64960679D01*
X214258928Y-64831214D01*
X214258929Y-64831209D01*
X214260784Y-64825745D01*
X214261612Y-64820036D01*
X214261613Y-64820031D01*
X214289379Y-64628527D01*
X214289912Y-64624853D01*
X214291432Y-64566800D01*
X214288764Y-64537764D01*
X214613348Y-64537764D01*
X214626624Y-64740322D01*
X214628045Y-64745918D01*
X214628046Y-64745923D01*
X214648319Y-64825745D01*
X214676592Y-64937069D01*
X214679009Y-64942312D01*
X214716210Y-65023008D01*
X214761577Y-65121416D01*
X214878733Y-65287189D01*
X215024138Y-65428835D01*
X215192920Y-65541612D01*
X215198223Y-65543890D01*
X215198226Y-65543892D01*
X215320964Y-65596624D01*
X215379428Y-65621742D01*
X215452444Y-65638264D01*
X215571779Y-65665267D01*
X215571784Y-65665268D01*
X215577416Y-65666542D01*
X215583187Y-65666769D01*
X215583189Y-65666769D01*
X215642956Y-65669117D01*
X215780253Y-65674512D01*
X215887548Y-65658955D01*
X215975431Y-65646213D01*
X215975436Y-65646212D01*
X215981145Y-65645384D01*
X215986609Y-65643529D01*
X215986614Y-65643528D01*
X216167893Y-65581992D01*
X216167898Y-65581990D01*
X216173365Y-65580134D01*
X216350476Y-65480947D01*
X216390169Y-65447935D01*
X216502113Y-65354831D01*
X216506545Y-65351145D01*
X216636347Y-65195076D01*
X216735534Y-65017965D01*
X216737390Y-65012498D01*
X216737392Y-65012493D01*
X216798928Y-64831214D01*
X216798929Y-64831209D01*
X216800784Y-64825745D01*
X216801612Y-64820036D01*
X216801613Y-64820031D01*
X216829379Y-64628527D01*
X216829912Y-64624853D01*
X216831432Y-64566800D01*
X216828764Y-64537764D01*
X217153348Y-64537764D01*
X217166624Y-64740322D01*
X217168045Y-64745918D01*
X217168046Y-64745923D01*
X217188319Y-64825745D01*
X217216592Y-64937069D01*
X217219009Y-64942312D01*
X217256210Y-65023008D01*
X217301577Y-65121416D01*
X217418733Y-65287189D01*
X217564138Y-65428835D01*
X217732920Y-65541612D01*
X217738223Y-65543890D01*
X217738226Y-65543892D01*
X217860964Y-65596624D01*
X217919428Y-65621742D01*
X217992444Y-65638264D01*
X218111779Y-65665267D01*
X218111784Y-65665268D01*
X218117416Y-65666542D01*
X218123187Y-65666769D01*
X218123189Y-65666769D01*
X218182956Y-65669117D01*
X218320253Y-65674512D01*
X218427548Y-65658955D01*
X218515431Y-65646213D01*
X218515436Y-65646212D01*
X218521145Y-65645384D01*
X218526609Y-65643529D01*
X218526614Y-65643528D01*
X218707893Y-65581992D01*
X218707898Y-65581990D01*
X218713365Y-65580134D01*
X218890476Y-65480947D01*
X218930169Y-65447935D01*
X219042113Y-65354831D01*
X219046545Y-65351145D01*
X219176347Y-65195076D01*
X219275534Y-65017965D01*
X219277390Y-65012498D01*
X219277392Y-65012493D01*
X219338928Y-64831214D01*
X219338929Y-64831209D01*
X219340784Y-64825745D01*
X219341612Y-64820036D01*
X219341613Y-64820031D01*
X219369379Y-64628527D01*
X219369912Y-64624853D01*
X219371432Y-64566800D01*
X219368764Y-64537764D01*
X219693348Y-64537764D01*
X219706624Y-64740322D01*
X219708045Y-64745918D01*
X219708046Y-64745923D01*
X219728319Y-64825745D01*
X219756592Y-64937069D01*
X219759009Y-64942312D01*
X219796210Y-65023008D01*
X219841577Y-65121416D01*
X219958733Y-65287189D01*
X220104138Y-65428835D01*
X220272920Y-65541612D01*
X220278223Y-65543890D01*
X220278226Y-65543892D01*
X220400964Y-65596624D01*
X220459428Y-65621742D01*
X220532444Y-65638264D01*
X220651779Y-65665267D01*
X220651784Y-65665268D01*
X220657416Y-65666542D01*
X220663187Y-65666769D01*
X220663189Y-65666769D01*
X220722956Y-65669117D01*
X220860253Y-65674512D01*
X220967548Y-65658955D01*
X221055431Y-65646213D01*
X221055436Y-65646212D01*
X221061145Y-65645384D01*
X221066609Y-65643529D01*
X221066614Y-65643528D01*
X221247893Y-65581992D01*
X221247898Y-65581990D01*
X221253365Y-65580134D01*
X221430476Y-65480947D01*
X221470169Y-65447935D01*
X221582113Y-65354831D01*
X221586545Y-65351145D01*
X221716347Y-65195076D01*
X221815534Y-65017965D01*
X221817390Y-65012498D01*
X221817392Y-65012493D01*
X221878928Y-64831214D01*
X221878929Y-64831209D01*
X221880784Y-64825745D01*
X221881612Y-64820036D01*
X221881613Y-64820031D01*
X221909379Y-64628527D01*
X221909912Y-64624853D01*
X221911432Y-64566800D01*
X221892858Y-64364659D01*
X221891290Y-64359099D01*
X221839325Y-64174846D01*
X221839324Y-64174844D01*
X221837757Y-64169287D01*
X221827178Y-64147833D01*
X221750531Y-63992409D01*
X221747976Y-63987228D01*
X221626520Y-63824579D01*
X221482809Y-63691733D01*
X222237700Y-63691733D01*
X222237701Y-65441866D01*
X222252466Y-65516101D01*
X222259361Y-65526420D01*
X222259362Y-65526422D01*
X222299716Y-65586815D01*
X222308716Y-65600284D01*
X222392899Y-65656534D01*
X222467133Y-65671300D01*
X223342058Y-65671300D01*
X224217266Y-65671299D01*
X224253018Y-65664188D01*
X224279326Y-65658956D01*
X224279328Y-65658955D01*
X224291501Y-65656534D01*
X224301821Y-65649639D01*
X224301822Y-65649638D01*
X224365368Y-65607177D01*
X224375684Y-65600284D01*
X224431934Y-65516101D01*
X224446700Y-65441867D01*
X224446699Y-63691734D01*
X224431934Y-63617499D01*
X224405854Y-63578467D01*
X224382577Y-63543632D01*
X224375684Y-63533316D01*
X224291501Y-63477066D01*
X224217267Y-63462300D01*
X223342342Y-63462300D01*
X222467134Y-63462301D01*
X222438501Y-63467996D01*
X222405074Y-63474644D01*
X222405072Y-63474645D01*
X222392899Y-63477066D01*
X222382579Y-63483961D01*
X222382578Y-63483962D01*
X222322185Y-63524316D01*
X222308716Y-63533316D01*
X222252466Y-63617499D01*
X222237700Y-63691733D01*
X221482809Y-63691733D01*
X221477458Y-63686787D01*
X221472575Y-63683706D01*
X221472571Y-63683703D01*
X221310664Y-63581548D01*
X221305781Y-63578467D01*
X221117239Y-63503246D01*
X221111579Y-63502120D01*
X221111575Y-63502119D01*
X220923813Y-63464771D01*
X220923810Y-63464771D01*
X220918146Y-63463644D01*
X220912371Y-63463568D01*
X220912367Y-63463568D01*
X220810993Y-63462241D01*
X220715171Y-63460987D01*
X220709474Y-63461966D01*
X220709473Y-63461966D01*
X220621597Y-63477066D01*
X220515110Y-63495364D01*
X220324663Y-63565624D01*
X220150210Y-63669412D01*
X220145870Y-63673218D01*
X220145866Y-63673221D01*
X220001933Y-63799448D01*
X219997592Y-63803255D01*
X219871920Y-63962669D01*
X219869231Y-63967780D01*
X219869229Y-63967783D01*
X219856273Y-63992409D01*
X219777403Y-64142315D01*
X219717207Y-64336178D01*
X219693348Y-64537764D01*
X219368764Y-64537764D01*
X219352858Y-64364659D01*
X219351290Y-64359099D01*
X219299325Y-64174846D01*
X219299324Y-64174844D01*
X219297757Y-64169287D01*
X219287178Y-64147833D01*
X219210531Y-63992409D01*
X219207976Y-63987228D01*
X219086520Y-63824579D01*
X218937458Y-63686787D01*
X218932575Y-63683706D01*
X218932571Y-63683703D01*
X218770664Y-63581548D01*
X218765781Y-63578467D01*
X218577239Y-63503246D01*
X218571579Y-63502120D01*
X218571575Y-63502119D01*
X218383813Y-63464771D01*
X218383810Y-63464771D01*
X218378146Y-63463644D01*
X218372371Y-63463568D01*
X218372367Y-63463568D01*
X218270993Y-63462241D01*
X218175171Y-63460987D01*
X218169474Y-63461966D01*
X218169473Y-63461966D01*
X218081597Y-63477066D01*
X217975110Y-63495364D01*
X217784663Y-63565624D01*
X217610210Y-63669412D01*
X217605870Y-63673218D01*
X217605866Y-63673221D01*
X217461933Y-63799448D01*
X217457592Y-63803255D01*
X217331920Y-63962669D01*
X217329231Y-63967780D01*
X217329229Y-63967783D01*
X217316273Y-63992409D01*
X217237403Y-64142315D01*
X217177207Y-64336178D01*
X217153348Y-64537764D01*
X216828764Y-64537764D01*
X216812858Y-64364659D01*
X216811290Y-64359099D01*
X216759325Y-64174846D01*
X216759324Y-64174844D01*
X216757757Y-64169287D01*
X216747178Y-64147833D01*
X216670531Y-63992409D01*
X216667976Y-63987228D01*
X216546520Y-63824579D01*
X216397458Y-63686787D01*
X216392575Y-63683706D01*
X216392571Y-63683703D01*
X216230664Y-63581548D01*
X216225781Y-63578467D01*
X216037239Y-63503246D01*
X216031579Y-63502120D01*
X216031575Y-63502119D01*
X215843813Y-63464771D01*
X215843810Y-63464771D01*
X215838146Y-63463644D01*
X215832371Y-63463568D01*
X215832367Y-63463568D01*
X215730993Y-63462241D01*
X215635171Y-63460987D01*
X215629474Y-63461966D01*
X215629473Y-63461966D01*
X215541597Y-63477066D01*
X215435110Y-63495364D01*
X215244663Y-63565624D01*
X215070210Y-63669412D01*
X215065870Y-63673218D01*
X215065866Y-63673221D01*
X214921933Y-63799448D01*
X214917592Y-63803255D01*
X214791920Y-63962669D01*
X214789231Y-63967780D01*
X214789229Y-63967783D01*
X214776273Y-63992409D01*
X214697403Y-64142315D01*
X214637207Y-64336178D01*
X214613348Y-64537764D01*
X214288764Y-64537764D01*
X214272858Y-64364659D01*
X214271290Y-64359099D01*
X214219325Y-64174846D01*
X214219324Y-64174844D01*
X214217757Y-64169287D01*
X214207178Y-64147833D01*
X214130531Y-63992409D01*
X214127976Y-63987228D01*
X214006520Y-63824579D01*
X213857458Y-63686787D01*
X213852575Y-63683706D01*
X213852571Y-63683703D01*
X213690664Y-63581548D01*
X213685781Y-63578467D01*
X213497239Y-63503246D01*
X213491579Y-63502120D01*
X213491575Y-63502119D01*
X213303813Y-63464771D01*
X213303810Y-63464771D01*
X213298146Y-63463644D01*
X213292371Y-63463568D01*
X213292367Y-63463568D01*
X213190993Y-63462241D01*
X213095171Y-63460987D01*
X213089474Y-63461966D01*
X213089473Y-63461966D01*
X213001597Y-63477066D01*
X212895110Y-63495364D01*
X212704663Y-63565624D01*
X212530210Y-63669412D01*
X212525870Y-63673218D01*
X212525866Y-63673221D01*
X212381933Y-63799448D01*
X212377592Y-63803255D01*
X212251920Y-63962669D01*
X212249231Y-63967780D01*
X212249229Y-63967783D01*
X212236273Y-63992409D01*
X212157403Y-64142315D01*
X212097207Y-64336178D01*
X212073348Y-64537764D01*
X211748764Y-64537764D01*
X211732858Y-64364659D01*
X211726444Y-64341915D01*
X211677757Y-64169287D01*
X211678861Y-64168976D01*
X211673606Y-64104118D01*
X211707879Y-64040643D01*
X212592117Y-63156405D01*
X212654429Y-63122379D01*
X212681212Y-63119500D01*
X224427388Y-63119500D01*
X224495509Y-63139502D01*
X224516483Y-63156405D01*
X228079995Y-66719917D01*
X228114021Y-66782229D01*
X228116900Y-66809012D01*
X228116900Y-118612888D01*
X228096898Y-118681009D01*
X228079995Y-118701983D01*
X225308382Y-121473595D01*
X225246070Y-121507621D01*
X225219287Y-121510500D01*
X224546244Y-121510500D01*
X224542848Y-121510869D01*
X224542847Y-121510869D01*
X224492403Y-121516349D01*
X224492402Y-121516349D01*
X224484552Y-121517202D01*
X224477159Y-121519974D01*
X224477157Y-121519974D01*
X224470267Y-121522557D01*
X224349236Y-121567929D01*
X224342057Y-121573309D01*
X224342054Y-121573311D01*
X224263479Y-121632200D01*
X224233596Y-121654596D01*
X224228215Y-121661776D01*
X224152311Y-121763054D01*
X224152309Y-121763057D01*
X224146929Y-121770236D01*
X224096202Y-121905552D01*
X224089500Y-121967244D01*
X224089500Y-122268367D01*
X224069498Y-122336488D01*
X224015842Y-122382981D01*
X223945568Y-122393085D01*
X223880988Y-122363591D01*
X223874405Y-122357462D01*
X222795405Y-121278462D01*
X222761379Y-121216150D01*
X222758500Y-121189367D01*
X222758500Y-114677095D01*
X223111001Y-114677095D01*
X223111338Y-114683614D01*
X223121257Y-114779206D01*
X223124149Y-114792600D01*
X223175588Y-114946784D01*
X223181761Y-114959962D01*
X223267063Y-115097807D01*
X223276099Y-115109208D01*
X223390829Y-115223739D01*
X223402240Y-115232751D01*
X223540243Y-115317816D01*
X223553424Y-115323963D01*
X223707710Y-115375138D01*
X223721086Y-115378005D01*
X223815438Y-115387672D01*
X223821854Y-115388000D01*
X223859385Y-115388000D01*
X223874624Y-115383525D01*
X223875829Y-115382135D01*
X223877500Y-115374452D01*
X223877500Y-115369884D01*
X224385500Y-115369884D01*
X224389975Y-115385123D01*
X224391365Y-115386328D01*
X224399048Y-115387999D01*
X224441095Y-115387999D01*
X224447614Y-115387662D01*
X224543206Y-115377743D01*
X224556600Y-115374851D01*
X224710784Y-115323412D01*
X224723962Y-115317239D01*
X224861807Y-115231937D01*
X224873208Y-115222901D01*
X224987739Y-115108171D01*
X224996751Y-115096760D01*
X225085658Y-114952525D01*
X225087536Y-114953683D01*
X225127332Y-114908495D01*
X225195611Y-114889041D01*
X225263569Y-114909590D01*
X225295422Y-114939468D01*
X225333596Y-114990404D01*
X225340776Y-114995785D01*
X225442054Y-115071689D01*
X225442057Y-115071691D01*
X225449236Y-115077071D01*
X225525792Y-115105770D01*
X225577157Y-115125026D01*
X225577159Y-115125026D01*
X225584552Y-115127798D01*
X225592402Y-115128651D01*
X225592403Y-115128651D01*
X225642847Y-115134131D01*
X225646244Y-115134500D01*
X226266756Y-115134500D01*
X226270153Y-115134131D01*
X226320597Y-115128651D01*
X226320598Y-115128651D01*
X226328448Y-115127798D01*
X226335841Y-115125026D01*
X226335843Y-115125026D01*
X226387208Y-115105770D01*
X226463764Y-115077071D01*
X226470943Y-115071691D01*
X226470946Y-115071689D01*
X226572224Y-114995785D01*
X226579404Y-114990404D01*
X226606925Y-114953683D01*
X226660689Y-114881946D01*
X226660691Y-114881943D01*
X226666071Y-114874764D01*
X226716798Y-114739448D01*
X226723500Y-114677756D01*
X226723500Y-114004712D01*
X226743502Y-113936591D01*
X226760405Y-113915617D01*
X227053476Y-113622546D01*
X227072499Y-113607182D01*
X227073558Y-113606218D01*
X227082304Y-113600571D01*
X227088752Y-113592392D01*
X227088754Y-113592390D01*
X227103234Y-113574023D01*
X227107209Y-113569550D01*
X227107137Y-113569489D01*
X227110490Y-113565532D01*
X227114171Y-113561851D01*
X227125455Y-113546060D01*
X227129019Y-113541314D01*
X227154487Y-113509008D01*
X227160934Y-113500830D01*
X227163984Y-113492145D01*
X227169335Y-113484657D01*
X227184115Y-113435234D01*
X227185927Y-113429660D01*
X227203016Y-113380998D01*
X227203500Y-113375409D01*
X227203500Y-113372698D01*
X227203615Y-113370031D01*
X227203634Y-113369968D01*
X227203808Y-113369975D01*
X227203855Y-113369229D01*
X227205725Y-113362976D01*
X227203597Y-113308812D01*
X227203500Y-113303866D01*
X227203500Y-111108835D01*
X227223502Y-111040714D01*
X227247669Y-111013025D01*
X227287450Y-110979049D01*
X227287458Y-110979041D01*
X227293226Y-110974114D01*
X227382983Y-110849203D01*
X227440355Y-110706488D01*
X227462028Y-110554207D01*
X227462168Y-110540800D01*
X227460446Y-110526565D01*
X227450618Y-110445358D01*
X227443689Y-110388099D01*
X227389319Y-110244213D01*
X227355785Y-110195420D01*
X227306499Y-110123708D01*
X227306497Y-110123706D01*
X227302197Y-110117449D01*
X227245681Y-110067095D01*
X227208125Y-110006845D01*
X227203500Y-109973019D01*
X227203500Y-109839299D01*
X227223502Y-109771178D01*
X227277158Y-109724685D01*
X227329500Y-109713299D01*
X227394066Y-109713299D01*
X227429818Y-109706188D01*
X227456126Y-109700956D01*
X227456128Y-109700955D01*
X227468301Y-109698534D01*
X227478621Y-109691639D01*
X227478622Y-109691638D01*
X227542168Y-109649177D01*
X227552484Y-109642284D01*
X227608734Y-109558101D01*
X227623500Y-109483867D01*
X227623499Y-108633734D01*
X227608734Y-108559499D01*
X227604703Y-108553467D01*
X227597496Y-108486427D01*
X227603524Y-108465898D01*
X227608734Y-108458101D01*
X227623500Y-108383867D01*
X227623499Y-107533734D01*
X227608734Y-107459499D01*
X227552484Y-107375316D01*
X227468301Y-107319066D01*
X227394067Y-107304300D01*
X226819093Y-107304300D01*
X226243934Y-107304301D01*
X226208182Y-107311412D01*
X226181874Y-107316644D01*
X226181872Y-107316645D01*
X226169699Y-107319066D01*
X226159379Y-107325961D01*
X226159378Y-107325962D01*
X226098985Y-107366316D01*
X226085516Y-107375316D01*
X226029266Y-107459499D01*
X226014500Y-107533733D01*
X226014501Y-108383866D01*
X226029266Y-108458101D01*
X226033297Y-108464133D01*
X226040504Y-108531173D01*
X226034476Y-108551702D01*
X226029266Y-108559499D01*
X226014500Y-108633733D01*
X226014501Y-109483866D01*
X226029266Y-109558101D01*
X226085516Y-109642284D01*
X226169699Y-109698534D01*
X226243933Y-109713300D01*
X226314500Y-109713300D01*
X226382621Y-109733302D01*
X226429114Y-109786958D01*
X226440500Y-109839300D01*
X226440500Y-109972946D01*
X226420498Y-110041067D01*
X226397332Y-110067893D01*
X226346262Y-110112444D01*
X226257818Y-110238288D01*
X226255059Y-110245363D01*
X226255058Y-110245366D01*
X226205733Y-110371879D01*
X226201944Y-110381597D01*
X226200952Y-110389130D01*
X226200952Y-110389131D01*
X226183710Y-110520100D01*
X226181867Y-110534096D01*
X226184538Y-110558287D01*
X226194077Y-110644688D01*
X226198746Y-110686983D01*
X226201355Y-110694114D01*
X226201356Y-110694116D01*
X226235712Y-110787997D01*
X226251606Y-110831430D01*
X226255842Y-110837733D01*
X226255842Y-110837734D01*
X226329969Y-110948046D01*
X226337396Y-110959099D01*
X226343015Y-110964212D01*
X226343016Y-110964213D01*
X226399299Y-111015426D01*
X226436222Y-111076066D01*
X226440500Y-111108620D01*
X226440500Y-113103945D01*
X226420498Y-113172066D01*
X226366842Y-113218559D01*
X226300893Y-113229208D01*
X226270155Y-113225869D01*
X226270150Y-113225869D01*
X226266756Y-113225500D01*
X225646244Y-113225500D01*
X225642848Y-113225869D01*
X225642847Y-113225869D01*
X225592403Y-113231349D01*
X225592402Y-113231349D01*
X225584552Y-113232202D01*
X225577159Y-113234974D01*
X225577157Y-113234974D01*
X225558130Y-113242107D01*
X225449236Y-113282929D01*
X225442057Y-113288309D01*
X225442054Y-113288311D01*
X225354023Y-113354287D01*
X225333596Y-113369596D01*
X225295411Y-113420546D01*
X225238554Y-113463059D01*
X225167736Y-113468085D01*
X225105442Y-113434025D01*
X225085713Y-113405885D01*
X225085094Y-113406268D01*
X224995937Y-113262193D01*
X224986901Y-113250792D01*
X224872171Y-113136261D01*
X224860760Y-113127249D01*
X224722757Y-113042184D01*
X224709576Y-113036037D01*
X224555290Y-112984862D01*
X224541914Y-112981995D01*
X224447562Y-112972328D01*
X224441145Y-112972000D01*
X224403615Y-112972000D01*
X224388376Y-112976475D01*
X224387171Y-112977865D01*
X224385500Y-112985548D01*
X224385500Y-115369884D01*
X223877500Y-115369884D01*
X223877500Y-114452115D01*
X223873025Y-114436876D01*
X223871635Y-114435671D01*
X223863952Y-114434000D01*
X223129116Y-114434000D01*
X223113877Y-114438475D01*
X223112672Y-114439865D01*
X223111001Y-114447548D01*
X223111001Y-114677095D01*
X222758500Y-114677095D01*
X222758500Y-113907885D01*
X223111000Y-113907885D01*
X223115475Y-113923124D01*
X223116865Y-113924329D01*
X223124548Y-113926000D01*
X223859385Y-113926000D01*
X223874624Y-113921525D01*
X223875829Y-113920135D01*
X223877500Y-113912452D01*
X223877500Y-112990116D01*
X223873025Y-112974877D01*
X223871635Y-112973672D01*
X223863952Y-112972001D01*
X223821905Y-112972001D01*
X223815386Y-112972338D01*
X223719794Y-112982257D01*
X223706400Y-112985149D01*
X223552216Y-113036588D01*
X223539038Y-113042761D01*
X223401193Y-113128063D01*
X223389792Y-113137099D01*
X223275261Y-113251829D01*
X223266249Y-113263240D01*
X223181184Y-113401243D01*
X223175037Y-113414424D01*
X223123862Y-113568710D01*
X223120995Y-113582086D01*
X223111328Y-113676438D01*
X223111000Y-113682855D01*
X223111000Y-113907885D01*
X222758500Y-113907885D01*
X222758500Y-111493541D01*
X222778502Y-111425420D01*
X222802669Y-111397731D01*
X222817050Y-111385449D01*
X222817058Y-111385441D01*
X222822826Y-111380514D01*
X222912583Y-111255603D01*
X222969955Y-111112888D01*
X222991628Y-110960607D01*
X222991768Y-110947200D01*
X222991271Y-110943096D01*
X222991229Y-110942327D01*
X223007453Y-110873209D01*
X223027943Y-110846300D01*
X223602292Y-110271951D01*
X223612510Y-110251896D01*
X223622840Y-110235041D01*
X223630239Y-110224857D01*
X223636070Y-110216832D01*
X223639136Y-110207397D01*
X223643028Y-110195420D01*
X223650592Y-110177158D01*
X223656308Y-110165940D01*
X223656308Y-110165939D01*
X223660809Y-110157106D01*
X223664330Y-110134874D01*
X223668946Y-110115648D01*
X223672835Y-110103679D01*
X223675900Y-110094246D01*
X223675900Y-109289299D01*
X223695902Y-109221178D01*
X223749558Y-109174685D01*
X223801900Y-109163299D01*
X223844066Y-109163299D01*
X223879818Y-109156188D01*
X223906126Y-109150956D01*
X223906128Y-109150955D01*
X223918301Y-109148534D01*
X223928621Y-109141639D01*
X223928622Y-109141638D01*
X223992168Y-109099177D01*
X224002484Y-109092284D01*
X224058734Y-109008101D01*
X224073500Y-108933867D01*
X224073499Y-108083734D01*
X224058734Y-108009499D01*
X224002484Y-107925316D01*
X223918301Y-107869066D01*
X223844067Y-107854300D01*
X223269093Y-107854300D01*
X222693934Y-107854301D01*
X222658182Y-107861412D01*
X222631874Y-107866644D01*
X222631872Y-107866645D01*
X222619699Y-107869066D01*
X222609379Y-107875961D01*
X222609378Y-107875962D01*
X222548985Y-107916316D01*
X222535516Y-107925316D01*
X222479266Y-108009499D01*
X222464500Y-108083733D01*
X222464501Y-108933866D01*
X222479266Y-109008101D01*
X222535516Y-109092284D01*
X222619699Y-109148534D01*
X222693933Y-109163300D01*
X222736100Y-109163300D01*
X222804221Y-109183302D01*
X222850714Y-109236958D01*
X222862100Y-109289300D01*
X222862100Y-109809067D01*
X222842098Y-109877188D01*
X222825195Y-109898162D01*
X222448562Y-110274795D01*
X222386250Y-110308821D01*
X222358809Y-110311698D01*
X222278021Y-110311275D01*
X222270642Y-110313047D01*
X222270638Y-110313047D01*
X222135834Y-110345410D01*
X222135830Y-110345411D01*
X222128455Y-110347182D01*
X221991772Y-110417729D01*
X221986050Y-110422721D01*
X221986048Y-110422722D01*
X221960100Y-110445358D01*
X221875862Y-110518844D01*
X221787418Y-110644688D01*
X221784659Y-110651763D01*
X221784658Y-110651766D01*
X221734304Y-110780917D01*
X221731544Y-110787997D01*
X221730552Y-110795530D01*
X221730552Y-110795531D01*
X221718186Y-110889462D01*
X221711467Y-110940496D01*
X221728346Y-111093383D01*
X221730955Y-111100514D01*
X221730956Y-111100516D01*
X221738063Y-111119935D01*
X221781206Y-111237830D01*
X221785442Y-111244133D01*
X221785442Y-111244134D01*
X221788414Y-111248556D01*
X221866996Y-111365499D01*
X221872615Y-111370612D01*
X221872616Y-111370613D01*
X221903499Y-111398714D01*
X221940422Y-111459354D01*
X221944700Y-111491908D01*
X221944700Y-121474546D01*
X221947765Y-121483979D01*
X221951654Y-121495948D01*
X221956270Y-121515174D01*
X221959791Y-121537406D01*
X221964292Y-121546239D01*
X221964292Y-121546240D01*
X221970008Y-121557458D01*
X221977572Y-121575720D01*
X221981464Y-121587697D01*
X221984530Y-121597132D01*
X221990361Y-121605157D01*
X221997760Y-121615341D01*
X222008090Y-121632196D01*
X222018308Y-121652251D01*
X224053554Y-123687497D01*
X224087580Y-123749809D01*
X224089469Y-123785418D01*
X224090053Y-123785450D01*
X224089869Y-123788847D01*
X224089500Y-123792244D01*
X224089500Y-124412756D01*
X224096202Y-124474448D01*
X224146929Y-124609764D01*
X224152309Y-124616943D01*
X224152311Y-124616946D01*
X224218287Y-124704977D01*
X224233596Y-124725404D01*
X224240776Y-124730785D01*
X224342054Y-124806689D01*
X224342057Y-124806691D01*
X224349236Y-124812071D01*
X224438954Y-124845704D01*
X224477157Y-124860026D01*
X224477159Y-124860026D01*
X224484552Y-124862798D01*
X224492402Y-124863651D01*
X224492403Y-124863651D01*
X224542847Y-124869131D01*
X224546244Y-124869500D01*
X225541756Y-124869500D01*
X225545153Y-124869131D01*
X225595597Y-124863651D01*
X225595598Y-124863651D01*
X225603448Y-124862798D01*
X225610841Y-124860026D01*
X225610843Y-124860026D01*
X225649046Y-124845704D01*
X225738764Y-124812071D01*
X225745943Y-124806691D01*
X225745946Y-124806689D01*
X225847224Y-124730785D01*
X225854404Y-124725404D01*
X225869713Y-124704977D01*
X225935689Y-124616946D01*
X225935691Y-124616943D01*
X225941071Y-124609764D01*
X225991798Y-124474448D01*
X225998500Y-124412756D01*
X225998500Y-124075712D01*
X226018502Y-124007591D01*
X226072158Y-123961098D01*
X226142432Y-123950994D01*
X226207012Y-123980488D01*
X226213595Y-123986617D01*
X226301995Y-124075017D01*
X226336021Y-124137329D01*
X226338900Y-124164112D01*
X226338900Y-125164188D01*
X226318898Y-125232309D01*
X226301995Y-125253283D01*
X222535282Y-129019995D01*
X222472970Y-129054021D01*
X222446187Y-129056900D01*
X213214613Y-129056900D01*
X213146492Y-129036898D01*
X213125518Y-129019995D01*
X210986244Y-126880721D01*
X210970885Y-126861705D01*
X210969919Y-126860644D01*
X210964271Y-126851896D01*
X210937728Y-126830971D01*
X210933253Y-126826994D01*
X210933192Y-126827065D01*
X210929235Y-126823712D01*
X210925552Y-126820029D01*
X210909761Y-126808745D01*
X210905015Y-126805182D01*
X210872707Y-126779712D01*
X210872706Y-126779711D01*
X210864530Y-126773266D01*
X210855843Y-126770215D01*
X210848357Y-126764866D01*
X210838381Y-126761883D01*
X210838380Y-126761882D01*
X210798989Y-126750102D01*
X210793357Y-126748272D01*
X210744698Y-126731184D01*
X210739109Y-126730700D01*
X210736398Y-126730700D01*
X210733731Y-126730585D01*
X210733668Y-126730566D01*
X210733675Y-126730392D01*
X210732929Y-126730345D01*
X210726676Y-126728475D01*
X210677892Y-126730392D01*
X210672522Y-126730603D01*
X210667575Y-126730700D01*
X210540499Y-126730700D01*
X210472378Y-126710698D01*
X210425885Y-126657042D01*
X210414499Y-126604700D01*
X210414499Y-126437134D01*
X210414499Y-126437133D01*
X216305500Y-126437133D01*
X216305501Y-127787266D01*
X216320266Y-127861501D01*
X216376516Y-127945684D01*
X216460699Y-128001934D01*
X216534933Y-128016700D01*
X217334870Y-128016700D01*
X218135066Y-128016699D01*
X218170818Y-128009588D01*
X218197126Y-128004356D01*
X218197128Y-128004355D01*
X218209301Y-128001934D01*
X218219621Y-127995039D01*
X218219622Y-127995038D01*
X218283168Y-127952577D01*
X218293484Y-127945684D01*
X218349734Y-127861501D01*
X218364500Y-127787267D01*
X218364499Y-126437134D01*
X218349734Y-126362899D01*
X218293484Y-126278716D01*
X218209301Y-126222466D01*
X218135067Y-126207700D01*
X217335130Y-126207700D01*
X216534934Y-126207701D01*
X216499182Y-126214812D01*
X216472874Y-126220044D01*
X216472872Y-126220045D01*
X216460699Y-126222466D01*
X216450379Y-126229361D01*
X216450378Y-126229362D01*
X216389985Y-126269716D01*
X216376516Y-126278716D01*
X216320266Y-126362899D01*
X216305500Y-126437133D01*
X210414499Y-126437133D01*
X210399734Y-126362899D01*
X210343484Y-126278716D01*
X210259301Y-126222466D01*
X210185067Y-126207700D01*
X209385130Y-126207700D01*
X208584934Y-126207701D01*
X208549182Y-126214812D01*
X208522874Y-126220044D01*
X208522872Y-126220045D01*
X208510699Y-126222466D01*
X208500379Y-126229361D01*
X208500378Y-126229362D01*
X208439985Y-126269716D01*
X208426516Y-126278716D01*
X208370266Y-126362899D01*
X208355500Y-126437133D01*
X208355501Y-127787266D01*
X208370266Y-127861501D01*
X208426516Y-127945684D01*
X208510699Y-128001934D01*
X208584933Y-128016700D01*
X209384870Y-128016700D01*
X210185066Y-128016699D01*
X210220818Y-128009588D01*
X210247126Y-128004356D01*
X210247128Y-128004355D01*
X210259301Y-128001934D01*
X210269621Y-127995039D01*
X210269622Y-127995038D01*
X210333168Y-127952577D01*
X210343484Y-127945684D01*
X210399734Y-127861501D01*
X210414500Y-127787267D01*
X210414500Y-127692212D01*
X210434502Y-127624091D01*
X210488158Y-127577598D01*
X210558432Y-127567494D01*
X210623012Y-127596988D01*
X210629595Y-127603117D01*
X212696354Y-129669876D01*
X212711718Y-129688899D01*
X212712682Y-129689958D01*
X212718329Y-129698704D01*
X212726508Y-129705152D01*
X212726510Y-129705154D01*
X212744877Y-129719634D01*
X212749350Y-129723609D01*
X212749411Y-129723537D01*
X212753368Y-129726890D01*
X212757049Y-129730571D01*
X212761281Y-129733595D01*
X212772839Y-129741855D01*
X212777585Y-129745418D01*
X212818070Y-129777334D01*
X212826755Y-129780384D01*
X212834243Y-129785735D01*
X212883650Y-129800510D01*
X212889237Y-129802326D01*
X212937902Y-129819416D01*
X212943491Y-129819900D01*
X212946202Y-129819900D01*
X212948871Y-129820015D01*
X212948932Y-129820034D01*
X212948925Y-129820208D01*
X212949672Y-129820255D01*
X212955925Y-129822125D01*
X213010089Y-129819997D01*
X213015035Y-129819900D01*
X222602265Y-129819900D01*
X222626564Y-129822486D01*
X222628002Y-129822554D01*
X222638180Y-129824745D01*
X222671741Y-129820773D01*
X222677720Y-129820421D01*
X222677712Y-129820328D01*
X222682890Y-129819900D01*
X222688092Y-129819900D01*
X222707246Y-129816712D01*
X222713104Y-129815878D01*
X222729718Y-129813912D01*
X222753967Y-129811042D01*
X222753968Y-129811042D01*
X222764307Y-129809818D01*
X222772606Y-129805833D01*
X222781683Y-129804322D01*
X222827051Y-129779842D01*
X222832314Y-129777161D01*
X222871650Y-129758273D01*
X222871654Y-129758270D01*
X222878798Y-129754840D01*
X222883092Y-129751230D01*
X222885024Y-129749298D01*
X222886973Y-129747511D01*
X222887026Y-129747482D01*
X222887146Y-129747612D01*
X222887715Y-129747110D01*
X222893457Y-129744012D01*
X222930267Y-129704192D01*
X222933696Y-129700627D01*
X226951879Y-125682444D01*
X226970895Y-125667085D01*
X226971956Y-125666119D01*
X226980704Y-125660471D01*
X227001629Y-125633928D01*
X227005606Y-125629453D01*
X227005535Y-125629392D01*
X227008888Y-125625435D01*
X227012571Y-125621752D01*
X227023855Y-125605961D01*
X227027418Y-125601215D01*
X227052888Y-125568907D01*
X227052889Y-125568906D01*
X227059334Y-125560730D01*
X227062385Y-125552043D01*
X227067734Y-125544557D01*
X227082499Y-125495186D01*
X227084333Y-125489541D01*
X227101416Y-125440898D01*
X227101900Y-125435309D01*
X227101900Y-125432598D01*
X227102015Y-125429931D01*
X227102034Y-125429868D01*
X227102208Y-125429875D01*
X227102255Y-125429129D01*
X227104125Y-125422876D01*
X227101997Y-125368722D01*
X227101900Y-125363775D01*
X227101900Y-124008040D01*
X227104487Y-123983724D01*
X227104554Y-123982301D01*
X227106746Y-123972120D01*
X227102773Y-123938552D01*
X227102421Y-123932578D01*
X227102328Y-123932586D01*
X227101900Y-123927408D01*
X227101900Y-123922208D01*
X227101046Y-123917076D01*
X227098714Y-123903065D01*
X227097877Y-123897186D01*
X227093042Y-123856333D01*
X227093042Y-123856332D01*
X227091818Y-123845993D01*
X227087833Y-123837694D01*
X227086322Y-123828617D01*
X227061842Y-123783249D01*
X227059161Y-123777986D01*
X227040269Y-123738643D01*
X227036840Y-123731502D01*
X227033231Y-123727208D01*
X227031305Y-123725282D01*
X227029509Y-123723324D01*
X227029479Y-123723267D01*
X227029608Y-123723149D01*
X227029110Y-123722584D01*
X227026012Y-123716843D01*
X226986204Y-123680045D01*
X226982639Y-123676616D01*
X226030926Y-122724903D01*
X225996900Y-122662591D01*
X225994758Y-122622199D01*
X225998500Y-122587756D01*
X225998500Y-121967244D01*
X225994758Y-121932799D01*
X226007286Y-121862917D01*
X226030926Y-121830096D01*
X227362696Y-120498327D01*
X228729879Y-119131144D01*
X228748895Y-119115785D01*
X228749956Y-119114819D01*
X228758704Y-119109171D01*
X228779629Y-119082628D01*
X228783608Y-119078150D01*
X228783537Y-119078090D01*
X228786890Y-119074133D01*
X228790571Y-119070452D01*
X228801869Y-119054643D01*
X228805432Y-119049898D01*
X228830885Y-119017610D01*
X228837334Y-119009430D01*
X228840384Y-119000745D01*
X228845734Y-118993258D01*
X228860509Y-118943853D01*
X228862330Y-118938250D01*
X228876788Y-118897081D01*
X228879416Y-118889598D01*
X228879900Y-118884009D01*
X228879900Y-118881296D01*
X228880015Y-118878631D01*
X228880034Y-118878568D01*
X228880208Y-118878575D01*
X228880255Y-118877829D01*
X228882125Y-118871576D01*
X228879997Y-118817422D01*
X228879900Y-118812475D01*
X228879900Y-66652940D01*
X228882487Y-66628624D01*
X228882554Y-66627201D01*
X228884746Y-66617020D01*
X228880773Y-66583452D01*
X228880421Y-66577478D01*
X228880328Y-66577486D01*
X228879900Y-66572308D01*
X228879900Y-66567108D01*
X228879046Y-66561976D01*
X228876714Y-66547965D01*
X228875877Y-66542086D01*
X228871042Y-66501233D01*
X228871042Y-66501232D01*
X228869818Y-66490893D01*
X228865833Y-66482594D01*
X228864322Y-66473517D01*
X228839842Y-66428149D01*
X228837161Y-66422886D01*
X228818269Y-66383543D01*
X228814840Y-66376402D01*
X228811231Y-66372108D01*
X228809305Y-66370182D01*
X228807509Y-66368224D01*
X228807479Y-66368167D01*
X228807608Y-66368049D01*
X228807110Y-66367484D01*
X228804012Y-66361743D01*
X228764204Y-66324945D01*
X228760639Y-66321516D01*
X224945644Y-62506521D01*
X224928888Y-62485775D01*
X224923672Y-62477697D01*
X224926396Y-62475938D01*
X224902961Y-62427767D01*
X224911348Y-62357268D01*
X224956519Y-62302494D01*
X225027204Y-62280800D01*
X229312200Y-62280800D01*
X229380321Y-62300802D01*
X229426814Y-62354458D01*
X229438200Y-62406800D01*
X229438200Y-142926800D01*
X229418198Y-142994921D01*
X229364542Y-143041414D01*
X229312200Y-143052800D01*
X179272200Y-143052800D01*
X179204079Y-143032798D01*
X179157586Y-142979142D01*
X179146200Y-142926800D01*
X179146200Y-130937133D01*
X190575500Y-130937133D01*
X190575501Y-132287266D01*
X190590266Y-132361501D01*
X190646516Y-132445684D01*
X190730699Y-132501934D01*
X190804933Y-132516700D01*
X191604870Y-132516700D01*
X192405066Y-132516699D01*
X192440818Y-132509588D01*
X192467126Y-132504356D01*
X192467128Y-132504355D01*
X192479301Y-132501934D01*
X192489621Y-132495039D01*
X192489622Y-132495038D01*
X192553168Y-132452577D01*
X192563484Y-132445684D01*
X192619734Y-132361501D01*
X192630601Y-132306869D01*
X198272001Y-132306869D01*
X198272371Y-132313690D01*
X198277895Y-132364552D01*
X198281521Y-132379804D01*
X198326676Y-132500254D01*
X198335214Y-132515849D01*
X198411715Y-132617924D01*
X198424276Y-132630485D01*
X198526351Y-132706986D01*
X198541946Y-132715524D01*
X198662394Y-132760678D01*
X198677649Y-132764305D01*
X198728514Y-132769831D01*
X198735328Y-132770200D01*
X199282885Y-132770200D01*
X199298124Y-132765725D01*
X199299329Y-132764335D01*
X199301000Y-132756652D01*
X199301000Y-132752084D01*
X199809000Y-132752084D01*
X199813475Y-132767323D01*
X199814865Y-132768528D01*
X199822548Y-132770199D01*
X200374669Y-132770199D01*
X200381490Y-132769829D01*
X200432352Y-132764305D01*
X200447604Y-132760679D01*
X200568054Y-132715524D01*
X200583649Y-132706986D01*
X200685724Y-132630485D01*
X200698285Y-132617924D01*
X200774786Y-132515849D01*
X200783324Y-132500254D01*
X200828478Y-132379806D01*
X200832105Y-132364551D01*
X200837631Y-132313686D01*
X200838000Y-132306872D01*
X200838000Y-131884315D01*
X200833525Y-131869076D01*
X200832135Y-131867871D01*
X200824452Y-131866200D01*
X199827115Y-131866200D01*
X199811876Y-131870675D01*
X199810671Y-131872065D01*
X199809000Y-131879748D01*
X199809000Y-132752084D01*
X199301000Y-132752084D01*
X199301000Y-131884315D01*
X199296525Y-131869076D01*
X199295135Y-131867871D01*
X199287452Y-131866200D01*
X198290116Y-131866200D01*
X198274877Y-131870675D01*
X198273672Y-131872065D01*
X198272001Y-131879748D01*
X198272001Y-132306869D01*
X192630601Y-132306869D01*
X192634500Y-132287267D01*
X192634499Y-131340085D01*
X198272000Y-131340085D01*
X198276475Y-131355324D01*
X198277865Y-131356529D01*
X198285548Y-131358200D01*
X199282885Y-131358200D01*
X199298124Y-131353725D01*
X199299329Y-131352335D01*
X199301000Y-131344652D01*
X199301000Y-131340085D01*
X199809000Y-131340085D01*
X199813475Y-131355324D01*
X199814865Y-131356529D01*
X199822548Y-131358200D01*
X200819884Y-131358200D01*
X200835123Y-131353725D01*
X200836328Y-131352335D01*
X200837999Y-131344652D01*
X200837999Y-130937133D01*
X208355500Y-130937133D01*
X208355501Y-132287266D01*
X208370266Y-132361501D01*
X208426516Y-132445684D01*
X208510699Y-132501934D01*
X208584933Y-132516700D01*
X209384870Y-132516700D01*
X210185066Y-132516699D01*
X210220818Y-132509588D01*
X210247126Y-132504356D01*
X210247128Y-132504355D01*
X210259301Y-132501934D01*
X210269621Y-132495039D01*
X210269622Y-132495038D01*
X210333168Y-132452577D01*
X210343484Y-132445684D01*
X210399734Y-132361501D01*
X210410601Y-132306869D01*
X216052001Y-132306869D01*
X216052371Y-132313690D01*
X216057895Y-132364552D01*
X216061521Y-132379804D01*
X216106676Y-132500254D01*
X216115214Y-132515849D01*
X216191715Y-132617924D01*
X216204276Y-132630485D01*
X216306351Y-132706986D01*
X216321946Y-132715524D01*
X216442394Y-132760678D01*
X216457649Y-132764305D01*
X216508514Y-132769831D01*
X216515328Y-132770200D01*
X217062885Y-132770200D01*
X217078124Y-132765725D01*
X217079329Y-132764335D01*
X217081000Y-132756652D01*
X217081000Y-132752084D01*
X217589000Y-132752084D01*
X217593475Y-132767323D01*
X217594865Y-132768528D01*
X217602548Y-132770199D01*
X218154669Y-132770199D01*
X218161490Y-132769829D01*
X218212352Y-132764305D01*
X218227604Y-132760679D01*
X218348054Y-132715524D01*
X218363649Y-132706986D01*
X218465724Y-132630485D01*
X218478285Y-132617924D01*
X218554786Y-132515849D01*
X218563324Y-132500254D01*
X218608478Y-132379806D01*
X218612105Y-132364551D01*
X218617631Y-132313686D01*
X218618000Y-132306872D01*
X218618000Y-131884315D01*
X218613525Y-131869076D01*
X218612135Y-131867871D01*
X218604452Y-131866200D01*
X217607115Y-131866200D01*
X217591876Y-131870675D01*
X217590671Y-131872065D01*
X217589000Y-131879748D01*
X217589000Y-132752084D01*
X217081000Y-132752084D01*
X217081000Y-131884315D01*
X217076525Y-131869076D01*
X217075135Y-131867871D01*
X217067452Y-131866200D01*
X216070116Y-131866200D01*
X216054877Y-131870675D01*
X216053672Y-131872065D01*
X216052001Y-131879748D01*
X216052001Y-132306869D01*
X210410601Y-132306869D01*
X210414500Y-132287267D01*
X210414499Y-131340085D01*
X216052000Y-131340085D01*
X216056475Y-131355324D01*
X216057865Y-131356529D01*
X216065548Y-131358200D01*
X217062885Y-131358200D01*
X217078124Y-131353725D01*
X217079329Y-131352335D01*
X217081000Y-131344652D01*
X217081000Y-131340085D01*
X217589000Y-131340085D01*
X217593475Y-131355324D01*
X217594865Y-131356529D01*
X217602548Y-131358200D01*
X218599884Y-131358200D01*
X218615123Y-131353725D01*
X218616328Y-131352335D01*
X218617999Y-131344652D01*
X218617999Y-130917531D01*
X218617629Y-130910710D01*
X218612105Y-130859848D01*
X218608479Y-130844596D01*
X218563324Y-130724146D01*
X218554786Y-130708551D01*
X218478285Y-130606476D01*
X218465724Y-130593915D01*
X218363649Y-130517414D01*
X218348054Y-130508876D01*
X218227606Y-130463722D01*
X218212351Y-130460095D01*
X218161486Y-130454569D01*
X218154672Y-130454200D01*
X217607115Y-130454200D01*
X217591876Y-130458675D01*
X217590671Y-130460065D01*
X217589000Y-130467748D01*
X217589000Y-131340085D01*
X217081000Y-131340085D01*
X217081000Y-130472316D01*
X217076525Y-130457077D01*
X217075135Y-130455872D01*
X217067452Y-130454201D01*
X216515331Y-130454201D01*
X216508510Y-130454571D01*
X216457648Y-130460095D01*
X216442396Y-130463721D01*
X216321946Y-130508876D01*
X216306351Y-130517414D01*
X216204276Y-130593915D01*
X216191715Y-130606476D01*
X216115214Y-130708551D01*
X216106676Y-130724146D01*
X216061522Y-130844594D01*
X216057895Y-130859849D01*
X216052369Y-130910714D01*
X216052000Y-130917528D01*
X216052000Y-131340085D01*
X210414499Y-131340085D01*
X210414499Y-130937134D01*
X210399734Y-130862899D01*
X210343484Y-130778716D01*
X210259301Y-130722466D01*
X210185067Y-130707700D01*
X209385130Y-130707700D01*
X208584934Y-130707701D01*
X208549182Y-130714812D01*
X208522874Y-130720044D01*
X208522872Y-130720045D01*
X208510699Y-130722466D01*
X208500379Y-130729361D01*
X208500378Y-130729362D01*
X208439985Y-130769716D01*
X208426516Y-130778716D01*
X208370266Y-130862899D01*
X208355500Y-130937133D01*
X200837999Y-130937133D01*
X200837999Y-130917531D01*
X200837629Y-130910710D01*
X200832105Y-130859848D01*
X200828479Y-130844596D01*
X200783324Y-130724146D01*
X200774786Y-130708551D01*
X200698285Y-130606476D01*
X200685724Y-130593915D01*
X200583649Y-130517414D01*
X200568054Y-130508876D01*
X200447606Y-130463722D01*
X200432351Y-130460095D01*
X200381486Y-130454569D01*
X200374672Y-130454200D01*
X199827115Y-130454200D01*
X199811876Y-130458675D01*
X199810671Y-130460065D01*
X199809000Y-130467748D01*
X199809000Y-131340085D01*
X199301000Y-131340085D01*
X199301000Y-130472316D01*
X199296525Y-130457077D01*
X199295135Y-130455872D01*
X199287452Y-130454201D01*
X198735331Y-130454201D01*
X198728510Y-130454571D01*
X198677648Y-130460095D01*
X198662396Y-130463721D01*
X198541946Y-130508876D01*
X198526351Y-130517414D01*
X198424276Y-130593915D01*
X198411715Y-130606476D01*
X198335214Y-130708551D01*
X198326676Y-130724146D01*
X198281522Y-130844594D01*
X198277895Y-130859849D01*
X198272369Y-130910714D01*
X198272000Y-130917528D01*
X198272000Y-131340085D01*
X192634499Y-131340085D01*
X192634499Y-130937134D01*
X192619734Y-130862899D01*
X192563484Y-130778716D01*
X192479301Y-130722466D01*
X192405067Y-130707700D01*
X191605130Y-130707700D01*
X190804934Y-130707701D01*
X190769182Y-130714812D01*
X190742874Y-130720044D01*
X190742872Y-130720045D01*
X190730699Y-130722466D01*
X190720379Y-130729361D01*
X190720378Y-130729362D01*
X190659985Y-130769716D01*
X190646516Y-130778716D01*
X190590266Y-130862899D01*
X190575500Y-130937133D01*
X179146200Y-130937133D01*
X179146200Y-120431947D01*
X179166202Y-120363826D01*
X179219858Y-120317333D01*
X179290132Y-120307229D01*
X179354712Y-120336723D01*
X179385783Y-120377405D01*
X179386365Y-120378617D01*
X179389098Y-120385287D01*
X179390359Y-120392864D01*
X179414839Y-120438232D01*
X179417520Y-120443495D01*
X179436408Y-120482831D01*
X179436411Y-120482835D01*
X179439841Y-120489979D01*
X179443451Y-120494273D01*
X179445383Y-120496205D01*
X179447170Y-120498154D01*
X179447199Y-120498207D01*
X179447069Y-120498327D01*
X179447571Y-120498896D01*
X179450669Y-120504638D01*
X179458313Y-120511704D01*
X179490489Y-120541448D01*
X179494054Y-120544877D01*
X182604274Y-123655097D01*
X182638300Y-123717409D01*
X182640442Y-123757800D01*
X182636700Y-123792244D01*
X182636700Y-124412756D01*
X182643402Y-124474448D01*
X182694129Y-124609764D01*
X182699509Y-124616943D01*
X182699511Y-124616946D01*
X182765487Y-124704977D01*
X182780796Y-124725404D01*
X182787976Y-124730785D01*
X182889254Y-124806689D01*
X182889257Y-124806691D01*
X182896436Y-124812071D01*
X182986154Y-124845704D01*
X183024357Y-124860026D01*
X183024359Y-124860026D01*
X183031752Y-124862798D01*
X183039602Y-124863651D01*
X183039603Y-124863651D01*
X183090047Y-124869131D01*
X183093444Y-124869500D01*
X183766488Y-124869500D01*
X183834609Y-124889502D01*
X183855583Y-124906405D01*
X186292854Y-127343676D01*
X186308218Y-127362699D01*
X186309182Y-127363758D01*
X186314829Y-127372504D01*
X186323008Y-127378952D01*
X186323010Y-127378954D01*
X186341377Y-127393434D01*
X186345850Y-127397409D01*
X186345911Y-127397337D01*
X186349868Y-127400690D01*
X186353549Y-127404371D01*
X186357781Y-127407395D01*
X186369339Y-127415655D01*
X186374085Y-127419218D01*
X186414570Y-127451134D01*
X186423255Y-127454184D01*
X186430743Y-127459535D01*
X186480150Y-127474310D01*
X186485737Y-127476126D01*
X186534402Y-127493216D01*
X186539991Y-127493700D01*
X186542702Y-127493700D01*
X186545371Y-127493815D01*
X186545432Y-127493834D01*
X186545425Y-127494008D01*
X186546172Y-127494055D01*
X186552425Y-127495925D01*
X186606589Y-127493797D01*
X186611535Y-127493700D01*
X190449501Y-127493700D01*
X190517622Y-127513702D01*
X190564115Y-127567358D01*
X190575501Y-127619700D01*
X190575501Y-127787266D01*
X190590266Y-127861501D01*
X190646516Y-127945684D01*
X190730699Y-128001934D01*
X190804933Y-128016700D01*
X191604870Y-128016700D01*
X192405066Y-128016699D01*
X192440818Y-128009588D01*
X192467126Y-128004356D01*
X192467128Y-128004355D01*
X192479301Y-128001934D01*
X192489621Y-127995039D01*
X192489622Y-127995038D01*
X192553168Y-127952577D01*
X192563484Y-127945684D01*
X192619734Y-127861501D01*
X192634500Y-127787267D01*
X192634499Y-126437134D01*
X192634499Y-126437133D01*
X198525500Y-126437133D01*
X198525501Y-127787266D01*
X198540266Y-127861501D01*
X198596516Y-127945684D01*
X198680699Y-128001934D01*
X198754933Y-128016700D01*
X199554870Y-128016700D01*
X200355066Y-128016699D01*
X200390818Y-128009588D01*
X200417126Y-128004356D01*
X200417128Y-128004355D01*
X200429301Y-128001934D01*
X200439621Y-127995039D01*
X200439622Y-127995038D01*
X200503168Y-127952577D01*
X200513484Y-127945684D01*
X200569734Y-127861501D01*
X200584500Y-127787267D01*
X200584499Y-126437134D01*
X200569734Y-126362899D01*
X200513484Y-126278716D01*
X200429301Y-126222466D01*
X200355067Y-126207700D01*
X199555130Y-126207700D01*
X198754934Y-126207701D01*
X198719182Y-126214812D01*
X198692874Y-126220044D01*
X198692872Y-126220045D01*
X198680699Y-126222466D01*
X198670379Y-126229361D01*
X198670378Y-126229362D01*
X198609985Y-126269716D01*
X198596516Y-126278716D01*
X198540266Y-126362899D01*
X198525500Y-126437133D01*
X192634499Y-126437133D01*
X192619734Y-126362899D01*
X192563484Y-126278716D01*
X192479301Y-126222466D01*
X192405067Y-126207700D01*
X191605130Y-126207700D01*
X190804934Y-126207701D01*
X190769182Y-126214812D01*
X190742874Y-126220044D01*
X190742872Y-126220045D01*
X190730699Y-126222466D01*
X190720379Y-126229361D01*
X190720378Y-126229362D01*
X190659985Y-126269716D01*
X190646516Y-126278716D01*
X190590266Y-126362899D01*
X190575500Y-126437133D01*
X190575500Y-126604700D01*
X190555498Y-126672821D01*
X190501842Y-126719314D01*
X190449500Y-126730700D01*
X186811113Y-126730700D01*
X186742992Y-126710698D01*
X186722018Y-126693795D01*
X184578126Y-124549903D01*
X184544100Y-124487591D01*
X184541958Y-124447199D01*
X184545331Y-124416150D01*
X184545700Y-124412756D01*
X184545700Y-123792244D01*
X184538998Y-123730552D01*
X184531209Y-123709773D01*
X184518779Y-123676616D01*
X184488271Y-123595236D01*
X184482891Y-123588057D01*
X184482889Y-123588054D01*
X184406985Y-123486776D01*
X184401604Y-123479596D01*
X184381177Y-123464287D01*
X184293146Y-123398311D01*
X184293143Y-123398309D01*
X184285964Y-123392929D01*
X184196246Y-123359296D01*
X184158043Y-123344974D01*
X184158041Y-123344974D01*
X184150648Y-123342202D01*
X184142798Y-123341349D01*
X184142797Y-123341349D01*
X184092353Y-123335869D01*
X184092352Y-123335869D01*
X184088956Y-123335500D01*
X183415913Y-123335500D01*
X183347792Y-123315498D01*
X183326818Y-123298595D01*
X183287818Y-123259595D01*
X183253792Y-123197283D01*
X183258857Y-123126468D01*
X183301404Y-123069632D01*
X183367924Y-123044821D01*
X183376913Y-123044500D01*
X184088956Y-123044500D01*
X184112208Y-123041974D01*
X184142797Y-123038651D01*
X184142798Y-123038651D01*
X184150648Y-123037798D01*
X184158041Y-123035026D01*
X184158043Y-123035026D01*
X184196246Y-123020704D01*
X184285964Y-122987071D01*
X184293143Y-122981691D01*
X184293146Y-122981689D01*
X184394424Y-122905785D01*
X184401604Y-122900404D01*
X184416913Y-122879977D01*
X184482889Y-122791946D01*
X184482891Y-122791943D01*
X184488271Y-122784764D01*
X184538998Y-122649448D01*
X184545700Y-122587756D01*
X184545700Y-121967244D01*
X184538998Y-121905552D01*
X184488271Y-121770236D01*
X184482891Y-121763057D01*
X184482889Y-121763054D01*
X184406985Y-121661776D01*
X184401604Y-121654596D01*
X184371721Y-121632200D01*
X184293146Y-121573311D01*
X184293143Y-121573309D01*
X184285964Y-121567929D01*
X184164933Y-121522557D01*
X184158043Y-121519974D01*
X184158041Y-121519974D01*
X184150648Y-121517202D01*
X184142798Y-121516349D01*
X184142797Y-121516349D01*
X184092353Y-121510869D01*
X184092352Y-121510869D01*
X184088956Y-121510500D01*
X183451833Y-121510500D01*
X183383712Y-121490498D01*
X183362738Y-121473595D01*
X183085005Y-121195862D01*
X183050979Y-121133550D01*
X183048100Y-121106767D01*
X183048100Y-117171137D01*
X183068102Y-117103016D01*
X183121758Y-117056523D01*
X183126859Y-117054405D01*
X183127559Y-117054022D01*
X183135964Y-117050871D01*
X183143143Y-117045491D01*
X183143146Y-117045489D01*
X183244424Y-116969585D01*
X183251604Y-116964204D01*
X183338271Y-116848564D01*
X183341423Y-116840155D01*
X183345381Y-116832926D01*
X183395638Y-116782779D01*
X183465029Y-116767764D01*
X183531522Y-116792648D01*
X183575426Y-116853557D01*
X183597788Y-116920584D01*
X183603961Y-116933762D01*
X183689263Y-117071607D01*
X183698299Y-117083008D01*
X183813029Y-117197539D01*
X183824440Y-117206551D01*
X183962443Y-117291616D01*
X183975624Y-117297763D01*
X184129910Y-117348938D01*
X184143286Y-117351805D01*
X184237638Y-117361472D01*
X184244054Y-117361800D01*
X184269085Y-117361800D01*
X184284324Y-117357325D01*
X184285529Y-117355935D01*
X184287200Y-117348252D01*
X184287200Y-117343684D01*
X184795200Y-117343684D01*
X184799675Y-117358923D01*
X184801065Y-117360128D01*
X184808748Y-117361799D01*
X184838295Y-117361799D01*
X184844814Y-117361462D01*
X184940406Y-117351543D01*
X184953800Y-117348651D01*
X185107984Y-117297212D01*
X185121162Y-117291039D01*
X185259007Y-117205737D01*
X185270408Y-117196701D01*
X185384939Y-117081971D01*
X185393951Y-117070560D01*
X185479016Y-116932557D01*
X185485163Y-116919376D01*
X185536338Y-116765090D01*
X185539205Y-116751714D01*
X185548872Y-116657362D01*
X185549200Y-116650946D01*
X185549200Y-116400915D01*
X185544725Y-116385676D01*
X185543335Y-116384471D01*
X185535652Y-116382800D01*
X184813315Y-116382800D01*
X184798076Y-116387275D01*
X184796871Y-116388665D01*
X184795200Y-116396348D01*
X184795200Y-117343684D01*
X184287200Y-117343684D01*
X184287200Y-115856685D01*
X184795200Y-115856685D01*
X184799675Y-115871924D01*
X184801065Y-115873129D01*
X184808748Y-115874800D01*
X185531084Y-115874800D01*
X185546323Y-115870325D01*
X185547528Y-115868935D01*
X185549199Y-115861252D01*
X185549199Y-115606705D01*
X185548862Y-115600186D01*
X185538943Y-115504594D01*
X185536051Y-115491200D01*
X185484612Y-115337016D01*
X185478439Y-115323838D01*
X185393137Y-115185993D01*
X185384101Y-115174592D01*
X185269371Y-115060061D01*
X185257960Y-115051049D01*
X185119957Y-114965984D01*
X185106776Y-114959837D01*
X184952490Y-114908662D01*
X184939114Y-114905795D01*
X184844762Y-114896128D01*
X184838345Y-114895800D01*
X184813315Y-114895800D01*
X184798076Y-114900275D01*
X184796871Y-114901665D01*
X184795200Y-114909348D01*
X184795200Y-115856685D01*
X184287200Y-115856685D01*
X184287200Y-114913916D01*
X184282725Y-114898677D01*
X184281335Y-114897472D01*
X184273652Y-114895801D01*
X184244105Y-114895801D01*
X184237586Y-114896138D01*
X184141994Y-114906057D01*
X184128600Y-114908949D01*
X183974416Y-114960388D01*
X183961238Y-114966561D01*
X183823393Y-115051863D01*
X183811992Y-115060899D01*
X183697461Y-115175629D01*
X183688449Y-115187040D01*
X183603384Y-115325043D01*
X183597236Y-115338226D01*
X183575483Y-115403810D01*
X183535053Y-115462170D01*
X183469488Y-115489407D01*
X183399607Y-115476874D01*
X183345370Y-115424653D01*
X183341423Y-115417443D01*
X183338271Y-115409036D01*
X183322506Y-115388000D01*
X183256985Y-115300576D01*
X183251604Y-115293396D01*
X183231177Y-115278087D01*
X183143146Y-115212111D01*
X183143143Y-115212109D01*
X183135964Y-115206729D01*
X183028220Y-115166338D01*
X183008043Y-115158774D01*
X183008041Y-115158774D01*
X183000648Y-115156002D01*
X182992798Y-115155149D01*
X182992797Y-115155149D01*
X182942353Y-115149669D01*
X182942352Y-115149669D01*
X182938956Y-115149300D01*
X182343444Y-115149300D01*
X182307575Y-115153197D01*
X182237694Y-115140670D01*
X182204872Y-115117029D01*
X182130005Y-115042162D01*
X182095979Y-114979850D01*
X182093100Y-114953067D01*
X182093100Y-113401628D01*
X190623889Y-113401628D01*
X190624133Y-113406063D01*
X190624133Y-113406067D01*
X190639013Y-113676438D01*
X190639293Y-113681531D01*
X190693982Y-113956471D01*
X190786865Y-114220962D01*
X190788918Y-114224913D01*
X190788920Y-114224919D01*
X190897529Y-114434000D01*
X190916088Y-114469728D01*
X190918671Y-114473343D01*
X190918675Y-114473349D01*
X191076485Y-114694183D01*
X191079073Y-114697804D01*
X191272569Y-114900639D01*
X191276065Y-114903395D01*
X191276066Y-114903396D01*
X191348360Y-114960388D01*
X191492714Y-115074188D01*
X191580238Y-115125026D01*
X191731269Y-115212752D01*
X191731275Y-115212755D01*
X191735116Y-115214986D01*
X191739239Y-115216656D01*
X191990812Y-115318554D01*
X191990815Y-115318555D01*
X191994938Y-115320225D01*
X191999251Y-115321296D01*
X191999256Y-115321298D01*
X192262676Y-115386732D01*
X192262681Y-115386733D01*
X192266997Y-115387805D01*
X192271425Y-115388259D01*
X192271427Y-115388259D01*
X192346005Y-115395900D01*
X192506072Y-115412300D01*
X192679607Y-115412300D01*
X192887826Y-115397557D01*
X192892181Y-115396619D01*
X192892184Y-115396619D01*
X193157526Y-115339493D01*
X193157528Y-115339493D01*
X193161873Y-115338557D01*
X193424873Y-115241531D01*
X193474070Y-115214986D01*
X193667662Y-115110529D01*
X193671578Y-115108416D01*
X193897066Y-114941868D01*
X193925461Y-114913916D01*
X194093656Y-114748341D01*
X194096837Y-114745210D01*
X194266907Y-114522367D01*
X194403880Y-114277783D01*
X194505025Y-114016339D01*
X194517926Y-113960683D01*
X194567317Y-113747592D01*
X194568323Y-113743253D01*
X194592511Y-113463972D01*
X194592267Y-113459533D01*
X194589080Y-113401628D01*
X214123889Y-113401628D01*
X214124133Y-113406063D01*
X214124133Y-113406067D01*
X214139013Y-113676438D01*
X214139293Y-113681531D01*
X214193982Y-113956471D01*
X214286865Y-114220962D01*
X214288918Y-114224913D01*
X214288920Y-114224919D01*
X214397529Y-114434000D01*
X214416088Y-114469728D01*
X214418671Y-114473343D01*
X214418675Y-114473349D01*
X214576485Y-114694183D01*
X214579073Y-114697804D01*
X214772569Y-114900639D01*
X214776065Y-114903395D01*
X214776066Y-114903396D01*
X214848360Y-114960388D01*
X214992714Y-115074188D01*
X215080238Y-115125026D01*
X215231269Y-115212752D01*
X215231275Y-115212755D01*
X215235116Y-115214986D01*
X215239239Y-115216656D01*
X215490812Y-115318554D01*
X215490815Y-115318555D01*
X215494938Y-115320225D01*
X215499251Y-115321296D01*
X215499256Y-115321298D01*
X215762676Y-115386732D01*
X215762681Y-115386733D01*
X215766997Y-115387805D01*
X215771425Y-115388259D01*
X215771427Y-115388259D01*
X215846005Y-115395900D01*
X216006072Y-115412300D01*
X216179607Y-115412300D01*
X216387826Y-115397557D01*
X216392181Y-115396619D01*
X216392184Y-115396619D01*
X216657526Y-115339493D01*
X216657528Y-115339493D01*
X216661873Y-115338557D01*
X216924873Y-115241531D01*
X216974070Y-115214986D01*
X217167662Y-115110529D01*
X217171578Y-115108416D01*
X217397066Y-114941868D01*
X217425461Y-114913916D01*
X217593656Y-114748341D01*
X217596837Y-114745210D01*
X217766907Y-114522367D01*
X217903880Y-114277783D01*
X218005025Y-114016339D01*
X218017926Y-113960683D01*
X218067317Y-113747592D01*
X218068323Y-113743253D01*
X218092511Y-113463972D01*
X218092267Y-113459533D01*
X218077352Y-113188512D01*
X218077351Y-113188505D01*
X218077107Y-113184069D01*
X218022418Y-112909129D01*
X217929535Y-112644638D01*
X217902174Y-112591964D01*
X217802364Y-112399822D01*
X217802363Y-112399820D01*
X217800312Y-112395872D01*
X217797729Y-112392257D01*
X217797725Y-112392251D01*
X217639915Y-112171417D01*
X217639912Y-112171413D01*
X217637327Y-112167796D01*
X217443831Y-111964961D01*
X217395506Y-111926864D01*
X217227182Y-111794168D01*
X217223686Y-111791412D01*
X217114620Y-111728062D01*
X216985131Y-111652848D01*
X216985125Y-111652845D01*
X216981284Y-111650614D01*
X216911943Y-111622528D01*
X216725588Y-111547046D01*
X216725585Y-111547045D01*
X216721462Y-111545375D01*
X216717149Y-111544304D01*
X216717144Y-111544302D01*
X216453724Y-111478868D01*
X216453719Y-111478867D01*
X216449403Y-111477795D01*
X216444975Y-111477341D01*
X216444973Y-111477341D01*
X216354222Y-111468043D01*
X216210328Y-111453300D01*
X216036793Y-111453300D01*
X215828574Y-111468043D01*
X215824219Y-111468981D01*
X215824216Y-111468981D01*
X215558874Y-111526107D01*
X215558872Y-111526107D01*
X215554527Y-111527043D01*
X215291527Y-111624069D01*
X215287609Y-111626183D01*
X215238190Y-111652848D01*
X215044822Y-111757184D01*
X214819334Y-111923732D01*
X214619563Y-112120390D01*
X214449493Y-112343233D01*
X214312520Y-112587817D01*
X214211375Y-112849261D01*
X214210372Y-112853586D01*
X214210371Y-112853591D01*
X214175550Y-113003818D01*
X214148077Y-113122347D01*
X214123889Y-113401628D01*
X194589080Y-113401628D01*
X194577352Y-113188512D01*
X194577351Y-113188505D01*
X194577107Y-113184069D01*
X194522418Y-112909129D01*
X194429535Y-112644638D01*
X194402174Y-112591964D01*
X194302364Y-112399822D01*
X194302363Y-112399820D01*
X194300312Y-112395872D01*
X194297729Y-112392257D01*
X194297725Y-112392251D01*
X194139915Y-112171417D01*
X194139912Y-112171413D01*
X194137327Y-112167796D01*
X193943831Y-111964961D01*
X193895506Y-111926864D01*
X193727182Y-111794168D01*
X193723686Y-111791412D01*
X193614620Y-111728062D01*
X193485131Y-111652848D01*
X193485125Y-111652845D01*
X193481284Y-111650614D01*
X193411943Y-111622528D01*
X193225588Y-111547046D01*
X193225585Y-111547045D01*
X193221462Y-111545375D01*
X193217149Y-111544304D01*
X193217144Y-111544302D01*
X192953724Y-111478868D01*
X192953719Y-111478867D01*
X192949403Y-111477795D01*
X192944975Y-111477341D01*
X192944973Y-111477341D01*
X192854222Y-111468043D01*
X192710328Y-111453300D01*
X192536793Y-111453300D01*
X192328574Y-111468043D01*
X192324219Y-111468981D01*
X192324216Y-111468981D01*
X192058874Y-111526107D01*
X192058872Y-111526107D01*
X192054527Y-111527043D01*
X191791527Y-111624069D01*
X191787609Y-111626183D01*
X191738190Y-111652848D01*
X191544822Y-111757184D01*
X191319334Y-111923732D01*
X191119563Y-112120390D01*
X190949493Y-112343233D01*
X190812520Y-112587817D01*
X190711375Y-112849261D01*
X190710372Y-112853586D01*
X190710371Y-112853591D01*
X190675550Y-113003818D01*
X190648077Y-113122347D01*
X190623889Y-113401628D01*
X182093100Y-113401628D01*
X182093100Y-112176139D01*
X182113102Y-112108018D01*
X182130005Y-112087044D01*
X182167526Y-112049523D01*
X182208933Y-111968258D01*
X182257682Y-111916643D01*
X182326597Y-111899577D01*
X182393798Y-111922478D01*
X182433467Y-111968258D01*
X182474874Y-112049523D01*
X182565477Y-112140126D01*
X182679645Y-112198298D01*
X182774366Y-112213300D01*
X183138034Y-112213300D01*
X183232755Y-112198298D01*
X183346923Y-112140126D01*
X183437526Y-112049523D01*
X183478933Y-111968258D01*
X183527682Y-111916643D01*
X183596597Y-111899577D01*
X183663798Y-111922478D01*
X183703467Y-111968258D01*
X183744874Y-112049523D01*
X183835477Y-112140126D01*
X183949645Y-112198298D01*
X184044366Y-112213300D01*
X184408034Y-112213300D01*
X184502755Y-112198298D01*
X184616923Y-112140126D01*
X184707526Y-112049523D01*
X184748933Y-111968258D01*
X184797682Y-111916643D01*
X184866597Y-111899577D01*
X184933798Y-111922478D01*
X184973467Y-111968258D01*
X185014874Y-112049523D01*
X185105477Y-112140126D01*
X185219645Y-112198298D01*
X185314366Y-112213300D01*
X185678034Y-112213300D01*
X185772755Y-112198298D01*
X185886923Y-112140126D01*
X185977526Y-112049523D01*
X186035698Y-111935355D01*
X186050700Y-111840634D01*
X186050700Y-110126966D01*
X186035698Y-110032245D01*
X185977526Y-109918077D01*
X185886923Y-109827474D01*
X185772755Y-109769302D01*
X185678034Y-109754300D01*
X185362733Y-109754300D01*
X185294612Y-109734298D01*
X185273638Y-109717395D01*
X184876631Y-109320388D01*
X184856576Y-109310170D01*
X184839721Y-109299840D01*
X184829537Y-109292441D01*
X184821512Y-109286610D01*
X184812079Y-109283545D01*
X184812077Y-109283544D01*
X184800100Y-109279652D01*
X184781838Y-109272088D01*
X184770620Y-109266372D01*
X184770619Y-109266372D01*
X184761786Y-109261871D01*
X184739554Y-109258350D01*
X184720328Y-109253734D01*
X184708359Y-109249845D01*
X184698926Y-109246780D01*
X182532527Y-109246780D01*
X182523094Y-109249845D01*
X182511125Y-109253734D01*
X182491899Y-109258350D01*
X182469667Y-109261871D01*
X182460834Y-109266372D01*
X182460833Y-109266372D01*
X182449615Y-109272088D01*
X182431353Y-109279652D01*
X182419376Y-109283544D01*
X182419374Y-109283545D01*
X182409941Y-109286610D01*
X182401916Y-109292441D01*
X182391732Y-109299840D01*
X182374877Y-109310170D01*
X182354822Y-109320388D01*
X181957765Y-109717445D01*
X181895453Y-109751471D01*
X181868034Y-109753334D01*
X181868034Y-109754300D01*
X181533300Y-109754300D01*
X181465179Y-109734298D01*
X181418686Y-109680642D01*
X181407300Y-109628300D01*
X181407300Y-107583589D01*
X181418537Y-107531575D01*
X181432200Y-107501429D01*
X181432200Y-107495678D01*
X181940200Y-107495678D01*
X181944173Y-107509209D01*
X181952071Y-107510344D01*
X182091990Y-107469693D01*
X182106421Y-107463448D01*
X182235878Y-107386889D01*
X182248304Y-107377249D01*
X182354649Y-107270904D01*
X182364289Y-107258477D01*
X182383333Y-107226275D01*
X182435226Y-107177822D01*
X182505077Y-107165117D01*
X182562569Y-107187218D01*
X182565477Y-107190126D01*
X182574313Y-107194628D01*
X182574314Y-107194629D01*
X182619539Y-107217672D01*
X182679645Y-107248298D01*
X182774366Y-107263300D01*
X183138034Y-107263300D01*
X183232755Y-107248298D01*
X183346923Y-107190126D01*
X183437526Y-107099523D01*
X183478933Y-107018258D01*
X183527682Y-106966643D01*
X183596597Y-106949577D01*
X183663798Y-106972478D01*
X183703467Y-107018258D01*
X183744874Y-107099523D01*
X183835477Y-107190126D01*
X183949645Y-107248298D01*
X184044366Y-107263300D01*
X184408034Y-107263300D01*
X184502755Y-107248298D01*
X184616923Y-107190126D01*
X184707526Y-107099523D01*
X184748933Y-107018258D01*
X184797682Y-106966643D01*
X184866597Y-106949577D01*
X184933798Y-106972478D01*
X184973467Y-107018258D01*
X185014874Y-107099523D01*
X185105477Y-107190126D01*
X185219645Y-107248298D01*
X185314366Y-107263300D01*
X185678034Y-107263300D01*
X185772755Y-107248298D01*
X185886923Y-107190126D01*
X185977526Y-107099523D01*
X186035698Y-106985355D01*
X186050700Y-106890634D01*
X186050700Y-106071012D01*
X186070702Y-106002891D01*
X186087605Y-105981917D01*
X186819880Y-105249642D01*
X186838889Y-105234289D01*
X186839952Y-105233322D01*
X186848704Y-105227671D01*
X186869629Y-105201128D01*
X186873608Y-105196650D01*
X186873537Y-105196590D01*
X186876890Y-105192633D01*
X186880571Y-105188952D01*
X186891869Y-105173143D01*
X186895432Y-105168398D01*
X186920885Y-105136110D01*
X186927334Y-105127930D01*
X186930384Y-105119245D01*
X186935734Y-105111758D01*
X186950509Y-105062353D01*
X186952330Y-105056750D01*
X186966788Y-105015581D01*
X186969416Y-105008098D01*
X186969900Y-105002509D01*
X186969900Y-104999796D01*
X186970015Y-104997131D01*
X186970034Y-104997068D01*
X186970208Y-104997075D01*
X186970255Y-104996329D01*
X186972125Y-104990076D01*
X186969997Y-104935922D01*
X186969900Y-104930975D01*
X186969900Y-102720935D01*
X186972486Y-102696636D01*
X186972554Y-102695198D01*
X186974745Y-102685020D01*
X186970773Y-102651458D01*
X186970421Y-102645480D01*
X186970328Y-102645488D01*
X186969900Y-102640310D01*
X186969900Y-102635108D01*
X186966712Y-102615954D01*
X186965877Y-102610089D01*
X186961042Y-102569233D01*
X186961042Y-102569232D01*
X186959818Y-102558893D01*
X186955833Y-102550594D01*
X186954322Y-102541517D01*
X186929842Y-102496149D01*
X186927161Y-102490886D01*
X186908273Y-102451550D01*
X186908270Y-102451546D01*
X186904840Y-102444402D01*
X186901230Y-102440108D01*
X186899298Y-102438176D01*
X186897511Y-102436227D01*
X186897482Y-102436174D01*
X186897612Y-102436055D01*
X186897111Y-102435487D01*
X186894012Y-102429743D01*
X186854191Y-102392933D01*
X186850626Y-102389504D01*
X185838405Y-101377282D01*
X185804379Y-101314970D01*
X185801500Y-101288187D01*
X185801500Y-90428585D01*
X186280500Y-90428585D01*
X186280501Y-91435414D01*
X186280870Y-91438808D01*
X186280870Y-91438814D01*
X186286252Y-91488356D01*
X186287119Y-91496342D01*
X186289894Y-91503744D01*
X186289894Y-91503745D01*
X186326834Y-91602285D01*
X186337217Y-91629982D01*
X186342601Y-91637165D01*
X186342601Y-91637166D01*
X186406681Y-91722667D01*
X186422811Y-91744189D01*
X186537018Y-91829783D01*
X186545426Y-91832935D01*
X186663260Y-91877108D01*
X186663262Y-91877109D01*
X186670658Y-91879881D01*
X186731585Y-91886500D01*
X187022457Y-91886500D01*
X187313414Y-91886499D01*
X187316810Y-91886130D01*
X187316812Y-91886130D01*
X187324388Y-91885307D01*
X187365308Y-91880862D01*
X187435188Y-91893390D01*
X187468008Y-91917030D01*
X188390854Y-92839876D01*
X188406218Y-92858899D01*
X188407182Y-92859958D01*
X188412829Y-92868704D01*
X188421008Y-92875152D01*
X188421010Y-92875154D01*
X188439377Y-92889634D01*
X188443850Y-92893609D01*
X188443911Y-92893537D01*
X188447868Y-92896890D01*
X188451549Y-92900571D01*
X188455781Y-92903595D01*
X188467339Y-92911855D01*
X188472085Y-92915418D01*
X188512570Y-92947334D01*
X188521255Y-92950384D01*
X188528743Y-92955735D01*
X188578150Y-92970510D01*
X188583737Y-92972326D01*
X188632402Y-92989416D01*
X188637991Y-92989900D01*
X188640702Y-92989900D01*
X188643371Y-92990015D01*
X188643432Y-92990034D01*
X188643425Y-92990208D01*
X188644172Y-92990255D01*
X188650425Y-92992125D01*
X188704589Y-92989997D01*
X188709535Y-92989900D01*
X190777828Y-92989900D01*
X190845949Y-93009902D01*
X190892442Y-93063558D01*
X190902931Y-93106196D01*
X190903300Y-93106156D01*
X190910002Y-93167848D01*
X190960729Y-93303164D01*
X190966109Y-93310343D01*
X190966111Y-93310346D01*
X191032087Y-93398377D01*
X191047396Y-93418804D01*
X191054576Y-93424185D01*
X191155854Y-93500089D01*
X191155857Y-93500091D01*
X191163036Y-93505471D01*
X191252754Y-93539104D01*
X191290957Y-93553426D01*
X191290959Y-93553426D01*
X191298352Y-93556198D01*
X191306202Y-93557051D01*
X191306203Y-93557051D01*
X191356647Y-93562531D01*
X191360044Y-93562900D01*
X191980556Y-93562900D01*
X191983953Y-93562531D01*
X192034397Y-93557051D01*
X192034398Y-93557051D01*
X192042248Y-93556198D01*
X192049641Y-93553426D01*
X192049643Y-93553426D01*
X192087846Y-93539104D01*
X192177564Y-93505471D01*
X192184743Y-93500091D01*
X192184746Y-93500089D01*
X192286024Y-93424185D01*
X192293204Y-93418804D01*
X192308513Y-93398377D01*
X192374489Y-93310346D01*
X192374491Y-93310343D01*
X192379871Y-93303164D01*
X192430598Y-93167848D01*
X192437300Y-93106156D01*
X192437300Y-92110644D01*
X192433592Y-92076509D01*
X192431451Y-92056803D01*
X192431451Y-92056802D01*
X192430598Y-92048952D01*
X192379871Y-91913636D01*
X192374491Y-91906457D01*
X192374489Y-91906454D01*
X192298585Y-91805176D01*
X192293204Y-91797996D01*
X192272777Y-91782687D01*
X192184746Y-91716711D01*
X192184743Y-91716709D01*
X192177564Y-91711329D01*
X192169162Y-91708179D01*
X192161285Y-91703867D01*
X192163130Y-91700498D01*
X192120796Y-91668806D01*
X192095988Y-91602285D01*
X192111081Y-91532911D01*
X192161285Y-91482711D01*
X192221667Y-91467300D01*
X192580530Y-91467300D01*
X192943935Y-91467299D01*
X193012055Y-91487301D01*
X193058548Y-91540957D01*
X193068652Y-91611230D01*
X193039159Y-91675811D01*
X193002829Y-91701153D01*
X193004315Y-91703867D01*
X192996438Y-91708179D01*
X192988036Y-91711329D01*
X192980857Y-91716709D01*
X192980854Y-91716711D01*
X192892823Y-91782687D01*
X192872396Y-91797996D01*
X192867015Y-91805176D01*
X192791111Y-91906454D01*
X192791109Y-91906457D01*
X192785729Y-91913636D01*
X192735002Y-92048952D01*
X192734149Y-92056802D01*
X192734149Y-92056803D01*
X192732008Y-92076509D01*
X192728300Y-92110644D01*
X192728300Y-93106156D01*
X192735002Y-93167848D01*
X192785729Y-93303164D01*
X192791109Y-93310343D01*
X192791111Y-93310346D01*
X192857087Y-93398377D01*
X192872396Y-93418804D01*
X192879576Y-93424185D01*
X192980854Y-93500089D01*
X192980857Y-93500091D01*
X192988036Y-93505471D01*
X193077754Y-93539104D01*
X193115957Y-93553426D01*
X193115959Y-93553426D01*
X193123352Y-93556198D01*
X193131202Y-93557051D01*
X193131203Y-93557051D01*
X193181647Y-93562531D01*
X193185044Y-93562900D01*
X193805556Y-93562900D01*
X193808953Y-93562531D01*
X193859397Y-93557051D01*
X193859398Y-93557051D01*
X193867248Y-93556198D01*
X193874641Y-93553426D01*
X193874643Y-93553426D01*
X193912846Y-93539104D01*
X194002564Y-93505471D01*
X194009743Y-93500091D01*
X194009746Y-93500089D01*
X194111024Y-93424185D01*
X194118204Y-93418804D01*
X194133513Y-93398377D01*
X194199489Y-93310346D01*
X194199491Y-93310343D01*
X194204871Y-93303164D01*
X194255598Y-93167848D01*
X194262300Y-93106156D01*
X194262300Y-92433112D01*
X194282302Y-92364991D01*
X194299205Y-92344017D01*
X196214637Y-90428585D01*
X197329500Y-90428585D01*
X197329501Y-91435414D01*
X197329870Y-91438808D01*
X197329870Y-91438814D01*
X197335252Y-91488356D01*
X197336119Y-91496342D01*
X197338894Y-91503744D01*
X197338894Y-91503745D01*
X197375834Y-91602285D01*
X197386217Y-91629982D01*
X197391601Y-91637165D01*
X197391601Y-91637166D01*
X197455681Y-91722667D01*
X197471811Y-91744189D01*
X197586018Y-91829783D01*
X197594426Y-91832935D01*
X197712260Y-91877108D01*
X197712262Y-91877109D01*
X197719658Y-91879881D01*
X197780585Y-91886500D01*
X198071457Y-91886500D01*
X198362414Y-91886499D01*
X198365808Y-91886130D01*
X198365814Y-91886130D01*
X198415483Y-91880735D01*
X198415486Y-91880734D01*
X198423342Y-91879881D01*
X198464450Y-91864471D01*
X198548574Y-91832935D01*
X198556982Y-91829783D01*
X198671189Y-91744189D01*
X198687656Y-91722218D01*
X198751398Y-91637167D01*
X198751399Y-91637166D01*
X198756783Y-91629982D01*
X198759936Y-91621572D01*
X198763031Y-91615918D01*
X198813288Y-91565770D01*
X198882678Y-91550754D01*
X198949172Y-91575637D01*
X198993076Y-91636546D01*
X199015034Y-91702360D01*
X199021210Y-91715543D01*
X199105744Y-91852149D01*
X199114780Y-91863550D01*
X199228479Y-91977051D01*
X199239890Y-91986063D01*
X199376654Y-92070365D01*
X199389832Y-92076509D01*
X199542740Y-92127227D01*
X199556106Y-92130093D01*
X199649601Y-92139672D01*
X199656016Y-92140000D01*
X199674385Y-92140000D01*
X199689624Y-92135525D01*
X199690829Y-92134135D01*
X199692500Y-92126452D01*
X199692500Y-92121884D01*
X200200500Y-92121884D01*
X200204975Y-92137123D01*
X200206365Y-92138328D01*
X200214048Y-92139999D01*
X200236933Y-92139999D01*
X200243452Y-92139662D01*
X200338170Y-92129834D01*
X200351564Y-92126942D01*
X200504365Y-92075964D01*
X200517543Y-92069790D01*
X200654149Y-91985256D01*
X200665550Y-91976220D01*
X200779051Y-91862521D01*
X200788063Y-91851110D01*
X200872365Y-91714346D01*
X200878509Y-91701168D01*
X200929227Y-91548260D01*
X200932093Y-91534894D01*
X200941672Y-91441399D01*
X200942000Y-91434984D01*
X200942000Y-91302454D01*
X204083818Y-91302454D01*
X204090873Y-91312427D01*
X204121879Y-91338351D01*
X204128798Y-91343379D01*
X204353472Y-91484315D01*
X204361007Y-91488356D01*
X204602720Y-91597494D01*
X204610751Y-91600480D01*
X204865032Y-91675802D01*
X204873384Y-91677669D01*
X205135540Y-91717784D01*
X205144074Y-91718500D01*
X205409245Y-91722667D01*
X205417796Y-91722218D01*
X205681083Y-91690357D01*
X205689484Y-91688755D01*
X205946024Y-91621453D01*
X205954126Y-91618726D01*
X206199149Y-91517234D01*
X206206817Y-91513428D01*
X206435798Y-91379622D01*
X206442879Y-91374809D01*
X206522855Y-91312101D01*
X206531325Y-91300242D01*
X206524808Y-91288618D01*
X205321012Y-90084822D01*
X205307068Y-90077208D01*
X205305235Y-90077339D01*
X205298620Y-90081590D01*
X204091110Y-91289100D01*
X204083818Y-91302454D01*
X200942000Y-91302454D01*
X200942000Y-91204115D01*
X200937525Y-91188876D01*
X200936135Y-91187671D01*
X200928452Y-91186000D01*
X200218615Y-91186000D01*
X200203376Y-91190475D01*
X200202171Y-91191865D01*
X200200500Y-91199548D01*
X200200500Y-92121884D01*
X199692500Y-92121884D01*
X199692500Y-90804000D01*
X199712502Y-90735879D01*
X199766158Y-90689386D01*
X199818500Y-90678000D01*
X200923884Y-90678000D01*
X200939123Y-90673525D01*
X200940328Y-90672135D01*
X200941999Y-90664452D01*
X200941999Y-90429067D01*
X200941662Y-90422548D01*
X200931834Y-90327830D01*
X200928942Y-90314436D01*
X200877964Y-90161635D01*
X200871790Y-90148457D01*
X200787256Y-90011851D01*
X200778220Y-90000450D01*
X200664521Y-89886949D01*
X200653110Y-89877937D01*
X200516346Y-89793635D01*
X200508325Y-89789895D01*
X200455039Y-89742979D01*
X200435578Y-89674701D01*
X200456119Y-89606741D01*
X200510142Y-89560675D01*
X200561574Y-89549700D01*
X201073756Y-89549700D01*
X201119763Y-89544702D01*
X201127597Y-89543851D01*
X201127598Y-89543851D01*
X201135448Y-89542998D01*
X201142841Y-89540226D01*
X201142843Y-89540226D01*
X201184912Y-89524455D01*
X201270764Y-89492271D01*
X201277943Y-89486891D01*
X201277946Y-89486889D01*
X201379224Y-89410985D01*
X201386404Y-89405604D01*
X201440588Y-89333306D01*
X201467689Y-89297146D01*
X201467691Y-89297143D01*
X201473071Y-89289964D01*
X201523798Y-89154648D01*
X201530500Y-89092956D01*
X201821500Y-89092956D01*
X201828202Y-89154648D01*
X201878929Y-89289964D01*
X201884309Y-89297143D01*
X201884311Y-89297146D01*
X201911412Y-89333306D01*
X201965596Y-89405604D01*
X201972776Y-89410985D01*
X202074054Y-89486889D01*
X202074057Y-89486891D01*
X202081236Y-89492271D01*
X202167088Y-89524455D01*
X202209157Y-89540226D01*
X202209159Y-89540226D01*
X202216552Y-89542998D01*
X202224402Y-89543851D01*
X202224403Y-89543851D01*
X202232237Y-89544702D01*
X202278244Y-89549700D01*
X202898756Y-89549700D01*
X202944763Y-89544702D01*
X202952597Y-89543851D01*
X202952598Y-89543851D01*
X202960448Y-89542998D01*
X202967841Y-89540226D01*
X202967843Y-89540226D01*
X203009912Y-89524455D01*
X203095764Y-89492271D01*
X203102947Y-89486888D01*
X203110821Y-89482577D01*
X203111643Y-89484078D01*
X203168283Y-89462914D01*
X203237666Y-89477965D01*
X203287897Y-89528138D01*
X203302957Y-89598474D01*
X203295954Y-89687454D01*
X203295865Y-89696004D01*
X203311132Y-89960769D01*
X203312205Y-89969270D01*
X203363265Y-90229522D01*
X203365476Y-90237774D01*
X203451384Y-90488694D01*
X203454699Y-90496579D01*
X203573864Y-90733513D01*
X203578220Y-90740879D01*
X203707547Y-90929050D01*
X203717801Y-90937394D01*
X203731542Y-90930248D01*
X204936178Y-89725612D01*
X204942556Y-89713932D01*
X205672608Y-89713932D01*
X205672739Y-89715765D01*
X205676990Y-89722380D01*
X206883930Y-90929320D01*
X206896139Y-90935987D01*
X206907639Y-90927297D01*
X207005031Y-90794713D01*
X207009618Y-90787485D01*
X207136162Y-90554421D01*
X207139730Y-90546627D01*
X207233471Y-90298550D01*
X207235948Y-90290344D01*
X207295154Y-90031838D01*
X207296494Y-90023377D01*
X207320231Y-89757416D01*
X207320477Y-89752477D01*
X207320866Y-89715285D01*
X207320723Y-89710319D01*
X207302562Y-89443923D01*
X207301401Y-89435449D01*
X207247619Y-89175744D01*
X207245320Y-89167509D01*
X207156788Y-88917505D01*
X207153391Y-88909654D01*
X207031750Y-88673978D01*
X207027322Y-88666666D01*
X206908231Y-88497217D01*
X206897709Y-88488837D01*
X206884321Y-88495889D01*
X205680222Y-89699988D01*
X205672608Y-89713932D01*
X204942556Y-89713932D01*
X204943792Y-89711668D01*
X204943661Y-89709835D01*
X204939410Y-89703220D01*
X203732014Y-88495824D01*
X203720004Y-88489266D01*
X203708264Y-88498234D01*
X203600135Y-88648711D01*
X203595621Y-88655991D01*
X203592853Y-88661219D01*
X203543299Y-88712061D01*
X203474124Y-88728041D01*
X203407291Y-88704086D01*
X203364019Y-88647800D01*
X203355500Y-88602257D01*
X203355500Y-88385624D01*
X203367275Y-88334820D01*
X203369534Y-88331658D01*
X203384309Y-88282253D01*
X203386130Y-88276650D01*
X203400588Y-88235481D01*
X203403216Y-88227998D01*
X203403700Y-88222409D01*
X203403700Y-88219696D01*
X203403815Y-88217031D01*
X203403834Y-88216968D01*
X203404008Y-88216975D01*
X203404055Y-88216229D01*
X203405925Y-88209976D01*
X203403797Y-88155822D01*
X203403700Y-88150875D01*
X203403700Y-88125300D01*
X204084784Y-88125300D01*
X204091180Y-88136570D01*
X205295388Y-89340778D01*
X205309332Y-89348392D01*
X205311165Y-89348261D01*
X205317780Y-89344010D01*
X206524804Y-88136986D01*
X206531995Y-88123817D01*
X206524673Y-88113580D01*
X206477433Y-88074915D01*
X206470461Y-88069960D01*
X206244322Y-87931382D01*
X206236752Y-87927424D01*
X205993904Y-87820822D01*
X205985844Y-87817920D01*
X205730792Y-87745267D01*
X205722414Y-87743485D01*
X205459856Y-87706118D01*
X205451311Y-87705491D01*
X205186108Y-87704102D01*
X205177574Y-87704639D01*
X204914633Y-87739256D01*
X204906235Y-87740949D01*
X204650438Y-87810927D01*
X204642343Y-87813746D01*
X204398399Y-87917797D01*
X204390777Y-87921681D01*
X204163213Y-88057875D01*
X204156181Y-88062762D01*
X204093253Y-88113177D01*
X204084784Y-88125300D01*
X203403700Y-88125300D01*
X203403700Y-86012397D01*
X203423702Y-85944276D01*
X203473940Y-85901161D01*
X203473365Y-85900134D01*
X203538078Y-85863893D01*
X203650476Y-85800947D01*
X203690169Y-85767935D01*
X203777896Y-85694972D01*
X203806545Y-85671145D01*
X203879037Y-85583983D01*
X203932653Y-85519518D01*
X203932655Y-85519515D01*
X203936347Y-85515076D01*
X204035534Y-85337965D01*
X204037390Y-85332498D01*
X204037392Y-85332493D01*
X204098928Y-85151214D01*
X204098929Y-85151209D01*
X204100784Y-85145745D01*
X204101612Y-85140036D01*
X204101613Y-85140031D01*
X204129379Y-84948527D01*
X204129912Y-84944853D01*
X204131432Y-84886800D01*
X204128764Y-84857764D01*
X204453348Y-84857764D01*
X204466624Y-85060322D01*
X204468045Y-85065918D01*
X204468046Y-85065923D01*
X204515171Y-85251474D01*
X204516592Y-85257069D01*
X204519009Y-85262312D01*
X204555064Y-85340521D01*
X204601577Y-85441416D01*
X204718733Y-85607189D01*
X204722875Y-85611224D01*
X204760736Y-85648106D01*
X204864138Y-85748835D01*
X205032920Y-85861612D01*
X205038223Y-85863890D01*
X205038226Y-85863892D01*
X205209801Y-85937606D01*
X205219428Y-85941742D01*
X205256971Y-85950237D01*
X205411779Y-85985267D01*
X205411784Y-85985268D01*
X205417416Y-85986542D01*
X205423187Y-85986769D01*
X205423189Y-85986769D01*
X205482956Y-85989117D01*
X205620253Y-85994512D01*
X205727548Y-85978955D01*
X205815431Y-85966213D01*
X205815436Y-85966212D01*
X205821145Y-85965384D01*
X205826609Y-85963529D01*
X205826614Y-85963528D01*
X205956080Y-85919580D01*
X206027015Y-85916624D01*
X206085676Y-85949798D01*
X207348595Y-87212718D01*
X208608856Y-88472979D01*
X208624215Y-88491995D01*
X208625181Y-88493056D01*
X208630829Y-88501804D01*
X208639006Y-88508250D01*
X208657372Y-88522729D01*
X208661850Y-88526708D01*
X208661910Y-88526637D01*
X208665867Y-88529990D01*
X208669548Y-88533671D01*
X208673780Y-88536695D01*
X208673782Y-88536697D01*
X208685357Y-88544969D01*
X208690102Y-88548532D01*
X208730570Y-88580434D01*
X208739255Y-88583484D01*
X208746742Y-88588834D01*
X208796147Y-88603609D01*
X208801742Y-88605427D01*
X208850402Y-88622516D01*
X208855991Y-88623000D01*
X208858704Y-88623000D01*
X208861369Y-88623115D01*
X208861432Y-88623134D01*
X208861425Y-88623308D01*
X208862171Y-88623355D01*
X208868424Y-88625225D01*
X208918283Y-88623266D01*
X208922578Y-88623097D01*
X208927525Y-88623000D01*
X210117020Y-88623000D01*
X210185141Y-88643002D01*
X210231634Y-88696658D01*
X210241738Y-88766932D01*
X210212244Y-88831512D01*
X210152518Y-88869896D01*
X210129935Y-88874100D01*
X210127908Y-88874100D01*
X210108736Y-88877291D01*
X210102897Y-88878122D01*
X210051692Y-88884182D01*
X210043393Y-88888167D01*
X210034317Y-88889678D01*
X209988963Y-88914150D01*
X209983678Y-88916842D01*
X209974665Y-88921171D01*
X209944348Y-88935728D01*
X209944345Y-88935730D01*
X209937202Y-88939160D01*
X209932908Y-88942770D01*
X209930978Y-88944700D01*
X209929027Y-88946489D01*
X209928974Y-88946518D01*
X209928855Y-88946388D01*
X209928287Y-88946889D01*
X209922543Y-88949988D01*
X209915476Y-88957633D01*
X209885734Y-88989808D01*
X209882329Y-88993349D01*
X208935079Y-89940598D01*
X208872769Y-89974622D01*
X208845986Y-89977501D01*
X208829586Y-89977501D01*
X208826192Y-89977870D01*
X208826186Y-89977870D01*
X208776517Y-89983265D01*
X208776514Y-89983266D01*
X208768658Y-89984119D01*
X208761256Y-89986894D01*
X208761255Y-89986894D01*
X208722349Y-90001479D01*
X208635018Y-90034217D01*
X208627835Y-90039601D01*
X208627834Y-90039601D01*
X208577481Y-90077339D01*
X208520811Y-90119811D01*
X208435217Y-90234018D01*
X208432065Y-90242426D01*
X208390629Y-90352961D01*
X208385119Y-90367658D01*
X208378500Y-90428585D01*
X208378501Y-91435414D01*
X208378870Y-91438808D01*
X208378870Y-91438814D01*
X208384252Y-91488356D01*
X208385119Y-91496342D01*
X208387894Y-91503744D01*
X208387894Y-91503745D01*
X208424834Y-91602285D01*
X208435217Y-91629982D01*
X208440601Y-91637165D01*
X208440601Y-91637166D01*
X208504681Y-91722667D01*
X208520811Y-91744189D01*
X208635018Y-91829783D01*
X208643426Y-91832935D01*
X208761260Y-91877108D01*
X208761262Y-91877109D01*
X208768658Y-91879881D01*
X208829585Y-91886500D01*
X209120457Y-91886500D01*
X209411414Y-91886499D01*
X209414808Y-91886130D01*
X209414814Y-91886130D01*
X209464483Y-91880735D01*
X209464486Y-91880734D01*
X209472342Y-91879881D01*
X209513450Y-91864471D01*
X209597574Y-91832935D01*
X209605982Y-91829783D01*
X209720189Y-91744189D01*
X209736656Y-91722218D01*
X209800398Y-91637167D01*
X209800399Y-91637166D01*
X209805783Y-91629982D01*
X209808936Y-91621572D01*
X209812031Y-91615918D01*
X209862288Y-91565770D01*
X209931678Y-91550754D01*
X209998172Y-91575637D01*
X210042076Y-91636546D01*
X210064034Y-91702360D01*
X210070210Y-91715543D01*
X210154744Y-91852149D01*
X210163780Y-91863550D01*
X210277479Y-91977051D01*
X210288890Y-91986063D01*
X210425654Y-92070365D01*
X210438832Y-92076509D01*
X210591740Y-92127227D01*
X210605106Y-92130093D01*
X210698601Y-92139672D01*
X210705016Y-92140000D01*
X210723385Y-92140000D01*
X210738624Y-92135525D01*
X210739829Y-92134135D01*
X210741500Y-92126452D01*
X210741500Y-92121884D01*
X211249500Y-92121884D01*
X211253975Y-92137123D01*
X211255365Y-92138328D01*
X211263048Y-92139999D01*
X211285933Y-92139999D01*
X211292452Y-92139662D01*
X211387170Y-92129834D01*
X211400564Y-92126942D01*
X211553365Y-92075964D01*
X211566543Y-92069790D01*
X211703149Y-91985256D01*
X211714550Y-91976220D01*
X211828051Y-91862521D01*
X211837063Y-91851110D01*
X211921365Y-91714346D01*
X211927509Y-91701168D01*
X211978227Y-91548260D01*
X211981093Y-91534894D01*
X211990672Y-91441399D01*
X211991000Y-91434984D01*
X211991000Y-91204115D01*
X211986525Y-91188876D01*
X211985135Y-91187671D01*
X211977452Y-91186000D01*
X211267615Y-91186000D01*
X211252376Y-91190475D01*
X211251171Y-91191865D01*
X211249500Y-91199548D01*
X211249500Y-92121884D01*
X210741500Y-92121884D01*
X210741500Y-90804000D01*
X210761502Y-90735879D01*
X210815158Y-90689386D01*
X210867500Y-90678000D01*
X211972884Y-90678000D01*
X211988123Y-90673525D01*
X211989328Y-90672135D01*
X211990999Y-90664452D01*
X211990999Y-90429067D01*
X211990662Y-90422548D01*
X211980834Y-90327830D01*
X211977942Y-90314436D01*
X211926964Y-90161635D01*
X211920790Y-90148457D01*
X211836256Y-90011851D01*
X211827220Y-90000450D01*
X211713521Y-89886949D01*
X211702109Y-89877937D01*
X211689819Y-89870361D01*
X211642324Y-89817589D01*
X211630900Y-89747518D01*
X211659173Y-89682394D01*
X211718166Y-89642893D01*
X211755933Y-89637100D01*
X213955900Y-89637100D01*
X214024021Y-89657102D01*
X214070514Y-89710758D01*
X214081900Y-89763100D01*
X214081900Y-90376756D01*
X214082269Y-90380152D01*
X214082269Y-90380153D01*
X214087531Y-90428585D01*
X214088602Y-90438448D01*
X214139329Y-90573764D01*
X214144709Y-90580943D01*
X214144711Y-90580946D01*
X214203873Y-90659885D01*
X214225996Y-90689404D01*
X214233176Y-90694785D01*
X214334454Y-90770689D01*
X214334457Y-90770691D01*
X214341636Y-90776071D01*
X214416138Y-90804000D01*
X214469557Y-90824026D01*
X214469559Y-90824026D01*
X214476952Y-90826798D01*
X214484802Y-90827651D01*
X214484803Y-90827651D01*
X214535247Y-90833131D01*
X214538644Y-90833500D01*
X215534156Y-90833500D01*
X215537553Y-90833131D01*
X215587997Y-90827651D01*
X215587998Y-90827651D01*
X215595848Y-90826798D01*
X215603241Y-90824026D01*
X215603243Y-90824026D01*
X215656662Y-90804000D01*
X215731164Y-90776071D01*
X215738343Y-90770691D01*
X215738346Y-90770689D01*
X215839624Y-90694785D01*
X215846804Y-90689404D01*
X215868927Y-90659885D01*
X215928089Y-90580946D01*
X215928091Y-90580943D01*
X215933471Y-90573764D01*
X215984198Y-90438448D01*
X215985270Y-90428585D01*
X219300500Y-90428585D01*
X219300501Y-91435414D01*
X219300870Y-91438808D01*
X219300870Y-91438814D01*
X219306252Y-91488356D01*
X219307119Y-91496342D01*
X219309894Y-91503744D01*
X219309894Y-91503745D01*
X219346834Y-91602285D01*
X219357217Y-91629982D01*
X219362601Y-91637165D01*
X219362601Y-91637166D01*
X219426681Y-91722667D01*
X219442811Y-91744189D01*
X219557018Y-91829783D01*
X219565426Y-91832935D01*
X219683260Y-91877108D01*
X219683262Y-91877109D01*
X219690658Y-91879881D01*
X219751585Y-91886500D01*
X220042457Y-91886500D01*
X220333414Y-91886499D01*
X220336808Y-91886130D01*
X220336814Y-91886130D01*
X220386483Y-91880735D01*
X220386486Y-91880734D01*
X220394342Y-91879881D01*
X220435450Y-91864471D01*
X220519574Y-91832935D01*
X220527982Y-91829783D01*
X220642189Y-91744189D01*
X220658656Y-91722218D01*
X220722398Y-91637167D01*
X220722399Y-91637166D01*
X220727783Y-91629982D01*
X220730936Y-91621572D01*
X220734031Y-91615918D01*
X220784288Y-91565770D01*
X220853678Y-91550754D01*
X220920172Y-91575637D01*
X220964076Y-91636546D01*
X220986034Y-91702360D01*
X220992210Y-91715543D01*
X221076744Y-91852149D01*
X221085780Y-91863550D01*
X221199479Y-91977051D01*
X221210890Y-91986063D01*
X221347654Y-92070365D01*
X221360832Y-92076509D01*
X221513740Y-92127227D01*
X221527106Y-92130093D01*
X221620601Y-92139672D01*
X221627016Y-92140000D01*
X221645385Y-92140000D01*
X221660624Y-92135525D01*
X221661829Y-92134135D01*
X221663500Y-92126452D01*
X221663500Y-92121884D01*
X222171500Y-92121884D01*
X222175975Y-92137123D01*
X222177365Y-92138328D01*
X222185048Y-92139999D01*
X222207933Y-92139999D01*
X222214452Y-92139662D01*
X222309170Y-92129834D01*
X222322564Y-92126942D01*
X222475365Y-92075964D01*
X222488543Y-92069790D01*
X222625149Y-91985256D01*
X222636550Y-91976220D01*
X222750051Y-91862521D01*
X222759063Y-91851110D01*
X222843365Y-91714346D01*
X222849509Y-91701168D01*
X222900227Y-91548260D01*
X222903093Y-91534894D01*
X222912672Y-91441399D01*
X222913000Y-91434984D01*
X222913000Y-91204115D01*
X222908525Y-91188876D01*
X222907135Y-91187671D01*
X222899452Y-91186000D01*
X222189615Y-91186000D01*
X222174376Y-91190475D01*
X222173171Y-91191865D01*
X222171500Y-91199548D01*
X222171500Y-92121884D01*
X221663500Y-92121884D01*
X221663500Y-90804000D01*
X221683502Y-90735879D01*
X221737158Y-90689386D01*
X221789500Y-90678000D01*
X222894884Y-90678000D01*
X222910123Y-90673525D01*
X222911328Y-90672135D01*
X222912999Y-90664452D01*
X222912999Y-90429067D01*
X222912494Y-90419310D01*
X222913334Y-90419267D01*
X222925551Y-90352961D01*
X222974123Y-90301180D01*
X223038013Y-90283780D01*
X223458346Y-90283780D01*
X223526467Y-90303782D01*
X223572960Y-90357438D01*
X223583609Y-90396171D01*
X223587131Y-90428586D01*
X223588202Y-90438448D01*
X223638929Y-90573764D01*
X223644309Y-90580943D01*
X223644311Y-90580946D01*
X223703473Y-90659885D01*
X223725596Y-90689404D01*
X223732776Y-90694785D01*
X223834054Y-90770689D01*
X223834057Y-90770691D01*
X223841236Y-90776071D01*
X223915738Y-90804000D01*
X223969157Y-90824026D01*
X223969159Y-90824026D01*
X223976552Y-90826798D01*
X223984402Y-90827651D01*
X223984403Y-90827651D01*
X224034847Y-90833131D01*
X224038244Y-90833500D01*
X225033756Y-90833500D01*
X225037153Y-90833131D01*
X225087597Y-90827651D01*
X225087598Y-90827651D01*
X225095448Y-90826798D01*
X225102841Y-90824026D01*
X225102843Y-90824026D01*
X225156262Y-90804000D01*
X225230764Y-90776071D01*
X225237943Y-90770691D01*
X225237946Y-90770689D01*
X225339224Y-90694785D01*
X225346404Y-90689404D01*
X225368527Y-90659885D01*
X225427689Y-90580946D01*
X225427691Y-90580943D01*
X225433071Y-90573764D01*
X225483798Y-90438448D01*
X225484870Y-90428585D01*
X225490131Y-90380153D01*
X225490131Y-90380152D01*
X225490500Y-90376756D01*
X225490500Y-89756244D01*
X225485903Y-89713932D01*
X225484651Y-89702403D01*
X225484651Y-89702402D01*
X225483798Y-89694552D01*
X225433071Y-89559236D01*
X225427691Y-89552057D01*
X225427689Y-89552054D01*
X225351785Y-89450776D01*
X225351784Y-89450775D01*
X225346404Y-89443596D01*
X225264298Y-89382061D01*
X225237946Y-89362311D01*
X225237943Y-89362309D01*
X225230764Y-89356929D01*
X225141046Y-89323296D01*
X225102843Y-89308974D01*
X225102841Y-89308974D01*
X225095448Y-89306202D01*
X225087598Y-89305349D01*
X225087597Y-89305349D01*
X225037153Y-89299869D01*
X225037152Y-89299869D01*
X225033756Y-89299500D01*
X224038244Y-89299500D01*
X224034848Y-89299869D01*
X224034847Y-89299869D01*
X223984403Y-89305349D01*
X223984402Y-89305349D01*
X223976552Y-89306202D01*
X223969159Y-89308974D01*
X223969157Y-89308974D01*
X223930954Y-89323296D01*
X223841236Y-89356929D01*
X223834057Y-89362309D01*
X223834054Y-89362311D01*
X223807702Y-89382061D01*
X223725596Y-89443596D01*
X223705991Y-89469756D01*
X223705550Y-89470344D01*
X223648691Y-89512860D01*
X223604723Y-89520780D01*
X221126355Y-89520780D01*
X221102056Y-89518194D01*
X221100618Y-89518126D01*
X221090440Y-89515935D01*
X221060736Y-89519450D01*
X221056878Y-89519907D01*
X221050900Y-89520259D01*
X221050908Y-89520352D01*
X221045730Y-89520780D01*
X221040528Y-89520780D01*
X221021374Y-89523968D01*
X221015516Y-89524802D01*
X220998902Y-89526768D01*
X220974653Y-89529638D01*
X220974652Y-89529638D01*
X220964313Y-89530862D01*
X220956014Y-89534847D01*
X220946937Y-89536358D01*
X220901569Y-89560838D01*
X220896306Y-89563519D01*
X220856970Y-89582407D01*
X220856966Y-89582410D01*
X220849822Y-89585840D01*
X220845528Y-89589450D01*
X220843596Y-89591382D01*
X220841647Y-89593169D01*
X220841594Y-89593198D01*
X220841475Y-89593068D01*
X220840907Y-89593569D01*
X220835163Y-89596668D01*
X220828096Y-89604313D01*
X220798354Y-89636488D01*
X220794924Y-89640054D01*
X220488009Y-89946969D01*
X220425697Y-89980995D01*
X220385306Y-89983137D01*
X220336812Y-89977869D01*
X220336811Y-89977869D01*
X220333415Y-89977500D01*
X220042543Y-89977500D01*
X219751586Y-89977501D01*
X219748192Y-89977870D01*
X219748186Y-89977870D01*
X219698517Y-89983265D01*
X219698514Y-89983266D01*
X219690658Y-89984119D01*
X219683256Y-89986894D01*
X219683255Y-89986894D01*
X219644349Y-90001479D01*
X219557018Y-90034217D01*
X219549835Y-90039601D01*
X219549834Y-90039601D01*
X219499481Y-90077339D01*
X219442811Y-90119811D01*
X219357217Y-90234018D01*
X219354065Y-90242426D01*
X219312629Y-90352961D01*
X219307119Y-90367658D01*
X219300500Y-90428585D01*
X215985270Y-90428585D01*
X215990531Y-90380153D01*
X215990531Y-90380152D01*
X215990900Y-90376756D01*
X215990900Y-89756244D01*
X215986303Y-89713932D01*
X215985051Y-89702403D01*
X215985051Y-89702402D01*
X215984198Y-89694552D01*
X215933471Y-89559236D01*
X215928091Y-89552057D01*
X215928089Y-89552054D01*
X215852185Y-89450776D01*
X215852184Y-89450775D01*
X215846804Y-89443596D01*
X215764698Y-89382061D01*
X215738346Y-89362311D01*
X215738343Y-89362309D01*
X215731164Y-89356929D01*
X215641446Y-89323296D01*
X215603243Y-89308974D01*
X215603241Y-89308974D01*
X215595848Y-89306202D01*
X215587998Y-89305349D01*
X215587997Y-89305349D01*
X215537553Y-89299869D01*
X215537552Y-89299869D01*
X215534156Y-89299500D01*
X214861113Y-89299500D01*
X214792992Y-89279498D01*
X214772018Y-89262595D01*
X214733018Y-89223595D01*
X214698992Y-89161283D01*
X214704057Y-89090468D01*
X214746604Y-89033632D01*
X214813124Y-89008821D01*
X214822113Y-89008500D01*
X215534156Y-89008500D01*
X215537553Y-89008131D01*
X215587997Y-89002651D01*
X215587998Y-89002651D01*
X215595848Y-89001798D01*
X215603241Y-88999026D01*
X215603243Y-88999026D01*
X215641446Y-88984704D01*
X215731164Y-88951071D01*
X215738343Y-88945691D01*
X215738346Y-88945689D01*
X215839624Y-88869785D01*
X215846804Y-88864404D01*
X215919855Y-88766932D01*
X215928089Y-88755946D01*
X215928091Y-88755943D01*
X215933471Y-88748764D01*
X215979783Y-88625225D01*
X215981426Y-88620843D01*
X215981426Y-88620841D01*
X215984198Y-88613448D01*
X215987038Y-88587311D01*
X215990531Y-88555153D01*
X215990531Y-88555152D01*
X215990900Y-88551756D01*
X215990900Y-87931244D01*
X215984198Y-87869552D01*
X215980503Y-87859694D01*
X215964842Y-87817920D01*
X215933471Y-87734236D01*
X215928091Y-87727057D01*
X215928089Y-87727054D01*
X215852185Y-87625776D01*
X215846804Y-87618596D01*
X215808672Y-87590018D01*
X215738346Y-87537311D01*
X215738343Y-87537309D01*
X215731164Y-87531929D01*
X215617695Y-87489392D01*
X215603243Y-87483974D01*
X215603241Y-87483974D01*
X215595848Y-87481202D01*
X215587998Y-87480349D01*
X215587997Y-87480349D01*
X215537553Y-87474869D01*
X215537552Y-87474869D01*
X215534156Y-87474500D01*
X214538644Y-87474500D01*
X214535248Y-87474869D01*
X214535247Y-87474869D01*
X214484803Y-87480349D01*
X214484802Y-87480349D01*
X214476952Y-87481202D01*
X214469559Y-87483974D01*
X214469557Y-87483974D01*
X214455105Y-87489392D01*
X214341636Y-87531929D01*
X214334457Y-87537309D01*
X214334454Y-87537311D01*
X214264128Y-87590018D01*
X214225996Y-87618596D01*
X214220615Y-87625776D01*
X214144711Y-87727054D01*
X214144709Y-87727057D01*
X214139329Y-87734236D01*
X214136179Y-87742640D01*
X214122837Y-87778229D01*
X214080196Y-87834994D01*
X214013635Y-87859694D01*
X214004855Y-87860000D01*
X209127112Y-87860000D01*
X209058991Y-87839998D01*
X209038017Y-87823095D01*
X206625198Y-85410276D01*
X206591172Y-85347964D01*
X206594980Y-85280680D01*
X206638928Y-85151214D01*
X206638929Y-85151209D01*
X206640784Y-85145745D01*
X206641612Y-85140036D01*
X206641613Y-85140031D01*
X206669379Y-84948527D01*
X206669912Y-84944853D01*
X206671432Y-84886800D01*
X206668764Y-84857764D01*
X206993348Y-84857764D01*
X207006624Y-85060322D01*
X207008045Y-85065918D01*
X207008046Y-85065923D01*
X207055171Y-85251474D01*
X207056592Y-85257069D01*
X207059009Y-85262312D01*
X207095064Y-85340521D01*
X207141577Y-85441416D01*
X207258733Y-85607189D01*
X207262875Y-85611224D01*
X207300736Y-85648106D01*
X207404138Y-85748835D01*
X207572920Y-85861612D01*
X207578223Y-85863890D01*
X207578226Y-85863892D01*
X207749801Y-85937606D01*
X207759428Y-85941742D01*
X207796971Y-85950237D01*
X207951779Y-85985267D01*
X207951784Y-85985268D01*
X207957416Y-85986542D01*
X207963187Y-85986769D01*
X207963189Y-85986769D01*
X208022956Y-85989117D01*
X208160253Y-85994512D01*
X208267548Y-85978955D01*
X208355431Y-85966213D01*
X208355436Y-85966212D01*
X208361145Y-85965384D01*
X208366609Y-85963529D01*
X208366614Y-85963528D01*
X208547893Y-85901992D01*
X208547898Y-85901990D01*
X208553365Y-85900134D01*
X208730476Y-85800947D01*
X208770169Y-85767935D01*
X208857896Y-85694972D01*
X208886545Y-85671145D01*
X208959037Y-85583983D01*
X209012653Y-85519518D01*
X209012655Y-85519515D01*
X209016347Y-85515076D01*
X209115534Y-85337965D01*
X209117390Y-85332498D01*
X209117392Y-85332493D01*
X209178928Y-85151214D01*
X209178929Y-85151209D01*
X209180784Y-85145745D01*
X209181612Y-85140036D01*
X209181613Y-85140031D01*
X209209379Y-84948527D01*
X209209912Y-84944853D01*
X209211432Y-84886800D01*
X209208764Y-84857764D01*
X209533348Y-84857764D01*
X209546624Y-85060322D01*
X209548045Y-85065918D01*
X209548046Y-85065923D01*
X209595171Y-85251474D01*
X209596592Y-85257069D01*
X209599009Y-85262312D01*
X209635064Y-85340521D01*
X209681577Y-85441416D01*
X209798733Y-85607189D01*
X209802875Y-85611224D01*
X209840736Y-85648106D01*
X209944138Y-85748835D01*
X210112920Y-85861612D01*
X210118223Y-85863890D01*
X210118226Y-85863892D01*
X210289801Y-85937606D01*
X210299428Y-85941742D01*
X210336971Y-85950237D01*
X210491779Y-85985267D01*
X210491784Y-85985268D01*
X210497416Y-85986542D01*
X210503187Y-85986769D01*
X210503189Y-85986769D01*
X210562956Y-85989117D01*
X210700253Y-85994512D01*
X210807548Y-85978955D01*
X210895431Y-85966213D01*
X210895436Y-85966212D01*
X210901145Y-85965384D01*
X210906609Y-85963529D01*
X210906614Y-85963528D01*
X211087893Y-85901992D01*
X211087898Y-85901990D01*
X211093365Y-85900134D01*
X211270476Y-85800947D01*
X211310169Y-85767935D01*
X211397896Y-85694972D01*
X211426545Y-85671145D01*
X211499037Y-85583983D01*
X211552653Y-85519518D01*
X211552655Y-85519515D01*
X211556347Y-85515076D01*
X211655534Y-85337965D01*
X211657390Y-85332498D01*
X211657392Y-85332493D01*
X211718928Y-85151214D01*
X211718929Y-85151209D01*
X211720784Y-85145745D01*
X211721612Y-85140036D01*
X211721613Y-85140031D01*
X211749379Y-84948527D01*
X211749912Y-84944853D01*
X211751432Y-84886800D01*
X211748764Y-84857764D01*
X212073348Y-84857764D01*
X212086624Y-85060322D01*
X212088045Y-85065918D01*
X212088046Y-85065923D01*
X212135171Y-85251474D01*
X212136592Y-85257069D01*
X212139009Y-85262312D01*
X212175064Y-85340521D01*
X212221577Y-85441416D01*
X212338733Y-85607189D01*
X212342875Y-85611224D01*
X212380736Y-85648106D01*
X212484138Y-85748835D01*
X212652920Y-85861612D01*
X212658223Y-85863890D01*
X212658226Y-85863892D01*
X212829801Y-85937606D01*
X212839428Y-85941742D01*
X212876971Y-85950237D01*
X213031779Y-85985267D01*
X213031784Y-85985268D01*
X213037416Y-85986542D01*
X213043187Y-85986769D01*
X213043189Y-85986769D01*
X213102956Y-85989117D01*
X213240253Y-85994512D01*
X213347548Y-85978955D01*
X213435431Y-85966213D01*
X213435436Y-85966212D01*
X213441145Y-85965384D01*
X213446609Y-85963529D01*
X213446614Y-85963528D01*
X213627893Y-85901992D01*
X213627898Y-85901990D01*
X213633365Y-85900134D01*
X213810476Y-85800947D01*
X213850169Y-85767935D01*
X213937896Y-85694972D01*
X213966545Y-85671145D01*
X214039037Y-85583983D01*
X214092653Y-85519518D01*
X214092655Y-85519515D01*
X214096347Y-85515076D01*
X214195534Y-85337965D01*
X214197390Y-85332498D01*
X214197392Y-85332493D01*
X214258928Y-85151214D01*
X214258929Y-85151209D01*
X214260784Y-85145745D01*
X214261612Y-85140036D01*
X214261613Y-85140031D01*
X214289379Y-84948527D01*
X214289912Y-84944853D01*
X214291432Y-84886800D01*
X214288764Y-84857764D01*
X214613348Y-84857764D01*
X214626624Y-85060322D01*
X214628045Y-85065918D01*
X214628046Y-85065923D01*
X214675171Y-85251474D01*
X214676592Y-85257069D01*
X214679009Y-85262312D01*
X214715064Y-85340521D01*
X214761577Y-85441416D01*
X214878733Y-85607189D01*
X214882875Y-85611224D01*
X214920736Y-85648106D01*
X215024138Y-85748835D01*
X215192920Y-85861612D01*
X215198223Y-85863890D01*
X215198226Y-85863892D01*
X215369801Y-85937606D01*
X215379428Y-85941742D01*
X215416971Y-85950237D01*
X215571779Y-85985267D01*
X215571784Y-85985268D01*
X215577416Y-85986542D01*
X215583187Y-85986769D01*
X215583189Y-85986769D01*
X215642956Y-85989117D01*
X215780253Y-85994512D01*
X215887548Y-85978955D01*
X215975431Y-85966213D01*
X215975436Y-85966212D01*
X215981145Y-85965384D01*
X215986609Y-85963529D01*
X215986614Y-85963528D01*
X216167893Y-85901992D01*
X216167898Y-85901990D01*
X216173365Y-85900134D01*
X216350476Y-85800947D01*
X216390169Y-85767935D01*
X216477896Y-85694972D01*
X216506545Y-85671145D01*
X216579037Y-85583983D01*
X216632653Y-85519518D01*
X216632655Y-85519515D01*
X216636347Y-85515076D01*
X216735534Y-85337965D01*
X216737390Y-85332498D01*
X216737392Y-85332493D01*
X216798928Y-85151214D01*
X216798929Y-85151209D01*
X216800784Y-85145745D01*
X216801612Y-85140036D01*
X216801613Y-85140031D01*
X216829379Y-84948527D01*
X216829912Y-84944853D01*
X216831432Y-84886800D01*
X216828764Y-84857764D01*
X217153348Y-84857764D01*
X217166624Y-85060322D01*
X217168045Y-85065918D01*
X217168046Y-85065923D01*
X217215171Y-85251474D01*
X217216592Y-85257069D01*
X217219009Y-85262312D01*
X217255064Y-85340521D01*
X217301577Y-85441416D01*
X217418733Y-85607189D01*
X217422875Y-85611224D01*
X217460736Y-85648106D01*
X217564138Y-85748835D01*
X217732920Y-85861612D01*
X217738223Y-85863890D01*
X217738226Y-85863892D01*
X217909801Y-85937606D01*
X217919428Y-85941742D01*
X217956971Y-85950237D01*
X218111779Y-85985267D01*
X218111784Y-85985268D01*
X218117416Y-85986542D01*
X218123187Y-85986769D01*
X218123189Y-85986769D01*
X218182956Y-85989117D01*
X218320253Y-85994512D01*
X218427548Y-85978955D01*
X218515431Y-85966213D01*
X218515436Y-85966212D01*
X218521145Y-85965384D01*
X218526609Y-85963529D01*
X218526614Y-85963528D01*
X218707893Y-85901992D01*
X218707898Y-85901990D01*
X218713365Y-85900134D01*
X218890476Y-85800947D01*
X218930169Y-85767935D01*
X219017896Y-85694972D01*
X219046545Y-85671145D01*
X219119037Y-85583983D01*
X219172653Y-85519518D01*
X219172655Y-85519515D01*
X219176347Y-85515076D01*
X219275534Y-85337965D01*
X219277390Y-85332498D01*
X219277392Y-85332493D01*
X219338928Y-85151214D01*
X219338929Y-85151209D01*
X219340784Y-85145745D01*
X219341612Y-85140036D01*
X219341613Y-85140031D01*
X219369379Y-84948527D01*
X219369912Y-84944853D01*
X219371432Y-84886800D01*
X219368764Y-84857764D01*
X219693348Y-84857764D01*
X219706624Y-85060322D01*
X219708045Y-85065918D01*
X219708046Y-85065923D01*
X219755171Y-85251474D01*
X219756592Y-85257069D01*
X219759009Y-85262312D01*
X219795064Y-85340521D01*
X219841577Y-85441416D01*
X219958733Y-85607189D01*
X219962875Y-85611224D01*
X220000736Y-85648106D01*
X220104138Y-85748835D01*
X220272920Y-85861612D01*
X220278223Y-85863890D01*
X220278226Y-85863892D01*
X220449801Y-85937606D01*
X220459428Y-85941742D01*
X220496971Y-85950237D01*
X220651779Y-85985267D01*
X220651784Y-85985268D01*
X220657416Y-85986542D01*
X220663187Y-85986769D01*
X220663189Y-85986769D01*
X220722956Y-85989117D01*
X220860253Y-85994512D01*
X220967548Y-85978955D01*
X221055431Y-85966213D01*
X221055436Y-85966212D01*
X221061145Y-85965384D01*
X221066609Y-85963529D01*
X221066614Y-85963528D01*
X221247893Y-85901992D01*
X221247898Y-85901990D01*
X221253365Y-85900134D01*
X221430476Y-85800947D01*
X221470169Y-85767935D01*
X221557896Y-85694972D01*
X221586545Y-85671145D01*
X221659037Y-85583983D01*
X221712653Y-85519518D01*
X221712655Y-85519515D01*
X221716347Y-85515076D01*
X221815534Y-85337965D01*
X221817390Y-85332498D01*
X221817392Y-85332493D01*
X221878928Y-85151214D01*
X221878929Y-85151209D01*
X221880784Y-85145745D01*
X221881612Y-85140036D01*
X221881613Y-85140031D01*
X221909379Y-84948527D01*
X221909912Y-84944853D01*
X221911432Y-84886800D01*
X221892858Y-84684659D01*
X221891290Y-84679099D01*
X221839325Y-84494846D01*
X221839324Y-84494844D01*
X221837757Y-84489287D01*
X221827178Y-84467833D01*
X221750531Y-84312409D01*
X221747976Y-84307228D01*
X221626520Y-84144579D01*
X221482809Y-84011733D01*
X222237700Y-84011733D01*
X222237701Y-85761866D01*
X222252466Y-85836101D01*
X222259361Y-85846420D01*
X222259362Y-85846422D01*
X222297672Y-85903756D01*
X222308716Y-85920284D01*
X222392899Y-85976534D01*
X222467133Y-85991300D01*
X223342058Y-85991300D01*
X224217266Y-85991299D01*
X224253018Y-85984188D01*
X224279326Y-85978956D01*
X224279328Y-85978955D01*
X224291501Y-85976534D01*
X224301821Y-85969639D01*
X224301822Y-85969638D01*
X224365368Y-85927177D01*
X224375684Y-85920284D01*
X224431934Y-85836101D01*
X224446700Y-85761867D01*
X224446699Y-84011734D01*
X224431934Y-83937499D01*
X224405854Y-83898467D01*
X224382577Y-83863632D01*
X224375684Y-83853316D01*
X224291501Y-83797066D01*
X224217267Y-83782300D01*
X223342342Y-83782300D01*
X222467134Y-83782301D01*
X222431382Y-83789412D01*
X222405074Y-83794644D01*
X222405072Y-83794645D01*
X222392899Y-83797066D01*
X222382579Y-83803961D01*
X222382578Y-83803962D01*
X222323038Y-83843746D01*
X222308716Y-83853316D01*
X222252466Y-83937499D01*
X222237700Y-84011733D01*
X221482809Y-84011733D01*
X221477458Y-84006787D01*
X221472575Y-84003706D01*
X221472571Y-84003703D01*
X221310664Y-83901548D01*
X221305781Y-83898467D01*
X221117239Y-83823246D01*
X221111579Y-83822120D01*
X221111575Y-83822119D01*
X220923813Y-83784771D01*
X220923810Y-83784771D01*
X220918146Y-83783644D01*
X220912371Y-83783568D01*
X220912367Y-83783568D01*
X220810993Y-83782241D01*
X220715171Y-83780987D01*
X220709474Y-83781966D01*
X220709473Y-83781966D01*
X220621597Y-83797066D01*
X220515110Y-83815364D01*
X220324663Y-83885624D01*
X220150210Y-83989412D01*
X220145870Y-83993218D01*
X220145866Y-83993221D01*
X220001933Y-84119448D01*
X219997592Y-84123255D01*
X219871920Y-84282669D01*
X219869231Y-84287780D01*
X219869229Y-84287783D01*
X219856273Y-84312409D01*
X219777403Y-84462315D01*
X219717207Y-84656178D01*
X219693348Y-84857764D01*
X219368764Y-84857764D01*
X219352858Y-84684659D01*
X219351290Y-84679099D01*
X219299325Y-84494846D01*
X219299324Y-84494844D01*
X219297757Y-84489287D01*
X219287178Y-84467833D01*
X219210531Y-84312409D01*
X219207976Y-84307228D01*
X219086520Y-84144579D01*
X218937458Y-84006787D01*
X218932575Y-84003706D01*
X218932571Y-84003703D01*
X218770664Y-83901548D01*
X218765781Y-83898467D01*
X218577239Y-83823246D01*
X218571579Y-83822120D01*
X218571575Y-83822119D01*
X218383813Y-83784771D01*
X218383810Y-83784771D01*
X218378146Y-83783644D01*
X218372371Y-83783568D01*
X218372367Y-83783568D01*
X218270993Y-83782241D01*
X218175171Y-83780987D01*
X218169474Y-83781966D01*
X218169473Y-83781966D01*
X218081597Y-83797066D01*
X217975110Y-83815364D01*
X217784663Y-83885624D01*
X217610210Y-83989412D01*
X217605870Y-83993218D01*
X217605866Y-83993221D01*
X217461933Y-84119448D01*
X217457592Y-84123255D01*
X217331920Y-84282669D01*
X217329231Y-84287780D01*
X217329229Y-84287783D01*
X217316273Y-84312409D01*
X217237403Y-84462315D01*
X217177207Y-84656178D01*
X217153348Y-84857764D01*
X216828764Y-84857764D01*
X216812858Y-84684659D01*
X216811290Y-84679099D01*
X216759325Y-84494846D01*
X216759324Y-84494844D01*
X216757757Y-84489287D01*
X216747178Y-84467833D01*
X216670531Y-84312409D01*
X216667976Y-84307228D01*
X216546520Y-84144579D01*
X216397458Y-84006787D01*
X216392575Y-84003706D01*
X216392571Y-84003703D01*
X216230664Y-83901548D01*
X216225781Y-83898467D01*
X216037239Y-83823246D01*
X216031579Y-83822120D01*
X216031575Y-83822119D01*
X215843813Y-83784771D01*
X215843810Y-83784771D01*
X215838146Y-83783644D01*
X215832371Y-83783568D01*
X215832367Y-83783568D01*
X215730993Y-83782241D01*
X215635171Y-83780987D01*
X215629474Y-83781966D01*
X215629473Y-83781966D01*
X215541597Y-83797066D01*
X215435110Y-83815364D01*
X215244663Y-83885624D01*
X215070210Y-83989412D01*
X215065870Y-83993218D01*
X215065866Y-83993221D01*
X214921933Y-84119448D01*
X214917592Y-84123255D01*
X214791920Y-84282669D01*
X214789231Y-84287780D01*
X214789229Y-84287783D01*
X214776273Y-84312409D01*
X214697403Y-84462315D01*
X214637207Y-84656178D01*
X214613348Y-84857764D01*
X214288764Y-84857764D01*
X214272858Y-84684659D01*
X214271290Y-84679099D01*
X214219325Y-84494846D01*
X214219324Y-84494844D01*
X214217757Y-84489287D01*
X214207178Y-84467833D01*
X214130531Y-84312409D01*
X214127976Y-84307228D01*
X214006520Y-84144579D01*
X213857458Y-84006787D01*
X213852575Y-84003706D01*
X213852571Y-84003703D01*
X213690664Y-83901548D01*
X213685781Y-83898467D01*
X213497239Y-83823246D01*
X213491579Y-83822120D01*
X213491575Y-83822119D01*
X213303813Y-83784771D01*
X213303810Y-83784771D01*
X213298146Y-83783644D01*
X213292371Y-83783568D01*
X213292367Y-83783568D01*
X213190993Y-83782241D01*
X213095171Y-83780987D01*
X213089474Y-83781966D01*
X213089473Y-83781966D01*
X213001597Y-83797066D01*
X212895110Y-83815364D01*
X212704663Y-83885624D01*
X212530210Y-83989412D01*
X212525870Y-83993218D01*
X212525866Y-83993221D01*
X212381933Y-84119448D01*
X212377592Y-84123255D01*
X212251920Y-84282669D01*
X212249231Y-84287780D01*
X212249229Y-84287783D01*
X212236273Y-84312409D01*
X212157403Y-84462315D01*
X212097207Y-84656178D01*
X212073348Y-84857764D01*
X211748764Y-84857764D01*
X211732858Y-84684659D01*
X211731290Y-84679099D01*
X211679325Y-84494846D01*
X211679324Y-84494844D01*
X211677757Y-84489287D01*
X211667178Y-84467833D01*
X211590531Y-84312409D01*
X211587976Y-84307228D01*
X211466520Y-84144579D01*
X211317458Y-84006787D01*
X211312575Y-84003706D01*
X211312571Y-84003703D01*
X211150664Y-83901548D01*
X211145781Y-83898467D01*
X210957239Y-83823246D01*
X210951579Y-83822120D01*
X210951575Y-83822119D01*
X210763813Y-83784771D01*
X210763810Y-83784771D01*
X210758146Y-83783644D01*
X210752371Y-83783568D01*
X210752367Y-83783568D01*
X210650993Y-83782241D01*
X210555171Y-83780987D01*
X210549474Y-83781966D01*
X210549473Y-83781966D01*
X210461597Y-83797066D01*
X210355110Y-83815364D01*
X210164663Y-83885624D01*
X209990210Y-83989412D01*
X209985870Y-83993218D01*
X209985866Y-83993221D01*
X209841933Y-84119448D01*
X209837592Y-84123255D01*
X209711920Y-84282669D01*
X209709231Y-84287780D01*
X209709229Y-84287783D01*
X209696273Y-84312409D01*
X209617403Y-84462315D01*
X209557207Y-84656178D01*
X209533348Y-84857764D01*
X209208764Y-84857764D01*
X209192858Y-84684659D01*
X209191290Y-84679099D01*
X209139325Y-84494846D01*
X209139324Y-84494844D01*
X209137757Y-84489287D01*
X209127178Y-84467833D01*
X209050531Y-84312409D01*
X209047976Y-84307228D01*
X208926520Y-84144579D01*
X208777458Y-84006787D01*
X208772575Y-84003706D01*
X208772571Y-84003703D01*
X208610664Y-83901548D01*
X208605781Y-83898467D01*
X208417239Y-83823246D01*
X208411579Y-83822120D01*
X208411575Y-83822119D01*
X208223813Y-83784771D01*
X208223810Y-83784771D01*
X208218146Y-83783644D01*
X208212371Y-83783568D01*
X208212367Y-83783568D01*
X208110993Y-83782241D01*
X208015171Y-83780987D01*
X208009474Y-83781966D01*
X208009473Y-83781966D01*
X207921597Y-83797066D01*
X207815110Y-83815364D01*
X207624663Y-83885624D01*
X207450210Y-83989412D01*
X207445870Y-83993218D01*
X207445866Y-83993221D01*
X207301933Y-84119448D01*
X207297592Y-84123255D01*
X207171920Y-84282669D01*
X207169231Y-84287780D01*
X207169229Y-84287783D01*
X207156273Y-84312409D01*
X207077403Y-84462315D01*
X207017207Y-84656178D01*
X206993348Y-84857764D01*
X206668764Y-84857764D01*
X206652858Y-84684659D01*
X206651290Y-84679099D01*
X206599325Y-84494846D01*
X206599324Y-84494844D01*
X206597757Y-84489287D01*
X206587178Y-84467833D01*
X206510531Y-84312409D01*
X206507976Y-84307228D01*
X206386520Y-84144579D01*
X206237458Y-84006787D01*
X206232575Y-84003706D01*
X206232571Y-84003703D01*
X206070664Y-83901548D01*
X206065781Y-83898467D01*
X205877239Y-83823246D01*
X205871579Y-83822120D01*
X205871575Y-83822119D01*
X205683813Y-83784771D01*
X205683810Y-83784771D01*
X205678146Y-83783644D01*
X205672371Y-83783568D01*
X205672367Y-83783568D01*
X205570993Y-83782241D01*
X205475171Y-83780987D01*
X205469474Y-83781966D01*
X205469473Y-83781966D01*
X205381597Y-83797066D01*
X205275110Y-83815364D01*
X205084663Y-83885624D01*
X204910210Y-83989412D01*
X204905870Y-83993218D01*
X204905866Y-83993221D01*
X204761933Y-84119448D01*
X204757592Y-84123255D01*
X204631920Y-84282669D01*
X204629231Y-84287780D01*
X204629229Y-84287783D01*
X204616273Y-84312409D01*
X204537403Y-84462315D01*
X204477207Y-84656178D01*
X204453348Y-84857764D01*
X204128764Y-84857764D01*
X204112858Y-84684659D01*
X204111290Y-84679099D01*
X204059325Y-84494846D01*
X204059324Y-84494844D01*
X204057757Y-84489287D01*
X204047178Y-84467833D01*
X203970531Y-84312409D01*
X203967976Y-84307228D01*
X203846520Y-84144579D01*
X203697458Y-84006787D01*
X203692575Y-84003706D01*
X203692571Y-84003703D01*
X203530664Y-83901548D01*
X203525781Y-83898467D01*
X203337239Y-83823246D01*
X203331579Y-83822120D01*
X203331575Y-83822119D01*
X203143813Y-83784771D01*
X203143810Y-83784771D01*
X203138146Y-83783644D01*
X203132371Y-83783568D01*
X203132367Y-83783568D01*
X203030993Y-83782241D01*
X202935171Y-83780987D01*
X202929474Y-83781966D01*
X202929473Y-83781966D01*
X202841597Y-83797066D01*
X202735110Y-83815364D01*
X202544663Y-83885624D01*
X202370210Y-83989412D01*
X202365870Y-83993218D01*
X202365866Y-83993221D01*
X202221933Y-84119448D01*
X202217592Y-84123255D01*
X202091920Y-84282669D01*
X202089231Y-84287780D01*
X202089229Y-84287783D01*
X202076273Y-84312409D01*
X201997403Y-84462315D01*
X201937207Y-84656178D01*
X201913348Y-84857764D01*
X201926624Y-85060322D01*
X201928045Y-85065918D01*
X201928046Y-85065923D01*
X201975171Y-85251474D01*
X201976592Y-85257069D01*
X201979009Y-85262312D01*
X202015064Y-85340521D01*
X202061577Y-85441416D01*
X202178733Y-85607189D01*
X202182875Y-85611224D01*
X202220736Y-85648106D01*
X202324138Y-85748835D01*
X202492920Y-85861612D01*
X202498227Y-85863892D01*
X202498229Y-85863893D01*
X202564437Y-85892338D01*
X202619130Y-85937606D01*
X202640700Y-86008106D01*
X202640700Y-87514700D01*
X202620698Y-87582821D01*
X202567042Y-87629314D01*
X202514700Y-87640700D01*
X202278244Y-87640700D01*
X202274848Y-87641069D01*
X202274847Y-87641069D01*
X202224403Y-87646549D01*
X202224402Y-87646549D01*
X202216552Y-87647402D01*
X202209159Y-87650174D01*
X202209157Y-87650174D01*
X202170954Y-87664496D01*
X202081236Y-87698129D01*
X202074057Y-87703509D01*
X202074054Y-87703511D01*
X201986023Y-87769487D01*
X201965596Y-87784796D01*
X201960215Y-87791976D01*
X201884311Y-87893254D01*
X201884309Y-87893257D01*
X201878929Y-87900436D01*
X201828202Y-88035752D01*
X201821500Y-88097444D01*
X201821500Y-89092956D01*
X201530500Y-89092956D01*
X201530500Y-88097444D01*
X201523798Y-88035752D01*
X201473071Y-87900436D01*
X201467691Y-87893257D01*
X201467689Y-87893254D01*
X201391785Y-87791976D01*
X201386404Y-87784796D01*
X201365977Y-87769487D01*
X201277946Y-87703511D01*
X201277943Y-87703509D01*
X201270764Y-87698129D01*
X201181046Y-87664496D01*
X201142843Y-87650174D01*
X201142841Y-87650174D01*
X201135448Y-87647402D01*
X201127598Y-87646549D01*
X201127597Y-87646549D01*
X201077153Y-87641069D01*
X201077152Y-87641069D01*
X201073756Y-87640700D01*
X200453244Y-87640700D01*
X200449848Y-87641069D01*
X200449847Y-87641069D01*
X200399403Y-87646549D01*
X200399402Y-87646549D01*
X200391552Y-87647402D01*
X200384159Y-87650174D01*
X200384157Y-87650174D01*
X200345954Y-87664496D01*
X200256236Y-87698129D01*
X200249057Y-87703509D01*
X200249054Y-87703511D01*
X200161023Y-87769487D01*
X200140596Y-87784796D01*
X200135215Y-87791976D01*
X200059311Y-87893254D01*
X200059309Y-87893257D01*
X200053929Y-87900436D01*
X200003202Y-88035752D01*
X199996500Y-88097444D01*
X199996500Y-88415288D01*
X199976498Y-88483409D01*
X199959595Y-88504383D01*
X198517009Y-89946969D01*
X198454697Y-89980995D01*
X198414306Y-89983137D01*
X198365812Y-89977869D01*
X198365811Y-89977869D01*
X198362415Y-89977500D01*
X198071543Y-89977500D01*
X197780586Y-89977501D01*
X197777192Y-89977870D01*
X197777186Y-89977870D01*
X197727517Y-89983265D01*
X197727514Y-89983266D01*
X197719658Y-89984119D01*
X197712256Y-89986894D01*
X197712255Y-89986894D01*
X197673349Y-90001479D01*
X197586018Y-90034217D01*
X197578835Y-90039601D01*
X197578834Y-90039601D01*
X197528481Y-90077339D01*
X197471811Y-90119811D01*
X197386217Y-90234018D01*
X197383065Y-90242426D01*
X197341629Y-90352961D01*
X197336119Y-90367658D01*
X197329500Y-90428585D01*
X196214637Y-90428585D01*
X200637507Y-86005715D01*
X200699819Y-85971689D01*
X200708521Y-85970114D01*
X200741145Y-85965384D01*
X200817512Y-85939461D01*
X200927893Y-85901992D01*
X200927898Y-85901990D01*
X200933365Y-85900134D01*
X201110476Y-85800947D01*
X201150169Y-85767935D01*
X201237896Y-85694972D01*
X201266545Y-85671145D01*
X201339037Y-85583983D01*
X201392653Y-85519518D01*
X201392655Y-85519515D01*
X201396347Y-85515076D01*
X201495534Y-85337965D01*
X201497390Y-85332498D01*
X201497392Y-85332493D01*
X201558928Y-85151214D01*
X201558929Y-85151209D01*
X201560784Y-85145745D01*
X201561612Y-85140036D01*
X201561613Y-85140031D01*
X201589379Y-84948527D01*
X201589912Y-84944853D01*
X201591432Y-84886800D01*
X201572858Y-84684659D01*
X201571290Y-84679099D01*
X201519325Y-84494846D01*
X201519324Y-84494844D01*
X201517757Y-84489287D01*
X201507178Y-84467833D01*
X201430531Y-84312409D01*
X201427976Y-84307228D01*
X201306520Y-84144579D01*
X201157458Y-84006787D01*
X201152575Y-84003706D01*
X201152571Y-84003703D01*
X200990664Y-83901548D01*
X200985781Y-83898467D01*
X200797239Y-83823246D01*
X200791579Y-83822120D01*
X200791575Y-83822119D01*
X200603813Y-83784771D01*
X200603810Y-83784771D01*
X200598146Y-83783644D01*
X200592371Y-83783568D01*
X200592367Y-83783568D01*
X200490993Y-83782241D01*
X200395171Y-83780987D01*
X200389474Y-83781966D01*
X200389473Y-83781966D01*
X200301597Y-83797066D01*
X200195110Y-83815364D01*
X200004663Y-83885624D01*
X199830210Y-83989412D01*
X199825870Y-83993218D01*
X199825866Y-83993221D01*
X199681933Y-84119448D01*
X199677592Y-84123255D01*
X199551920Y-84282669D01*
X199549231Y-84287780D01*
X199549229Y-84287783D01*
X199536273Y-84312409D01*
X199457403Y-84462315D01*
X199397207Y-84656178D01*
X199373348Y-84857764D01*
X199386624Y-85060322D01*
X199388045Y-85065918D01*
X199388046Y-85065923D01*
X199435171Y-85251474D01*
X199436592Y-85257069D01*
X199439009Y-85262312D01*
X199475064Y-85340521D01*
X199521577Y-85441416D01*
X199638733Y-85607189D01*
X199708503Y-85675155D01*
X199743339Y-85737014D01*
X199739202Y-85807890D01*
X199709675Y-85854502D01*
X194577795Y-90986382D01*
X194515483Y-91020408D01*
X194444668Y-91015343D01*
X194387832Y-90972796D01*
X194363021Y-90906276D01*
X194362700Y-90897287D01*
X194362699Y-88193923D01*
X194362699Y-88187734D01*
X194355368Y-88150875D01*
X194350356Y-88125674D01*
X194350355Y-88125672D01*
X194347934Y-88113499D01*
X194339490Y-88100861D01*
X194298577Y-88039632D01*
X194291684Y-88029316D01*
X194207501Y-87973066D01*
X194133267Y-87958300D01*
X192608447Y-87958300D01*
X191083134Y-87958301D01*
X191047382Y-87965412D01*
X191021074Y-87970644D01*
X191021072Y-87970645D01*
X191008899Y-87973066D01*
X190998579Y-87979961D01*
X190998578Y-87979962D01*
X190938185Y-88020316D01*
X190924716Y-88029316D01*
X190868466Y-88113499D01*
X190853700Y-88187733D01*
X190853701Y-91237866D01*
X190868466Y-91312101D01*
X190875361Y-91322421D01*
X190875362Y-91322422D01*
X190910367Y-91374809D01*
X190924716Y-91396284D01*
X190935032Y-91403177D01*
X190992235Y-91441399D01*
X191008899Y-91452534D01*
X191083133Y-91467300D01*
X191118932Y-91467300D01*
X191187053Y-91487302D01*
X191233546Y-91540958D01*
X191243650Y-91611232D01*
X191214156Y-91675812D01*
X191177811Y-91701119D01*
X191179315Y-91703867D01*
X191171438Y-91708179D01*
X191163036Y-91711329D01*
X191155857Y-91716709D01*
X191155854Y-91716711D01*
X191067823Y-91782687D01*
X191047396Y-91797996D01*
X191042015Y-91805176D01*
X190966111Y-91906454D01*
X190966109Y-91906457D01*
X190960729Y-91913636D01*
X190910002Y-92048952D01*
X190903300Y-92110644D01*
X190902631Y-92110571D01*
X190879992Y-92174646D01*
X190823904Y-92218173D01*
X190777828Y-92226900D01*
X189657716Y-92226900D01*
X189589595Y-92206898D01*
X189543102Y-92153242D01*
X189532998Y-92082968D01*
X189562492Y-92018388D01*
X189591413Y-91993755D01*
X189605155Y-91985251D01*
X189616550Y-91976220D01*
X189730051Y-91862521D01*
X189739063Y-91851110D01*
X189823365Y-91714346D01*
X189829509Y-91701168D01*
X189880227Y-91548260D01*
X189883093Y-91534894D01*
X189892672Y-91441399D01*
X189893000Y-91434984D01*
X189893000Y-91204115D01*
X189888525Y-91188876D01*
X189887135Y-91187671D01*
X189879452Y-91186000D01*
X188769500Y-91186000D01*
X188701379Y-91165998D01*
X188654886Y-91112342D01*
X188643500Y-91060000D01*
X188643500Y-90659885D01*
X189151500Y-90659885D01*
X189155975Y-90675124D01*
X189157365Y-90676329D01*
X189165048Y-90678000D01*
X189874884Y-90678000D01*
X189890123Y-90673525D01*
X189891328Y-90672135D01*
X189892999Y-90664452D01*
X189892999Y-90429067D01*
X189892662Y-90422548D01*
X189882834Y-90327830D01*
X189879942Y-90314436D01*
X189828964Y-90161635D01*
X189822790Y-90148457D01*
X189738256Y-90011851D01*
X189729220Y-90000450D01*
X189615521Y-89886949D01*
X189604110Y-89877937D01*
X189467346Y-89793635D01*
X189454168Y-89787491D01*
X189301260Y-89736773D01*
X189287894Y-89733907D01*
X189194399Y-89724328D01*
X189187984Y-89724000D01*
X189169615Y-89724000D01*
X189154376Y-89728475D01*
X189153171Y-89729865D01*
X189151500Y-89737548D01*
X189151500Y-90659885D01*
X188643500Y-90659885D01*
X188643500Y-89742116D01*
X188639025Y-89726877D01*
X188637635Y-89725672D01*
X188629952Y-89724001D01*
X188607067Y-89724001D01*
X188600548Y-89724338D01*
X188505830Y-89734166D01*
X188492436Y-89737058D01*
X188339635Y-89788036D01*
X188326457Y-89794210D01*
X188189851Y-89878744D01*
X188178450Y-89887780D01*
X188064949Y-90001479D01*
X188055937Y-90012890D01*
X187971635Y-90149654D01*
X187965491Y-90162831D01*
X187944134Y-90227221D01*
X187903704Y-90285581D01*
X187838140Y-90312818D01*
X187768258Y-90300285D01*
X187714020Y-90248061D01*
X187710935Y-90242425D01*
X187707783Y-90234018D01*
X187622189Y-90119811D01*
X187565519Y-90077339D01*
X187515166Y-90039601D01*
X187515165Y-90039601D01*
X187507982Y-90034217D01*
X187451091Y-90012890D01*
X187381740Y-89986892D01*
X187381738Y-89986891D01*
X187374342Y-89984119D01*
X187313415Y-89977500D01*
X187022543Y-89977500D01*
X186731586Y-89977501D01*
X186728192Y-89977870D01*
X186728186Y-89977870D01*
X186678517Y-89983265D01*
X186678514Y-89983266D01*
X186670658Y-89984119D01*
X186663256Y-89986894D01*
X186663255Y-89986894D01*
X186624349Y-90001479D01*
X186537018Y-90034217D01*
X186529835Y-90039601D01*
X186529834Y-90039601D01*
X186479481Y-90077339D01*
X186422811Y-90119811D01*
X186337217Y-90234018D01*
X186334065Y-90242426D01*
X186292629Y-90352961D01*
X186287119Y-90367658D01*
X186280500Y-90428585D01*
X185801500Y-90428585D01*
X185801500Y-89821412D01*
X185821502Y-89753291D01*
X185838405Y-89732317D01*
X187928718Y-87642005D01*
X187991030Y-87607979D01*
X188017813Y-87605100D01*
X195551265Y-87605100D01*
X195575564Y-87607686D01*
X195577002Y-87607754D01*
X195587180Y-87609945D01*
X195620741Y-87605973D01*
X195626720Y-87605621D01*
X195626712Y-87605528D01*
X195631890Y-87605100D01*
X195637092Y-87605100D01*
X195656246Y-87601912D01*
X195662104Y-87601078D01*
X195678718Y-87599112D01*
X195702967Y-87596242D01*
X195702968Y-87596242D01*
X195713307Y-87595018D01*
X195721606Y-87591033D01*
X195730683Y-87589522D01*
X195776051Y-87565042D01*
X195781314Y-87562361D01*
X195820650Y-87543473D01*
X195820654Y-87543470D01*
X195827798Y-87540040D01*
X195832092Y-87536430D01*
X195834024Y-87534498D01*
X195835973Y-87532711D01*
X195836026Y-87532682D01*
X195836145Y-87532812D01*
X195836713Y-87532311D01*
X195842457Y-87529212D01*
X195879267Y-87489391D01*
X195882696Y-87485826D01*
X197418286Y-85950237D01*
X197480598Y-85916211D01*
X197557120Y-85923565D01*
X197594117Y-85939461D01*
X197594125Y-85939463D01*
X197599428Y-85941742D01*
X197636971Y-85950237D01*
X197791779Y-85985267D01*
X197791784Y-85985268D01*
X197797416Y-85986542D01*
X197803187Y-85986769D01*
X197803189Y-85986769D01*
X197862956Y-85989117D01*
X198000253Y-85994512D01*
X198107548Y-85978955D01*
X198195431Y-85966213D01*
X198195436Y-85966212D01*
X198201145Y-85965384D01*
X198206609Y-85963529D01*
X198206614Y-85963528D01*
X198387893Y-85901992D01*
X198387898Y-85901990D01*
X198393365Y-85900134D01*
X198570476Y-85800947D01*
X198610169Y-85767935D01*
X198697896Y-85694972D01*
X198726545Y-85671145D01*
X198799037Y-85583983D01*
X198852653Y-85519518D01*
X198852655Y-85519515D01*
X198856347Y-85515076D01*
X198955534Y-85337965D01*
X198957390Y-85332498D01*
X198957392Y-85332493D01*
X199018928Y-85151214D01*
X199018929Y-85151209D01*
X199020784Y-85145745D01*
X199021612Y-85140036D01*
X199021613Y-85140031D01*
X199049379Y-84948527D01*
X199049912Y-84944853D01*
X199051432Y-84886800D01*
X199032858Y-84684659D01*
X199031290Y-84679099D01*
X198979325Y-84494846D01*
X198979324Y-84494844D01*
X198977757Y-84489287D01*
X198967178Y-84467833D01*
X198890531Y-84312409D01*
X198887976Y-84307228D01*
X198766520Y-84144579D01*
X198617458Y-84006787D01*
X198612575Y-84003706D01*
X198612571Y-84003703D01*
X198450664Y-83901548D01*
X198445781Y-83898467D01*
X198257239Y-83823246D01*
X198251579Y-83822120D01*
X198251575Y-83822119D01*
X198063813Y-83784771D01*
X198063810Y-83784771D01*
X198058146Y-83783644D01*
X198052371Y-83783568D01*
X198052367Y-83783568D01*
X197950993Y-83782241D01*
X197855171Y-83780987D01*
X197849474Y-83781966D01*
X197849473Y-83781966D01*
X197761597Y-83797066D01*
X197655110Y-83815364D01*
X197464663Y-83885624D01*
X197290210Y-83989412D01*
X197285870Y-83993218D01*
X197285866Y-83993221D01*
X197141933Y-84119448D01*
X197137592Y-84123255D01*
X197011920Y-84282669D01*
X197009231Y-84287780D01*
X197009229Y-84287783D01*
X196996273Y-84312409D01*
X196917403Y-84462315D01*
X196857207Y-84656178D01*
X196833348Y-84857764D01*
X196846624Y-85060322D01*
X196896592Y-85257069D01*
X196899009Y-85262312D01*
X196899011Y-85262317D01*
X196902683Y-85270283D01*
X196913036Y-85340521D01*
X196883773Y-85405206D01*
X196877352Y-85412126D01*
X196176398Y-86113079D01*
X195484282Y-86805195D01*
X195421970Y-86839221D01*
X195395187Y-86842100D01*
X187861736Y-86842100D01*
X187837446Y-86839515D01*
X187836001Y-86839447D01*
X187825820Y-86837255D01*
X187792256Y-86841227D01*
X187786279Y-86841580D01*
X187786287Y-86841672D01*
X187781111Y-86842100D01*
X187775908Y-86842100D01*
X187756736Y-86845291D01*
X187750897Y-86846122D01*
X187699692Y-86852182D01*
X187691393Y-86856167D01*
X187682317Y-86857678D01*
X187636963Y-86882150D01*
X187631673Y-86884845D01*
X187592348Y-86903728D01*
X187592345Y-86903730D01*
X187585202Y-86907160D01*
X187580908Y-86910770D01*
X187578978Y-86912700D01*
X187577027Y-86914489D01*
X187576974Y-86914518D01*
X187576855Y-86914388D01*
X187576287Y-86914889D01*
X187570543Y-86917988D01*
X187563476Y-86925633D01*
X187533734Y-86957808D01*
X187530304Y-86961374D01*
X185188521Y-89303156D01*
X185169505Y-89318515D01*
X185168444Y-89319481D01*
X185159696Y-89325129D01*
X185153250Y-89333306D01*
X185138771Y-89351672D01*
X185134794Y-89356147D01*
X185134865Y-89356208D01*
X185131512Y-89360165D01*
X185127829Y-89363848D01*
X185124803Y-89368083D01*
X185124801Y-89368085D01*
X185116547Y-89379636D01*
X185112984Y-89384382D01*
X185081066Y-89424870D01*
X185078015Y-89433557D01*
X185072666Y-89441043D01*
X185069683Y-89451019D01*
X185069682Y-89451020D01*
X185066125Y-89462914D01*
X185058520Y-89488346D01*
X185057902Y-89490411D01*
X185056072Y-89496043D01*
X185038984Y-89544702D01*
X185038500Y-89550291D01*
X185038500Y-89553002D01*
X185038385Y-89555669D01*
X185038366Y-89555732D01*
X185038192Y-89555725D01*
X185038145Y-89556471D01*
X185036275Y-89562724D01*
X185037183Y-89585840D01*
X185038403Y-89616878D01*
X185038500Y-89621825D01*
X185038500Y-101444265D01*
X185035914Y-101468564D01*
X185035846Y-101470002D01*
X185033655Y-101480180D01*
X185034879Y-101490520D01*
X185037627Y-101513742D01*
X185037979Y-101519720D01*
X185038072Y-101519712D01*
X185038500Y-101524890D01*
X185038500Y-101530092D01*
X185039354Y-101535222D01*
X185041686Y-101549232D01*
X185042522Y-101555104D01*
X185048582Y-101606307D01*
X185052567Y-101614606D01*
X185054078Y-101623683D01*
X185078558Y-101669051D01*
X185081239Y-101674314D01*
X185100127Y-101713650D01*
X185100130Y-101713654D01*
X185103560Y-101720798D01*
X185107170Y-101725092D01*
X185109102Y-101727024D01*
X185110889Y-101728973D01*
X185110918Y-101729026D01*
X185110788Y-101729145D01*
X185111289Y-101729713D01*
X185114388Y-101735457D01*
X185122033Y-101742524D01*
X185154208Y-101772266D01*
X185157774Y-101775696D01*
X186169995Y-102787918D01*
X186204021Y-102850230D01*
X186206900Y-102877013D01*
X186206900Y-104731388D01*
X186186898Y-104799509D01*
X186170000Y-104820478D01*
X186089056Y-104901422D01*
X186026748Y-104935445D01*
X185955932Y-104930381D01*
X185910869Y-104901420D01*
X185886923Y-104877474D01*
X185772755Y-104819302D01*
X185678034Y-104804300D01*
X185314366Y-104804300D01*
X185219645Y-104819302D01*
X185105477Y-104877474D01*
X185014874Y-104968077D01*
X184976450Y-105043487D01*
X184973467Y-105049342D01*
X184924718Y-105100957D01*
X184855803Y-105118023D01*
X184788602Y-105095122D01*
X184748933Y-105049342D01*
X184745950Y-105043487D01*
X184707526Y-104968077D01*
X184616923Y-104877474D01*
X184502755Y-104819302D01*
X184408034Y-104804300D01*
X184044366Y-104804300D01*
X183949645Y-104819302D01*
X183835477Y-104877474D01*
X183744874Y-104968077D01*
X183706450Y-105043487D01*
X183703467Y-105049342D01*
X183654718Y-105100957D01*
X183585803Y-105118023D01*
X183518602Y-105095122D01*
X183478933Y-105049342D01*
X183475950Y-105043487D01*
X183437526Y-104968077D01*
X183346923Y-104877474D01*
X183232755Y-104819302D01*
X183138034Y-104804300D01*
X182774366Y-104804300D01*
X182679645Y-104819302D01*
X182636423Y-104841325D01*
X182574314Y-104872971D01*
X182574313Y-104872972D01*
X182565477Y-104877474D01*
X182562709Y-104880242D01*
X182498983Y-104902980D01*
X182429831Y-104886901D01*
X182383333Y-104841325D01*
X182364289Y-104809123D01*
X182354649Y-104796696D01*
X182248304Y-104690351D01*
X182235878Y-104680711D01*
X182106421Y-104604152D01*
X182091990Y-104597907D01*
X181957595Y-104558861D01*
X181943494Y-104558901D01*
X181940200Y-104566170D01*
X181940200Y-107495678D01*
X181432200Y-107495678D01*
X181432200Y-104571922D01*
X181419129Y-104527406D01*
X181412404Y-104516942D01*
X181407300Y-104481442D01*
X181407300Y-90754765D01*
X181427302Y-90686644D01*
X181444205Y-90665670D01*
X185574159Y-86535716D01*
X185636471Y-86501690D01*
X185663254Y-86498811D01*
X186641535Y-86498811D01*
X186662937Y-86491857D01*
X186682163Y-86487241D01*
X186694602Y-86485271D01*
X186704395Y-86483720D01*
X186724448Y-86473503D01*
X186742709Y-86465939D01*
X186754686Y-86462047D01*
X186754688Y-86462046D01*
X186764121Y-86458981D01*
X186782330Y-86445751D01*
X186799185Y-86435421D01*
X186819240Y-86425203D01*
X187283411Y-85961032D01*
X187345723Y-85927006D01*
X187422242Y-85934359D01*
X187429801Y-85937606D01*
X187439428Y-85941742D01*
X187445057Y-85943016D01*
X187445058Y-85943016D01*
X187631779Y-85985267D01*
X187631784Y-85985268D01*
X187637416Y-85986542D01*
X187643187Y-85986769D01*
X187643189Y-85986769D01*
X187702956Y-85989117D01*
X187840253Y-85994512D01*
X187947548Y-85978955D01*
X188035431Y-85966213D01*
X188035436Y-85966212D01*
X188041145Y-85965384D01*
X188046609Y-85963529D01*
X188046614Y-85963528D01*
X188227893Y-85901992D01*
X188227898Y-85901990D01*
X188233365Y-85900134D01*
X188410476Y-85800947D01*
X188450169Y-85767935D01*
X188537896Y-85694972D01*
X188566545Y-85671145D01*
X188639037Y-85583983D01*
X188692653Y-85519518D01*
X188692655Y-85519515D01*
X188696347Y-85515076D01*
X188795534Y-85337965D01*
X188797390Y-85332498D01*
X188797392Y-85332493D01*
X188858928Y-85151214D01*
X188858929Y-85151209D01*
X188860784Y-85145745D01*
X188861612Y-85140036D01*
X188861613Y-85140031D01*
X188889379Y-84948527D01*
X188889912Y-84944853D01*
X188891432Y-84886800D01*
X188888764Y-84857764D01*
X189213348Y-84857764D01*
X189226624Y-85060322D01*
X189228045Y-85065918D01*
X189228046Y-85065923D01*
X189275171Y-85251474D01*
X189276592Y-85257069D01*
X189279009Y-85262312D01*
X189315064Y-85340521D01*
X189361577Y-85441416D01*
X189478733Y-85607189D01*
X189482875Y-85611224D01*
X189520736Y-85648106D01*
X189624138Y-85748835D01*
X189792920Y-85861612D01*
X189798223Y-85863890D01*
X189798226Y-85863892D01*
X189969801Y-85937606D01*
X189979428Y-85941742D01*
X190016971Y-85950237D01*
X190171779Y-85985267D01*
X190171784Y-85985268D01*
X190177416Y-85986542D01*
X190183187Y-85986769D01*
X190183189Y-85986769D01*
X190242956Y-85989117D01*
X190380253Y-85994512D01*
X190487548Y-85978955D01*
X190575431Y-85966213D01*
X190575436Y-85966212D01*
X190581145Y-85965384D01*
X190586609Y-85963529D01*
X190586614Y-85963528D01*
X190767893Y-85901992D01*
X190767898Y-85901990D01*
X190773365Y-85900134D01*
X190950476Y-85800947D01*
X190990169Y-85767935D01*
X191077896Y-85694972D01*
X191106545Y-85671145D01*
X191179037Y-85583983D01*
X191232653Y-85519518D01*
X191232655Y-85519515D01*
X191236347Y-85515076D01*
X191335534Y-85337965D01*
X191337920Y-85330935D01*
X191338370Y-85330296D01*
X191339741Y-85327216D01*
X191340346Y-85327485D01*
X191378753Y-85272859D01*
X191444505Y-85246078D01*
X191514298Y-85259095D01*
X191565973Y-85307780D01*
X191573977Y-85324029D01*
X191643970Y-85496403D01*
X191648613Y-85505594D01*
X191759894Y-85687188D01*
X191765977Y-85695499D01*
X191905413Y-85856467D01*
X191912780Y-85863683D01*
X192076634Y-85999716D01*
X192085081Y-86005631D01*
X192268956Y-86113079D01*
X192278242Y-86117529D01*
X192477201Y-86193503D01*
X192487099Y-86196379D01*
X192590450Y-86217406D01*
X192604499Y-86216210D01*
X192608200Y-86205865D01*
X192608200Y-83569902D01*
X192604282Y-83556558D01*
X192590006Y-83554571D01*
X192551524Y-83560460D01*
X192541488Y-83562851D01*
X192339068Y-83629012D01*
X192329559Y-83633009D01*
X192140663Y-83731342D01*
X192131938Y-83736836D01*
X191961633Y-83864705D01*
X191953926Y-83871548D01*
X191806790Y-84025517D01*
X191800304Y-84033527D01*
X191680298Y-84209449D01*
X191675200Y-84218423D01*
X191585538Y-84411583D01*
X191581977Y-84421264D01*
X191577491Y-84437440D01*
X191540013Y-84497739D01*
X191475884Y-84528203D01*
X191405466Y-84519160D01*
X191351115Y-84473482D01*
X191343067Y-84459498D01*
X191270531Y-84312409D01*
X191267976Y-84307228D01*
X191146520Y-84144579D01*
X190997458Y-84006787D01*
X190992575Y-84003706D01*
X190992571Y-84003703D01*
X190830664Y-83901548D01*
X190825781Y-83898467D01*
X190637239Y-83823246D01*
X190631579Y-83822120D01*
X190631575Y-83822119D01*
X190443813Y-83784771D01*
X190443810Y-83784771D01*
X190438146Y-83783644D01*
X190432371Y-83783568D01*
X190432367Y-83783568D01*
X190330993Y-83782241D01*
X190235171Y-83780987D01*
X190229474Y-83781966D01*
X190229473Y-83781966D01*
X190141597Y-83797066D01*
X190035110Y-83815364D01*
X189844663Y-83885624D01*
X189670210Y-83989412D01*
X189665870Y-83993218D01*
X189665866Y-83993221D01*
X189521933Y-84119448D01*
X189517592Y-84123255D01*
X189391920Y-84282669D01*
X189389231Y-84287780D01*
X189389229Y-84287783D01*
X189376273Y-84312409D01*
X189297403Y-84462315D01*
X189237207Y-84656178D01*
X189213348Y-84857764D01*
X188888764Y-84857764D01*
X188872858Y-84684659D01*
X188871290Y-84679099D01*
X188819325Y-84494846D01*
X188819324Y-84494844D01*
X188817757Y-84489287D01*
X188807178Y-84467833D01*
X188730531Y-84312409D01*
X188727976Y-84307228D01*
X188606520Y-84144579D01*
X188457458Y-84006787D01*
X188452575Y-84003706D01*
X188452571Y-84003703D01*
X188290664Y-83901548D01*
X188285781Y-83898467D01*
X188097239Y-83823246D01*
X188091579Y-83822120D01*
X188091575Y-83822119D01*
X187903813Y-83784771D01*
X187903810Y-83784771D01*
X187898146Y-83783644D01*
X187892371Y-83783568D01*
X187892367Y-83783568D01*
X187790993Y-83782241D01*
X187695171Y-83780987D01*
X187689474Y-83781966D01*
X187689473Y-83781966D01*
X187601597Y-83797066D01*
X187495110Y-83815364D01*
X187304663Y-83885624D01*
X187130210Y-83989412D01*
X187125870Y-83993218D01*
X187125866Y-83993221D01*
X186981933Y-84119448D01*
X186977592Y-84123255D01*
X186851920Y-84282669D01*
X186849231Y-84287780D01*
X186849229Y-84287783D01*
X186836273Y-84312409D01*
X186757403Y-84462315D01*
X186697207Y-84656178D01*
X186673348Y-84857764D01*
X186686624Y-85060322D01*
X186688045Y-85065918D01*
X186688046Y-85065923D01*
X186708319Y-85145745D01*
X186736592Y-85257069D01*
X186736691Y-85257283D01*
X186740478Y-85326374D01*
X186706915Y-85386642D01*
X186445451Y-85648106D01*
X186383139Y-85682132D01*
X186356356Y-85685011D01*
X186276155Y-85685011D01*
X186208034Y-85665009D01*
X186161541Y-85611353D01*
X186151437Y-85541079D01*
X186166219Y-85497449D01*
X186255534Y-85337965D01*
X186257390Y-85332498D01*
X186257392Y-85332493D01*
X186318928Y-85151214D01*
X186318929Y-85151209D01*
X186320784Y-85145745D01*
X186321612Y-85140036D01*
X186321613Y-85140031D01*
X186349379Y-84948527D01*
X186349912Y-84944853D01*
X186351432Y-84886800D01*
X186332858Y-84684659D01*
X186331290Y-84679099D01*
X186279325Y-84494846D01*
X186279324Y-84494844D01*
X186277757Y-84489287D01*
X186267178Y-84467833D01*
X186190531Y-84312409D01*
X186187976Y-84307228D01*
X186066520Y-84144579D01*
X185917458Y-84006787D01*
X185912575Y-84003706D01*
X185912571Y-84003703D01*
X185750664Y-83901548D01*
X185745781Y-83898467D01*
X185557239Y-83823246D01*
X185551579Y-83822120D01*
X185551575Y-83822119D01*
X185363813Y-83784771D01*
X185363810Y-83784771D01*
X185358146Y-83783644D01*
X185352371Y-83783568D01*
X185352367Y-83783568D01*
X185250993Y-83782241D01*
X185155171Y-83780987D01*
X185149474Y-83781966D01*
X185149473Y-83781966D01*
X185061597Y-83797066D01*
X184955110Y-83815364D01*
X184764663Y-83885624D01*
X184590210Y-83989412D01*
X184585870Y-83993218D01*
X184585866Y-83993221D01*
X184441933Y-84119448D01*
X184437592Y-84123255D01*
X184311920Y-84282669D01*
X184309231Y-84287780D01*
X184309229Y-84287783D01*
X184296273Y-84312409D01*
X184217403Y-84462315D01*
X184157207Y-84656178D01*
X184133348Y-84857764D01*
X184146624Y-85060322D01*
X184148045Y-85065918D01*
X184148046Y-85065923D01*
X184195171Y-85251474D01*
X184196592Y-85257069D01*
X184199009Y-85262312D01*
X184235064Y-85340521D01*
X184281577Y-85441416D01*
X184398733Y-85607189D01*
X184402875Y-85611224D01*
X184440736Y-85648106D01*
X184544138Y-85748835D01*
X184712920Y-85861612D01*
X184718223Y-85863890D01*
X184718226Y-85863892D01*
X184811013Y-85903756D01*
X184865706Y-85949024D01*
X184887243Y-86016675D01*
X184868786Y-86085231D01*
X184850370Y-86108619D01*
X180667108Y-90291881D01*
X180662605Y-90300719D01*
X180656892Y-90311932D01*
X180646560Y-90328791D01*
X180633330Y-90347000D01*
X180630265Y-90356433D01*
X180630264Y-90356435D01*
X180626372Y-90368412D01*
X180618808Y-90386673D01*
X180608591Y-90406726D01*
X180607040Y-90416519D01*
X180605070Y-90428958D01*
X180600454Y-90448184D01*
X180593500Y-90469586D01*
X180593500Y-110362446D01*
X180596565Y-110371879D01*
X180600454Y-110383848D01*
X180605070Y-110403074D01*
X180608591Y-110425306D01*
X180613092Y-110434139D01*
X180613092Y-110434140D01*
X180618808Y-110445358D01*
X180626372Y-110463620D01*
X180630264Y-110475597D01*
X180633330Y-110485032D01*
X180639161Y-110493057D01*
X180646560Y-110503241D01*
X180656890Y-110520096D01*
X180667108Y-110540151D01*
X181094795Y-110967838D01*
X181128821Y-111030150D01*
X181131700Y-111056933D01*
X181131700Y-111840634D01*
X181146702Y-111935355D01*
X181204874Y-112049523D01*
X181242395Y-112087044D01*
X181276421Y-112149356D01*
X181279300Y-112176139D01*
X181279300Y-115238246D01*
X181282365Y-115247679D01*
X181286254Y-115259648D01*
X181290870Y-115278874D01*
X181294391Y-115301106D01*
X181298892Y-115309939D01*
X181298892Y-115309940D01*
X181304608Y-115321158D01*
X181312172Y-115339420D01*
X181312196Y-115339493D01*
X181319130Y-115360832D01*
X181324961Y-115368857D01*
X181332360Y-115379041D01*
X181342690Y-115395896D01*
X181352908Y-115415951D01*
X181849795Y-115912838D01*
X181883821Y-115975150D01*
X181886700Y-116001933D01*
X181886700Y-116651556D01*
X181893402Y-116713248D01*
X181944129Y-116848564D01*
X181949509Y-116855743D01*
X181949511Y-116855746D01*
X181997199Y-116919376D01*
X182030796Y-116964204D01*
X182037976Y-116969585D01*
X182139254Y-117045489D01*
X182139257Y-117045491D01*
X182146436Y-117050871D01*
X182154838Y-117054021D01*
X182162715Y-117058333D01*
X182161755Y-117060086D01*
X182209292Y-117095794D01*
X182233994Y-117162355D01*
X182234300Y-117171137D01*
X182234300Y-121391946D01*
X182237365Y-121401379D01*
X182241254Y-121413348D01*
X182245870Y-121432574D01*
X182249391Y-121454806D01*
X182253892Y-121463639D01*
X182253892Y-121463640D01*
X182259608Y-121474858D01*
X182267172Y-121493120D01*
X182271064Y-121505097D01*
X182274130Y-121514532D01*
X182279961Y-121522557D01*
X182287360Y-121532741D01*
X182297690Y-121549596D01*
X182307908Y-121569651D01*
X182600754Y-121862497D01*
X182634780Y-121924809D01*
X182636669Y-121960418D01*
X182637253Y-121960450D01*
X182637069Y-121963847D01*
X182636700Y-121967244D01*
X182636700Y-122304288D01*
X182616698Y-122372409D01*
X182563042Y-122418902D01*
X182492768Y-122429006D01*
X182428188Y-122399512D01*
X182421605Y-122393383D01*
X181306685Y-121278462D01*
X180174686Y-120146463D01*
X180140660Y-120084151D01*
X180137781Y-120057368D01*
X180137781Y-79999756D01*
X183689700Y-79999756D01*
X183696402Y-80061448D01*
X183747129Y-80196764D01*
X183752509Y-80203943D01*
X183752511Y-80203946D01*
X183771146Y-80228810D01*
X183833796Y-80312404D01*
X183840975Y-80317784D01*
X183840976Y-80317785D01*
X183942254Y-80393689D01*
X183942257Y-80393691D01*
X183949436Y-80399071D01*
X184032396Y-80430171D01*
X184077357Y-80447026D01*
X184077359Y-80447026D01*
X184084752Y-80449798D01*
X184092602Y-80450651D01*
X184092603Y-80450651D01*
X184143047Y-80456131D01*
X184146444Y-80456500D01*
X184172067Y-80456500D01*
X184240188Y-80476502D01*
X184261162Y-80493405D01*
X185561322Y-81793566D01*
X185561326Y-81793569D01*
X185584249Y-81816492D01*
X185604305Y-81826711D01*
X185621148Y-81837033D01*
X185639368Y-81850270D01*
X185660777Y-81857226D01*
X185679040Y-81864791D01*
X185699094Y-81875009D01*
X185708886Y-81876560D01*
X185721330Y-81878531D01*
X185740549Y-81883145D01*
X185761953Y-81890099D01*
X185794372Y-81890099D01*
X185794376Y-81890100D01*
X186856046Y-81890100D01*
X186877448Y-81883146D01*
X186896674Y-81878530D01*
X186909113Y-81876560D01*
X186918906Y-81875009D01*
X186938959Y-81864792D01*
X186957220Y-81857228D01*
X186969197Y-81853336D01*
X186969199Y-81853335D01*
X186978632Y-81850270D01*
X186996844Y-81837038D01*
X187013696Y-81826710D01*
X187033751Y-81816492D01*
X188904438Y-79945805D01*
X188966750Y-79911779D01*
X188993533Y-79908900D01*
X190221577Y-79908900D01*
X190289698Y-79928902D01*
X190336191Y-79982558D01*
X190346840Y-80021291D01*
X190351202Y-80061448D01*
X190401929Y-80196764D01*
X190407309Y-80203943D01*
X190407311Y-80203946D01*
X190425946Y-80228810D01*
X190488596Y-80312404D01*
X190495775Y-80317784D01*
X190495776Y-80317785D01*
X190597054Y-80393689D01*
X190597057Y-80393691D01*
X190604236Y-80399071D01*
X190612640Y-80402221D01*
X190612641Y-80402222D01*
X190622828Y-80406041D01*
X190679593Y-80448682D01*
X190704294Y-80515243D01*
X190704600Y-80524023D01*
X190704600Y-80660546D01*
X190707665Y-80669979D01*
X190711554Y-80681948D01*
X190716170Y-80701174D01*
X190719691Y-80723406D01*
X190724192Y-80732239D01*
X190724192Y-80732240D01*
X190729908Y-80743458D01*
X190737472Y-80761720D01*
X190741364Y-80773697D01*
X190744430Y-80783132D01*
X190750261Y-80791157D01*
X190757660Y-80801341D01*
X190767990Y-80818196D01*
X190778208Y-80838251D01*
X193290684Y-83350727D01*
X193324710Y-83413039D01*
X193319645Y-83483854D01*
X193277098Y-83540690D01*
X193210578Y-83565501D01*
X193179493Y-83563869D01*
X193134038Y-83555772D01*
X193120740Y-83557232D01*
X193116200Y-83571789D01*
X193116200Y-86205317D01*
X193120264Y-86219159D01*
X193133678Y-86221193D01*
X193140384Y-86220334D01*
X193150462Y-86218192D01*
X193354455Y-86156991D01*
X193364042Y-86153233D01*
X193555295Y-86059539D01*
X193564145Y-86054264D01*
X193737528Y-85930592D01*
X193745400Y-85923939D01*
X193896252Y-85773612D01*
X193902930Y-85765765D01*
X194027203Y-85592820D01*
X194032513Y-85583983D01*
X194126870Y-85393067D01*
X194130669Y-85383472D01*
X194147266Y-85328847D01*
X194186207Y-85269483D01*
X194251062Y-85240596D01*
X194321238Y-85251358D01*
X194374456Y-85298351D01*
X194382248Y-85312722D01*
X194441577Y-85441416D01*
X194558733Y-85607189D01*
X194562875Y-85611224D01*
X194600736Y-85648106D01*
X194704138Y-85748835D01*
X194872920Y-85861612D01*
X194878223Y-85863890D01*
X194878226Y-85863892D01*
X195049801Y-85937606D01*
X195059428Y-85941742D01*
X195096971Y-85950237D01*
X195251779Y-85985267D01*
X195251784Y-85985268D01*
X195257416Y-85986542D01*
X195263187Y-85986769D01*
X195263189Y-85986769D01*
X195322956Y-85989117D01*
X195460253Y-85994512D01*
X195567548Y-85978955D01*
X195655431Y-85966213D01*
X195655436Y-85966212D01*
X195661145Y-85965384D01*
X195666609Y-85963529D01*
X195666614Y-85963528D01*
X195847893Y-85901992D01*
X195847898Y-85901990D01*
X195853365Y-85900134D01*
X196030476Y-85800947D01*
X196070169Y-85767935D01*
X196157896Y-85694972D01*
X196186545Y-85671145D01*
X196259037Y-85583983D01*
X196312653Y-85519518D01*
X196312655Y-85519515D01*
X196316347Y-85515076D01*
X196415534Y-85337965D01*
X196417390Y-85332498D01*
X196417392Y-85332493D01*
X196478928Y-85151214D01*
X196478929Y-85151209D01*
X196480784Y-85145745D01*
X196481612Y-85140036D01*
X196481613Y-85140031D01*
X196509379Y-84948527D01*
X196509912Y-84944853D01*
X196511432Y-84886800D01*
X196492858Y-84684659D01*
X196491290Y-84679099D01*
X196439325Y-84494846D01*
X196439324Y-84494844D01*
X196437757Y-84489287D01*
X196427178Y-84467833D01*
X196350531Y-84312409D01*
X196347976Y-84307228D01*
X196226520Y-84144579D01*
X196077458Y-84006787D01*
X196072575Y-84003706D01*
X196072571Y-84003703D01*
X195910664Y-83901548D01*
X195905781Y-83898467D01*
X195717239Y-83823246D01*
X195711579Y-83822120D01*
X195711575Y-83822119D01*
X195523813Y-83784771D01*
X195523810Y-83784771D01*
X195518146Y-83783644D01*
X195512371Y-83783568D01*
X195512367Y-83783568D01*
X195410993Y-83782241D01*
X195315171Y-83780987D01*
X195309474Y-83781966D01*
X195309473Y-83781966D01*
X195221597Y-83797066D01*
X195115110Y-83815364D01*
X195038178Y-83843746D01*
X194967345Y-83848558D01*
X194905472Y-83814629D01*
X191647876Y-80557033D01*
X191613850Y-80494721D01*
X191618915Y-80423906D01*
X191661405Y-80367113D01*
X191734404Y-80312404D01*
X191772589Y-80261454D01*
X191829446Y-80218941D01*
X191900264Y-80213915D01*
X191962558Y-80247975D01*
X191982287Y-80276115D01*
X191982906Y-80275732D01*
X192072063Y-80419807D01*
X192081099Y-80431208D01*
X192195829Y-80545739D01*
X192207240Y-80554751D01*
X192345243Y-80639816D01*
X192358424Y-80645963D01*
X192512710Y-80697138D01*
X192526086Y-80700005D01*
X192620438Y-80709672D01*
X192626854Y-80710000D01*
X192664385Y-80710000D01*
X192679624Y-80705525D01*
X192680829Y-80704135D01*
X192682500Y-80696452D01*
X192682500Y-80691884D01*
X193190500Y-80691884D01*
X193194975Y-80707123D01*
X193196365Y-80708328D01*
X193204048Y-80709999D01*
X193246095Y-80709999D01*
X193252614Y-80709662D01*
X193348206Y-80699743D01*
X193361600Y-80696851D01*
X193515784Y-80645412D01*
X193528962Y-80639239D01*
X193666807Y-80553937D01*
X193678208Y-80544901D01*
X193792739Y-80430171D01*
X193801751Y-80418760D01*
X193886816Y-80280757D01*
X193892963Y-80267576D01*
X193944138Y-80113290D01*
X193947005Y-80099914D01*
X193956672Y-80005562D01*
X193957000Y-79999146D01*
X193957000Y-79774115D01*
X193952525Y-79758876D01*
X193951135Y-79757671D01*
X193943452Y-79756000D01*
X193208615Y-79756000D01*
X193193376Y-79760475D01*
X193192171Y-79761865D01*
X193190500Y-79769548D01*
X193190500Y-80691884D01*
X192682500Y-80691884D01*
X192682500Y-79229885D01*
X193190500Y-79229885D01*
X193194975Y-79245124D01*
X193196365Y-79246329D01*
X193204048Y-79248000D01*
X193938884Y-79248000D01*
X193954123Y-79243525D01*
X193955328Y-79242135D01*
X193956999Y-79234452D01*
X193956999Y-79004905D01*
X193956662Y-78998386D01*
X193946743Y-78902794D01*
X193943851Y-78889400D01*
X193892412Y-78735216D01*
X193886239Y-78722038D01*
X193800937Y-78584193D01*
X193791901Y-78572792D01*
X193677171Y-78458261D01*
X193665760Y-78449249D01*
X193527757Y-78364184D01*
X193514576Y-78358037D01*
X193360290Y-78306862D01*
X193346914Y-78303995D01*
X193252562Y-78294328D01*
X193246145Y-78294000D01*
X193208615Y-78294000D01*
X193193376Y-78298475D01*
X193192171Y-78299865D01*
X193190500Y-78307548D01*
X193190500Y-79229885D01*
X192682500Y-79229885D01*
X192682500Y-78312116D01*
X192678025Y-78296877D01*
X192676635Y-78295672D01*
X192668952Y-78294001D01*
X192626905Y-78294001D01*
X192620386Y-78294338D01*
X192524794Y-78304257D01*
X192511400Y-78307149D01*
X192357216Y-78358588D01*
X192344038Y-78364761D01*
X192206193Y-78450063D01*
X192194792Y-78459099D01*
X192080261Y-78573829D01*
X192071249Y-78585240D01*
X191982342Y-78729475D01*
X191980464Y-78728317D01*
X191940668Y-78773505D01*
X191872389Y-78792959D01*
X191804431Y-78772410D01*
X191772578Y-78742532D01*
X191734404Y-78691596D01*
X191626797Y-78610949D01*
X191625946Y-78610311D01*
X191625943Y-78610309D01*
X191618764Y-78604929D01*
X191610359Y-78601778D01*
X191600172Y-78597959D01*
X191543407Y-78555318D01*
X191518706Y-78488757D01*
X191518400Y-78479977D01*
X191518400Y-77318033D01*
X191538402Y-77249912D01*
X191555305Y-77228938D01*
X192588472Y-76195771D01*
X192650784Y-76161745D01*
X192691173Y-76159603D01*
X192727044Y-76163500D01*
X193322556Y-76163500D01*
X193338711Y-76161745D01*
X193376397Y-76157651D01*
X193376398Y-76157651D01*
X193384248Y-76156798D01*
X193391641Y-76154026D01*
X193391643Y-76154026D01*
X193444518Y-76134204D01*
X193519564Y-76106071D01*
X193526743Y-76100691D01*
X193526746Y-76100689D01*
X193628024Y-76024785D01*
X193635204Y-76019404D01*
X193683227Y-75955327D01*
X193716489Y-75910946D01*
X193716491Y-75910943D01*
X193721871Y-75903764D01*
X193772598Y-75768448D01*
X193779300Y-75706756D01*
X193779300Y-74661244D01*
X193772598Y-74599552D01*
X193721871Y-74464236D01*
X193716491Y-74457057D01*
X193716489Y-74457054D01*
X193640585Y-74355776D01*
X193635204Y-74348596D01*
X193563487Y-74294847D01*
X193526746Y-74267311D01*
X193526743Y-74267309D01*
X193519564Y-74261929D01*
X193429846Y-74228296D01*
X193391643Y-74213974D01*
X193391641Y-74213974D01*
X193384248Y-74211202D01*
X193376398Y-74210349D01*
X193376397Y-74210349D01*
X193325953Y-74204869D01*
X193325952Y-74204869D01*
X193322556Y-74204500D01*
X192727044Y-74204500D01*
X192723648Y-74204869D01*
X192723647Y-74204869D01*
X192673203Y-74210349D01*
X192673202Y-74210349D01*
X192665352Y-74211202D01*
X192657959Y-74213974D01*
X192657957Y-74213974D01*
X192619754Y-74228296D01*
X192530036Y-74261929D01*
X192522857Y-74267309D01*
X192522854Y-74267311D01*
X192486113Y-74294847D01*
X192414396Y-74348596D01*
X192327729Y-74464236D01*
X192324579Y-74472640D01*
X192320619Y-74479874D01*
X192270362Y-74530021D01*
X192200971Y-74545036D01*
X192134478Y-74520152D01*
X192090574Y-74459243D01*
X192068212Y-74392216D01*
X192062039Y-74379038D01*
X191976737Y-74241193D01*
X191967701Y-74229792D01*
X191852971Y-74115261D01*
X191841560Y-74106249D01*
X191703557Y-74021184D01*
X191690376Y-74015037D01*
X191536090Y-73963862D01*
X191522714Y-73960995D01*
X191428362Y-73951328D01*
X191421945Y-73951000D01*
X191396915Y-73951000D01*
X191381676Y-73955475D01*
X191380471Y-73956865D01*
X191378800Y-73964548D01*
X191378800Y-75312000D01*
X191358798Y-75380121D01*
X191305142Y-75426614D01*
X191252800Y-75438000D01*
X190134916Y-75438000D01*
X190119677Y-75442475D01*
X190118472Y-75443865D01*
X190116801Y-75451548D01*
X190116801Y-75706095D01*
X190117138Y-75712614D01*
X190127057Y-75808206D01*
X190129949Y-75821600D01*
X190181388Y-75975784D01*
X190187561Y-75988962D01*
X190272863Y-76126807D01*
X190281899Y-76138208D01*
X190396629Y-76252739D01*
X190408040Y-76261751D01*
X190546043Y-76346816D01*
X190559224Y-76352963D01*
X190713510Y-76404138D01*
X190726886Y-76407005D01*
X190821238Y-76416672D01*
X190827654Y-76417000D01*
X190912167Y-76417000D01*
X190980288Y-76437002D01*
X191026781Y-76490658D01*
X191036885Y-76560932D01*
X191007391Y-76625512D01*
X191001262Y-76632095D01*
X190778208Y-76855149D01*
X190773705Y-76863987D01*
X190767992Y-76875200D01*
X190757660Y-76892059D01*
X190744430Y-76910268D01*
X190741365Y-76919701D01*
X190741364Y-76919703D01*
X190737472Y-76931680D01*
X190729908Y-76949942D01*
X190724591Y-76960378D01*
X190719691Y-76969994D01*
X190718140Y-76979787D01*
X190716170Y-76992226D01*
X190711554Y-77011452D01*
X190704600Y-77032854D01*
X190704600Y-78479977D01*
X190684598Y-78548098D01*
X190630942Y-78594591D01*
X190622828Y-78597959D01*
X190612641Y-78601778D01*
X190604236Y-78604929D01*
X190597057Y-78610309D01*
X190597054Y-78610311D01*
X190596203Y-78610949D01*
X190488596Y-78691596D01*
X190483215Y-78698776D01*
X190407311Y-78800054D01*
X190407309Y-78800057D01*
X190401929Y-78807236D01*
X190351202Y-78942552D01*
X190350349Y-78950402D01*
X190350349Y-78950403D01*
X190346840Y-78982707D01*
X190319599Y-79048269D01*
X190261236Y-79088696D01*
X190221577Y-79095100D01*
X188708354Y-79095100D01*
X188698921Y-79098165D01*
X188686952Y-79102054D01*
X188667726Y-79106670D01*
X188645494Y-79110191D01*
X188636661Y-79114692D01*
X188636660Y-79114692D01*
X188625442Y-79120408D01*
X188607180Y-79127972D01*
X188595203Y-79131864D01*
X188595201Y-79131865D01*
X188585768Y-79134930D01*
X188577743Y-79140761D01*
X188567559Y-79148160D01*
X188550704Y-79158490D01*
X188530649Y-79168708D01*
X186659962Y-81039395D01*
X186597650Y-81073421D01*
X186570867Y-81076300D01*
X186047135Y-81076300D01*
X185979014Y-81056298D01*
X185958040Y-81039396D01*
X185588623Y-80669979D01*
X185209766Y-80291123D01*
X185175741Y-80228810D01*
X185180879Y-80157799D01*
X185214225Y-80068846D01*
X185214226Y-80068843D01*
X185216998Y-80061448D01*
X185223700Y-79999756D01*
X185514700Y-79999756D01*
X185521402Y-80061448D01*
X185572129Y-80196764D01*
X185577509Y-80203943D01*
X185577511Y-80203946D01*
X185596146Y-80228810D01*
X185658796Y-80312404D01*
X185665975Y-80317784D01*
X185665976Y-80317785D01*
X185767254Y-80393689D01*
X185767257Y-80393691D01*
X185774436Y-80399071D01*
X185857396Y-80430171D01*
X185902357Y-80447026D01*
X185902359Y-80447026D01*
X185909752Y-80449798D01*
X185917602Y-80450651D01*
X185917603Y-80450651D01*
X185968047Y-80456131D01*
X185971444Y-80456500D01*
X186591956Y-80456500D01*
X186595353Y-80456131D01*
X186645797Y-80450651D01*
X186645798Y-80450651D01*
X186653648Y-80449798D01*
X186661041Y-80447026D01*
X186661043Y-80447026D01*
X186706004Y-80430171D01*
X186788964Y-80399071D01*
X186796143Y-80393691D01*
X186796146Y-80393689D01*
X186897424Y-80317785D01*
X186897425Y-80317784D01*
X186904604Y-80312404D01*
X186967254Y-80228810D01*
X186985889Y-80203946D01*
X186985891Y-80203943D01*
X186991271Y-80196764D01*
X187041998Y-80061448D01*
X187048700Y-79999756D01*
X187048700Y-79004244D01*
X187041998Y-78942552D01*
X186991271Y-78807236D01*
X186985891Y-78800057D01*
X186985889Y-78800054D01*
X186909985Y-78698776D01*
X186904604Y-78691596D01*
X186840635Y-78643654D01*
X186798120Y-78586795D01*
X186790200Y-78542828D01*
X186790200Y-76007517D01*
X186810202Y-75939396D01*
X186827105Y-75918422D01*
X187833642Y-74911885D01*
X190116800Y-74911885D01*
X190121275Y-74927124D01*
X190122665Y-74928329D01*
X190130348Y-74930000D01*
X190852685Y-74930000D01*
X190867924Y-74925525D01*
X190869129Y-74924135D01*
X190870800Y-74916452D01*
X190870800Y-73969116D01*
X190866325Y-73953877D01*
X190864935Y-73952672D01*
X190857252Y-73951001D01*
X190827705Y-73951001D01*
X190821186Y-73951338D01*
X190725594Y-73961257D01*
X190712200Y-73964149D01*
X190558016Y-74015588D01*
X190544838Y-74021761D01*
X190406993Y-74107063D01*
X190395592Y-74116099D01*
X190281061Y-74230829D01*
X190272049Y-74242240D01*
X190186984Y-74380243D01*
X190180837Y-74393424D01*
X190129662Y-74547710D01*
X190126795Y-74561086D01*
X190117128Y-74655438D01*
X190116800Y-74661855D01*
X190116800Y-74911885D01*
X187833642Y-74911885D01*
X191283323Y-71462205D01*
X191345635Y-71428179D01*
X191372418Y-71425300D01*
X201343983Y-71425300D01*
X201412104Y-71445302D01*
X201433074Y-71462201D01*
X202246215Y-72275342D01*
X202280240Y-72337654D01*
X202275175Y-72408470D01*
X202232628Y-72465305D01*
X202166108Y-72490116D01*
X202132540Y-72488016D01*
X202031127Y-72467844D01*
X201982111Y-72458094D01*
X201982109Y-72458094D01*
X201976444Y-72456967D01*
X201970669Y-72456891D01*
X201970665Y-72456891D01*
X201859341Y-72455434D01*
X201755091Y-72454069D01*
X201749394Y-72455048D01*
X201749393Y-72455048D01*
X201620697Y-72477162D01*
X201536917Y-72491558D01*
X201329228Y-72568179D01*
X201324267Y-72571131D01*
X201324266Y-72571131D01*
X201237298Y-72622872D01*
X201138980Y-72681365D01*
X200972544Y-72827325D01*
X200968977Y-72831850D01*
X200968972Y-72831855D01*
X200874735Y-72951395D01*
X200835494Y-73001172D01*
X200832805Y-73006283D01*
X200832803Y-73006286D01*
X200821403Y-73027954D01*
X200732420Y-73197083D01*
X200666774Y-73408498D01*
X200640755Y-73628335D01*
X200655233Y-73849233D01*
X200709724Y-74063793D01*
X200802404Y-74264830D01*
X200930167Y-74445611D01*
X201088736Y-74600082D01*
X201093532Y-74603287D01*
X201093535Y-74603289D01*
X201185385Y-74664661D01*
X201272800Y-74723070D01*
X201278103Y-74725348D01*
X201278106Y-74725350D01*
X201452738Y-74800377D01*
X201476195Y-74810455D01*
X201555673Y-74828439D01*
X201686471Y-74858036D01*
X201686476Y-74858037D01*
X201692108Y-74859311D01*
X201697879Y-74859538D01*
X201697881Y-74859538D01*
X201765501Y-74862195D01*
X201913309Y-74868002D01*
X202041908Y-74849356D01*
X202126668Y-74837067D01*
X202126672Y-74837066D01*
X202132390Y-74836237D01*
X202137862Y-74834379D01*
X202137864Y-74834379D01*
X202336545Y-74766935D01*
X202342013Y-74765079D01*
X202535159Y-74656912D01*
X202705359Y-74515359D01*
X202846912Y-74345159D01*
X202937379Y-74183619D01*
X202952256Y-74157054D01*
X202952256Y-74157053D01*
X202955079Y-74152013D01*
X202956934Y-74146550D01*
X202956937Y-74146542D01*
X202978797Y-74082143D01*
X203019634Y-74024067D01*
X203085387Y-73997288D01*
X203155179Y-74010309D01*
X203206852Y-74058996D01*
X203212533Y-74069887D01*
X203302404Y-74264830D01*
X203430167Y-74445611D01*
X203588736Y-74600082D01*
X203593532Y-74603287D01*
X203593535Y-74603289D01*
X203685385Y-74664661D01*
X203772800Y-74723070D01*
X203778103Y-74725348D01*
X203778106Y-74725350D01*
X203952738Y-74800377D01*
X203976195Y-74810455D01*
X204055673Y-74828439D01*
X204186471Y-74858036D01*
X204186476Y-74858037D01*
X204192108Y-74859311D01*
X204197879Y-74859538D01*
X204197881Y-74859538D01*
X204265501Y-74862195D01*
X204413309Y-74868002D01*
X204541908Y-74849356D01*
X204626668Y-74837067D01*
X204626672Y-74837066D01*
X204632390Y-74836237D01*
X204637862Y-74834379D01*
X204637864Y-74834379D01*
X204836545Y-74766935D01*
X204842013Y-74765079D01*
X205035159Y-74656912D01*
X205205359Y-74515359D01*
X205346912Y-74345159D01*
X205409568Y-74233279D01*
X205460304Y-74183619D01*
X205529835Y-74169272D01*
X205596086Y-74194793D01*
X205638022Y-74252082D01*
X205645501Y-74294846D01*
X205645501Y-74635066D01*
X205660266Y-74709301D01*
X205667161Y-74719620D01*
X205667162Y-74719622D01*
X205695650Y-74762256D01*
X205716516Y-74793484D01*
X205800699Y-74849734D01*
X205874933Y-74864500D01*
X206849842Y-74864500D01*
X207825066Y-74864499D01*
X207860818Y-74857388D01*
X207887126Y-74852156D01*
X207887128Y-74852155D01*
X207899301Y-74849734D01*
X207909621Y-74842839D01*
X207909622Y-74842838D01*
X207973168Y-74800377D01*
X207983484Y-74793484D01*
X208039734Y-74709301D01*
X208054500Y-74635067D01*
X208054499Y-72684934D01*
X208039734Y-72610699D01*
X208020682Y-72582185D01*
X207990377Y-72536832D01*
X207983484Y-72526516D01*
X207899301Y-72470266D01*
X207825067Y-72455500D01*
X206850158Y-72455500D01*
X205874934Y-72455501D01*
X205839182Y-72462612D01*
X205812874Y-72467844D01*
X205812872Y-72467845D01*
X205800699Y-72470266D01*
X205790379Y-72477161D01*
X205790378Y-72477162D01*
X205729985Y-72517516D01*
X205716516Y-72526516D01*
X205660266Y-72610699D01*
X205645500Y-72684933D01*
X205645500Y-73023102D01*
X205625498Y-73091223D01*
X205571842Y-73137716D01*
X205501568Y-73147820D01*
X205436988Y-73118326D01*
X205406494Y-73078830D01*
X205383960Y-73033134D01*
X205383957Y-73033130D01*
X205381405Y-73027954D01*
X205248953Y-72850579D01*
X205244717Y-72846663D01*
X205090634Y-72704231D01*
X205090632Y-72704229D01*
X205086394Y-72700312D01*
X204899174Y-72582185D01*
X204693562Y-72500154D01*
X204687905Y-72499029D01*
X204687899Y-72499027D01*
X204482111Y-72458094D01*
X204482109Y-72458094D01*
X204476444Y-72456967D01*
X204470669Y-72456891D01*
X204470665Y-72456891D01*
X204359341Y-72455434D01*
X204255091Y-72454069D01*
X204249394Y-72455048D01*
X204249393Y-72455048D01*
X204120697Y-72477162D01*
X204036917Y-72491558D01*
X204013069Y-72500356D01*
X203942236Y-72505167D01*
X203880365Y-72471238D01*
X202016623Y-70607496D01*
X202009000Y-70597956D01*
X202008632Y-70598270D01*
X202002814Y-70591434D01*
X201998024Y-70583842D01*
X201957675Y-70548207D01*
X201951988Y-70542861D01*
X201940545Y-70531418D01*
X201932170Y-70525141D01*
X201924341Y-70518767D01*
X201888849Y-70487422D01*
X201880726Y-70483608D01*
X201878238Y-70481974D01*
X201863277Y-70472986D01*
X201860692Y-70471571D01*
X201853505Y-70466184D01*
X201809157Y-70449559D01*
X201799840Y-70445632D01*
X201799372Y-70445412D01*
X201757000Y-70425519D01*
X201748131Y-70424138D01*
X201745298Y-70423272D01*
X201728411Y-70418842D01*
X201725526Y-70418208D01*
X201717116Y-70415055D01*
X201687958Y-70412888D01*
X201669894Y-70411546D01*
X201659848Y-70410392D01*
X201651225Y-70409049D01*
X201651222Y-70409049D01*
X201646414Y-70408300D01*
X201630894Y-70408300D01*
X201621557Y-70407954D01*
X201604654Y-70406698D01*
X201571859Y-70404261D01*
X201563080Y-70406135D01*
X201554822Y-70406698D01*
X201539639Y-70408300D01*
X191180673Y-70408300D01*
X191168543Y-70406945D01*
X191168504Y-70407427D01*
X191159557Y-70406707D01*
X191150801Y-70404726D01*
X191098768Y-70407954D01*
X191097092Y-70408058D01*
X191089290Y-70408300D01*
X191073087Y-70408300D01*
X191064171Y-70409577D01*
X191062722Y-70409784D01*
X191052672Y-70410813D01*
X191014382Y-70413189D01*
X191014381Y-70413189D01*
X191005423Y-70413745D01*
X190996982Y-70416793D01*
X190994068Y-70417396D01*
X190977134Y-70421618D01*
X190974295Y-70422448D01*
X190965413Y-70423720D01*
X190922300Y-70443323D01*
X190912949Y-70447129D01*
X190876862Y-70460156D01*
X190876860Y-70460157D01*
X190868420Y-70463204D01*
X190861176Y-70468496D01*
X190858582Y-70469875D01*
X190843443Y-70478722D01*
X190840983Y-70480295D01*
X190832818Y-70484008D01*
X190826024Y-70489862D01*
X190826021Y-70489864D01*
X190810938Y-70502861D01*
X190796943Y-70514919D01*
X190789028Y-70521203D01*
X190781982Y-70526350D01*
X190781975Y-70526356D01*
X190778048Y-70529225D01*
X190767073Y-70540200D01*
X190760226Y-70546558D01*
X190722473Y-70579087D01*
X190717589Y-70586622D01*
X190712142Y-70592866D01*
X190702542Y-70604731D01*
X185972396Y-75334877D01*
X185962856Y-75342500D01*
X185963170Y-75342868D01*
X185956334Y-75348686D01*
X185948742Y-75353476D01*
X185942800Y-75360204D01*
X185913107Y-75393825D01*
X185907761Y-75399512D01*
X185896318Y-75410955D01*
X185890678Y-75418480D01*
X185890041Y-75419330D01*
X185883667Y-75427159D01*
X185852322Y-75462651D01*
X185848508Y-75470774D01*
X185846874Y-75473262D01*
X185837886Y-75488223D01*
X185836471Y-75490808D01*
X185831084Y-75497995D01*
X185827933Y-75506401D01*
X185814459Y-75542342D01*
X185810533Y-75551658D01*
X185790419Y-75594500D01*
X185789038Y-75603369D01*
X185788172Y-75606202D01*
X185783742Y-75623089D01*
X185783108Y-75625974D01*
X185779955Y-75634384D01*
X185779290Y-75643339D01*
X185776446Y-75681606D01*
X185775292Y-75691652D01*
X185773200Y-75705086D01*
X185773200Y-75720606D01*
X185772854Y-75729943D01*
X185769161Y-75779641D01*
X185771035Y-75788420D01*
X185771598Y-75796678D01*
X185773200Y-75811861D01*
X185773200Y-78542828D01*
X185753198Y-78610949D01*
X185722765Y-78643654D01*
X185658796Y-78691596D01*
X185653415Y-78698776D01*
X185577511Y-78800054D01*
X185577509Y-78800057D01*
X185572129Y-78807236D01*
X185521402Y-78942552D01*
X185514700Y-79004244D01*
X185514700Y-79999756D01*
X185223700Y-79999756D01*
X185223700Y-79004244D01*
X185216998Y-78942552D01*
X185166271Y-78807236D01*
X185160891Y-78800057D01*
X185160889Y-78800054D01*
X185084985Y-78698776D01*
X185079604Y-78691596D01*
X184971997Y-78610949D01*
X184971146Y-78610311D01*
X184971143Y-78610309D01*
X184963964Y-78604929D01*
X184863601Y-78567305D01*
X184836043Y-78556974D01*
X184836041Y-78556974D01*
X184828648Y-78554202D01*
X184820798Y-78553349D01*
X184820797Y-78553349D01*
X184770353Y-78547869D01*
X184770352Y-78547869D01*
X184766956Y-78547500D01*
X184146444Y-78547500D01*
X184143048Y-78547869D01*
X184143047Y-78547869D01*
X184092603Y-78553349D01*
X184092602Y-78553349D01*
X184084752Y-78554202D01*
X184077359Y-78556974D01*
X184077357Y-78556974D01*
X184049799Y-78567305D01*
X183949436Y-78604929D01*
X183942257Y-78610309D01*
X183942254Y-78610311D01*
X183941403Y-78610949D01*
X183833796Y-78691596D01*
X183828415Y-78698776D01*
X183752511Y-78800054D01*
X183752509Y-78800057D01*
X183747129Y-78807236D01*
X183696402Y-78942552D01*
X183689700Y-79004244D01*
X183689700Y-79999756D01*
X180137781Y-79999756D01*
X180137781Y-76587531D01*
X180157783Y-76519410D01*
X180174686Y-76498436D01*
X193415117Y-63258005D01*
X193477429Y-63223979D01*
X193504212Y-63221100D01*
X195233932Y-63221100D01*
X195302053Y-63241102D01*
X195348546Y-63294758D01*
X195358650Y-63365032D01*
X195329156Y-63429612D01*
X195269430Y-63467996D01*
X195255271Y-63471280D01*
X195115110Y-63495364D01*
X194924663Y-63565624D01*
X194750210Y-63669412D01*
X194745870Y-63673218D01*
X194745866Y-63673221D01*
X194601933Y-63799448D01*
X194597592Y-63803255D01*
X194471920Y-63962669D01*
X194469231Y-63967780D01*
X194469229Y-63967783D01*
X194456273Y-63992409D01*
X194377403Y-64142315D01*
X194317207Y-64336178D01*
X194293348Y-64537764D01*
X194306624Y-64740322D01*
X194308045Y-64745918D01*
X194308046Y-64745923D01*
X194328319Y-64825745D01*
X194356592Y-64937069D01*
X194359009Y-64942312D01*
X194396210Y-65023008D01*
X194441577Y-65121416D01*
X194558733Y-65287189D01*
X194704138Y-65428835D01*
X194872920Y-65541612D01*
X194878223Y-65543890D01*
X194878226Y-65543892D01*
X195000964Y-65596624D01*
X195059428Y-65621742D01*
X195132444Y-65638264D01*
X195251779Y-65665267D01*
X195251784Y-65665268D01*
X195257416Y-65666542D01*
X195263187Y-65666769D01*
X195263189Y-65666769D01*
X195322956Y-65669117D01*
X195460253Y-65674512D01*
X195567548Y-65658955D01*
X195655431Y-65646213D01*
X195655436Y-65646212D01*
X195661145Y-65645384D01*
X195666609Y-65643529D01*
X195666614Y-65643528D01*
X195847893Y-65581992D01*
X195847898Y-65581990D01*
X195853365Y-65580134D01*
X196030476Y-65480947D01*
X196070169Y-65447935D01*
X196182113Y-65354831D01*
X196186545Y-65351145D01*
X196316347Y-65195076D01*
X196415534Y-65017965D01*
X196417390Y-65012498D01*
X196417392Y-65012493D01*
X196478928Y-64831214D01*
X196478929Y-64831209D01*
X196480784Y-64825745D01*
X196481612Y-64820036D01*
X196481613Y-64820031D01*
X196509379Y-64628527D01*
X196509912Y-64624853D01*
X196511432Y-64566800D01*
X196492858Y-64364659D01*
X196491290Y-64359099D01*
X196439325Y-64174846D01*
X196439324Y-64174844D01*
X196437757Y-64169287D01*
X196427178Y-64147833D01*
X196350531Y-63992409D01*
X196347976Y-63987228D01*
X196226520Y-63824579D01*
X196077458Y-63686787D01*
X196072575Y-63683706D01*
X196072571Y-63683703D01*
X195910664Y-63581548D01*
X195905781Y-63578467D01*
X195717239Y-63503246D01*
X195711579Y-63502120D01*
X195711575Y-63502119D01*
X195573447Y-63474644D01*
X195553513Y-63470679D01*
X195490603Y-63437772D01*
X195455471Y-63376077D01*
X195459271Y-63305182D01*
X195500797Y-63247596D01*
X195566863Y-63221602D01*
X195578094Y-63221100D01*
X197773932Y-63221100D01*
X197842053Y-63241102D01*
X197888546Y-63294758D01*
X197898650Y-63365032D01*
X197869156Y-63429612D01*
X197809430Y-63467996D01*
X197795271Y-63471280D01*
X197655110Y-63495364D01*
X197464663Y-63565624D01*
X197290210Y-63669412D01*
X197285870Y-63673218D01*
X197285866Y-63673221D01*
X197141933Y-63799448D01*
X197137592Y-63803255D01*
X197011920Y-63962669D01*
X197009231Y-63967780D01*
X197009229Y-63967783D01*
X196996273Y-63992409D01*
X196917403Y-64142315D01*
X196857207Y-64336178D01*
X196833348Y-64537764D01*
X196846624Y-64740322D01*
X196848045Y-64745918D01*
X196848046Y-64745923D01*
X196868319Y-64825745D01*
X196896592Y-64937069D01*
X196899009Y-64942312D01*
X196936210Y-65023008D01*
X196981577Y-65121416D01*
X197098733Y-65287189D01*
X197244138Y-65428835D01*
X197412920Y-65541612D01*
X197418223Y-65543890D01*
X197418226Y-65543892D01*
X197540964Y-65596624D01*
X197599428Y-65621742D01*
X197672444Y-65638264D01*
X197791779Y-65665267D01*
X197791784Y-65665268D01*
X197797416Y-65666542D01*
X197803187Y-65666769D01*
X197803189Y-65666769D01*
X197862956Y-65669117D01*
X198000253Y-65674512D01*
X198107548Y-65658955D01*
X198195431Y-65646213D01*
X198195436Y-65646212D01*
X198201145Y-65645384D01*
X198206609Y-65643529D01*
X198206614Y-65643528D01*
X198387893Y-65581992D01*
X198387898Y-65581990D01*
X198393365Y-65580134D01*
X198570476Y-65480947D01*
X198610169Y-65447935D01*
X198722113Y-65354831D01*
X198726545Y-65351145D01*
X198856347Y-65195076D01*
X198955534Y-65017965D01*
X198957390Y-65012498D01*
X198957392Y-65012493D01*
X199018928Y-64831214D01*
X199018929Y-64831209D01*
X199020784Y-64825745D01*
X199021612Y-64820036D01*
X199021613Y-64820031D01*
X199049379Y-64628527D01*
X199049912Y-64624853D01*
X199051432Y-64566800D01*
X199032858Y-64364659D01*
X199031290Y-64359099D01*
X198979325Y-64174846D01*
X198979324Y-64174844D01*
X198977757Y-64169287D01*
X198967178Y-64147833D01*
X198890531Y-63992409D01*
X198887976Y-63987228D01*
X198766520Y-63824579D01*
X198617458Y-63686787D01*
X198612575Y-63683706D01*
X198612571Y-63683703D01*
X198450664Y-63581548D01*
X198445781Y-63578467D01*
X198257239Y-63503246D01*
X198251579Y-63502120D01*
X198251575Y-63502119D01*
X198113447Y-63474644D01*
X198093513Y-63470679D01*
X198030603Y-63437772D01*
X197995471Y-63376077D01*
X197999271Y-63305182D01*
X198040797Y-63247596D01*
X198106863Y-63221602D01*
X198118094Y-63221100D01*
X200313932Y-63221100D01*
X200382053Y-63241102D01*
X200428546Y-63294758D01*
X200438650Y-63365032D01*
X200409156Y-63429612D01*
X200349430Y-63467996D01*
X200335271Y-63471280D01*
X200195110Y-63495364D01*
X200004663Y-63565624D01*
X199830210Y-63669412D01*
X199825870Y-63673218D01*
X199825866Y-63673221D01*
X199681933Y-63799448D01*
X199677592Y-63803255D01*
X199551920Y-63962669D01*
X199549231Y-63967780D01*
X199549229Y-63967783D01*
X199536273Y-63992409D01*
X199457403Y-64142315D01*
X199397207Y-64336178D01*
X199373348Y-64537764D01*
X199386624Y-64740322D01*
X199388045Y-64745918D01*
X199388046Y-64745923D01*
X199408319Y-64825745D01*
X199436592Y-64937069D01*
X199439009Y-64942312D01*
X199476210Y-65023008D01*
X199521577Y-65121416D01*
X199638733Y-65287189D01*
X199784138Y-65428835D01*
X199952920Y-65541612D01*
X199958223Y-65543890D01*
X199958226Y-65543892D01*
X200080964Y-65596624D01*
X200139428Y-65621742D01*
X200212444Y-65638264D01*
X200331779Y-65665267D01*
X200331784Y-65665268D01*
X200337416Y-65666542D01*
X200343187Y-65666769D01*
X200343189Y-65666769D01*
X200402956Y-65669117D01*
X200540253Y-65674512D01*
X200647548Y-65658955D01*
X200735431Y-65646213D01*
X200735436Y-65646212D01*
X200741145Y-65645384D01*
X200746609Y-65643529D01*
X200746614Y-65643528D01*
X200927893Y-65581992D01*
X200927898Y-65581990D01*
X200933365Y-65580134D01*
X201110476Y-65480947D01*
X201150169Y-65447935D01*
X201262113Y-65354831D01*
X201266545Y-65351145D01*
X201396347Y-65195076D01*
X201495534Y-65017965D01*
X201497390Y-65012498D01*
X201497392Y-65012493D01*
X201558928Y-64831214D01*
X201558929Y-64831209D01*
X201560784Y-64825745D01*
X201561612Y-64820036D01*
X201561613Y-64820031D01*
X201589379Y-64628527D01*
X201589912Y-64624853D01*
X201591432Y-64566800D01*
X201572858Y-64364659D01*
X201571290Y-64359099D01*
X201519325Y-64174846D01*
X201519324Y-64174844D01*
X201517757Y-64169287D01*
X201507178Y-64147833D01*
X201430531Y-63992409D01*
X201427976Y-63987228D01*
X201306520Y-63824579D01*
X201157458Y-63686787D01*
X201152575Y-63683706D01*
X201152571Y-63683703D01*
X200990664Y-63581548D01*
X200985781Y-63578467D01*
X200797239Y-63503246D01*
X200791579Y-63502120D01*
X200791575Y-63502119D01*
X200653447Y-63474644D01*
X200633513Y-63470679D01*
X200570603Y-63437772D01*
X200535471Y-63376077D01*
X200539271Y-63305182D01*
X200580797Y-63247596D01*
X200646863Y-63221602D01*
X200658094Y-63221100D01*
X202853932Y-63221100D01*
X202922053Y-63241102D01*
X202968546Y-63294758D01*
X202978650Y-63365032D01*
X202949156Y-63429612D01*
X202889430Y-63467996D01*
X202875271Y-63471280D01*
X202735110Y-63495364D01*
X202544663Y-63565624D01*
X202370210Y-63669412D01*
X202365870Y-63673218D01*
X202365866Y-63673221D01*
X202221933Y-63799448D01*
X202217592Y-63803255D01*
X202091920Y-63962669D01*
X202089231Y-63967780D01*
X202089229Y-63967783D01*
X202076273Y-63992409D01*
X201997403Y-64142315D01*
X201937207Y-64336178D01*
X201913348Y-64537764D01*
X201926624Y-64740322D01*
X201928045Y-64745918D01*
X201928046Y-64745923D01*
X201948319Y-64825745D01*
X201976592Y-64937069D01*
X201979009Y-64942312D01*
X202016210Y-65023008D01*
X202061577Y-65121416D01*
X202178733Y-65287189D01*
X202324138Y-65428835D01*
X202492920Y-65541612D01*
X202498223Y-65543890D01*
X202498226Y-65543892D01*
X202620964Y-65596624D01*
X202679428Y-65621742D01*
X202752444Y-65638264D01*
X202871779Y-65665267D01*
X202871784Y-65665268D01*
X202877416Y-65666542D01*
X202883187Y-65666769D01*
X202883189Y-65666769D01*
X202942956Y-65669117D01*
X203080253Y-65674512D01*
X203187548Y-65658955D01*
X203275431Y-65646213D01*
X203275436Y-65646212D01*
X203281145Y-65645384D01*
X203286609Y-65643529D01*
X203286614Y-65643528D01*
X203467893Y-65581992D01*
X203467898Y-65581990D01*
X203473365Y-65580134D01*
X203650476Y-65480947D01*
X203690169Y-65447935D01*
X203802113Y-65354831D01*
X203806545Y-65351145D01*
X203936347Y-65195076D01*
X204035534Y-65017965D01*
X204037390Y-65012498D01*
X204037392Y-65012493D01*
X204098928Y-64831214D01*
X204098929Y-64831209D01*
X204100784Y-64825745D01*
X204101612Y-64820036D01*
X204101613Y-64820031D01*
X204129379Y-64628527D01*
X204129912Y-64624853D01*
X204131432Y-64566800D01*
X204112858Y-64364659D01*
X204111290Y-64359099D01*
X204059325Y-64174846D01*
X204059324Y-64174844D01*
X204057757Y-64169287D01*
X204047178Y-64147833D01*
X203970531Y-63992409D01*
X203967976Y-63987228D01*
X203846520Y-63824579D01*
X203697458Y-63686787D01*
X203692575Y-63683706D01*
X203692571Y-63683703D01*
X203530664Y-63581548D01*
X203525781Y-63578467D01*
X203337239Y-63503246D01*
X203331579Y-63502120D01*
X203331575Y-63502119D01*
X203193447Y-63474644D01*
X203173513Y-63470679D01*
X203110603Y-63437772D01*
X203075471Y-63376077D01*
X203079271Y-63305182D01*
X203120797Y-63247596D01*
X203186863Y-63221602D01*
X203198094Y-63221100D01*
X205393932Y-63221100D01*
X205462053Y-63241102D01*
X205508546Y-63294758D01*
X205518650Y-63365032D01*
X205489156Y-63429612D01*
X205429430Y-63467996D01*
X205415271Y-63471280D01*
X205275110Y-63495364D01*
X205084663Y-63565624D01*
X204910210Y-63669412D01*
X204905870Y-63673218D01*
X204905866Y-63673221D01*
X204761933Y-63799448D01*
X204757592Y-63803255D01*
X204631920Y-63962669D01*
X204629231Y-63967780D01*
X204629229Y-63967783D01*
X204616273Y-63992409D01*
X204537403Y-64142315D01*
X204477207Y-64336178D01*
X204453348Y-64537764D01*
X204466624Y-64740322D01*
X204468045Y-64745918D01*
X204468046Y-64745923D01*
X204488319Y-64825745D01*
X204516592Y-64937069D01*
X204519009Y-64942312D01*
X204556210Y-65023008D01*
X204601577Y-65121416D01*
X204718733Y-65287189D01*
X204864138Y-65428835D01*
X205032920Y-65541612D01*
X205038223Y-65543890D01*
X205038226Y-65543892D01*
X205160964Y-65596624D01*
X205219428Y-65621742D01*
X205292444Y-65638264D01*
X205411779Y-65665267D01*
X205411784Y-65665268D01*
X205417416Y-65666542D01*
X205423187Y-65666769D01*
X205423189Y-65666769D01*
X205482956Y-65669117D01*
X205620253Y-65674512D01*
X205727548Y-65658955D01*
X205815431Y-65646213D01*
X205815436Y-65646212D01*
X205821145Y-65645384D01*
X205826609Y-65643529D01*
X205826614Y-65643528D01*
X206007893Y-65581992D01*
X206007898Y-65581990D01*
X206013365Y-65580134D01*
X206190476Y-65480947D01*
X206230169Y-65447935D01*
X206342113Y-65354831D01*
X206346545Y-65351145D01*
X206476347Y-65195076D01*
X206575534Y-65017965D01*
X206577390Y-65012498D01*
X206577392Y-65012493D01*
X206638928Y-64831214D01*
X206638929Y-64831209D01*
X206640784Y-64825745D01*
X206641612Y-64820036D01*
X206641613Y-64820031D01*
X206669379Y-64628527D01*
X206669912Y-64624853D01*
X206671432Y-64566800D01*
X206652858Y-64364659D01*
X206651290Y-64359099D01*
X206599325Y-64174846D01*
X206599324Y-64174844D01*
X206597757Y-64169287D01*
X206587178Y-64147833D01*
X206510531Y-63992409D01*
X206507976Y-63987228D01*
X206386520Y-63824579D01*
X206237458Y-63686787D01*
X206232575Y-63683706D01*
X206232571Y-63683703D01*
X206070664Y-63581548D01*
X206065781Y-63578467D01*
X205877239Y-63503246D01*
X205871579Y-63502120D01*
X205871575Y-63502119D01*
X205733447Y-63474644D01*
X205713513Y-63470679D01*
X205650603Y-63437772D01*
X205615471Y-63376077D01*
X205619271Y-63305182D01*
X205660797Y-63247596D01*
X205726863Y-63221602D01*
X205738094Y-63221100D01*
X206164788Y-63221100D01*
X206232909Y-63241102D01*
X206253883Y-63258005D01*
X207038007Y-64042129D01*
X207072033Y-64104441D01*
X207069245Y-64168588D01*
X207017207Y-64336178D01*
X206993348Y-64537764D01*
X207006624Y-64740322D01*
X207008045Y-64745918D01*
X207008046Y-64745923D01*
X207028319Y-64825745D01*
X207056592Y-64937069D01*
X207059009Y-64942312D01*
X207096210Y-65023008D01*
X207141577Y-65121416D01*
X207258733Y-65287189D01*
X207404138Y-65428835D01*
X207572920Y-65541612D01*
X207578223Y-65543890D01*
X207578226Y-65543892D01*
X207700964Y-65596624D01*
X207759428Y-65621742D01*
X207832444Y-65638264D01*
X207951779Y-65665267D01*
X207951784Y-65665268D01*
X207957416Y-65666542D01*
X207963187Y-65666769D01*
X207963189Y-65666769D01*
X208022956Y-65669117D01*
X208160253Y-65674512D01*
X208267548Y-65658955D01*
X208355431Y-65646213D01*
X208355436Y-65646212D01*
X208361145Y-65645384D01*
X208366609Y-65643529D01*
X208366614Y-65643528D01*
X208547893Y-65581992D01*
X208547898Y-65581990D01*
X208553365Y-65580134D01*
X208730476Y-65480947D01*
X208770169Y-65447935D01*
X208882113Y-65354831D01*
X208886545Y-65351145D01*
X209016347Y-65195076D01*
X209115534Y-65017965D01*
X209117390Y-65012498D01*
X209117392Y-65012493D01*
X209178928Y-64831214D01*
X209178929Y-64831209D01*
X209180784Y-64825745D01*
X209181612Y-64820036D01*
X209181613Y-64820031D01*
X209209379Y-64628527D01*
X209209912Y-64624853D01*
X209211432Y-64566800D01*
X209192858Y-64364659D01*
X209191290Y-64359099D01*
X209139325Y-64174846D01*
X209139324Y-64174844D01*
X209137757Y-64169287D01*
X209127178Y-64147833D01*
X209050531Y-63992409D01*
X209047976Y-63987228D01*
X208926520Y-63824579D01*
X208777458Y-63686787D01*
X208772575Y-63683706D01*
X208772571Y-63683703D01*
X208610664Y-63581548D01*
X208605781Y-63578467D01*
X208417239Y-63503246D01*
X208411579Y-63502120D01*
X208411575Y-63502119D01*
X208223813Y-63464771D01*
X208223810Y-63464771D01*
X208218146Y-63463644D01*
X208212371Y-63463568D01*
X208212367Y-63463568D01*
X208110993Y-63462241D01*
X208015171Y-63460987D01*
X208009474Y-63461966D01*
X208009473Y-63461966D01*
X207921597Y-63477066D01*
X207815110Y-63495364D01*
X207739842Y-63523132D01*
X207711938Y-63533426D01*
X207641104Y-63538238D01*
X207579232Y-63504309D01*
X206683044Y-62608121D01*
X206667685Y-62589105D01*
X206666719Y-62588044D01*
X206661071Y-62579296D01*
X206634528Y-62558371D01*
X206630053Y-62554394D01*
X206629992Y-62554465D01*
X206626035Y-62551112D01*
X206622352Y-62547429D01*
X206614246Y-62541636D01*
X206606564Y-62536147D01*
X206601815Y-62532582D01*
X206567779Y-62505750D01*
X206526666Y-62447868D01*
X206523372Y-62376948D01*
X206558944Y-62315506D01*
X206622087Y-62283049D01*
X206645785Y-62280800D01*
X212084487Y-62280800D01*
X212152608Y-62300802D01*
G37*
%TD.AperFunction*%
%TD*%
M02*
