%TF.GenerationSoftware,KiCad,Pcbnew,6.0.1-1.fc35*%
%TF.CreationDate,2022-01-26T16:07:58+01:00*%
%TF.ProjectId,burrboard,62757272-626f-4617-9264-2e6b69636164,v3.0*%
%TF.SameCoordinates,Original*%
%TF.FileFunction,Copper,L2,Bot*%
%TF.FilePolarity,Positive*%
%FSLAX46Y46*%
G04 Gerber Fmt 4.6, Leading zero omitted, Abs format (unit mm)*
G04 Created by KiCad (PCBNEW 6.0.1-1.fc35) date 2022-01-26 16:07:58*
%MOMM*%
%LPD*%
G01*
G04 APERTURE LIST*
%TA.AperFunction,ComponentPad*%
%ADD10R,1.700000X1.700000*%
%TD*%
%TA.AperFunction,ComponentPad*%
%ADD11O,1.700000X1.700000*%
%TD*%
%TA.AperFunction,ComponentPad*%
%ADD12R,3.000000X3.000000*%
%TD*%
%TA.AperFunction,ComponentPad*%
%ADD13C,3.000000*%
%TD*%
%TA.AperFunction,ComponentPad*%
%ADD14R,1.900000X1.900000*%
%TD*%
%TA.AperFunction,ComponentPad*%
%ADD15C,1.900000*%
%TD*%
%TA.AperFunction,ViaPad*%
%ADD16C,0.762000*%
%TD*%
%TA.AperFunction,Conductor*%
%ADD17C,0.508000*%
%TD*%
%TA.AperFunction,Conductor*%
%ADD18C,0.304800*%
%TD*%
%TA.AperFunction,Conductor*%
%ADD19C,0.254000*%
%TD*%
G04 APERTURE END LIST*
D10*
%TO.P,J1,1,Pin_1*%
%TO.N,unconnected-(J1-Pad1)*%
X223342200Y-84886800D03*
D11*
%TO.P,J1,2,Pin_2*%
%TO.N,unconnected-(J1-Pad2)*%
X220802200Y-84886800D03*
%TO.P,J1,3,Pin_3*%
%TO.N,unconnected-(J1-Pad3)*%
X218262200Y-84886800D03*
%TO.P,J1,4,Pin_4*%
%TO.N,unconnected-(J1-Pad4)*%
X215722200Y-84886800D03*
%TO.P,J1,5,Pin_5*%
%TO.N,unconnected-(J1-Pad5)*%
X213182200Y-84886800D03*
%TO.P,J1,6,Pin_6*%
%TO.N,unconnected-(J1-Pad6)*%
X210642200Y-84886800D03*
%TO.P,J1,7,Pin_7*%
%TO.N,/A5*%
X208102200Y-84886800D03*
%TO.P,J1,8,Pin_8*%
%TO.N,/A4*%
X205562200Y-84886800D03*
%TO.P,J1,9,Pin_9*%
%TO.N,/A3*%
X203022200Y-84886800D03*
%TO.P,J1,10,Pin_10*%
%TO.N,/A2*%
X200482200Y-84886800D03*
%TO.P,J1,11,Pin_11*%
%TO.N,/A1*%
X197942200Y-84886800D03*
%TO.P,J1,12,Pin_12*%
%TO.N,/A0*%
X195402200Y-84886800D03*
%TO.P,J1,13,Pin_13*%
%TO.N,GND*%
X192862200Y-84886800D03*
%TO.P,J1,14,Pin_14*%
%TO.N,unconnected-(J1-Pad14)*%
X190322200Y-84886800D03*
%TO.P,J1,15,Pin_15*%
%TO.N,/3V3*%
X187782200Y-84886800D03*
%TO.P,J1,16,Pin_16*%
%TO.N,unconnected-(J1-Pad16)*%
X185242200Y-84886800D03*
%TD*%
D10*
%TO.P,J2,1,Pin_1*%
%TO.N,unconnected-(J2-Pad1)*%
X223342200Y-64566800D03*
D11*
%TO.P,J2,2,Pin_2*%
%TO.N,unconnected-(J2-Pad2)*%
X220802200Y-64566800D03*
%TO.P,J2,3,Pin_3*%
%TO.N,unconnected-(J2-Pad3)*%
X218262200Y-64566800D03*
%TO.P,J2,4,Pin_4*%
%TO.N,unconnected-(J2-Pad4)*%
X215722200Y-64566800D03*
%TO.P,J2,5,Pin_5*%
%TO.N,/F2*%
X213182200Y-64566800D03*
%TO.P,J2,6,Pin_6*%
%TO.N,/F3*%
X210642200Y-64566800D03*
%TO.P,J2,7,Pin_7*%
%TO.N,/F4*%
X208102200Y-64566800D03*
%TO.P,J2,8,Pin_8*%
%TO.N,unconnected-(J2-Pad8)*%
X205562200Y-64566800D03*
%TO.P,J2,9,Pin_9*%
%TO.N,unconnected-(J2-Pad9)*%
X203022200Y-64566800D03*
%TO.P,J2,10,Pin_10*%
%TO.N,/VUSB*%
X200482200Y-64566800D03*
%TO.P,J2,11,Pin_11*%
%TO.N,unconnected-(J2-Pad11)*%
X197942200Y-64566800D03*
%TO.P,J2,12,Pin_12*%
%TO.N,unconnected-(J2-Pad12)*%
X195402200Y-64566800D03*
%TD*%
D12*
%TO.P,BT1,1,+*%
%TO.N,VDD*%
X192608200Y-89712800D03*
D13*
%TO.P,BT1,2,-*%
%TO.N,GND*%
X205308200Y-89712800D03*
%TD*%
D14*
%TO.P,S3,1,A*%
%TO.N,/VUSB*%
X182168800Y-90482400D03*
D15*
%TO.P,S3,2,B*%
%TO.N,VDD*%
X182168800Y-92982400D03*
%TO.P,S3,3,C*%
%TO.N,unconnected-(S3-Pad3)*%
X182168800Y-95482400D03*
%TD*%
D16*
%TO.N,/3V3*%
X222351600Y-110947200D03*
%TO.N,/A5*%
X226822000Y-110540800D03*
%TD*%
D17*
%TO.N,VDD*%
X192608200Y-89712800D02*
X189338600Y-92982400D01*
X189338600Y-92982400D02*
X182168800Y-92982400D01*
D18*
%TO.N,/3V3*%
X187782200Y-84886800D02*
X190068200Y-87172800D01*
X198577200Y-87172800D02*
X222351600Y-110947200D01*
X190068200Y-87172800D02*
X198577200Y-87172800D01*
D17*
%TO.N,/VUSB*%
X182168800Y-82880200D02*
X200482200Y-64566800D01*
X182168800Y-90482400D02*
X182168800Y-82880200D01*
D19*
%TO.N,/A5*%
X223062311Y-106781111D02*
X226822000Y-110540800D01*
X223062311Y-99846911D02*
X223062311Y-106781111D01*
X208102200Y-84886800D02*
X223062311Y-99846911D01*
%TD*%
%TA.AperFunction,Conductor*%
%TO.N,GND*%
G36*
X229380321Y-62300802D02*
G01*
X229426814Y-62354458D01*
X229438200Y-62406800D01*
X229438200Y-142926800D01*
X229418198Y-142994921D01*
X229364542Y-143041414D01*
X229312200Y-143052800D01*
X179272200Y-143052800D01*
X179204079Y-143032798D01*
X179157586Y-142979142D01*
X179146200Y-142926800D01*
X179146200Y-113401628D01*
X190623889Y-113401628D01*
X190624133Y-113406063D01*
X190624133Y-113406067D01*
X190627076Y-113459533D01*
X190639293Y-113681531D01*
X190693982Y-113956471D01*
X190786865Y-114220962D01*
X190788918Y-114224913D01*
X190788920Y-114224919D01*
X190914036Y-114465778D01*
X190916088Y-114469728D01*
X190918671Y-114473343D01*
X190918675Y-114473349D01*
X191076485Y-114694183D01*
X191079073Y-114697804D01*
X191272569Y-114900639D01*
X191276065Y-114903395D01*
X191276066Y-114903396D01*
X191328233Y-114944521D01*
X191492714Y-115074188D01*
X191547087Y-115105770D01*
X191731269Y-115212752D01*
X191731275Y-115212755D01*
X191735116Y-115214986D01*
X191739239Y-115216656D01*
X191990812Y-115318554D01*
X191990815Y-115318555D01*
X191994938Y-115320225D01*
X191999251Y-115321296D01*
X191999256Y-115321298D01*
X192262676Y-115386732D01*
X192262681Y-115386733D01*
X192266997Y-115387805D01*
X192271425Y-115388259D01*
X192271427Y-115388259D01*
X192346109Y-115395911D01*
X192506072Y-115412300D01*
X192679607Y-115412300D01*
X192887826Y-115397557D01*
X192892181Y-115396619D01*
X192892184Y-115396619D01*
X193157526Y-115339493D01*
X193157528Y-115339493D01*
X193161873Y-115338557D01*
X193424873Y-115241531D01*
X193474070Y-115214986D01*
X193667662Y-115110529D01*
X193671578Y-115108416D01*
X193897066Y-114941868D01*
X194096837Y-114745210D01*
X194266907Y-114522367D01*
X194403880Y-114277783D01*
X194505025Y-114016339D01*
X194517926Y-113960683D01*
X194567317Y-113747592D01*
X194568323Y-113743253D01*
X194592511Y-113463972D01*
X194592267Y-113459533D01*
X194589080Y-113401628D01*
X214123889Y-113401628D01*
X214124133Y-113406063D01*
X214124133Y-113406067D01*
X214127076Y-113459533D01*
X214139293Y-113681531D01*
X214193982Y-113956471D01*
X214286865Y-114220962D01*
X214288918Y-114224913D01*
X214288920Y-114224919D01*
X214414036Y-114465778D01*
X214416088Y-114469728D01*
X214418671Y-114473343D01*
X214418675Y-114473349D01*
X214576485Y-114694183D01*
X214579073Y-114697804D01*
X214772569Y-114900639D01*
X214776065Y-114903395D01*
X214776066Y-114903396D01*
X214828233Y-114944521D01*
X214992714Y-115074188D01*
X215047087Y-115105770D01*
X215231269Y-115212752D01*
X215231275Y-115212755D01*
X215235116Y-115214986D01*
X215239239Y-115216656D01*
X215490812Y-115318554D01*
X215490815Y-115318555D01*
X215494938Y-115320225D01*
X215499251Y-115321296D01*
X215499256Y-115321298D01*
X215762676Y-115386732D01*
X215762681Y-115386733D01*
X215766997Y-115387805D01*
X215771425Y-115388259D01*
X215771427Y-115388259D01*
X215846109Y-115395911D01*
X216006072Y-115412300D01*
X216179607Y-115412300D01*
X216387826Y-115397557D01*
X216392181Y-115396619D01*
X216392184Y-115396619D01*
X216657526Y-115339493D01*
X216657528Y-115339493D01*
X216661873Y-115338557D01*
X216924873Y-115241531D01*
X216974070Y-115214986D01*
X217167662Y-115110529D01*
X217171578Y-115108416D01*
X217397066Y-114941868D01*
X217596837Y-114745210D01*
X217766907Y-114522367D01*
X217903880Y-114277783D01*
X218005025Y-114016339D01*
X218017926Y-113960683D01*
X218067317Y-113747592D01*
X218068323Y-113743253D01*
X218092511Y-113463972D01*
X218092267Y-113459533D01*
X218077352Y-113188512D01*
X218077351Y-113188505D01*
X218077107Y-113184069D01*
X218022418Y-112909129D01*
X217929535Y-112644638D01*
X217902174Y-112591964D01*
X217802364Y-112399822D01*
X217802363Y-112399820D01*
X217800312Y-112395872D01*
X217797729Y-112392257D01*
X217797725Y-112392251D01*
X217639915Y-112171417D01*
X217639912Y-112171413D01*
X217637327Y-112167796D01*
X217443831Y-111964961D01*
X217395506Y-111926864D01*
X217227182Y-111794168D01*
X217223686Y-111791412D01*
X217114620Y-111728062D01*
X216985131Y-111652848D01*
X216985125Y-111652845D01*
X216981284Y-111650614D01*
X216816479Y-111583861D01*
X216725588Y-111547046D01*
X216725585Y-111547045D01*
X216721462Y-111545375D01*
X216717149Y-111544304D01*
X216717144Y-111544302D01*
X216453724Y-111478868D01*
X216453719Y-111478867D01*
X216449403Y-111477795D01*
X216444975Y-111477341D01*
X216444973Y-111477341D01*
X216354222Y-111468043D01*
X216210328Y-111453300D01*
X216036793Y-111453300D01*
X215828574Y-111468043D01*
X215824219Y-111468981D01*
X215824216Y-111468981D01*
X215558874Y-111526107D01*
X215558872Y-111526107D01*
X215554527Y-111527043D01*
X215291527Y-111624069D01*
X215287609Y-111626183D01*
X215238190Y-111652848D01*
X215044822Y-111757184D01*
X214819334Y-111923732D01*
X214619563Y-112120390D01*
X214449493Y-112343233D01*
X214312520Y-112587817D01*
X214211375Y-112849261D01*
X214210372Y-112853586D01*
X214210371Y-112853591D01*
X214197498Y-112909129D01*
X214148077Y-113122347D01*
X214123889Y-113401628D01*
X194589080Y-113401628D01*
X194577352Y-113188512D01*
X194577351Y-113188505D01*
X194577107Y-113184069D01*
X194522418Y-112909129D01*
X194429535Y-112644638D01*
X194402174Y-112591964D01*
X194302364Y-112399822D01*
X194302363Y-112399820D01*
X194300312Y-112395872D01*
X194297729Y-112392257D01*
X194297725Y-112392251D01*
X194139915Y-112171417D01*
X194139912Y-112171413D01*
X194137327Y-112167796D01*
X193943831Y-111964961D01*
X193895506Y-111926864D01*
X193727182Y-111794168D01*
X193723686Y-111791412D01*
X193614620Y-111728062D01*
X193485131Y-111652848D01*
X193485125Y-111652845D01*
X193481284Y-111650614D01*
X193316479Y-111583861D01*
X193225588Y-111547046D01*
X193225585Y-111547045D01*
X193221462Y-111545375D01*
X193217149Y-111544304D01*
X193217144Y-111544302D01*
X192953724Y-111478868D01*
X192953719Y-111478867D01*
X192949403Y-111477795D01*
X192944975Y-111477341D01*
X192944973Y-111477341D01*
X192854222Y-111468043D01*
X192710328Y-111453300D01*
X192536793Y-111453300D01*
X192328574Y-111468043D01*
X192324219Y-111468981D01*
X192324216Y-111468981D01*
X192058874Y-111526107D01*
X192058872Y-111526107D01*
X192054527Y-111527043D01*
X191791527Y-111624069D01*
X191787609Y-111626183D01*
X191738190Y-111652848D01*
X191544822Y-111757184D01*
X191319334Y-111923732D01*
X191119563Y-112120390D01*
X190949493Y-112343233D01*
X190812520Y-112587817D01*
X190711375Y-112849261D01*
X190710372Y-112853586D01*
X190710371Y-112853591D01*
X190697498Y-112909129D01*
X190648077Y-113122347D01*
X190623889Y-113401628D01*
X179146200Y-113401628D01*
X179146200Y-95450735D01*
X180959555Y-95450735D01*
X180974033Y-95671633D01*
X181028524Y-95886193D01*
X181121204Y-96087230D01*
X181248967Y-96268011D01*
X181407536Y-96422482D01*
X181412332Y-96425687D01*
X181412335Y-96425689D01*
X181487053Y-96475614D01*
X181591600Y-96545470D01*
X181596903Y-96547748D01*
X181596906Y-96547750D01*
X181682808Y-96584656D01*
X181794995Y-96632855D01*
X181874473Y-96650839D01*
X182005271Y-96680436D01*
X182005276Y-96680437D01*
X182010908Y-96681711D01*
X182016679Y-96681938D01*
X182016681Y-96681938D01*
X182084301Y-96684595D01*
X182232109Y-96690402D01*
X182360708Y-96671756D01*
X182445468Y-96659467D01*
X182445472Y-96659466D01*
X182451190Y-96658637D01*
X182456662Y-96656779D01*
X182456664Y-96656779D01*
X182655345Y-96589335D01*
X182660813Y-96587479D01*
X182853959Y-96479312D01*
X183024159Y-96337759D01*
X183165712Y-96167559D01*
X183273879Y-95974413D01*
X183345037Y-95764790D01*
X183376802Y-95545709D01*
X183378460Y-95482400D01*
X183358204Y-95261957D01*
X183349445Y-95230898D01*
X183299684Y-95054461D01*
X183298115Y-95048897D01*
X183200205Y-94850354D01*
X183067753Y-94672979D01*
X183063517Y-94669063D01*
X182909434Y-94526631D01*
X182909432Y-94526629D01*
X182905194Y-94522712D01*
X182717974Y-94404585D01*
X182579479Y-94349331D01*
X182523619Y-94305510D01*
X182500319Y-94238446D01*
X182516975Y-94169431D01*
X182568299Y-94120376D01*
X182585667Y-94112988D01*
X182655345Y-94089335D01*
X182660813Y-94087479D01*
X182853959Y-93979312D01*
X183024159Y-93837759D01*
X183165712Y-93667559D01*
X183228563Y-93555332D01*
X183279297Y-93505672D01*
X183338495Y-93490900D01*
X189267528Y-93490900D01*
X189279658Y-93492255D01*
X189279697Y-93491773D01*
X189288644Y-93492493D01*
X189297400Y-93494474D01*
X189351108Y-93491142D01*
X189358910Y-93490900D01*
X189375113Y-93490900D01*
X189384029Y-93489623D01*
X189385478Y-93489416D01*
X189395528Y-93488387D01*
X189433816Y-93486011D01*
X189442777Y-93485455D01*
X189451223Y-93482406D01*
X189454114Y-93481807D01*
X189471080Y-93477578D01*
X189473905Y-93476752D01*
X189482787Y-93475480D01*
X189525898Y-93455878D01*
X189535249Y-93452072D01*
X189571335Y-93439045D01*
X189579781Y-93435996D01*
X189587029Y-93430701D01*
X189589627Y-93429320D01*
X189604745Y-93420485D01*
X189607214Y-93418906D01*
X189615382Y-93415192D01*
X189651253Y-93384284D01*
X189659169Y-93377999D01*
X189666215Y-93372852D01*
X189666220Y-93372847D01*
X189670152Y-93369975D01*
X189681127Y-93359000D01*
X189687975Y-93352642D01*
X189718923Y-93325976D01*
X189718924Y-93325975D01*
X189725727Y-93320113D01*
X189730611Y-93312578D01*
X189736058Y-93306334D01*
X189745658Y-93294469D01*
X191535923Y-91504205D01*
X191598235Y-91470179D01*
X191625018Y-91467300D01*
X193861823Y-91467299D01*
X194133266Y-91467299D01*
X194169018Y-91460188D01*
X194195326Y-91454956D01*
X194195328Y-91454955D01*
X194207501Y-91452534D01*
X194217821Y-91445639D01*
X194217822Y-91445638D01*
X194281368Y-91403177D01*
X194291684Y-91396284D01*
X194347934Y-91312101D01*
X194362700Y-91237867D01*
X194362699Y-88187734D01*
X194355588Y-88151982D01*
X194350356Y-88125674D01*
X194350355Y-88125672D01*
X194347934Y-88113499D01*
X194291684Y-88029316D01*
X194207501Y-87973066D01*
X194133267Y-87958300D01*
X192608447Y-87958300D01*
X191083134Y-87958301D01*
X191047382Y-87965412D01*
X191021074Y-87970644D01*
X191021072Y-87970645D01*
X191008899Y-87973066D01*
X190998579Y-87979961D01*
X190998578Y-87979962D01*
X190938185Y-88020316D01*
X190924716Y-88029316D01*
X190868466Y-88113499D01*
X190853700Y-88187733D01*
X190853701Y-89445274D01*
X190853701Y-90695982D01*
X190833699Y-90764103D01*
X190816796Y-90785077D01*
X189164878Y-92436995D01*
X189102566Y-92471021D01*
X189075783Y-92473900D01*
X183339483Y-92473900D01*
X183271362Y-92453898D01*
X183226477Y-92403629D01*
X183200205Y-92350354D01*
X183067753Y-92172979D01*
X183063517Y-92169063D01*
X182909434Y-92026631D01*
X182909432Y-92026629D01*
X182905194Y-92022712D01*
X182741551Y-91919461D01*
X182694612Y-91866194D01*
X182683923Y-91796007D01*
X182712878Y-91731183D01*
X182772282Y-91692303D01*
X182808785Y-91686899D01*
X183143866Y-91686899D01*
X183179618Y-91679788D01*
X183205926Y-91674556D01*
X183205928Y-91674555D01*
X183218101Y-91672134D01*
X183228421Y-91665239D01*
X183228422Y-91665238D01*
X183291968Y-91622777D01*
X183302284Y-91615884D01*
X183358534Y-91531701D01*
X183373300Y-91457467D01*
X183373299Y-89507334D01*
X183358534Y-89433099D01*
X183302284Y-89348916D01*
X183218101Y-89292666D01*
X183143867Y-89277900D01*
X182803300Y-89277900D01*
X182735179Y-89257898D01*
X182688686Y-89204242D01*
X182677300Y-89151900D01*
X182677300Y-84857764D01*
X184133348Y-84857764D01*
X184146624Y-85060322D01*
X184148045Y-85065918D01*
X184148046Y-85065923D01*
X184168319Y-85145745D01*
X184196592Y-85257069D01*
X184199009Y-85262312D01*
X184236210Y-85343008D01*
X184281577Y-85441416D01*
X184398733Y-85607189D01*
X184544138Y-85748835D01*
X184712920Y-85861612D01*
X184718223Y-85863890D01*
X184718226Y-85863892D01*
X184894121Y-85939462D01*
X184899428Y-85941742D01*
X184972444Y-85958264D01*
X185091779Y-85985267D01*
X185091784Y-85985268D01*
X185097416Y-85986542D01*
X185103187Y-85986769D01*
X185103189Y-85986769D01*
X185162956Y-85989117D01*
X185300253Y-85994512D01*
X185407548Y-85978955D01*
X185495431Y-85966213D01*
X185495436Y-85966212D01*
X185501145Y-85965384D01*
X185506609Y-85963529D01*
X185506614Y-85963528D01*
X185687893Y-85901992D01*
X185687898Y-85901990D01*
X185693365Y-85900134D01*
X185870476Y-85800947D01*
X185910169Y-85767935D01*
X185997896Y-85694972D01*
X186026545Y-85671145D01*
X186156347Y-85515076D01*
X186255534Y-85337965D01*
X186257390Y-85332498D01*
X186257392Y-85332493D01*
X186318928Y-85151214D01*
X186318929Y-85151209D01*
X186320784Y-85145745D01*
X186321612Y-85140036D01*
X186321613Y-85140031D01*
X186349379Y-84948527D01*
X186349912Y-84944853D01*
X186351432Y-84886800D01*
X186348764Y-84857764D01*
X186673348Y-84857764D01*
X186686624Y-85060322D01*
X186688045Y-85065918D01*
X186688046Y-85065923D01*
X186708319Y-85145745D01*
X186736592Y-85257069D01*
X186739009Y-85262312D01*
X186776210Y-85343008D01*
X186821577Y-85441416D01*
X186938733Y-85607189D01*
X187084138Y-85748835D01*
X187252920Y-85861612D01*
X187258223Y-85863890D01*
X187258226Y-85863892D01*
X187434121Y-85939462D01*
X187439428Y-85941742D01*
X187512444Y-85958264D01*
X187631779Y-85985267D01*
X187631784Y-85985268D01*
X187637416Y-85986542D01*
X187643187Y-85986769D01*
X187643189Y-85986769D01*
X187702956Y-85989117D01*
X187840253Y-85994512D01*
X187947548Y-85978955D01*
X188035431Y-85966213D01*
X188035436Y-85966212D01*
X188041145Y-85965384D01*
X188149263Y-85928683D01*
X188220196Y-85925727D01*
X188278858Y-85958901D01*
X189803122Y-87483166D01*
X189803126Y-87483169D01*
X189826049Y-87506092D01*
X189846105Y-87516311D01*
X189862948Y-87526633D01*
X189881168Y-87539870D01*
X189902580Y-87546827D01*
X189920838Y-87554390D01*
X189940894Y-87564609D01*
X189950687Y-87566160D01*
X189950690Y-87566161D01*
X189963130Y-87568132D01*
X189982351Y-87572746D01*
X190003753Y-87579700D01*
X198356467Y-87579700D01*
X198424588Y-87599702D01*
X198445562Y-87616605D01*
X221675518Y-110846561D01*
X221709544Y-110908873D01*
X221712204Y-110934898D01*
X221711467Y-110940496D01*
X221712300Y-110948041D01*
X221712300Y-110948044D01*
X221726584Y-111077422D01*
X221728346Y-111093383D01*
X221730955Y-111100514D01*
X221730956Y-111100516D01*
X221759071Y-111177342D01*
X221781206Y-111237830D01*
X221785442Y-111244133D01*
X221785442Y-111244134D01*
X221862762Y-111359199D01*
X221862765Y-111359202D01*
X221866996Y-111365499D01*
X221941872Y-111433631D01*
X221963849Y-111453628D01*
X221980763Y-111469019D01*
X222115938Y-111542413D01*
X222264719Y-111581445D01*
X222344538Y-111582699D01*
X222410918Y-111583742D01*
X222410921Y-111583742D01*
X222418516Y-111583861D01*
X222425920Y-111582165D01*
X222425922Y-111582165D01*
X222481189Y-111569507D01*
X222568449Y-111549522D01*
X222615005Y-111526107D01*
X222699081Y-111483822D01*
X222699084Y-111483820D01*
X222705864Y-111480410D01*
X222822826Y-111380514D01*
X222912583Y-111255603D01*
X222969955Y-111112888D01*
X222991628Y-110960607D01*
X222991768Y-110947200D01*
X222990531Y-110936972D01*
X222974201Y-110802039D01*
X222973289Y-110794499D01*
X222918919Y-110650613D01*
X222910240Y-110637984D01*
X222836099Y-110530108D01*
X222836097Y-110530106D01*
X222831797Y-110523849D01*
X222716953Y-110421527D01*
X222653819Y-110388099D01*
X222587731Y-110353107D01*
X222587728Y-110353106D01*
X222581016Y-110349552D01*
X222431834Y-110312080D01*
X222424236Y-110312040D01*
X222424234Y-110312040D01*
X222342991Y-110311615D01*
X222274975Y-110291257D01*
X222254555Y-110274712D01*
X203282297Y-91302454D01*
X204083818Y-91302454D01*
X204090873Y-91312427D01*
X204121879Y-91338351D01*
X204128798Y-91343379D01*
X204353472Y-91484315D01*
X204361007Y-91488356D01*
X204602720Y-91597494D01*
X204610751Y-91600480D01*
X204865032Y-91675802D01*
X204873384Y-91677669D01*
X205135540Y-91717784D01*
X205144074Y-91718500D01*
X205409245Y-91722667D01*
X205417796Y-91722218D01*
X205681083Y-91690357D01*
X205689484Y-91688755D01*
X205946024Y-91621453D01*
X205954126Y-91618726D01*
X206199149Y-91517234D01*
X206206817Y-91513428D01*
X206435798Y-91379622D01*
X206442879Y-91374809D01*
X206522855Y-91312101D01*
X206531325Y-91300242D01*
X206524808Y-91288618D01*
X205321012Y-90084822D01*
X205307068Y-90077208D01*
X205305235Y-90077339D01*
X205298620Y-90081590D01*
X204091110Y-91289100D01*
X204083818Y-91302454D01*
X203282297Y-91302454D01*
X201675847Y-89696004D01*
X203295865Y-89696004D01*
X203311132Y-89960769D01*
X203312205Y-89969270D01*
X203363265Y-90229522D01*
X203365476Y-90237774D01*
X203451384Y-90488694D01*
X203454699Y-90496579D01*
X203573864Y-90733513D01*
X203578220Y-90740879D01*
X203707547Y-90929050D01*
X203717801Y-90937394D01*
X203731542Y-90930248D01*
X204936178Y-89725612D01*
X204942556Y-89713932D01*
X205672608Y-89713932D01*
X205672739Y-89715765D01*
X205676990Y-89722380D01*
X206883930Y-90929320D01*
X206896139Y-90935987D01*
X206907639Y-90927297D01*
X207005031Y-90794713D01*
X207009618Y-90787485D01*
X207136162Y-90554421D01*
X207139730Y-90546627D01*
X207233471Y-90298550D01*
X207235948Y-90290344D01*
X207295154Y-90031838D01*
X207296494Y-90023377D01*
X207320231Y-89757416D01*
X207320477Y-89752477D01*
X207320866Y-89715285D01*
X207320723Y-89710319D01*
X207302562Y-89443923D01*
X207301401Y-89435449D01*
X207247619Y-89175744D01*
X207245320Y-89167509D01*
X207156788Y-88917505D01*
X207153391Y-88909654D01*
X207031750Y-88673978D01*
X207027322Y-88666666D01*
X206908231Y-88497217D01*
X206897709Y-88488837D01*
X206884321Y-88495889D01*
X205680222Y-89699988D01*
X205672608Y-89713932D01*
X204942556Y-89713932D01*
X204943792Y-89711668D01*
X204943661Y-89709835D01*
X204939410Y-89703220D01*
X203732014Y-88495824D01*
X203720004Y-88489266D01*
X203708264Y-88498234D01*
X203600135Y-88648711D01*
X203595618Y-88655996D01*
X203471525Y-88890367D01*
X203468039Y-88898195D01*
X203376900Y-89147246D01*
X203374511Y-89155470D01*
X203318012Y-89414595D01*
X203316763Y-89423050D01*
X203295954Y-89687453D01*
X203295865Y-89696004D01*
X201675847Y-89696004D01*
X200105143Y-88125300D01*
X204084784Y-88125300D01*
X204091180Y-88136570D01*
X205295388Y-89340778D01*
X205309332Y-89348392D01*
X205311165Y-89348261D01*
X205317780Y-89344010D01*
X206524804Y-88136986D01*
X206531995Y-88123817D01*
X206524673Y-88113580D01*
X206477433Y-88074915D01*
X206470461Y-88069960D01*
X206244322Y-87931382D01*
X206236752Y-87927424D01*
X205993904Y-87820822D01*
X205985844Y-87817920D01*
X205730792Y-87745267D01*
X205722414Y-87743485D01*
X205459856Y-87706118D01*
X205451311Y-87705491D01*
X205186108Y-87704102D01*
X205177574Y-87704639D01*
X204914633Y-87739256D01*
X204906235Y-87740949D01*
X204650438Y-87810927D01*
X204642343Y-87813746D01*
X204398399Y-87917797D01*
X204390777Y-87921681D01*
X204163213Y-88057875D01*
X204156181Y-88062762D01*
X204093253Y-88113177D01*
X204084784Y-88125300D01*
X200105143Y-88125300D01*
X198819351Y-86839508D01*
X198799296Y-86829290D01*
X198782441Y-86818960D01*
X198772257Y-86811561D01*
X198764232Y-86805730D01*
X198754799Y-86802665D01*
X198754797Y-86802664D01*
X198742820Y-86798772D01*
X198724558Y-86791208D01*
X198713340Y-86785492D01*
X198713339Y-86785492D01*
X198704506Y-86780991D01*
X198682274Y-86777470D01*
X198663048Y-86772854D01*
X198651079Y-86768965D01*
X198641646Y-86765900D01*
X190288934Y-86765900D01*
X190220813Y-86745898D01*
X190199839Y-86728995D01*
X189530383Y-86059539D01*
X188854301Y-85383458D01*
X188820276Y-85321146D01*
X188824083Y-85253863D01*
X188860784Y-85145745D01*
X188861612Y-85140036D01*
X188861613Y-85140031D01*
X188889379Y-84948527D01*
X188889912Y-84944853D01*
X188891432Y-84886800D01*
X188888764Y-84857764D01*
X189213348Y-84857764D01*
X189226624Y-85060322D01*
X189228045Y-85065918D01*
X189228046Y-85065923D01*
X189248319Y-85145745D01*
X189276592Y-85257069D01*
X189279009Y-85262312D01*
X189316210Y-85343008D01*
X189361577Y-85441416D01*
X189478733Y-85607189D01*
X189624138Y-85748835D01*
X189792920Y-85861612D01*
X189798223Y-85863890D01*
X189798226Y-85863892D01*
X189974121Y-85939462D01*
X189979428Y-85941742D01*
X190052444Y-85958264D01*
X190171779Y-85985267D01*
X190171784Y-85985268D01*
X190177416Y-85986542D01*
X190183187Y-85986769D01*
X190183189Y-85986769D01*
X190242956Y-85989117D01*
X190380253Y-85994512D01*
X190487548Y-85978955D01*
X190575431Y-85966213D01*
X190575436Y-85966212D01*
X190581145Y-85965384D01*
X190586609Y-85963529D01*
X190586614Y-85963528D01*
X190767893Y-85901992D01*
X190767898Y-85901990D01*
X190773365Y-85900134D01*
X190950476Y-85800947D01*
X190990169Y-85767935D01*
X191077896Y-85694972D01*
X191106545Y-85671145D01*
X191236347Y-85515076D01*
X191335534Y-85337965D01*
X191337920Y-85330935D01*
X191338370Y-85330296D01*
X191339741Y-85327216D01*
X191340346Y-85327485D01*
X191378753Y-85272859D01*
X191444505Y-85246078D01*
X191514298Y-85259095D01*
X191565973Y-85307780D01*
X191573977Y-85324029D01*
X191643970Y-85496403D01*
X191648613Y-85505594D01*
X191759894Y-85687188D01*
X191765977Y-85695499D01*
X191905413Y-85856467D01*
X191912780Y-85863683D01*
X192076634Y-85999716D01*
X192085081Y-86005631D01*
X192268956Y-86113079D01*
X192278242Y-86117529D01*
X192477201Y-86193503D01*
X192487099Y-86196379D01*
X192590450Y-86217406D01*
X192604499Y-86216210D01*
X192608200Y-86205865D01*
X192608200Y-86205317D01*
X193116200Y-86205317D01*
X193120264Y-86219159D01*
X193133678Y-86221193D01*
X193140384Y-86220334D01*
X193150462Y-86218192D01*
X193354455Y-86156991D01*
X193364042Y-86153233D01*
X193555295Y-86059539D01*
X193564145Y-86054264D01*
X193737528Y-85930592D01*
X193745400Y-85923939D01*
X193896252Y-85773612D01*
X193902930Y-85765765D01*
X194027203Y-85592820D01*
X194032513Y-85583983D01*
X194126870Y-85393067D01*
X194130669Y-85383472D01*
X194147266Y-85328847D01*
X194186207Y-85269483D01*
X194251062Y-85240596D01*
X194321238Y-85251358D01*
X194374456Y-85298351D01*
X194382248Y-85312722D01*
X194441577Y-85441416D01*
X194558733Y-85607189D01*
X194704138Y-85748835D01*
X194872920Y-85861612D01*
X194878223Y-85863890D01*
X194878226Y-85863892D01*
X195054121Y-85939462D01*
X195059428Y-85941742D01*
X195132444Y-85958264D01*
X195251779Y-85985267D01*
X195251784Y-85985268D01*
X195257416Y-85986542D01*
X195263187Y-85986769D01*
X195263189Y-85986769D01*
X195322956Y-85989117D01*
X195460253Y-85994512D01*
X195567548Y-85978955D01*
X195655431Y-85966213D01*
X195655436Y-85966212D01*
X195661145Y-85965384D01*
X195666609Y-85963529D01*
X195666614Y-85963528D01*
X195847893Y-85901992D01*
X195847898Y-85901990D01*
X195853365Y-85900134D01*
X196030476Y-85800947D01*
X196070169Y-85767935D01*
X196157896Y-85694972D01*
X196186545Y-85671145D01*
X196316347Y-85515076D01*
X196415534Y-85337965D01*
X196417390Y-85332498D01*
X196417392Y-85332493D01*
X196478928Y-85151214D01*
X196478929Y-85151209D01*
X196480784Y-85145745D01*
X196481612Y-85140036D01*
X196481613Y-85140031D01*
X196509379Y-84948527D01*
X196509912Y-84944853D01*
X196511432Y-84886800D01*
X196508764Y-84857764D01*
X196833348Y-84857764D01*
X196846624Y-85060322D01*
X196848045Y-85065918D01*
X196848046Y-85065923D01*
X196868319Y-85145745D01*
X196896592Y-85257069D01*
X196899009Y-85262312D01*
X196936210Y-85343008D01*
X196981577Y-85441416D01*
X197098733Y-85607189D01*
X197244138Y-85748835D01*
X197412920Y-85861612D01*
X197418223Y-85863890D01*
X197418226Y-85863892D01*
X197594121Y-85939462D01*
X197599428Y-85941742D01*
X197672444Y-85958264D01*
X197791779Y-85985267D01*
X197791784Y-85985268D01*
X197797416Y-85986542D01*
X197803187Y-85986769D01*
X197803189Y-85986769D01*
X197862956Y-85989117D01*
X198000253Y-85994512D01*
X198107548Y-85978955D01*
X198195431Y-85966213D01*
X198195436Y-85966212D01*
X198201145Y-85965384D01*
X198206609Y-85963529D01*
X198206614Y-85963528D01*
X198387893Y-85901992D01*
X198387898Y-85901990D01*
X198393365Y-85900134D01*
X198570476Y-85800947D01*
X198610169Y-85767935D01*
X198697896Y-85694972D01*
X198726545Y-85671145D01*
X198856347Y-85515076D01*
X198955534Y-85337965D01*
X198957390Y-85332498D01*
X198957392Y-85332493D01*
X199018928Y-85151214D01*
X199018929Y-85151209D01*
X199020784Y-85145745D01*
X199021612Y-85140036D01*
X199021613Y-85140031D01*
X199049379Y-84948527D01*
X199049912Y-84944853D01*
X199051432Y-84886800D01*
X199048764Y-84857764D01*
X199373348Y-84857764D01*
X199386624Y-85060322D01*
X199388045Y-85065918D01*
X199388046Y-85065923D01*
X199408319Y-85145745D01*
X199436592Y-85257069D01*
X199439009Y-85262312D01*
X199476210Y-85343008D01*
X199521577Y-85441416D01*
X199638733Y-85607189D01*
X199784138Y-85748835D01*
X199952920Y-85861612D01*
X199958223Y-85863890D01*
X199958226Y-85863892D01*
X200134121Y-85939462D01*
X200139428Y-85941742D01*
X200212444Y-85958264D01*
X200331779Y-85985267D01*
X200331784Y-85985268D01*
X200337416Y-85986542D01*
X200343187Y-85986769D01*
X200343189Y-85986769D01*
X200402956Y-85989117D01*
X200540253Y-85994512D01*
X200647548Y-85978955D01*
X200735431Y-85966213D01*
X200735436Y-85966212D01*
X200741145Y-85965384D01*
X200746609Y-85963529D01*
X200746614Y-85963528D01*
X200927893Y-85901992D01*
X200927898Y-85901990D01*
X200933365Y-85900134D01*
X201110476Y-85800947D01*
X201150169Y-85767935D01*
X201237896Y-85694972D01*
X201266545Y-85671145D01*
X201396347Y-85515076D01*
X201495534Y-85337965D01*
X201497390Y-85332498D01*
X201497392Y-85332493D01*
X201558928Y-85151214D01*
X201558929Y-85151209D01*
X201560784Y-85145745D01*
X201561612Y-85140036D01*
X201561613Y-85140031D01*
X201589379Y-84948527D01*
X201589912Y-84944853D01*
X201591432Y-84886800D01*
X201588764Y-84857764D01*
X201913348Y-84857764D01*
X201926624Y-85060322D01*
X201928045Y-85065918D01*
X201928046Y-85065923D01*
X201948319Y-85145745D01*
X201976592Y-85257069D01*
X201979009Y-85262312D01*
X202016210Y-85343008D01*
X202061577Y-85441416D01*
X202178733Y-85607189D01*
X202324138Y-85748835D01*
X202492920Y-85861612D01*
X202498223Y-85863890D01*
X202498226Y-85863892D01*
X202674121Y-85939462D01*
X202679428Y-85941742D01*
X202752444Y-85958264D01*
X202871779Y-85985267D01*
X202871784Y-85985268D01*
X202877416Y-85986542D01*
X202883187Y-85986769D01*
X202883189Y-85986769D01*
X202942956Y-85989117D01*
X203080253Y-85994512D01*
X203187548Y-85978955D01*
X203275431Y-85966213D01*
X203275436Y-85966212D01*
X203281145Y-85965384D01*
X203286609Y-85963529D01*
X203286614Y-85963528D01*
X203467893Y-85901992D01*
X203467898Y-85901990D01*
X203473365Y-85900134D01*
X203650476Y-85800947D01*
X203690169Y-85767935D01*
X203777896Y-85694972D01*
X203806545Y-85671145D01*
X203936347Y-85515076D01*
X204035534Y-85337965D01*
X204037390Y-85332498D01*
X204037392Y-85332493D01*
X204098928Y-85151214D01*
X204098929Y-85151209D01*
X204100784Y-85145745D01*
X204101612Y-85140036D01*
X204101613Y-85140031D01*
X204129379Y-84948527D01*
X204129912Y-84944853D01*
X204131432Y-84886800D01*
X204128764Y-84857764D01*
X204453348Y-84857764D01*
X204466624Y-85060322D01*
X204468045Y-85065918D01*
X204468046Y-85065923D01*
X204488319Y-85145745D01*
X204516592Y-85257069D01*
X204519009Y-85262312D01*
X204556210Y-85343008D01*
X204601577Y-85441416D01*
X204718733Y-85607189D01*
X204864138Y-85748835D01*
X205032920Y-85861612D01*
X205038223Y-85863890D01*
X205038226Y-85863892D01*
X205214121Y-85939462D01*
X205219428Y-85941742D01*
X205292444Y-85958264D01*
X205411779Y-85985267D01*
X205411784Y-85985268D01*
X205417416Y-85986542D01*
X205423187Y-85986769D01*
X205423189Y-85986769D01*
X205482956Y-85989117D01*
X205620253Y-85994512D01*
X205727548Y-85978955D01*
X205815431Y-85966213D01*
X205815436Y-85966212D01*
X205821145Y-85965384D01*
X205826609Y-85963529D01*
X205826614Y-85963528D01*
X206007893Y-85901992D01*
X206007898Y-85901990D01*
X206013365Y-85900134D01*
X206190476Y-85800947D01*
X206230169Y-85767935D01*
X206317896Y-85694972D01*
X206346545Y-85671145D01*
X206476347Y-85515076D01*
X206575534Y-85337965D01*
X206577390Y-85332498D01*
X206577392Y-85332493D01*
X206638928Y-85151214D01*
X206638929Y-85151209D01*
X206640784Y-85145745D01*
X206641612Y-85140036D01*
X206641613Y-85140031D01*
X206669379Y-84948527D01*
X206669912Y-84944853D01*
X206671432Y-84886800D01*
X206668764Y-84857764D01*
X206993348Y-84857764D01*
X207006624Y-85060322D01*
X207008045Y-85065918D01*
X207008046Y-85065923D01*
X207028319Y-85145745D01*
X207056592Y-85257069D01*
X207059009Y-85262312D01*
X207096210Y-85343008D01*
X207141577Y-85441416D01*
X207258733Y-85607189D01*
X207404138Y-85748835D01*
X207572920Y-85861612D01*
X207578223Y-85863890D01*
X207578226Y-85863892D01*
X207754121Y-85939462D01*
X207759428Y-85941742D01*
X207832444Y-85958264D01*
X207951779Y-85985267D01*
X207951784Y-85985268D01*
X207957416Y-85986542D01*
X207963187Y-85986769D01*
X207963189Y-85986769D01*
X208022956Y-85989117D01*
X208160253Y-85994512D01*
X208267548Y-85978955D01*
X208355431Y-85966213D01*
X208355436Y-85966212D01*
X208361145Y-85965384D01*
X208366609Y-85963529D01*
X208366614Y-85963528D01*
X208496080Y-85919580D01*
X208567015Y-85916624D01*
X208625676Y-85949798D01*
X215841742Y-93165865D01*
X222643906Y-99968029D01*
X222677932Y-100030341D01*
X222680811Y-100057124D01*
X222680811Y-106726976D01*
X222678225Y-106751275D01*
X222678157Y-106752713D01*
X222675966Y-106762891D01*
X222677190Y-106773231D01*
X222679938Y-106796453D01*
X222680290Y-106802431D01*
X222680383Y-106802423D01*
X222680811Y-106807601D01*
X222680811Y-106812803D01*
X222681665Y-106817933D01*
X222683997Y-106831943D01*
X222684833Y-106837815D01*
X222690893Y-106889018D01*
X222694878Y-106897317D01*
X222696389Y-106906394D01*
X222720869Y-106951762D01*
X222723550Y-106957025D01*
X222742438Y-106996361D01*
X222742441Y-106996365D01*
X222745871Y-107003509D01*
X222749481Y-107007803D01*
X222751413Y-107009735D01*
X222753200Y-107011684D01*
X222753229Y-107011737D01*
X222753099Y-107011856D01*
X222753600Y-107012424D01*
X222756699Y-107018168D01*
X222764344Y-107025235D01*
X222796519Y-107054977D01*
X222800085Y-107058407D01*
X226148854Y-110407177D01*
X226182880Y-110469489D01*
X226184681Y-110512716D01*
X226182858Y-110526561D01*
X226182858Y-110526570D01*
X226181867Y-110534096D01*
X226184538Y-110558287D01*
X226194731Y-110650613D01*
X226198746Y-110686983D01*
X226201355Y-110694114D01*
X226201356Y-110694116D01*
X226208463Y-110713535D01*
X226251606Y-110831430D01*
X226255842Y-110837733D01*
X226255842Y-110837734D01*
X226333162Y-110952799D01*
X226333165Y-110952802D01*
X226337396Y-110959099D01*
X226451163Y-111062619D01*
X226586338Y-111136013D01*
X226735119Y-111175045D01*
X226814938Y-111176299D01*
X226881318Y-111177342D01*
X226881321Y-111177342D01*
X226888916Y-111177461D01*
X226896320Y-111175765D01*
X226896322Y-111175765D01*
X226951589Y-111163107D01*
X227038849Y-111143122D01*
X227084952Y-111119935D01*
X227169481Y-111077422D01*
X227169484Y-111077420D01*
X227176264Y-111074010D01*
X227293226Y-110974114D01*
X227382983Y-110849203D01*
X227440355Y-110706488D01*
X227462028Y-110554207D01*
X227462168Y-110540800D01*
X227460875Y-110530108D01*
X227451315Y-110451115D01*
X227443689Y-110388099D01*
X227389319Y-110244213D01*
X227302197Y-110117449D01*
X227187353Y-110015127D01*
X227180637Y-110011571D01*
X227058131Y-109946707D01*
X227058128Y-109946706D01*
X227051416Y-109943152D01*
X226902234Y-109905680D01*
X226894636Y-109905640D01*
X226894634Y-109905640D01*
X226777281Y-109905026D01*
X226709265Y-109884668D01*
X226688845Y-109868123D01*
X223480716Y-106659993D01*
X223446690Y-106597681D01*
X223443811Y-106570898D01*
X223443811Y-99901051D01*
X223446398Y-99876735D01*
X223446465Y-99875312D01*
X223448657Y-99865131D01*
X223444684Y-99831563D01*
X223444332Y-99825589D01*
X223444239Y-99825597D01*
X223443811Y-99820419D01*
X223443811Y-99815219D01*
X223442957Y-99810087D01*
X223440625Y-99796076D01*
X223439788Y-99790197D01*
X223434953Y-99749344D01*
X223434953Y-99749343D01*
X223433729Y-99739004D01*
X223429744Y-99730705D01*
X223428233Y-99721628D01*
X223403753Y-99676260D01*
X223401072Y-99670997D01*
X223382184Y-99631661D01*
X223382181Y-99631657D01*
X223378751Y-99624513D01*
X223375141Y-99620219D01*
X223373209Y-99618287D01*
X223371422Y-99616338D01*
X223371393Y-99616285D01*
X223371523Y-99616166D01*
X223371022Y-99615598D01*
X223367923Y-99609854D01*
X223328101Y-99573043D01*
X223324536Y-99569614D01*
X209165198Y-85410275D01*
X209131172Y-85347963D01*
X209134980Y-85280679D01*
X209178928Y-85151214D01*
X209178929Y-85151209D01*
X209180784Y-85145745D01*
X209181612Y-85140036D01*
X209181613Y-85140031D01*
X209209379Y-84948527D01*
X209209912Y-84944853D01*
X209211432Y-84886800D01*
X209208764Y-84857764D01*
X209533348Y-84857764D01*
X209546624Y-85060322D01*
X209548045Y-85065918D01*
X209548046Y-85065923D01*
X209568319Y-85145745D01*
X209596592Y-85257069D01*
X209599009Y-85262312D01*
X209636210Y-85343008D01*
X209681577Y-85441416D01*
X209798733Y-85607189D01*
X209944138Y-85748835D01*
X210112920Y-85861612D01*
X210118223Y-85863890D01*
X210118226Y-85863892D01*
X210294121Y-85939462D01*
X210299428Y-85941742D01*
X210372444Y-85958264D01*
X210491779Y-85985267D01*
X210491784Y-85985268D01*
X210497416Y-85986542D01*
X210503187Y-85986769D01*
X210503189Y-85986769D01*
X210562956Y-85989117D01*
X210700253Y-85994512D01*
X210807548Y-85978955D01*
X210895431Y-85966213D01*
X210895436Y-85966212D01*
X210901145Y-85965384D01*
X210906609Y-85963529D01*
X210906614Y-85963528D01*
X211087893Y-85901992D01*
X211087898Y-85901990D01*
X211093365Y-85900134D01*
X211270476Y-85800947D01*
X211310169Y-85767935D01*
X211397896Y-85694972D01*
X211426545Y-85671145D01*
X211556347Y-85515076D01*
X211655534Y-85337965D01*
X211657390Y-85332498D01*
X211657392Y-85332493D01*
X211718928Y-85151214D01*
X211718929Y-85151209D01*
X211720784Y-85145745D01*
X211721612Y-85140036D01*
X211721613Y-85140031D01*
X211749379Y-84948527D01*
X211749912Y-84944853D01*
X211751432Y-84886800D01*
X211748764Y-84857764D01*
X212073348Y-84857764D01*
X212086624Y-85060322D01*
X212088045Y-85065918D01*
X212088046Y-85065923D01*
X212108319Y-85145745D01*
X212136592Y-85257069D01*
X212139009Y-85262312D01*
X212176210Y-85343008D01*
X212221577Y-85441416D01*
X212338733Y-85607189D01*
X212484138Y-85748835D01*
X212652920Y-85861612D01*
X212658223Y-85863890D01*
X212658226Y-85863892D01*
X212834121Y-85939462D01*
X212839428Y-85941742D01*
X212912444Y-85958264D01*
X213031779Y-85985267D01*
X213031784Y-85985268D01*
X213037416Y-85986542D01*
X213043187Y-85986769D01*
X213043189Y-85986769D01*
X213102956Y-85989117D01*
X213240253Y-85994512D01*
X213347548Y-85978955D01*
X213435431Y-85966213D01*
X213435436Y-85966212D01*
X213441145Y-85965384D01*
X213446609Y-85963529D01*
X213446614Y-85963528D01*
X213627893Y-85901992D01*
X213627898Y-85901990D01*
X213633365Y-85900134D01*
X213810476Y-85800947D01*
X213850169Y-85767935D01*
X213937896Y-85694972D01*
X213966545Y-85671145D01*
X214096347Y-85515076D01*
X214195534Y-85337965D01*
X214197390Y-85332498D01*
X214197392Y-85332493D01*
X214258928Y-85151214D01*
X214258929Y-85151209D01*
X214260784Y-85145745D01*
X214261612Y-85140036D01*
X214261613Y-85140031D01*
X214289379Y-84948527D01*
X214289912Y-84944853D01*
X214291432Y-84886800D01*
X214288764Y-84857764D01*
X214613348Y-84857764D01*
X214626624Y-85060322D01*
X214628045Y-85065918D01*
X214628046Y-85065923D01*
X214648319Y-85145745D01*
X214676592Y-85257069D01*
X214679009Y-85262312D01*
X214716210Y-85343008D01*
X214761577Y-85441416D01*
X214878733Y-85607189D01*
X215024138Y-85748835D01*
X215192920Y-85861612D01*
X215198223Y-85863890D01*
X215198226Y-85863892D01*
X215374121Y-85939462D01*
X215379428Y-85941742D01*
X215452444Y-85958264D01*
X215571779Y-85985267D01*
X215571784Y-85985268D01*
X215577416Y-85986542D01*
X215583187Y-85986769D01*
X215583189Y-85986769D01*
X215642956Y-85989117D01*
X215780253Y-85994512D01*
X215887548Y-85978955D01*
X215975431Y-85966213D01*
X215975436Y-85966212D01*
X215981145Y-85965384D01*
X215986609Y-85963529D01*
X215986614Y-85963528D01*
X216167893Y-85901992D01*
X216167898Y-85901990D01*
X216173365Y-85900134D01*
X216350476Y-85800947D01*
X216390169Y-85767935D01*
X216477896Y-85694972D01*
X216506545Y-85671145D01*
X216636347Y-85515076D01*
X216735534Y-85337965D01*
X216737390Y-85332498D01*
X216737392Y-85332493D01*
X216798928Y-85151214D01*
X216798929Y-85151209D01*
X216800784Y-85145745D01*
X216801612Y-85140036D01*
X216801613Y-85140031D01*
X216829379Y-84948527D01*
X216829912Y-84944853D01*
X216831432Y-84886800D01*
X216828764Y-84857764D01*
X217153348Y-84857764D01*
X217166624Y-85060322D01*
X217168045Y-85065918D01*
X217168046Y-85065923D01*
X217188319Y-85145745D01*
X217216592Y-85257069D01*
X217219009Y-85262312D01*
X217256210Y-85343008D01*
X217301577Y-85441416D01*
X217418733Y-85607189D01*
X217564138Y-85748835D01*
X217732920Y-85861612D01*
X217738223Y-85863890D01*
X217738226Y-85863892D01*
X217914121Y-85939462D01*
X217919428Y-85941742D01*
X217992444Y-85958264D01*
X218111779Y-85985267D01*
X218111784Y-85985268D01*
X218117416Y-85986542D01*
X218123187Y-85986769D01*
X218123189Y-85986769D01*
X218182956Y-85989117D01*
X218320253Y-85994512D01*
X218427548Y-85978955D01*
X218515431Y-85966213D01*
X218515436Y-85966212D01*
X218521145Y-85965384D01*
X218526609Y-85963529D01*
X218526614Y-85963528D01*
X218707893Y-85901992D01*
X218707898Y-85901990D01*
X218713365Y-85900134D01*
X218890476Y-85800947D01*
X218930169Y-85767935D01*
X219017896Y-85694972D01*
X219046545Y-85671145D01*
X219176347Y-85515076D01*
X219275534Y-85337965D01*
X219277390Y-85332498D01*
X219277392Y-85332493D01*
X219338928Y-85151214D01*
X219338929Y-85151209D01*
X219340784Y-85145745D01*
X219341612Y-85140036D01*
X219341613Y-85140031D01*
X219369379Y-84948527D01*
X219369912Y-84944853D01*
X219371432Y-84886800D01*
X219368764Y-84857764D01*
X219693348Y-84857764D01*
X219706624Y-85060322D01*
X219708045Y-85065918D01*
X219708046Y-85065923D01*
X219728319Y-85145745D01*
X219756592Y-85257069D01*
X219759009Y-85262312D01*
X219796210Y-85343008D01*
X219841577Y-85441416D01*
X219958733Y-85607189D01*
X220104138Y-85748835D01*
X220272920Y-85861612D01*
X220278223Y-85863890D01*
X220278226Y-85863892D01*
X220454121Y-85939462D01*
X220459428Y-85941742D01*
X220532444Y-85958264D01*
X220651779Y-85985267D01*
X220651784Y-85985268D01*
X220657416Y-85986542D01*
X220663187Y-85986769D01*
X220663189Y-85986769D01*
X220722956Y-85989117D01*
X220860253Y-85994512D01*
X220967548Y-85978955D01*
X221055431Y-85966213D01*
X221055436Y-85966212D01*
X221061145Y-85965384D01*
X221066609Y-85963529D01*
X221066614Y-85963528D01*
X221247893Y-85901992D01*
X221247898Y-85901990D01*
X221253365Y-85900134D01*
X221430476Y-85800947D01*
X221470169Y-85767935D01*
X221557896Y-85694972D01*
X221586545Y-85671145D01*
X221716347Y-85515076D01*
X221815534Y-85337965D01*
X221817390Y-85332498D01*
X221817392Y-85332493D01*
X221878928Y-85151214D01*
X221878929Y-85151209D01*
X221880784Y-85145745D01*
X221881612Y-85140036D01*
X221881613Y-85140031D01*
X221909379Y-84948527D01*
X221909912Y-84944853D01*
X221911432Y-84886800D01*
X221892858Y-84684659D01*
X221891290Y-84679099D01*
X221839325Y-84494846D01*
X221839324Y-84494844D01*
X221837757Y-84489287D01*
X221827178Y-84467833D01*
X221750531Y-84312409D01*
X221747976Y-84307228D01*
X221626520Y-84144579D01*
X221482809Y-84011733D01*
X222237700Y-84011733D01*
X222237701Y-85761866D01*
X222252466Y-85836101D01*
X222259361Y-85846420D01*
X222259362Y-85846422D01*
X222297500Y-85903498D01*
X222308716Y-85920284D01*
X222392899Y-85976534D01*
X222467133Y-85991300D01*
X223342058Y-85991300D01*
X224217266Y-85991299D01*
X224253018Y-85984188D01*
X224279326Y-85978956D01*
X224279328Y-85978955D01*
X224291501Y-85976534D01*
X224301821Y-85969639D01*
X224301822Y-85969638D01*
X224365368Y-85927177D01*
X224375684Y-85920284D01*
X224431934Y-85836101D01*
X224446700Y-85761867D01*
X224446699Y-84011734D01*
X224431934Y-83937499D01*
X224405854Y-83898467D01*
X224382577Y-83863632D01*
X224375684Y-83853316D01*
X224291501Y-83797066D01*
X224217267Y-83782300D01*
X223342342Y-83782300D01*
X222467134Y-83782301D01*
X222431382Y-83789412D01*
X222405074Y-83794644D01*
X222405072Y-83794645D01*
X222392899Y-83797066D01*
X222382579Y-83803961D01*
X222382578Y-83803962D01*
X222322185Y-83844316D01*
X222308716Y-83853316D01*
X222252466Y-83937499D01*
X222237700Y-84011733D01*
X221482809Y-84011733D01*
X221477458Y-84006787D01*
X221472575Y-84003706D01*
X221472571Y-84003703D01*
X221310664Y-83901548D01*
X221305781Y-83898467D01*
X221117239Y-83823246D01*
X221111579Y-83822120D01*
X221111575Y-83822119D01*
X220923813Y-83784771D01*
X220923810Y-83784771D01*
X220918146Y-83783644D01*
X220912371Y-83783568D01*
X220912367Y-83783568D01*
X220810993Y-83782241D01*
X220715171Y-83780987D01*
X220709474Y-83781966D01*
X220709473Y-83781966D01*
X220621597Y-83797066D01*
X220515110Y-83815364D01*
X220324663Y-83885624D01*
X220150210Y-83989412D01*
X220145870Y-83993218D01*
X220145866Y-83993221D01*
X220001933Y-84119448D01*
X219997592Y-84123255D01*
X219871920Y-84282669D01*
X219869231Y-84287780D01*
X219869229Y-84287783D01*
X219856273Y-84312409D01*
X219777403Y-84462315D01*
X219717207Y-84656178D01*
X219693348Y-84857764D01*
X219368764Y-84857764D01*
X219352858Y-84684659D01*
X219351290Y-84679099D01*
X219299325Y-84494846D01*
X219299324Y-84494844D01*
X219297757Y-84489287D01*
X219287178Y-84467833D01*
X219210531Y-84312409D01*
X219207976Y-84307228D01*
X219086520Y-84144579D01*
X218937458Y-84006787D01*
X218932575Y-84003706D01*
X218932571Y-84003703D01*
X218770664Y-83901548D01*
X218765781Y-83898467D01*
X218577239Y-83823246D01*
X218571579Y-83822120D01*
X218571575Y-83822119D01*
X218383813Y-83784771D01*
X218383810Y-83784771D01*
X218378146Y-83783644D01*
X218372371Y-83783568D01*
X218372367Y-83783568D01*
X218270993Y-83782241D01*
X218175171Y-83780987D01*
X218169474Y-83781966D01*
X218169473Y-83781966D01*
X218081597Y-83797066D01*
X217975110Y-83815364D01*
X217784663Y-83885624D01*
X217610210Y-83989412D01*
X217605870Y-83993218D01*
X217605866Y-83993221D01*
X217461933Y-84119448D01*
X217457592Y-84123255D01*
X217331920Y-84282669D01*
X217329231Y-84287780D01*
X217329229Y-84287783D01*
X217316273Y-84312409D01*
X217237403Y-84462315D01*
X217177207Y-84656178D01*
X217153348Y-84857764D01*
X216828764Y-84857764D01*
X216812858Y-84684659D01*
X216811290Y-84679099D01*
X216759325Y-84494846D01*
X216759324Y-84494844D01*
X216757757Y-84489287D01*
X216747178Y-84467833D01*
X216670531Y-84312409D01*
X216667976Y-84307228D01*
X216546520Y-84144579D01*
X216397458Y-84006787D01*
X216392575Y-84003706D01*
X216392571Y-84003703D01*
X216230664Y-83901548D01*
X216225781Y-83898467D01*
X216037239Y-83823246D01*
X216031579Y-83822120D01*
X216031575Y-83822119D01*
X215843813Y-83784771D01*
X215843810Y-83784771D01*
X215838146Y-83783644D01*
X215832371Y-83783568D01*
X215832367Y-83783568D01*
X215730993Y-83782241D01*
X215635171Y-83780987D01*
X215629474Y-83781966D01*
X215629473Y-83781966D01*
X215541597Y-83797066D01*
X215435110Y-83815364D01*
X215244663Y-83885624D01*
X215070210Y-83989412D01*
X215065870Y-83993218D01*
X215065866Y-83993221D01*
X214921933Y-84119448D01*
X214917592Y-84123255D01*
X214791920Y-84282669D01*
X214789231Y-84287780D01*
X214789229Y-84287783D01*
X214776273Y-84312409D01*
X214697403Y-84462315D01*
X214637207Y-84656178D01*
X214613348Y-84857764D01*
X214288764Y-84857764D01*
X214272858Y-84684659D01*
X214271290Y-84679099D01*
X214219325Y-84494846D01*
X214219324Y-84494844D01*
X214217757Y-84489287D01*
X214207178Y-84467833D01*
X214130531Y-84312409D01*
X214127976Y-84307228D01*
X214006520Y-84144579D01*
X213857458Y-84006787D01*
X213852575Y-84003706D01*
X213852571Y-84003703D01*
X213690664Y-83901548D01*
X213685781Y-83898467D01*
X213497239Y-83823246D01*
X213491579Y-83822120D01*
X213491575Y-83822119D01*
X213303813Y-83784771D01*
X213303810Y-83784771D01*
X213298146Y-83783644D01*
X213292371Y-83783568D01*
X213292367Y-83783568D01*
X213190993Y-83782241D01*
X213095171Y-83780987D01*
X213089474Y-83781966D01*
X213089473Y-83781966D01*
X213001597Y-83797066D01*
X212895110Y-83815364D01*
X212704663Y-83885624D01*
X212530210Y-83989412D01*
X212525870Y-83993218D01*
X212525866Y-83993221D01*
X212381933Y-84119448D01*
X212377592Y-84123255D01*
X212251920Y-84282669D01*
X212249231Y-84287780D01*
X212249229Y-84287783D01*
X212236273Y-84312409D01*
X212157403Y-84462315D01*
X212097207Y-84656178D01*
X212073348Y-84857764D01*
X211748764Y-84857764D01*
X211732858Y-84684659D01*
X211731290Y-84679099D01*
X211679325Y-84494846D01*
X211679324Y-84494844D01*
X211677757Y-84489287D01*
X211667178Y-84467833D01*
X211590531Y-84312409D01*
X211587976Y-84307228D01*
X211466520Y-84144579D01*
X211317458Y-84006787D01*
X211312575Y-84003706D01*
X211312571Y-84003703D01*
X211150664Y-83901548D01*
X211145781Y-83898467D01*
X210957239Y-83823246D01*
X210951579Y-83822120D01*
X210951575Y-83822119D01*
X210763813Y-83784771D01*
X210763810Y-83784771D01*
X210758146Y-83783644D01*
X210752371Y-83783568D01*
X210752367Y-83783568D01*
X210650993Y-83782241D01*
X210555171Y-83780987D01*
X210549474Y-83781966D01*
X210549473Y-83781966D01*
X210461597Y-83797066D01*
X210355110Y-83815364D01*
X210164663Y-83885624D01*
X209990210Y-83989412D01*
X209985870Y-83993218D01*
X209985866Y-83993221D01*
X209841933Y-84119448D01*
X209837592Y-84123255D01*
X209711920Y-84282669D01*
X209709231Y-84287780D01*
X209709229Y-84287783D01*
X209696273Y-84312409D01*
X209617403Y-84462315D01*
X209557207Y-84656178D01*
X209533348Y-84857764D01*
X209208764Y-84857764D01*
X209192858Y-84684659D01*
X209191290Y-84679099D01*
X209139325Y-84494846D01*
X209139324Y-84494844D01*
X209137757Y-84489287D01*
X209127178Y-84467833D01*
X209050531Y-84312409D01*
X209047976Y-84307228D01*
X208926520Y-84144579D01*
X208777458Y-84006787D01*
X208772575Y-84003706D01*
X208772571Y-84003703D01*
X208610664Y-83901548D01*
X208605781Y-83898467D01*
X208417239Y-83823246D01*
X208411579Y-83822120D01*
X208411575Y-83822119D01*
X208223813Y-83784771D01*
X208223810Y-83784771D01*
X208218146Y-83783644D01*
X208212371Y-83783568D01*
X208212367Y-83783568D01*
X208110993Y-83782241D01*
X208015171Y-83780987D01*
X208009474Y-83781966D01*
X208009473Y-83781966D01*
X207921597Y-83797066D01*
X207815110Y-83815364D01*
X207624663Y-83885624D01*
X207450210Y-83989412D01*
X207445870Y-83993218D01*
X207445866Y-83993221D01*
X207301933Y-84119448D01*
X207297592Y-84123255D01*
X207171920Y-84282669D01*
X207169231Y-84287780D01*
X207169229Y-84287783D01*
X207156273Y-84312409D01*
X207077403Y-84462315D01*
X207017207Y-84656178D01*
X206993348Y-84857764D01*
X206668764Y-84857764D01*
X206652858Y-84684659D01*
X206651290Y-84679099D01*
X206599325Y-84494846D01*
X206599324Y-84494844D01*
X206597757Y-84489287D01*
X206587178Y-84467833D01*
X206510531Y-84312409D01*
X206507976Y-84307228D01*
X206386520Y-84144579D01*
X206237458Y-84006787D01*
X206232575Y-84003706D01*
X206232571Y-84003703D01*
X206070664Y-83901548D01*
X206065781Y-83898467D01*
X205877239Y-83823246D01*
X205871579Y-83822120D01*
X205871575Y-83822119D01*
X205683813Y-83784771D01*
X205683810Y-83784771D01*
X205678146Y-83783644D01*
X205672371Y-83783568D01*
X205672367Y-83783568D01*
X205570993Y-83782241D01*
X205475171Y-83780987D01*
X205469474Y-83781966D01*
X205469473Y-83781966D01*
X205381597Y-83797066D01*
X205275110Y-83815364D01*
X205084663Y-83885624D01*
X204910210Y-83989412D01*
X204905870Y-83993218D01*
X204905866Y-83993221D01*
X204761933Y-84119448D01*
X204757592Y-84123255D01*
X204631920Y-84282669D01*
X204629231Y-84287780D01*
X204629229Y-84287783D01*
X204616273Y-84312409D01*
X204537403Y-84462315D01*
X204477207Y-84656178D01*
X204453348Y-84857764D01*
X204128764Y-84857764D01*
X204112858Y-84684659D01*
X204111290Y-84679099D01*
X204059325Y-84494846D01*
X204059324Y-84494844D01*
X204057757Y-84489287D01*
X204047178Y-84467833D01*
X203970531Y-84312409D01*
X203967976Y-84307228D01*
X203846520Y-84144579D01*
X203697458Y-84006787D01*
X203692575Y-84003706D01*
X203692571Y-84003703D01*
X203530664Y-83901548D01*
X203525781Y-83898467D01*
X203337239Y-83823246D01*
X203331579Y-83822120D01*
X203331575Y-83822119D01*
X203143813Y-83784771D01*
X203143810Y-83784771D01*
X203138146Y-83783644D01*
X203132371Y-83783568D01*
X203132367Y-83783568D01*
X203030993Y-83782241D01*
X202935171Y-83780987D01*
X202929474Y-83781966D01*
X202929473Y-83781966D01*
X202841597Y-83797066D01*
X202735110Y-83815364D01*
X202544663Y-83885624D01*
X202370210Y-83989412D01*
X202365870Y-83993218D01*
X202365866Y-83993221D01*
X202221933Y-84119448D01*
X202217592Y-84123255D01*
X202091920Y-84282669D01*
X202089231Y-84287780D01*
X202089229Y-84287783D01*
X202076273Y-84312409D01*
X201997403Y-84462315D01*
X201937207Y-84656178D01*
X201913348Y-84857764D01*
X201588764Y-84857764D01*
X201572858Y-84684659D01*
X201571290Y-84679099D01*
X201519325Y-84494846D01*
X201519324Y-84494844D01*
X201517757Y-84489287D01*
X201507178Y-84467833D01*
X201430531Y-84312409D01*
X201427976Y-84307228D01*
X201306520Y-84144579D01*
X201157458Y-84006787D01*
X201152575Y-84003706D01*
X201152571Y-84003703D01*
X200990664Y-83901548D01*
X200985781Y-83898467D01*
X200797239Y-83823246D01*
X200791579Y-83822120D01*
X200791575Y-83822119D01*
X200603813Y-83784771D01*
X200603810Y-83784771D01*
X200598146Y-83783644D01*
X200592371Y-83783568D01*
X200592367Y-83783568D01*
X200490993Y-83782241D01*
X200395171Y-83780987D01*
X200389474Y-83781966D01*
X200389473Y-83781966D01*
X200301597Y-83797066D01*
X200195110Y-83815364D01*
X200004663Y-83885624D01*
X199830210Y-83989412D01*
X199825870Y-83993218D01*
X199825866Y-83993221D01*
X199681933Y-84119448D01*
X199677592Y-84123255D01*
X199551920Y-84282669D01*
X199549231Y-84287780D01*
X199549229Y-84287783D01*
X199536273Y-84312409D01*
X199457403Y-84462315D01*
X199397207Y-84656178D01*
X199373348Y-84857764D01*
X199048764Y-84857764D01*
X199032858Y-84684659D01*
X199031290Y-84679099D01*
X198979325Y-84494846D01*
X198979324Y-84494844D01*
X198977757Y-84489287D01*
X198967178Y-84467833D01*
X198890531Y-84312409D01*
X198887976Y-84307228D01*
X198766520Y-84144579D01*
X198617458Y-84006787D01*
X198612575Y-84003706D01*
X198612571Y-84003703D01*
X198450664Y-83901548D01*
X198445781Y-83898467D01*
X198257239Y-83823246D01*
X198251579Y-83822120D01*
X198251575Y-83822119D01*
X198063813Y-83784771D01*
X198063810Y-83784771D01*
X198058146Y-83783644D01*
X198052371Y-83783568D01*
X198052367Y-83783568D01*
X197950993Y-83782241D01*
X197855171Y-83780987D01*
X197849474Y-83781966D01*
X197849473Y-83781966D01*
X197761597Y-83797066D01*
X197655110Y-83815364D01*
X197464663Y-83885624D01*
X197290210Y-83989412D01*
X197285870Y-83993218D01*
X197285866Y-83993221D01*
X197141933Y-84119448D01*
X197137592Y-84123255D01*
X197011920Y-84282669D01*
X197009231Y-84287780D01*
X197009229Y-84287783D01*
X196996273Y-84312409D01*
X196917403Y-84462315D01*
X196857207Y-84656178D01*
X196833348Y-84857764D01*
X196508764Y-84857764D01*
X196492858Y-84684659D01*
X196491290Y-84679099D01*
X196439325Y-84494846D01*
X196439324Y-84494844D01*
X196437757Y-84489287D01*
X196427178Y-84467833D01*
X196350531Y-84312409D01*
X196347976Y-84307228D01*
X196226520Y-84144579D01*
X196077458Y-84006787D01*
X196072575Y-84003706D01*
X196072571Y-84003703D01*
X195910664Y-83901548D01*
X195905781Y-83898467D01*
X195717239Y-83823246D01*
X195711579Y-83822120D01*
X195711575Y-83822119D01*
X195523813Y-83784771D01*
X195523810Y-83784771D01*
X195518146Y-83783644D01*
X195512371Y-83783568D01*
X195512367Y-83783568D01*
X195410993Y-83782241D01*
X195315171Y-83780987D01*
X195309474Y-83781966D01*
X195309473Y-83781966D01*
X195221597Y-83797066D01*
X195115110Y-83815364D01*
X194924663Y-83885624D01*
X194750210Y-83989412D01*
X194745870Y-83993218D01*
X194745866Y-83993221D01*
X194601933Y-84119448D01*
X194597592Y-84123255D01*
X194471920Y-84282669D01*
X194469231Y-84287780D01*
X194469229Y-84287783D01*
X194379789Y-84457780D01*
X194330370Y-84508752D01*
X194261237Y-84524915D01*
X194194341Y-84501136D01*
X194154203Y-84446773D01*
X194152155Y-84447663D01*
X194065172Y-84247614D01*
X194060305Y-84238539D01*
X193944626Y-84059726D01*
X193938336Y-84051557D01*
X193795006Y-83894040D01*
X193787473Y-83887015D01*
X193620339Y-83755022D01*
X193611752Y-83749317D01*
X193425317Y-83646399D01*
X193415905Y-83642169D01*
X193215159Y-83571080D01*
X193205188Y-83568446D01*
X193134037Y-83555772D01*
X193120740Y-83557232D01*
X193116200Y-83571789D01*
X193116200Y-86205317D01*
X192608200Y-86205317D01*
X192608200Y-83569902D01*
X192604282Y-83556558D01*
X192590006Y-83554571D01*
X192551524Y-83560460D01*
X192541488Y-83562851D01*
X192339068Y-83629012D01*
X192329559Y-83633009D01*
X192140663Y-83731342D01*
X192131938Y-83736836D01*
X191961633Y-83864705D01*
X191953926Y-83871548D01*
X191806790Y-84025517D01*
X191800304Y-84033527D01*
X191680298Y-84209449D01*
X191675200Y-84218423D01*
X191585538Y-84411583D01*
X191581977Y-84421264D01*
X191577491Y-84437440D01*
X191540013Y-84497739D01*
X191475884Y-84528203D01*
X191405466Y-84519160D01*
X191351115Y-84473482D01*
X191343067Y-84459498D01*
X191270531Y-84312409D01*
X191267976Y-84307228D01*
X191146520Y-84144579D01*
X190997458Y-84006787D01*
X190992575Y-84003706D01*
X190992571Y-84003703D01*
X190830664Y-83901548D01*
X190825781Y-83898467D01*
X190637239Y-83823246D01*
X190631579Y-83822120D01*
X190631575Y-83822119D01*
X190443813Y-83784771D01*
X190443810Y-83784771D01*
X190438146Y-83783644D01*
X190432371Y-83783568D01*
X190432367Y-83783568D01*
X190330993Y-83782241D01*
X190235171Y-83780987D01*
X190229474Y-83781966D01*
X190229473Y-83781966D01*
X190141597Y-83797066D01*
X190035110Y-83815364D01*
X189844663Y-83885624D01*
X189670210Y-83989412D01*
X189665870Y-83993218D01*
X189665866Y-83993221D01*
X189521933Y-84119448D01*
X189517592Y-84123255D01*
X189391920Y-84282669D01*
X189389231Y-84287780D01*
X189389229Y-84287783D01*
X189376273Y-84312409D01*
X189297403Y-84462315D01*
X189237207Y-84656178D01*
X189213348Y-84857764D01*
X188888764Y-84857764D01*
X188872858Y-84684659D01*
X188871290Y-84679099D01*
X188819325Y-84494846D01*
X188819324Y-84494844D01*
X188817757Y-84489287D01*
X188807178Y-84467833D01*
X188730531Y-84312409D01*
X188727976Y-84307228D01*
X188606520Y-84144579D01*
X188457458Y-84006787D01*
X188452575Y-84003706D01*
X188452571Y-84003703D01*
X188290664Y-83901548D01*
X188285781Y-83898467D01*
X188097239Y-83823246D01*
X188091579Y-83822120D01*
X188091575Y-83822119D01*
X187903813Y-83784771D01*
X187903810Y-83784771D01*
X187898146Y-83783644D01*
X187892371Y-83783568D01*
X187892367Y-83783568D01*
X187790993Y-83782241D01*
X187695171Y-83780987D01*
X187689474Y-83781966D01*
X187689473Y-83781966D01*
X187601597Y-83797066D01*
X187495110Y-83815364D01*
X187304663Y-83885624D01*
X187130210Y-83989412D01*
X187125870Y-83993218D01*
X187125866Y-83993221D01*
X186981933Y-84119448D01*
X186977592Y-84123255D01*
X186851920Y-84282669D01*
X186849231Y-84287780D01*
X186849229Y-84287783D01*
X186836273Y-84312409D01*
X186757403Y-84462315D01*
X186697207Y-84656178D01*
X186673348Y-84857764D01*
X186348764Y-84857764D01*
X186332858Y-84684659D01*
X186331290Y-84679099D01*
X186279325Y-84494846D01*
X186279324Y-84494844D01*
X186277757Y-84489287D01*
X186267178Y-84467833D01*
X186190531Y-84312409D01*
X186187976Y-84307228D01*
X186066520Y-84144579D01*
X185917458Y-84006787D01*
X185912575Y-84003706D01*
X185912571Y-84003703D01*
X185750664Y-83901548D01*
X185745781Y-83898467D01*
X185557239Y-83823246D01*
X185551579Y-83822120D01*
X185551575Y-83822119D01*
X185363813Y-83784771D01*
X185363810Y-83784771D01*
X185358146Y-83783644D01*
X185352371Y-83783568D01*
X185352367Y-83783568D01*
X185250993Y-83782241D01*
X185155171Y-83780987D01*
X185149474Y-83781966D01*
X185149473Y-83781966D01*
X185061597Y-83797066D01*
X184955110Y-83815364D01*
X184764663Y-83885624D01*
X184590210Y-83989412D01*
X184585870Y-83993218D01*
X184585866Y-83993221D01*
X184441933Y-84119448D01*
X184437592Y-84123255D01*
X184311920Y-84282669D01*
X184309231Y-84287780D01*
X184309229Y-84287783D01*
X184296273Y-84312409D01*
X184217403Y-84462315D01*
X184157207Y-84656178D01*
X184133348Y-84857764D01*
X182677300Y-84857764D01*
X182677300Y-83143017D01*
X182697302Y-83074896D01*
X182714205Y-83053922D01*
X200095969Y-65672159D01*
X200158281Y-65638133D01*
X200212871Y-65638361D01*
X200325071Y-65663749D01*
X200337416Y-65666542D01*
X200343187Y-65666769D01*
X200343189Y-65666769D01*
X200402956Y-65669117D01*
X200540253Y-65674512D01*
X200647548Y-65658955D01*
X200735431Y-65646213D01*
X200735436Y-65646212D01*
X200741145Y-65645384D01*
X200746609Y-65643529D01*
X200746614Y-65643528D01*
X200927893Y-65581992D01*
X200927898Y-65581990D01*
X200933365Y-65580134D01*
X201110476Y-65480947D01*
X201150169Y-65447935D01*
X201262113Y-65354831D01*
X201266545Y-65351145D01*
X201377411Y-65217844D01*
X201392653Y-65199518D01*
X201392655Y-65199515D01*
X201396347Y-65195076D01*
X201495534Y-65017965D01*
X201497390Y-65012498D01*
X201497392Y-65012493D01*
X201558928Y-64831214D01*
X201558929Y-64831209D01*
X201560784Y-64825745D01*
X201561612Y-64820036D01*
X201561613Y-64820031D01*
X201589379Y-64628527D01*
X201589912Y-64624853D01*
X201591432Y-64566800D01*
X201588764Y-64537764D01*
X201913348Y-64537764D01*
X201926624Y-64740322D01*
X201928045Y-64745918D01*
X201928046Y-64745923D01*
X201968105Y-64903653D01*
X201976592Y-64937069D01*
X201979009Y-64942312D01*
X202016208Y-65023003D01*
X202061577Y-65121416D01*
X202064910Y-65126132D01*
X202126146Y-65212779D01*
X202178733Y-65287189D01*
X202324138Y-65428835D01*
X202492920Y-65541612D01*
X202498223Y-65543890D01*
X202498226Y-65543892D01*
X202629483Y-65600284D01*
X202679428Y-65621742D01*
X202743611Y-65636265D01*
X202871779Y-65665267D01*
X202871784Y-65665268D01*
X202877416Y-65666542D01*
X202883187Y-65666769D01*
X202883189Y-65666769D01*
X202942956Y-65669117D01*
X203080253Y-65674512D01*
X203187548Y-65658955D01*
X203275431Y-65646213D01*
X203275436Y-65646212D01*
X203281145Y-65645384D01*
X203286609Y-65643529D01*
X203286614Y-65643528D01*
X203467893Y-65581992D01*
X203467898Y-65581990D01*
X203473365Y-65580134D01*
X203650476Y-65480947D01*
X203690169Y-65447935D01*
X203802113Y-65354831D01*
X203806545Y-65351145D01*
X203917411Y-65217844D01*
X203932653Y-65199518D01*
X203932655Y-65199515D01*
X203936347Y-65195076D01*
X204035534Y-65017965D01*
X204037390Y-65012498D01*
X204037392Y-65012493D01*
X204098928Y-64831214D01*
X204098929Y-64831209D01*
X204100784Y-64825745D01*
X204101612Y-64820036D01*
X204101613Y-64820031D01*
X204129379Y-64628527D01*
X204129912Y-64624853D01*
X204131432Y-64566800D01*
X204128764Y-64537764D01*
X204453348Y-64537764D01*
X204466624Y-64740322D01*
X204468045Y-64745918D01*
X204468046Y-64745923D01*
X204508105Y-64903653D01*
X204516592Y-64937069D01*
X204519009Y-64942312D01*
X204556208Y-65023003D01*
X204601577Y-65121416D01*
X204604910Y-65126132D01*
X204666146Y-65212779D01*
X204718733Y-65287189D01*
X204864138Y-65428835D01*
X205032920Y-65541612D01*
X205038223Y-65543890D01*
X205038226Y-65543892D01*
X205169483Y-65600284D01*
X205219428Y-65621742D01*
X205283611Y-65636265D01*
X205411779Y-65665267D01*
X205411784Y-65665268D01*
X205417416Y-65666542D01*
X205423187Y-65666769D01*
X205423189Y-65666769D01*
X205482956Y-65669117D01*
X205620253Y-65674512D01*
X205727548Y-65658955D01*
X205815431Y-65646213D01*
X205815436Y-65646212D01*
X205821145Y-65645384D01*
X205826609Y-65643529D01*
X205826614Y-65643528D01*
X206007893Y-65581992D01*
X206007898Y-65581990D01*
X206013365Y-65580134D01*
X206190476Y-65480947D01*
X206230169Y-65447935D01*
X206342113Y-65354831D01*
X206346545Y-65351145D01*
X206457411Y-65217844D01*
X206472653Y-65199518D01*
X206472655Y-65199515D01*
X206476347Y-65195076D01*
X206575534Y-65017965D01*
X206577390Y-65012498D01*
X206577392Y-65012493D01*
X206638928Y-64831214D01*
X206638929Y-64831209D01*
X206640784Y-64825745D01*
X206641612Y-64820036D01*
X206641613Y-64820031D01*
X206669379Y-64628527D01*
X206669912Y-64624853D01*
X206671432Y-64566800D01*
X206668764Y-64537764D01*
X206993348Y-64537764D01*
X207006624Y-64740322D01*
X207008045Y-64745918D01*
X207008046Y-64745923D01*
X207048105Y-64903653D01*
X207056592Y-64937069D01*
X207059009Y-64942312D01*
X207096208Y-65023003D01*
X207141577Y-65121416D01*
X207144910Y-65126132D01*
X207206146Y-65212779D01*
X207258733Y-65287189D01*
X207404138Y-65428835D01*
X207572920Y-65541612D01*
X207578223Y-65543890D01*
X207578226Y-65543892D01*
X207709483Y-65600284D01*
X207759428Y-65621742D01*
X207823611Y-65636265D01*
X207951779Y-65665267D01*
X207951784Y-65665268D01*
X207957416Y-65666542D01*
X207963187Y-65666769D01*
X207963189Y-65666769D01*
X208022956Y-65669117D01*
X208160253Y-65674512D01*
X208267548Y-65658955D01*
X208355431Y-65646213D01*
X208355436Y-65646212D01*
X208361145Y-65645384D01*
X208366609Y-65643529D01*
X208366614Y-65643528D01*
X208547893Y-65581992D01*
X208547898Y-65581990D01*
X208553365Y-65580134D01*
X208730476Y-65480947D01*
X208770169Y-65447935D01*
X208882113Y-65354831D01*
X208886545Y-65351145D01*
X208997411Y-65217844D01*
X209012653Y-65199518D01*
X209012655Y-65199515D01*
X209016347Y-65195076D01*
X209115534Y-65017965D01*
X209117390Y-65012498D01*
X209117392Y-65012493D01*
X209178928Y-64831214D01*
X209178929Y-64831209D01*
X209180784Y-64825745D01*
X209181612Y-64820036D01*
X209181613Y-64820031D01*
X209209379Y-64628527D01*
X209209912Y-64624853D01*
X209211432Y-64566800D01*
X209208764Y-64537764D01*
X209533348Y-64537764D01*
X209546624Y-64740322D01*
X209548045Y-64745918D01*
X209548046Y-64745923D01*
X209588105Y-64903653D01*
X209596592Y-64937069D01*
X209599009Y-64942312D01*
X209636208Y-65023003D01*
X209681577Y-65121416D01*
X209684910Y-65126132D01*
X209746146Y-65212779D01*
X209798733Y-65287189D01*
X209944138Y-65428835D01*
X210112920Y-65541612D01*
X210118223Y-65543890D01*
X210118226Y-65543892D01*
X210249483Y-65600284D01*
X210299428Y-65621742D01*
X210363611Y-65636265D01*
X210491779Y-65665267D01*
X210491784Y-65665268D01*
X210497416Y-65666542D01*
X210503187Y-65666769D01*
X210503189Y-65666769D01*
X210562956Y-65669117D01*
X210700253Y-65674512D01*
X210807548Y-65658955D01*
X210895431Y-65646213D01*
X210895436Y-65646212D01*
X210901145Y-65645384D01*
X210906609Y-65643529D01*
X210906614Y-65643528D01*
X211087893Y-65581992D01*
X211087898Y-65581990D01*
X211093365Y-65580134D01*
X211270476Y-65480947D01*
X211310169Y-65447935D01*
X211422113Y-65354831D01*
X211426545Y-65351145D01*
X211537411Y-65217844D01*
X211552653Y-65199518D01*
X211552655Y-65199515D01*
X211556347Y-65195076D01*
X211655534Y-65017965D01*
X211657390Y-65012498D01*
X211657392Y-65012493D01*
X211718928Y-64831214D01*
X211718929Y-64831209D01*
X211720784Y-64825745D01*
X211721612Y-64820036D01*
X211721613Y-64820031D01*
X211749379Y-64628527D01*
X211749912Y-64624853D01*
X211751432Y-64566800D01*
X211748764Y-64537764D01*
X212073348Y-64537764D01*
X212086624Y-64740322D01*
X212088045Y-64745918D01*
X212088046Y-64745923D01*
X212128105Y-64903653D01*
X212136592Y-64937069D01*
X212139009Y-64942312D01*
X212176208Y-65023003D01*
X212221577Y-65121416D01*
X212224910Y-65126132D01*
X212286146Y-65212779D01*
X212338733Y-65287189D01*
X212484138Y-65428835D01*
X212652920Y-65541612D01*
X212658223Y-65543890D01*
X212658226Y-65543892D01*
X212789483Y-65600284D01*
X212839428Y-65621742D01*
X212903611Y-65636265D01*
X213031779Y-65665267D01*
X213031784Y-65665268D01*
X213037416Y-65666542D01*
X213043187Y-65666769D01*
X213043189Y-65666769D01*
X213102956Y-65669117D01*
X213240253Y-65674512D01*
X213347548Y-65658955D01*
X213435431Y-65646213D01*
X213435436Y-65646212D01*
X213441145Y-65645384D01*
X213446609Y-65643529D01*
X213446614Y-65643528D01*
X213627893Y-65581992D01*
X213627898Y-65581990D01*
X213633365Y-65580134D01*
X213810476Y-65480947D01*
X213850169Y-65447935D01*
X213962113Y-65354831D01*
X213966545Y-65351145D01*
X214077411Y-65217844D01*
X214092653Y-65199518D01*
X214092655Y-65199515D01*
X214096347Y-65195076D01*
X214195534Y-65017965D01*
X214197390Y-65012498D01*
X214197392Y-65012493D01*
X214258928Y-64831214D01*
X214258929Y-64831209D01*
X214260784Y-64825745D01*
X214261612Y-64820036D01*
X214261613Y-64820031D01*
X214289379Y-64628527D01*
X214289912Y-64624853D01*
X214291432Y-64566800D01*
X214288764Y-64537764D01*
X214613348Y-64537764D01*
X214626624Y-64740322D01*
X214628045Y-64745918D01*
X214628046Y-64745923D01*
X214668105Y-64903653D01*
X214676592Y-64937069D01*
X214679009Y-64942312D01*
X214716208Y-65023003D01*
X214761577Y-65121416D01*
X214764910Y-65126132D01*
X214826146Y-65212779D01*
X214878733Y-65287189D01*
X215024138Y-65428835D01*
X215192920Y-65541612D01*
X215198223Y-65543890D01*
X215198226Y-65543892D01*
X215329483Y-65600284D01*
X215379428Y-65621742D01*
X215443611Y-65636265D01*
X215571779Y-65665267D01*
X215571784Y-65665268D01*
X215577416Y-65666542D01*
X215583187Y-65666769D01*
X215583189Y-65666769D01*
X215642956Y-65669117D01*
X215780253Y-65674512D01*
X215887548Y-65658955D01*
X215975431Y-65646213D01*
X215975436Y-65646212D01*
X215981145Y-65645384D01*
X215986609Y-65643529D01*
X215986614Y-65643528D01*
X216167893Y-65581992D01*
X216167898Y-65581990D01*
X216173365Y-65580134D01*
X216350476Y-65480947D01*
X216390169Y-65447935D01*
X216502113Y-65354831D01*
X216506545Y-65351145D01*
X216617411Y-65217844D01*
X216632653Y-65199518D01*
X216632655Y-65199515D01*
X216636347Y-65195076D01*
X216735534Y-65017965D01*
X216737390Y-65012498D01*
X216737392Y-65012493D01*
X216798928Y-64831214D01*
X216798929Y-64831209D01*
X216800784Y-64825745D01*
X216801612Y-64820036D01*
X216801613Y-64820031D01*
X216829379Y-64628527D01*
X216829912Y-64624853D01*
X216831432Y-64566800D01*
X216828764Y-64537764D01*
X217153348Y-64537764D01*
X217166624Y-64740322D01*
X217168045Y-64745918D01*
X217168046Y-64745923D01*
X217208105Y-64903653D01*
X217216592Y-64937069D01*
X217219009Y-64942312D01*
X217256208Y-65023003D01*
X217301577Y-65121416D01*
X217304910Y-65126132D01*
X217366146Y-65212779D01*
X217418733Y-65287189D01*
X217564138Y-65428835D01*
X217732920Y-65541612D01*
X217738223Y-65543890D01*
X217738226Y-65543892D01*
X217869483Y-65600284D01*
X217919428Y-65621742D01*
X217983611Y-65636265D01*
X218111779Y-65665267D01*
X218111784Y-65665268D01*
X218117416Y-65666542D01*
X218123187Y-65666769D01*
X218123189Y-65666769D01*
X218182956Y-65669117D01*
X218320253Y-65674512D01*
X218427548Y-65658955D01*
X218515431Y-65646213D01*
X218515436Y-65646212D01*
X218521145Y-65645384D01*
X218526609Y-65643529D01*
X218526614Y-65643528D01*
X218707893Y-65581992D01*
X218707898Y-65581990D01*
X218713365Y-65580134D01*
X218890476Y-65480947D01*
X218930169Y-65447935D01*
X219042113Y-65354831D01*
X219046545Y-65351145D01*
X219157411Y-65217844D01*
X219172653Y-65199518D01*
X219172655Y-65199515D01*
X219176347Y-65195076D01*
X219275534Y-65017965D01*
X219277390Y-65012498D01*
X219277392Y-65012493D01*
X219338928Y-64831214D01*
X219338929Y-64831209D01*
X219340784Y-64825745D01*
X219341612Y-64820036D01*
X219341613Y-64820031D01*
X219369379Y-64628527D01*
X219369912Y-64624853D01*
X219371432Y-64566800D01*
X219368764Y-64537764D01*
X219693348Y-64537764D01*
X219706624Y-64740322D01*
X219708045Y-64745918D01*
X219708046Y-64745923D01*
X219748105Y-64903653D01*
X219756592Y-64937069D01*
X219759009Y-64942312D01*
X219796208Y-65023003D01*
X219841577Y-65121416D01*
X219844910Y-65126132D01*
X219906146Y-65212779D01*
X219958733Y-65287189D01*
X220104138Y-65428835D01*
X220272920Y-65541612D01*
X220278223Y-65543890D01*
X220278226Y-65543892D01*
X220409483Y-65600284D01*
X220459428Y-65621742D01*
X220523611Y-65636265D01*
X220651779Y-65665267D01*
X220651784Y-65665268D01*
X220657416Y-65666542D01*
X220663187Y-65666769D01*
X220663189Y-65666769D01*
X220722956Y-65669117D01*
X220860253Y-65674512D01*
X220967548Y-65658955D01*
X221055431Y-65646213D01*
X221055436Y-65646212D01*
X221061145Y-65645384D01*
X221066609Y-65643529D01*
X221066614Y-65643528D01*
X221247893Y-65581992D01*
X221247898Y-65581990D01*
X221253365Y-65580134D01*
X221430476Y-65480947D01*
X221470169Y-65447935D01*
X221582113Y-65354831D01*
X221586545Y-65351145D01*
X221697411Y-65217844D01*
X221712653Y-65199518D01*
X221712655Y-65199515D01*
X221716347Y-65195076D01*
X221815534Y-65017965D01*
X221817390Y-65012498D01*
X221817392Y-65012493D01*
X221878928Y-64831214D01*
X221878929Y-64831209D01*
X221880784Y-64825745D01*
X221881612Y-64820036D01*
X221881613Y-64820031D01*
X221909379Y-64628527D01*
X221909912Y-64624853D01*
X221911432Y-64566800D01*
X221892858Y-64364659D01*
X221891290Y-64359099D01*
X221839325Y-64174846D01*
X221839324Y-64174844D01*
X221837757Y-64169287D01*
X221827178Y-64147833D01*
X221750531Y-63992409D01*
X221747976Y-63987228D01*
X221626520Y-63824579D01*
X221482809Y-63691733D01*
X222237700Y-63691733D01*
X222237701Y-65441866D01*
X222252466Y-65516101D01*
X222259361Y-65526420D01*
X222259362Y-65526422D01*
X222299716Y-65586815D01*
X222308716Y-65600284D01*
X222392899Y-65656534D01*
X222467133Y-65671300D01*
X223342058Y-65671300D01*
X224217266Y-65671299D01*
X224253018Y-65664188D01*
X224279326Y-65658956D01*
X224279328Y-65658955D01*
X224291501Y-65656534D01*
X224301821Y-65649639D01*
X224301822Y-65649638D01*
X224365368Y-65607177D01*
X224375684Y-65600284D01*
X224431934Y-65516101D01*
X224446700Y-65441867D01*
X224446699Y-63691734D01*
X224431934Y-63617499D01*
X224405854Y-63578467D01*
X224382577Y-63543632D01*
X224375684Y-63533316D01*
X224291501Y-63477066D01*
X224217267Y-63462300D01*
X223342342Y-63462300D01*
X222467134Y-63462301D01*
X222431382Y-63469412D01*
X222405074Y-63474644D01*
X222405072Y-63474645D01*
X222392899Y-63477066D01*
X222382579Y-63483961D01*
X222382578Y-63483962D01*
X222322185Y-63524316D01*
X222308716Y-63533316D01*
X222252466Y-63617499D01*
X222237700Y-63691733D01*
X221482809Y-63691733D01*
X221477458Y-63686787D01*
X221472575Y-63683706D01*
X221472571Y-63683703D01*
X221310664Y-63581548D01*
X221305781Y-63578467D01*
X221117239Y-63503246D01*
X221111579Y-63502120D01*
X221111575Y-63502119D01*
X220923813Y-63464771D01*
X220923810Y-63464771D01*
X220918146Y-63463644D01*
X220912371Y-63463568D01*
X220912367Y-63463568D01*
X220810993Y-63462241D01*
X220715171Y-63460987D01*
X220709474Y-63461966D01*
X220709473Y-63461966D01*
X220621597Y-63477066D01*
X220515110Y-63495364D01*
X220324663Y-63565624D01*
X220150210Y-63669412D01*
X220145870Y-63673218D01*
X220145866Y-63673221D01*
X220001933Y-63799448D01*
X219997592Y-63803255D01*
X219871920Y-63962669D01*
X219869231Y-63967780D01*
X219869229Y-63967783D01*
X219856273Y-63992409D01*
X219777403Y-64142315D01*
X219717207Y-64336178D01*
X219693348Y-64537764D01*
X219368764Y-64537764D01*
X219352858Y-64364659D01*
X219351290Y-64359099D01*
X219299325Y-64174846D01*
X219299324Y-64174844D01*
X219297757Y-64169287D01*
X219287178Y-64147833D01*
X219210531Y-63992409D01*
X219207976Y-63987228D01*
X219086520Y-63824579D01*
X218937458Y-63686787D01*
X218932575Y-63683706D01*
X218932571Y-63683703D01*
X218770664Y-63581548D01*
X218765781Y-63578467D01*
X218577239Y-63503246D01*
X218571579Y-63502120D01*
X218571575Y-63502119D01*
X218383813Y-63464771D01*
X218383810Y-63464771D01*
X218378146Y-63463644D01*
X218372371Y-63463568D01*
X218372367Y-63463568D01*
X218270993Y-63462241D01*
X218175171Y-63460987D01*
X218169474Y-63461966D01*
X218169473Y-63461966D01*
X218081597Y-63477066D01*
X217975110Y-63495364D01*
X217784663Y-63565624D01*
X217610210Y-63669412D01*
X217605870Y-63673218D01*
X217605866Y-63673221D01*
X217461933Y-63799448D01*
X217457592Y-63803255D01*
X217331920Y-63962669D01*
X217329231Y-63967780D01*
X217329229Y-63967783D01*
X217316273Y-63992409D01*
X217237403Y-64142315D01*
X217177207Y-64336178D01*
X217153348Y-64537764D01*
X216828764Y-64537764D01*
X216812858Y-64364659D01*
X216811290Y-64359099D01*
X216759325Y-64174846D01*
X216759324Y-64174844D01*
X216757757Y-64169287D01*
X216747178Y-64147833D01*
X216670531Y-63992409D01*
X216667976Y-63987228D01*
X216546520Y-63824579D01*
X216397458Y-63686787D01*
X216392575Y-63683706D01*
X216392571Y-63683703D01*
X216230664Y-63581548D01*
X216225781Y-63578467D01*
X216037239Y-63503246D01*
X216031579Y-63502120D01*
X216031575Y-63502119D01*
X215843813Y-63464771D01*
X215843810Y-63464771D01*
X215838146Y-63463644D01*
X215832371Y-63463568D01*
X215832367Y-63463568D01*
X215730993Y-63462241D01*
X215635171Y-63460987D01*
X215629474Y-63461966D01*
X215629473Y-63461966D01*
X215541597Y-63477066D01*
X215435110Y-63495364D01*
X215244663Y-63565624D01*
X215070210Y-63669412D01*
X215065870Y-63673218D01*
X215065866Y-63673221D01*
X214921933Y-63799448D01*
X214917592Y-63803255D01*
X214791920Y-63962669D01*
X214789231Y-63967780D01*
X214789229Y-63967783D01*
X214776273Y-63992409D01*
X214697403Y-64142315D01*
X214637207Y-64336178D01*
X214613348Y-64537764D01*
X214288764Y-64537764D01*
X214272858Y-64364659D01*
X214271290Y-64359099D01*
X214219325Y-64174846D01*
X214219324Y-64174844D01*
X214217757Y-64169287D01*
X214207178Y-64147833D01*
X214130531Y-63992409D01*
X214127976Y-63987228D01*
X214006520Y-63824579D01*
X213857458Y-63686787D01*
X213852575Y-63683706D01*
X213852571Y-63683703D01*
X213690664Y-63581548D01*
X213685781Y-63578467D01*
X213497239Y-63503246D01*
X213491579Y-63502120D01*
X213491575Y-63502119D01*
X213303813Y-63464771D01*
X213303810Y-63464771D01*
X213298146Y-63463644D01*
X213292371Y-63463568D01*
X213292367Y-63463568D01*
X213190993Y-63462241D01*
X213095171Y-63460987D01*
X213089474Y-63461966D01*
X213089473Y-63461966D01*
X213001597Y-63477066D01*
X212895110Y-63495364D01*
X212704663Y-63565624D01*
X212530210Y-63669412D01*
X212525870Y-63673218D01*
X212525866Y-63673221D01*
X212381933Y-63799448D01*
X212377592Y-63803255D01*
X212251920Y-63962669D01*
X212249231Y-63967780D01*
X212249229Y-63967783D01*
X212236273Y-63992409D01*
X212157403Y-64142315D01*
X212097207Y-64336178D01*
X212073348Y-64537764D01*
X211748764Y-64537764D01*
X211732858Y-64364659D01*
X211731290Y-64359099D01*
X211679325Y-64174846D01*
X211679324Y-64174844D01*
X211677757Y-64169287D01*
X211667178Y-64147833D01*
X211590531Y-63992409D01*
X211587976Y-63987228D01*
X211466520Y-63824579D01*
X211317458Y-63686787D01*
X211312575Y-63683706D01*
X211312571Y-63683703D01*
X211150664Y-63581548D01*
X211145781Y-63578467D01*
X210957239Y-63503246D01*
X210951579Y-63502120D01*
X210951575Y-63502119D01*
X210763813Y-63464771D01*
X210763810Y-63464771D01*
X210758146Y-63463644D01*
X210752371Y-63463568D01*
X210752367Y-63463568D01*
X210650993Y-63462241D01*
X210555171Y-63460987D01*
X210549474Y-63461966D01*
X210549473Y-63461966D01*
X210461597Y-63477066D01*
X210355110Y-63495364D01*
X210164663Y-63565624D01*
X209990210Y-63669412D01*
X209985870Y-63673218D01*
X209985866Y-63673221D01*
X209841933Y-63799448D01*
X209837592Y-63803255D01*
X209711920Y-63962669D01*
X209709231Y-63967780D01*
X209709229Y-63967783D01*
X209696273Y-63992409D01*
X209617403Y-64142315D01*
X209557207Y-64336178D01*
X209533348Y-64537764D01*
X209208764Y-64537764D01*
X209192858Y-64364659D01*
X209191290Y-64359099D01*
X209139325Y-64174846D01*
X209139324Y-64174844D01*
X209137757Y-64169287D01*
X209127178Y-64147833D01*
X209050531Y-63992409D01*
X209047976Y-63987228D01*
X208926520Y-63824579D01*
X208777458Y-63686787D01*
X208772575Y-63683706D01*
X208772571Y-63683703D01*
X208610664Y-63581548D01*
X208605781Y-63578467D01*
X208417239Y-63503246D01*
X208411579Y-63502120D01*
X208411575Y-63502119D01*
X208223813Y-63464771D01*
X208223810Y-63464771D01*
X208218146Y-63463644D01*
X208212371Y-63463568D01*
X208212367Y-63463568D01*
X208110993Y-63462241D01*
X208015171Y-63460987D01*
X208009474Y-63461966D01*
X208009473Y-63461966D01*
X207921597Y-63477066D01*
X207815110Y-63495364D01*
X207624663Y-63565624D01*
X207450210Y-63669412D01*
X207445870Y-63673218D01*
X207445866Y-63673221D01*
X207301933Y-63799448D01*
X207297592Y-63803255D01*
X207171920Y-63962669D01*
X207169231Y-63967780D01*
X207169229Y-63967783D01*
X207156273Y-63992409D01*
X207077403Y-64142315D01*
X207017207Y-64336178D01*
X206993348Y-64537764D01*
X206668764Y-64537764D01*
X206652858Y-64364659D01*
X206651290Y-64359099D01*
X206599325Y-64174846D01*
X206599324Y-64174844D01*
X206597757Y-64169287D01*
X206587178Y-64147833D01*
X206510531Y-63992409D01*
X206507976Y-63987228D01*
X206386520Y-63824579D01*
X206237458Y-63686787D01*
X206232575Y-63683706D01*
X206232571Y-63683703D01*
X206070664Y-63581548D01*
X206065781Y-63578467D01*
X205877239Y-63503246D01*
X205871579Y-63502120D01*
X205871575Y-63502119D01*
X205683813Y-63464771D01*
X205683810Y-63464771D01*
X205678146Y-63463644D01*
X205672371Y-63463568D01*
X205672367Y-63463568D01*
X205570993Y-63462241D01*
X205475171Y-63460987D01*
X205469474Y-63461966D01*
X205469473Y-63461966D01*
X205381597Y-63477066D01*
X205275110Y-63495364D01*
X205084663Y-63565624D01*
X204910210Y-63669412D01*
X204905870Y-63673218D01*
X204905866Y-63673221D01*
X204761933Y-63799448D01*
X204757592Y-63803255D01*
X204631920Y-63962669D01*
X204629231Y-63967780D01*
X204629229Y-63967783D01*
X204616273Y-63992409D01*
X204537403Y-64142315D01*
X204477207Y-64336178D01*
X204453348Y-64537764D01*
X204128764Y-64537764D01*
X204112858Y-64364659D01*
X204111290Y-64359099D01*
X204059325Y-64174846D01*
X204059324Y-64174844D01*
X204057757Y-64169287D01*
X204047178Y-64147833D01*
X203970531Y-63992409D01*
X203967976Y-63987228D01*
X203846520Y-63824579D01*
X203697458Y-63686787D01*
X203692575Y-63683706D01*
X203692571Y-63683703D01*
X203530664Y-63581548D01*
X203525781Y-63578467D01*
X203337239Y-63503246D01*
X203331579Y-63502120D01*
X203331575Y-63502119D01*
X203143813Y-63464771D01*
X203143810Y-63464771D01*
X203138146Y-63463644D01*
X203132371Y-63463568D01*
X203132367Y-63463568D01*
X203030993Y-63462241D01*
X202935171Y-63460987D01*
X202929474Y-63461966D01*
X202929473Y-63461966D01*
X202841597Y-63477066D01*
X202735110Y-63495364D01*
X202544663Y-63565624D01*
X202370210Y-63669412D01*
X202365870Y-63673218D01*
X202365866Y-63673221D01*
X202221933Y-63799448D01*
X202217592Y-63803255D01*
X202091920Y-63962669D01*
X202089231Y-63967780D01*
X202089229Y-63967783D01*
X202076273Y-63992409D01*
X201997403Y-64142315D01*
X201937207Y-64336178D01*
X201913348Y-64537764D01*
X201588764Y-64537764D01*
X201572858Y-64364659D01*
X201571290Y-64359099D01*
X201519325Y-64174846D01*
X201519324Y-64174844D01*
X201517757Y-64169287D01*
X201507178Y-64147833D01*
X201430531Y-63992409D01*
X201427976Y-63987228D01*
X201306520Y-63824579D01*
X201157458Y-63686787D01*
X201152575Y-63683706D01*
X201152571Y-63683703D01*
X200990664Y-63581548D01*
X200985781Y-63578467D01*
X200797239Y-63503246D01*
X200791579Y-63502120D01*
X200791575Y-63502119D01*
X200603813Y-63464771D01*
X200603810Y-63464771D01*
X200598146Y-63463644D01*
X200592371Y-63463568D01*
X200592367Y-63463568D01*
X200490993Y-63462241D01*
X200395171Y-63460987D01*
X200389474Y-63461966D01*
X200389473Y-63461966D01*
X200301597Y-63477066D01*
X200195110Y-63495364D01*
X200004663Y-63565624D01*
X199830210Y-63669412D01*
X199825870Y-63673218D01*
X199825866Y-63673221D01*
X199681933Y-63799448D01*
X199677592Y-63803255D01*
X199551920Y-63962669D01*
X199549231Y-63967780D01*
X199549229Y-63967783D01*
X199536273Y-63992409D01*
X199457403Y-64142315D01*
X199397207Y-64336178D01*
X199373348Y-64537764D01*
X199386624Y-64740322D01*
X199388047Y-64745924D01*
X199410086Y-64832705D01*
X199407468Y-64903653D01*
X199377058Y-64952815D01*
X199146055Y-65183818D01*
X199083743Y-65217844D01*
X199012928Y-65212779D01*
X198956092Y-65170232D01*
X198931281Y-65103712D01*
X198947026Y-65033158D01*
X198955534Y-65017965D01*
X198957390Y-65012498D01*
X198957392Y-65012493D01*
X199018928Y-64831214D01*
X199018929Y-64831209D01*
X199020784Y-64825745D01*
X199021612Y-64820036D01*
X199021613Y-64820031D01*
X199049379Y-64628527D01*
X199049912Y-64624853D01*
X199051432Y-64566800D01*
X199032858Y-64364659D01*
X199031290Y-64359099D01*
X198979325Y-64174846D01*
X198979324Y-64174844D01*
X198977757Y-64169287D01*
X198967178Y-64147833D01*
X198890531Y-63992409D01*
X198887976Y-63987228D01*
X198766520Y-63824579D01*
X198617458Y-63686787D01*
X198612575Y-63683706D01*
X198612571Y-63683703D01*
X198450664Y-63581548D01*
X198445781Y-63578467D01*
X198257239Y-63503246D01*
X198251579Y-63502120D01*
X198251575Y-63502119D01*
X198063813Y-63464771D01*
X198063810Y-63464771D01*
X198058146Y-63463644D01*
X198052371Y-63463568D01*
X198052367Y-63463568D01*
X197950993Y-63462241D01*
X197855171Y-63460987D01*
X197849474Y-63461966D01*
X197849473Y-63461966D01*
X197761597Y-63477066D01*
X197655110Y-63495364D01*
X197464663Y-63565624D01*
X197290210Y-63669412D01*
X197285870Y-63673218D01*
X197285866Y-63673221D01*
X197141933Y-63799448D01*
X197137592Y-63803255D01*
X197011920Y-63962669D01*
X197009231Y-63967780D01*
X197009229Y-63967783D01*
X196996273Y-63992409D01*
X196917403Y-64142315D01*
X196857207Y-64336178D01*
X196833348Y-64537764D01*
X196846624Y-64740322D01*
X196848045Y-64745918D01*
X196848046Y-64745923D01*
X196888105Y-64903653D01*
X196896592Y-64937069D01*
X196899009Y-64942312D01*
X196936208Y-65023003D01*
X196981577Y-65121416D01*
X196984910Y-65126132D01*
X197046146Y-65212779D01*
X197098733Y-65287189D01*
X197244138Y-65428835D01*
X197412920Y-65541612D01*
X197418223Y-65543890D01*
X197418226Y-65543892D01*
X197549483Y-65600284D01*
X197599428Y-65621742D01*
X197663611Y-65636265D01*
X197791779Y-65665267D01*
X197791784Y-65665268D01*
X197797416Y-65666542D01*
X197803187Y-65666769D01*
X197803189Y-65666769D01*
X197862956Y-65669117D01*
X198000253Y-65674512D01*
X198107548Y-65658955D01*
X198195431Y-65646213D01*
X198195436Y-65646212D01*
X198201145Y-65645384D01*
X198206609Y-65643529D01*
X198206614Y-65643528D01*
X198387893Y-65581992D01*
X198387898Y-65581990D01*
X198393365Y-65580134D01*
X198408558Y-65571626D01*
X198477765Y-65555792D01*
X198544547Y-65579889D01*
X198587700Y-65636265D01*
X198593523Y-65707023D01*
X198559218Y-65770655D01*
X181859496Y-82470377D01*
X181849956Y-82478000D01*
X181850270Y-82478368D01*
X181843434Y-82484186D01*
X181835842Y-82488976D01*
X181829900Y-82495704D01*
X181800207Y-82529325D01*
X181794861Y-82535012D01*
X181783418Y-82546455D01*
X181777778Y-82553980D01*
X181777141Y-82554830D01*
X181770767Y-82562659D01*
X181739422Y-82598151D01*
X181735608Y-82606274D01*
X181733974Y-82608762D01*
X181724986Y-82623723D01*
X181723571Y-82626308D01*
X181718184Y-82633495D01*
X181715033Y-82641901D01*
X181701559Y-82677842D01*
X181697633Y-82687158D01*
X181677519Y-82730000D01*
X181676138Y-82738869D01*
X181675272Y-82741702D01*
X181670842Y-82758589D01*
X181670208Y-82761474D01*
X181667055Y-82769884D01*
X181666390Y-82778839D01*
X181663546Y-82817106D01*
X181662392Y-82827152D01*
X181660300Y-82840586D01*
X181660300Y-82856106D01*
X181659954Y-82865443D01*
X181656261Y-82915141D01*
X181658135Y-82923920D01*
X181658698Y-82932178D01*
X181660300Y-82947361D01*
X181660300Y-89151901D01*
X181640298Y-89220022D01*
X181586642Y-89266515D01*
X181534300Y-89277901D01*
X181193734Y-89277901D01*
X181157982Y-89285012D01*
X181131674Y-89290244D01*
X181131672Y-89290245D01*
X181119499Y-89292666D01*
X181109179Y-89299561D01*
X181109178Y-89299562D01*
X181048785Y-89339916D01*
X181035316Y-89348916D01*
X180979066Y-89433099D01*
X180964300Y-89507333D01*
X180964301Y-91457466D01*
X180966257Y-91467299D01*
X180976189Y-91517234D01*
X180979066Y-91531701D01*
X181035316Y-91615884D01*
X181119499Y-91672134D01*
X181193733Y-91686900D01*
X181532161Y-91686900D01*
X181600282Y-91706902D01*
X181646775Y-91760558D01*
X181656879Y-91830832D01*
X181627385Y-91895412D01*
X181596584Y-91921185D01*
X181457780Y-92003765D01*
X181291344Y-92149725D01*
X181287777Y-92154250D01*
X181287772Y-92154255D01*
X181193535Y-92273795D01*
X181154294Y-92323572D01*
X181151605Y-92328683D01*
X181151603Y-92328686D01*
X181112174Y-92403629D01*
X181051220Y-92519483D01*
X180985574Y-92730898D01*
X180959555Y-92950735D01*
X180974033Y-93171633D01*
X181028524Y-93386193D01*
X181121204Y-93587230D01*
X181248967Y-93768011D01*
X181407536Y-93922482D01*
X181412332Y-93925687D01*
X181412335Y-93925689D01*
X181487053Y-93975614D01*
X181591600Y-94045470D01*
X181596903Y-94047748D01*
X181596906Y-94047750D01*
X181759662Y-94117675D01*
X181814355Y-94162943D01*
X181835892Y-94230594D01*
X181817435Y-94299150D01*
X181764844Y-94346844D01*
X181753535Y-94351655D01*
X181648028Y-94390579D01*
X181457780Y-94503765D01*
X181291344Y-94649725D01*
X181287777Y-94654250D01*
X181287772Y-94654255D01*
X181193535Y-94773795D01*
X181154294Y-94823572D01*
X181151605Y-94828683D01*
X181151603Y-94828686D01*
X181140203Y-94850354D01*
X181051220Y-95019483D01*
X180985574Y-95230898D01*
X180984895Y-95236633D01*
X180984895Y-95236634D01*
X180981898Y-95261957D01*
X180959555Y-95450735D01*
X179146200Y-95450735D01*
X179146200Y-64537764D01*
X194293348Y-64537764D01*
X194306624Y-64740322D01*
X194308045Y-64745918D01*
X194308046Y-64745923D01*
X194348105Y-64903653D01*
X194356592Y-64937069D01*
X194359009Y-64942312D01*
X194396208Y-65023003D01*
X194441577Y-65121416D01*
X194444910Y-65126132D01*
X194506146Y-65212779D01*
X194558733Y-65287189D01*
X194704138Y-65428835D01*
X194872920Y-65541612D01*
X194878223Y-65543890D01*
X194878226Y-65543892D01*
X195009483Y-65600284D01*
X195059428Y-65621742D01*
X195123611Y-65636265D01*
X195251779Y-65665267D01*
X195251784Y-65665268D01*
X195257416Y-65666542D01*
X195263187Y-65666769D01*
X195263189Y-65666769D01*
X195322956Y-65669117D01*
X195460253Y-65674512D01*
X195567548Y-65658955D01*
X195655431Y-65646213D01*
X195655436Y-65646212D01*
X195661145Y-65645384D01*
X195666609Y-65643529D01*
X195666614Y-65643528D01*
X195847893Y-65581992D01*
X195847898Y-65581990D01*
X195853365Y-65580134D01*
X196030476Y-65480947D01*
X196070169Y-65447935D01*
X196182113Y-65354831D01*
X196186545Y-65351145D01*
X196297411Y-65217844D01*
X196312653Y-65199518D01*
X196312655Y-65199515D01*
X196316347Y-65195076D01*
X196415534Y-65017965D01*
X196417390Y-65012498D01*
X196417392Y-65012493D01*
X196478928Y-64831214D01*
X196478929Y-64831209D01*
X196480784Y-64825745D01*
X196481612Y-64820036D01*
X196481613Y-64820031D01*
X196509379Y-64628527D01*
X196509912Y-64624853D01*
X196511432Y-64566800D01*
X196492858Y-64364659D01*
X196491290Y-64359099D01*
X196439325Y-64174846D01*
X196439324Y-64174844D01*
X196437757Y-64169287D01*
X196427178Y-64147833D01*
X196350531Y-63992409D01*
X196347976Y-63987228D01*
X196226520Y-63824579D01*
X196077458Y-63686787D01*
X196072575Y-63683706D01*
X196072571Y-63683703D01*
X195910664Y-63581548D01*
X195905781Y-63578467D01*
X195717239Y-63503246D01*
X195711579Y-63502120D01*
X195711575Y-63502119D01*
X195523813Y-63464771D01*
X195523810Y-63464771D01*
X195518146Y-63463644D01*
X195512371Y-63463568D01*
X195512367Y-63463568D01*
X195410993Y-63462241D01*
X195315171Y-63460987D01*
X195309474Y-63461966D01*
X195309473Y-63461966D01*
X195221597Y-63477066D01*
X195115110Y-63495364D01*
X194924663Y-63565624D01*
X194750210Y-63669412D01*
X194745870Y-63673218D01*
X194745866Y-63673221D01*
X194601933Y-63799448D01*
X194597592Y-63803255D01*
X194471920Y-63962669D01*
X194469231Y-63967780D01*
X194469229Y-63967783D01*
X194456273Y-63992409D01*
X194377403Y-64142315D01*
X194317207Y-64336178D01*
X194293348Y-64537764D01*
X179146200Y-64537764D01*
X179146200Y-62406800D01*
X179166202Y-62338679D01*
X179219858Y-62292186D01*
X179272200Y-62280800D01*
X229312200Y-62280800D01*
X229380321Y-62300802D01*
G37*
%TD.AperFunction*%
%TD*%
M02*
