%TF.GenerationSoftware,KiCad,Pcbnew,(6.0.0-0)*%
%TF.CreationDate,2022-01-26T12:17:13+01:00*%
%TF.ProjectId,burrboard,62757272-626f-4617-9264-2e6b69636164,v2.0*%
%TF.SameCoordinates,Original*%
%TF.FileFunction,Copper,L1,Top*%
%TF.FilePolarity,Positive*%
%FSLAX46Y46*%
G04 Gerber Fmt 4.6, Leading zero omitted, Abs format (unit mm)*
G04 Created by KiCad (PCBNEW (6.0.0-0)) date 2022-01-26 12:17:13*
%MOMM*%
%LPD*%
G01*
G04 APERTURE LIST*
G04 Aperture macros list*
%AMRoundRect*
0 Rectangle with rounded corners*
0 $1 Rounding radius*
0 $2 $3 $4 $5 $6 $7 $8 $9 X,Y pos of 4 corners*
0 Add a 4 corners polygon primitive as box body*
4,1,4,$2,$3,$4,$5,$6,$7,$8,$9,$2,$3,0*
0 Add four circle primitives for the rounded corners*
1,1,$1+$1,$2,$3*
1,1,$1+$1,$4,$5*
1,1,$1+$1,$6,$7*
1,1,$1+$1,$8,$9*
0 Add four rect primitives between the rounded corners*
20,1,$1+$1,$2,$3,$4,$5,0*
20,1,$1+$1,$4,$5,$6,$7,0*
20,1,$1+$1,$6,$7,$8,$9,0*
20,1,$1+$1,$8,$9,$2,$3,0*%
G04 Aperture macros list end*
%TA.AperFunction,SMDPad,CuDef*%
%ADD10RoundRect,0.243750X0.243750X0.456250X-0.243750X0.456250X-0.243750X-0.456250X0.243750X-0.456250X0*%
%TD*%
%TA.AperFunction,SMDPad,CuDef*%
%ADD11R,1.550000X1.300000*%
%TD*%
%TA.AperFunction,SMDPad,CuDef*%
%ADD12R,1.100000X0.800000*%
%TD*%
%TA.AperFunction,ComponentPad*%
%ADD13O,1.700000X1.700000*%
%TD*%
%TA.AperFunction,ComponentPad*%
%ADD14R,1.700000X1.700000*%
%TD*%
%TA.AperFunction,SMDPad,CuDef*%
%ADD15RoundRect,0.250000X0.450000X-0.262500X0.450000X0.262500X-0.450000X0.262500X-0.450000X-0.262500X0*%
%TD*%
%TA.AperFunction,SMDPad,CuDef*%
%ADD16RoundRect,0.250000X0.262500X0.450000X-0.262500X0.450000X-0.262500X-0.450000X0.262500X-0.450000X0*%
%TD*%
%TA.AperFunction,SMDPad,CuDef*%
%ADD17RoundRect,0.250000X-0.262500X-0.450000X0.262500X-0.450000X0.262500X0.450000X-0.262500X0.450000X0*%
%TD*%
%TA.AperFunction,SMDPad,CuDef*%
%ADD18RoundRect,0.250000X-0.450000X0.262500X-0.450000X-0.262500X0.450000X-0.262500X0.450000X0.262500X0*%
%TD*%
%TA.AperFunction,SMDPad,CuDef*%
%ADD19RoundRect,0.150000X-0.150000X0.825000X-0.150000X-0.825000X0.150000X-0.825000X0.150000X0.825000X0*%
%TD*%
%TA.AperFunction,SMDPad,CuDef*%
%ADD20RoundRect,0.250000X0.250000X0.475000X-0.250000X0.475000X-0.250000X-0.475000X0.250000X-0.475000X0*%
%TD*%
%TA.AperFunction,ComponentPad*%
%ADD21R,3.000000X3.000000*%
%TD*%
%TA.AperFunction,ComponentPad*%
%ADD22C,3.000000*%
%TD*%
%TA.AperFunction,ComponentPad*%
%ADD23C,1.900000*%
%TD*%
%TA.AperFunction,ComponentPad*%
%ADD24R,1.900000X1.900000*%
%TD*%
G04 APERTURE END LIST*
D10*
%TO.P,D2,2,A*%
%TO.N,Net-(D2-Pad2)*%
X198282320Y-93980000D03*
%TO.P,D2,1,K*%
%TO.N,GND*%
X200157320Y-93980000D03*
%TD*%
D11*
%TO.P,S2,4*%
%TO.N,GND*%
X219875000Y-128437200D03*
%TO.P,S2,3*%
%TO.N,unconnected-(S2-Pad3)*%
X211925000Y-128437200D03*
%TO.P,S2,2*%
%TO.N,unconnected-(S2-Pad2)*%
X219875000Y-123937200D03*
%TO.P,S2,1*%
%TO.N,/F3*%
X211925000Y-123937200D03*
%TD*%
D12*
%TO.P,Q1,1,E_1*%
%TO.N,unconnected-(Q1-Pad1)*%
X225396600Y-107958800D03*
%TO.P,Q1,2,E_2*%
%TO.N,/A5*%
X225396600Y-109058800D03*
%TO.P,Q1,3,C*%
%TO.N,/3V3*%
X221846600Y-108508800D03*
%TD*%
D11*
%TO.P,S1,4*%
%TO.N,GND*%
X197015000Y-128437200D03*
%TO.P,S1,3*%
%TO.N,unconnected-(S1-Pad3)*%
X189065000Y-128437200D03*
%TO.P,S1,2*%
%TO.N,unconnected-(S1-Pad2)*%
X197015000Y-123937200D03*
%TO.P,S1,1*%
%TO.N,/F4*%
X189065000Y-123937200D03*
%TD*%
D13*
%TO.P,J1,16,Pin_16*%
%TO.N,unconnected-(J1-Pad16)*%
X185242200Y-84886800D03*
%TO.P,J1,15,Pin_15*%
%TO.N,/3V3*%
X187782200Y-84886800D03*
%TO.P,J1,14,Pin_14*%
%TO.N,unconnected-(J1-Pad14)*%
X190322200Y-84886800D03*
%TO.P,J1,13,Pin_13*%
%TO.N,GND*%
X192862200Y-84886800D03*
%TO.P,J1,12,Pin_12*%
%TO.N,/A0*%
X195402200Y-84886800D03*
%TO.P,J1,11,Pin_11*%
%TO.N,/A1*%
X197942200Y-84886800D03*
%TO.P,J1,10,Pin_10*%
%TO.N,/A2*%
X200482200Y-84886800D03*
%TO.P,J1,9,Pin_9*%
%TO.N,/A3*%
X203022200Y-84886800D03*
%TO.P,J1,8,Pin_8*%
%TO.N,/A4*%
X205562200Y-84886800D03*
%TO.P,J1,7,Pin_7*%
%TO.N,/A5*%
X208102200Y-84886800D03*
%TO.P,J1,6,Pin_6*%
%TO.N,unconnected-(J1-Pad6)*%
X210642200Y-84886800D03*
%TO.P,J1,5,Pin_5*%
%TO.N,unconnected-(J1-Pad5)*%
X213182200Y-84886800D03*
%TO.P,J1,4,Pin_4*%
%TO.N,unconnected-(J1-Pad4)*%
X215722200Y-84886800D03*
%TO.P,J1,3,Pin_3*%
%TO.N,unconnected-(J1-Pad3)*%
X218262200Y-84886800D03*
%TO.P,J1,2,Pin_2*%
%TO.N,unconnected-(J1-Pad2)*%
X220802200Y-84886800D03*
D14*
%TO.P,J1,1,Pin_1*%
%TO.N,unconnected-(J1-Pad1)*%
X223342200Y-84886800D03*
%TD*%
D13*
%TO.P,J2,12,Pin_12*%
%TO.N,unconnected-(J2-Pad12)*%
X195402200Y-64566800D03*
%TO.P,J2,11,Pin_11*%
%TO.N,unconnected-(J2-Pad11)*%
X197942200Y-64566800D03*
%TO.P,J2,10,Pin_10*%
%TO.N,/VUSB*%
X200482200Y-64566800D03*
%TO.P,J2,9,Pin_9*%
%TO.N,unconnected-(J2-Pad9)*%
X203022200Y-64566800D03*
%TO.P,J2,8,Pin_8*%
%TO.N,unconnected-(J2-Pad8)*%
X205562200Y-64566800D03*
%TO.P,J2,7,Pin_7*%
%TO.N,/F4*%
X208102200Y-64566800D03*
%TO.P,J2,6,Pin_6*%
%TO.N,/F3*%
X210642200Y-64566800D03*
%TO.P,J2,5,Pin_5*%
%TO.N,/F2*%
X213182200Y-64566800D03*
%TO.P,J2,4,Pin_4*%
%TO.N,unconnected-(J2-Pad4)*%
X215722200Y-64566800D03*
%TO.P,J2,3,Pin_3*%
%TO.N,unconnected-(J2-Pad3)*%
X218262200Y-64566800D03*
%TO.P,J2,2,Pin_2*%
%TO.N,unconnected-(J2-Pad2)*%
X220802200Y-64566800D03*
D14*
%TO.P,J2,1,Pin_1*%
%TO.N,unconnected-(J2-Pad1)*%
X223342200Y-64566800D03*
%TD*%
D10*
%TO.P,D4,1,K*%
%TO.N,GND*%
X220477320Y-93980000D03*
%TO.P,D4,2,A*%
%TO.N,Net-(D4-Pad2)*%
X218602320Y-93980000D03*
%TD*%
D15*
%TO.P,R4,1*%
%TO.N,/F4*%
X183134000Y-127607700D03*
%TO.P,R4,2*%
%TO.N,/3V3*%
X183134000Y-125782700D03*
%TD*%
D16*
%TO.P,R8,2*%
%TO.N,/F2*%
X220067500Y-88900000D03*
%TO.P,R8,1*%
%TO.N,Net-(D4-Pad2)*%
X221892500Y-88900000D03*
%TD*%
D17*
%TO.P,R7,2*%
%TO.N,/A3*%
X200302500Y-88900000D03*
%TO.P,R7,1*%
%TO.N,Net-(D2-Pad2)*%
X198477500Y-88900000D03*
%TD*%
D16*
%TO.P,R1,2*%
%TO.N,GND*%
X223623500Y-101092000D03*
%TO.P,R1,1*%
%TO.N,/A5*%
X225448500Y-101092000D03*
%TD*%
D18*
%TO.P,R5,2*%
%TO.N,/3V3*%
X225806000Y-127404500D03*
%TO.P,R5,1*%
%TO.N,/F3*%
X225806000Y-125579500D03*
%TD*%
D19*
%TO.P,U1,8,+Vs*%
%TO.N,/3V3*%
X186918600Y-110983800D03*
%TO.P,U1,7*%
%TO.N,N/C*%
X185648600Y-110983800D03*
%TO.P,U1,6*%
X184378600Y-110983800D03*
%TO.P,U1,5,~{SHUTDOWN}*%
%TO.N,/3V3*%
X183108600Y-110983800D03*
%TO.P,U1,4,GND*%
%TO.N,GND*%
X183108600Y-106033800D03*
%TO.P,U1,3*%
%TO.N,N/C*%
X184378600Y-106033800D03*
%TO.P,U1,2*%
X185648600Y-106033800D03*
%TO.P,U1,1,Vout*%
%TO.N,/A1*%
X186918600Y-106033800D03*
%TD*%
D20*
%TO.P,C1,1*%
%TO.N,/3V3*%
X186014400Y-116128800D03*
%TO.P,C1,2*%
%TO.N,GND*%
X184114400Y-116128800D03*
%TD*%
D17*
%TO.P,R6,1*%
%TO.N,Net-(D1-Pad2)*%
X187047500Y-88900000D03*
%TO.P,R6,2*%
%TO.N,/A2*%
X188872500Y-88900000D03*
%TD*%
D10*
%TO.P,D1,1,K*%
%TO.N,GND*%
X189997320Y-93980000D03*
%TO.P,D1,2,A*%
%TO.N,Net-(D1-Pad2)*%
X188122320Y-93980000D03*
%TD*%
D17*
%TO.P,R2,2*%
%TO.N,/A4*%
X211732500Y-88900000D03*
%TO.P,R2,1*%
%TO.N,Net-(D3-Pad2)*%
X209907500Y-88900000D03*
%TD*%
D10*
%TO.P,D3,2,A*%
%TO.N,Net-(D3-Pad2)*%
X208442320Y-93980000D03*
%TO.P,D3,1,K*%
%TO.N,GND*%
X210317320Y-93980000D03*
%TD*%
D16*
%TO.P,R11,2*%
%TO.N,/A0*%
X191111500Y-79502000D03*
%TO.P,R11,1*%
%TO.N,GND*%
X192936500Y-79502000D03*
%TD*%
D17*
%TO.P,R10,2*%
%TO.N,VDD*%
X186281700Y-79502000D03*
%TO.P,R10,1*%
%TO.N,/A0*%
X184456700Y-79502000D03*
%TD*%
D20*
%TO.P,C5,2*%
%TO.N,GND*%
X191124800Y-75184000D03*
%TO.P,C5,1*%
%TO.N,/A0*%
X193024800Y-75184000D03*
%TD*%
D21*
%TO.P,BT1,1,+*%
%TO.N,VDD*%
X192608200Y-89712800D03*
D22*
%TO.P,BT1,2,-*%
%TO.N,GND*%
X205308200Y-89712800D03*
%TD*%
D23*
%TO.P,S3,3,C*%
%TO.N,unconnected-(S3-Pad3)*%
X201850000Y-73660000D03*
%TO.P,S3,2,B*%
%TO.N,VDD*%
X204350000Y-73660000D03*
D24*
%TO.P,S3,1,A*%
%TO.N,/VUSB*%
X206850000Y-73660000D03*
%TD*%
M02*
