%TF.GenerationSoftware,KiCad,Pcbnew,(6.0.0-0)*%
%TF.CreationDate,2022-02-15T20:26:29+01:00*%
%TF.ProjectId,burrboard,62757272-626f-4617-9264-2e6b69636164,v3.0*%
%TF.SameCoordinates,Original*%
%TF.FileFunction,Copper,L2,Bot*%
%TF.FilePolarity,Positive*%
%FSLAX46Y46*%
G04 Gerber Fmt 4.6, Leading zero omitted, Abs format (unit mm)*
G04 Created by KiCad (PCBNEW (6.0.0-0)) date 2022-02-15 20:26:29*
%MOMM*%
%LPD*%
G01*
G04 APERTURE LIST*
%TA.AperFunction,Profile*%
%ADD10C,0.050000*%
%TD*%
%TA.AperFunction,ComponentPad*%
%ADD11R,1.700000X1.700000*%
%TD*%
%TA.AperFunction,ComponentPad*%
%ADD12O,1.700000X1.700000*%
%TD*%
%TA.AperFunction,ComponentPad*%
%ADD13R,3.000000X3.000000*%
%TD*%
%TA.AperFunction,ComponentPad*%
%ADD14C,3.000000*%
%TD*%
%TA.AperFunction,ComponentPad*%
%ADD15R,1.900000X1.900000*%
%TD*%
%TA.AperFunction,ComponentPad*%
%ADD16C,1.900000*%
%TD*%
%TA.AperFunction,ViaPad*%
%ADD17C,0.762000*%
%TD*%
%TA.AperFunction,Conductor*%
%ADD18C,0.508000*%
%TD*%
%TA.AperFunction,Conductor*%
%ADD19C,0.254000*%
%TD*%
%TA.AperFunction,Conductor*%
%ADD20C,0.304800*%
%TD*%
G04 APERTURE END LIST*
D10*
X178892200Y-64566800D02*
X178892200Y-140766800D01*
X229692200Y-64566800D02*
G75*
G03*
X227152200Y-62026800I-2540001J-1D01*
G01*
X181432200Y-143306800D02*
X227152200Y-143306800D01*
X227152200Y-62026800D02*
X181432200Y-62026800D01*
X229692200Y-140766800D02*
X229692200Y-64566800D01*
X227152200Y-143306800D02*
G75*
G03*
X229692200Y-140766800I-1J2540001D01*
G01*
X178892200Y-140766800D02*
G75*
G03*
X181432200Y-143306800I2540001J1D01*
G01*
X181432200Y-62026800D02*
G75*
G03*
X178892200Y-64566800I1J-2540001D01*
G01*
D11*
%TO.P,J1,1,Pin_1*%
%TO.N,unconnected-(J1-Pad1)*%
X223342200Y-84886800D03*
D12*
%TO.P,J1,2,Pin_2*%
%TO.N,unconnected-(J1-Pad2)*%
X220802200Y-84886800D03*
%TO.P,J1,3,Pin_3*%
%TO.N,unconnected-(J1-Pad3)*%
X218262200Y-84886800D03*
%TO.P,J1,4,Pin_4*%
%TO.N,unconnected-(J1-Pad4)*%
X215722200Y-84886800D03*
%TO.P,J1,5,Pin_5*%
%TO.N,unconnected-(J1-Pad5)*%
X213182200Y-84886800D03*
%TO.P,J1,6,Pin_6*%
%TO.N,unconnected-(J1-Pad6)*%
X210642200Y-84886800D03*
%TO.P,J1,7,Pin_7*%
%TO.N,/A5*%
X208102200Y-84886800D03*
%TO.P,J1,8,Pin_8*%
%TO.N,/A4*%
X205562200Y-84886800D03*
%TO.P,J1,9,Pin_9*%
%TO.N,/A3*%
X203022200Y-84886800D03*
%TO.P,J1,10,Pin_10*%
%TO.N,/A2*%
X200482200Y-84886800D03*
%TO.P,J1,11,Pin_11*%
%TO.N,/A1*%
X197942200Y-84886800D03*
%TO.P,J1,12,Pin_12*%
%TO.N,/A0*%
X195402200Y-84886800D03*
%TO.P,J1,13,Pin_13*%
%TO.N,GND*%
X192862200Y-84886800D03*
%TO.P,J1,14,Pin_14*%
%TO.N,unconnected-(J1-Pad14)*%
X190322200Y-84886800D03*
%TO.P,J1,15,Pin_15*%
%TO.N,/3V3*%
X187782200Y-84886800D03*
%TO.P,J1,16,Pin_16*%
%TO.N,unconnected-(J1-Pad16)*%
X185242200Y-84886800D03*
%TD*%
D11*
%TO.P,J2,1,Pin_1*%
%TO.N,/SDA*%
X223342200Y-64566800D03*
D12*
%TO.P,J2,2,Pin_2*%
%TO.N,/SCL*%
X220802200Y-64566800D03*
%TO.P,J2,3,Pin_3*%
%TO.N,/F0*%
X218262200Y-64566800D03*
%TO.P,J2,4,Pin_4*%
%TO.N,/F1*%
X215722200Y-64566800D03*
%TO.P,J2,5,Pin_5*%
%TO.N,/F2*%
X213182200Y-64566800D03*
%TO.P,J2,6,Pin_6*%
%TO.N,/F3*%
X210642200Y-64566800D03*
%TO.P,J2,7,Pin_7*%
%TO.N,/F4*%
X208102200Y-64566800D03*
%TO.P,J2,8,Pin_8*%
%TO.N,/F5*%
X205562200Y-64566800D03*
%TO.P,J2,9,Pin_9*%
%TO.N,unconnected-(J2-Pad9)*%
X203022200Y-64566800D03*
%TO.P,J2,10,Pin_10*%
%TO.N,/VUSB*%
X200482200Y-64566800D03*
%TO.P,J2,11,Pin_11*%
%TO.N,unconnected-(J2-Pad11)*%
X197942200Y-64566800D03*
%TO.P,J2,12,Pin_12*%
%TO.N,unconnected-(J2-Pad12)*%
X195402200Y-64566800D03*
%TD*%
D13*
%TO.P,BT1,1,+*%
%TO.N,VDD*%
X192608200Y-91516200D03*
D14*
%TO.P,BT1,2,-*%
%TO.N,GND*%
X205308200Y-91516200D03*
%TD*%
D15*
%TO.P,S3,1,A*%
%TO.N,/VUSB*%
X188468000Y-64990000D03*
D16*
%TO.P,S3,2,B*%
%TO.N,Net-(D5-Pad1)*%
X185968000Y-64990000D03*
%TO.P,S3,3,C*%
%TO.N,unconnected-(S3-Pad3)*%
X183468000Y-64990000D03*
%TD*%
D17*
%TO.N,VDD*%
X181550000Y-81510000D03*
%TO.N,GND*%
X220890000Y-108270000D03*
X194170000Y-74210000D03*
X204216000Y-127508000D03*
X200000000Y-72000000D03*
X210800000Y-69600000D03*
X212730000Y-92470000D03*
X189730000Y-94090000D03*
X187970000Y-108270000D03*
%TO.N,/A1*%
X202060000Y-94850000D03*
%TO.N,/3V3*%
X183290000Y-99370000D03*
X216040000Y-99740000D03*
X183210000Y-119400000D03*
%TO.N,/F2*%
X213100000Y-75400000D03*
%TO.N,/F3*%
X215700000Y-70500000D03*
X219900000Y-81600000D03*
%TO.N,/F4*%
X219140000Y-100050000D03*
%TO.N,/F5*%
X206870000Y-97870000D03*
%TO.N,/A5*%
X228620000Y-109000000D03*
%TO.N,/F0*%
X220600000Y-73100000D03*
X204900000Y-71300000D03*
X222330000Y-100610000D03*
X184090000Y-81030000D03*
X212300000Y-68200000D03*
%TO.N,/F1*%
X206400000Y-67000000D03*
X206400000Y-75000000D03*
%TD*%
D18*
%TO.N,VDD*%
X181550000Y-86410000D02*
X181550000Y-81510000D01*
X186656200Y-91516200D02*
X181570000Y-86430000D01*
X192608200Y-91516200D02*
X186656200Y-91516200D01*
X181570000Y-86430000D02*
X181550000Y-86410000D01*
D19*
%TO.N,/A1*%
X197942200Y-84886800D02*
X202060000Y-89004600D01*
X202060000Y-89004600D02*
X202060000Y-94850000D01*
D20*
%TO.N,/3V3*%
X183290000Y-119320000D02*
X183210000Y-119400000D01*
X188987311Y-86091911D02*
X190894133Y-86091911D01*
X190894133Y-86091911D02*
X204542222Y-99740000D01*
X187782200Y-84886800D02*
X188987311Y-86091911D01*
X183290000Y-99370000D02*
X183290000Y-119320000D01*
X204542222Y-99740000D02*
X216040000Y-99740000D01*
D19*
%TO.N,/F2*%
X211200000Y-68500000D02*
X211200000Y-66549000D01*
X213100000Y-75400000D02*
X213100000Y-70400000D01*
X213100000Y-70400000D02*
X211200000Y-68500000D01*
X211200000Y-66549000D02*
X213182200Y-64566800D01*
%TO.N,/F3*%
X215700000Y-77400000D02*
X219900000Y-81600000D01*
X215700000Y-70500000D02*
X215700000Y-77400000D01*
%TO.N,/F4*%
X209400000Y-65864600D02*
X208102200Y-64566800D01*
X216901911Y-92814875D02*
X209400000Y-85312964D01*
X216901911Y-97811911D02*
X216901911Y-92814875D01*
X209400000Y-85312964D02*
X209400000Y-65864600D01*
X219140000Y-100050000D02*
X216901911Y-97811911D01*
%TO.N,/F5*%
X206922489Y-90542886D02*
X207190000Y-90810397D01*
X207190000Y-97550000D02*
X206870000Y-97870000D01*
X207910000Y-80750000D02*
X207910000Y-66914600D01*
X207190000Y-90810397D02*
X207190000Y-97550000D01*
X207910000Y-66914600D02*
X205562200Y-64566800D01*
X206922489Y-81737511D02*
X206922489Y-90542886D01*
X207910000Y-80750000D02*
X206922489Y-81737511D01*
%TO.N,/A5*%
X214570000Y-91354600D02*
X208102200Y-84886800D01*
X214570000Y-93450000D02*
X214570000Y-97264902D01*
X214570000Y-93450000D02*
X214570000Y-91354600D01*
X225207549Y-107902451D02*
X226305098Y-109000000D01*
X214570000Y-97264902D02*
X225207549Y-107902451D01*
X226305098Y-109000000D02*
X228620000Y-109000000D01*
D20*
%TO.N,/F0*%
X195000000Y-81200000D02*
X184260000Y-81200000D01*
X214629000Y-68200000D02*
X212300000Y-68200000D01*
X184260000Y-81200000D02*
X184090000Y-81030000D01*
X204900000Y-71300000D02*
X195000000Y-81200000D01*
X218262200Y-64566800D02*
X214629000Y-68200000D01*
X220600000Y-73100000D02*
X222007311Y-74507311D01*
X222007311Y-100287311D02*
X222330000Y-100610000D01*
X222007311Y-74507311D02*
X222007311Y-100287311D01*
X218262200Y-64566800D02*
X220600000Y-66904600D01*
X220600000Y-66904600D02*
X220600000Y-73100000D01*
D19*
%TO.N,/F1*%
X206400000Y-69700000D02*
X206400000Y-75000000D01*
X206400000Y-67000000D02*
X206400000Y-69700000D01*
%TD*%
%TA.AperFunction,Conductor*%
%TO.N,GND*%
G36*
X227139353Y-62283221D02*
G01*
X227152200Y-62285776D01*
X227164370Y-62283355D01*
X227176783Y-62283355D01*
X227176783Y-62283680D01*
X227187619Y-62282942D01*
X227343325Y-62292361D01*
X227420140Y-62297008D01*
X227435244Y-62298842D01*
X227691777Y-62345853D01*
X227706550Y-62349494D01*
X227955558Y-62427088D01*
X227969776Y-62432480D01*
X228207606Y-62539520D01*
X228221076Y-62546589D01*
X228444274Y-62681517D01*
X228456796Y-62690160D01*
X228662104Y-62851009D01*
X228673492Y-62861099D01*
X228857901Y-63045508D01*
X228867991Y-63056896D01*
X229028840Y-63262204D01*
X229037483Y-63274726D01*
X229172411Y-63497924D01*
X229179480Y-63511394D01*
X229263430Y-63697920D01*
X229286518Y-63749220D01*
X229291912Y-63763442D01*
X229338262Y-63912185D01*
X229369506Y-64012450D01*
X229373147Y-64027223D01*
X229420158Y-64283756D01*
X229421992Y-64298860D01*
X229435489Y-64521967D01*
X229436058Y-64531378D01*
X229435320Y-64542217D01*
X229435645Y-64542217D01*
X229435645Y-64554630D01*
X229433224Y-64566800D01*
X229435645Y-64578970D01*
X229435779Y-64579644D01*
X229438200Y-64604225D01*
X229438200Y-66245419D01*
X229418198Y-66313540D01*
X229364542Y-66360033D01*
X229312534Y-66371419D01*
X224550147Y-66383984D01*
X222288115Y-66389952D01*
X222288114Y-66389952D01*
X222270000Y-66390000D01*
X222269946Y-66403335D01*
X222269946Y-66403336D01*
X222239857Y-73860732D01*
X222219580Y-73928772D01*
X222165737Y-73975048D01*
X222095423Y-73984868D01*
X222030962Y-73955115D01*
X222024763Y-73949319D01*
X221276950Y-73201506D01*
X221242924Y-73139194D01*
X221240052Y-73111094D01*
X221240125Y-73104120D01*
X221240168Y-73100000D01*
X221238446Y-73085765D01*
X221222601Y-72954839D01*
X221221689Y-72947299D01*
X221167319Y-72803413D01*
X221080197Y-72676649D01*
X221074526Y-72671597D01*
X221074524Y-72671594D01*
X221049082Y-72648926D01*
X221011526Y-72588676D01*
X221006900Y-72554849D01*
X221006900Y-66872576D01*
X221006899Y-66872570D01*
X221006899Y-66840153D01*
X220999947Y-66818756D01*
X220995333Y-66799537D01*
X220993361Y-66787089D01*
X220993360Y-66787085D01*
X220991809Y-66777294D01*
X220981587Y-66757233D01*
X220974022Y-66738968D01*
X220970134Y-66727002D01*
X220967069Y-66717568D01*
X220953840Y-66699359D01*
X220943512Y-66682507D01*
X220933292Y-66662449D01*
X220910369Y-66639526D01*
X220910366Y-66639522D01*
X219334301Y-65063458D01*
X219300276Y-65001146D01*
X219304083Y-64933863D01*
X219340784Y-64825745D01*
X219341612Y-64820036D01*
X219341613Y-64820031D01*
X219366321Y-64649618D01*
X219369912Y-64624853D01*
X219370796Y-64591110D01*
X219371335Y-64570504D01*
X219371432Y-64566800D01*
X219368764Y-64537764D01*
X219693348Y-64537764D01*
X219706624Y-64740322D01*
X219708045Y-64745918D01*
X219708046Y-64745923D01*
X219755171Y-64931474D01*
X219756592Y-64937069D01*
X219759009Y-64942312D01*
X219795064Y-65020521D01*
X219841577Y-65121416D01*
X219958733Y-65287189D01*
X220104138Y-65428835D01*
X220272920Y-65541612D01*
X220278223Y-65543890D01*
X220278226Y-65543892D01*
X220454119Y-65619461D01*
X220459428Y-65621742D01*
X220527831Y-65637220D01*
X220651779Y-65665267D01*
X220651784Y-65665268D01*
X220657416Y-65666542D01*
X220663187Y-65666769D01*
X220663189Y-65666769D01*
X220722956Y-65669117D01*
X220860253Y-65674512D01*
X220967548Y-65658955D01*
X221055431Y-65646213D01*
X221055436Y-65646212D01*
X221061145Y-65645384D01*
X221066609Y-65643529D01*
X221066614Y-65643528D01*
X221247893Y-65581992D01*
X221247898Y-65581990D01*
X221253365Y-65580134D01*
X221430476Y-65480947D01*
X221435773Y-65476542D01*
X221582113Y-65354831D01*
X221586545Y-65351145D01*
X221716347Y-65195076D01*
X221790057Y-65063458D01*
X221812710Y-65023008D01*
X221812711Y-65023006D01*
X221815534Y-65017965D01*
X221817390Y-65012498D01*
X221817392Y-65012493D01*
X221878928Y-64831214D01*
X221878929Y-64831209D01*
X221880784Y-64825745D01*
X221881612Y-64820036D01*
X221881613Y-64820031D01*
X221906321Y-64649618D01*
X221909912Y-64624853D01*
X221910796Y-64591110D01*
X221911335Y-64570504D01*
X221911432Y-64566800D01*
X221899997Y-64442351D01*
X221893387Y-64370413D01*
X221893386Y-64370410D01*
X221892858Y-64364659D01*
X221889599Y-64353102D01*
X221839325Y-64174846D01*
X221839324Y-64174844D01*
X221837757Y-64169287D01*
X221827178Y-64147833D01*
X221750531Y-63992409D01*
X221747976Y-63987228D01*
X221715769Y-63944097D01*
X221712589Y-63939839D01*
X221626520Y-63824579D01*
X221482809Y-63691733D01*
X222237700Y-63691733D01*
X222237701Y-65441866D01*
X222244598Y-65476542D01*
X222249119Y-65499272D01*
X222252466Y-65516101D01*
X222259361Y-65526420D01*
X222259362Y-65526422D01*
X222296554Y-65582082D01*
X222308716Y-65600284D01*
X222392899Y-65656534D01*
X222467133Y-65671300D01*
X223342058Y-65671300D01*
X224217266Y-65671299D01*
X224253018Y-65664188D01*
X224279326Y-65658956D01*
X224279328Y-65658955D01*
X224291501Y-65656534D01*
X224301821Y-65649639D01*
X224301822Y-65649638D01*
X224365368Y-65607177D01*
X224375684Y-65600284D01*
X224431934Y-65516101D01*
X224446700Y-65441867D01*
X224446699Y-63691734D01*
X224431934Y-63617499D01*
X224405854Y-63578467D01*
X224382577Y-63543632D01*
X224375684Y-63533316D01*
X224291501Y-63477066D01*
X224217267Y-63462300D01*
X223342342Y-63462300D01*
X222467134Y-63462301D01*
X222431382Y-63469412D01*
X222405074Y-63474644D01*
X222405072Y-63474645D01*
X222392899Y-63477066D01*
X222382579Y-63483961D01*
X222382578Y-63483962D01*
X222341520Y-63511397D01*
X222308716Y-63533316D01*
X222252466Y-63617499D01*
X222237700Y-63691733D01*
X221482809Y-63691733D01*
X221477458Y-63686787D01*
X221472575Y-63683706D01*
X221472571Y-63683703D01*
X221310664Y-63581548D01*
X221305781Y-63578467D01*
X221117239Y-63503246D01*
X221111579Y-63502120D01*
X221111575Y-63502119D01*
X220923813Y-63464771D01*
X220923810Y-63464771D01*
X220918146Y-63463644D01*
X220912371Y-63463568D01*
X220912367Y-63463568D01*
X220810993Y-63462241D01*
X220715171Y-63460987D01*
X220709474Y-63461966D01*
X220709473Y-63461966D01*
X220621597Y-63477066D01*
X220515110Y-63495364D01*
X220324663Y-63565624D01*
X220150210Y-63669412D01*
X220145870Y-63673218D01*
X220145866Y-63673221D01*
X220059207Y-63749220D01*
X219997592Y-63803255D01*
X219994017Y-63807790D01*
X219994016Y-63807791D01*
X219974699Y-63832294D01*
X219871920Y-63962669D01*
X219869231Y-63967780D01*
X219869229Y-63967783D01*
X219836331Y-64030312D01*
X219777403Y-64142315D01*
X219717207Y-64336178D01*
X219693348Y-64537764D01*
X219368764Y-64537764D01*
X219359997Y-64442351D01*
X219353387Y-64370413D01*
X219353386Y-64370410D01*
X219352858Y-64364659D01*
X219349599Y-64353102D01*
X219299325Y-64174846D01*
X219299324Y-64174844D01*
X219297757Y-64169287D01*
X219287178Y-64147833D01*
X219210531Y-63992409D01*
X219207976Y-63987228D01*
X219175769Y-63944097D01*
X219172589Y-63939839D01*
X219086520Y-63824579D01*
X218937458Y-63686787D01*
X218932575Y-63683706D01*
X218932571Y-63683703D01*
X218770664Y-63581548D01*
X218765781Y-63578467D01*
X218577239Y-63503246D01*
X218571579Y-63502120D01*
X218571575Y-63502119D01*
X218383813Y-63464771D01*
X218383810Y-63464771D01*
X218378146Y-63463644D01*
X218372371Y-63463568D01*
X218372367Y-63463568D01*
X218270993Y-63462241D01*
X218175171Y-63460987D01*
X218169474Y-63461966D01*
X218169473Y-63461966D01*
X218081597Y-63477066D01*
X217975110Y-63495364D01*
X217784663Y-63565624D01*
X217610210Y-63669412D01*
X217605870Y-63673218D01*
X217605866Y-63673221D01*
X217519207Y-63749220D01*
X217457592Y-63803255D01*
X217454017Y-63807790D01*
X217454016Y-63807791D01*
X217434699Y-63832294D01*
X217331920Y-63962669D01*
X217329231Y-63967780D01*
X217329229Y-63967783D01*
X217296331Y-64030312D01*
X217237403Y-64142315D01*
X217177207Y-64336178D01*
X217153348Y-64537764D01*
X217166624Y-64740322D01*
X217168045Y-64745918D01*
X217168046Y-64745923D01*
X217188319Y-64825745D01*
X217216592Y-64937069D01*
X217216691Y-64937283D01*
X217220478Y-65006374D01*
X217186915Y-65066642D01*
X214497362Y-67756195D01*
X214435050Y-67790221D01*
X214408267Y-67793100D01*
X212846651Y-67793100D01*
X212778530Y-67773098D01*
X212762832Y-67761177D01*
X212671024Y-67679380D01*
X212665353Y-67674327D01*
X212651602Y-67667046D01*
X212536131Y-67605907D01*
X212536128Y-67605906D01*
X212529416Y-67602352D01*
X212380234Y-67564880D01*
X212372636Y-67564840D01*
X212372634Y-67564840D01*
X212307143Y-67564497D01*
X212226421Y-67564075D01*
X212219042Y-67565847D01*
X212219038Y-67565847D01*
X212084234Y-67598210D01*
X212084230Y-67598211D01*
X212076855Y-67599982D01*
X211940172Y-67670529D01*
X211934450Y-67675521D01*
X211934448Y-67675522D01*
X211829989Y-67766648D01*
X211824262Y-67771644D01*
X211810585Y-67791104D01*
X211755054Y-67835334D01*
X211684422Y-67842520D01*
X211621117Y-67810380D01*
X211585238Y-67749116D01*
X211581500Y-67718652D01*
X211581500Y-66759212D01*
X211601502Y-66691091D01*
X211618405Y-66670117D01*
X212658286Y-65630237D01*
X212720598Y-65596211D01*
X212797120Y-65603565D01*
X212834117Y-65619461D01*
X212834125Y-65619463D01*
X212839428Y-65621742D01*
X212907831Y-65637220D01*
X213031779Y-65665267D01*
X213031784Y-65665268D01*
X213037416Y-65666542D01*
X213043187Y-65666769D01*
X213043189Y-65666769D01*
X213102956Y-65669117D01*
X213240253Y-65674512D01*
X213347548Y-65658955D01*
X213435431Y-65646213D01*
X213435436Y-65646212D01*
X213441145Y-65645384D01*
X213446609Y-65643529D01*
X213446614Y-65643528D01*
X213627893Y-65581992D01*
X213627898Y-65581990D01*
X213633365Y-65580134D01*
X213810476Y-65480947D01*
X213815773Y-65476542D01*
X213962113Y-65354831D01*
X213966545Y-65351145D01*
X214096347Y-65195076D01*
X214170057Y-65063458D01*
X214192710Y-65023008D01*
X214192711Y-65023006D01*
X214195534Y-65017965D01*
X214197390Y-65012498D01*
X214197392Y-65012493D01*
X214258928Y-64831214D01*
X214258929Y-64831209D01*
X214260784Y-64825745D01*
X214261612Y-64820036D01*
X214261613Y-64820031D01*
X214286321Y-64649618D01*
X214289912Y-64624853D01*
X214290796Y-64591110D01*
X214291335Y-64570504D01*
X214291432Y-64566800D01*
X214288764Y-64537764D01*
X214613348Y-64537764D01*
X214626624Y-64740322D01*
X214628045Y-64745918D01*
X214628046Y-64745923D01*
X214675171Y-64931474D01*
X214676592Y-64937069D01*
X214679009Y-64942312D01*
X214715064Y-65020521D01*
X214761577Y-65121416D01*
X214878733Y-65287189D01*
X215024138Y-65428835D01*
X215192920Y-65541612D01*
X215198223Y-65543890D01*
X215198226Y-65543892D01*
X215374119Y-65619461D01*
X215379428Y-65621742D01*
X215447831Y-65637220D01*
X215571779Y-65665267D01*
X215571784Y-65665268D01*
X215577416Y-65666542D01*
X215583187Y-65666769D01*
X215583189Y-65666769D01*
X215642956Y-65669117D01*
X215780253Y-65674512D01*
X215887548Y-65658955D01*
X215975431Y-65646213D01*
X215975436Y-65646212D01*
X215981145Y-65645384D01*
X215986609Y-65643529D01*
X215986614Y-65643528D01*
X216167893Y-65581992D01*
X216167898Y-65581990D01*
X216173365Y-65580134D01*
X216350476Y-65480947D01*
X216355773Y-65476542D01*
X216502113Y-65354831D01*
X216506545Y-65351145D01*
X216636347Y-65195076D01*
X216710057Y-65063458D01*
X216732710Y-65023008D01*
X216732711Y-65023006D01*
X216735534Y-65017965D01*
X216737390Y-65012498D01*
X216737392Y-65012493D01*
X216798928Y-64831214D01*
X216798929Y-64831209D01*
X216800784Y-64825745D01*
X216801612Y-64820036D01*
X216801613Y-64820031D01*
X216826321Y-64649618D01*
X216829912Y-64624853D01*
X216830796Y-64591110D01*
X216831335Y-64570504D01*
X216831432Y-64566800D01*
X216819997Y-64442351D01*
X216813387Y-64370413D01*
X216813386Y-64370410D01*
X216812858Y-64364659D01*
X216809599Y-64353102D01*
X216759325Y-64174846D01*
X216759324Y-64174844D01*
X216757757Y-64169287D01*
X216747178Y-64147833D01*
X216670531Y-63992409D01*
X216667976Y-63987228D01*
X216635769Y-63944097D01*
X216632589Y-63939839D01*
X216546520Y-63824579D01*
X216397458Y-63686787D01*
X216392575Y-63683706D01*
X216392571Y-63683703D01*
X216230664Y-63581548D01*
X216225781Y-63578467D01*
X216037239Y-63503246D01*
X216031579Y-63502120D01*
X216031575Y-63502119D01*
X215843813Y-63464771D01*
X215843810Y-63464771D01*
X215838146Y-63463644D01*
X215832371Y-63463568D01*
X215832367Y-63463568D01*
X215730993Y-63462241D01*
X215635171Y-63460987D01*
X215629474Y-63461966D01*
X215629473Y-63461966D01*
X215541597Y-63477066D01*
X215435110Y-63495364D01*
X215244663Y-63565624D01*
X215070210Y-63669412D01*
X215065870Y-63673218D01*
X215065866Y-63673221D01*
X214979207Y-63749220D01*
X214917592Y-63803255D01*
X214914017Y-63807790D01*
X214914016Y-63807791D01*
X214894699Y-63832294D01*
X214791920Y-63962669D01*
X214789231Y-63967780D01*
X214789229Y-63967783D01*
X214756331Y-64030312D01*
X214697403Y-64142315D01*
X214637207Y-64336178D01*
X214613348Y-64537764D01*
X214288764Y-64537764D01*
X214279997Y-64442351D01*
X214273387Y-64370413D01*
X214273386Y-64370410D01*
X214272858Y-64364659D01*
X214269599Y-64353102D01*
X214219325Y-64174846D01*
X214219324Y-64174844D01*
X214217757Y-64169287D01*
X214207178Y-64147833D01*
X214130531Y-63992409D01*
X214127976Y-63987228D01*
X214095769Y-63944097D01*
X214092589Y-63939839D01*
X214006520Y-63824579D01*
X213857458Y-63686787D01*
X213852575Y-63683706D01*
X213852571Y-63683703D01*
X213690664Y-63581548D01*
X213685781Y-63578467D01*
X213497239Y-63503246D01*
X213491579Y-63502120D01*
X213491575Y-63502119D01*
X213303813Y-63464771D01*
X213303810Y-63464771D01*
X213298146Y-63463644D01*
X213292371Y-63463568D01*
X213292367Y-63463568D01*
X213190993Y-63462241D01*
X213095171Y-63460987D01*
X213089474Y-63461966D01*
X213089473Y-63461966D01*
X213001597Y-63477066D01*
X212895110Y-63495364D01*
X212704663Y-63565624D01*
X212530210Y-63669412D01*
X212525870Y-63673218D01*
X212525866Y-63673221D01*
X212439207Y-63749220D01*
X212377592Y-63803255D01*
X212374017Y-63807790D01*
X212374016Y-63807791D01*
X212354699Y-63832294D01*
X212251920Y-63962669D01*
X212249231Y-63967780D01*
X212249229Y-63967783D01*
X212216331Y-64030312D01*
X212157403Y-64142315D01*
X212097207Y-64336178D01*
X212073348Y-64537764D01*
X212086624Y-64740322D01*
X212088045Y-64745918D01*
X212088046Y-64745923D01*
X212106868Y-64820031D01*
X212136592Y-64937069D01*
X212139009Y-64942312D01*
X212139011Y-64942317D01*
X212142683Y-64950283D01*
X212153036Y-65020521D01*
X212123773Y-65085206D01*
X212117352Y-65092126D01*
X211542935Y-65666542D01*
X210968521Y-66240956D01*
X210949505Y-66256315D01*
X210948444Y-66257281D01*
X210939696Y-66262929D01*
X210933250Y-66271106D01*
X210918771Y-66289472D01*
X210914794Y-66293947D01*
X210914865Y-66294008D01*
X210911512Y-66297965D01*
X210907829Y-66301648D01*
X210904803Y-66305883D01*
X210904801Y-66305885D01*
X210896547Y-66317436D01*
X210892984Y-66322182D01*
X210861066Y-66362670D01*
X210858015Y-66371357D01*
X210852666Y-66378843D01*
X210849683Y-66388819D01*
X210849682Y-66388820D01*
X210837902Y-66428211D01*
X210836072Y-66433843D01*
X210818984Y-66482502D01*
X210818500Y-66488091D01*
X210818500Y-66490802D01*
X210818385Y-66493469D01*
X210818366Y-66493532D01*
X210818192Y-66493525D01*
X210818145Y-66494271D01*
X210816275Y-66500524D01*
X210816684Y-66510928D01*
X210818403Y-66554678D01*
X210818500Y-66559625D01*
X210818500Y-68445865D01*
X210815914Y-68470164D01*
X210815846Y-68471602D01*
X210813655Y-68481780D01*
X210814879Y-68492120D01*
X210817627Y-68515342D01*
X210817979Y-68521320D01*
X210818072Y-68521312D01*
X210818500Y-68526490D01*
X210818500Y-68531692D01*
X210819354Y-68536822D01*
X210821686Y-68550832D01*
X210822523Y-68556711D01*
X210825468Y-68581592D01*
X210828582Y-68607907D01*
X210832567Y-68616206D01*
X210834078Y-68625283D01*
X210858558Y-68670651D01*
X210861239Y-68675914D01*
X210880127Y-68715250D01*
X210880130Y-68715254D01*
X210883560Y-68722398D01*
X210887170Y-68726692D01*
X210889102Y-68728624D01*
X210890889Y-68730573D01*
X210890918Y-68730626D01*
X210890788Y-68730745D01*
X210891289Y-68731313D01*
X210894388Y-68737057D01*
X210902033Y-68744124D01*
X210934209Y-68773867D01*
X210937775Y-68777297D01*
X212681595Y-70521117D01*
X212715621Y-70583429D01*
X212718500Y-70610212D01*
X212718500Y-74832146D01*
X212698498Y-74900267D01*
X212675332Y-74927093D01*
X212624262Y-74971644D01*
X212535818Y-75097488D01*
X212533059Y-75104563D01*
X212533058Y-75104566D01*
X212506480Y-75172735D01*
X212479944Y-75240797D01*
X212478952Y-75248330D01*
X212478952Y-75248331D01*
X212470232Y-75314569D01*
X212459867Y-75393296D01*
X212468307Y-75469740D01*
X212475314Y-75533210D01*
X212476746Y-75546183D01*
X212479355Y-75553314D01*
X212479356Y-75553316D01*
X212509813Y-75636542D01*
X212529606Y-75690630D01*
X212533842Y-75696933D01*
X212533842Y-75696934D01*
X212611162Y-75811999D01*
X212611165Y-75812002D01*
X212615396Y-75818299D01*
X212729163Y-75921819D01*
X212864338Y-75995213D01*
X213013119Y-76034245D01*
X213092938Y-76035499D01*
X213159318Y-76036542D01*
X213159321Y-76036542D01*
X213166916Y-76036661D01*
X213174320Y-76034965D01*
X213174322Y-76034965D01*
X213229589Y-76022307D01*
X213316849Y-76002322D01*
X213338187Y-75991590D01*
X213447481Y-75936622D01*
X213447484Y-75936620D01*
X213454264Y-75933210D01*
X213571226Y-75833314D01*
X213660983Y-75708403D01*
X213718355Y-75565688D01*
X213740028Y-75413407D01*
X213740168Y-75400000D01*
X213738446Y-75385765D01*
X213728231Y-75301356D01*
X213721689Y-75247299D01*
X213667319Y-75103413D01*
X213605460Y-75013407D01*
X213584499Y-74982908D01*
X213584497Y-74982906D01*
X213580197Y-74976649D01*
X213523681Y-74926295D01*
X213486125Y-74866045D01*
X213481500Y-74832219D01*
X213481500Y-70493296D01*
X215059867Y-70493296D01*
X215067013Y-70558022D01*
X215072775Y-70610212D01*
X215076746Y-70646183D01*
X215079355Y-70653314D01*
X215079356Y-70653316D01*
X215122339Y-70770771D01*
X215129606Y-70790630D01*
X215133842Y-70796933D01*
X215133842Y-70796934D01*
X215136814Y-70801356D01*
X215215396Y-70918299D01*
X215221015Y-70923412D01*
X215221016Y-70923413D01*
X215277299Y-70974626D01*
X215314222Y-71035266D01*
X215318500Y-71067820D01*
X215318500Y-77345865D01*
X215315914Y-77370164D01*
X215315846Y-77371602D01*
X215313655Y-77381780D01*
X215314879Y-77392120D01*
X215317627Y-77415342D01*
X215317979Y-77421320D01*
X215318072Y-77421312D01*
X215318500Y-77426490D01*
X215318500Y-77431692D01*
X215319354Y-77436822D01*
X215321686Y-77450832D01*
X215322522Y-77456704D01*
X215328582Y-77507907D01*
X215332567Y-77516206D01*
X215334078Y-77525283D01*
X215358558Y-77570651D01*
X215361239Y-77575914D01*
X215380127Y-77615250D01*
X215380130Y-77615254D01*
X215383560Y-77622398D01*
X215387170Y-77626692D01*
X215389102Y-77628624D01*
X215390889Y-77630573D01*
X215390918Y-77630626D01*
X215390788Y-77630745D01*
X215391289Y-77631313D01*
X215394388Y-77637057D01*
X215402033Y-77644124D01*
X215434209Y-77673867D01*
X215437775Y-77677297D01*
X219226854Y-81466377D01*
X219260880Y-81528689D01*
X219262681Y-81571916D01*
X219260858Y-81585761D01*
X219260858Y-81585770D01*
X219259867Y-81593296D01*
X219276746Y-81746183D01*
X219279355Y-81753314D01*
X219279356Y-81753316D01*
X219325571Y-81879603D01*
X219329606Y-81890630D01*
X219333842Y-81896933D01*
X219333842Y-81896934D01*
X219411162Y-82011999D01*
X219411165Y-82012002D01*
X219415396Y-82018299D01*
X219529163Y-82121819D01*
X219664338Y-82195213D01*
X219813119Y-82234245D01*
X219892938Y-82235499D01*
X219959318Y-82236542D01*
X219959321Y-82236542D01*
X219966916Y-82236661D01*
X219974320Y-82234965D01*
X219974322Y-82234965D01*
X220029589Y-82222307D01*
X220116849Y-82202322D01*
X220138187Y-82191590D01*
X220247481Y-82136622D01*
X220247484Y-82136620D01*
X220254264Y-82133210D01*
X220371226Y-82033314D01*
X220460983Y-81908403D01*
X220518355Y-81765688D01*
X220540028Y-81613407D01*
X220540168Y-81600000D01*
X220539365Y-81593360D01*
X220527388Y-81494396D01*
X220521689Y-81447299D01*
X220467319Y-81303413D01*
X220410346Y-81220516D01*
X220384499Y-81182908D01*
X220384497Y-81182906D01*
X220380197Y-81176649D01*
X220265353Y-81074327D01*
X220205594Y-81042686D01*
X220136131Y-81005907D01*
X220136128Y-81005906D01*
X220129416Y-81002352D01*
X219980234Y-80964880D01*
X219972636Y-80964840D01*
X219972634Y-80964840D01*
X219855281Y-80964226D01*
X219787265Y-80943868D01*
X219766845Y-80927323D01*
X216118405Y-77278882D01*
X216084379Y-77216570D01*
X216081500Y-77189787D01*
X216081500Y-71068035D01*
X216101502Y-70999914D01*
X216125669Y-70972225D01*
X216165450Y-70938249D01*
X216165458Y-70938241D01*
X216171226Y-70933314D01*
X216260983Y-70808403D01*
X216276209Y-70770529D01*
X216315522Y-70672735D01*
X216318355Y-70665688D01*
X216340028Y-70513407D01*
X216340168Y-70500000D01*
X216338446Y-70485765D01*
X216325486Y-70378678D01*
X216321689Y-70347299D01*
X216267319Y-70203413D01*
X216180197Y-70076649D01*
X216065353Y-69974327D01*
X216051602Y-69967046D01*
X215936131Y-69905907D01*
X215936128Y-69905906D01*
X215929416Y-69902352D01*
X215780234Y-69864880D01*
X215772636Y-69864840D01*
X215772634Y-69864840D01*
X215707143Y-69864497D01*
X215626421Y-69864075D01*
X215619042Y-69865847D01*
X215619038Y-69865847D01*
X215484234Y-69898210D01*
X215484230Y-69898211D01*
X215476855Y-69899982D01*
X215340172Y-69970529D01*
X215224262Y-70071644D01*
X215135818Y-70197488D01*
X215133059Y-70204563D01*
X215133058Y-70204566D01*
X215082704Y-70333717D01*
X215079944Y-70340797D01*
X215078952Y-70348330D01*
X215078952Y-70348331D01*
X215066788Y-70440729D01*
X215059867Y-70493296D01*
X213481500Y-70493296D01*
X213481500Y-70454140D01*
X213484087Y-70429824D01*
X213484154Y-70428401D01*
X213486346Y-70418220D01*
X213482373Y-70384652D01*
X213482021Y-70378678D01*
X213481928Y-70378686D01*
X213481500Y-70373508D01*
X213481500Y-70368308D01*
X213479258Y-70354839D01*
X213478314Y-70349165D01*
X213477477Y-70343286D01*
X213472642Y-70302433D01*
X213472642Y-70302432D01*
X213471418Y-70292093D01*
X213467433Y-70283794D01*
X213465922Y-70274717D01*
X213441442Y-70229349D01*
X213438761Y-70224086D01*
X213419869Y-70184743D01*
X213416440Y-70177602D01*
X213412831Y-70173308D01*
X213410905Y-70171382D01*
X213409109Y-70169424D01*
X213409079Y-70169367D01*
X213409208Y-70169249D01*
X213408710Y-70168684D01*
X213405612Y-70162943D01*
X213365804Y-70126145D01*
X213362239Y-70122716D01*
X212289797Y-69050274D01*
X212255771Y-68987962D01*
X212260836Y-68917147D01*
X212303383Y-68860311D01*
X212363823Y-68836612D01*
X212366916Y-68836661D01*
X212374320Y-68834965D01*
X212374323Y-68834965D01*
X212456098Y-68816236D01*
X212516849Y-68802322D01*
X212566606Y-68777297D01*
X212647481Y-68736622D01*
X212647484Y-68736620D01*
X212654264Y-68733210D01*
X212766806Y-68637089D01*
X212831596Y-68608058D01*
X212848637Y-68606900D01*
X214693446Y-68606900D01*
X214714848Y-68599946D01*
X214734074Y-68595330D01*
X214746513Y-68593360D01*
X214756306Y-68591809D01*
X214776359Y-68581592D01*
X214794620Y-68574028D01*
X214806597Y-68570136D01*
X214806599Y-68570135D01*
X214816032Y-68567070D01*
X214834241Y-68553840D01*
X214851096Y-68543510D01*
X214871151Y-68533292D01*
X217763411Y-65641032D01*
X217825723Y-65607006D01*
X217902242Y-65614359D01*
X217914119Y-65619461D01*
X217919428Y-65621742D01*
X217925057Y-65623016D01*
X217925058Y-65623016D01*
X218111779Y-65665267D01*
X218111784Y-65665268D01*
X218117416Y-65666542D01*
X218123187Y-65666769D01*
X218123189Y-65666769D01*
X218182956Y-65669117D01*
X218320253Y-65674512D01*
X218427548Y-65658955D01*
X218515431Y-65646213D01*
X218515436Y-65646212D01*
X218521145Y-65645384D01*
X218629263Y-65608683D01*
X218700196Y-65605727D01*
X218758858Y-65638901D01*
X220156195Y-67036239D01*
X220190221Y-67098551D01*
X220193100Y-67125334D01*
X220193100Y-72554304D01*
X220173098Y-72622425D01*
X220149932Y-72649251D01*
X220124262Y-72671644D01*
X220035818Y-72797488D01*
X220033059Y-72804563D01*
X220033058Y-72804566D01*
X219982704Y-72933717D01*
X219979944Y-72940797D01*
X219959867Y-73093296D01*
X219964934Y-73139194D01*
X219971814Y-73201506D01*
X219976746Y-73246183D01*
X220029606Y-73390630D01*
X220033842Y-73396933D01*
X220033842Y-73396934D01*
X220111162Y-73511999D01*
X220111165Y-73512002D01*
X220115396Y-73518299D01*
X220229163Y-73621819D01*
X220364338Y-73695213D01*
X220513119Y-73734245D01*
X220610098Y-73735768D01*
X220677895Y-73756837D01*
X220697214Y-73772657D01*
X221563507Y-74638951D01*
X221597532Y-74701263D01*
X221600411Y-74728046D01*
X221600411Y-83855880D01*
X221580409Y-83924001D01*
X221526753Y-83970494D01*
X221456479Y-83980598D01*
X221407176Y-83962442D01*
X221310665Y-83901548D01*
X221310660Y-83901546D01*
X221305781Y-83898467D01*
X221117239Y-83823246D01*
X221111579Y-83822120D01*
X221111575Y-83822119D01*
X220923813Y-83784771D01*
X220923810Y-83784771D01*
X220918146Y-83783644D01*
X220912371Y-83783568D01*
X220912367Y-83783568D01*
X220810993Y-83782241D01*
X220715171Y-83780987D01*
X220709474Y-83781966D01*
X220709473Y-83781966D01*
X220621597Y-83797066D01*
X220515110Y-83815364D01*
X220324663Y-83885624D01*
X220150210Y-83989412D01*
X220145870Y-83993218D01*
X220145866Y-83993221D01*
X220008233Y-84113923D01*
X219997592Y-84123255D01*
X219871920Y-84282669D01*
X219869231Y-84287780D01*
X219869229Y-84287783D01*
X219856273Y-84312409D01*
X219777403Y-84462315D01*
X219717207Y-84656178D01*
X219693348Y-84857764D01*
X219706624Y-85060322D01*
X219708045Y-85065918D01*
X219708046Y-85065923D01*
X219728319Y-85145745D01*
X219756592Y-85257069D01*
X219759009Y-85262312D01*
X219796210Y-85343008D01*
X219841577Y-85441416D01*
X219844910Y-85446132D01*
X219920766Y-85553466D01*
X219958733Y-85607189D01*
X220104138Y-85748835D01*
X220272920Y-85861612D01*
X220278223Y-85863890D01*
X220278226Y-85863892D01*
X220454121Y-85939462D01*
X220459428Y-85941742D01*
X220532444Y-85958264D01*
X220651779Y-85985267D01*
X220651784Y-85985268D01*
X220657416Y-85986542D01*
X220663187Y-85986769D01*
X220663189Y-85986769D01*
X220722956Y-85989117D01*
X220860253Y-85994512D01*
X220967541Y-85978956D01*
X221055431Y-85966213D01*
X221055436Y-85966212D01*
X221061145Y-85965384D01*
X221066609Y-85963529D01*
X221066614Y-85963528D01*
X221247893Y-85901992D01*
X221247898Y-85901990D01*
X221253365Y-85900134D01*
X221412848Y-85810819D01*
X221482053Y-85794987D01*
X221548835Y-85819084D01*
X221591988Y-85875461D01*
X221600411Y-85920755D01*
X221600411Y-100351757D01*
X221603476Y-100361190D01*
X221607365Y-100373159D01*
X221611981Y-100392385D01*
X221615502Y-100414617D01*
X221620003Y-100423450D01*
X221620003Y-100423451D01*
X221625719Y-100434669D01*
X221633283Y-100452931D01*
X221637153Y-100464839D01*
X221640241Y-100474343D01*
X221646072Y-100482368D01*
X221653471Y-100492552D01*
X221663801Y-100509407D01*
X221674019Y-100529461D01*
X221671722Y-100530631D01*
X221690696Y-100583797D01*
X221690895Y-100592320D01*
X221690859Y-100595761D01*
X221689867Y-100603296D01*
X221694095Y-100641590D01*
X221699058Y-100686542D01*
X221706746Y-100756183D01*
X221709355Y-100763314D01*
X221709356Y-100763316D01*
X221716463Y-100782735D01*
X221759606Y-100900630D01*
X221763842Y-100906933D01*
X221763842Y-100906934D01*
X221841162Y-101021999D01*
X221841165Y-101022002D01*
X221845396Y-101028299D01*
X221959163Y-101131819D01*
X222094338Y-101205213D01*
X222243119Y-101244245D01*
X222322938Y-101245499D01*
X222389318Y-101246542D01*
X222389321Y-101246542D01*
X222396916Y-101246661D01*
X222404320Y-101244965D01*
X222404322Y-101244965D01*
X222459589Y-101232307D01*
X222546849Y-101212322D01*
X222568187Y-101201590D01*
X222677481Y-101146622D01*
X222677484Y-101146620D01*
X222684264Y-101143210D01*
X222801226Y-101043314D01*
X222890983Y-100918403D01*
X222948355Y-100775688D01*
X222970028Y-100623407D01*
X222970168Y-100610000D01*
X222968407Y-100595442D01*
X222955955Y-100492552D01*
X222951689Y-100457299D01*
X222897319Y-100313413D01*
X222869688Y-100273210D01*
X222814499Y-100192908D01*
X222814497Y-100192906D01*
X222810197Y-100186649D01*
X222800764Y-100178244D01*
X222762143Y-100143835D01*
X222695353Y-100084327D01*
X222638304Y-100054121D01*
X222566131Y-100015907D01*
X222566128Y-100015906D01*
X222559416Y-100012352D01*
X222552053Y-100010503D01*
X222552049Y-100010501D01*
X222509516Y-99999818D01*
X222448320Y-99963824D01*
X222416299Y-99900458D01*
X222414211Y-99877614D01*
X222414211Y-86117300D01*
X222434213Y-86049179D01*
X222487869Y-86002686D01*
X222540211Y-85991300D01*
X224080619Y-85991299D01*
X224217266Y-85991299D01*
X224253018Y-85984188D01*
X224279326Y-85978956D01*
X224279328Y-85978955D01*
X224291501Y-85976534D01*
X224301821Y-85969639D01*
X224301822Y-85969638D01*
X224365368Y-85927177D01*
X224375684Y-85920284D01*
X224431934Y-85836101D01*
X224446700Y-85761867D01*
X224446699Y-84011734D01*
X224436094Y-83958414D01*
X224434356Y-83949674D01*
X224434355Y-83949672D01*
X224431934Y-83937499D01*
X224409007Y-83903186D01*
X224382577Y-83863632D01*
X224375684Y-83853316D01*
X224291501Y-83797066D01*
X224217267Y-83782300D01*
X224080659Y-83782300D01*
X222540211Y-83782301D01*
X222472090Y-83762299D01*
X222425597Y-83708643D01*
X222414211Y-83656301D01*
X222414211Y-82372275D01*
X222434213Y-82304154D01*
X222487869Y-82257661D01*
X222539552Y-82246277D01*
X226518344Y-82225473D01*
X229311542Y-82210868D01*
X229379766Y-82230513D01*
X229426538Y-82283925D01*
X229438200Y-82336866D01*
X229438200Y-108677440D01*
X229418198Y-108745561D01*
X229364542Y-108792054D01*
X229294268Y-108802158D01*
X229229688Y-108772664D01*
X229194334Y-108721977D01*
X229190004Y-108710518D01*
X229190003Y-108710516D01*
X229187319Y-108703413D01*
X229125902Y-108614050D01*
X229104499Y-108582908D01*
X229104497Y-108582906D01*
X229100197Y-108576649D01*
X228985353Y-108474327D01*
X228971602Y-108467046D01*
X228856131Y-108405907D01*
X228856128Y-108405906D01*
X228849416Y-108402352D01*
X228700234Y-108364880D01*
X228692636Y-108364840D01*
X228692634Y-108364840D01*
X228627143Y-108364497D01*
X228546421Y-108364075D01*
X228539042Y-108365847D01*
X228539038Y-108365847D01*
X228404234Y-108398210D01*
X228404230Y-108398211D01*
X228396855Y-108399982D01*
X228260172Y-108470529D01*
X228144262Y-108571644D01*
X228140472Y-108577036D01*
X228080392Y-108614050D01*
X228047202Y-108618500D01*
X226515311Y-108618500D01*
X226447190Y-108598498D01*
X226426216Y-108581595D01*
X225454901Y-107610280D01*
X225454898Y-107610278D01*
X218607226Y-100762606D01*
X218573201Y-100700295D01*
X218578266Y-100629480D01*
X218588861Y-100615326D01*
X218583835Y-100619865D01*
X218513783Y-100631405D01*
X218448612Y-100603240D01*
X218440063Y-100595442D01*
X214988405Y-97143784D01*
X214954379Y-97081472D01*
X214951500Y-97054689D01*
X214951500Y-91708177D01*
X214971502Y-91640056D01*
X215025158Y-91593563D01*
X215095432Y-91583459D01*
X215160012Y-91612953D01*
X215166595Y-91619082D01*
X216483506Y-92935993D01*
X216517532Y-92998305D01*
X216520411Y-93025088D01*
X216520411Y-97757776D01*
X216517825Y-97782075D01*
X216517757Y-97783513D01*
X216515566Y-97793691D01*
X216516790Y-97804031D01*
X216519538Y-97827253D01*
X216519890Y-97833231D01*
X216519983Y-97833223D01*
X216520411Y-97838401D01*
X216520411Y-97843603D01*
X216521265Y-97848733D01*
X216523597Y-97862743D01*
X216524433Y-97868615D01*
X216530493Y-97919818D01*
X216534478Y-97928117D01*
X216535989Y-97937194D01*
X216560469Y-97982562D01*
X216563150Y-97987825D01*
X216582038Y-98027161D01*
X216582041Y-98027165D01*
X216585471Y-98034309D01*
X216589081Y-98038603D01*
X216591013Y-98040535D01*
X216592800Y-98042484D01*
X216592829Y-98042537D01*
X216592699Y-98042656D01*
X216593200Y-98043224D01*
X216596299Y-98048968D01*
X216603944Y-98056035D01*
X216636120Y-98085778D01*
X216639686Y-98089208D01*
X218466854Y-99916376D01*
X218500880Y-99978688D01*
X218502681Y-100021915D01*
X218500858Y-100035761D01*
X218500858Y-100035769D01*
X218499867Y-100043296D01*
X218504397Y-100084327D01*
X218515136Y-100181598D01*
X218516746Y-100196183D01*
X218519355Y-100203314D01*
X218519356Y-100203316D01*
X218542092Y-100265443D01*
X218569606Y-100340630D01*
X218573841Y-100346933D01*
X218573845Y-100346940D01*
X218633739Y-100436071D01*
X218655132Y-100503768D01*
X218638190Y-100566163D01*
X218687333Y-100547833D01*
X218756707Y-100562924D01*
X218765276Y-100568282D01*
X218769163Y-100571819D01*
X218904338Y-100645213D01*
X219053119Y-100684245D01*
X219132938Y-100685499D01*
X219199318Y-100686542D01*
X219199321Y-100686542D01*
X219206916Y-100686661D01*
X219214320Y-100684965D01*
X219214322Y-100684965D01*
X219269589Y-100672307D01*
X219356849Y-100652322D01*
X219402266Y-100629480D01*
X219487481Y-100586622D01*
X219487484Y-100586620D01*
X219494264Y-100583210D01*
X219611226Y-100483314D01*
X219700983Y-100358403D01*
X219710306Y-100335213D01*
X219755522Y-100222735D01*
X219758355Y-100215688D01*
X219780028Y-100063407D01*
X219780168Y-100050000D01*
X219777622Y-100028957D01*
X219769315Y-99960314D01*
X219761689Y-99897299D01*
X219707319Y-99753413D01*
X219660004Y-99684569D01*
X219624499Y-99632908D01*
X219624497Y-99632906D01*
X219620197Y-99626649D01*
X219505353Y-99524327D01*
X219475712Y-99508633D01*
X219376131Y-99455907D01*
X219376128Y-99455906D01*
X219369416Y-99452352D01*
X219220234Y-99414880D01*
X219212636Y-99414840D01*
X219212634Y-99414840D01*
X219095282Y-99414226D01*
X219027266Y-99393868D01*
X219006846Y-99377323D01*
X217320316Y-97690793D01*
X217286290Y-97628481D01*
X217283411Y-97601698D01*
X217283411Y-92869010D01*
X217285997Y-92844711D01*
X217286065Y-92843273D01*
X217288256Y-92833095D01*
X217284284Y-92799531D01*
X217283931Y-92793554D01*
X217283839Y-92793562D01*
X217283411Y-92788386D01*
X217283411Y-92783183D01*
X217280220Y-92764011D01*
X217279387Y-92758158D01*
X217276487Y-92733648D01*
X217273329Y-92706967D01*
X217269344Y-92698668D01*
X217267833Y-92689592D01*
X217243359Y-92644234D01*
X217240666Y-92638948D01*
X217221783Y-92599623D01*
X217221781Y-92599620D01*
X217218351Y-92592477D01*
X217214741Y-92588183D01*
X217212811Y-92586253D01*
X217211022Y-92584302D01*
X217210993Y-92584249D01*
X217211123Y-92584130D01*
X217210622Y-92583562D01*
X217207523Y-92577818D01*
X217167701Y-92541007D01*
X217164136Y-92537578D01*
X210808823Y-86182264D01*
X210774797Y-86119952D01*
X210779862Y-86049137D01*
X210822409Y-85992301D01*
X210879840Y-85968473D01*
X210884133Y-85967851D01*
X210895429Y-85966213D01*
X210895431Y-85966212D01*
X210901145Y-85965384D01*
X210906609Y-85963529D01*
X210906614Y-85963528D01*
X211087893Y-85901992D01*
X211087898Y-85901990D01*
X211093365Y-85900134D01*
X211270476Y-85800947D01*
X211277643Y-85794987D01*
X211397896Y-85694972D01*
X211426545Y-85671145D01*
X211467085Y-85622401D01*
X211552653Y-85519518D01*
X211552655Y-85519515D01*
X211556347Y-85515076D01*
X211655534Y-85337965D01*
X211657390Y-85332498D01*
X211657392Y-85332493D01*
X211718928Y-85151214D01*
X211718929Y-85151209D01*
X211720784Y-85145745D01*
X211721612Y-85140036D01*
X211721613Y-85140031D01*
X211749379Y-84948527D01*
X211749912Y-84944853D01*
X211751432Y-84886800D01*
X211748764Y-84857764D01*
X212073348Y-84857764D01*
X212086624Y-85060322D01*
X212088045Y-85065918D01*
X212088046Y-85065923D01*
X212108319Y-85145745D01*
X212136592Y-85257069D01*
X212139009Y-85262312D01*
X212176210Y-85343008D01*
X212221577Y-85441416D01*
X212224910Y-85446132D01*
X212300766Y-85553466D01*
X212338733Y-85607189D01*
X212484138Y-85748835D01*
X212652920Y-85861612D01*
X212658223Y-85863890D01*
X212658226Y-85863892D01*
X212834121Y-85939462D01*
X212839428Y-85941742D01*
X212912444Y-85958264D01*
X213031779Y-85985267D01*
X213031784Y-85985268D01*
X213037416Y-85986542D01*
X213043187Y-85986769D01*
X213043189Y-85986769D01*
X213102956Y-85989117D01*
X213240253Y-85994512D01*
X213347541Y-85978956D01*
X213435431Y-85966213D01*
X213435436Y-85966212D01*
X213441145Y-85965384D01*
X213446609Y-85963529D01*
X213446614Y-85963528D01*
X213627893Y-85901992D01*
X213627898Y-85901990D01*
X213633365Y-85900134D01*
X213810476Y-85800947D01*
X213817643Y-85794987D01*
X213937896Y-85694972D01*
X213966545Y-85671145D01*
X214007085Y-85622401D01*
X214092653Y-85519518D01*
X214092655Y-85519515D01*
X214096347Y-85515076D01*
X214195534Y-85337965D01*
X214197390Y-85332498D01*
X214197392Y-85332493D01*
X214258928Y-85151214D01*
X214258929Y-85151209D01*
X214260784Y-85145745D01*
X214261612Y-85140036D01*
X214261613Y-85140031D01*
X214289379Y-84948527D01*
X214289912Y-84944853D01*
X214291432Y-84886800D01*
X214288764Y-84857764D01*
X214613348Y-84857764D01*
X214626624Y-85060322D01*
X214628045Y-85065918D01*
X214628046Y-85065923D01*
X214648319Y-85145745D01*
X214676592Y-85257069D01*
X214679009Y-85262312D01*
X214716210Y-85343008D01*
X214761577Y-85441416D01*
X214764910Y-85446132D01*
X214840766Y-85553466D01*
X214878733Y-85607189D01*
X215024138Y-85748835D01*
X215192920Y-85861612D01*
X215198223Y-85863890D01*
X215198226Y-85863892D01*
X215374121Y-85939462D01*
X215379428Y-85941742D01*
X215452444Y-85958264D01*
X215571779Y-85985267D01*
X215571784Y-85985268D01*
X215577416Y-85986542D01*
X215583187Y-85986769D01*
X215583189Y-85986769D01*
X215642956Y-85989117D01*
X215780253Y-85994512D01*
X215887541Y-85978956D01*
X215975431Y-85966213D01*
X215975436Y-85966212D01*
X215981145Y-85965384D01*
X215986609Y-85963529D01*
X215986614Y-85963528D01*
X216167893Y-85901992D01*
X216167898Y-85901990D01*
X216173365Y-85900134D01*
X216350476Y-85800947D01*
X216357643Y-85794987D01*
X216477896Y-85694972D01*
X216506545Y-85671145D01*
X216547085Y-85622401D01*
X216632653Y-85519518D01*
X216632655Y-85519515D01*
X216636347Y-85515076D01*
X216735534Y-85337965D01*
X216737390Y-85332498D01*
X216737392Y-85332493D01*
X216798928Y-85151214D01*
X216798929Y-85151209D01*
X216800784Y-85145745D01*
X216801612Y-85140036D01*
X216801613Y-85140031D01*
X216829379Y-84948527D01*
X216829912Y-84944853D01*
X216831432Y-84886800D01*
X216828764Y-84857764D01*
X217153348Y-84857764D01*
X217166624Y-85060322D01*
X217168045Y-85065918D01*
X217168046Y-85065923D01*
X217188319Y-85145745D01*
X217216592Y-85257069D01*
X217219009Y-85262312D01*
X217256210Y-85343008D01*
X217301577Y-85441416D01*
X217304910Y-85446132D01*
X217380766Y-85553466D01*
X217418733Y-85607189D01*
X217564138Y-85748835D01*
X217732920Y-85861612D01*
X217738223Y-85863890D01*
X217738226Y-85863892D01*
X217914121Y-85939462D01*
X217919428Y-85941742D01*
X217992444Y-85958264D01*
X218111779Y-85985267D01*
X218111784Y-85985268D01*
X218117416Y-85986542D01*
X218123187Y-85986769D01*
X218123189Y-85986769D01*
X218182956Y-85989117D01*
X218320253Y-85994512D01*
X218427541Y-85978956D01*
X218515431Y-85966213D01*
X218515436Y-85966212D01*
X218521145Y-85965384D01*
X218526609Y-85963529D01*
X218526614Y-85963528D01*
X218707893Y-85901992D01*
X218707898Y-85901990D01*
X218713365Y-85900134D01*
X218890476Y-85800947D01*
X218897643Y-85794987D01*
X219017896Y-85694972D01*
X219046545Y-85671145D01*
X219087085Y-85622401D01*
X219172653Y-85519518D01*
X219172655Y-85519515D01*
X219176347Y-85515076D01*
X219275534Y-85337965D01*
X219277390Y-85332498D01*
X219277392Y-85332493D01*
X219338928Y-85151214D01*
X219338929Y-85151209D01*
X219340784Y-85145745D01*
X219341612Y-85140036D01*
X219341613Y-85140031D01*
X219369379Y-84948527D01*
X219369912Y-84944853D01*
X219371432Y-84886800D01*
X219352858Y-84684659D01*
X219351290Y-84679099D01*
X219299325Y-84494846D01*
X219299324Y-84494844D01*
X219297757Y-84489287D01*
X219287178Y-84467833D01*
X219210531Y-84312409D01*
X219207976Y-84307228D01*
X219086520Y-84144579D01*
X218937458Y-84006787D01*
X218932575Y-84003706D01*
X218932571Y-84003703D01*
X218770664Y-83901548D01*
X218765781Y-83898467D01*
X218577239Y-83823246D01*
X218571579Y-83822120D01*
X218571575Y-83822119D01*
X218383813Y-83784771D01*
X218383810Y-83784771D01*
X218378146Y-83783644D01*
X218372371Y-83783568D01*
X218372367Y-83783568D01*
X218270993Y-83782241D01*
X218175171Y-83780987D01*
X218169474Y-83781966D01*
X218169473Y-83781966D01*
X218081597Y-83797066D01*
X217975110Y-83815364D01*
X217784663Y-83885624D01*
X217610210Y-83989412D01*
X217605870Y-83993218D01*
X217605866Y-83993221D01*
X217468233Y-84113923D01*
X217457592Y-84123255D01*
X217331920Y-84282669D01*
X217329231Y-84287780D01*
X217329229Y-84287783D01*
X217316273Y-84312409D01*
X217237403Y-84462315D01*
X217177207Y-84656178D01*
X217153348Y-84857764D01*
X216828764Y-84857764D01*
X216812858Y-84684659D01*
X216811290Y-84679099D01*
X216759325Y-84494846D01*
X216759324Y-84494844D01*
X216757757Y-84489287D01*
X216747178Y-84467833D01*
X216670531Y-84312409D01*
X216667976Y-84307228D01*
X216546520Y-84144579D01*
X216397458Y-84006787D01*
X216392575Y-84003706D01*
X216392571Y-84003703D01*
X216230664Y-83901548D01*
X216225781Y-83898467D01*
X216037239Y-83823246D01*
X216031579Y-83822120D01*
X216031575Y-83822119D01*
X215843813Y-83784771D01*
X215843810Y-83784771D01*
X215838146Y-83783644D01*
X215832371Y-83783568D01*
X215832367Y-83783568D01*
X215730993Y-83782241D01*
X215635171Y-83780987D01*
X215629474Y-83781966D01*
X215629473Y-83781966D01*
X215541597Y-83797066D01*
X215435110Y-83815364D01*
X215244663Y-83885624D01*
X215070210Y-83989412D01*
X215065870Y-83993218D01*
X215065866Y-83993221D01*
X214928233Y-84113923D01*
X214917592Y-84123255D01*
X214791920Y-84282669D01*
X214789231Y-84287780D01*
X214789229Y-84287783D01*
X214776273Y-84312409D01*
X214697403Y-84462315D01*
X214637207Y-84656178D01*
X214613348Y-84857764D01*
X214288764Y-84857764D01*
X214272858Y-84684659D01*
X214271290Y-84679099D01*
X214219325Y-84494846D01*
X214219324Y-84494844D01*
X214217757Y-84489287D01*
X214207178Y-84467833D01*
X214130531Y-84312409D01*
X214127976Y-84307228D01*
X214006520Y-84144579D01*
X213857458Y-84006787D01*
X213852575Y-84003706D01*
X213852571Y-84003703D01*
X213690664Y-83901548D01*
X213685781Y-83898467D01*
X213497239Y-83823246D01*
X213491579Y-83822120D01*
X213491575Y-83822119D01*
X213303813Y-83784771D01*
X213303810Y-83784771D01*
X213298146Y-83783644D01*
X213292371Y-83783568D01*
X213292367Y-83783568D01*
X213190993Y-83782241D01*
X213095171Y-83780987D01*
X213089474Y-83781966D01*
X213089473Y-83781966D01*
X213001597Y-83797066D01*
X212895110Y-83815364D01*
X212704663Y-83885624D01*
X212530210Y-83989412D01*
X212525870Y-83993218D01*
X212525866Y-83993221D01*
X212388233Y-84113923D01*
X212377592Y-84123255D01*
X212251920Y-84282669D01*
X212249231Y-84287780D01*
X212249229Y-84287783D01*
X212236273Y-84312409D01*
X212157403Y-84462315D01*
X212097207Y-84656178D01*
X212073348Y-84857764D01*
X211748764Y-84857764D01*
X211732858Y-84684659D01*
X211731290Y-84679099D01*
X211679325Y-84494846D01*
X211679324Y-84494844D01*
X211677757Y-84489287D01*
X211667178Y-84467833D01*
X211590531Y-84312409D01*
X211587976Y-84307228D01*
X211466520Y-84144579D01*
X211317458Y-84006787D01*
X211312575Y-84003706D01*
X211312571Y-84003703D01*
X211150664Y-83901548D01*
X211145781Y-83898467D01*
X210957239Y-83823246D01*
X210951579Y-83822120D01*
X210951575Y-83822119D01*
X210763813Y-83784771D01*
X210763810Y-83784771D01*
X210758146Y-83783644D01*
X210752371Y-83783568D01*
X210752367Y-83783568D01*
X210650993Y-83782241D01*
X210555171Y-83780987D01*
X210549474Y-83781966D01*
X210549473Y-83781966D01*
X210461597Y-83797066D01*
X210355110Y-83815364D01*
X210164663Y-83885624D01*
X210159702Y-83888576D01*
X210159701Y-83888576D01*
X209995176Y-83986457D01*
X209995172Y-83986460D01*
X209990210Y-83989412D01*
X209985867Y-83993220D01*
X209981560Y-83996350D01*
X209914692Y-84020208D01*
X209845541Y-84004126D01*
X209796061Y-83953212D01*
X209781500Y-83894413D01*
X209781500Y-65918736D01*
X209784085Y-65894447D01*
X209784153Y-65893000D01*
X209786345Y-65882820D01*
X209782373Y-65849260D01*
X209782020Y-65843279D01*
X209781928Y-65843287D01*
X209781500Y-65838108D01*
X209781500Y-65832908D01*
X209780647Y-65827781D01*
X209780646Y-65827773D01*
X209778312Y-65813751D01*
X209777475Y-65807875D01*
X209772641Y-65767031D01*
X209772640Y-65767029D01*
X209771417Y-65756692D01*
X209767433Y-65748395D01*
X209765922Y-65739317D01*
X209760978Y-65730155D01*
X209760977Y-65730151D01*
X209741447Y-65693956D01*
X209738751Y-65688666D01*
X209719871Y-65649347D01*
X209719871Y-65649346D01*
X209716440Y-65642202D01*
X209712830Y-65637908D01*
X209710898Y-65635976D01*
X209709111Y-65634027D01*
X209709082Y-65633974D01*
X209709212Y-65633855D01*
X209708711Y-65633287D01*
X209705612Y-65627543D01*
X209665791Y-65590733D01*
X209662226Y-65587304D01*
X209165198Y-65090276D01*
X209131172Y-65027964D01*
X209134980Y-64960680D01*
X209178928Y-64831214D01*
X209178929Y-64831209D01*
X209180784Y-64825745D01*
X209181612Y-64820036D01*
X209181613Y-64820031D01*
X209206321Y-64649618D01*
X209209912Y-64624853D01*
X209210796Y-64591110D01*
X209211335Y-64570504D01*
X209211432Y-64566800D01*
X209208764Y-64537764D01*
X209533348Y-64537764D01*
X209546624Y-64740322D01*
X209548045Y-64745918D01*
X209548046Y-64745923D01*
X209595171Y-64931474D01*
X209596592Y-64937069D01*
X209599009Y-64942312D01*
X209635064Y-65020521D01*
X209681577Y-65121416D01*
X209798733Y-65287189D01*
X209944138Y-65428835D01*
X210112920Y-65541612D01*
X210118223Y-65543890D01*
X210118226Y-65543892D01*
X210294119Y-65619461D01*
X210299428Y-65621742D01*
X210367831Y-65637220D01*
X210491779Y-65665267D01*
X210491784Y-65665268D01*
X210497416Y-65666542D01*
X210503187Y-65666769D01*
X210503189Y-65666769D01*
X210562956Y-65669117D01*
X210700253Y-65674512D01*
X210807548Y-65658955D01*
X210895431Y-65646213D01*
X210895436Y-65646212D01*
X210901145Y-65645384D01*
X210906609Y-65643529D01*
X210906614Y-65643528D01*
X211087893Y-65581992D01*
X211087898Y-65581990D01*
X211093365Y-65580134D01*
X211270476Y-65480947D01*
X211275773Y-65476542D01*
X211422113Y-65354831D01*
X211426545Y-65351145D01*
X211556347Y-65195076D01*
X211630057Y-65063458D01*
X211652710Y-65023008D01*
X211652711Y-65023006D01*
X211655534Y-65017965D01*
X211657390Y-65012498D01*
X211657392Y-65012493D01*
X211718928Y-64831214D01*
X211718929Y-64831209D01*
X211720784Y-64825745D01*
X211721612Y-64820036D01*
X211721613Y-64820031D01*
X211746321Y-64649618D01*
X211749912Y-64624853D01*
X211750796Y-64591110D01*
X211751335Y-64570504D01*
X211751432Y-64566800D01*
X211739997Y-64442351D01*
X211733387Y-64370413D01*
X211733386Y-64370410D01*
X211732858Y-64364659D01*
X211729599Y-64353102D01*
X211679325Y-64174846D01*
X211679324Y-64174844D01*
X211677757Y-64169287D01*
X211667178Y-64147833D01*
X211590531Y-63992409D01*
X211587976Y-63987228D01*
X211555769Y-63944097D01*
X211552589Y-63939839D01*
X211466520Y-63824579D01*
X211317458Y-63686787D01*
X211312575Y-63683706D01*
X211312571Y-63683703D01*
X211150664Y-63581548D01*
X211145781Y-63578467D01*
X210957239Y-63503246D01*
X210951579Y-63502120D01*
X210951575Y-63502119D01*
X210763813Y-63464771D01*
X210763810Y-63464771D01*
X210758146Y-63463644D01*
X210752371Y-63463568D01*
X210752367Y-63463568D01*
X210650993Y-63462241D01*
X210555171Y-63460987D01*
X210549474Y-63461966D01*
X210549473Y-63461966D01*
X210461597Y-63477066D01*
X210355110Y-63495364D01*
X210164663Y-63565624D01*
X209990210Y-63669412D01*
X209985870Y-63673218D01*
X209985866Y-63673221D01*
X209899207Y-63749220D01*
X209837592Y-63803255D01*
X209834017Y-63807790D01*
X209834016Y-63807791D01*
X209814699Y-63832294D01*
X209711920Y-63962669D01*
X209709231Y-63967780D01*
X209709229Y-63967783D01*
X209676331Y-64030312D01*
X209617403Y-64142315D01*
X209557207Y-64336178D01*
X209533348Y-64537764D01*
X209208764Y-64537764D01*
X209199997Y-64442351D01*
X209193387Y-64370413D01*
X209193386Y-64370410D01*
X209192858Y-64364659D01*
X209189599Y-64353102D01*
X209139325Y-64174846D01*
X209139324Y-64174844D01*
X209137757Y-64169287D01*
X209127178Y-64147833D01*
X209050531Y-63992409D01*
X209047976Y-63987228D01*
X209015769Y-63944097D01*
X209012589Y-63939839D01*
X208926520Y-63824579D01*
X208777458Y-63686787D01*
X208772575Y-63683706D01*
X208772571Y-63683703D01*
X208610664Y-63581548D01*
X208605781Y-63578467D01*
X208417239Y-63503246D01*
X208411579Y-63502120D01*
X208411575Y-63502119D01*
X208223813Y-63464771D01*
X208223810Y-63464771D01*
X208218146Y-63463644D01*
X208212371Y-63463568D01*
X208212367Y-63463568D01*
X208110993Y-63462241D01*
X208015171Y-63460987D01*
X208009474Y-63461966D01*
X208009473Y-63461966D01*
X207921597Y-63477066D01*
X207815110Y-63495364D01*
X207624663Y-63565624D01*
X207450210Y-63669412D01*
X207445870Y-63673218D01*
X207445866Y-63673221D01*
X207359207Y-63749220D01*
X207297592Y-63803255D01*
X207294017Y-63807790D01*
X207294016Y-63807791D01*
X207274699Y-63832294D01*
X207171920Y-63962669D01*
X207169231Y-63967780D01*
X207169229Y-63967783D01*
X207136331Y-64030312D01*
X207077403Y-64142315D01*
X207017207Y-64336178D01*
X206993348Y-64537764D01*
X207006624Y-64740322D01*
X207008045Y-64745918D01*
X207008046Y-64745923D01*
X207055171Y-64931474D01*
X207056592Y-64937069D01*
X207059009Y-64942312D01*
X207095064Y-65020521D01*
X207141577Y-65121416D01*
X207258733Y-65287189D01*
X207404138Y-65428835D01*
X207572920Y-65541612D01*
X207578223Y-65543890D01*
X207578226Y-65543892D01*
X207754119Y-65619461D01*
X207759428Y-65621742D01*
X207827831Y-65637220D01*
X207951779Y-65665267D01*
X207951784Y-65665268D01*
X207957416Y-65666542D01*
X207963187Y-65666769D01*
X207963189Y-65666769D01*
X208022956Y-65669117D01*
X208160253Y-65674512D01*
X208267548Y-65658955D01*
X208355431Y-65646213D01*
X208355436Y-65646212D01*
X208361145Y-65645384D01*
X208366609Y-65643529D01*
X208366614Y-65643528D01*
X208496079Y-65599580D01*
X208567014Y-65596624D01*
X208625676Y-65629798D01*
X208981596Y-65985719D01*
X209015621Y-66048031D01*
X209018500Y-66074814D01*
X209018500Y-83941545D01*
X208998498Y-84009666D01*
X208944842Y-84056159D01*
X208874568Y-84066263D01*
X208806973Y-84034070D01*
X208777458Y-84006787D01*
X208772575Y-84003706D01*
X208772571Y-84003703D01*
X208610664Y-83901548D01*
X208605781Y-83898467D01*
X208417239Y-83823246D01*
X208411579Y-83822120D01*
X208411575Y-83822119D01*
X208223813Y-83784771D01*
X208223810Y-83784771D01*
X208218146Y-83783644D01*
X208212371Y-83783568D01*
X208212367Y-83783568D01*
X208110993Y-83782241D01*
X208015171Y-83780987D01*
X208009474Y-83781966D01*
X208009473Y-83781966D01*
X207921597Y-83797066D01*
X207815110Y-83815364D01*
X207624663Y-83885624D01*
X207502314Y-83958414D01*
X207494412Y-83963115D01*
X207425641Y-83980755D01*
X207358251Y-83958414D01*
X207313638Y-83903186D01*
X207303989Y-83854830D01*
X207303989Y-81947724D01*
X207323991Y-81879603D01*
X207340894Y-81858628D01*
X207733146Y-81466377D01*
X208141483Y-81058040D01*
X208160494Y-81042686D01*
X208161556Y-81041720D01*
X208170304Y-81036071D01*
X208176748Y-81027896D01*
X208176751Y-81027894D01*
X208191229Y-81009528D01*
X208195208Y-81005050D01*
X208195137Y-81004990D01*
X208198490Y-81001033D01*
X208202171Y-80997352D01*
X208213469Y-80981543D01*
X208217032Y-80976798D01*
X208242485Y-80944510D01*
X208248934Y-80936330D01*
X208251984Y-80927645D01*
X208257334Y-80920158D01*
X208272109Y-80870753D01*
X208273930Y-80865150D01*
X208288388Y-80823981D01*
X208291016Y-80816498D01*
X208291500Y-80810909D01*
X208291500Y-80808196D01*
X208291615Y-80805531D01*
X208291634Y-80805468D01*
X208291808Y-80805475D01*
X208291855Y-80804729D01*
X208293725Y-80798476D01*
X208291597Y-80744322D01*
X208291500Y-80739375D01*
X208291500Y-66968740D01*
X208294087Y-66944424D01*
X208294154Y-66943001D01*
X208296346Y-66932820D01*
X208292373Y-66899252D01*
X208292021Y-66893278D01*
X208291928Y-66893286D01*
X208291500Y-66888108D01*
X208291500Y-66882908D01*
X208290646Y-66877776D01*
X208288314Y-66863765D01*
X208287477Y-66857886D01*
X208282642Y-66817033D01*
X208282642Y-66817032D01*
X208281418Y-66806693D01*
X208277433Y-66798394D01*
X208275922Y-66789317D01*
X208251442Y-66743949D01*
X208248761Y-66738686D01*
X208229869Y-66699343D01*
X208226440Y-66692202D01*
X208222831Y-66687908D01*
X208220905Y-66685982D01*
X208219109Y-66684024D01*
X208219079Y-66683967D01*
X208219208Y-66683849D01*
X208218710Y-66683284D01*
X208215612Y-66677543D01*
X208199284Y-66662449D01*
X208175805Y-66640746D01*
X208172239Y-66637316D01*
X206625198Y-65090275D01*
X206591172Y-65027963D01*
X206594980Y-64960679D01*
X206638928Y-64831214D01*
X206638929Y-64831209D01*
X206640784Y-64825745D01*
X206641612Y-64820036D01*
X206641613Y-64820031D01*
X206666321Y-64649618D01*
X206669912Y-64624853D01*
X206670796Y-64591110D01*
X206671335Y-64570504D01*
X206671432Y-64566800D01*
X206659997Y-64442351D01*
X206653387Y-64370413D01*
X206653386Y-64370410D01*
X206652858Y-64364659D01*
X206649599Y-64353102D01*
X206599325Y-64174846D01*
X206599324Y-64174844D01*
X206597757Y-64169287D01*
X206587178Y-64147833D01*
X206510531Y-63992409D01*
X206507976Y-63987228D01*
X206475769Y-63944097D01*
X206472589Y-63939839D01*
X206386520Y-63824579D01*
X206237458Y-63686787D01*
X206232575Y-63683706D01*
X206232571Y-63683703D01*
X206070664Y-63581548D01*
X206065781Y-63578467D01*
X205877239Y-63503246D01*
X205871579Y-63502120D01*
X205871575Y-63502119D01*
X205683813Y-63464771D01*
X205683810Y-63464771D01*
X205678146Y-63463644D01*
X205672371Y-63463568D01*
X205672367Y-63463568D01*
X205570993Y-63462241D01*
X205475171Y-63460987D01*
X205469474Y-63461966D01*
X205469473Y-63461966D01*
X205381597Y-63477066D01*
X205275110Y-63495364D01*
X205084663Y-63565624D01*
X204910210Y-63669412D01*
X204905870Y-63673218D01*
X204905866Y-63673221D01*
X204819207Y-63749220D01*
X204757592Y-63803255D01*
X204754017Y-63807790D01*
X204754016Y-63807791D01*
X204734699Y-63832294D01*
X204631920Y-63962669D01*
X204629231Y-63967780D01*
X204629229Y-63967783D01*
X204596331Y-64030312D01*
X204537403Y-64142315D01*
X204477207Y-64336178D01*
X204453348Y-64537764D01*
X204466624Y-64740322D01*
X204468045Y-64745918D01*
X204468046Y-64745923D01*
X204515171Y-64931474D01*
X204516592Y-64937069D01*
X204519009Y-64942312D01*
X204555064Y-65020521D01*
X204601577Y-65121416D01*
X204718733Y-65287189D01*
X204864138Y-65428835D01*
X205032920Y-65541612D01*
X205038223Y-65543890D01*
X205038226Y-65543892D01*
X205214119Y-65619461D01*
X205219428Y-65621742D01*
X205287831Y-65637220D01*
X205411779Y-65665267D01*
X205411784Y-65665268D01*
X205417416Y-65666542D01*
X205423187Y-65666769D01*
X205423189Y-65666769D01*
X205482956Y-65669117D01*
X205620253Y-65674512D01*
X205727548Y-65658955D01*
X205815431Y-65646213D01*
X205815436Y-65646212D01*
X205821145Y-65645384D01*
X205826609Y-65643529D01*
X205826614Y-65643528D01*
X205956080Y-65599580D01*
X206027015Y-65596624D01*
X206085676Y-65629798D01*
X206612624Y-66156746D01*
X206646650Y-66219058D01*
X206641585Y-66289873D01*
X206599038Y-66346709D01*
X206532518Y-66371520D01*
X206492830Y-66368044D01*
X206487604Y-66366731D01*
X206487602Y-66366731D01*
X206480234Y-66364880D01*
X206472636Y-66364840D01*
X206472634Y-66364840D01*
X206407143Y-66364497D01*
X206326421Y-66364075D01*
X206319042Y-66365847D01*
X206319038Y-66365847D01*
X206184234Y-66398210D01*
X206184230Y-66398211D01*
X206176855Y-66399982D01*
X206040172Y-66470529D01*
X206034450Y-66475521D01*
X206034448Y-66475522D01*
X206013811Y-66493525D01*
X205924262Y-66571644D01*
X205835818Y-66697488D01*
X205833059Y-66704563D01*
X205833058Y-66704566D01*
X205782704Y-66833717D01*
X205779944Y-66840797D01*
X205778952Y-66848330D01*
X205778952Y-66848331D01*
X205763100Y-66968740D01*
X205759867Y-66993296D01*
X205764608Y-67036239D01*
X205774387Y-67124812D01*
X205776746Y-67146183D01*
X205779355Y-67153314D01*
X205779356Y-67153316D01*
X205786463Y-67172735D01*
X205829606Y-67290630D01*
X205833842Y-67296933D01*
X205833842Y-67296934D01*
X205836814Y-67301356D01*
X205915396Y-67418299D01*
X205921015Y-67423412D01*
X205921016Y-67423413D01*
X205977299Y-67474626D01*
X206014222Y-67535266D01*
X206018500Y-67567820D01*
X206018500Y-74432146D01*
X205998498Y-74500267D01*
X205975332Y-74527093D01*
X205924262Y-74571644D01*
X205835818Y-74697488D01*
X205833059Y-74704563D01*
X205833058Y-74704566D01*
X205823904Y-74728046D01*
X205779944Y-74840797D01*
X205778952Y-74848330D01*
X205778952Y-74848331D01*
X205761235Y-74982908D01*
X205759867Y-74993296D01*
X205776746Y-75146183D01*
X205779355Y-75153314D01*
X205779356Y-75153316D01*
X205814127Y-75248331D01*
X205829606Y-75290630D01*
X205833842Y-75296933D01*
X205833842Y-75296934D01*
X205911162Y-75411999D01*
X205911165Y-75412002D01*
X205915396Y-75418299D01*
X206029163Y-75521819D01*
X206164338Y-75595213D01*
X206313119Y-75634245D01*
X206392938Y-75635499D01*
X206459318Y-75636542D01*
X206459321Y-75636542D01*
X206466916Y-75636661D01*
X206474320Y-75634965D01*
X206474322Y-75634965D01*
X206529589Y-75622307D01*
X206616849Y-75602322D01*
X206675677Y-75572735D01*
X206747481Y-75536622D01*
X206747484Y-75536620D01*
X206754264Y-75533210D01*
X206871226Y-75433314D01*
X206960983Y-75308403D01*
X207018355Y-75165688D01*
X207040028Y-75013407D01*
X207040168Y-75000000D01*
X207038446Y-74985765D01*
X207026788Y-74889435D01*
X207021689Y-74847299D01*
X206967319Y-74703413D01*
X206880197Y-74576649D01*
X206823681Y-74526295D01*
X206786125Y-74466045D01*
X206781500Y-74432219D01*
X206781500Y-67568035D01*
X206801502Y-67499914D01*
X206825669Y-67472225D01*
X206865450Y-67438249D01*
X206865458Y-67438241D01*
X206871226Y-67433314D01*
X206960983Y-67308403D01*
X207018355Y-67165688D01*
X207040028Y-67013407D01*
X207040168Y-67000000D01*
X207038446Y-66985765D01*
X207026773Y-66889309D01*
X207038446Y-66819279D01*
X207086128Y-66766677D01*
X207154679Y-66748204D01*
X207222335Y-66769724D01*
X207240955Y-66785077D01*
X207491595Y-67035717D01*
X207525621Y-67098029D01*
X207528500Y-67124812D01*
X207528500Y-80539787D01*
X207508498Y-80607908D01*
X207491595Y-80628883D01*
X207089631Y-81030846D01*
X206691006Y-81429471D01*
X206671995Y-81444825D01*
X206670933Y-81445791D01*
X206662185Y-81451440D01*
X206655741Y-81459615D01*
X206655738Y-81459617D01*
X206641260Y-81477983D01*
X206637283Y-81482458D01*
X206637354Y-81482519D01*
X206634001Y-81486476D01*
X206630318Y-81490159D01*
X206627292Y-81494394D01*
X206627290Y-81494396D01*
X206619036Y-81505947D01*
X206615471Y-81510696D01*
X206597658Y-81533292D01*
X206583555Y-81551181D01*
X206580504Y-81559868D01*
X206575155Y-81567354D01*
X206572172Y-81577330D01*
X206572171Y-81577331D01*
X206560391Y-81616722D01*
X206558561Y-81622354D01*
X206541473Y-81671013D01*
X206540989Y-81676602D01*
X206540989Y-81679313D01*
X206540874Y-81681980D01*
X206540855Y-81682043D01*
X206540681Y-81682036D01*
X206540634Y-81682782D01*
X206538764Y-81689035D01*
X206539173Y-81699439D01*
X206540892Y-81743189D01*
X206540989Y-81748136D01*
X206540989Y-83999309D01*
X206520987Y-84067430D01*
X206467331Y-84113923D01*
X206397057Y-84124027D01*
X206329462Y-84091835D01*
X206237458Y-84006787D01*
X206232575Y-84003706D01*
X206232571Y-84003703D01*
X206070664Y-83901548D01*
X206065781Y-83898467D01*
X205877239Y-83823246D01*
X205871579Y-83822120D01*
X205871575Y-83822119D01*
X205683813Y-83784771D01*
X205683810Y-83784771D01*
X205678146Y-83783644D01*
X205672371Y-83783568D01*
X205672367Y-83783568D01*
X205570993Y-83782241D01*
X205475171Y-83780987D01*
X205469474Y-83781966D01*
X205469473Y-83781966D01*
X205381597Y-83797066D01*
X205275110Y-83815364D01*
X205084663Y-83885624D01*
X204910210Y-83989412D01*
X204905870Y-83993218D01*
X204905866Y-83993221D01*
X204768233Y-84113923D01*
X204757592Y-84123255D01*
X204631920Y-84282669D01*
X204629231Y-84287780D01*
X204629229Y-84287783D01*
X204616273Y-84312409D01*
X204537403Y-84462315D01*
X204477207Y-84656178D01*
X204453348Y-84857764D01*
X204466624Y-85060322D01*
X204468045Y-85065918D01*
X204468046Y-85065923D01*
X204488319Y-85145745D01*
X204516592Y-85257069D01*
X204519009Y-85262312D01*
X204556210Y-85343008D01*
X204601577Y-85441416D01*
X204604910Y-85446132D01*
X204680766Y-85553466D01*
X204718733Y-85607189D01*
X204864138Y-85748835D01*
X205032920Y-85861612D01*
X205038223Y-85863890D01*
X205038226Y-85863892D01*
X205214121Y-85939462D01*
X205219428Y-85941742D01*
X205292444Y-85958264D01*
X205411779Y-85985267D01*
X205411784Y-85985268D01*
X205417416Y-85986542D01*
X205423187Y-85986769D01*
X205423189Y-85986769D01*
X205482956Y-85989117D01*
X205620253Y-85994512D01*
X205727541Y-85978956D01*
X205815431Y-85966213D01*
X205815436Y-85966212D01*
X205821145Y-85965384D01*
X205826609Y-85963529D01*
X205826614Y-85963528D01*
X206007893Y-85901992D01*
X206007898Y-85901990D01*
X206013365Y-85900134D01*
X206190476Y-85800947D01*
X206197643Y-85794987D01*
X206317263Y-85695499D01*
X206334419Y-85681230D01*
X206399583Y-85653049D01*
X206469639Y-85664572D01*
X206522343Y-85712141D01*
X206540989Y-85778104D01*
X206540989Y-89691590D01*
X206520987Y-89759711D01*
X206467331Y-89806204D01*
X206397057Y-89816308D01*
X206349154Y-89799023D01*
X206244322Y-89734781D01*
X206236752Y-89730824D01*
X205993904Y-89624222D01*
X205985844Y-89621320D01*
X205730792Y-89548667D01*
X205722414Y-89546885D01*
X205459856Y-89509518D01*
X205451311Y-89508891D01*
X205186108Y-89507502D01*
X205177574Y-89508039D01*
X204914633Y-89542656D01*
X204906235Y-89544349D01*
X204650438Y-89614327D01*
X204642343Y-89617146D01*
X204398399Y-89721197D01*
X204390777Y-89725081D01*
X204163213Y-89861275D01*
X204156181Y-89866162D01*
X204093253Y-89916577D01*
X204084784Y-89928700D01*
X204091180Y-89939970D01*
X205578315Y-91427105D01*
X205612341Y-91489417D01*
X205607276Y-91560232D01*
X205578315Y-91605295D01*
X204091110Y-93092500D01*
X204083818Y-93105854D01*
X204090873Y-93115827D01*
X204121879Y-93141751D01*
X204128798Y-93146779D01*
X204353472Y-93287715D01*
X204361007Y-93291756D01*
X204602720Y-93400894D01*
X204610751Y-93403880D01*
X204865032Y-93479202D01*
X204873384Y-93481069D01*
X205135540Y-93521184D01*
X205144074Y-93521900D01*
X205409245Y-93526067D01*
X205417796Y-93525618D01*
X205681083Y-93493757D01*
X205689484Y-93492155D01*
X205946024Y-93424853D01*
X205954126Y-93422126D01*
X206199149Y-93320634D01*
X206206817Y-93316828D01*
X206435798Y-93183022D01*
X206442879Y-93178209D01*
X206604754Y-93051284D01*
X206670702Y-93024992D01*
X206740397Y-93038527D01*
X206791709Y-93087594D01*
X206808500Y-93150438D01*
X206808500Y-97131844D01*
X206788498Y-97199965D01*
X206734842Y-97246458D01*
X206711914Y-97254363D01*
X206654234Y-97268210D01*
X206654230Y-97268211D01*
X206646855Y-97269982D01*
X206612682Y-97287620D01*
X206552516Y-97318674D01*
X206510172Y-97340529D01*
X206504450Y-97345521D01*
X206504448Y-97345522D01*
X206460465Y-97383891D01*
X206394262Y-97441644D01*
X206305818Y-97567488D01*
X206303059Y-97574563D01*
X206303058Y-97574566D01*
X206257743Y-97690793D01*
X206249944Y-97710797D01*
X206248952Y-97718330D01*
X206248952Y-97718331D01*
X206232460Y-97843603D01*
X206229867Y-97863296D01*
X206236107Y-97919818D01*
X206243321Y-97985157D01*
X206246746Y-98016183D01*
X206249355Y-98023314D01*
X206249356Y-98023316D01*
X206272823Y-98087441D01*
X206299606Y-98160630D01*
X206303842Y-98166933D01*
X206303842Y-98166934D01*
X206381162Y-98281999D01*
X206381165Y-98282002D01*
X206385396Y-98288299D01*
X206499163Y-98391819D01*
X206634338Y-98465213D01*
X206783119Y-98504245D01*
X206862938Y-98505499D01*
X206929318Y-98506542D01*
X206929321Y-98506542D01*
X206936916Y-98506661D01*
X206944320Y-98504965D01*
X206944322Y-98504965D01*
X206999589Y-98492307D01*
X207086849Y-98472322D01*
X207108187Y-98461590D01*
X207217481Y-98406622D01*
X207217484Y-98406620D01*
X207224264Y-98403210D01*
X207341226Y-98303314D01*
X207430983Y-98178403D01*
X207488355Y-98035688D01*
X207510028Y-97883407D01*
X207510168Y-97870000D01*
X207504818Y-97825793D01*
X207519489Y-97749963D01*
X207522489Y-97744505D01*
X207528934Y-97736330D01*
X207531984Y-97727645D01*
X207537334Y-97720158D01*
X207552109Y-97670753D01*
X207553930Y-97665150D01*
X207568388Y-97623981D01*
X207571016Y-97616498D01*
X207571500Y-97610909D01*
X207571500Y-97608196D01*
X207571615Y-97605531D01*
X207571634Y-97605468D01*
X207571808Y-97605475D01*
X207571855Y-97604729D01*
X207573725Y-97598476D01*
X207571597Y-97544322D01*
X207571500Y-97539375D01*
X207571500Y-90864537D01*
X207574087Y-90840221D01*
X207574154Y-90838798D01*
X207576346Y-90828617D01*
X207572373Y-90795049D01*
X207572021Y-90789075D01*
X207571928Y-90789083D01*
X207571500Y-90783905D01*
X207571500Y-90778705D01*
X207570646Y-90773573D01*
X207568314Y-90759562D01*
X207567477Y-90753683D01*
X207562642Y-90712830D01*
X207562642Y-90712829D01*
X207561418Y-90702490D01*
X207557433Y-90694191D01*
X207555922Y-90685114D01*
X207531442Y-90639746D01*
X207528761Y-90634483D01*
X207509869Y-90595140D01*
X207506440Y-90587999D01*
X207502831Y-90583705D01*
X207500905Y-90581779D01*
X207499109Y-90579821D01*
X207499079Y-90579764D01*
X207499208Y-90579646D01*
X207498710Y-90579081D01*
X207495612Y-90573340D01*
X207487244Y-90565604D01*
X207455805Y-90536543D01*
X207452239Y-90533113D01*
X207340894Y-90421768D01*
X207306868Y-90359456D01*
X207303989Y-90332673D01*
X207303989Y-85917647D01*
X207323991Y-85849526D01*
X207377647Y-85803033D01*
X207447921Y-85792929D01*
X207499990Y-85812882D01*
X207572920Y-85861612D01*
X207578223Y-85863890D01*
X207578226Y-85863892D01*
X207754121Y-85939462D01*
X207759428Y-85941742D01*
X207832444Y-85958264D01*
X207951779Y-85985267D01*
X207951784Y-85985268D01*
X207957416Y-85986542D01*
X207963187Y-85986769D01*
X207963189Y-85986769D01*
X208022956Y-85989117D01*
X208160253Y-85994512D01*
X208267541Y-85978956D01*
X208355431Y-85966213D01*
X208355436Y-85966212D01*
X208361145Y-85965384D01*
X208366609Y-85963529D01*
X208366614Y-85963528D01*
X208496080Y-85919580D01*
X208567015Y-85916624D01*
X208625676Y-85949798D01*
X214151595Y-91475718D01*
X214185621Y-91538030D01*
X214188500Y-91564813D01*
X214188500Y-97210767D01*
X214185914Y-97235066D01*
X214185846Y-97236504D01*
X214183655Y-97246682D01*
X214184879Y-97257022D01*
X214187627Y-97280244D01*
X214187979Y-97286222D01*
X214188072Y-97286214D01*
X214188500Y-97291392D01*
X214188500Y-97296594D01*
X214189354Y-97301724D01*
X214191686Y-97315734D01*
X214192523Y-97321613D01*
X214195353Y-97345522D01*
X214198582Y-97372809D01*
X214202567Y-97381108D01*
X214204078Y-97390185D01*
X214228558Y-97435553D01*
X214231239Y-97440816D01*
X214250127Y-97480152D01*
X214250130Y-97480156D01*
X214253560Y-97487300D01*
X214257170Y-97491594D01*
X214259102Y-97493526D01*
X214260889Y-97495475D01*
X214260918Y-97495528D01*
X214260788Y-97495647D01*
X214261289Y-97496215D01*
X214264388Y-97501959D01*
X214272033Y-97509026D01*
X214304209Y-97538769D01*
X214307775Y-97542199D01*
X215753404Y-98987828D01*
X215787430Y-99050140D01*
X215782365Y-99120955D01*
X215739818Y-99177791D01*
X215722099Y-99188889D01*
X215680172Y-99210529D01*
X215581972Y-99296195D01*
X215575261Y-99302049D01*
X215510779Y-99331757D01*
X215492432Y-99333100D01*
X204762955Y-99333100D01*
X204694834Y-99313098D01*
X204673860Y-99296195D01*
X191161615Y-85783950D01*
X191127589Y-85721638D01*
X191132654Y-85650823D01*
X191153836Y-85614286D01*
X191232649Y-85519524D01*
X191232656Y-85519514D01*
X191236347Y-85515076D01*
X191335534Y-85337965D01*
X191337920Y-85330935D01*
X191338370Y-85330296D01*
X191339741Y-85327216D01*
X191340346Y-85327485D01*
X191378753Y-85272859D01*
X191444505Y-85246078D01*
X191514298Y-85259095D01*
X191565973Y-85307780D01*
X191573977Y-85324029D01*
X191643970Y-85496403D01*
X191648613Y-85505594D01*
X191759894Y-85687188D01*
X191765977Y-85695499D01*
X191905413Y-85856467D01*
X191912780Y-85863683D01*
X192076634Y-85999716D01*
X192085081Y-86005631D01*
X192268956Y-86113079D01*
X192278242Y-86117529D01*
X192477201Y-86193503D01*
X192487099Y-86196379D01*
X192590450Y-86217406D01*
X192604499Y-86216210D01*
X192608200Y-86205865D01*
X192608200Y-86205317D01*
X193116200Y-86205317D01*
X193120264Y-86219159D01*
X193133678Y-86221193D01*
X193140384Y-86220334D01*
X193150462Y-86218192D01*
X193354455Y-86156991D01*
X193364042Y-86153233D01*
X193555295Y-86059539D01*
X193564145Y-86054264D01*
X193737528Y-85930592D01*
X193745400Y-85923939D01*
X193896252Y-85773612D01*
X193902930Y-85765765D01*
X194027203Y-85592820D01*
X194032513Y-85583983D01*
X194126870Y-85393067D01*
X194130669Y-85383472D01*
X194147266Y-85328847D01*
X194186207Y-85269483D01*
X194251062Y-85240596D01*
X194321238Y-85251358D01*
X194374456Y-85298351D01*
X194382248Y-85312722D01*
X194441577Y-85441416D01*
X194444910Y-85446132D01*
X194520766Y-85553466D01*
X194558733Y-85607189D01*
X194704138Y-85748835D01*
X194872920Y-85861612D01*
X194878223Y-85863890D01*
X194878226Y-85863892D01*
X195054121Y-85939462D01*
X195059428Y-85941742D01*
X195132444Y-85958264D01*
X195251779Y-85985267D01*
X195251784Y-85985268D01*
X195257416Y-85986542D01*
X195263187Y-85986769D01*
X195263189Y-85986769D01*
X195322956Y-85989117D01*
X195460253Y-85994512D01*
X195567541Y-85978956D01*
X195655431Y-85966213D01*
X195655436Y-85966212D01*
X195661145Y-85965384D01*
X195666609Y-85963529D01*
X195666614Y-85963528D01*
X195847893Y-85901992D01*
X195847898Y-85901990D01*
X195853365Y-85900134D01*
X196030476Y-85800947D01*
X196037643Y-85794987D01*
X196157896Y-85694972D01*
X196186545Y-85671145D01*
X196227085Y-85622401D01*
X196312653Y-85519518D01*
X196312655Y-85519515D01*
X196316347Y-85515076D01*
X196415534Y-85337965D01*
X196417390Y-85332498D01*
X196417392Y-85332493D01*
X196478928Y-85151214D01*
X196478929Y-85151209D01*
X196480784Y-85145745D01*
X196481612Y-85140036D01*
X196481613Y-85140031D01*
X196509379Y-84948527D01*
X196509912Y-84944853D01*
X196511432Y-84886800D01*
X196508764Y-84857764D01*
X196833348Y-84857764D01*
X196846624Y-85060322D01*
X196848045Y-85065918D01*
X196848046Y-85065923D01*
X196868319Y-85145745D01*
X196896592Y-85257069D01*
X196899009Y-85262312D01*
X196936210Y-85343008D01*
X196981577Y-85441416D01*
X196984910Y-85446132D01*
X197060766Y-85553466D01*
X197098733Y-85607189D01*
X197244138Y-85748835D01*
X197412920Y-85861612D01*
X197418223Y-85863890D01*
X197418226Y-85863892D01*
X197594121Y-85939462D01*
X197599428Y-85941742D01*
X197672444Y-85958264D01*
X197791779Y-85985267D01*
X197791784Y-85985268D01*
X197797416Y-85986542D01*
X197803187Y-85986769D01*
X197803189Y-85986769D01*
X197862956Y-85989117D01*
X198000253Y-85994512D01*
X198107541Y-85978956D01*
X198195431Y-85966213D01*
X198195436Y-85966212D01*
X198201145Y-85965384D01*
X198206609Y-85963529D01*
X198206614Y-85963528D01*
X198336080Y-85919580D01*
X198407015Y-85916624D01*
X198465676Y-85949798D01*
X201641595Y-89125717D01*
X201675621Y-89188029D01*
X201678500Y-89214812D01*
X201678500Y-94282146D01*
X201658498Y-94350267D01*
X201635332Y-94377093D01*
X201584262Y-94421644D01*
X201495818Y-94547488D01*
X201493059Y-94554563D01*
X201493058Y-94554566D01*
X201442704Y-94683717D01*
X201439944Y-94690797D01*
X201419867Y-94843296D01*
X201436746Y-94996183D01*
X201439355Y-95003314D01*
X201439356Y-95003316D01*
X201446463Y-95022735D01*
X201489606Y-95140630D01*
X201493842Y-95146933D01*
X201493842Y-95146934D01*
X201571162Y-95261999D01*
X201571165Y-95262002D01*
X201575396Y-95268299D01*
X201689163Y-95371819D01*
X201824338Y-95445213D01*
X201973119Y-95484245D01*
X202052938Y-95485499D01*
X202119318Y-95486542D01*
X202119321Y-95486542D01*
X202126916Y-95486661D01*
X202134320Y-95484965D01*
X202134322Y-95484965D01*
X202189589Y-95472307D01*
X202276849Y-95452322D01*
X202298187Y-95441590D01*
X202407481Y-95386622D01*
X202407484Y-95386620D01*
X202414264Y-95383210D01*
X202531226Y-95283314D01*
X202620983Y-95158403D01*
X202678355Y-95015688D01*
X202700028Y-94863407D01*
X202700168Y-94850000D01*
X202698446Y-94835765D01*
X202682601Y-94704839D01*
X202681689Y-94697299D01*
X202627319Y-94553413D01*
X202540197Y-94426649D01*
X202483681Y-94376295D01*
X202446125Y-94316045D01*
X202441500Y-94282219D01*
X202441500Y-91499404D01*
X203295865Y-91499404D01*
X203311132Y-91764169D01*
X203312205Y-91772670D01*
X203363265Y-92032922D01*
X203365476Y-92041174D01*
X203451384Y-92292094D01*
X203454699Y-92299979D01*
X203573864Y-92536913D01*
X203578220Y-92544279D01*
X203707547Y-92732450D01*
X203717801Y-92740794D01*
X203731542Y-92733648D01*
X204936178Y-91529012D01*
X204943792Y-91515068D01*
X204943661Y-91513235D01*
X204939410Y-91506620D01*
X203732014Y-90299224D01*
X203720004Y-90292666D01*
X203708264Y-90301634D01*
X203600135Y-90452111D01*
X203595618Y-90459396D01*
X203471525Y-90693767D01*
X203468039Y-90701595D01*
X203376900Y-90950646D01*
X203374511Y-90958870D01*
X203318012Y-91217995D01*
X203316763Y-91226450D01*
X203295954Y-91490853D01*
X203295865Y-91499404D01*
X202441500Y-91499404D01*
X202441500Y-89058740D01*
X202444087Y-89034424D01*
X202444154Y-89033001D01*
X202446346Y-89022820D01*
X202442373Y-88989252D01*
X202442021Y-88983278D01*
X202441928Y-88983286D01*
X202441500Y-88978108D01*
X202441500Y-88972908D01*
X202440646Y-88967776D01*
X202438314Y-88953765D01*
X202437477Y-88947886D01*
X202432642Y-88907033D01*
X202432642Y-88907032D01*
X202431418Y-88896693D01*
X202427433Y-88888394D01*
X202425922Y-88879317D01*
X202401442Y-88833949D01*
X202398761Y-88828686D01*
X202379869Y-88789343D01*
X202376440Y-88782202D01*
X202372831Y-88777908D01*
X202370905Y-88775982D01*
X202369109Y-88774024D01*
X202369079Y-88773967D01*
X202369208Y-88773849D01*
X202368710Y-88773284D01*
X202365612Y-88767543D01*
X202325804Y-88730745D01*
X202322239Y-88727316D01*
X199005198Y-85410275D01*
X198971172Y-85347963D01*
X198974980Y-85280679D01*
X199018928Y-85151214D01*
X199018929Y-85151209D01*
X199020784Y-85145745D01*
X199021612Y-85140036D01*
X199021613Y-85140031D01*
X199049379Y-84948527D01*
X199049912Y-84944853D01*
X199051432Y-84886800D01*
X199048764Y-84857764D01*
X199373348Y-84857764D01*
X199386624Y-85060322D01*
X199388045Y-85065918D01*
X199388046Y-85065923D01*
X199408319Y-85145745D01*
X199436592Y-85257069D01*
X199439009Y-85262312D01*
X199476210Y-85343008D01*
X199521577Y-85441416D01*
X199524910Y-85446132D01*
X199600766Y-85553466D01*
X199638733Y-85607189D01*
X199784138Y-85748835D01*
X199952920Y-85861612D01*
X199958223Y-85863890D01*
X199958226Y-85863892D01*
X200134121Y-85939462D01*
X200139428Y-85941742D01*
X200212444Y-85958264D01*
X200331779Y-85985267D01*
X200331784Y-85985268D01*
X200337416Y-85986542D01*
X200343187Y-85986769D01*
X200343189Y-85986769D01*
X200402956Y-85989117D01*
X200540253Y-85994512D01*
X200647541Y-85978956D01*
X200735431Y-85966213D01*
X200735436Y-85966212D01*
X200741145Y-85965384D01*
X200746609Y-85963529D01*
X200746614Y-85963528D01*
X200927893Y-85901992D01*
X200927898Y-85901990D01*
X200933365Y-85900134D01*
X201110476Y-85800947D01*
X201117643Y-85794987D01*
X201237896Y-85694972D01*
X201266545Y-85671145D01*
X201307085Y-85622401D01*
X201392653Y-85519518D01*
X201392655Y-85519515D01*
X201396347Y-85515076D01*
X201495534Y-85337965D01*
X201497390Y-85332498D01*
X201497392Y-85332493D01*
X201558928Y-85151214D01*
X201558929Y-85151209D01*
X201560784Y-85145745D01*
X201561612Y-85140036D01*
X201561613Y-85140031D01*
X201589379Y-84948527D01*
X201589912Y-84944853D01*
X201591432Y-84886800D01*
X201588764Y-84857764D01*
X201913348Y-84857764D01*
X201926624Y-85060322D01*
X201928045Y-85065918D01*
X201928046Y-85065923D01*
X201948319Y-85145745D01*
X201976592Y-85257069D01*
X201979009Y-85262312D01*
X202016210Y-85343008D01*
X202061577Y-85441416D01*
X202064910Y-85446132D01*
X202140766Y-85553466D01*
X202178733Y-85607189D01*
X202324138Y-85748835D01*
X202492920Y-85861612D01*
X202498223Y-85863890D01*
X202498226Y-85863892D01*
X202674121Y-85939462D01*
X202679428Y-85941742D01*
X202752444Y-85958264D01*
X202871779Y-85985267D01*
X202871784Y-85985268D01*
X202877416Y-85986542D01*
X202883187Y-85986769D01*
X202883189Y-85986769D01*
X202942956Y-85989117D01*
X203080253Y-85994512D01*
X203187541Y-85978956D01*
X203275431Y-85966213D01*
X203275436Y-85966212D01*
X203281145Y-85965384D01*
X203286609Y-85963529D01*
X203286614Y-85963528D01*
X203467893Y-85901992D01*
X203467898Y-85901990D01*
X203473365Y-85900134D01*
X203650476Y-85800947D01*
X203657643Y-85794987D01*
X203777896Y-85694972D01*
X203806545Y-85671145D01*
X203847085Y-85622401D01*
X203932653Y-85519518D01*
X203932655Y-85519515D01*
X203936347Y-85515076D01*
X204035534Y-85337965D01*
X204037390Y-85332498D01*
X204037392Y-85332493D01*
X204098928Y-85151214D01*
X204098929Y-85151209D01*
X204100784Y-85145745D01*
X204101612Y-85140036D01*
X204101613Y-85140031D01*
X204129379Y-84948527D01*
X204129912Y-84944853D01*
X204131432Y-84886800D01*
X204112858Y-84684659D01*
X204111290Y-84679099D01*
X204059325Y-84494846D01*
X204059324Y-84494844D01*
X204057757Y-84489287D01*
X204047178Y-84467833D01*
X203970531Y-84312409D01*
X203967976Y-84307228D01*
X203846520Y-84144579D01*
X203697458Y-84006787D01*
X203692575Y-84003706D01*
X203692571Y-84003703D01*
X203530664Y-83901548D01*
X203525781Y-83898467D01*
X203337239Y-83823246D01*
X203331579Y-83822120D01*
X203331575Y-83822119D01*
X203143813Y-83784771D01*
X203143810Y-83784771D01*
X203138146Y-83783644D01*
X203132371Y-83783568D01*
X203132367Y-83783568D01*
X203030993Y-83782241D01*
X202935171Y-83780987D01*
X202929474Y-83781966D01*
X202929473Y-83781966D01*
X202841597Y-83797066D01*
X202735110Y-83815364D01*
X202544663Y-83885624D01*
X202370210Y-83989412D01*
X202365870Y-83993218D01*
X202365866Y-83993221D01*
X202228233Y-84113923D01*
X202217592Y-84123255D01*
X202091920Y-84282669D01*
X202089231Y-84287780D01*
X202089229Y-84287783D01*
X202076273Y-84312409D01*
X201997403Y-84462315D01*
X201937207Y-84656178D01*
X201913348Y-84857764D01*
X201588764Y-84857764D01*
X201572858Y-84684659D01*
X201571290Y-84679099D01*
X201519325Y-84494846D01*
X201519324Y-84494844D01*
X201517757Y-84489287D01*
X201507178Y-84467833D01*
X201430531Y-84312409D01*
X201427976Y-84307228D01*
X201306520Y-84144579D01*
X201157458Y-84006787D01*
X201152575Y-84003706D01*
X201152571Y-84003703D01*
X200990664Y-83901548D01*
X200985781Y-83898467D01*
X200797239Y-83823246D01*
X200791579Y-83822120D01*
X200791575Y-83822119D01*
X200603813Y-83784771D01*
X200603810Y-83784771D01*
X200598146Y-83783644D01*
X200592371Y-83783568D01*
X200592367Y-83783568D01*
X200490993Y-83782241D01*
X200395171Y-83780987D01*
X200389474Y-83781966D01*
X200389473Y-83781966D01*
X200301597Y-83797066D01*
X200195110Y-83815364D01*
X200004663Y-83885624D01*
X199830210Y-83989412D01*
X199825870Y-83993218D01*
X199825866Y-83993221D01*
X199688233Y-84113923D01*
X199677592Y-84123255D01*
X199551920Y-84282669D01*
X199549231Y-84287780D01*
X199549229Y-84287783D01*
X199536273Y-84312409D01*
X199457403Y-84462315D01*
X199397207Y-84656178D01*
X199373348Y-84857764D01*
X199048764Y-84857764D01*
X199032858Y-84684659D01*
X199031290Y-84679099D01*
X198979325Y-84494846D01*
X198979324Y-84494844D01*
X198977757Y-84489287D01*
X198967178Y-84467833D01*
X198890531Y-84312409D01*
X198887976Y-84307228D01*
X198766520Y-84144579D01*
X198617458Y-84006787D01*
X198612575Y-84003706D01*
X198612571Y-84003703D01*
X198450664Y-83901548D01*
X198445781Y-83898467D01*
X198257239Y-83823246D01*
X198251579Y-83822120D01*
X198251575Y-83822119D01*
X198063813Y-83784771D01*
X198063810Y-83784771D01*
X198058146Y-83783644D01*
X198052371Y-83783568D01*
X198052367Y-83783568D01*
X197950993Y-83782241D01*
X197855171Y-83780987D01*
X197849474Y-83781966D01*
X197849473Y-83781966D01*
X197761597Y-83797066D01*
X197655110Y-83815364D01*
X197464663Y-83885624D01*
X197290210Y-83989412D01*
X197285870Y-83993218D01*
X197285866Y-83993221D01*
X197148233Y-84113923D01*
X197137592Y-84123255D01*
X197011920Y-84282669D01*
X197009231Y-84287780D01*
X197009229Y-84287783D01*
X196996273Y-84312409D01*
X196917403Y-84462315D01*
X196857207Y-84656178D01*
X196833348Y-84857764D01*
X196508764Y-84857764D01*
X196492858Y-84684659D01*
X196491290Y-84679099D01*
X196439325Y-84494846D01*
X196439324Y-84494844D01*
X196437757Y-84489287D01*
X196427178Y-84467833D01*
X196350531Y-84312409D01*
X196347976Y-84307228D01*
X196226520Y-84144579D01*
X196077458Y-84006787D01*
X196072575Y-84003706D01*
X196072571Y-84003703D01*
X195910664Y-83901548D01*
X195905781Y-83898467D01*
X195717239Y-83823246D01*
X195711579Y-83822120D01*
X195711575Y-83822119D01*
X195523813Y-83784771D01*
X195523810Y-83784771D01*
X195518146Y-83783644D01*
X195512371Y-83783568D01*
X195512367Y-83783568D01*
X195410993Y-83782241D01*
X195315171Y-83780987D01*
X195309474Y-83781966D01*
X195309473Y-83781966D01*
X195221597Y-83797066D01*
X195115110Y-83815364D01*
X194924663Y-83885624D01*
X194750210Y-83989412D01*
X194745870Y-83993218D01*
X194745866Y-83993221D01*
X194608233Y-84113923D01*
X194597592Y-84123255D01*
X194471920Y-84282669D01*
X194469231Y-84287780D01*
X194469229Y-84287783D01*
X194379789Y-84457780D01*
X194330370Y-84508752D01*
X194261237Y-84524915D01*
X194194341Y-84501136D01*
X194154203Y-84446773D01*
X194152155Y-84447663D01*
X194065172Y-84247614D01*
X194060305Y-84238539D01*
X193944626Y-84059726D01*
X193938336Y-84051557D01*
X193795006Y-83894040D01*
X193787473Y-83887015D01*
X193620339Y-83755022D01*
X193611752Y-83749317D01*
X193425317Y-83646399D01*
X193415905Y-83642169D01*
X193215159Y-83571080D01*
X193205188Y-83568446D01*
X193134037Y-83555772D01*
X193120740Y-83557232D01*
X193116200Y-83571789D01*
X193116200Y-86205317D01*
X192608200Y-86205317D01*
X192608200Y-83569902D01*
X192604282Y-83556558D01*
X192590006Y-83554571D01*
X192551524Y-83560460D01*
X192541488Y-83562851D01*
X192339068Y-83629012D01*
X192329559Y-83633009D01*
X192140663Y-83731342D01*
X192131938Y-83736836D01*
X191961633Y-83864705D01*
X191953926Y-83871548D01*
X191806790Y-84025517D01*
X191800304Y-84033527D01*
X191680298Y-84209449D01*
X191675200Y-84218423D01*
X191585538Y-84411583D01*
X191581977Y-84421264D01*
X191577491Y-84437440D01*
X191540013Y-84497739D01*
X191475884Y-84528203D01*
X191405466Y-84519160D01*
X191351115Y-84473482D01*
X191343067Y-84459498D01*
X191270531Y-84312409D01*
X191267976Y-84307228D01*
X191146520Y-84144579D01*
X190997458Y-84006787D01*
X190992575Y-84003706D01*
X190992571Y-84003703D01*
X190830664Y-83901548D01*
X190825781Y-83898467D01*
X190637239Y-83823246D01*
X190631579Y-83822120D01*
X190631575Y-83822119D01*
X190443813Y-83784771D01*
X190443810Y-83784771D01*
X190438146Y-83783644D01*
X190432371Y-83783568D01*
X190432367Y-83783568D01*
X190330993Y-83782241D01*
X190235171Y-83780987D01*
X190229474Y-83781966D01*
X190229473Y-83781966D01*
X190141597Y-83797066D01*
X190035110Y-83815364D01*
X189844663Y-83885624D01*
X189670210Y-83989412D01*
X189665870Y-83993218D01*
X189665866Y-83993221D01*
X189528233Y-84113923D01*
X189517592Y-84123255D01*
X189391920Y-84282669D01*
X189389231Y-84287780D01*
X189389229Y-84287783D01*
X189376273Y-84312409D01*
X189297403Y-84462315D01*
X189237207Y-84656178D01*
X189213348Y-84857764D01*
X189226624Y-85060322D01*
X189228045Y-85065918D01*
X189228046Y-85065923D01*
X189248319Y-85145745D01*
X189276592Y-85257069D01*
X189279009Y-85262312D01*
X189316210Y-85343008D01*
X189361577Y-85441416D01*
X189364907Y-85446128D01*
X189364910Y-85446133D01*
X189393291Y-85486291D01*
X189416272Y-85553466D01*
X189399287Y-85622401D01*
X189347730Y-85671210D01*
X189290394Y-85685011D01*
X189208046Y-85685011D01*
X189139925Y-85665009D01*
X189118951Y-85648107D01*
X188990362Y-85519518D01*
X188854301Y-85383458D01*
X188820276Y-85321145D01*
X188824083Y-85253863D01*
X188860784Y-85145745D01*
X188861612Y-85140036D01*
X188861613Y-85140031D01*
X188889379Y-84948527D01*
X188889912Y-84944853D01*
X188891432Y-84886800D01*
X188872858Y-84684659D01*
X188871290Y-84679099D01*
X188819325Y-84494846D01*
X188819324Y-84494844D01*
X188817757Y-84489287D01*
X188807178Y-84467833D01*
X188730531Y-84312409D01*
X188727976Y-84307228D01*
X188606520Y-84144579D01*
X188457458Y-84006787D01*
X188452575Y-84003706D01*
X188452571Y-84003703D01*
X188290664Y-83901548D01*
X188285781Y-83898467D01*
X188097239Y-83823246D01*
X188091579Y-83822120D01*
X188091575Y-83822119D01*
X187903813Y-83784771D01*
X187903810Y-83784771D01*
X187898146Y-83783644D01*
X187892371Y-83783568D01*
X187892367Y-83783568D01*
X187790993Y-83782241D01*
X187695171Y-83780987D01*
X187689474Y-83781966D01*
X187689473Y-83781966D01*
X187601597Y-83797066D01*
X187495110Y-83815364D01*
X187304663Y-83885624D01*
X187130210Y-83989412D01*
X187125870Y-83993218D01*
X187125866Y-83993221D01*
X186988233Y-84113923D01*
X186977592Y-84123255D01*
X186851920Y-84282669D01*
X186849231Y-84287780D01*
X186849229Y-84287783D01*
X186836273Y-84312409D01*
X186757403Y-84462315D01*
X186697207Y-84656178D01*
X186673348Y-84857764D01*
X186686624Y-85060322D01*
X186688045Y-85065918D01*
X186688046Y-85065923D01*
X186708319Y-85145745D01*
X186736592Y-85257069D01*
X186739009Y-85262312D01*
X186776210Y-85343008D01*
X186821577Y-85441416D01*
X186824910Y-85446132D01*
X186900766Y-85553466D01*
X186938733Y-85607189D01*
X187084138Y-85748835D01*
X187252920Y-85861612D01*
X187258223Y-85863890D01*
X187258226Y-85863892D01*
X187434121Y-85939462D01*
X187439428Y-85941742D01*
X187512444Y-85958264D01*
X187631779Y-85985267D01*
X187631784Y-85985268D01*
X187637416Y-85986542D01*
X187643187Y-85986769D01*
X187643189Y-85986769D01*
X187702956Y-85989117D01*
X187840253Y-85994512D01*
X187947541Y-85978956D01*
X188035431Y-85966213D01*
X188035436Y-85966212D01*
X188041145Y-85965384D01*
X188149263Y-85928683D01*
X188220195Y-85925727D01*
X188278858Y-85958901D01*
X188502220Y-86182264D01*
X188722232Y-86402276D01*
X188722247Y-86402290D01*
X188745160Y-86425203D01*
X188765216Y-86435422D01*
X188782059Y-86445744D01*
X188800279Y-86458981D01*
X188821688Y-86465937D01*
X188839951Y-86473502D01*
X188860005Y-86483720D01*
X188869797Y-86485271D01*
X188882241Y-86487242D01*
X188901460Y-86491856D01*
X188922864Y-86498810D01*
X188955283Y-86498810D01*
X188955287Y-86498811D01*
X190673400Y-86498811D01*
X190741521Y-86518813D01*
X190762495Y-86535716D01*
X193773384Y-89546605D01*
X193807410Y-89608917D01*
X193802345Y-89679732D01*
X193759798Y-89736568D01*
X193693278Y-89761379D01*
X193684289Y-89761700D01*
X191141067Y-89761701D01*
X191083134Y-89761701D01*
X191047382Y-89768812D01*
X191021074Y-89774044D01*
X191021072Y-89774045D01*
X191008899Y-89776466D01*
X190998579Y-89783361D01*
X190998578Y-89783362D01*
X190949272Y-89816308D01*
X190924716Y-89832716D01*
X190868466Y-89916899D01*
X190853700Y-89991133D01*
X190853700Y-90881700D01*
X190833698Y-90949821D01*
X190780042Y-90996314D01*
X190727700Y-91007700D01*
X186919017Y-91007700D01*
X186850896Y-90987698D01*
X186829922Y-90970795D01*
X182095405Y-86236278D01*
X182061379Y-86173966D01*
X182058500Y-86147183D01*
X182058500Y-84857764D01*
X184133348Y-84857764D01*
X184146624Y-85060322D01*
X184148045Y-85065918D01*
X184148046Y-85065923D01*
X184168319Y-85145745D01*
X184196592Y-85257069D01*
X184199009Y-85262312D01*
X184236210Y-85343008D01*
X184281577Y-85441416D01*
X184284910Y-85446132D01*
X184360766Y-85553466D01*
X184398733Y-85607189D01*
X184544138Y-85748835D01*
X184712920Y-85861612D01*
X184718223Y-85863890D01*
X184718226Y-85863892D01*
X184894121Y-85939462D01*
X184899428Y-85941742D01*
X184972444Y-85958264D01*
X185091779Y-85985267D01*
X185091784Y-85985268D01*
X185097416Y-85986542D01*
X185103187Y-85986769D01*
X185103189Y-85986769D01*
X185162956Y-85989117D01*
X185300253Y-85994512D01*
X185407541Y-85978956D01*
X185495431Y-85966213D01*
X185495436Y-85966212D01*
X185501145Y-85965384D01*
X185506609Y-85963529D01*
X185506614Y-85963528D01*
X185687893Y-85901992D01*
X185687898Y-85901990D01*
X185693365Y-85900134D01*
X185870476Y-85800947D01*
X185877643Y-85794987D01*
X185997896Y-85694972D01*
X186026545Y-85671145D01*
X186067085Y-85622401D01*
X186152653Y-85519518D01*
X186152655Y-85519515D01*
X186156347Y-85515076D01*
X186255534Y-85337965D01*
X186257390Y-85332498D01*
X186257392Y-85332493D01*
X186318928Y-85151214D01*
X186318929Y-85151209D01*
X186320784Y-85145745D01*
X186321612Y-85140036D01*
X186321613Y-85140031D01*
X186349379Y-84948527D01*
X186349912Y-84944853D01*
X186351432Y-84886800D01*
X186332858Y-84684659D01*
X186331290Y-84679099D01*
X186279325Y-84494846D01*
X186279324Y-84494844D01*
X186277757Y-84489287D01*
X186267178Y-84467833D01*
X186190531Y-84312409D01*
X186187976Y-84307228D01*
X186066520Y-84144579D01*
X185917458Y-84006787D01*
X185912575Y-84003706D01*
X185912571Y-84003703D01*
X185750664Y-83901548D01*
X185745781Y-83898467D01*
X185557239Y-83823246D01*
X185551579Y-83822120D01*
X185551575Y-83822119D01*
X185363813Y-83784771D01*
X185363810Y-83784771D01*
X185358146Y-83783644D01*
X185352371Y-83783568D01*
X185352367Y-83783568D01*
X185250993Y-83782241D01*
X185155171Y-83780987D01*
X185149474Y-83781966D01*
X185149473Y-83781966D01*
X185061597Y-83797066D01*
X184955110Y-83815364D01*
X184764663Y-83885624D01*
X184590210Y-83989412D01*
X184585870Y-83993218D01*
X184585866Y-83993221D01*
X184448233Y-84113923D01*
X184437592Y-84123255D01*
X184311920Y-84282669D01*
X184309231Y-84287780D01*
X184309229Y-84287783D01*
X184296273Y-84312409D01*
X184217403Y-84462315D01*
X184157207Y-84656178D01*
X184133348Y-84857764D01*
X182058500Y-84857764D01*
X182058500Y-81932017D01*
X182082177Y-81858491D01*
X182106552Y-81824569D01*
X182110983Y-81818403D01*
X182168355Y-81675688D01*
X182190028Y-81523407D01*
X182190168Y-81510000D01*
X182188446Y-81495765D01*
X182172601Y-81364839D01*
X182171689Y-81357299D01*
X182117319Y-81213413D01*
X182030197Y-81086649D01*
X182022039Y-81079380D01*
X181967565Y-81030846D01*
X181959091Y-81023296D01*
X183449867Y-81023296D01*
X183466746Y-81176183D01*
X183469355Y-81183314D01*
X183469356Y-81183316D01*
X183515905Y-81310516D01*
X183519606Y-81320630D01*
X183523842Y-81326933D01*
X183523842Y-81326934D01*
X183601162Y-81441999D01*
X183601165Y-81442002D01*
X183605396Y-81448299D01*
X183665837Y-81503296D01*
X183691091Y-81526275D01*
X183719163Y-81551819D01*
X183854338Y-81625213D01*
X184003119Y-81664245D01*
X184082938Y-81665499D01*
X184149318Y-81666542D01*
X184149321Y-81666542D01*
X184156916Y-81666661D01*
X184164320Y-81664965D01*
X184164322Y-81664965D01*
X184235631Y-81648633D01*
X184306849Y-81632322D01*
X184320984Y-81625213D01*
X184330681Y-81620336D01*
X184387296Y-81606900D01*
X195064446Y-81606900D01*
X195085848Y-81599946D01*
X195105074Y-81595330D01*
X195117513Y-81593360D01*
X195127306Y-81591809D01*
X195147359Y-81581592D01*
X195165620Y-81574028D01*
X195177597Y-81570136D01*
X195177599Y-81570135D01*
X195187032Y-81567070D01*
X195205241Y-81553840D01*
X195222096Y-81543510D01*
X195242151Y-81533292D01*
X195333292Y-81442151D01*
X204803038Y-71972406D01*
X204865350Y-71938380D01*
X204894112Y-71935517D01*
X204914302Y-71935834D01*
X204959318Y-71936542D01*
X204959321Y-71936542D01*
X204966916Y-71936661D01*
X204974320Y-71934965D01*
X204974322Y-71934965D01*
X205029589Y-71922307D01*
X205116849Y-71902322D01*
X205130304Y-71895555D01*
X205247481Y-71836622D01*
X205247484Y-71836620D01*
X205254264Y-71833210D01*
X205371226Y-71733314D01*
X205460983Y-71608403D01*
X205518355Y-71465688D01*
X205540028Y-71313407D01*
X205540168Y-71300000D01*
X205538446Y-71285765D01*
X205522601Y-71154839D01*
X205521689Y-71147299D01*
X205467319Y-71003413D01*
X205380197Y-70876649D01*
X205265353Y-70774327D01*
X205251602Y-70767046D01*
X205136131Y-70705907D01*
X205136128Y-70705906D01*
X205129416Y-70702352D01*
X204980234Y-70664880D01*
X204972636Y-70664840D01*
X204972634Y-70664840D01*
X204907143Y-70664497D01*
X204826421Y-70664075D01*
X204819042Y-70665847D01*
X204819038Y-70665847D01*
X204684234Y-70698210D01*
X204684230Y-70698211D01*
X204676855Y-70699982D01*
X204540172Y-70770529D01*
X204534450Y-70775521D01*
X204534448Y-70775522D01*
X204509903Y-70796934D01*
X204424262Y-70871644D01*
X204335818Y-70997488D01*
X204333059Y-71004563D01*
X204333058Y-71004566D01*
X204282704Y-71133717D01*
X204279944Y-71140797D01*
X204259867Y-71293296D01*
X204260700Y-71300845D01*
X204260621Y-71308441D01*
X204258380Y-71308418D01*
X204247921Y-71367355D01*
X204224182Y-71400374D01*
X194868362Y-80756195D01*
X194806050Y-80790221D01*
X194779267Y-80793100D01*
X184763801Y-80793100D01*
X184695680Y-80773098D01*
X184658596Y-80732535D01*
X184657319Y-80733413D01*
X184574499Y-80612908D01*
X184574497Y-80612906D01*
X184570197Y-80606649D01*
X184455353Y-80504327D01*
X184441602Y-80497046D01*
X184326131Y-80435907D01*
X184326128Y-80435906D01*
X184319416Y-80432352D01*
X184170234Y-80394880D01*
X184162636Y-80394840D01*
X184162634Y-80394840D01*
X184097143Y-80394497D01*
X184016421Y-80394075D01*
X184009042Y-80395847D01*
X184009038Y-80395847D01*
X183874234Y-80428210D01*
X183874230Y-80428211D01*
X183866855Y-80429982D01*
X183730172Y-80500529D01*
X183614262Y-80601644D01*
X183525818Y-80727488D01*
X183523059Y-80734563D01*
X183523058Y-80734566D01*
X183472704Y-80863717D01*
X183469944Y-80870797D01*
X183468952Y-80878330D01*
X183468952Y-80878331D01*
X183451680Y-81009528D01*
X183449867Y-81023296D01*
X181959091Y-81023296D01*
X181915353Y-80984327D01*
X181878624Y-80964880D01*
X181786131Y-80915907D01*
X181786128Y-80915906D01*
X181779416Y-80912352D01*
X181630234Y-80874880D01*
X181622636Y-80874840D01*
X181622634Y-80874840D01*
X181557143Y-80874497D01*
X181476421Y-80874075D01*
X181469042Y-80875847D01*
X181469038Y-80875847D01*
X181334234Y-80908210D01*
X181334230Y-80908211D01*
X181326855Y-80909982D01*
X181261202Y-80943868D01*
X181197401Y-80976798D01*
X181190172Y-80980529D01*
X181184450Y-80985521D01*
X181184448Y-80985522D01*
X181126503Y-81036071D01*
X181074262Y-81081644D01*
X180985818Y-81207488D01*
X180983059Y-81214563D01*
X180983058Y-81214566D01*
X180932704Y-81343717D01*
X180929944Y-81350797D01*
X180928952Y-81358330D01*
X180928952Y-81358331D01*
X180911039Y-81494396D01*
X180909867Y-81503296D01*
X180916908Y-81567070D01*
X180924299Y-81634017D01*
X180926746Y-81656183D01*
X180929355Y-81663314D01*
X180929356Y-81663316D01*
X180964068Y-81758169D01*
X180979606Y-81800630D01*
X180983842Y-81806933D01*
X180983842Y-81806934D01*
X181020082Y-81860865D01*
X181041500Y-81931141D01*
X181041500Y-86338928D01*
X181040145Y-86351058D01*
X181040627Y-86351097D01*
X181039907Y-86360044D01*
X181037926Y-86368800D01*
X181038482Y-86377760D01*
X181041258Y-86422508D01*
X181041500Y-86430310D01*
X181041500Y-86446513D01*
X181042136Y-86450953D01*
X181042984Y-86456878D01*
X181044013Y-86466928D01*
X181045992Y-86498811D01*
X181046945Y-86514177D01*
X181049994Y-86522623D01*
X181050593Y-86525514D01*
X181054822Y-86542480D01*
X181055648Y-86545305D01*
X181056920Y-86554187D01*
X181076522Y-86597298D01*
X181080327Y-86606647D01*
X181096404Y-86651181D01*
X181101699Y-86658429D01*
X181103080Y-86661027D01*
X181111915Y-86676145D01*
X181113494Y-86678614D01*
X181117208Y-86686782D01*
X181123064Y-86693578D01*
X181148115Y-86722652D01*
X181154401Y-86730569D01*
X181159548Y-86737615D01*
X181159553Y-86737620D01*
X181162425Y-86741552D01*
X181173400Y-86752527D01*
X181179758Y-86759374D01*
X181212287Y-86797127D01*
X181219822Y-86802011D01*
X181226066Y-86807458D01*
X181237931Y-86817058D01*
X186246377Y-91825504D01*
X186254000Y-91835044D01*
X186254368Y-91834730D01*
X186260186Y-91841566D01*
X186264976Y-91849158D01*
X186271704Y-91855100D01*
X186305325Y-91884793D01*
X186311012Y-91890139D01*
X186322455Y-91901582D01*
X186329980Y-91907222D01*
X186330830Y-91907859D01*
X186338659Y-91914233D01*
X186374151Y-91945578D01*
X186382274Y-91949392D01*
X186384762Y-91951026D01*
X186399723Y-91960014D01*
X186402308Y-91961429D01*
X186409495Y-91966816D01*
X186453842Y-91983441D01*
X186463158Y-91987367D01*
X186506000Y-92007481D01*
X186514869Y-92008862D01*
X186517702Y-92009728D01*
X186534589Y-92014158D01*
X186537474Y-92014792D01*
X186545884Y-92017945D01*
X186575042Y-92020112D01*
X186593106Y-92021454D01*
X186603152Y-92022608D01*
X186611775Y-92023951D01*
X186611778Y-92023951D01*
X186616586Y-92024700D01*
X186632106Y-92024700D01*
X186641443Y-92025046D01*
X186691141Y-92028739D01*
X186699920Y-92026865D01*
X186708178Y-92026302D01*
X186723361Y-92024700D01*
X190727701Y-92024700D01*
X190795822Y-92044702D01*
X190842315Y-92098358D01*
X190853701Y-92150700D01*
X190853701Y-93041266D01*
X190868466Y-93115501D01*
X190875361Y-93125820D01*
X190875362Y-93125822D01*
X190891810Y-93150438D01*
X190924716Y-93199684D01*
X191008899Y-93255934D01*
X191083133Y-93270700D01*
X192607953Y-93270700D01*
X194133266Y-93270699D01*
X194169018Y-93263588D01*
X194195326Y-93258356D01*
X194195328Y-93258355D01*
X194207501Y-93255934D01*
X194217821Y-93249039D01*
X194217822Y-93249038D01*
X194281368Y-93206577D01*
X194291684Y-93199684D01*
X194347934Y-93115501D01*
X194362700Y-93041267D01*
X194362699Y-90440110D01*
X194382701Y-90371989D01*
X194436357Y-90325496D01*
X194506631Y-90315392D01*
X194571211Y-90344886D01*
X194577794Y-90351015D01*
X204300071Y-100073292D01*
X204320126Y-100083510D01*
X204336981Y-100093840D01*
X204355190Y-100107070D01*
X204364623Y-100110135D01*
X204364625Y-100110136D01*
X204376602Y-100114028D01*
X204394863Y-100121592D01*
X204414916Y-100131809D01*
X204424709Y-100133360D01*
X204437148Y-100135330D01*
X204456374Y-100139946D01*
X204477776Y-100146900D01*
X215494122Y-100146900D01*
X215562243Y-100166902D01*
X215578922Y-100179706D01*
X215669163Y-100261819D01*
X215804338Y-100335213D01*
X215953119Y-100374245D01*
X216032938Y-100375499D01*
X216099318Y-100376542D01*
X216099321Y-100376542D01*
X216106916Y-100376661D01*
X216114320Y-100374965D01*
X216114322Y-100374965D01*
X216215653Y-100351757D01*
X216256849Y-100342322D01*
X216314329Y-100313413D01*
X216387481Y-100276622D01*
X216387484Y-100276620D01*
X216394264Y-100273210D01*
X216511226Y-100173314D01*
X216600983Y-100048403D01*
X216602749Y-100049672D01*
X216645359Y-100007297D01*
X216714775Y-99992398D01*
X216781226Y-100017394D01*
X216794532Y-100028957D01*
X224960197Y-108194622D01*
X224960200Y-108194624D01*
X225997052Y-109231476D01*
X226012416Y-109250499D01*
X226013380Y-109251558D01*
X226019027Y-109260304D01*
X226027206Y-109266752D01*
X226027208Y-109266754D01*
X226045575Y-109281234D01*
X226050048Y-109285209D01*
X226050109Y-109285137D01*
X226054066Y-109288490D01*
X226057747Y-109292171D01*
X226061979Y-109295195D01*
X226073537Y-109303455D01*
X226078283Y-109307018D01*
X226118768Y-109338934D01*
X226127453Y-109341984D01*
X226134941Y-109347335D01*
X226184348Y-109362110D01*
X226189935Y-109363926D01*
X226238600Y-109381016D01*
X226244189Y-109381500D01*
X226246900Y-109381500D01*
X226249569Y-109381615D01*
X226249630Y-109381634D01*
X226249623Y-109381808D01*
X226250370Y-109381855D01*
X226256623Y-109383725D01*
X226310787Y-109381597D01*
X226315733Y-109381500D01*
X228047150Y-109381500D01*
X228115271Y-109401502D01*
X228135052Y-109418677D01*
X228135396Y-109418299D01*
X228249163Y-109521819D01*
X228384338Y-109595213D01*
X228533119Y-109634245D01*
X228612938Y-109635499D01*
X228679318Y-109636542D01*
X228679321Y-109636542D01*
X228686916Y-109636661D01*
X228694320Y-109634965D01*
X228694322Y-109634965D01*
X228749589Y-109622307D01*
X228836849Y-109602322D01*
X228858187Y-109591590D01*
X228967481Y-109536622D01*
X228967484Y-109536620D01*
X228974264Y-109533210D01*
X229091226Y-109433314D01*
X229180983Y-109308403D01*
X229195293Y-109272806D01*
X229239260Y-109217062D01*
X229306385Y-109193937D01*
X229375356Y-109210774D01*
X229424276Y-109262227D01*
X229438200Y-109319803D01*
X229438200Y-140729375D01*
X229435779Y-140753953D01*
X229433224Y-140766800D01*
X229435645Y-140778970D01*
X229435645Y-140791383D01*
X229435320Y-140791383D01*
X229436058Y-140802222D01*
X229421992Y-141034740D01*
X229420158Y-141049844D01*
X229373147Y-141306377D01*
X229369506Y-141321150D01*
X229291914Y-141570153D01*
X229286520Y-141584376D01*
X229179482Y-141822203D01*
X229172411Y-141835676D01*
X229037483Y-142058874D01*
X229028840Y-142071396D01*
X228867991Y-142276704D01*
X228857901Y-142288092D01*
X228673492Y-142472501D01*
X228662104Y-142482591D01*
X228456796Y-142643440D01*
X228444274Y-142652083D01*
X228221076Y-142787011D01*
X228207606Y-142794080D01*
X227969776Y-142901120D01*
X227955558Y-142906512D01*
X227800988Y-142954678D01*
X227706550Y-142984106D01*
X227691777Y-142987747D01*
X227435244Y-143034758D01*
X227420140Y-143036592D01*
X227343325Y-143041239D01*
X227187619Y-143050658D01*
X227176783Y-143049920D01*
X227176783Y-143050245D01*
X227164370Y-143050245D01*
X227152200Y-143047824D01*
X227139353Y-143050379D01*
X227114775Y-143052800D01*
X181469625Y-143052800D01*
X181445047Y-143050379D01*
X181432200Y-143047824D01*
X181420030Y-143050245D01*
X181407617Y-143050245D01*
X181407617Y-143049920D01*
X181396781Y-143050658D01*
X181241075Y-143041239D01*
X181164260Y-143036592D01*
X181149156Y-143034758D01*
X180892623Y-142987747D01*
X180877850Y-142984106D01*
X180783412Y-142954678D01*
X180628842Y-142906512D01*
X180614624Y-142901120D01*
X180376794Y-142794080D01*
X180363324Y-142787011D01*
X180140126Y-142652083D01*
X180127604Y-142643440D01*
X179922296Y-142482591D01*
X179910908Y-142472501D01*
X179726499Y-142288092D01*
X179716409Y-142276704D01*
X179555560Y-142071396D01*
X179546917Y-142058874D01*
X179411989Y-141835676D01*
X179404918Y-141822203D01*
X179297880Y-141584376D01*
X179292486Y-141570153D01*
X179214894Y-141321150D01*
X179211253Y-141306377D01*
X179164242Y-141049844D01*
X179162408Y-141034740D01*
X179148342Y-140802222D01*
X179149080Y-140791383D01*
X179148755Y-140791383D01*
X179148755Y-140778970D01*
X179151176Y-140766800D01*
X179148621Y-140753953D01*
X179146200Y-140729375D01*
X179146200Y-139192000D01*
X181220539Y-139192000D01*
X181240354Y-139443775D01*
X181241508Y-139448582D01*
X181241509Y-139448588D01*
X181278613Y-139603135D01*
X181299312Y-139689351D01*
X181395960Y-139922680D01*
X181527919Y-140138017D01*
X181691939Y-140330061D01*
X181883983Y-140494081D01*
X182099320Y-140626040D01*
X182103890Y-140627933D01*
X182103894Y-140627935D01*
X182328076Y-140720794D01*
X182332649Y-140722688D01*
X182412185Y-140741783D01*
X182573412Y-140780491D01*
X182573418Y-140780492D01*
X182578225Y-140781646D01*
X182666253Y-140788574D01*
X182764507Y-140796307D01*
X182764516Y-140796307D01*
X182766964Y-140796500D01*
X182893036Y-140796500D01*
X182895484Y-140796307D01*
X182895493Y-140796307D01*
X182993747Y-140788574D01*
X183081775Y-140781646D01*
X183086582Y-140780492D01*
X183086588Y-140780491D01*
X183247815Y-140741783D01*
X183327351Y-140722688D01*
X183331924Y-140720794D01*
X183556106Y-140627935D01*
X183556110Y-140627933D01*
X183560680Y-140626040D01*
X183776017Y-140494081D01*
X183968061Y-140330061D01*
X184132081Y-140138017D01*
X184264040Y-139922680D01*
X184360688Y-139689351D01*
X184381387Y-139603135D01*
X184418491Y-139448588D01*
X184418492Y-139448582D01*
X184419646Y-139443775D01*
X184439461Y-139192000D01*
X224320539Y-139192000D01*
X224340354Y-139443775D01*
X224341508Y-139448582D01*
X224341509Y-139448588D01*
X224378613Y-139603135D01*
X224399312Y-139689351D01*
X224495960Y-139922680D01*
X224627919Y-140138017D01*
X224791939Y-140330061D01*
X224983983Y-140494081D01*
X225199320Y-140626040D01*
X225203890Y-140627933D01*
X225203894Y-140627935D01*
X225428076Y-140720794D01*
X225432649Y-140722688D01*
X225512185Y-140741783D01*
X225673412Y-140780491D01*
X225673418Y-140780492D01*
X225678225Y-140781646D01*
X225766253Y-140788574D01*
X225864507Y-140796307D01*
X225864516Y-140796307D01*
X225866964Y-140796500D01*
X225993036Y-140796500D01*
X225995484Y-140796307D01*
X225995493Y-140796307D01*
X226093747Y-140788574D01*
X226181775Y-140781646D01*
X226186582Y-140780492D01*
X226186588Y-140780491D01*
X226347815Y-140741783D01*
X226427351Y-140722688D01*
X226431924Y-140720794D01*
X226656106Y-140627935D01*
X226656110Y-140627933D01*
X226660680Y-140626040D01*
X226876017Y-140494081D01*
X227068061Y-140330061D01*
X227232081Y-140138017D01*
X227364040Y-139922680D01*
X227460688Y-139689351D01*
X227481387Y-139603135D01*
X227518491Y-139448588D01*
X227518492Y-139448582D01*
X227519646Y-139443775D01*
X227539461Y-139192000D01*
X227519646Y-138940225D01*
X227518492Y-138935418D01*
X227518491Y-138935412D01*
X227461843Y-138699461D01*
X227460688Y-138694649D01*
X227364040Y-138461320D01*
X227232081Y-138245983D01*
X227068061Y-138053939D01*
X226876017Y-137889919D01*
X226660680Y-137757960D01*
X226656110Y-137756067D01*
X226656106Y-137756065D01*
X226431924Y-137663206D01*
X226431922Y-137663205D01*
X226427351Y-137661312D01*
X226341135Y-137640613D01*
X226186588Y-137603509D01*
X226186582Y-137603508D01*
X226181775Y-137602354D01*
X226093747Y-137595426D01*
X225995493Y-137587693D01*
X225995484Y-137587693D01*
X225993036Y-137587500D01*
X225866964Y-137587500D01*
X225864516Y-137587693D01*
X225864507Y-137587693D01*
X225766253Y-137595426D01*
X225678225Y-137602354D01*
X225673418Y-137603508D01*
X225673412Y-137603509D01*
X225518865Y-137640613D01*
X225432649Y-137661312D01*
X225428078Y-137663205D01*
X225428076Y-137663206D01*
X225203894Y-137756065D01*
X225203890Y-137756067D01*
X225199320Y-137757960D01*
X224983983Y-137889919D01*
X224791939Y-138053939D01*
X224627919Y-138245983D01*
X224495960Y-138461320D01*
X224399312Y-138694649D01*
X224398157Y-138699461D01*
X224341509Y-138935412D01*
X224341508Y-138935418D01*
X224340354Y-138940225D01*
X224320539Y-139192000D01*
X184439461Y-139192000D01*
X184419646Y-138940225D01*
X184418492Y-138935418D01*
X184418491Y-138935412D01*
X184361843Y-138699461D01*
X184360688Y-138694649D01*
X184264040Y-138461320D01*
X184132081Y-138245983D01*
X183968061Y-138053939D01*
X183776017Y-137889919D01*
X183560680Y-137757960D01*
X183556110Y-137756067D01*
X183556106Y-137756065D01*
X183331924Y-137663206D01*
X183331922Y-137663205D01*
X183327351Y-137661312D01*
X183241135Y-137640613D01*
X183086588Y-137603509D01*
X183086582Y-137603508D01*
X183081775Y-137602354D01*
X182993747Y-137595426D01*
X182895493Y-137587693D01*
X182895484Y-137587693D01*
X182893036Y-137587500D01*
X182766964Y-137587500D01*
X182764516Y-137587693D01*
X182764507Y-137587693D01*
X182666253Y-137595426D01*
X182578225Y-137602354D01*
X182573418Y-137603508D01*
X182573412Y-137603509D01*
X182418865Y-137640613D01*
X182332649Y-137661312D01*
X182328078Y-137663205D01*
X182328076Y-137663206D01*
X182103894Y-137756065D01*
X182103890Y-137756067D01*
X182099320Y-137757960D01*
X181883983Y-137889919D01*
X181691939Y-138053939D01*
X181527919Y-138245983D01*
X181395960Y-138461320D01*
X181299312Y-138694649D01*
X181298157Y-138699461D01*
X181241509Y-138935412D01*
X181241508Y-138935418D01*
X181240354Y-138940225D01*
X181220539Y-139192000D01*
X179146200Y-139192000D01*
X179146200Y-119393296D01*
X182569867Y-119393296D01*
X182586746Y-119546183D01*
X182589355Y-119553314D01*
X182589356Y-119553316D01*
X182596463Y-119572735D01*
X182639606Y-119690630D01*
X182643842Y-119696933D01*
X182643842Y-119696934D01*
X182721162Y-119811999D01*
X182721165Y-119812002D01*
X182725396Y-119818299D01*
X182839163Y-119921819D01*
X182974338Y-119995213D01*
X183123119Y-120034245D01*
X183202938Y-120035499D01*
X183269318Y-120036542D01*
X183269321Y-120036542D01*
X183276916Y-120036661D01*
X183284320Y-120034965D01*
X183284322Y-120034965D01*
X183339589Y-120022307D01*
X183426849Y-120002322D01*
X183448187Y-119991590D01*
X183557481Y-119936622D01*
X183557484Y-119936620D01*
X183564264Y-119933210D01*
X183681226Y-119833314D01*
X183770983Y-119708403D01*
X183828355Y-119565688D01*
X183850028Y-119413407D01*
X183850168Y-119400000D01*
X183848446Y-119385765D01*
X183832601Y-119254839D01*
X183831689Y-119247299D01*
X183777319Y-119103413D01*
X183719060Y-119018645D01*
X183696900Y-118947278D01*
X183696900Y-115205028D01*
X190623889Y-115205028D01*
X190624133Y-115209463D01*
X190624133Y-115209467D01*
X190627076Y-115262933D01*
X190639293Y-115484931D01*
X190693982Y-115759871D01*
X190786865Y-116024362D01*
X190788918Y-116028313D01*
X190788920Y-116028319D01*
X190914036Y-116269178D01*
X190916088Y-116273128D01*
X190918671Y-116276743D01*
X190918675Y-116276749D01*
X191076485Y-116497583D01*
X191079073Y-116501204D01*
X191272569Y-116704039D01*
X191276065Y-116706795D01*
X191276066Y-116706796D01*
X191328233Y-116747921D01*
X191492714Y-116877588D01*
X191547087Y-116909170D01*
X191731269Y-117016152D01*
X191731275Y-117016155D01*
X191735116Y-117018386D01*
X191739239Y-117020056D01*
X191990812Y-117121954D01*
X191990815Y-117121955D01*
X191994938Y-117123625D01*
X191999251Y-117124696D01*
X191999256Y-117124698D01*
X192262676Y-117190132D01*
X192262681Y-117190133D01*
X192266997Y-117191205D01*
X192271425Y-117191659D01*
X192271427Y-117191659D01*
X192346109Y-117199311D01*
X192506072Y-117215700D01*
X192679607Y-117215700D01*
X192887826Y-117200957D01*
X192892181Y-117200019D01*
X192892184Y-117200019D01*
X193157526Y-117142893D01*
X193157528Y-117142893D01*
X193161873Y-117141957D01*
X193424873Y-117044931D01*
X193474070Y-117018386D01*
X193667662Y-116913929D01*
X193671578Y-116911816D01*
X193897066Y-116745268D01*
X194096837Y-116548610D01*
X194266907Y-116325767D01*
X194403880Y-116081183D01*
X194505025Y-115819739D01*
X194517926Y-115764083D01*
X194567317Y-115550992D01*
X194568323Y-115546653D01*
X194592511Y-115267372D01*
X194592267Y-115262933D01*
X194589080Y-115205028D01*
X214123889Y-115205028D01*
X214124133Y-115209463D01*
X214124133Y-115209467D01*
X214127076Y-115262933D01*
X214139293Y-115484931D01*
X214193982Y-115759871D01*
X214286865Y-116024362D01*
X214288918Y-116028313D01*
X214288920Y-116028319D01*
X214414036Y-116269178D01*
X214416088Y-116273128D01*
X214418671Y-116276743D01*
X214418675Y-116276749D01*
X214576485Y-116497583D01*
X214579073Y-116501204D01*
X214772569Y-116704039D01*
X214776065Y-116706795D01*
X214776066Y-116706796D01*
X214828233Y-116747921D01*
X214992714Y-116877588D01*
X215047087Y-116909170D01*
X215231269Y-117016152D01*
X215231275Y-117016155D01*
X215235116Y-117018386D01*
X215239239Y-117020056D01*
X215490812Y-117121954D01*
X215490815Y-117121955D01*
X215494938Y-117123625D01*
X215499251Y-117124696D01*
X215499256Y-117124698D01*
X215762676Y-117190132D01*
X215762681Y-117190133D01*
X215766997Y-117191205D01*
X215771425Y-117191659D01*
X215771427Y-117191659D01*
X215846109Y-117199311D01*
X216006072Y-117215700D01*
X216179607Y-117215700D01*
X216387826Y-117200957D01*
X216392181Y-117200019D01*
X216392184Y-117200019D01*
X216657526Y-117142893D01*
X216657528Y-117142893D01*
X216661873Y-117141957D01*
X216924873Y-117044931D01*
X216974070Y-117018386D01*
X217167662Y-116913929D01*
X217171578Y-116911816D01*
X217397066Y-116745268D01*
X217596837Y-116548610D01*
X217766907Y-116325767D01*
X217903880Y-116081183D01*
X218005025Y-115819739D01*
X218017926Y-115764083D01*
X218067317Y-115550992D01*
X218068323Y-115546653D01*
X218092511Y-115267372D01*
X218092267Y-115262933D01*
X218077352Y-114991912D01*
X218077351Y-114991905D01*
X218077107Y-114987469D01*
X218022418Y-114712529D01*
X217929535Y-114448038D01*
X217902174Y-114395364D01*
X217802364Y-114203222D01*
X217802363Y-114203220D01*
X217800312Y-114199272D01*
X217797729Y-114195657D01*
X217797725Y-114195651D01*
X217639915Y-113974817D01*
X217639912Y-113974813D01*
X217637327Y-113971196D01*
X217443831Y-113768361D01*
X217395506Y-113730264D01*
X217227182Y-113597568D01*
X217223686Y-113594812D01*
X217114620Y-113531462D01*
X216985131Y-113456248D01*
X216985125Y-113456245D01*
X216981284Y-113454014D01*
X216911943Y-113425928D01*
X216725588Y-113350446D01*
X216725585Y-113350445D01*
X216721462Y-113348775D01*
X216717149Y-113347704D01*
X216717144Y-113347702D01*
X216453724Y-113282268D01*
X216453719Y-113282267D01*
X216449403Y-113281195D01*
X216444975Y-113280741D01*
X216444973Y-113280741D01*
X216354222Y-113271443D01*
X216210328Y-113256700D01*
X216036793Y-113256700D01*
X215828574Y-113271443D01*
X215824219Y-113272381D01*
X215824216Y-113272381D01*
X215558874Y-113329507D01*
X215558872Y-113329507D01*
X215554527Y-113330443D01*
X215291527Y-113427469D01*
X215287609Y-113429583D01*
X215238190Y-113456248D01*
X215044822Y-113560584D01*
X214819334Y-113727132D01*
X214619563Y-113923790D01*
X214449493Y-114146633D01*
X214312520Y-114391217D01*
X214211375Y-114652661D01*
X214210372Y-114656986D01*
X214210371Y-114656991D01*
X214197498Y-114712529D01*
X214148077Y-114925747D01*
X214123889Y-115205028D01*
X194589080Y-115205028D01*
X194577352Y-114991912D01*
X194577351Y-114991905D01*
X194577107Y-114987469D01*
X194522418Y-114712529D01*
X194429535Y-114448038D01*
X194402174Y-114395364D01*
X194302364Y-114203222D01*
X194302363Y-114203220D01*
X194300312Y-114199272D01*
X194297729Y-114195657D01*
X194297725Y-114195651D01*
X194139915Y-113974817D01*
X194139912Y-113974813D01*
X194137327Y-113971196D01*
X193943831Y-113768361D01*
X193895506Y-113730264D01*
X193727182Y-113597568D01*
X193723686Y-113594812D01*
X193614620Y-113531462D01*
X193485131Y-113456248D01*
X193485125Y-113456245D01*
X193481284Y-113454014D01*
X193411943Y-113425928D01*
X193225588Y-113350446D01*
X193225585Y-113350445D01*
X193221462Y-113348775D01*
X193217149Y-113347704D01*
X193217144Y-113347702D01*
X192953724Y-113282268D01*
X192953719Y-113282267D01*
X192949403Y-113281195D01*
X192944975Y-113280741D01*
X192944973Y-113280741D01*
X192854222Y-113271443D01*
X192710328Y-113256700D01*
X192536793Y-113256700D01*
X192328574Y-113271443D01*
X192324219Y-113272381D01*
X192324216Y-113272381D01*
X192058874Y-113329507D01*
X192058872Y-113329507D01*
X192054527Y-113330443D01*
X191791527Y-113427469D01*
X191787609Y-113429583D01*
X191738190Y-113456248D01*
X191544822Y-113560584D01*
X191319334Y-113727132D01*
X191119563Y-113923790D01*
X190949493Y-114146633D01*
X190812520Y-114391217D01*
X190711375Y-114652661D01*
X190710372Y-114656986D01*
X190710371Y-114656991D01*
X190697498Y-114712529D01*
X190648077Y-114925747D01*
X190623889Y-115205028D01*
X183696900Y-115205028D01*
X183696900Y-99916341D01*
X183716902Y-99848220D01*
X183741069Y-99820531D01*
X183755450Y-99808249D01*
X183755458Y-99808241D01*
X183761226Y-99803314D01*
X183850983Y-99678403D01*
X183908355Y-99535688D01*
X183930028Y-99383407D01*
X183930168Y-99370000D01*
X183928446Y-99355765D01*
X183912601Y-99224839D01*
X183911689Y-99217299D01*
X183857319Y-99073413D01*
X183841324Y-99050140D01*
X183774499Y-98952908D01*
X183774497Y-98952906D01*
X183770197Y-98946649D01*
X183655353Y-98844327D01*
X183641602Y-98837046D01*
X183526131Y-98775907D01*
X183526128Y-98775906D01*
X183519416Y-98772352D01*
X183370234Y-98734880D01*
X183362636Y-98734840D01*
X183362634Y-98734840D01*
X183297143Y-98734497D01*
X183216421Y-98734075D01*
X183209042Y-98735847D01*
X183209038Y-98735847D01*
X183074234Y-98768210D01*
X183074230Y-98768211D01*
X183066855Y-98769982D01*
X182930172Y-98840529D01*
X182814262Y-98941644D01*
X182725818Y-99067488D01*
X182723059Y-99074563D01*
X182723058Y-99074566D01*
X182672704Y-99203717D01*
X182669944Y-99210797D01*
X182668952Y-99218330D01*
X182668952Y-99218331D01*
X182656476Y-99313098D01*
X182649867Y-99363296D01*
X182666746Y-99516183D01*
X182669355Y-99523314D01*
X182669356Y-99523316D01*
X182707171Y-99626649D01*
X182719606Y-99660630D01*
X182723842Y-99666933D01*
X182723842Y-99666934D01*
X182786727Y-99760516D01*
X182805396Y-99788299D01*
X182811015Y-99793412D01*
X182811016Y-99793413D01*
X182841899Y-99821514D01*
X182878822Y-99882154D01*
X182883100Y-99914708D01*
X182883100Y-118784516D01*
X182863098Y-118852637D01*
X182839931Y-118879463D01*
X182734262Y-118971644D01*
X182645818Y-119097488D01*
X182643059Y-119104563D01*
X182643058Y-119104566D01*
X182592704Y-119233717D01*
X182589944Y-119240797D01*
X182569867Y-119393296D01*
X179146200Y-119393296D01*
X179146200Y-64958335D01*
X182258755Y-64958335D01*
X182273233Y-65179233D01*
X182327724Y-65393793D01*
X182420404Y-65594830D01*
X182548167Y-65775611D01*
X182706736Y-65930082D01*
X182711532Y-65933287D01*
X182711535Y-65933289D01*
X182768176Y-65971135D01*
X182890800Y-66053070D01*
X182896103Y-66055348D01*
X182896106Y-66055350D01*
X183070738Y-66130377D01*
X183094195Y-66140455D01*
X183166191Y-66156746D01*
X183304471Y-66188036D01*
X183304476Y-66188037D01*
X183310108Y-66189311D01*
X183315879Y-66189538D01*
X183315881Y-66189538D01*
X183383501Y-66192195D01*
X183531309Y-66198002D01*
X183659908Y-66179356D01*
X183744668Y-66167067D01*
X183744672Y-66167066D01*
X183750390Y-66166237D01*
X183755862Y-66164379D01*
X183755864Y-66164379D01*
X183954545Y-66096935D01*
X183960013Y-66095079D01*
X184153159Y-65986912D01*
X184323359Y-65845359D01*
X184464912Y-65675159D01*
X184560807Y-65503926D01*
X184570256Y-65487054D01*
X184570256Y-65487053D01*
X184573079Y-65482013D01*
X184574934Y-65476550D01*
X184574937Y-65476542D01*
X184596797Y-65412143D01*
X184637634Y-65354067D01*
X184703387Y-65327288D01*
X184773179Y-65340309D01*
X184824852Y-65388996D01*
X184830533Y-65399887D01*
X184920404Y-65594830D01*
X185048167Y-65775611D01*
X185206736Y-65930082D01*
X185211532Y-65933287D01*
X185211535Y-65933289D01*
X185268176Y-65971135D01*
X185390800Y-66053070D01*
X185396103Y-66055348D01*
X185396106Y-66055350D01*
X185570738Y-66130377D01*
X185594195Y-66140455D01*
X185666191Y-66156746D01*
X185804471Y-66188036D01*
X185804476Y-66188037D01*
X185810108Y-66189311D01*
X185815879Y-66189538D01*
X185815881Y-66189538D01*
X185883501Y-66192195D01*
X186031309Y-66198002D01*
X186159908Y-66179356D01*
X186244668Y-66167067D01*
X186244672Y-66167066D01*
X186250390Y-66166237D01*
X186255862Y-66164379D01*
X186255864Y-66164379D01*
X186454545Y-66096935D01*
X186460013Y-66095079D01*
X186653159Y-65986912D01*
X186823359Y-65845359D01*
X186964912Y-65675159D01*
X187027568Y-65563279D01*
X187078304Y-65513619D01*
X187147835Y-65499272D01*
X187214086Y-65524793D01*
X187256022Y-65582082D01*
X187263501Y-65624846D01*
X187263501Y-65965066D01*
X187267111Y-65983214D01*
X187274949Y-66022623D01*
X187278266Y-66039301D01*
X187285161Y-66049620D01*
X187285162Y-66049622D01*
X187301995Y-66074814D01*
X187334516Y-66123484D01*
X187418699Y-66179734D01*
X187492933Y-66194500D01*
X188467842Y-66194500D01*
X189443066Y-66194499D01*
X189478818Y-66187388D01*
X189505126Y-66182156D01*
X189505128Y-66182155D01*
X189517301Y-66179734D01*
X189527621Y-66172839D01*
X189527622Y-66172838D01*
X189591168Y-66130377D01*
X189601484Y-66123484D01*
X189657734Y-66039301D01*
X189672500Y-65965067D01*
X189672499Y-64537764D01*
X194293348Y-64537764D01*
X194306624Y-64740322D01*
X194308045Y-64745918D01*
X194308046Y-64745923D01*
X194355171Y-64931474D01*
X194356592Y-64937069D01*
X194359009Y-64942312D01*
X194395064Y-65020521D01*
X194441577Y-65121416D01*
X194558733Y-65287189D01*
X194704138Y-65428835D01*
X194872920Y-65541612D01*
X194878223Y-65543890D01*
X194878226Y-65543892D01*
X195054119Y-65619461D01*
X195059428Y-65621742D01*
X195127831Y-65637220D01*
X195251779Y-65665267D01*
X195251784Y-65665268D01*
X195257416Y-65666542D01*
X195263187Y-65666769D01*
X195263189Y-65666769D01*
X195322956Y-65669117D01*
X195460253Y-65674512D01*
X195567548Y-65658955D01*
X195655431Y-65646213D01*
X195655436Y-65646212D01*
X195661145Y-65645384D01*
X195666609Y-65643529D01*
X195666614Y-65643528D01*
X195847893Y-65581992D01*
X195847898Y-65581990D01*
X195853365Y-65580134D01*
X196030476Y-65480947D01*
X196035773Y-65476542D01*
X196182113Y-65354831D01*
X196186545Y-65351145D01*
X196316347Y-65195076D01*
X196390057Y-65063458D01*
X196412710Y-65023008D01*
X196412711Y-65023006D01*
X196415534Y-65017965D01*
X196417390Y-65012498D01*
X196417392Y-65012493D01*
X196478928Y-64831214D01*
X196478929Y-64831209D01*
X196480784Y-64825745D01*
X196481612Y-64820036D01*
X196481613Y-64820031D01*
X196506321Y-64649618D01*
X196509912Y-64624853D01*
X196510796Y-64591110D01*
X196511335Y-64570504D01*
X196511432Y-64566800D01*
X196508764Y-64537764D01*
X196833348Y-64537764D01*
X196846624Y-64740322D01*
X196848045Y-64745918D01*
X196848046Y-64745923D01*
X196895171Y-64931474D01*
X196896592Y-64937069D01*
X196899009Y-64942312D01*
X196935064Y-65020521D01*
X196981577Y-65121416D01*
X197098733Y-65287189D01*
X197244138Y-65428835D01*
X197412920Y-65541612D01*
X197418223Y-65543890D01*
X197418226Y-65543892D01*
X197594119Y-65619461D01*
X197599428Y-65621742D01*
X197667831Y-65637220D01*
X197791779Y-65665267D01*
X197791784Y-65665268D01*
X197797416Y-65666542D01*
X197803187Y-65666769D01*
X197803189Y-65666769D01*
X197862956Y-65669117D01*
X198000253Y-65674512D01*
X198107548Y-65658955D01*
X198195431Y-65646213D01*
X198195436Y-65646212D01*
X198201145Y-65645384D01*
X198206609Y-65643529D01*
X198206614Y-65643528D01*
X198387893Y-65581992D01*
X198387898Y-65581990D01*
X198393365Y-65580134D01*
X198570476Y-65480947D01*
X198575773Y-65476542D01*
X198722113Y-65354831D01*
X198726545Y-65351145D01*
X198856347Y-65195076D01*
X198930057Y-65063458D01*
X198952710Y-65023008D01*
X198952711Y-65023006D01*
X198955534Y-65017965D01*
X198957390Y-65012498D01*
X198957392Y-65012493D01*
X199018928Y-64831214D01*
X199018929Y-64831209D01*
X199020784Y-64825745D01*
X199021612Y-64820036D01*
X199021613Y-64820031D01*
X199046321Y-64649618D01*
X199049912Y-64624853D01*
X199050796Y-64591110D01*
X199051335Y-64570504D01*
X199051432Y-64566800D01*
X199048764Y-64537764D01*
X199373348Y-64537764D01*
X199386624Y-64740322D01*
X199388045Y-64745918D01*
X199388046Y-64745923D01*
X199435171Y-64931474D01*
X199436592Y-64937069D01*
X199439009Y-64942312D01*
X199475064Y-65020521D01*
X199521577Y-65121416D01*
X199638733Y-65287189D01*
X199784138Y-65428835D01*
X199952920Y-65541612D01*
X199958223Y-65543890D01*
X199958226Y-65543892D01*
X200134119Y-65619461D01*
X200139428Y-65621742D01*
X200207831Y-65637220D01*
X200331779Y-65665267D01*
X200331784Y-65665268D01*
X200337416Y-65666542D01*
X200343187Y-65666769D01*
X200343189Y-65666769D01*
X200402956Y-65669117D01*
X200540253Y-65674512D01*
X200647548Y-65658955D01*
X200735431Y-65646213D01*
X200735436Y-65646212D01*
X200741145Y-65645384D01*
X200746609Y-65643529D01*
X200746614Y-65643528D01*
X200927893Y-65581992D01*
X200927898Y-65581990D01*
X200933365Y-65580134D01*
X201110476Y-65480947D01*
X201115773Y-65476542D01*
X201262113Y-65354831D01*
X201266545Y-65351145D01*
X201396347Y-65195076D01*
X201470057Y-65063458D01*
X201492710Y-65023008D01*
X201492711Y-65023006D01*
X201495534Y-65017965D01*
X201497390Y-65012498D01*
X201497392Y-65012493D01*
X201558928Y-64831214D01*
X201558929Y-64831209D01*
X201560784Y-64825745D01*
X201561612Y-64820036D01*
X201561613Y-64820031D01*
X201586321Y-64649618D01*
X201589912Y-64624853D01*
X201590796Y-64591110D01*
X201591335Y-64570504D01*
X201591432Y-64566800D01*
X201588764Y-64537764D01*
X201913348Y-64537764D01*
X201926624Y-64740322D01*
X201928045Y-64745918D01*
X201928046Y-64745923D01*
X201975171Y-64931474D01*
X201976592Y-64937069D01*
X201979009Y-64942312D01*
X202015064Y-65020521D01*
X202061577Y-65121416D01*
X202178733Y-65287189D01*
X202324138Y-65428835D01*
X202492920Y-65541612D01*
X202498223Y-65543890D01*
X202498226Y-65543892D01*
X202674119Y-65619461D01*
X202679428Y-65621742D01*
X202747831Y-65637220D01*
X202871779Y-65665267D01*
X202871784Y-65665268D01*
X202877416Y-65666542D01*
X202883187Y-65666769D01*
X202883189Y-65666769D01*
X202942956Y-65669117D01*
X203080253Y-65674512D01*
X203187548Y-65658955D01*
X203275431Y-65646213D01*
X203275436Y-65646212D01*
X203281145Y-65645384D01*
X203286609Y-65643529D01*
X203286614Y-65643528D01*
X203467893Y-65581992D01*
X203467898Y-65581990D01*
X203473365Y-65580134D01*
X203650476Y-65480947D01*
X203655773Y-65476542D01*
X203802113Y-65354831D01*
X203806545Y-65351145D01*
X203936347Y-65195076D01*
X204010057Y-65063458D01*
X204032710Y-65023008D01*
X204032711Y-65023006D01*
X204035534Y-65017965D01*
X204037390Y-65012498D01*
X204037392Y-65012493D01*
X204098928Y-64831214D01*
X204098929Y-64831209D01*
X204100784Y-64825745D01*
X204101612Y-64820036D01*
X204101613Y-64820031D01*
X204126321Y-64649618D01*
X204129912Y-64624853D01*
X204130796Y-64591110D01*
X204131335Y-64570504D01*
X204131432Y-64566800D01*
X204119997Y-64442351D01*
X204113387Y-64370413D01*
X204113386Y-64370410D01*
X204112858Y-64364659D01*
X204109599Y-64353102D01*
X204059325Y-64174846D01*
X204059324Y-64174844D01*
X204057757Y-64169287D01*
X204047178Y-64147833D01*
X203970531Y-63992409D01*
X203967976Y-63987228D01*
X203935769Y-63944097D01*
X203932589Y-63939839D01*
X203846520Y-63824579D01*
X203697458Y-63686787D01*
X203692575Y-63683706D01*
X203692571Y-63683703D01*
X203530664Y-63581548D01*
X203525781Y-63578467D01*
X203337239Y-63503246D01*
X203331579Y-63502120D01*
X203331575Y-63502119D01*
X203143813Y-63464771D01*
X203143810Y-63464771D01*
X203138146Y-63463644D01*
X203132371Y-63463568D01*
X203132367Y-63463568D01*
X203030993Y-63462241D01*
X202935171Y-63460987D01*
X202929474Y-63461966D01*
X202929473Y-63461966D01*
X202841597Y-63477066D01*
X202735110Y-63495364D01*
X202544663Y-63565624D01*
X202370210Y-63669412D01*
X202365870Y-63673218D01*
X202365866Y-63673221D01*
X202279207Y-63749220D01*
X202217592Y-63803255D01*
X202214017Y-63807790D01*
X202214016Y-63807791D01*
X202194699Y-63832294D01*
X202091920Y-63962669D01*
X202089231Y-63967780D01*
X202089229Y-63967783D01*
X202056331Y-64030312D01*
X201997403Y-64142315D01*
X201937207Y-64336178D01*
X201913348Y-64537764D01*
X201588764Y-64537764D01*
X201579997Y-64442351D01*
X201573387Y-64370413D01*
X201573386Y-64370410D01*
X201572858Y-64364659D01*
X201569599Y-64353102D01*
X201519325Y-64174846D01*
X201519324Y-64174844D01*
X201517757Y-64169287D01*
X201507178Y-64147833D01*
X201430531Y-63992409D01*
X201427976Y-63987228D01*
X201395769Y-63944097D01*
X201392589Y-63939839D01*
X201306520Y-63824579D01*
X201157458Y-63686787D01*
X201152575Y-63683706D01*
X201152571Y-63683703D01*
X200990664Y-63581548D01*
X200985781Y-63578467D01*
X200797239Y-63503246D01*
X200791579Y-63502120D01*
X200791575Y-63502119D01*
X200603813Y-63464771D01*
X200603810Y-63464771D01*
X200598146Y-63463644D01*
X200592371Y-63463568D01*
X200592367Y-63463568D01*
X200490993Y-63462241D01*
X200395171Y-63460987D01*
X200389474Y-63461966D01*
X200389473Y-63461966D01*
X200301597Y-63477066D01*
X200195110Y-63495364D01*
X200004663Y-63565624D01*
X199830210Y-63669412D01*
X199825870Y-63673218D01*
X199825866Y-63673221D01*
X199739207Y-63749220D01*
X199677592Y-63803255D01*
X199674017Y-63807790D01*
X199674016Y-63807791D01*
X199654699Y-63832294D01*
X199551920Y-63962669D01*
X199549231Y-63967780D01*
X199549229Y-63967783D01*
X199516331Y-64030312D01*
X199457403Y-64142315D01*
X199397207Y-64336178D01*
X199373348Y-64537764D01*
X199048764Y-64537764D01*
X199039997Y-64442351D01*
X199033387Y-64370413D01*
X199033386Y-64370410D01*
X199032858Y-64364659D01*
X199029599Y-64353102D01*
X198979325Y-64174846D01*
X198979324Y-64174844D01*
X198977757Y-64169287D01*
X198967178Y-64147833D01*
X198890531Y-63992409D01*
X198887976Y-63987228D01*
X198855769Y-63944097D01*
X198852589Y-63939839D01*
X198766520Y-63824579D01*
X198617458Y-63686787D01*
X198612575Y-63683706D01*
X198612571Y-63683703D01*
X198450664Y-63581548D01*
X198445781Y-63578467D01*
X198257239Y-63503246D01*
X198251579Y-63502120D01*
X198251575Y-63502119D01*
X198063813Y-63464771D01*
X198063810Y-63464771D01*
X198058146Y-63463644D01*
X198052371Y-63463568D01*
X198052367Y-63463568D01*
X197950993Y-63462241D01*
X197855171Y-63460987D01*
X197849474Y-63461966D01*
X197849473Y-63461966D01*
X197761597Y-63477066D01*
X197655110Y-63495364D01*
X197464663Y-63565624D01*
X197290210Y-63669412D01*
X197285870Y-63673218D01*
X197285866Y-63673221D01*
X197199207Y-63749220D01*
X197137592Y-63803255D01*
X197134017Y-63807790D01*
X197134016Y-63807791D01*
X197114699Y-63832294D01*
X197011920Y-63962669D01*
X197009231Y-63967780D01*
X197009229Y-63967783D01*
X196976331Y-64030312D01*
X196917403Y-64142315D01*
X196857207Y-64336178D01*
X196833348Y-64537764D01*
X196508764Y-64537764D01*
X196499997Y-64442351D01*
X196493387Y-64370413D01*
X196493386Y-64370410D01*
X196492858Y-64364659D01*
X196489599Y-64353102D01*
X196439325Y-64174846D01*
X196439324Y-64174844D01*
X196437757Y-64169287D01*
X196427178Y-64147833D01*
X196350531Y-63992409D01*
X196347976Y-63987228D01*
X196315769Y-63944097D01*
X196312589Y-63939839D01*
X196226520Y-63824579D01*
X196077458Y-63686787D01*
X196072575Y-63683706D01*
X196072571Y-63683703D01*
X195910664Y-63581548D01*
X195905781Y-63578467D01*
X195717239Y-63503246D01*
X195711579Y-63502120D01*
X195711575Y-63502119D01*
X195523813Y-63464771D01*
X195523810Y-63464771D01*
X195518146Y-63463644D01*
X195512371Y-63463568D01*
X195512367Y-63463568D01*
X195410993Y-63462241D01*
X195315171Y-63460987D01*
X195309474Y-63461966D01*
X195309473Y-63461966D01*
X195221597Y-63477066D01*
X195115110Y-63495364D01*
X194924663Y-63565624D01*
X194750210Y-63669412D01*
X194745870Y-63673218D01*
X194745866Y-63673221D01*
X194659207Y-63749220D01*
X194597592Y-63803255D01*
X194594017Y-63807790D01*
X194594016Y-63807791D01*
X194574699Y-63832294D01*
X194471920Y-63962669D01*
X194469231Y-63967780D01*
X194469229Y-63967783D01*
X194436331Y-64030312D01*
X194377403Y-64142315D01*
X194317207Y-64336178D01*
X194293348Y-64537764D01*
X189672499Y-64537764D01*
X189672499Y-64014934D01*
X189662104Y-63962669D01*
X189660156Y-63952874D01*
X189660155Y-63952872D01*
X189657734Y-63940699D01*
X189638682Y-63912185D01*
X189608377Y-63866832D01*
X189601484Y-63856516D01*
X189517301Y-63800266D01*
X189443067Y-63785500D01*
X188468158Y-63785500D01*
X187492934Y-63785501D01*
X187457182Y-63792612D01*
X187430874Y-63797844D01*
X187430872Y-63797845D01*
X187418699Y-63800266D01*
X187408379Y-63807161D01*
X187408378Y-63807162D01*
X187375383Y-63829209D01*
X187334516Y-63856516D01*
X187278266Y-63940699D01*
X187263500Y-64014933D01*
X187263500Y-64353102D01*
X187243498Y-64421223D01*
X187189842Y-64467716D01*
X187119568Y-64477820D01*
X187054988Y-64448326D01*
X187024494Y-64408830D01*
X187001960Y-64363134D01*
X187001957Y-64363130D01*
X186999405Y-64357954D01*
X186979025Y-64330661D01*
X186870406Y-64185203D01*
X186870405Y-64185202D01*
X186866953Y-64180579D01*
X186860751Y-64174846D01*
X186708634Y-64034231D01*
X186708632Y-64034229D01*
X186704394Y-64030312D01*
X186517174Y-63912185D01*
X186311562Y-63830154D01*
X186305905Y-63829029D01*
X186305899Y-63829027D01*
X186100111Y-63788094D01*
X186100109Y-63788094D01*
X186094444Y-63786967D01*
X186088669Y-63786891D01*
X186088665Y-63786891D01*
X185977341Y-63785434D01*
X185873091Y-63784069D01*
X185867394Y-63785048D01*
X185867393Y-63785048D01*
X185660614Y-63820579D01*
X185654917Y-63821558D01*
X185447228Y-63898179D01*
X185442267Y-63901131D01*
X185442266Y-63901131D01*
X185297551Y-63987228D01*
X185256980Y-64011365D01*
X185090544Y-64157325D01*
X185086977Y-64161850D01*
X185086972Y-64161855D01*
X185014743Y-64253478D01*
X184953494Y-64331172D01*
X184950805Y-64336283D01*
X184950803Y-64336286D01*
X184932848Y-64370413D01*
X184850420Y-64527083D01*
X184848707Y-64532601D01*
X184848704Y-64532608D01*
X184839576Y-64562003D01*
X184800273Y-64621128D01*
X184735243Y-64649618D01*
X184665134Y-64638428D01*
X184612204Y-64591110D01*
X184601655Y-64567178D01*
X184600952Y-64567448D01*
X184598884Y-64562061D01*
X184597315Y-64556497D01*
X184499405Y-64357954D01*
X184479025Y-64330661D01*
X184370406Y-64185203D01*
X184370405Y-64185202D01*
X184366953Y-64180579D01*
X184360751Y-64174846D01*
X184208634Y-64034231D01*
X184208632Y-64034229D01*
X184204394Y-64030312D01*
X184017174Y-63912185D01*
X183811562Y-63830154D01*
X183805905Y-63829029D01*
X183805899Y-63829027D01*
X183600111Y-63788094D01*
X183600109Y-63788094D01*
X183594444Y-63786967D01*
X183588669Y-63786891D01*
X183588665Y-63786891D01*
X183477341Y-63785434D01*
X183373091Y-63784069D01*
X183367394Y-63785048D01*
X183367393Y-63785048D01*
X183160614Y-63820579D01*
X183154917Y-63821558D01*
X182947228Y-63898179D01*
X182942267Y-63901131D01*
X182942266Y-63901131D01*
X182797551Y-63987228D01*
X182756980Y-64011365D01*
X182590544Y-64157325D01*
X182586977Y-64161850D01*
X182586972Y-64161855D01*
X182514743Y-64253478D01*
X182453494Y-64331172D01*
X182450805Y-64336283D01*
X182450803Y-64336286D01*
X182432848Y-64370413D01*
X182350420Y-64527083D01*
X182284774Y-64738498D01*
X182284095Y-64744233D01*
X182284095Y-64744234D01*
X182271764Y-64848417D01*
X182258755Y-64958335D01*
X179146200Y-64958335D01*
X179146200Y-64604225D01*
X179148621Y-64579644D01*
X179148755Y-64578970D01*
X179151176Y-64566800D01*
X179148755Y-64554630D01*
X179148755Y-64542217D01*
X179149080Y-64542217D01*
X179148342Y-64531378D01*
X179148912Y-64521967D01*
X179162408Y-64298860D01*
X179164242Y-64283756D01*
X179211253Y-64027223D01*
X179214894Y-64012450D01*
X179246138Y-63912185D01*
X179292488Y-63763442D01*
X179297882Y-63749220D01*
X179320971Y-63697920D01*
X179404920Y-63511394D01*
X179411989Y-63497924D01*
X179546917Y-63274726D01*
X179555560Y-63262204D01*
X179716409Y-63056896D01*
X179726499Y-63045508D01*
X179910908Y-62861099D01*
X179922296Y-62851009D01*
X180127604Y-62690160D01*
X180140126Y-62681517D01*
X180363324Y-62546589D01*
X180376794Y-62539520D01*
X180614624Y-62432480D01*
X180628842Y-62427088D01*
X180877850Y-62349494D01*
X180892623Y-62345853D01*
X181149156Y-62298842D01*
X181164260Y-62297008D01*
X181241075Y-62292361D01*
X181396781Y-62282942D01*
X181407617Y-62283680D01*
X181407617Y-62283355D01*
X181420030Y-62283355D01*
X181432200Y-62285776D01*
X181445047Y-62283221D01*
X181469625Y-62280800D01*
X227114775Y-62280800D01*
X227139353Y-62283221D01*
G37*
%TD.AperFunction*%
%TD*%
M02*
