M48
; DRILL file {KiCad 6.0.1-1.fc35} date Wed 26 Jan 2022 04:08:03 PM CET
; FORMAT={-:-/ absolute / inch / decimal}
; #@! TF.CreationDate,2022-01-26T16:08:03+01:00
; #@! TF.GenerationSoftware,Kicad,Pcbnew,6.0.1-1.fc35
; #@! TF.FileFunction,MixedPlating,1,2
FMAT,2
INCH
; #@! TA.AperFunction,Plated,PTH,ViaDrill
T1C0.0150
; #@! TA.AperFunction,Plated,PTH,ComponentDrill
T2C0.0354
; #@! TA.AperFunction,Plated,PTH,ComponentDrill
T3C0.0394
; #@! TA.AperFunction,Plated,PTH,ComponentDrill
T4C0.0433
; #@! TA.AperFunction,NonPlated,NPTH,ComponentDrill
T5C0.1358
%
G90
G05
T1
X8.754Y-4.368
X8.93Y-4.352
T2
X7.172Y-3.5623
X7.172Y-3.6607
X7.172Y-3.7591
T3
X7.293Y-3.342
X7.393Y-3.342
X7.493Y-3.342
X7.593Y-3.342
X7.693Y-2.542
X7.693Y-3.342
X7.793Y-2.542
X7.793Y-3.342
X7.893Y-2.542
X7.893Y-3.342
X7.993Y-2.542
X7.993Y-3.342
X8.093Y-2.542
X8.093Y-3.342
X8.193Y-2.542
X8.193Y-3.342
X8.293Y-2.542
X8.293Y-3.342
X8.393Y-2.542
X8.393Y-3.342
X8.493Y-2.542
X8.493Y-3.342
X8.593Y-2.542
X8.593Y-3.342
X8.693Y-2.542
X8.693Y-3.342
X8.793Y-2.542
X8.793Y-3.342
T4
X7.583Y-3.532
X8.083Y-3.532
T5
X7.583Y-4.4659
X8.5082Y-4.4659
T0
M30
