%TF.GenerationSoftware,KiCad,Pcbnew,(6.0.0-0)*%
%TF.CreationDate,2022-02-15T20:26:29+01:00*%
%TF.ProjectId,burrboard,62757272-626f-4617-9264-2e6b69636164,v3.0*%
%TF.SameCoordinates,Original*%
%TF.FileFunction,Legend,Top*%
%TF.FilePolarity,Positive*%
%FSLAX46Y46*%
G04 Gerber Fmt 4.6, Leading zero omitted, Abs format (unit mm)*
G04 Created by KiCad (PCBNEW (6.0.0-0)) date 2022-02-15 20:26:29*
%MOMM*%
%LPD*%
G01*
G04 APERTURE LIST*
%ADD10C,0.127000*%
%ADD11C,0.120000*%
%TA.AperFunction,Profile*%
%ADD12C,0.050000*%
%TD*%
%ADD13C,0.150000*%
%ADD14C,0.200000*%
%ADD15C,0.100000*%
%ADD16C,0.010000*%
G04 APERTURE END LIST*
D10*
X207520000Y-128713000D02*
X207621600Y-129424200D01*
D11*
X220345000Y-125603000D02*
X188595000Y-125603000D01*
D10*
X205488000Y-131151400D02*
X203913200Y-131049800D01*
X202135200Y-128967000D02*
X202338400Y-128611400D01*
X203405200Y-128205000D02*
X206504000Y-128205000D01*
X202338400Y-130389400D02*
X202186000Y-130135400D01*
D11*
X181559200Y-130987800D02*
X182067200Y-131495800D01*
D10*
X207621600Y-129424200D02*
X207418400Y-130795800D01*
D11*
X188595000Y-125603000D02*
X188595000Y-93853000D01*
D10*
X206504000Y-132777000D02*
X206910400Y-131964200D01*
X202135200Y-129678200D02*
X202135200Y-128967000D01*
X206504000Y-128205000D02*
X207062800Y-128255800D01*
X206300800Y-131253000D02*
X205488000Y-131151400D01*
X203913200Y-131049800D02*
X203049600Y-130948200D01*
X202592400Y-130643400D02*
X202338400Y-130389400D01*
D11*
X181631042Y-134797800D02*
G75*
G03*
X181631042Y-134797800I-71842J0D01*
G01*
D10*
X207062800Y-128255800D02*
X207316800Y-128408200D01*
D11*
X181559200Y-130987800D02*
X181559200Y-134797800D01*
D10*
X206529400Y-131380000D02*
X206300800Y-131253000D01*
X206504000Y-132777000D02*
X206605600Y-131811800D01*
D11*
X185369200Y-134797800D02*
X184861200Y-135305800D01*
X188595000Y-93853000D02*
X220345000Y-93853000D01*
X181884479Y-134797800D02*
G75*
G03*
X181884479Y-134797800I-325279J0D01*
G01*
D10*
X203049600Y-130948200D02*
X202592400Y-130643400D01*
X206605600Y-131811800D02*
X206529400Y-131380000D01*
X207316800Y-128408200D02*
X207520000Y-128713000D01*
D11*
X185369200Y-134797800D02*
X181559200Y-134797800D01*
X202744800Y-128357400D02*
X203405200Y-128205000D01*
D10*
X207418400Y-130795800D02*
X207164400Y-131405400D01*
X202186000Y-130135400D02*
X202135200Y-129678200D01*
D11*
X220345000Y-93853000D02*
X220345000Y-125603000D01*
X181559200Y-130987800D02*
X181051200Y-131495800D01*
D10*
X202338400Y-128611400D02*
X202744800Y-128357400D01*
X207164400Y-131405400D02*
X206910400Y-131964200D01*
D11*
X185369200Y-134797800D02*
X184861200Y-134289800D01*
D12*
X178892200Y-64566800D02*
X178892200Y-140766800D01*
X229692200Y-64566800D02*
G75*
G03*
X227152200Y-62026800I-2540001J-1D01*
G01*
X181432200Y-143306800D02*
X227152200Y-143306800D01*
X227152200Y-62026800D02*
X181432200Y-62026800D01*
X229692200Y-140766800D02*
X229692200Y-64566800D01*
X227152200Y-143306800D02*
G75*
G03*
X229692200Y-140766800I-1J2540001D01*
G01*
X178892200Y-140766800D02*
G75*
G03*
X181432200Y-143306800I2540001J1D01*
G01*
X181432200Y-62026800D02*
G75*
G03*
X178892200Y-64566800I1J-2540001D01*
G01*
D13*
X223924952Y-105057380D02*
X223448761Y-105057380D01*
X223448761Y-104057380D01*
X224258285Y-105057380D02*
X224258285Y-104390714D01*
X224258285Y-104057380D02*
X224210666Y-104105000D01*
X224258285Y-104152619D01*
X224305904Y-104105000D01*
X224258285Y-104057380D01*
X224258285Y-104152619D01*
X225163047Y-104390714D02*
X225163047Y-105200238D01*
X225115428Y-105295476D01*
X225067809Y-105343095D01*
X224972571Y-105390714D01*
X224829714Y-105390714D01*
X224734476Y-105343095D01*
X225163047Y-105009761D02*
X225067809Y-105057380D01*
X224877333Y-105057380D01*
X224782095Y-105009761D01*
X224734476Y-104962142D01*
X224686857Y-104866904D01*
X224686857Y-104581190D01*
X224734476Y-104485952D01*
X224782095Y-104438333D01*
X224877333Y-104390714D01*
X225067809Y-104390714D01*
X225163047Y-104438333D01*
X225639238Y-105057380D02*
X225639238Y-104057380D01*
X226067809Y-105057380D02*
X226067809Y-104533571D01*
X226020190Y-104438333D01*
X225924952Y-104390714D01*
X225782095Y-104390714D01*
X225686857Y-104438333D01*
X225639238Y-104485952D01*
X226401142Y-104390714D02*
X226782095Y-104390714D01*
X226544000Y-104057380D02*
X226544000Y-104914523D01*
X226591619Y-105009761D01*
X226686857Y-105057380D01*
X226782095Y-105057380D01*
X222710666Y-106619761D02*
X222853523Y-106667380D01*
X223091619Y-106667380D01*
X223186857Y-106619761D01*
X223234476Y-106572142D01*
X223282095Y-106476904D01*
X223282095Y-106381666D01*
X223234476Y-106286428D01*
X223186857Y-106238809D01*
X223091619Y-106191190D01*
X222901142Y-106143571D01*
X222805904Y-106095952D01*
X222758285Y-106048333D01*
X222710666Y-105953095D01*
X222710666Y-105857857D01*
X222758285Y-105762619D01*
X222805904Y-105715000D01*
X222901142Y-105667380D01*
X223139238Y-105667380D01*
X223282095Y-105715000D01*
X224091619Y-106619761D02*
X223996380Y-106667380D01*
X223805904Y-106667380D01*
X223710666Y-106619761D01*
X223663047Y-106524523D01*
X223663047Y-106143571D01*
X223710666Y-106048333D01*
X223805904Y-106000714D01*
X223996380Y-106000714D01*
X224091619Y-106048333D01*
X224139238Y-106143571D01*
X224139238Y-106238809D01*
X223663047Y-106334047D01*
X224567809Y-106000714D02*
X224567809Y-106667380D01*
X224567809Y-106095952D02*
X224615428Y-106048333D01*
X224710666Y-106000714D01*
X224853523Y-106000714D01*
X224948761Y-106048333D01*
X224996380Y-106143571D01*
X224996380Y-106667380D01*
X225424952Y-106619761D02*
X225520190Y-106667380D01*
X225710666Y-106667380D01*
X225805904Y-106619761D01*
X225853523Y-106524523D01*
X225853523Y-106476904D01*
X225805904Y-106381666D01*
X225710666Y-106334047D01*
X225567809Y-106334047D01*
X225472571Y-106286428D01*
X225424952Y-106191190D01*
X225424952Y-106143571D01*
X225472571Y-106048333D01*
X225567809Y-106000714D01*
X225710666Y-106000714D01*
X225805904Y-106048333D01*
X226424952Y-106667380D02*
X226329714Y-106619761D01*
X226282095Y-106572142D01*
X226234476Y-106476904D01*
X226234476Y-106191190D01*
X226282095Y-106095952D01*
X226329714Y-106048333D01*
X226424952Y-106000714D01*
X226567809Y-106000714D01*
X226663047Y-106048333D01*
X226710666Y-106095952D01*
X226758285Y-106191190D01*
X226758285Y-106476904D01*
X226710666Y-106572142D01*
X226663047Y-106619761D01*
X226567809Y-106667380D01*
X226424952Y-106667380D01*
X227186857Y-106667380D02*
X227186857Y-106000714D01*
X227186857Y-106191190D02*
X227234476Y-106095952D01*
X227282095Y-106048333D01*
X227377333Y-106000714D01*
X227472571Y-106000714D01*
X195341904Y-133745266D02*
X195818095Y-133745266D01*
X195246666Y-134030980D02*
X195580000Y-133030980D01*
X195913333Y-134030980D01*
X187317142Y-93365580D02*
X186983809Y-92889390D01*
X186745714Y-93365580D02*
X186745714Y-92365580D01*
X187126666Y-92365580D01*
X187221904Y-92413200D01*
X187269523Y-92460819D01*
X187317142Y-92556057D01*
X187317142Y-92698914D01*
X187269523Y-92794152D01*
X187221904Y-92841771D01*
X187126666Y-92889390D01*
X186745714Y-92889390D01*
X187745714Y-92841771D02*
X188079047Y-92841771D01*
X188221904Y-93365580D02*
X187745714Y-93365580D01*
X187745714Y-92365580D01*
X188221904Y-92365580D01*
X188650476Y-93365580D02*
X188650476Y-92365580D01*
X188888571Y-92365580D01*
X189031428Y-92413200D01*
X189126666Y-92508438D01*
X189174285Y-92603676D01*
X189221904Y-92794152D01*
X189221904Y-92937009D01*
X189174285Y-93127485D01*
X189126666Y-93222723D01*
X189031428Y-93317961D01*
X188888571Y-93365580D01*
X188650476Y-93365580D01*
D10*
X203238285Y-129307904D02*
X203238285Y-128545904D01*
X203419714Y-128545904D01*
X203528571Y-128582190D01*
X203601142Y-128654761D01*
X203637428Y-128727332D01*
X203673714Y-128872475D01*
X203673714Y-128981332D01*
X203637428Y-129126475D01*
X203601142Y-129199047D01*
X203528571Y-129271618D01*
X203419714Y-129307904D01*
X203238285Y-129307904D01*
X204109142Y-129307904D02*
X204036571Y-129271618D01*
X204000285Y-129235332D01*
X203964000Y-129162761D01*
X203964000Y-128945047D01*
X204000285Y-128872475D01*
X204036571Y-128836190D01*
X204109142Y-128799904D01*
X204218000Y-128799904D01*
X204290571Y-128836190D01*
X204326857Y-128872475D01*
X204363142Y-128945047D01*
X204363142Y-129162761D01*
X204326857Y-129235332D01*
X204290571Y-129271618D01*
X204218000Y-129307904D01*
X204109142Y-129307904D01*
X205270285Y-128799904D02*
X205270285Y-129307904D01*
X205270285Y-128872475D02*
X205306571Y-128836190D01*
X205379142Y-128799904D01*
X205488000Y-128799904D01*
X205560571Y-128836190D01*
X205596857Y-128908761D01*
X205596857Y-129307904D01*
X206068571Y-129307904D02*
X205996000Y-129271618D01*
X205959714Y-129235332D01*
X205923428Y-129162761D01*
X205923428Y-128945047D01*
X205959714Y-128872475D01*
X205996000Y-128836190D01*
X206068571Y-128799904D01*
X206177428Y-128799904D01*
X206250000Y-128836190D01*
X206286285Y-128872475D01*
X206322571Y-128945047D01*
X206322571Y-129162761D01*
X206286285Y-129235332D01*
X206250000Y-129271618D01*
X206177428Y-129307904D01*
X206068571Y-129307904D01*
X206540285Y-128799904D02*
X206830571Y-128799904D01*
X206649142Y-128545904D02*
X206649142Y-129199047D01*
X206685428Y-129271618D01*
X206758000Y-129307904D01*
X206830571Y-129307904D01*
X204381285Y-130498438D02*
X204308714Y-130534724D01*
X204163571Y-130534724D01*
X204091000Y-130498438D01*
X204054714Y-130425867D01*
X204054714Y-130135581D01*
X204091000Y-130063010D01*
X204163571Y-130026724D01*
X204308714Y-130026724D01*
X204381285Y-130063010D01*
X204417571Y-130135581D01*
X204417571Y-130208152D01*
X204054714Y-130280724D01*
X205070714Y-130534724D02*
X205070714Y-130135581D01*
X205034428Y-130063010D01*
X204961857Y-130026724D01*
X204816714Y-130026724D01*
X204744142Y-130063010D01*
X205070714Y-130498438D02*
X204998142Y-130534724D01*
X204816714Y-130534724D01*
X204744142Y-130498438D01*
X204707857Y-130425867D01*
X204707857Y-130353295D01*
X204744142Y-130280724D01*
X204816714Y-130244438D01*
X204998142Y-130244438D01*
X205070714Y-130208152D01*
X205324714Y-130026724D02*
X205615000Y-130026724D01*
X205433571Y-129772724D02*
X205433571Y-130425867D01*
X205469857Y-130498438D01*
X205542428Y-130534724D01*
X205615000Y-130534724D01*
X205869000Y-130462152D02*
X205905285Y-130498438D01*
X205869000Y-130534724D01*
X205832714Y-130498438D01*
X205869000Y-130462152D01*
X205869000Y-130534724D01*
X205869000Y-130244438D02*
X205832714Y-129809010D01*
X205869000Y-129772724D01*
X205905285Y-129809010D01*
X205869000Y-130244438D01*
X205869000Y-129772724D01*
D13*
X213380628Y-133532571D02*
X213523485Y-133580190D01*
X213571104Y-133627809D01*
X213618723Y-133723047D01*
X213618723Y-133865904D01*
X213571104Y-133961142D01*
X213523485Y-134008761D01*
X213428247Y-134056380D01*
X213047295Y-134056380D01*
X213047295Y-133056380D01*
X213380628Y-133056380D01*
X213475866Y-133104000D01*
X213523485Y-133151619D01*
X213571104Y-133246857D01*
X213571104Y-133342095D01*
X213523485Y-133437333D01*
X213475866Y-133484952D01*
X213380628Y-133532571D01*
X213047295Y-133532571D01*
X197342333Y-92413200D02*
X197247095Y-92365580D01*
X197104238Y-92365580D01*
X196961380Y-92413200D01*
X196866142Y-92508438D01*
X196818523Y-92603676D01*
X196770904Y-92794152D01*
X196770904Y-92937009D01*
X196818523Y-93127485D01*
X196866142Y-93222723D01*
X196961380Y-93317961D01*
X197104238Y-93365580D01*
X197199476Y-93365580D01*
X197342333Y-93317961D01*
X197389952Y-93270342D01*
X197389952Y-92937009D01*
X197199476Y-92937009D01*
X198389952Y-93365580D02*
X198056619Y-92889390D01*
X197818523Y-93365580D02*
X197818523Y-92365580D01*
X198199476Y-92365580D01*
X198294714Y-92413200D01*
X198342333Y-92460819D01*
X198389952Y-92556057D01*
X198389952Y-92698914D01*
X198342333Y-92794152D01*
X198294714Y-92841771D01*
X198199476Y-92889390D01*
X197818523Y-92889390D01*
X198818523Y-92841771D02*
X199151857Y-92841771D01*
X199294714Y-93365580D02*
X198818523Y-93365580D01*
X198818523Y-92365580D01*
X199294714Y-92365580D01*
X199723285Y-92841771D02*
X200056619Y-92841771D01*
X200199476Y-93365580D02*
X199723285Y-93365580D01*
X199723285Y-92365580D01*
X200199476Y-92365580D01*
X200628047Y-93365580D02*
X200628047Y-92365580D01*
X201199476Y-93365580D01*
X201199476Y-92365580D01*
X218622857Y-92889390D02*
X218622857Y-93365580D01*
X218289523Y-92365580D02*
X218622857Y-92889390D01*
X218956190Y-92365580D01*
X219289523Y-92841771D02*
X219622857Y-92841771D01*
X219765714Y-93365580D02*
X219289523Y-93365580D01*
X219289523Y-92365580D01*
X219765714Y-92365580D01*
X220670476Y-93365580D02*
X220194285Y-93365580D01*
X220194285Y-92365580D01*
X221480000Y-93365580D02*
X221003809Y-93365580D01*
X221003809Y-92365580D01*
X222003809Y-92365580D02*
X222194285Y-92365580D01*
X222289523Y-92413200D01*
X222384761Y-92508438D01*
X222432380Y-92698914D01*
X222432380Y-93032247D01*
X222384761Y-93222723D01*
X222289523Y-93317961D01*
X222194285Y-93365580D01*
X222003809Y-93365580D01*
X221908571Y-93317961D01*
X221813333Y-93222723D01*
X221765714Y-93032247D01*
X221765714Y-92698914D01*
X221813333Y-92508438D01*
X221908571Y-92413200D01*
X222003809Y-92365580D01*
X222765714Y-92365580D02*
X223003809Y-93365580D01*
X223194285Y-92651295D01*
X223384761Y-93365580D01*
X223622857Y-92365580D01*
X181757866Y-101822180D02*
X182329295Y-101822180D01*
X182043580Y-102822180D02*
X182043580Y-101822180D01*
X183043580Y-102774561D02*
X182948342Y-102822180D01*
X182757866Y-102822180D01*
X182662628Y-102774561D01*
X182615009Y-102679323D01*
X182615009Y-102298371D01*
X182662628Y-102203133D01*
X182757866Y-102155514D01*
X182948342Y-102155514D01*
X183043580Y-102203133D01*
X183091200Y-102298371D01*
X183091200Y-102393609D01*
X182615009Y-102488847D01*
X183519771Y-102822180D02*
X183519771Y-102155514D01*
X183519771Y-102250752D02*
X183567390Y-102203133D01*
X183662628Y-102155514D01*
X183805485Y-102155514D01*
X183900723Y-102203133D01*
X183948342Y-102298371D01*
X183948342Y-102822180D01*
X183948342Y-102298371D02*
X183995961Y-102203133D01*
X184091200Y-102155514D01*
X184234057Y-102155514D01*
X184329295Y-102203133D01*
X184376914Y-102298371D01*
X184376914Y-102822180D01*
X184853104Y-102155514D02*
X184853104Y-103155514D01*
X184853104Y-102203133D02*
X184948342Y-102155514D01*
X185138819Y-102155514D01*
X185234057Y-102203133D01*
X185281676Y-102250752D01*
X185329295Y-102345990D01*
X185329295Y-102631704D01*
X185281676Y-102726942D01*
X185234057Y-102774561D01*
X185138819Y-102822180D01*
X184948342Y-102822180D01*
X184853104Y-102774561D01*
X181257866Y-104384561D02*
X181400723Y-104432180D01*
X181638819Y-104432180D01*
X181734057Y-104384561D01*
X181781676Y-104336942D01*
X181829295Y-104241704D01*
X181829295Y-104146466D01*
X181781676Y-104051228D01*
X181734057Y-104003609D01*
X181638819Y-103955990D01*
X181448342Y-103908371D01*
X181353104Y-103860752D01*
X181305485Y-103813133D01*
X181257866Y-103717895D01*
X181257866Y-103622657D01*
X181305485Y-103527419D01*
X181353104Y-103479800D01*
X181448342Y-103432180D01*
X181686438Y-103432180D01*
X181829295Y-103479800D01*
X182638819Y-104384561D02*
X182543580Y-104432180D01*
X182353104Y-104432180D01*
X182257866Y-104384561D01*
X182210247Y-104289323D01*
X182210247Y-103908371D01*
X182257866Y-103813133D01*
X182353104Y-103765514D01*
X182543580Y-103765514D01*
X182638819Y-103813133D01*
X182686438Y-103908371D01*
X182686438Y-104003609D01*
X182210247Y-104098847D01*
X183115009Y-103765514D02*
X183115009Y-104432180D01*
X183115009Y-103860752D02*
X183162628Y-103813133D01*
X183257866Y-103765514D01*
X183400723Y-103765514D01*
X183495961Y-103813133D01*
X183543580Y-103908371D01*
X183543580Y-104432180D01*
X183972152Y-104384561D02*
X184067390Y-104432180D01*
X184257866Y-104432180D01*
X184353104Y-104384561D01*
X184400723Y-104289323D01*
X184400723Y-104241704D01*
X184353104Y-104146466D01*
X184257866Y-104098847D01*
X184115009Y-104098847D01*
X184019771Y-104051228D01*
X183972152Y-103955990D01*
X183972152Y-103908371D01*
X184019771Y-103813133D01*
X184115009Y-103765514D01*
X184257866Y-103765514D01*
X184353104Y-103813133D01*
X184972152Y-104432180D02*
X184876914Y-104384561D01*
X184829295Y-104336942D01*
X184781676Y-104241704D01*
X184781676Y-103955990D01*
X184829295Y-103860752D01*
X184876914Y-103813133D01*
X184972152Y-103765514D01*
X185115009Y-103765514D01*
X185210247Y-103813133D01*
X185257866Y-103860752D01*
X185305485Y-103955990D01*
X185305485Y-104241704D01*
X185257866Y-104336942D01*
X185210247Y-104384561D01*
X185115009Y-104432180D01*
X184972152Y-104432180D01*
X185734057Y-104432180D02*
X185734057Y-103765514D01*
X185734057Y-103955990D02*
X185781676Y-103860752D01*
X185829295Y-103813133D01*
X185924533Y-103765514D01*
X186019771Y-103765514D01*
X208748476Y-92841771D02*
X208891333Y-92889390D01*
X208938952Y-92937009D01*
X208986571Y-93032247D01*
X208986571Y-93175104D01*
X208938952Y-93270342D01*
X208891333Y-93317961D01*
X208796095Y-93365580D01*
X208415142Y-93365580D01*
X208415142Y-92365580D01*
X208748476Y-92365580D01*
X208843714Y-92413200D01*
X208891333Y-92460819D01*
X208938952Y-92556057D01*
X208938952Y-92651295D01*
X208891333Y-92746533D01*
X208843714Y-92794152D01*
X208748476Y-92841771D01*
X208415142Y-92841771D01*
X209891333Y-93365580D02*
X209415142Y-93365580D01*
X209415142Y-92365580D01*
X210224666Y-92365580D02*
X210224666Y-93175104D01*
X210272285Y-93270342D01*
X210319904Y-93317961D01*
X210415142Y-93365580D01*
X210605619Y-93365580D01*
X210700857Y-93317961D01*
X210748476Y-93270342D01*
X210796095Y-93175104D01*
X210796095Y-92365580D01*
X211272285Y-92841771D02*
X211605619Y-92841771D01*
X211748476Y-93365580D02*
X211272285Y-93365580D01*
X211272285Y-92365580D01*
X211748476Y-92365580D01*
X185869295Y-135123180D02*
X186393104Y-134456514D01*
X185869295Y-134456514D02*
X186393104Y-135123180D01*
X181321104Y-129503514D02*
X181559200Y-130170180D01*
X181797295Y-129503514D02*
X181559200Y-130170180D01*
X181463961Y-130408276D01*
X181416342Y-130455895D01*
X181321104Y-130503514D01*
X182059295Y-133618314D02*
X182583104Y-133618314D01*
X182059295Y-134284980D01*
X182583104Y-134284980D01*
%TO.C,S2*%
X212598095Y-129766961D02*
X212740952Y-129814580D01*
X212979047Y-129814580D01*
X213074285Y-129766961D01*
X213121904Y-129719342D01*
X213169523Y-129624104D01*
X213169523Y-129528866D01*
X213121904Y-129433628D01*
X213074285Y-129386009D01*
X212979047Y-129338390D01*
X212788571Y-129290771D01*
X212693333Y-129243152D01*
X212645714Y-129195533D01*
X212598095Y-129100295D01*
X212598095Y-129005057D01*
X212645714Y-128909819D01*
X212693333Y-128862200D01*
X212788571Y-128814580D01*
X213026666Y-128814580D01*
X213169523Y-128862200D01*
X213550476Y-128909819D02*
X213598095Y-128862200D01*
X213693333Y-128814580D01*
X213931428Y-128814580D01*
X214026666Y-128862200D01*
X214074285Y-128909819D01*
X214121904Y-129005057D01*
X214121904Y-129100295D01*
X214074285Y-129243152D01*
X213502857Y-129814580D01*
X214121904Y-129814580D01*
%TO.C,Q1*%
X224923361Y-111139219D02*
X224828123Y-111091600D01*
X224732885Y-110996361D01*
X224590028Y-110853504D01*
X224494790Y-110805885D01*
X224399552Y-110805885D01*
X224447171Y-111043980D02*
X224351933Y-110996361D01*
X224256695Y-110901123D01*
X224209076Y-110710647D01*
X224209076Y-110377314D01*
X224256695Y-110186838D01*
X224351933Y-110091600D01*
X224447171Y-110043980D01*
X224637647Y-110043980D01*
X224732885Y-110091600D01*
X224828123Y-110186838D01*
X224875742Y-110377314D01*
X224875742Y-110710647D01*
X224828123Y-110901123D01*
X224732885Y-110996361D01*
X224637647Y-111043980D01*
X224447171Y-111043980D01*
X225828123Y-111043980D02*
X225256695Y-111043980D01*
X225542409Y-111043980D02*
X225542409Y-110043980D01*
X225447171Y-110186838D01*
X225351933Y-110282076D01*
X225256695Y-110329695D01*
%TO.C,S1*%
X194767295Y-130020961D02*
X194910152Y-130068580D01*
X195148247Y-130068580D01*
X195243485Y-130020961D01*
X195291104Y-129973342D01*
X195338723Y-129878104D01*
X195338723Y-129782866D01*
X195291104Y-129687628D01*
X195243485Y-129640009D01*
X195148247Y-129592390D01*
X194957771Y-129544771D01*
X194862533Y-129497152D01*
X194814914Y-129449533D01*
X194767295Y-129354295D01*
X194767295Y-129259057D01*
X194814914Y-129163819D01*
X194862533Y-129116200D01*
X194957771Y-129068580D01*
X195195866Y-129068580D01*
X195338723Y-129116200D01*
X196291104Y-130068580D02*
X195719676Y-130068580D01*
X196005390Y-130068580D02*
X196005390Y-129068580D01*
X195910152Y-129211438D01*
X195814914Y-129306676D01*
X195719676Y-129354295D01*
%TO.C,J1*%
X225564580Y-85220133D02*
X226278866Y-85220133D01*
X226421723Y-85267752D01*
X226516961Y-85362990D01*
X226564580Y-85505847D01*
X226564580Y-85601085D01*
X226564580Y-84220133D02*
X226564580Y-84791561D01*
X226564580Y-84505847D02*
X225564580Y-84505847D01*
X225707438Y-84601085D01*
X225802676Y-84696323D01*
X225850295Y-84791561D01*
%TO.C,J2*%
X225564580Y-64900133D02*
X226278866Y-64900133D01*
X226421723Y-64947752D01*
X226516961Y-65042990D01*
X226564580Y-65185847D01*
X226564580Y-65281085D01*
X225659819Y-64471561D02*
X225612200Y-64423942D01*
X225564580Y-64328704D01*
X225564580Y-64090609D01*
X225612200Y-63995371D01*
X225659819Y-63947752D01*
X225755057Y-63900133D01*
X225850295Y-63900133D01*
X225993152Y-63947752D01*
X226564580Y-64519180D01*
X226564580Y-63900133D01*
%TO.C,D2*%
X198347104Y-89606380D02*
X198347104Y-88606380D01*
X198585200Y-88606380D01*
X198728057Y-88654000D01*
X198823295Y-88749238D01*
X198870914Y-88844476D01*
X198918533Y-89034952D01*
X198918533Y-89177809D01*
X198870914Y-89368285D01*
X198823295Y-89463523D01*
X198728057Y-89558761D01*
X198585200Y-89606380D01*
X198347104Y-89606380D01*
X199299485Y-88701619D02*
X199347104Y-88654000D01*
X199442342Y-88606380D01*
X199680438Y-88606380D01*
X199775676Y-88654000D01*
X199823295Y-88701619D01*
X199870914Y-88796857D01*
X199870914Y-88892095D01*
X199823295Y-89034952D01*
X199251866Y-89606380D01*
X199870914Y-89606380D01*
%TO.C,D4*%
X220267304Y-89606380D02*
X220267304Y-88606380D01*
X220505400Y-88606380D01*
X220648257Y-88654000D01*
X220743495Y-88749238D01*
X220791114Y-88844476D01*
X220838733Y-89034952D01*
X220838733Y-89177809D01*
X220791114Y-89368285D01*
X220743495Y-89463523D01*
X220648257Y-89558761D01*
X220505400Y-89606380D01*
X220267304Y-89606380D01*
X221695876Y-88939714D02*
X221695876Y-89606380D01*
X221457780Y-88558761D02*
X221219685Y-89273047D01*
X221838733Y-89273047D01*
%TO.C,R4*%
X182393580Y-123356666D02*
X181917390Y-123690000D01*
X182393580Y-123928095D02*
X181393580Y-123928095D01*
X181393580Y-123547142D01*
X181441200Y-123451904D01*
X181488819Y-123404285D01*
X181584057Y-123356666D01*
X181726914Y-123356666D01*
X181822152Y-123404285D01*
X181869771Y-123451904D01*
X181917390Y-123547142D01*
X181917390Y-123928095D01*
X181726914Y-122499523D02*
X182393580Y-122499523D01*
X181345961Y-122737619D02*
X182060247Y-122975714D01*
X182060247Y-122356666D01*
%TO.C,R8*%
X226563180Y-89396866D02*
X226086990Y-89730200D01*
X226563180Y-89968295D02*
X225563180Y-89968295D01*
X225563180Y-89587342D01*
X225610800Y-89492104D01*
X225658419Y-89444485D01*
X225753657Y-89396866D01*
X225896514Y-89396866D01*
X225991752Y-89444485D01*
X226039371Y-89492104D01*
X226086990Y-89587342D01*
X226086990Y-89968295D01*
X225991752Y-88825438D02*
X225944133Y-88920676D01*
X225896514Y-88968295D01*
X225801276Y-89015914D01*
X225753657Y-89015914D01*
X225658419Y-88968295D01*
X225610800Y-88920676D01*
X225563180Y-88825438D01*
X225563180Y-88634961D01*
X225610800Y-88539723D01*
X225658419Y-88492104D01*
X225753657Y-88444485D01*
X225801276Y-88444485D01*
X225896514Y-88492104D01*
X225944133Y-88539723D01*
X225991752Y-88634961D01*
X225991752Y-88825438D01*
X226039371Y-88920676D01*
X226086990Y-88968295D01*
X226182228Y-89015914D01*
X226372704Y-89015914D01*
X226467942Y-88968295D01*
X226515561Y-88920676D01*
X226563180Y-88825438D01*
X226563180Y-88634961D01*
X226515561Y-88539723D01*
X226467942Y-88492104D01*
X226372704Y-88444485D01*
X226182228Y-88444485D01*
X226086990Y-88492104D01*
X226039371Y-88539723D01*
X225991752Y-88634961D01*
%TO.C,R7*%
X204744580Y-88558666D02*
X204268390Y-88892000D01*
X204744580Y-89130095D02*
X203744580Y-89130095D01*
X203744580Y-88749142D01*
X203792200Y-88653904D01*
X203839819Y-88606285D01*
X203935057Y-88558666D01*
X204077914Y-88558666D01*
X204173152Y-88606285D01*
X204220771Y-88653904D01*
X204268390Y-88749142D01*
X204268390Y-89130095D01*
X203744580Y-88225333D02*
X203744580Y-87558666D01*
X204744580Y-87987238D01*
%TO.C,R1*%
X224877333Y-116562780D02*
X224544000Y-116086590D01*
X224305904Y-116562780D02*
X224305904Y-115562780D01*
X224686857Y-115562780D01*
X224782095Y-115610400D01*
X224829714Y-115658019D01*
X224877333Y-115753257D01*
X224877333Y-115896114D01*
X224829714Y-115991352D01*
X224782095Y-116038971D01*
X224686857Y-116086590D01*
X224305904Y-116086590D01*
X225829714Y-116562780D02*
X225258285Y-116562780D01*
X225544000Y-116562780D02*
X225544000Y-115562780D01*
X225448761Y-115705638D01*
X225353523Y-115800876D01*
X225258285Y-115848495D01*
%TO.C,R5*%
X227146380Y-123356666D02*
X226670190Y-123690000D01*
X227146380Y-123928095D02*
X226146380Y-123928095D01*
X226146380Y-123547142D01*
X226194000Y-123451904D01*
X226241619Y-123404285D01*
X226336857Y-123356666D01*
X226479714Y-123356666D01*
X226574952Y-123404285D01*
X226622571Y-123451904D01*
X226670190Y-123547142D01*
X226670190Y-123928095D01*
X226146380Y-122451904D02*
X226146380Y-122928095D01*
X226622571Y-122975714D01*
X226574952Y-122928095D01*
X226527333Y-122832857D01*
X226527333Y-122594761D01*
X226574952Y-122499523D01*
X226622571Y-122451904D01*
X226717809Y-122404285D01*
X226955904Y-122404285D01*
X227051142Y-122451904D01*
X227098761Y-122499523D01*
X227146380Y-122594761D01*
X227146380Y-122832857D01*
X227098761Y-122928095D01*
X227051142Y-122975714D01*
%TO.C,U1*%
X182854695Y-112380780D02*
X182854695Y-113190304D01*
X182902314Y-113285542D01*
X182949933Y-113333161D01*
X183045171Y-113380780D01*
X183235647Y-113380780D01*
X183330885Y-113333161D01*
X183378504Y-113285542D01*
X183426123Y-113190304D01*
X183426123Y-112380780D01*
X184426123Y-113380780D02*
X183854695Y-113380780D01*
X184140409Y-113380780D02*
X184140409Y-112380780D01*
X184045171Y-112523638D01*
X183949933Y-112618876D01*
X183854695Y-112666495D01*
%TO.C,C1*%
X183453833Y-118263942D02*
X183406214Y-118311561D01*
X183263357Y-118359180D01*
X183168119Y-118359180D01*
X183025261Y-118311561D01*
X182930023Y-118216323D01*
X182882404Y-118121085D01*
X182834785Y-117930609D01*
X182834785Y-117787752D01*
X182882404Y-117597276D01*
X182930023Y-117502038D01*
X183025261Y-117406800D01*
X183168119Y-117359180D01*
X183263357Y-117359180D01*
X183406214Y-117406800D01*
X183453833Y-117454419D01*
X184406214Y-118359180D02*
X183834785Y-118359180D01*
X184120500Y-118359180D02*
X184120500Y-117359180D01*
X184025261Y-117502038D01*
X183930023Y-117597276D01*
X183834785Y-117644895D01*
%TO.C,R6*%
X194404880Y-88685666D02*
X193928690Y-89019000D01*
X194404880Y-89257095D02*
X193404880Y-89257095D01*
X193404880Y-88876142D01*
X193452500Y-88780904D01*
X193500119Y-88733285D01*
X193595357Y-88685666D01*
X193738214Y-88685666D01*
X193833452Y-88733285D01*
X193881071Y-88780904D01*
X193928690Y-88876142D01*
X193928690Y-89257095D01*
X193404880Y-87828523D02*
X193404880Y-88019000D01*
X193452500Y-88114238D01*
X193500119Y-88161857D01*
X193642976Y-88257095D01*
X193833452Y-88304714D01*
X194214404Y-88304714D01*
X194309642Y-88257095D01*
X194357261Y-88209476D01*
X194404880Y-88114238D01*
X194404880Y-87923761D01*
X194357261Y-87828523D01*
X194309642Y-87780904D01*
X194214404Y-87733285D01*
X193976309Y-87733285D01*
X193881071Y-87780904D01*
X193833452Y-87828523D01*
X193785833Y-87923761D01*
X193785833Y-88114238D01*
X193833452Y-88209476D01*
X193881071Y-88257095D01*
X193976309Y-88304714D01*
%TO.C,D1*%
X187298104Y-89606380D02*
X187298104Y-88606380D01*
X187536200Y-88606380D01*
X187679057Y-88654000D01*
X187774295Y-88749238D01*
X187821914Y-88844476D01*
X187869533Y-89034952D01*
X187869533Y-89177809D01*
X187821914Y-89368285D01*
X187774295Y-89463523D01*
X187679057Y-89558761D01*
X187536200Y-89606380D01*
X187298104Y-89606380D01*
X188821914Y-89606380D02*
X188250485Y-89606380D01*
X188536200Y-89606380D02*
X188536200Y-88606380D01*
X188440961Y-88749238D01*
X188345723Y-88844476D01*
X188250485Y-88892095D01*
%TO.C,R2*%
X213838780Y-89244466D02*
X213362590Y-89577800D01*
X213838780Y-89815895D02*
X212838780Y-89815895D01*
X212838780Y-89434942D01*
X212886400Y-89339704D01*
X212934019Y-89292085D01*
X213029257Y-89244466D01*
X213172114Y-89244466D01*
X213267352Y-89292085D01*
X213314971Y-89339704D01*
X213362590Y-89434942D01*
X213362590Y-89815895D01*
X212934019Y-88863514D02*
X212886400Y-88815895D01*
X212838780Y-88720657D01*
X212838780Y-88482561D01*
X212886400Y-88387323D01*
X212934019Y-88339704D01*
X213029257Y-88292085D01*
X213124495Y-88292085D01*
X213267352Y-88339704D01*
X213838780Y-88911133D01*
X213838780Y-88292085D01*
%TO.C,D3*%
X209319904Y-89606380D02*
X209319904Y-88606380D01*
X209558000Y-88606380D01*
X209700857Y-88654000D01*
X209796095Y-88749238D01*
X209843714Y-88844476D01*
X209891333Y-89034952D01*
X209891333Y-89177809D01*
X209843714Y-89368285D01*
X209796095Y-89463523D01*
X209700857Y-89558761D01*
X209558000Y-89606380D01*
X209319904Y-89606380D01*
X210224666Y-88606380D02*
X210843714Y-88606380D01*
X210510380Y-88987333D01*
X210653238Y-88987333D01*
X210748476Y-89034952D01*
X210796095Y-89082571D01*
X210843714Y-89177809D01*
X210843714Y-89415904D01*
X210796095Y-89511142D01*
X210748476Y-89558761D01*
X210653238Y-89606380D01*
X210367523Y-89606380D01*
X210272285Y-89558761D01*
X210224666Y-89511142D01*
%TO.C,R9*%
X219543333Y-69668380D02*
X219210000Y-69192190D01*
X218971904Y-69668380D02*
X218971904Y-68668380D01*
X219352857Y-68668380D01*
X219448095Y-68716000D01*
X219495714Y-68763619D01*
X219543333Y-68858857D01*
X219543333Y-69001714D01*
X219495714Y-69096952D01*
X219448095Y-69144571D01*
X219352857Y-69192190D01*
X218971904Y-69192190D01*
X220019523Y-69668380D02*
X220210000Y-69668380D01*
X220305238Y-69620761D01*
X220352857Y-69573142D01*
X220448095Y-69430285D01*
X220495714Y-69239809D01*
X220495714Y-68858857D01*
X220448095Y-68763619D01*
X220400476Y-68716000D01*
X220305238Y-68668380D01*
X220114761Y-68668380D01*
X220019523Y-68716000D01*
X219971904Y-68763619D01*
X219924285Y-68858857D01*
X219924285Y-69096952D01*
X219971904Y-69192190D01*
X220019523Y-69239809D01*
X220114761Y-69287428D01*
X220305238Y-69287428D01*
X220400476Y-69239809D01*
X220448095Y-69192190D01*
X220495714Y-69096952D01*
%TO.C,R11*%
X190568342Y-75839580D02*
X190235009Y-75363390D01*
X189996914Y-75839580D02*
X189996914Y-74839580D01*
X190377866Y-74839580D01*
X190473104Y-74887200D01*
X190520723Y-74934819D01*
X190568342Y-75030057D01*
X190568342Y-75172914D01*
X190520723Y-75268152D01*
X190473104Y-75315771D01*
X190377866Y-75363390D01*
X189996914Y-75363390D01*
X191520723Y-75839580D02*
X190949295Y-75839580D01*
X191235009Y-75839580D02*
X191235009Y-74839580D01*
X191139771Y-74982438D01*
X191044533Y-75077676D01*
X190949295Y-75125295D01*
X192473104Y-75839580D02*
X191901676Y-75839580D01*
X192187390Y-75839580D02*
X192187390Y-74839580D01*
X192092152Y-74982438D01*
X191996914Y-75077676D01*
X191901676Y-75125295D01*
D14*
%TO.C,D5*%
X182012380Y-78058095D02*
X181012380Y-78058095D01*
X181012380Y-77820000D01*
X181060000Y-77677142D01*
X181155238Y-77581904D01*
X181250476Y-77534285D01*
X181440952Y-77486666D01*
X181583809Y-77486666D01*
X181774285Y-77534285D01*
X181869523Y-77581904D01*
X181964761Y-77677142D01*
X182012380Y-77820000D01*
X182012380Y-78058095D01*
X181012380Y-76581904D02*
X181012380Y-77058095D01*
X181488571Y-77105714D01*
X181440952Y-77058095D01*
X181393333Y-76962857D01*
X181393333Y-76724761D01*
X181440952Y-76629523D01*
X181488571Y-76581904D01*
X181583809Y-76534285D01*
X181821904Y-76534285D01*
X181917142Y-76581904D01*
X181964761Y-76629523D01*
X182012380Y-76724761D01*
X182012380Y-76962857D01*
X181964761Y-77058095D01*
X181917142Y-77105714D01*
D13*
%TO.C,R10*%
X185589942Y-75839580D02*
X185256609Y-75363390D01*
X185018514Y-75839580D02*
X185018514Y-74839580D01*
X185399466Y-74839580D01*
X185494704Y-74887200D01*
X185542323Y-74934819D01*
X185589942Y-75030057D01*
X185589942Y-75172914D01*
X185542323Y-75268152D01*
X185494704Y-75315771D01*
X185399466Y-75363390D01*
X185018514Y-75363390D01*
X186542323Y-75839580D02*
X185970895Y-75839580D01*
X186256609Y-75839580D02*
X186256609Y-74839580D01*
X186161371Y-74982438D01*
X186066133Y-75077676D01*
X185970895Y-75125295D01*
X187161371Y-74839580D02*
X187256609Y-74839580D01*
X187351847Y-74887200D01*
X187399466Y-74934819D01*
X187447085Y-75030057D01*
X187494704Y-75220533D01*
X187494704Y-75458628D01*
X187447085Y-75649104D01*
X187399466Y-75744342D01*
X187351847Y-75791961D01*
X187256609Y-75839580D01*
X187161371Y-75839580D01*
X187066133Y-75791961D01*
X187018514Y-75744342D01*
X186970895Y-75649104D01*
X186923276Y-75458628D01*
X186923276Y-75220533D01*
X186970895Y-75030057D01*
X187018514Y-74934819D01*
X187066133Y-74887200D01*
X187161371Y-74839580D01*
%TO.C,C5*%
X195362533Y-79395142D02*
X195314914Y-79442761D01*
X195172057Y-79490380D01*
X195076819Y-79490380D01*
X194933961Y-79442761D01*
X194838723Y-79347523D01*
X194791104Y-79252285D01*
X194743485Y-79061809D01*
X194743485Y-78918952D01*
X194791104Y-78728476D01*
X194838723Y-78633238D01*
X194933961Y-78538000D01*
X195076819Y-78490380D01*
X195172057Y-78490380D01*
X195314914Y-78538000D01*
X195362533Y-78585619D01*
X196267295Y-78490380D02*
X195791104Y-78490380D01*
X195743485Y-78966571D01*
X195791104Y-78918952D01*
X195886342Y-78871333D01*
X196124438Y-78871333D01*
X196219676Y-78918952D01*
X196267295Y-78966571D01*
X196314914Y-79061809D01*
X196314914Y-79299904D01*
X196267295Y-79395142D01*
X196219676Y-79442761D01*
X196124438Y-79490380D01*
X195886342Y-79490380D01*
X195791104Y-79442761D01*
X195743485Y-79395142D01*
%TO.C,U2*%
X208788095Y-74592380D02*
X208788095Y-75401904D01*
X208835714Y-75497142D01*
X208883333Y-75544761D01*
X208978571Y-75592380D01*
X209169047Y-75592380D01*
X209264285Y-75544761D01*
X209311904Y-75497142D01*
X209359523Y-75401904D01*
X209359523Y-74592380D01*
X209788095Y-74687619D02*
X209835714Y-74640000D01*
X209930952Y-74592380D01*
X210169047Y-74592380D01*
X210264285Y-74640000D01*
X210311904Y-74687619D01*
X210359523Y-74782857D01*
X210359523Y-74878095D01*
X210311904Y-75020952D01*
X209740476Y-75592380D01*
X210359523Y-75592380D01*
%TO.C,C2*%
X201623142Y-72302666D02*
X201670761Y-72350285D01*
X201718380Y-72493142D01*
X201718380Y-72588380D01*
X201670761Y-72731238D01*
X201575523Y-72826476D01*
X201480285Y-72874095D01*
X201289809Y-72921714D01*
X201146952Y-72921714D01*
X200956476Y-72874095D01*
X200861238Y-72826476D01*
X200766000Y-72731238D01*
X200718380Y-72588380D01*
X200718380Y-72493142D01*
X200766000Y-72350285D01*
X200813619Y-72302666D01*
X200813619Y-71921714D02*
X200766000Y-71874095D01*
X200718380Y-71778857D01*
X200718380Y-71540761D01*
X200766000Y-71445523D01*
X200813619Y-71397904D01*
X200908857Y-71350285D01*
X201004095Y-71350285D01*
X201146952Y-71397904D01*
X201718380Y-71969333D01*
X201718380Y-71350285D01*
%TO.C,C3*%
X203795333Y-67457142D02*
X203747714Y-67504761D01*
X203604857Y-67552380D01*
X203509619Y-67552380D01*
X203366761Y-67504761D01*
X203271523Y-67409523D01*
X203223904Y-67314285D01*
X203176285Y-67123809D01*
X203176285Y-66980952D01*
X203223904Y-66790476D01*
X203271523Y-66695238D01*
X203366761Y-66600000D01*
X203509619Y-66552380D01*
X203604857Y-66552380D01*
X203747714Y-66600000D01*
X203795333Y-66647619D01*
X204128666Y-66552380D02*
X204747714Y-66552380D01*
X204414380Y-66933333D01*
X204557238Y-66933333D01*
X204652476Y-66980952D01*
X204700095Y-67028571D01*
X204747714Y-67123809D01*
X204747714Y-67361904D01*
X204700095Y-67457142D01*
X204652476Y-67504761D01*
X204557238Y-67552380D01*
X204271523Y-67552380D01*
X204176285Y-67504761D01*
X204128666Y-67457142D01*
%TO.C,R3*%
X219289333Y-74748380D02*
X218956000Y-74272190D01*
X218717904Y-74748380D02*
X218717904Y-73748380D01*
X219098857Y-73748380D01*
X219194095Y-73796000D01*
X219241714Y-73843619D01*
X219289333Y-73938857D01*
X219289333Y-74081714D01*
X219241714Y-74176952D01*
X219194095Y-74224571D01*
X219098857Y-74272190D01*
X218717904Y-74272190D01*
X219622666Y-73748380D02*
X220241714Y-73748380D01*
X219908380Y-74129333D01*
X220051238Y-74129333D01*
X220146476Y-74176952D01*
X220194095Y-74224571D01*
X220241714Y-74319809D01*
X220241714Y-74557904D01*
X220194095Y-74653142D01*
X220146476Y-74700761D01*
X220051238Y-74748380D01*
X219765523Y-74748380D01*
X219670285Y-74700761D01*
X219622666Y-74653142D01*
%TO.C,C4*%
X203541333Y-77983142D02*
X203493714Y-78030761D01*
X203350857Y-78078380D01*
X203255619Y-78078380D01*
X203112761Y-78030761D01*
X203017523Y-77935523D01*
X202969904Y-77840285D01*
X202922285Y-77649809D01*
X202922285Y-77506952D01*
X202969904Y-77316476D01*
X203017523Y-77221238D01*
X203112761Y-77126000D01*
X203255619Y-77078380D01*
X203350857Y-77078380D01*
X203493714Y-77126000D01*
X203541333Y-77173619D01*
X204398476Y-77411714D02*
X204398476Y-78078380D01*
X204160380Y-77030761D02*
X203922285Y-77745047D01*
X204541333Y-77745047D01*
D15*
%TO.C,S2*%
X216460000Y-129362200D02*
X216460000Y-129862200D01*
X210260000Y-129362200D02*
X210260000Y-128862200D01*
X210260000Y-126362200D02*
X209960000Y-126362200D01*
X213360000Y-132462200D02*
X212860000Y-132462200D01*
X210760000Y-126262200D02*
X210260000Y-126262200D01*
X213360000Y-126262200D02*
X212860000Y-126262200D01*
X210260000Y-129362200D02*
X210260000Y-129862200D01*
X213360000Y-132462200D02*
X213860000Y-132462200D01*
X209960000Y-126362200D02*
X208760000Y-126362200D01*
X216460000Y-129362200D02*
X216460000Y-128862200D01*
X210260000Y-126262200D02*
X210260000Y-126362200D01*
X213360000Y-126262200D02*
X213860000Y-126262200D01*
%TO.C,Q1*%
X222944000Y-107408800D02*
X223494000Y-107408800D01*
X227144000Y-107508800D02*
X227144000Y-107408800D01*
X222944000Y-109608800D02*
X222944000Y-108968800D01*
X222944000Y-109608800D02*
X223444000Y-109608800D01*
X222944000Y-108968800D02*
X222744000Y-108968800D01*
X226794000Y-109608800D02*
X227144000Y-109608800D01*
X227144000Y-107408800D02*
X226794000Y-107408800D01*
X227144000Y-109608800D02*
X227144000Y-109508800D01*
X222944000Y-107408800D02*
X222944000Y-107908800D01*
%TO.C,S1*%
X192180000Y-126362200D02*
X190980000Y-126362200D01*
X195580000Y-132462200D02*
X195080000Y-132462200D01*
X198680000Y-129362200D02*
X198680000Y-128862200D01*
X192480000Y-126262200D02*
X192480000Y-126362200D01*
X195580000Y-132462200D02*
X196080000Y-132462200D01*
X195580000Y-126262200D02*
X196080000Y-126262200D01*
X195580000Y-126262200D02*
X195080000Y-126262200D01*
X192480000Y-129362200D02*
X192480000Y-129862200D01*
X192480000Y-129362200D02*
X192480000Y-128862200D01*
X192480000Y-126362200D02*
X192180000Y-126362200D01*
X198680000Y-129362200D02*
X198680000Y-129862200D01*
X192980000Y-126262200D02*
X192480000Y-126262200D01*
D11*
%TO.C,J1*%
X183912200Y-83556800D02*
X183912200Y-86216800D01*
X224672200Y-86216800D02*
X223342200Y-86216800D01*
X224672200Y-84886800D02*
X224672200Y-86216800D01*
X222072200Y-83556800D02*
X183912200Y-83556800D01*
X222072200Y-83556800D02*
X222072200Y-86216800D01*
X222072200Y-86216800D02*
X183912200Y-86216800D01*
%TO.C,J2*%
X222072200Y-65896800D02*
X194072200Y-65896800D01*
X194072200Y-63236800D02*
X194072200Y-65896800D01*
X224672200Y-64566800D02*
X224672200Y-65896800D01*
X224672200Y-65896800D02*
X223342200Y-65896800D01*
X222072200Y-63236800D02*
X194072200Y-63236800D01*
X222072200Y-63236800D02*
X222072200Y-65896800D01*
%TO.C,D2*%
X200694000Y-91892000D02*
X200694000Y-89972000D01*
X200694000Y-89972000D02*
X198009000Y-89972000D01*
X198009000Y-91892000D02*
X200694000Y-91892000D01*
%TO.C,D4*%
X222665000Y-89972000D02*
X219980000Y-89972000D01*
X222665000Y-91892000D02*
X222665000Y-89972000D01*
X219980000Y-91892000D02*
X222665000Y-91892000D01*
%TO.C,R4*%
X182856200Y-123417064D02*
X182856200Y-122962936D01*
X184326200Y-123417064D02*
X184326200Y-122962936D01*
%TO.C,R8*%
X223801000Y-89381064D02*
X223801000Y-88926936D01*
X225271000Y-89381064D02*
X225271000Y-88926936D01*
D16*
%TO.C,G\u002A\u002A\u002A*%
X226517920Y-80497461D02*
X226523081Y-80493246D01*
X226523081Y-80493246D02*
X226531694Y-80494457D01*
X226531694Y-80494457D02*
X226538729Y-80496512D01*
X226538729Y-80496512D02*
X226617860Y-80513499D01*
X226617860Y-80513499D02*
X226691630Y-80515999D01*
X226691630Y-80515999D02*
X226762497Y-80503120D01*
X226762497Y-80503120D02*
X226832921Y-80473966D01*
X226832921Y-80473966D02*
X226905360Y-80427645D01*
X226905360Y-80427645D02*
X226982272Y-80363264D01*
X226982272Y-80363264D02*
X227028783Y-80318417D01*
X227028783Y-80318417D02*
X227130026Y-80204302D01*
X227130026Y-80204302D02*
X227225194Y-80072277D01*
X227225194Y-80072277D02*
X227313123Y-79925022D01*
X227313123Y-79925022D02*
X227392652Y-79765214D01*
X227392652Y-79765214D02*
X227462617Y-79595534D01*
X227462617Y-79595534D02*
X227521857Y-79418659D01*
X227521857Y-79418659D02*
X227569209Y-79237270D01*
X227569209Y-79237270D02*
X227603510Y-79054044D01*
X227603510Y-79054044D02*
X227614789Y-78968083D01*
X227614789Y-78968083D02*
X227629495Y-78795532D01*
X227629495Y-78795532D02*
X227632650Y-78639286D01*
X227632650Y-78639286D02*
X227624099Y-78497811D01*
X227624099Y-78497811D02*
X227603684Y-78369575D01*
X227603684Y-78369575D02*
X227571251Y-78253045D01*
X227571251Y-78253045D02*
X227532401Y-78158458D01*
X227532401Y-78158458D02*
X227481019Y-78068467D01*
X227481019Y-78068467D02*
X227422357Y-77998228D01*
X227422357Y-77998228D02*
X227355672Y-77947359D01*
X227355672Y-77947359D02*
X227280221Y-77915480D01*
X227280221Y-77915480D02*
X227195261Y-77902212D01*
X227195261Y-77902212D02*
X227100049Y-77907173D01*
X227100049Y-77907173D02*
X227056426Y-77914683D01*
X227056426Y-77914683D02*
X227015842Y-77922288D01*
X227015842Y-77922288D02*
X226983812Y-77927027D01*
X226983812Y-77927027D02*
X226965444Y-77928194D01*
X226965444Y-77928194D02*
X226963129Y-77927574D01*
X226963129Y-77927574D02*
X226965002Y-77916348D01*
X226965002Y-77916348D02*
X226974707Y-77891563D01*
X226974707Y-77891563D02*
X226990202Y-77858379D01*
X226990202Y-77858379D02*
X226991760Y-77855259D01*
X226991760Y-77855259D02*
X227060797Y-77733236D01*
X227060797Y-77733236D02*
X227139359Y-77622003D01*
X227139359Y-77622003D02*
X227225580Y-77523266D01*
X227225580Y-77523266D02*
X227317594Y-77438733D01*
X227317594Y-77438733D02*
X227413534Y-77370110D01*
X227413534Y-77370110D02*
X227511536Y-77319102D01*
X227511536Y-77319102D02*
X227609733Y-77287418D01*
X227609733Y-77287418D02*
X227613458Y-77286615D01*
X227613458Y-77286615D02*
X227714669Y-77275550D01*
X227714669Y-77275550D02*
X227819922Y-77283101D01*
X227819922Y-77283101D02*
X227925346Y-77308255D01*
X227925346Y-77308255D02*
X228027065Y-77349998D01*
X228027065Y-77349998D02*
X228121207Y-77407315D01*
X228121207Y-77407315D02*
X228145491Y-77425865D01*
X228145491Y-77425865D02*
X228223496Y-77501301D01*
X228223496Y-77501301D02*
X228293120Y-77595293D01*
X228293120Y-77595293D02*
X228353817Y-77706733D01*
X228353817Y-77706733D02*
X228405042Y-77834511D01*
X228405042Y-77834511D02*
X228446247Y-77977522D01*
X228446247Y-77977522D02*
X228467574Y-78079083D01*
X228467574Y-78079083D02*
X228474599Y-78125775D01*
X228474599Y-78125775D02*
X228480051Y-78181300D01*
X228480051Y-78181300D02*
X228484110Y-78248686D01*
X228484110Y-78248686D02*
X228486955Y-78330957D01*
X228486955Y-78330957D02*
X228488764Y-78431141D01*
X228488764Y-78431141D02*
X228488857Y-78438917D01*
X228488857Y-78438917D02*
X228489525Y-78513074D01*
X228489525Y-78513074D02*
X228489789Y-78582063D01*
X228489789Y-78582063D02*
X228489664Y-78642451D01*
X228489664Y-78642451D02*
X228489166Y-78690805D01*
X228489166Y-78690805D02*
X228488310Y-78723692D01*
X228488310Y-78723692D02*
X228487556Y-78735250D01*
X228487556Y-78735250D02*
X228471028Y-78869428D01*
X228471028Y-78869428D02*
X228454437Y-78986869D01*
X228454437Y-78986869D02*
X228437112Y-79091993D01*
X228437112Y-79091993D02*
X228419246Y-79185042D01*
X228419246Y-79185042D02*
X228372408Y-79388243D01*
X228372408Y-79388243D02*
X228316736Y-79587945D01*
X228316736Y-79587945D02*
X228252993Y-79782882D01*
X228252993Y-79782882D02*
X228181947Y-79971790D01*
X228181947Y-79971790D02*
X228104361Y-80153404D01*
X228104361Y-80153404D02*
X228021003Y-80326459D01*
X228021003Y-80326459D02*
X227932637Y-80489692D01*
X227932637Y-80489692D02*
X227840030Y-80641836D01*
X227840030Y-80641836D02*
X227743946Y-80781628D01*
X227743946Y-80781628D02*
X227645152Y-80907803D01*
X227645152Y-80907803D02*
X227544412Y-81019096D01*
X227544412Y-81019096D02*
X227442494Y-81114242D01*
X227442494Y-81114242D02*
X227340161Y-81191977D01*
X227340161Y-81191977D02*
X227238180Y-81251037D01*
X227238180Y-81251037D02*
X227146521Y-81287425D01*
X227146521Y-81287425D02*
X227076399Y-81301998D01*
X227076399Y-81301998D02*
X227000225Y-81306329D01*
X227000225Y-81306329D02*
X226925447Y-81300661D01*
X226925447Y-81300661D02*
X226859512Y-81285238D01*
X226859512Y-81285238D02*
X226839513Y-81277407D01*
X226839513Y-81277407D02*
X226768044Y-81236058D01*
X226768044Y-81236058D02*
X226706208Y-81179866D01*
X226706208Y-81179866D02*
X226653601Y-81107999D01*
X226653601Y-81107999D02*
X226609819Y-81019629D01*
X226609819Y-81019629D02*
X226574459Y-80913922D01*
X226574459Y-80913922D02*
X226547117Y-80790048D01*
X226547117Y-80790048D02*
X226527390Y-80647176D01*
X226527390Y-80647176D02*
X226525759Y-80631191D01*
X226525759Y-80631191D02*
X226520130Y-80573968D01*
X226520130Y-80573968D02*
X226516745Y-80534692D01*
X226516745Y-80534692D02*
X226515908Y-80510233D01*
X226515908Y-80510233D02*
X226517920Y-80497461D01*
X226517920Y-80497461D02*
X226517920Y-80497461D01*
G36*
X227819922Y-77283101D02*
G01*
X227925346Y-77308255D01*
X228027065Y-77349998D01*
X228121207Y-77407315D01*
X228145491Y-77425865D01*
X228223496Y-77501301D01*
X228293120Y-77595293D01*
X228353817Y-77706733D01*
X228405042Y-77834511D01*
X228446247Y-77977522D01*
X228467574Y-78079083D01*
X228474599Y-78125775D01*
X228480051Y-78181300D01*
X228484110Y-78248686D01*
X228486955Y-78330957D01*
X228488764Y-78431141D01*
X228488857Y-78438917D01*
X228489525Y-78513074D01*
X228489789Y-78582063D01*
X228489664Y-78642451D01*
X228489166Y-78690805D01*
X228488310Y-78723692D01*
X228487556Y-78735250D01*
X228471028Y-78869428D01*
X228454437Y-78986869D01*
X228437112Y-79091993D01*
X228419246Y-79185042D01*
X228372408Y-79388243D01*
X228316736Y-79587945D01*
X228252993Y-79782882D01*
X228181947Y-79971790D01*
X228104361Y-80153404D01*
X228021003Y-80326459D01*
X227932637Y-80489692D01*
X227840030Y-80641836D01*
X227743946Y-80781628D01*
X227645152Y-80907803D01*
X227544412Y-81019096D01*
X227442494Y-81114242D01*
X227340161Y-81191977D01*
X227238180Y-81251037D01*
X227146521Y-81287425D01*
X227076399Y-81301998D01*
X227000225Y-81306329D01*
X226925447Y-81300661D01*
X226859512Y-81285238D01*
X226839513Y-81277407D01*
X226768044Y-81236058D01*
X226706208Y-81179866D01*
X226653601Y-81107999D01*
X226609819Y-81019629D01*
X226574459Y-80913922D01*
X226547117Y-80790048D01*
X226527390Y-80647176D01*
X226525759Y-80631191D01*
X226520130Y-80573968D01*
X226516745Y-80534692D01*
X226515908Y-80510233D01*
X226517920Y-80497461D01*
X226523081Y-80493246D01*
X226531694Y-80494457D01*
X226538729Y-80496512D01*
X226617860Y-80513499D01*
X226691630Y-80515999D01*
X226762497Y-80503120D01*
X226832921Y-80473966D01*
X226905360Y-80427645D01*
X226982272Y-80363264D01*
X227028783Y-80318417D01*
X227130026Y-80204302D01*
X227225194Y-80072277D01*
X227313123Y-79925022D01*
X227392652Y-79765214D01*
X227462617Y-79595534D01*
X227521857Y-79418659D01*
X227569209Y-79237270D01*
X227603510Y-79054044D01*
X227614789Y-78968083D01*
X227629495Y-78795532D01*
X227632650Y-78639286D01*
X227624099Y-78497811D01*
X227603684Y-78369575D01*
X227571251Y-78253045D01*
X227532401Y-78158458D01*
X227481019Y-78068467D01*
X227422357Y-77998228D01*
X227355672Y-77947359D01*
X227280221Y-77915480D01*
X227195261Y-77902212D01*
X227100049Y-77907173D01*
X227056426Y-77914683D01*
X227015842Y-77922288D01*
X226983812Y-77927027D01*
X226965444Y-77928194D01*
X226963129Y-77927574D01*
X226965002Y-77916348D01*
X226974707Y-77891563D01*
X226990202Y-77858379D01*
X226991760Y-77855259D01*
X227060797Y-77733236D01*
X227139359Y-77622003D01*
X227225580Y-77523266D01*
X227317594Y-77438733D01*
X227413534Y-77370110D01*
X227511536Y-77319102D01*
X227609733Y-77287418D01*
X227613458Y-77286615D01*
X227714669Y-77275550D01*
X227819922Y-77283101D01*
G37*
X227819922Y-77283101D02*
X227925346Y-77308255D01*
X228027065Y-77349998D01*
X228121207Y-77407315D01*
X228145491Y-77425865D01*
X228223496Y-77501301D01*
X228293120Y-77595293D01*
X228353817Y-77706733D01*
X228405042Y-77834511D01*
X228446247Y-77977522D01*
X228467574Y-78079083D01*
X228474599Y-78125775D01*
X228480051Y-78181300D01*
X228484110Y-78248686D01*
X228486955Y-78330957D01*
X228488764Y-78431141D01*
X228488857Y-78438917D01*
X228489525Y-78513074D01*
X228489789Y-78582063D01*
X228489664Y-78642451D01*
X228489166Y-78690805D01*
X228488310Y-78723692D01*
X228487556Y-78735250D01*
X228471028Y-78869428D01*
X228454437Y-78986869D01*
X228437112Y-79091993D01*
X228419246Y-79185042D01*
X228372408Y-79388243D01*
X228316736Y-79587945D01*
X228252993Y-79782882D01*
X228181947Y-79971790D01*
X228104361Y-80153404D01*
X228021003Y-80326459D01*
X227932637Y-80489692D01*
X227840030Y-80641836D01*
X227743946Y-80781628D01*
X227645152Y-80907803D01*
X227544412Y-81019096D01*
X227442494Y-81114242D01*
X227340161Y-81191977D01*
X227238180Y-81251037D01*
X227146521Y-81287425D01*
X227076399Y-81301998D01*
X227000225Y-81306329D01*
X226925447Y-81300661D01*
X226859512Y-81285238D01*
X226839513Y-81277407D01*
X226768044Y-81236058D01*
X226706208Y-81179866D01*
X226653601Y-81107999D01*
X226609819Y-81019629D01*
X226574459Y-80913922D01*
X226547117Y-80790048D01*
X226527390Y-80647176D01*
X226525759Y-80631191D01*
X226520130Y-80573968D01*
X226516745Y-80534692D01*
X226515908Y-80510233D01*
X226517920Y-80497461D01*
X226523081Y-80493246D01*
X226531694Y-80494457D01*
X226538729Y-80496512D01*
X226617860Y-80513499D01*
X226691630Y-80515999D01*
X226762497Y-80503120D01*
X226832921Y-80473966D01*
X226905360Y-80427645D01*
X226982272Y-80363264D01*
X227028783Y-80318417D01*
X227130026Y-80204302D01*
X227225194Y-80072277D01*
X227313123Y-79925022D01*
X227392652Y-79765214D01*
X227462617Y-79595534D01*
X227521857Y-79418659D01*
X227569209Y-79237270D01*
X227603510Y-79054044D01*
X227614789Y-78968083D01*
X227629495Y-78795532D01*
X227632650Y-78639286D01*
X227624099Y-78497811D01*
X227603684Y-78369575D01*
X227571251Y-78253045D01*
X227532401Y-78158458D01*
X227481019Y-78068467D01*
X227422357Y-77998228D01*
X227355672Y-77947359D01*
X227280221Y-77915480D01*
X227195261Y-77902212D01*
X227100049Y-77907173D01*
X227056426Y-77914683D01*
X227015842Y-77922288D01*
X226983812Y-77927027D01*
X226965444Y-77928194D01*
X226963129Y-77927574D01*
X226965002Y-77916348D01*
X226974707Y-77891563D01*
X226990202Y-77858379D01*
X226991760Y-77855259D01*
X227060797Y-77733236D01*
X227139359Y-77622003D01*
X227225580Y-77523266D01*
X227317594Y-77438733D01*
X227413534Y-77370110D01*
X227511536Y-77319102D01*
X227609733Y-77287418D01*
X227613458Y-77286615D01*
X227714669Y-77275550D01*
X227819922Y-77283101D01*
X226578417Y-68681083D02*
X226578417Y-68353000D01*
X226578417Y-68353000D02*
X226885333Y-68353000D01*
X226885333Y-68353000D02*
X226885333Y-68681083D01*
X226885333Y-68681083D02*
X227133544Y-68681083D01*
X227133544Y-68681083D02*
X227228753Y-68680518D01*
X227228753Y-68680518D02*
X227304546Y-68678837D01*
X227304546Y-68678837D02*
X227360454Y-68676059D01*
X227360454Y-68676059D02*
X227396005Y-68672206D01*
X227396005Y-68672206D02*
X227408200Y-68669034D01*
X227408200Y-68669034D02*
X227438462Y-68645402D01*
X227438462Y-68645402D02*
X227457346Y-68606588D01*
X227457346Y-68606588D02*
X227465238Y-68551401D01*
X227465238Y-68551401D02*
X227464045Y-68496667D01*
X227464045Y-68496667D02*
X227460276Y-68453139D01*
X227460276Y-68453139D02*
X227455848Y-68415340D01*
X227455848Y-68415340D02*
X227451605Y-68390271D01*
X227451605Y-68390271D02*
X227450851Y-68387396D01*
X227450851Y-68387396D02*
X227443781Y-68363583D01*
X227443781Y-68363583D02*
X227740829Y-68363583D01*
X227740829Y-68363583D02*
X227753664Y-68419146D01*
X227753664Y-68419146D02*
X227761842Y-68467879D01*
X227761842Y-68467879D02*
X227767429Y-68528313D01*
X227767429Y-68528313D02*
X227770346Y-68594480D01*
X227770346Y-68594480D02*
X227770511Y-68660416D01*
X227770511Y-68660416D02*
X227767845Y-68720154D01*
X227767845Y-68720154D02*
X227762266Y-68767728D01*
X227762266Y-68767728D02*
X227758593Y-68784264D01*
X227758593Y-68784264D02*
X227734059Y-68854523D01*
X227734059Y-68854523D02*
X227702680Y-68910100D01*
X227702680Y-68910100D02*
X227660786Y-68957237D01*
X227660786Y-68957237D02*
X227652480Y-68964750D01*
X227652480Y-68964750D02*
X227627426Y-68986011D01*
X227627426Y-68986011D02*
X227603880Y-69003145D01*
X227603880Y-69003145D02*
X227579219Y-69016632D01*
X227579219Y-69016632D02*
X227550822Y-69026957D01*
X227550822Y-69026957D02*
X227516067Y-69034602D01*
X227516067Y-69034602D02*
X227472330Y-69040050D01*
X227472330Y-69040050D02*
X227416990Y-69043783D01*
X227416990Y-69043783D02*
X227347424Y-69046285D01*
X227347424Y-69046285D02*
X227261010Y-69048038D01*
X227261010Y-69048038D02*
X227194896Y-69049000D01*
X227194896Y-69049000D02*
X226885333Y-69053177D01*
X226885333Y-69053177D02*
X226885333Y-69284333D01*
X226885333Y-69284333D02*
X226578417Y-69284333D01*
X226578417Y-69284333D02*
X226578417Y-69051500D01*
X226578417Y-69051500D02*
X226275212Y-69051500D01*
X226275212Y-69051500D02*
X226240855Y-68890104D01*
X226240855Y-68890104D02*
X226228572Y-68832584D01*
X226228572Y-68832584D02*
X226217463Y-68780898D01*
X226217463Y-68780898D02*
X226208443Y-68739280D01*
X226208443Y-68739280D02*
X226202429Y-68711968D01*
X226202429Y-68711968D02*
X226200810Y-68704896D01*
X226200810Y-68704896D02*
X226195122Y-68681083D01*
X226195122Y-68681083D02*
X226578417Y-68681083D01*
X226578417Y-68681083D02*
X226578417Y-68681083D01*
G36*
X226885333Y-68681083D02*
G01*
X227133544Y-68681083D01*
X227228753Y-68680518D01*
X227304546Y-68678837D01*
X227360454Y-68676059D01*
X227396005Y-68672206D01*
X227408200Y-68669034D01*
X227438462Y-68645402D01*
X227457346Y-68606588D01*
X227465238Y-68551401D01*
X227464045Y-68496667D01*
X227460276Y-68453139D01*
X227455848Y-68415340D01*
X227451605Y-68390271D01*
X227450851Y-68387396D01*
X227443781Y-68363583D01*
X227740829Y-68363583D01*
X227753664Y-68419146D01*
X227761842Y-68467879D01*
X227767429Y-68528313D01*
X227770346Y-68594480D01*
X227770511Y-68660416D01*
X227767845Y-68720154D01*
X227762266Y-68767728D01*
X227758593Y-68784264D01*
X227734059Y-68854523D01*
X227702680Y-68910100D01*
X227660786Y-68957237D01*
X227652480Y-68964750D01*
X227627426Y-68986011D01*
X227603880Y-69003145D01*
X227579219Y-69016632D01*
X227550822Y-69026957D01*
X227516067Y-69034602D01*
X227472330Y-69040050D01*
X227416990Y-69043783D01*
X227347424Y-69046285D01*
X227261010Y-69048038D01*
X227194896Y-69049000D01*
X226885333Y-69053177D01*
X226885333Y-69284333D01*
X226578417Y-69284333D01*
X226578417Y-69051500D01*
X226275212Y-69051500D01*
X226240855Y-68890104D01*
X226228572Y-68832584D01*
X226217463Y-68780898D01*
X226208443Y-68739280D01*
X226202429Y-68711968D01*
X226200810Y-68704896D01*
X226195122Y-68681083D01*
X226578417Y-68681083D01*
X226578417Y-68353000D01*
X226885333Y-68353000D01*
X226885333Y-68681083D01*
G37*
X226885333Y-68681083D02*
X227133544Y-68681083D01*
X227228753Y-68680518D01*
X227304546Y-68678837D01*
X227360454Y-68676059D01*
X227396005Y-68672206D01*
X227408200Y-68669034D01*
X227438462Y-68645402D01*
X227457346Y-68606588D01*
X227465238Y-68551401D01*
X227464045Y-68496667D01*
X227460276Y-68453139D01*
X227455848Y-68415340D01*
X227451605Y-68390271D01*
X227450851Y-68387396D01*
X227443781Y-68363583D01*
X227740829Y-68363583D01*
X227753664Y-68419146D01*
X227761842Y-68467879D01*
X227767429Y-68528313D01*
X227770346Y-68594480D01*
X227770511Y-68660416D01*
X227767845Y-68720154D01*
X227762266Y-68767728D01*
X227758593Y-68784264D01*
X227734059Y-68854523D01*
X227702680Y-68910100D01*
X227660786Y-68957237D01*
X227652480Y-68964750D01*
X227627426Y-68986011D01*
X227603880Y-69003145D01*
X227579219Y-69016632D01*
X227550822Y-69026957D01*
X227516067Y-69034602D01*
X227472330Y-69040050D01*
X227416990Y-69043783D01*
X227347424Y-69046285D01*
X227261010Y-69048038D01*
X227194896Y-69049000D01*
X226885333Y-69053177D01*
X226885333Y-69284333D01*
X226578417Y-69284333D01*
X226578417Y-69051500D01*
X226275212Y-69051500D01*
X226240855Y-68890104D01*
X226228572Y-68832584D01*
X226217463Y-68780898D01*
X226208443Y-68739280D01*
X226202429Y-68711968D01*
X226200810Y-68704896D01*
X226195122Y-68681083D01*
X226578417Y-68681083D01*
X226578417Y-68353000D01*
X226885333Y-68353000D01*
X226885333Y-68681083D01*
X226197417Y-70607250D02*
X227763750Y-70607250D01*
X227763750Y-70607250D02*
X227763750Y-70988250D01*
X227763750Y-70988250D02*
X227149917Y-70988250D01*
X227149917Y-70988250D02*
X227149917Y-71622926D01*
X227149917Y-71622926D02*
X227454187Y-71625734D01*
X227454187Y-71625734D02*
X227758458Y-71628542D01*
X227758458Y-71628542D02*
X227761343Y-71821688D01*
X227761343Y-71821688D02*
X227764227Y-72014833D01*
X227764227Y-72014833D02*
X226197417Y-72014833D01*
X226197417Y-72014833D02*
X226197417Y-71623250D01*
X226197417Y-71623250D02*
X226800981Y-71623250D01*
X226800981Y-71623250D02*
X226795375Y-70993542D01*
X226795375Y-70993542D02*
X226496396Y-70990731D01*
X226496396Y-70990731D02*
X226197416Y-70987921D01*
X226197416Y-70987921D02*
X226197416Y-70797585D01*
X226197416Y-70797585D02*
X226197417Y-70607250D01*
X226197417Y-70607250D02*
X226197417Y-70607250D01*
G36*
X227763750Y-70988250D02*
G01*
X227149917Y-70988250D01*
X227149917Y-71622926D01*
X227454187Y-71625734D01*
X227758458Y-71628542D01*
X227761343Y-71821688D01*
X227764227Y-72014833D01*
X226197417Y-72014833D01*
X226197417Y-71623250D01*
X226800981Y-71623250D01*
X226795375Y-70993542D01*
X226496396Y-70990731D01*
X226197416Y-70987921D01*
X226197416Y-70797585D01*
X226197417Y-70607250D01*
X227763750Y-70607250D01*
X227763750Y-70988250D01*
G37*
X227763750Y-70988250D02*
X227149917Y-70988250D01*
X227149917Y-71622926D01*
X227454187Y-71625734D01*
X227758458Y-71628542D01*
X227761343Y-71821688D01*
X227764227Y-72014833D01*
X226197417Y-72014833D01*
X226197417Y-71623250D01*
X226800981Y-71623250D01*
X226795375Y-70993542D01*
X226496396Y-70990731D01*
X226197416Y-70987921D01*
X226197416Y-70797585D01*
X226197417Y-70607250D01*
X227763750Y-70607250D01*
X227763750Y-70988250D01*
X226562005Y-74475452D02*
X226582795Y-74368334D01*
X226582795Y-74368334D02*
X226622156Y-74268796D01*
X226622156Y-74268796D02*
X226679109Y-74178757D01*
X226679109Y-74178757D02*
X226752675Y-74100133D01*
X226752675Y-74100133D02*
X226841873Y-74034842D01*
X226841873Y-74034842D02*
X226844417Y-74033324D01*
X226844417Y-74033324D02*
X226914821Y-73996453D01*
X226914821Y-73996453D02*
X226985493Y-73970560D01*
X226985493Y-73970560D02*
X227062721Y-73953932D01*
X227062721Y-73953932D02*
X227152794Y-73944861D01*
X227152794Y-73944861D02*
X227173729Y-73943765D01*
X227173729Y-73943765D02*
X227298083Y-73938095D01*
X227298083Y-73938095D02*
X227298083Y-74777828D01*
X227298083Y-74777828D02*
X227320186Y-74765999D01*
X227320186Y-74765999D02*
X227365561Y-74733341D01*
X227365561Y-74733341D02*
X227408481Y-74687954D01*
X227408481Y-74687954D02*
X227441760Y-74637737D01*
X227441760Y-74637737D02*
X227447362Y-74626183D01*
X227447362Y-74626183D02*
X227468000Y-74557971D01*
X227468000Y-74557971D02*
X227474216Y-74483021D01*
X227474216Y-74483021D02*
X227466101Y-74408839D01*
X227466101Y-74408839D02*
X227443867Y-74343167D01*
X227443867Y-74343167D02*
X227426322Y-74309049D01*
X227426322Y-74309049D02*
X227410695Y-74280883D01*
X227410695Y-74280883D02*
X227402501Y-74267873D01*
X227402501Y-74267873D02*
X227399516Y-74258955D01*
X227399516Y-74258955D02*
X227403197Y-74246149D01*
X227403197Y-74246149D02*
X227415282Y-74226909D01*
X227415282Y-74226909D02*
X227437506Y-74198693D01*
X227437506Y-74198693D02*
X227471607Y-74158957D01*
X227471607Y-74158957D02*
X227494834Y-74132645D01*
X227494834Y-74132645D02*
X227599708Y-74014503D01*
X227599708Y-74014503D02*
X227633862Y-74054481D01*
X227633862Y-74054481D02*
X227665106Y-74097808D01*
X227665106Y-74097808D02*
X227697606Y-74154056D01*
X227697606Y-74154056D02*
X227727499Y-74215607D01*
X227727499Y-74215607D02*
X227750916Y-74274844D01*
X227750916Y-74274844D02*
X227758887Y-74300833D01*
X227758887Y-74300833D02*
X227770769Y-74362240D01*
X227770769Y-74362240D02*
X227777992Y-74435703D01*
X227777992Y-74435703D02*
X227780345Y-74513323D01*
X227780345Y-74513323D02*
X227777616Y-74587200D01*
X227777616Y-74587200D02*
X227769596Y-74649435D01*
X227769596Y-74649435D02*
X227768350Y-74655375D01*
X227768350Y-74655375D02*
X227736405Y-74758531D01*
X227736405Y-74758531D02*
X227688556Y-74855358D01*
X227688556Y-74855358D02*
X227627355Y-74941831D01*
X227627355Y-74941831D02*
X227555355Y-75013926D01*
X227555355Y-75013926D02*
X227527111Y-75035709D01*
X227527111Y-75035709D02*
X227430484Y-75092898D01*
X227430484Y-75092898D02*
X227330263Y-75130685D01*
X227330263Y-75130685D02*
X227228436Y-75149989D01*
X227228436Y-75149989D02*
X227126988Y-75151731D01*
X227126988Y-75151731D02*
X227027906Y-75136830D01*
X227027906Y-75136830D02*
X227012626Y-75131891D01*
X227012626Y-75131891D02*
X227012626Y-74775481D01*
X227012626Y-74775481D02*
X227021961Y-74769277D01*
X227021961Y-74769277D02*
X227027997Y-74751208D01*
X227027997Y-74751208D02*
X227031452Y-74719346D01*
X227031452Y-74719346D02*
X227033043Y-74671762D01*
X227033043Y-74671762D02*
X227033488Y-74606526D01*
X227033488Y-74606526D02*
X227033500Y-74538281D01*
X227033500Y-74538281D02*
X227033500Y-74299479D01*
X227033500Y-74299479D02*
X226989805Y-74323969D01*
X226989805Y-74323969D02*
X226932648Y-74366805D01*
X226932648Y-74366805D02*
X226891487Y-74420086D01*
X226891487Y-74420086D02*
X226866586Y-74480369D01*
X226866586Y-74480369D02*
X226858209Y-74544215D01*
X226858209Y-74544215D02*
X226866622Y-74608182D01*
X226866622Y-74608182D02*
X226892089Y-74668832D01*
X226892089Y-74668832D02*
X226934874Y-74722722D01*
X226934874Y-74722722D02*
X226957654Y-74742195D01*
X226957654Y-74742195D02*
X226981190Y-74760012D01*
X226981190Y-74760012D02*
X226999275Y-74771750D01*
X226999275Y-74771750D02*
X227012626Y-74775481D01*
X227012626Y-74775481D02*
X227012626Y-75131891D01*
X227012626Y-75131891D02*
X226933176Y-75106206D01*
X226933176Y-75106206D02*
X226844785Y-75060779D01*
X226844785Y-75060779D02*
X226764719Y-75001469D01*
X226764719Y-75001469D02*
X226694965Y-74929195D01*
X226694965Y-74929195D02*
X226637508Y-74844877D01*
X226637508Y-74844877D02*
X226594337Y-74749436D01*
X226594337Y-74749436D02*
X226567436Y-74643791D01*
X226567436Y-74643791D02*
X226560769Y-74588233D01*
X226560769Y-74588233D02*
X226562005Y-74475452D01*
X226562005Y-74475452D02*
X226562005Y-74475452D01*
G36*
X226844785Y-75060779D02*
G01*
X226764719Y-75001469D01*
X226694965Y-74929195D01*
X226637508Y-74844877D01*
X226594337Y-74749436D01*
X226567436Y-74643791D01*
X226560769Y-74588233D01*
X226561251Y-74544215D01*
X226858209Y-74544215D01*
X226866622Y-74608182D01*
X226892089Y-74668832D01*
X226934874Y-74722722D01*
X226957654Y-74742195D01*
X226981190Y-74760012D01*
X226999275Y-74771750D01*
X227012626Y-74775481D01*
X227021961Y-74769277D01*
X227027997Y-74751208D01*
X227031452Y-74719346D01*
X227033043Y-74671762D01*
X227033488Y-74606526D01*
X227033500Y-74538281D01*
X227033500Y-74299479D01*
X226989805Y-74323969D01*
X226932648Y-74366805D01*
X226891487Y-74420086D01*
X226866586Y-74480369D01*
X226858209Y-74544215D01*
X226561251Y-74544215D01*
X226562005Y-74475452D01*
X226582795Y-74368334D01*
X226622156Y-74268796D01*
X226679109Y-74178757D01*
X226752675Y-74100133D01*
X226841873Y-74034842D01*
X226844417Y-74033324D01*
X226914821Y-73996453D01*
X226985493Y-73970560D01*
X227062721Y-73953932D01*
X227152794Y-73944861D01*
X227173729Y-73943765D01*
X227298083Y-73938095D01*
X227298083Y-74777828D01*
X227320186Y-74765999D01*
X227365561Y-74733341D01*
X227408481Y-74687954D01*
X227441760Y-74637737D01*
X227447362Y-74626183D01*
X227468000Y-74557971D01*
X227474216Y-74483021D01*
X227466101Y-74408839D01*
X227443867Y-74343167D01*
X227426322Y-74309049D01*
X227410695Y-74280883D01*
X227402501Y-74267873D01*
X227399516Y-74258955D01*
X227403197Y-74246149D01*
X227415282Y-74226909D01*
X227437506Y-74198693D01*
X227471607Y-74158957D01*
X227494834Y-74132645D01*
X227599708Y-74014503D01*
X227633862Y-74054481D01*
X227665106Y-74097808D01*
X227697606Y-74154056D01*
X227727499Y-74215607D01*
X227750916Y-74274844D01*
X227758887Y-74300833D01*
X227770769Y-74362240D01*
X227777992Y-74435703D01*
X227780345Y-74513323D01*
X227777616Y-74587200D01*
X227769596Y-74649435D01*
X227768350Y-74655375D01*
X227736405Y-74758531D01*
X227688556Y-74855358D01*
X227627355Y-74941831D01*
X227555355Y-75013926D01*
X227527111Y-75035709D01*
X227430484Y-75092898D01*
X227330263Y-75130685D01*
X227228436Y-75149989D01*
X227126988Y-75151731D01*
X227027906Y-75136830D01*
X227012626Y-75131891D01*
X226933176Y-75106206D01*
X226844785Y-75060779D01*
G37*
X226844785Y-75060779D02*
X226764719Y-75001469D01*
X226694965Y-74929195D01*
X226637508Y-74844877D01*
X226594337Y-74749436D01*
X226567436Y-74643791D01*
X226560769Y-74588233D01*
X226561251Y-74544215D01*
X226858209Y-74544215D01*
X226866622Y-74608182D01*
X226892089Y-74668832D01*
X226934874Y-74722722D01*
X226957654Y-74742195D01*
X226981190Y-74760012D01*
X226999275Y-74771750D01*
X227012626Y-74775481D01*
X227021961Y-74769277D01*
X227027997Y-74751208D01*
X227031452Y-74719346D01*
X227033043Y-74671762D01*
X227033488Y-74606526D01*
X227033500Y-74538281D01*
X227033500Y-74299479D01*
X226989805Y-74323969D01*
X226932648Y-74366805D01*
X226891487Y-74420086D01*
X226866586Y-74480369D01*
X226858209Y-74544215D01*
X226561251Y-74544215D01*
X226562005Y-74475452D01*
X226582795Y-74368334D01*
X226622156Y-74268796D01*
X226679109Y-74178757D01*
X226752675Y-74100133D01*
X226841873Y-74034842D01*
X226844417Y-74033324D01*
X226914821Y-73996453D01*
X226985493Y-73970560D01*
X227062721Y-73953932D01*
X227152794Y-73944861D01*
X227173729Y-73943765D01*
X227298083Y-73938095D01*
X227298083Y-74777828D01*
X227320186Y-74765999D01*
X227365561Y-74733341D01*
X227408481Y-74687954D01*
X227441760Y-74637737D01*
X227447362Y-74626183D01*
X227468000Y-74557971D01*
X227474216Y-74483021D01*
X227466101Y-74408839D01*
X227443867Y-74343167D01*
X227426322Y-74309049D01*
X227410695Y-74280883D01*
X227402501Y-74267873D01*
X227399516Y-74258955D01*
X227403197Y-74246149D01*
X227415282Y-74226909D01*
X227437506Y-74198693D01*
X227471607Y-74158957D01*
X227494834Y-74132645D01*
X227599708Y-74014503D01*
X227633862Y-74054481D01*
X227665106Y-74097808D01*
X227697606Y-74154056D01*
X227727499Y-74215607D01*
X227750916Y-74274844D01*
X227758887Y-74300833D01*
X227770769Y-74362240D01*
X227777992Y-74435703D01*
X227780345Y-74513323D01*
X227777616Y-74587200D01*
X227769596Y-74649435D01*
X227768350Y-74655375D01*
X227736405Y-74758531D01*
X227688556Y-74855358D01*
X227627355Y-74941831D01*
X227555355Y-75013926D01*
X227527111Y-75035709D01*
X227430484Y-75092898D01*
X227330263Y-75130685D01*
X227228436Y-75149989D01*
X227126988Y-75151731D01*
X227027906Y-75136830D01*
X227012626Y-75131891D01*
X226933176Y-75106206D01*
X226844785Y-75060779D01*
X226133790Y-72562731D02*
X226164659Y-72560977D01*
X226164659Y-72560977D02*
X226215185Y-72559415D01*
X226215185Y-72559415D02*
X226284613Y-72558054D01*
X226284613Y-72558054D02*
X226372190Y-72556904D01*
X226372190Y-72556904D02*
X226477160Y-72555975D01*
X226477160Y-72555975D02*
X226598769Y-72555274D01*
X226598769Y-72555274D02*
X226736264Y-72554812D01*
X226736264Y-72554812D02*
X226888888Y-72554598D01*
X226888888Y-72554598D02*
X226943542Y-72554583D01*
X226943542Y-72554583D02*
X227763750Y-72554583D01*
X227763750Y-72554583D02*
X227763750Y-72914417D01*
X227763750Y-72914417D02*
X227681119Y-72914417D01*
X227681119Y-72914417D02*
X227711374Y-72970276D01*
X227711374Y-72970276D02*
X227745808Y-73052958D01*
X227745808Y-73052958D02*
X227767090Y-73145976D01*
X227767090Y-73145976D02*
X227774433Y-73242485D01*
X227774433Y-73242485D02*
X227767052Y-73335642D01*
X227767052Y-73335642D02*
X227758097Y-73376975D01*
X227758097Y-73376975D02*
X227738978Y-73439211D01*
X227738978Y-73439211D02*
X227716499Y-73491554D01*
X227716499Y-73491554D02*
X227685891Y-73544357D01*
X227685891Y-73544357D02*
X227669811Y-73568653D01*
X227669811Y-73568653D02*
X227599343Y-73654451D01*
X227599343Y-73654451D02*
X227516376Y-73723515D01*
X227516376Y-73723515D02*
X227422172Y-73775198D01*
X227422172Y-73775198D02*
X227317990Y-73808851D01*
X227317990Y-73808851D02*
X227205092Y-73823826D01*
X227205092Y-73823826D02*
X227172192Y-73824583D01*
X227172192Y-73824583D02*
X227164229Y-73824054D01*
X227164229Y-73824054D02*
X227164229Y-73466073D01*
X227164229Y-73466073D02*
X227242443Y-73456680D01*
X227242443Y-73456680D02*
X227311094Y-73430011D01*
X227311094Y-73430011D02*
X227368753Y-73388334D01*
X227368753Y-73388334D02*
X227413989Y-73333917D01*
X227413989Y-73333917D02*
X227445372Y-73269025D01*
X227445372Y-73269025D02*
X227461471Y-73195926D01*
X227461471Y-73195926D02*
X227460855Y-73116887D01*
X227460855Y-73116887D02*
X227442096Y-73034175D01*
X227442096Y-73034175D02*
X227440199Y-73028681D01*
X227440199Y-73028681D02*
X227423300Y-72990946D01*
X227423300Y-72990946D02*
X227401722Y-72954805D01*
X227401722Y-72954805D02*
X227397879Y-72949539D01*
X227397879Y-72949539D02*
X227371089Y-72914417D01*
X227371089Y-72914417D02*
X226959717Y-72914417D01*
X226959717Y-72914417D02*
X226933869Y-72954104D01*
X226933869Y-72954104D02*
X226895953Y-73031025D01*
X226895953Y-73031025D02*
X226877804Y-73115203D01*
X226877804Y-73115203D02*
X226877005Y-73182090D01*
X226877005Y-73182090D02*
X226891318Y-73263877D01*
X226891318Y-73263877D02*
X226921801Y-73334012D01*
X226921801Y-73334012D02*
X226966834Y-73390892D01*
X226966834Y-73390892D02*
X227024793Y-73432913D01*
X227024793Y-73432913D02*
X227094058Y-73458471D01*
X227094058Y-73458471D02*
X227164229Y-73466073D01*
X227164229Y-73466073D02*
X227164229Y-73824054D01*
X227164229Y-73824054D02*
X227061559Y-73817231D01*
X227061559Y-73817231D02*
X226963448Y-73794355D01*
X226963448Y-73794355D02*
X226874771Y-73754729D01*
X226874771Y-73754729D02*
X226792438Y-73697123D01*
X226792438Y-73697123D02*
X226746922Y-73655533D01*
X226746922Y-73655533D02*
X226674434Y-73572242D01*
X226674434Y-73572242D02*
X226621471Y-73484452D01*
X226621471Y-73484452D02*
X226586426Y-73388874D01*
X226586426Y-73388874D02*
X226568550Y-73290515D01*
X226568550Y-73290515D02*
X226565314Y-73184211D01*
X226565314Y-73184211D02*
X226579532Y-73078426D01*
X226579532Y-73078426D02*
X226611883Y-72968931D01*
X226611883Y-72968931D02*
X226625961Y-72932938D01*
X226625961Y-72932938D02*
X226627272Y-72926712D01*
X226627272Y-72926712D02*
X226623647Y-72922059D01*
X226623647Y-72922059D02*
X226612518Y-72918750D01*
X226612518Y-72918750D02*
X226591315Y-72916559D01*
X226591315Y-72916559D02*
X226557470Y-72915259D01*
X226557470Y-72915259D02*
X226508412Y-72914623D01*
X226508412Y-72914623D02*
X226441572Y-72914425D01*
X226441572Y-72914425D02*
X226416220Y-72914417D01*
X226416220Y-72914417D02*
X226342759Y-72914281D01*
X226342759Y-72914281D02*
X226287736Y-72913721D01*
X226287736Y-72913721D02*
X226248424Y-72912510D01*
X226248424Y-72912510D02*
X226222095Y-72910422D01*
X226222095Y-72910422D02*
X226206024Y-72907231D01*
X226206024Y-72907231D02*
X226197481Y-72902708D01*
X226197481Y-72902708D02*
X226193740Y-72896627D01*
X226193740Y-72896627D02*
X226193517Y-72895896D01*
X226193517Y-72895896D02*
X226188798Y-72876855D01*
X226188798Y-72876855D02*
X226181117Y-72843028D01*
X226181117Y-72843028D02*
X226171414Y-72798850D01*
X226171414Y-72798850D02*
X226160628Y-72748754D01*
X226160628Y-72748754D02*
X226149699Y-72697172D01*
X226149699Y-72697172D02*
X226139565Y-72648538D01*
X226139565Y-72648538D02*
X226131167Y-72607286D01*
X226131167Y-72607286D02*
X226125443Y-72577849D01*
X226125443Y-72577849D02*
X226123333Y-72564668D01*
X226123333Y-72564668D02*
X226133790Y-72562731D01*
X226133790Y-72562731D02*
X226133790Y-72562731D01*
G36*
X226963448Y-73794355D02*
G01*
X226874771Y-73754729D01*
X226792438Y-73697123D01*
X226746922Y-73655533D01*
X226674434Y-73572242D01*
X226621471Y-73484452D01*
X226586426Y-73388874D01*
X226568550Y-73290515D01*
X226565314Y-73184211D01*
X226565599Y-73182090D01*
X226877005Y-73182090D01*
X226891318Y-73263877D01*
X226921801Y-73334012D01*
X226966834Y-73390892D01*
X227024793Y-73432913D01*
X227094058Y-73458471D01*
X227164229Y-73466073D01*
X227242443Y-73456680D01*
X227311094Y-73430011D01*
X227368753Y-73388334D01*
X227413989Y-73333917D01*
X227445372Y-73269025D01*
X227461471Y-73195926D01*
X227460855Y-73116887D01*
X227442096Y-73034175D01*
X227440199Y-73028681D01*
X227423300Y-72990946D01*
X227401722Y-72954805D01*
X227397879Y-72949539D01*
X227371089Y-72914417D01*
X226959717Y-72914417D01*
X226933869Y-72954104D01*
X226895953Y-73031025D01*
X226877804Y-73115203D01*
X226877005Y-73182090D01*
X226565599Y-73182090D01*
X226579532Y-73078426D01*
X226611883Y-72968931D01*
X226625961Y-72932938D01*
X226627272Y-72926712D01*
X226623647Y-72922059D01*
X226612518Y-72918750D01*
X226591315Y-72916559D01*
X226557470Y-72915259D01*
X226508412Y-72914623D01*
X226441572Y-72914425D01*
X226416220Y-72914417D01*
X226342759Y-72914281D01*
X226287736Y-72913721D01*
X226248424Y-72912510D01*
X226222095Y-72910422D01*
X226206024Y-72907231D01*
X226197481Y-72902708D01*
X226193740Y-72896627D01*
X226193517Y-72895896D01*
X226188798Y-72876855D01*
X226181117Y-72843028D01*
X226171414Y-72798850D01*
X226160628Y-72748754D01*
X226149699Y-72697172D01*
X226139565Y-72648538D01*
X226131167Y-72607286D01*
X226125443Y-72577849D01*
X226123333Y-72564668D01*
X226133790Y-72562731D01*
X226164659Y-72560977D01*
X226215185Y-72559415D01*
X226284613Y-72558054D01*
X226372190Y-72556904D01*
X226477160Y-72555975D01*
X226598769Y-72555274D01*
X226736264Y-72554812D01*
X226888888Y-72554598D01*
X226943542Y-72554583D01*
X227763750Y-72554583D01*
X227763750Y-72914417D01*
X227681119Y-72914417D01*
X227711374Y-72970276D01*
X227745808Y-73052958D01*
X227767090Y-73145976D01*
X227774433Y-73242485D01*
X227767052Y-73335642D01*
X227758097Y-73376975D01*
X227738978Y-73439211D01*
X227716499Y-73491554D01*
X227685891Y-73544357D01*
X227669811Y-73568653D01*
X227599343Y-73654451D01*
X227516376Y-73723515D01*
X227422172Y-73775198D01*
X227317990Y-73808851D01*
X227205092Y-73823826D01*
X227172192Y-73824583D01*
X227164229Y-73824054D01*
X227061559Y-73817231D01*
X226963448Y-73794355D01*
G37*
X226963448Y-73794355D02*
X226874771Y-73754729D01*
X226792438Y-73697123D01*
X226746922Y-73655533D01*
X226674434Y-73572242D01*
X226621471Y-73484452D01*
X226586426Y-73388874D01*
X226568550Y-73290515D01*
X226565314Y-73184211D01*
X226565599Y-73182090D01*
X226877005Y-73182090D01*
X226891318Y-73263877D01*
X226921801Y-73334012D01*
X226966834Y-73390892D01*
X227024793Y-73432913D01*
X227094058Y-73458471D01*
X227164229Y-73466073D01*
X227242443Y-73456680D01*
X227311094Y-73430011D01*
X227368753Y-73388334D01*
X227413989Y-73333917D01*
X227445372Y-73269025D01*
X227461471Y-73195926D01*
X227460855Y-73116887D01*
X227442096Y-73034175D01*
X227440199Y-73028681D01*
X227423300Y-72990946D01*
X227401722Y-72954805D01*
X227397879Y-72949539D01*
X227371089Y-72914417D01*
X226959717Y-72914417D01*
X226933869Y-72954104D01*
X226895953Y-73031025D01*
X226877804Y-73115203D01*
X226877005Y-73182090D01*
X226565599Y-73182090D01*
X226579532Y-73078426D01*
X226611883Y-72968931D01*
X226625961Y-72932938D01*
X226627272Y-72926712D01*
X226623647Y-72922059D01*
X226612518Y-72918750D01*
X226591315Y-72916559D01*
X226557470Y-72915259D01*
X226508412Y-72914623D01*
X226441572Y-72914425D01*
X226416220Y-72914417D01*
X226342759Y-72914281D01*
X226287736Y-72913721D01*
X226248424Y-72912510D01*
X226222095Y-72910422D01*
X226206024Y-72907231D01*
X226197481Y-72902708D01*
X226193740Y-72896627D01*
X226193517Y-72895896D01*
X226188798Y-72876855D01*
X226181117Y-72843028D01*
X226171414Y-72798850D01*
X226160628Y-72748754D01*
X226149699Y-72697172D01*
X226139565Y-72648538D01*
X226131167Y-72607286D01*
X226125443Y-72577849D01*
X226123333Y-72564668D01*
X226133790Y-72562731D01*
X226164659Y-72560977D01*
X226215185Y-72559415D01*
X226284613Y-72558054D01*
X226372190Y-72556904D01*
X226477160Y-72555975D01*
X226598769Y-72555274D01*
X226736264Y-72554812D01*
X226888888Y-72554598D01*
X226943542Y-72554583D01*
X227763750Y-72554583D01*
X227763750Y-72914417D01*
X227681119Y-72914417D01*
X227711374Y-72970276D01*
X227745808Y-73052958D01*
X227767090Y-73145976D01*
X227774433Y-73242485D01*
X227767052Y-73335642D01*
X227758097Y-73376975D01*
X227738978Y-73439211D01*
X227716499Y-73491554D01*
X227685891Y-73544357D01*
X227669811Y-73568653D01*
X227599343Y-73654451D01*
X227516376Y-73723515D01*
X227422172Y-73775198D01*
X227317990Y-73808851D01*
X227205092Y-73823826D01*
X227172192Y-73824583D01*
X227164229Y-73824054D01*
X227061559Y-73817231D01*
X226963448Y-73794355D01*
X225453202Y-79205251D02*
X225467369Y-79137069D01*
X225467369Y-79137069D02*
X225488461Y-79058024D01*
X225488461Y-79058024D02*
X225515486Y-78970731D01*
X225515486Y-78970731D02*
X225547449Y-78877803D01*
X225547449Y-78877803D02*
X225583357Y-78781854D01*
X225583357Y-78781854D02*
X225622216Y-78685500D01*
X225622216Y-78685500D02*
X225663034Y-78591353D01*
X225663034Y-78591353D02*
X225704816Y-78502029D01*
X225704816Y-78502029D02*
X225746568Y-78420141D01*
X225746568Y-78420141D02*
X225787297Y-78348303D01*
X225787297Y-78348303D02*
X225826011Y-78289130D01*
X225826011Y-78289130D02*
X225840715Y-78269583D01*
X225840715Y-78269583D02*
X225860708Y-78245357D01*
X225860708Y-78245357D02*
X225880673Y-78224531D01*
X225880673Y-78224531D02*
X225902729Y-78206292D01*
X225902729Y-78206292D02*
X225928996Y-78189827D01*
X225928996Y-78189827D02*
X225961593Y-78174322D01*
X225961593Y-78174322D02*
X226002640Y-78158965D01*
X226002640Y-78158965D02*
X226054257Y-78142941D01*
X226054257Y-78142941D02*
X226118562Y-78125438D01*
X226118562Y-78125438D02*
X226197675Y-78105642D01*
X226197675Y-78105642D02*
X226293716Y-78082739D01*
X226293716Y-78082739D02*
X226380205Y-78062553D01*
X226380205Y-78062553D02*
X226494697Y-78036208D01*
X226494697Y-78036208D02*
X226590795Y-78014800D01*
X226590795Y-78014800D02*
X226670633Y-77998094D01*
X226670633Y-77998094D02*
X226736344Y-77985853D01*
X226736344Y-77985853D02*
X226790059Y-77977844D01*
X226790059Y-77977844D02*
X226833911Y-77973832D01*
X226833911Y-77973832D02*
X226870033Y-77973581D01*
X226870033Y-77973581D02*
X226900557Y-77976856D01*
X226900557Y-77976856D02*
X226927616Y-77983423D01*
X226927616Y-77983423D02*
X226953342Y-77993047D01*
X226953342Y-77993047D02*
X226964708Y-77998151D01*
X226964708Y-77998151D02*
X227025639Y-78037835D01*
X227025639Y-78037835D02*
X227079644Y-78095783D01*
X227079644Y-78095783D02*
X227125268Y-78169810D01*
X227125268Y-78169810D02*
X227161060Y-78257735D01*
X227161060Y-78257735D02*
X227177645Y-78318135D01*
X227177645Y-78318135D02*
X227182780Y-78351011D01*
X227182780Y-78351011D02*
X227187530Y-78400619D01*
X227187530Y-78400619D02*
X227191742Y-78462524D01*
X227191742Y-78462524D02*
X227195259Y-78532293D01*
X227195259Y-78532293D02*
X227197928Y-78605492D01*
X227197928Y-78605492D02*
X227199595Y-78677687D01*
X227199595Y-78677687D02*
X227200104Y-78744444D01*
X227200104Y-78744444D02*
X227199301Y-78801329D01*
X227199301Y-78801329D02*
X227197033Y-78843908D01*
X227197033Y-78843908D02*
X227196234Y-78851667D01*
X227196234Y-78851667D02*
X227161676Y-79078840D01*
X227161676Y-79078840D02*
X227113066Y-79292280D01*
X227113066Y-79292280D02*
X227049619Y-79494748D01*
X227049619Y-79494748D02*
X226970547Y-79689005D01*
X226970547Y-79689005D02*
X226938556Y-79756542D01*
X226938556Y-79756542D02*
X226880915Y-79866614D01*
X226880915Y-79866614D02*
X226819245Y-79971251D01*
X226819245Y-79971251D02*
X226754962Y-80068819D01*
X226754962Y-80068819D02*
X226689480Y-80157684D01*
X226689480Y-80157684D02*
X226624214Y-80236211D01*
X226624214Y-80236211D02*
X226560578Y-80302768D01*
X226560578Y-80302768D02*
X226499988Y-80355719D01*
X226499988Y-80355719D02*
X226443857Y-80393431D01*
X226443857Y-80393431D02*
X226393601Y-80414270D01*
X226393601Y-80414270D02*
X226365863Y-80418000D01*
X226365863Y-80418000D02*
X226346737Y-80414499D01*
X226346737Y-80414499D02*
X226310737Y-80404677D01*
X226310737Y-80404677D02*
X226260842Y-80389558D01*
X226260842Y-80389558D02*
X226200029Y-80370166D01*
X226200029Y-80370166D02*
X226131276Y-80347523D01*
X226131276Y-80347523D02*
X226057562Y-80322653D01*
X226057562Y-80322653D02*
X225981865Y-80296580D01*
X225981865Y-80296580D02*
X225907162Y-80270327D01*
X225907162Y-80270327D02*
X225836431Y-80244916D01*
X225836431Y-80244916D02*
X225772652Y-80221373D01*
X225772652Y-80221373D02*
X225718801Y-80200720D01*
X225718801Y-80200720D02*
X225677858Y-80183979D01*
X225677858Y-80183979D02*
X225657039Y-80174420D01*
X225657039Y-80174420D02*
X225586641Y-80131654D01*
X225586641Y-80131654D02*
X225535377Y-80083706D01*
X225535377Y-80083706D02*
X225502924Y-80029354D01*
X225502924Y-80029354D02*
X225488961Y-79967376D01*
X225488961Y-79967376D02*
X225493164Y-79896549D01*
X225493164Y-79896549D02*
X225515211Y-79815651D01*
X225515211Y-79815651D02*
X225544037Y-79745958D01*
X225544037Y-79745958D02*
X225575830Y-79672304D01*
X225575830Y-79672304D02*
X225595283Y-79612050D01*
X225595283Y-79612050D02*
X225602120Y-79561204D01*
X225602120Y-79561204D02*
X225596064Y-79515773D01*
X225596064Y-79515773D02*
X225576839Y-79471766D01*
X225576839Y-79471766D02*
X225544168Y-79425190D01*
X225544168Y-79425190D02*
X225519836Y-79396428D01*
X225519836Y-79396428D02*
X225490498Y-79361231D01*
X225490498Y-79361231D02*
X225466674Y-79328998D01*
X225466674Y-79328998D02*
X225452079Y-79304906D01*
X225452079Y-79304906D02*
X225449621Y-79298570D01*
X225449621Y-79298570D02*
X225446955Y-79259956D01*
X225446955Y-79259956D02*
X225453202Y-79205251D01*
X225453202Y-79205251D02*
X225453202Y-79205251D01*
G36*
X226900557Y-77976856D02*
G01*
X226927616Y-77983423D01*
X226953342Y-77993047D01*
X226964708Y-77998151D01*
X227025639Y-78037835D01*
X227079644Y-78095783D01*
X227125268Y-78169810D01*
X227161060Y-78257735D01*
X227177645Y-78318135D01*
X227182780Y-78351011D01*
X227187530Y-78400619D01*
X227191742Y-78462524D01*
X227195259Y-78532293D01*
X227197928Y-78605492D01*
X227199595Y-78677687D01*
X227200104Y-78744444D01*
X227199301Y-78801329D01*
X227197033Y-78843908D01*
X227196234Y-78851667D01*
X227161676Y-79078840D01*
X227113066Y-79292280D01*
X227049619Y-79494748D01*
X226970547Y-79689005D01*
X226938556Y-79756542D01*
X226880915Y-79866614D01*
X226819245Y-79971251D01*
X226754962Y-80068819D01*
X226689480Y-80157684D01*
X226624214Y-80236211D01*
X226560578Y-80302768D01*
X226499988Y-80355719D01*
X226443857Y-80393431D01*
X226393601Y-80414270D01*
X226365863Y-80418000D01*
X226346737Y-80414499D01*
X226310737Y-80404677D01*
X226260842Y-80389558D01*
X226200029Y-80370166D01*
X226131276Y-80347523D01*
X226057562Y-80322653D01*
X225981865Y-80296580D01*
X225907162Y-80270327D01*
X225836431Y-80244916D01*
X225772652Y-80221373D01*
X225718801Y-80200720D01*
X225677858Y-80183979D01*
X225657039Y-80174420D01*
X225586641Y-80131654D01*
X225535377Y-80083706D01*
X225502924Y-80029354D01*
X225488961Y-79967376D01*
X225493164Y-79896549D01*
X225515211Y-79815651D01*
X225544037Y-79745958D01*
X225575830Y-79672304D01*
X225595283Y-79612050D01*
X225602120Y-79561204D01*
X225596064Y-79515773D01*
X225576839Y-79471766D01*
X225544168Y-79425190D01*
X225519836Y-79396428D01*
X225490498Y-79361231D01*
X225466674Y-79328998D01*
X225452079Y-79304906D01*
X225449621Y-79298570D01*
X225446955Y-79259956D01*
X225453202Y-79205251D01*
X225467369Y-79137069D01*
X225488461Y-79058024D01*
X225515486Y-78970731D01*
X225547449Y-78877803D01*
X225583357Y-78781854D01*
X225622216Y-78685500D01*
X225663034Y-78591353D01*
X225704816Y-78502029D01*
X225746568Y-78420141D01*
X225787297Y-78348303D01*
X225826011Y-78289130D01*
X225840715Y-78269583D01*
X225860708Y-78245357D01*
X225880673Y-78224531D01*
X225902729Y-78206292D01*
X225928996Y-78189827D01*
X225961593Y-78174322D01*
X226002640Y-78158965D01*
X226054257Y-78142941D01*
X226118562Y-78125438D01*
X226197675Y-78105642D01*
X226293716Y-78082739D01*
X226380205Y-78062553D01*
X226494697Y-78036208D01*
X226590795Y-78014800D01*
X226670633Y-77998094D01*
X226736344Y-77985853D01*
X226790059Y-77977844D01*
X226833911Y-77973832D01*
X226870033Y-77973581D01*
X226900557Y-77976856D01*
G37*
X226900557Y-77976856D02*
X226927616Y-77983423D01*
X226953342Y-77993047D01*
X226964708Y-77998151D01*
X227025639Y-78037835D01*
X227079644Y-78095783D01*
X227125268Y-78169810D01*
X227161060Y-78257735D01*
X227177645Y-78318135D01*
X227182780Y-78351011D01*
X227187530Y-78400619D01*
X227191742Y-78462524D01*
X227195259Y-78532293D01*
X227197928Y-78605492D01*
X227199595Y-78677687D01*
X227200104Y-78744444D01*
X227199301Y-78801329D01*
X227197033Y-78843908D01*
X227196234Y-78851667D01*
X227161676Y-79078840D01*
X227113066Y-79292280D01*
X227049619Y-79494748D01*
X226970547Y-79689005D01*
X226938556Y-79756542D01*
X226880915Y-79866614D01*
X226819245Y-79971251D01*
X226754962Y-80068819D01*
X226689480Y-80157684D01*
X226624214Y-80236211D01*
X226560578Y-80302768D01*
X226499988Y-80355719D01*
X226443857Y-80393431D01*
X226393601Y-80414270D01*
X226365863Y-80418000D01*
X226346737Y-80414499D01*
X226310737Y-80404677D01*
X226260842Y-80389558D01*
X226200029Y-80370166D01*
X226131276Y-80347523D01*
X226057562Y-80322653D01*
X225981865Y-80296580D01*
X225907162Y-80270327D01*
X225836431Y-80244916D01*
X225772652Y-80221373D01*
X225718801Y-80200720D01*
X225677858Y-80183979D01*
X225657039Y-80174420D01*
X225586641Y-80131654D01*
X225535377Y-80083706D01*
X225502924Y-80029354D01*
X225488961Y-79967376D01*
X225493164Y-79896549D01*
X225515211Y-79815651D01*
X225544037Y-79745958D01*
X225575830Y-79672304D01*
X225595283Y-79612050D01*
X225602120Y-79561204D01*
X225596064Y-79515773D01*
X225576839Y-79471766D01*
X225544168Y-79425190D01*
X225519836Y-79396428D01*
X225490498Y-79361231D01*
X225466674Y-79328998D01*
X225452079Y-79304906D01*
X225449621Y-79298570D01*
X225446955Y-79259956D01*
X225453202Y-79205251D01*
X225467369Y-79137069D01*
X225488461Y-79058024D01*
X225515486Y-78970731D01*
X225547449Y-78877803D01*
X225583357Y-78781854D01*
X225622216Y-78685500D01*
X225663034Y-78591353D01*
X225704816Y-78502029D01*
X225746568Y-78420141D01*
X225787297Y-78348303D01*
X225826011Y-78289130D01*
X225840715Y-78269583D01*
X225860708Y-78245357D01*
X225880673Y-78224531D01*
X225902729Y-78206292D01*
X225928996Y-78189827D01*
X225961593Y-78174322D01*
X226002640Y-78158965D01*
X226054257Y-78142941D01*
X226118562Y-78125438D01*
X226197675Y-78105642D01*
X226293716Y-78082739D01*
X226380205Y-78062553D01*
X226494697Y-78036208D01*
X226590795Y-78014800D01*
X226670633Y-77998094D01*
X226736344Y-77985853D01*
X226790059Y-77977844D01*
X226833911Y-77973832D01*
X226870033Y-77973581D01*
X226900557Y-77976856D01*
X226197600Y-76097354D02*
X226197789Y-75977416D01*
X226197789Y-75977416D02*
X226198401Y-75876424D01*
X226198401Y-75876424D02*
X226199672Y-75792159D01*
X226199672Y-75792159D02*
X226201836Y-75722400D01*
X226201836Y-75722400D02*
X226205128Y-75664930D01*
X226205128Y-75664930D02*
X226209784Y-75617526D01*
X226209784Y-75617526D02*
X226216036Y-75577971D01*
X226216036Y-75577971D02*
X226224122Y-75544045D01*
X226224122Y-75544045D02*
X226234275Y-75513528D01*
X226234275Y-75513528D02*
X226246730Y-75484200D01*
X226246730Y-75484200D02*
X226261721Y-75453842D01*
X226261721Y-75453842D02*
X226266674Y-75444344D01*
X226266674Y-75444344D02*
X226320702Y-75362711D01*
X226320702Y-75362711D02*
X226387604Y-75295884D01*
X226387604Y-75295884D02*
X226464703Y-75244382D01*
X226464703Y-75244382D02*
X226549318Y-75208723D01*
X226549318Y-75208723D02*
X226638770Y-75189423D01*
X226638770Y-75189423D02*
X226730378Y-75187001D01*
X226730378Y-75187001D02*
X226821464Y-75201974D01*
X226821464Y-75201974D02*
X226909348Y-75234860D01*
X226909348Y-75234860D02*
X226991350Y-75286176D01*
X226991350Y-75286176D02*
X227009355Y-75300862D01*
X227009355Y-75300862D02*
X227038283Y-75329898D01*
X227038283Y-75329898D02*
X227070562Y-75368710D01*
X227070562Y-75368710D02*
X227098120Y-75407298D01*
X227098120Y-75407298D02*
X227142237Y-75475515D01*
X227142237Y-75475515D02*
X227175181Y-75455709D01*
X227175181Y-75455709D02*
X227196661Y-75443280D01*
X227196661Y-75443280D02*
X227232033Y-75423368D01*
X227232033Y-75423368D02*
X227278570Y-75397465D01*
X227278570Y-75397465D02*
X227333545Y-75367063D01*
X227333545Y-75367063D02*
X227394232Y-75333651D01*
X227394232Y-75333651D02*
X227457903Y-75298723D01*
X227457903Y-75298723D02*
X227521834Y-75263767D01*
X227521834Y-75263767D02*
X227583296Y-75230277D01*
X227583296Y-75230277D02*
X227639564Y-75199742D01*
X227639564Y-75199742D02*
X227687910Y-75173654D01*
X227687910Y-75173654D02*
X227725608Y-75153504D01*
X227725608Y-75153504D02*
X227749932Y-75140782D01*
X227749932Y-75140782D02*
X227758120Y-75136917D01*
X227758120Y-75136917D02*
X227759821Y-75146975D01*
X227759821Y-75146975D02*
X227761315Y-75175053D01*
X227761315Y-75175053D02*
X227762520Y-75218003D01*
X227762520Y-75218003D02*
X227763355Y-75272677D01*
X227763355Y-75272677D02*
X227763735Y-75335929D01*
X227763735Y-75335929D02*
X227763750Y-75351421D01*
X227763750Y-75351421D02*
X227763750Y-75565926D01*
X227763750Y-75565926D02*
X227478067Y-75713900D01*
X227478067Y-75713900D02*
X227192385Y-75861875D01*
X227192385Y-75861875D02*
X227192317Y-76007396D01*
X227192317Y-76007396D02*
X227192250Y-76152917D01*
X227192250Y-76152917D02*
X227763750Y-76152917D01*
X227763750Y-76152917D02*
X227763750Y-76533917D01*
X227763750Y-76533917D02*
X226876235Y-76533917D01*
X226876235Y-76533917D02*
X226876235Y-76153448D01*
X226876235Y-76153448D02*
X226872847Y-75921096D01*
X226872847Y-75921096D02*
X226871610Y-75844609D01*
X226871610Y-75844609D02*
X226870233Y-75786327D01*
X226870233Y-75786327D02*
X226868428Y-75743288D01*
X226868428Y-75743288D02*
X226865906Y-75712529D01*
X226865906Y-75712529D02*
X226862378Y-75691090D01*
X226862378Y-75691090D02*
X226857557Y-75676008D01*
X226857557Y-75676008D02*
X226851154Y-75664322D01*
X226851154Y-75664322D02*
X226847318Y-75658893D01*
X226847318Y-75658893D02*
X226802877Y-75613647D01*
X226802877Y-75613647D02*
X226750936Y-75588060D01*
X226750936Y-75588060D02*
X226701206Y-75581456D01*
X226701206Y-75581456D02*
X226642906Y-75589696D01*
X226642906Y-75589696D02*
X226596628Y-75615036D01*
X226596628Y-75615036D02*
X226560567Y-75658548D01*
X226560567Y-75658548D02*
X226555063Y-75668314D01*
X226555063Y-75668314D02*
X226546877Y-75684740D01*
X226546877Y-75684740D02*
X226540775Y-75701229D01*
X226540775Y-75701229D02*
X226536453Y-75721088D01*
X226536453Y-75721088D02*
X226533604Y-75747626D01*
X226533604Y-75747626D02*
X226531922Y-75784150D01*
X226531922Y-75784150D02*
X226531103Y-75833967D01*
X226531103Y-75833967D02*
X226530841Y-75900386D01*
X226530841Y-75900386D02*
X226530824Y-75930667D01*
X226530824Y-75930667D02*
X226530792Y-76147625D01*
X226530792Y-76147625D02*
X226703513Y-76150537D01*
X226703513Y-76150537D02*
X226876235Y-76153448D01*
X226876235Y-76153448D02*
X226876235Y-76533917D01*
X226876235Y-76533917D02*
X226197417Y-76533917D01*
X226197417Y-76533917D02*
X226197600Y-76097354D01*
X226197600Y-76097354D02*
X226197600Y-76097354D01*
G36*
X226197600Y-76097354D02*
G01*
X226197789Y-75977416D01*
X226198401Y-75876424D01*
X226199672Y-75792159D01*
X226201836Y-75722400D01*
X226205128Y-75664930D01*
X226209784Y-75617526D01*
X226216036Y-75577971D01*
X226224122Y-75544045D01*
X226234275Y-75513528D01*
X226246730Y-75484200D01*
X226261721Y-75453842D01*
X226266674Y-75444344D01*
X226320702Y-75362711D01*
X226387604Y-75295884D01*
X226464703Y-75244382D01*
X226549318Y-75208723D01*
X226638770Y-75189423D01*
X226730378Y-75187001D01*
X226821464Y-75201974D01*
X226909348Y-75234860D01*
X226991350Y-75286176D01*
X227009355Y-75300862D01*
X227038283Y-75329898D01*
X227070562Y-75368710D01*
X227098120Y-75407298D01*
X227142237Y-75475515D01*
X227175181Y-75455709D01*
X227196661Y-75443280D01*
X227232033Y-75423368D01*
X227278570Y-75397465D01*
X227333545Y-75367063D01*
X227394232Y-75333651D01*
X227457903Y-75298723D01*
X227521834Y-75263767D01*
X227583296Y-75230277D01*
X227639564Y-75199742D01*
X227687910Y-75173654D01*
X227725608Y-75153504D01*
X227749932Y-75140782D01*
X227758120Y-75136917D01*
X227759821Y-75146975D01*
X227761315Y-75175053D01*
X227762520Y-75218003D01*
X227763355Y-75272677D01*
X227763735Y-75335929D01*
X227763750Y-75351421D01*
X227763750Y-75565926D01*
X227478067Y-75713900D01*
X227192385Y-75861875D01*
X227192317Y-76007396D01*
X227192250Y-76152917D01*
X227763750Y-76152917D01*
X227763750Y-76533917D01*
X226197417Y-76533917D01*
X226197579Y-76147625D01*
X226530792Y-76147625D01*
X226703513Y-76150537D01*
X226876235Y-76153448D01*
X226872847Y-75921096D01*
X226871610Y-75844609D01*
X226870233Y-75786327D01*
X226868428Y-75743288D01*
X226865906Y-75712529D01*
X226862378Y-75691090D01*
X226857557Y-75676008D01*
X226851154Y-75664322D01*
X226847318Y-75658893D01*
X226802877Y-75613647D01*
X226750936Y-75588060D01*
X226701206Y-75581456D01*
X226642906Y-75589696D01*
X226596628Y-75615036D01*
X226560567Y-75658548D01*
X226555063Y-75668314D01*
X226546877Y-75684740D01*
X226540775Y-75701229D01*
X226536453Y-75721088D01*
X226533604Y-75747626D01*
X226531922Y-75784150D01*
X226531103Y-75833967D01*
X226530841Y-75900386D01*
X226530824Y-75930667D01*
X226530792Y-76147625D01*
X226197579Y-76147625D01*
X226197600Y-76097354D01*
G37*
X226197600Y-76097354D02*
X226197789Y-75977416D01*
X226198401Y-75876424D01*
X226199672Y-75792159D01*
X226201836Y-75722400D01*
X226205128Y-75664930D01*
X226209784Y-75617526D01*
X226216036Y-75577971D01*
X226224122Y-75544045D01*
X226234275Y-75513528D01*
X226246730Y-75484200D01*
X226261721Y-75453842D01*
X226266674Y-75444344D01*
X226320702Y-75362711D01*
X226387604Y-75295884D01*
X226464703Y-75244382D01*
X226549318Y-75208723D01*
X226638770Y-75189423D01*
X226730378Y-75187001D01*
X226821464Y-75201974D01*
X226909348Y-75234860D01*
X226991350Y-75286176D01*
X227009355Y-75300862D01*
X227038283Y-75329898D01*
X227070562Y-75368710D01*
X227098120Y-75407298D01*
X227142237Y-75475515D01*
X227175181Y-75455709D01*
X227196661Y-75443280D01*
X227232033Y-75423368D01*
X227278570Y-75397465D01*
X227333545Y-75367063D01*
X227394232Y-75333651D01*
X227457903Y-75298723D01*
X227521834Y-75263767D01*
X227583296Y-75230277D01*
X227639564Y-75199742D01*
X227687910Y-75173654D01*
X227725608Y-75153504D01*
X227749932Y-75140782D01*
X227758120Y-75136917D01*
X227759821Y-75146975D01*
X227761315Y-75175053D01*
X227762520Y-75218003D01*
X227763355Y-75272677D01*
X227763735Y-75335929D01*
X227763750Y-75351421D01*
X227763750Y-75565926D01*
X227478067Y-75713900D01*
X227192385Y-75861875D01*
X227192317Y-76007396D01*
X227192250Y-76152917D01*
X227763750Y-76152917D01*
X227763750Y-76533917D01*
X226197417Y-76533917D01*
X226197579Y-76147625D01*
X226530792Y-76147625D01*
X226703513Y-76150537D01*
X226876235Y-76153448D01*
X226872847Y-75921096D01*
X226871610Y-75844609D01*
X226870233Y-75786327D01*
X226868428Y-75743288D01*
X226865906Y-75712529D01*
X226862378Y-75691090D01*
X226857557Y-75676008D01*
X226851154Y-75664322D01*
X226847318Y-75658893D01*
X226802877Y-75613647D01*
X226750936Y-75588060D01*
X226701206Y-75581456D01*
X226642906Y-75589696D01*
X226596628Y-75615036D01*
X226560567Y-75658548D01*
X226555063Y-75668314D01*
X226546877Y-75684740D01*
X226540775Y-75701229D01*
X226536453Y-75721088D01*
X226533604Y-75747626D01*
X226531922Y-75784150D01*
X226531103Y-75833967D01*
X226530841Y-75900386D01*
X226530824Y-75930667D01*
X226530792Y-76147625D01*
X226197579Y-76147625D01*
X226197600Y-76097354D01*
X226563641Y-69841634D02*
X226564613Y-69791261D01*
X226564613Y-69791261D02*
X226566937Y-69753213D01*
X226566937Y-69753213D02*
X226571045Y-69723072D01*
X226571045Y-69723072D02*
X226577371Y-69696420D01*
X226577371Y-69696420D02*
X226586348Y-69668839D01*
X226586348Y-69668839D02*
X226587392Y-69665905D01*
X226587392Y-69665905D02*
X226628357Y-69575653D01*
X226628357Y-69575653D02*
X226680647Y-69502856D01*
X226680647Y-69502856D02*
X226744820Y-69446745D01*
X226744820Y-69446745D02*
X226747969Y-69444618D01*
X226747969Y-69444618D02*
X226773463Y-69428073D01*
X226773463Y-69428073D02*
X226797384Y-69414346D01*
X226797384Y-69414346D02*
X226821944Y-69403176D01*
X226821944Y-69403176D02*
X226849358Y-69394298D01*
X226849358Y-69394298D02*
X226881840Y-69387452D01*
X226881840Y-69387452D02*
X226921602Y-69382373D01*
X226921602Y-69382373D02*
X226970859Y-69378799D01*
X226970859Y-69378799D02*
X227031824Y-69376467D01*
X227031824Y-69376467D02*
X227106711Y-69375115D01*
X227106711Y-69375115D02*
X227197732Y-69374479D01*
X227197732Y-69374479D02*
X227307103Y-69374297D01*
X227307103Y-69374297D02*
X227340417Y-69374292D01*
X227340417Y-69374292D02*
X227758458Y-69374292D01*
X227758458Y-69374292D02*
X227758458Y-69734125D01*
X227758458Y-69734125D02*
X227729354Y-69737474D01*
X227729354Y-69737474D02*
X227706888Y-69742420D01*
X227706888Y-69742420D02*
X227702450Y-69752888D01*
X227702450Y-69752888D02*
X227714596Y-69773354D01*
X227714596Y-69773354D02*
X227716807Y-69776308D01*
X227716807Y-69776308D02*
X227736806Y-69813899D01*
X227736806Y-69813899D02*
X227753960Y-69867073D01*
X227753960Y-69867073D02*
X227767417Y-69930341D01*
X227767417Y-69930341D02*
X227776330Y-69998213D01*
X227776330Y-69998213D02*
X227779850Y-70065200D01*
X227779850Y-70065200D02*
X227777126Y-70125812D01*
X227777126Y-70125812D02*
X227774129Y-70146875D01*
X227774129Y-70146875D02*
X227748359Y-70243143D01*
X227748359Y-70243143D02*
X227708418Y-70324552D01*
X227708418Y-70324552D02*
X227654942Y-70390439D01*
X227654942Y-70390439D02*
X227588565Y-70440141D01*
X227588565Y-70440141D02*
X227509924Y-70472994D01*
X227509924Y-70472994D02*
X227449864Y-70485359D01*
X227449864Y-70485359D02*
X227413568Y-70485421D01*
X227413568Y-70485421D02*
X227413568Y-70162897D01*
X227413568Y-70162897D02*
X227449518Y-70152539D01*
X227449518Y-70152539D02*
X227481203Y-70125745D01*
X227481203Y-70125745D02*
X227504470Y-70082970D01*
X227504470Y-70082970D02*
X227516944Y-70024752D01*
X227516944Y-70024752D02*
X227518569Y-69956200D01*
X227518569Y-69956200D02*
X227509603Y-69885000D01*
X227509603Y-69885000D02*
X227496146Y-69834667D01*
X227496146Y-69834667D02*
X227472708Y-69765875D01*
X227472708Y-69765875D02*
X227397279Y-69762792D01*
X227397279Y-69762792D02*
X227356921Y-69761900D01*
X227356921Y-69761900D02*
X227332770Y-69763939D01*
X227332770Y-69763939D02*
X227319963Y-69769839D01*
X227319963Y-69769839D02*
X227314329Y-69778667D01*
X227314329Y-69778667D02*
X227309248Y-69801889D01*
X227309248Y-69801889D02*
X227304970Y-69840440D01*
X227304970Y-69840440D02*
X227301740Y-69888490D01*
X227301740Y-69888490D02*
X227299805Y-69940210D01*
X227299805Y-69940210D02*
X227299409Y-69989768D01*
X227299409Y-69989768D02*
X227300798Y-70031335D01*
X227300798Y-70031335D02*
X227302833Y-70051701D01*
X227302833Y-70051701D02*
X227317986Y-70101220D01*
X227317986Y-70101220D02*
X227344017Y-70136650D01*
X227344017Y-70136650D02*
X227377139Y-70157404D01*
X227377139Y-70157404D02*
X227413568Y-70162897D01*
X227413568Y-70162897D02*
X227413568Y-70485421D01*
X227413568Y-70485421D02*
X227385133Y-70485471D01*
X227385133Y-70485471D02*
X227315661Y-70471640D01*
X227315661Y-70471640D02*
X227250364Y-70446092D01*
X227250364Y-70446092D02*
X227219429Y-70427830D01*
X227219429Y-70427830D02*
X227165937Y-70378613D01*
X227165937Y-70378613D02*
X227122366Y-70312564D01*
X227122366Y-70312564D02*
X227089349Y-70231872D01*
X227089349Y-70231872D02*
X227067517Y-70138723D01*
X227067517Y-70138723D02*
X227057505Y-70035306D01*
X227057505Y-70035306D02*
X227059944Y-69923809D01*
X227059944Y-69923809D02*
X227063323Y-69887994D01*
X227063323Y-69887994D02*
X227069124Y-69839288D01*
X227069124Y-69839288D02*
X227074819Y-69797448D01*
X227074819Y-69797448D02*
X227079674Y-69767544D01*
X227079674Y-69767544D02*
X227082460Y-69755630D01*
X227082460Y-69755630D02*
X227078109Y-69745061D01*
X227078109Y-69745061D02*
X227058638Y-69739397D01*
X227058638Y-69739397D02*
X227029473Y-69738464D01*
X227029473Y-69738464D02*
X226996043Y-69742087D01*
X226996043Y-69742087D02*
X226963775Y-69750092D01*
X226963775Y-69750092D02*
X226941409Y-69760155D01*
X226941409Y-69760155D02*
X226911649Y-69782626D01*
X226911649Y-69782626D02*
X226890999Y-69810252D01*
X226890999Y-69810252D02*
X226878053Y-69846990D01*
X226878053Y-69846990D02*
X226871401Y-69896793D01*
X226871401Y-69896793D02*
X226869631Y-69961667D01*
X226869631Y-69961667D02*
X226870338Y-70012591D01*
X226870338Y-70012591D02*
X226873150Y-70052767D01*
X226873150Y-70052767D02*
X226879372Y-70089526D01*
X226879372Y-70089526D02*
X226890310Y-70130198D01*
X226890310Y-70130198D02*
X226907273Y-70182112D01*
X226907273Y-70182112D02*
X226910723Y-70192214D01*
X226910723Y-70192214D02*
X226926274Y-70238822D01*
X226926274Y-70238822D02*
X226938407Y-70277565D01*
X226938407Y-70277565D02*
X226945918Y-70304418D01*
X226945918Y-70304418D02*
X226947600Y-70315354D01*
X226947600Y-70315354D02*
X226947592Y-70315362D01*
X226947592Y-70315362D02*
X226937146Y-70321205D01*
X226937146Y-70321205D02*
X226911331Y-70334625D01*
X226911331Y-70334625D02*
X226873736Y-70353784D01*
X226873736Y-70353784D02*
X226827949Y-70376843D01*
X226827949Y-70376843D02*
X226814741Y-70383453D01*
X226814741Y-70383453D02*
X226685940Y-70447816D01*
X226685940Y-70447816D02*
X226653762Y-70370521D01*
X226653762Y-70370521D02*
X226636144Y-70324306D01*
X226636144Y-70324306D02*
X226616744Y-70267315D01*
X226616744Y-70267315D02*
X226598830Y-70209327D01*
X226598830Y-70209327D02*
X226592883Y-70188300D01*
X226592883Y-70188300D02*
X226581817Y-70145746D01*
X226581817Y-70145746D02*
X226573968Y-70108572D01*
X226573968Y-70108572D02*
X226568779Y-70071448D01*
X226568779Y-70071448D02*
X226565691Y-70029042D01*
X226565691Y-70029042D02*
X226564145Y-69976021D01*
X226564145Y-69976021D02*
X226563588Y-69908750D01*
X226563588Y-69908750D02*
X226563641Y-69841634D01*
X226563641Y-69841634D02*
X226563641Y-69841634D01*
G36*
X227385133Y-70485471D02*
G01*
X227315661Y-70471640D01*
X227250364Y-70446092D01*
X227219429Y-70427830D01*
X227165937Y-70378613D01*
X227122366Y-70312564D01*
X227089349Y-70231872D01*
X227067517Y-70138723D01*
X227057505Y-70035306D01*
X227058501Y-69989768D01*
X227299409Y-69989768D01*
X227300798Y-70031335D01*
X227302833Y-70051701D01*
X227317986Y-70101220D01*
X227344017Y-70136650D01*
X227377139Y-70157404D01*
X227413568Y-70162897D01*
X227449518Y-70152539D01*
X227481203Y-70125745D01*
X227504470Y-70082970D01*
X227516944Y-70024752D01*
X227518569Y-69956200D01*
X227509603Y-69885000D01*
X227496146Y-69834667D01*
X227472708Y-69765875D01*
X227397279Y-69762792D01*
X227356921Y-69761900D01*
X227332770Y-69763939D01*
X227319963Y-69769839D01*
X227314329Y-69778667D01*
X227309248Y-69801889D01*
X227304970Y-69840440D01*
X227301740Y-69888490D01*
X227299805Y-69940210D01*
X227299409Y-69989768D01*
X227058501Y-69989768D01*
X227059944Y-69923809D01*
X227063323Y-69887994D01*
X227069124Y-69839288D01*
X227074819Y-69797448D01*
X227079674Y-69767544D01*
X227082460Y-69755630D01*
X227078109Y-69745061D01*
X227058638Y-69739397D01*
X227029473Y-69738464D01*
X226996043Y-69742087D01*
X226963775Y-69750092D01*
X226941409Y-69760155D01*
X226911649Y-69782626D01*
X226890999Y-69810252D01*
X226878053Y-69846990D01*
X226871401Y-69896793D01*
X226869631Y-69961667D01*
X226870338Y-70012591D01*
X226873150Y-70052767D01*
X226879372Y-70089526D01*
X226890310Y-70130198D01*
X226907273Y-70182112D01*
X226910723Y-70192214D01*
X226926274Y-70238822D01*
X226938407Y-70277565D01*
X226945918Y-70304418D01*
X226947600Y-70315354D01*
X226947592Y-70315362D01*
X226937146Y-70321205D01*
X226911331Y-70334625D01*
X226873736Y-70353784D01*
X226827949Y-70376843D01*
X226814741Y-70383453D01*
X226685940Y-70447816D01*
X226653762Y-70370521D01*
X226636144Y-70324306D01*
X226616744Y-70267315D01*
X226598830Y-70209327D01*
X226592883Y-70188300D01*
X226581817Y-70145746D01*
X226573968Y-70108572D01*
X226568779Y-70071448D01*
X226565691Y-70029042D01*
X226564145Y-69976021D01*
X226563588Y-69908750D01*
X226563641Y-69841634D01*
X226564613Y-69791261D01*
X226566937Y-69753213D01*
X226571045Y-69723072D01*
X226577371Y-69696420D01*
X226586348Y-69668839D01*
X226587392Y-69665905D01*
X226628357Y-69575653D01*
X226680647Y-69502856D01*
X226744820Y-69446745D01*
X226747969Y-69444618D01*
X226773463Y-69428073D01*
X226797384Y-69414346D01*
X226821944Y-69403176D01*
X226849358Y-69394298D01*
X226881840Y-69387452D01*
X226921602Y-69382373D01*
X226970859Y-69378799D01*
X227031824Y-69376467D01*
X227106711Y-69375115D01*
X227197732Y-69374479D01*
X227307103Y-69374297D01*
X227340417Y-69374292D01*
X227758458Y-69374292D01*
X227758458Y-69734125D01*
X227729354Y-69737474D01*
X227706888Y-69742420D01*
X227702450Y-69752888D01*
X227714596Y-69773354D01*
X227716807Y-69776308D01*
X227736806Y-69813899D01*
X227753960Y-69867073D01*
X227767417Y-69930341D01*
X227776330Y-69998213D01*
X227779850Y-70065200D01*
X227777126Y-70125812D01*
X227774129Y-70146875D01*
X227748359Y-70243143D01*
X227708418Y-70324552D01*
X227654942Y-70390439D01*
X227588565Y-70440141D01*
X227509924Y-70472994D01*
X227449864Y-70485359D01*
X227413568Y-70485421D01*
X227385133Y-70485471D01*
G37*
X227385133Y-70485471D02*
X227315661Y-70471640D01*
X227250364Y-70446092D01*
X227219429Y-70427830D01*
X227165937Y-70378613D01*
X227122366Y-70312564D01*
X227089349Y-70231872D01*
X227067517Y-70138723D01*
X227057505Y-70035306D01*
X227058501Y-69989768D01*
X227299409Y-69989768D01*
X227300798Y-70031335D01*
X227302833Y-70051701D01*
X227317986Y-70101220D01*
X227344017Y-70136650D01*
X227377139Y-70157404D01*
X227413568Y-70162897D01*
X227449518Y-70152539D01*
X227481203Y-70125745D01*
X227504470Y-70082970D01*
X227516944Y-70024752D01*
X227518569Y-69956200D01*
X227509603Y-69885000D01*
X227496146Y-69834667D01*
X227472708Y-69765875D01*
X227397279Y-69762792D01*
X227356921Y-69761900D01*
X227332770Y-69763939D01*
X227319963Y-69769839D01*
X227314329Y-69778667D01*
X227309248Y-69801889D01*
X227304970Y-69840440D01*
X227301740Y-69888490D01*
X227299805Y-69940210D01*
X227299409Y-69989768D01*
X227058501Y-69989768D01*
X227059944Y-69923809D01*
X227063323Y-69887994D01*
X227069124Y-69839288D01*
X227074819Y-69797448D01*
X227079674Y-69767544D01*
X227082460Y-69755630D01*
X227078109Y-69745061D01*
X227058638Y-69739397D01*
X227029473Y-69738464D01*
X226996043Y-69742087D01*
X226963775Y-69750092D01*
X226941409Y-69760155D01*
X226911649Y-69782626D01*
X226890999Y-69810252D01*
X226878053Y-69846990D01*
X226871401Y-69896793D01*
X226869631Y-69961667D01*
X226870338Y-70012591D01*
X226873150Y-70052767D01*
X226879372Y-70089526D01*
X226890310Y-70130198D01*
X226907273Y-70182112D01*
X226910723Y-70192214D01*
X226926274Y-70238822D01*
X226938407Y-70277565D01*
X226945918Y-70304418D01*
X226947600Y-70315354D01*
X226947592Y-70315362D01*
X226937146Y-70321205D01*
X226911331Y-70334625D01*
X226873736Y-70353784D01*
X226827949Y-70376843D01*
X226814741Y-70383453D01*
X226685940Y-70447816D01*
X226653762Y-70370521D01*
X226636144Y-70324306D01*
X226616744Y-70267315D01*
X226598830Y-70209327D01*
X226592883Y-70188300D01*
X226581817Y-70145746D01*
X226573968Y-70108572D01*
X226568779Y-70071448D01*
X226565691Y-70029042D01*
X226564145Y-69976021D01*
X226563588Y-69908750D01*
X226563641Y-69841634D01*
X226564613Y-69791261D01*
X226566937Y-69753213D01*
X226571045Y-69723072D01*
X226577371Y-69696420D01*
X226586348Y-69668839D01*
X226587392Y-69665905D01*
X226628357Y-69575653D01*
X226680647Y-69502856D01*
X226744820Y-69446745D01*
X226747969Y-69444618D01*
X226773463Y-69428073D01*
X226797384Y-69414346D01*
X226821944Y-69403176D01*
X226849358Y-69394298D01*
X226881840Y-69387452D01*
X226921602Y-69382373D01*
X226970859Y-69378799D01*
X227031824Y-69376467D01*
X227106711Y-69375115D01*
X227197732Y-69374479D01*
X227307103Y-69374297D01*
X227340417Y-69374292D01*
X227758458Y-69374292D01*
X227758458Y-69734125D01*
X227729354Y-69737474D01*
X227706888Y-69742420D01*
X227702450Y-69752888D01*
X227714596Y-69773354D01*
X227716807Y-69776308D01*
X227736806Y-69813899D01*
X227753960Y-69867073D01*
X227767417Y-69930341D01*
X227776330Y-69998213D01*
X227779850Y-70065200D01*
X227777126Y-70125812D01*
X227774129Y-70146875D01*
X227748359Y-70243143D01*
X227708418Y-70324552D01*
X227654942Y-70390439D01*
X227588565Y-70440141D01*
X227509924Y-70472994D01*
X227449864Y-70485359D01*
X227413568Y-70485421D01*
X227385133Y-70485471D01*
D11*
%TO.C,R7*%
X201779200Y-88720664D02*
X201779200Y-88266536D01*
X203249200Y-88720664D02*
X203249200Y-88266536D01*
%TO.C,R1*%
X225271064Y-113445000D02*
X224816936Y-113445000D01*
X225271064Y-114915000D02*
X224816936Y-114915000D01*
%TO.C,R5*%
X225779000Y-122962936D02*
X225779000Y-123417064D01*
X224309000Y-122962936D02*
X224309000Y-123417064D01*
%TO.C,U1*%
X181031200Y-108508800D02*
X181031200Y-110458800D01*
X186151200Y-108508800D02*
X186151200Y-110458800D01*
X186151200Y-108508800D02*
X186151200Y-105058800D01*
X181031200Y-108508800D02*
X181031200Y-106558800D01*
%TO.C,C1*%
X183329948Y-115393800D02*
X183852452Y-115393800D01*
X183329948Y-116863800D02*
X183852452Y-116863800D01*
%TO.C,R6*%
X195022800Y-88746064D02*
X195022800Y-88291936D01*
X196492800Y-88746064D02*
X196492800Y-88291936D01*
%TO.C,D1*%
X189645000Y-91892000D02*
X189645000Y-89972000D01*
X189645000Y-89972000D02*
X186960000Y-89972000D01*
X186960000Y-91892000D02*
X189645000Y-91892000D01*
%TO.C,R2*%
X214301400Y-89381064D02*
X214301400Y-88926936D01*
X215771400Y-89381064D02*
X215771400Y-88926936D01*
%TO.C,D3*%
X209058000Y-91892000D02*
X211743000Y-91892000D01*
X211743000Y-89972000D02*
X209058000Y-89972000D01*
X211743000Y-91892000D02*
X211743000Y-89972000D01*
%TO.C,R9*%
X219482936Y-70131000D02*
X219937064Y-70131000D01*
X219482936Y-71601000D02*
X219937064Y-71601000D01*
%TO.C,R11*%
X191438264Y-76481000D02*
X190984136Y-76481000D01*
X191438264Y-77951000D02*
X190984136Y-77951000D01*
D14*
%TO.C,D5*%
X180760000Y-75975000D02*
X180760000Y-78665000D01*
X182360000Y-74995000D02*
X182360000Y-78665000D01*
D11*
%TO.C,R10*%
X186208936Y-77951000D02*
X186663064Y-77951000D01*
X186208936Y-76481000D02*
X186663064Y-76481000D01*
%TO.C,C5*%
X195318748Y-77995000D02*
X195841252Y-77995000D01*
X195318748Y-76525000D02*
X195841252Y-76525000D01*
D15*
%TO.C,U2*%
X206950000Y-73990000D02*
X206950000Y-73690000D01*
X212150000Y-73990000D02*
X211950000Y-73990000D01*
X212150000Y-73990000D02*
X212150000Y-73690000D01*
X206950000Y-70790000D02*
X207150000Y-70790000D01*
X212150000Y-71490000D02*
X212150000Y-71190000D01*
X206950000Y-73990000D02*
X207150000Y-73990000D01*
X206950000Y-70790000D02*
X206950000Y-71090000D01*
X211950000Y-70990000D02*
X211950000Y-70790000D01*
X212150000Y-71190000D02*
X211950000Y-70990000D01*
D11*
%TO.C,C2*%
X202211000Y-72397252D02*
X202211000Y-71874748D01*
X203681000Y-72397252D02*
X203681000Y-71874748D01*
%TO.C,*%
G36*
X205256401Y-137872881D02*
G01*
X205292793Y-137922104D01*
X205292816Y-137923649D01*
X205255793Y-137968065D01*
X205162887Y-138011906D01*
X205041338Y-138047651D01*
X204918388Y-138067783D01*
X204821281Y-138064781D01*
X204802750Y-138058911D01*
X204751610Y-138008313D01*
X204765439Y-137951825D01*
X204833793Y-137919200D01*
X204852170Y-137918154D01*
X204972271Y-137902739D01*
X205060346Y-137877616D01*
X205169620Y-137856210D01*
X205256401Y-137872881D01*
G37*
G36*
X204537732Y-141675643D02*
G01*
X204030991Y-141606885D01*
X204012126Y-141604273D01*
X203211074Y-141493278D01*
X202905612Y-141644210D01*
X202666475Y-141747594D01*
X202417207Y-141830028D01*
X202179577Y-141886151D01*
X201975354Y-141910601D01*
X201851332Y-141903881D01*
X201708678Y-141846707D01*
X201623364Y-141748449D01*
X201613736Y-141678424D01*
X201686670Y-141678424D01*
X201714322Y-141770532D01*
X201782492Y-141812345D01*
X201894550Y-141822757D01*
X202058448Y-141811885D01*
X202246435Y-141783411D01*
X202430757Y-141741017D01*
X202514277Y-141715269D01*
X202693237Y-141647309D01*
X202861573Y-141572277D01*
X202999241Y-141500144D01*
X203086195Y-141440880D01*
X203102507Y-141422660D01*
X203104622Y-141345158D01*
X203051151Y-141226950D01*
X202950204Y-141081194D01*
X202809887Y-140921050D01*
X202766337Y-140877084D01*
X202535590Y-140650010D01*
X202162009Y-141046233D01*
X202015275Y-141205375D01*
X201885317Y-141352800D01*
X201785488Y-141472921D01*
X201729141Y-141550148D01*
X201726632Y-141554511D01*
X201686670Y-141678424D01*
X201613736Y-141678424D01*
X201606341Y-141624635D01*
X201619624Y-141575240D01*
X201662502Y-141505711D01*
X201751268Y-141390730D01*
X201873945Y-141244923D01*
X202018554Y-141082917D01*
X202055970Y-141042414D01*
X202451305Y-140617455D01*
X202476339Y-140341778D01*
X202492294Y-140179236D01*
X202508558Y-140034328D01*
X202519697Y-139951405D01*
X202524906Y-139868743D01*
X202512097Y-139836709D01*
X202463689Y-139848681D01*
X202354405Y-139880902D01*
X202202695Y-139927829D01*
X202095564Y-139961832D01*
X201840296Y-140037196D01*
X201649262Y-140077070D01*
X201511394Y-140081848D01*
X201415624Y-140051924D01*
X201351290Y-139988316D01*
X201317109Y-139913898D01*
X201316392Y-139857891D01*
X201400144Y-139857891D01*
X201412645Y-139948129D01*
X201489328Y-139993746D01*
X201631968Y-139995102D01*
X201842342Y-139952552D01*
X202122226Y-139866455D01*
X202137921Y-139861067D01*
X202311826Y-139798916D01*
X202455896Y-139743311D01*
X202551934Y-139701516D01*
X202581009Y-139684183D01*
X202605618Y-139623776D01*
X202628974Y-139514507D01*
X202635422Y-139469645D01*
X202644044Y-139380938D01*
X202635441Y-139315363D01*
X202597903Y-139254043D01*
X202586133Y-139242610D01*
X202667921Y-139242610D01*
X202908439Y-139431572D01*
X203275966Y-139682479D01*
X203717772Y-139917325D01*
X203999877Y-140042309D01*
X204357754Y-140220840D01*
X204642873Y-140428425D01*
X204843866Y-140651353D01*
X204974136Y-140836168D01*
X205123049Y-140725564D01*
X205234520Y-140639642D01*
X205376433Y-140526088D01*
X205500639Y-140423946D01*
X205813747Y-140150319D01*
X206104526Y-139872921D01*
X206356871Y-139607835D01*
X206554210Y-139371761D01*
X206659487Y-139235070D01*
X206725486Y-139157481D01*
X206762912Y-139131313D01*
X206782474Y-139148890D01*
X206794342Y-139199553D01*
X206814540Y-139264441D01*
X206859650Y-139309476D01*
X206949200Y-139347096D01*
X207086296Y-139385506D01*
X207312564Y-139437432D01*
X207475259Y-139456961D01*
X207587899Y-139443558D01*
X207664001Y-139396687D01*
X207691951Y-139361487D01*
X207730270Y-139230257D01*
X207704569Y-139064631D01*
X207620011Y-138876813D01*
X207481760Y-138679007D01*
X207337158Y-138522916D01*
X207164141Y-138356085D01*
X207052206Y-138484174D01*
X206952891Y-138603556D01*
X206860282Y-138723514D01*
X206852727Y-138733921D01*
X206765183Y-138855580D01*
X206691329Y-138288525D01*
X206617476Y-137721471D01*
X206368330Y-137799014D01*
X206233043Y-137836483D01*
X206129878Y-137856521D01*
X206085619Y-137855813D01*
X206065102Y-137806863D01*
X206042885Y-137697776D01*
X206023599Y-137551587D01*
X206022704Y-137542816D01*
X205971507Y-137279666D01*
X205874810Y-137079436D01*
X205728999Y-136940167D01*
X205530463Y-136859897D01*
X205275588Y-136836666D01*
X204960760Y-136868514D01*
X204827201Y-136894108D01*
X204567088Y-136962809D01*
X204363537Y-137051313D01*
X204190007Y-137172218D01*
X204131772Y-137224219D01*
X203964163Y-137425655D01*
X203861871Y-137646677D01*
X203833046Y-137836391D01*
X203833046Y-138008197D01*
X203697496Y-137978891D01*
X203517641Y-137918534D01*
X203285693Y-137805629D01*
X203010510Y-137644579D01*
X202957746Y-137611249D01*
X202840516Y-137537946D01*
X202756190Y-137488102D01*
X202723705Y-137472710D01*
X202721020Y-137514678D01*
X202716470Y-137627751D01*
X202710474Y-137799649D01*
X202703455Y-138018092D01*
X202695835Y-138270800D01*
X202693208Y-138361417D01*
X202667921Y-139242610D01*
X202586133Y-139242610D01*
X202519721Y-139178097D01*
X202389184Y-139068648D01*
X202384101Y-139064455D01*
X202255660Y-138964679D01*
X202149487Y-138893554D01*
X202082683Y-138862104D01*
X202071288Y-138862779D01*
X202022974Y-138911597D01*
X201940991Y-139012812D01*
X201837729Y-139149273D01*
X201725579Y-139303832D01*
X201616930Y-139459338D01*
X201524172Y-139598640D01*
X201459696Y-139704591D01*
X201450048Y-139722677D01*
X201400144Y-139857891D01*
X201316392Y-139857891D01*
X201316046Y-139830915D01*
X201352948Y-139724849D01*
X201432661Y-139581180D01*
X201545193Y-139407459D01*
X201784787Y-139076661D01*
X202070328Y-138732788D01*
X202367496Y-138409334D01*
X202635056Y-138128921D01*
X202611897Y-136991271D01*
X202597533Y-136470073D01*
X202584215Y-136187284D01*
X202684658Y-136187284D01*
X202698998Y-136759047D01*
X202713337Y-137330810D01*
X202988804Y-137504783D01*
X203157660Y-137606498D01*
X203333551Y-137704679D01*
X203475670Y-137776744D01*
X203687069Y-137874731D01*
X203732459Y-137698331D01*
X203778842Y-137550824D01*
X203835252Y-137412402D01*
X203846062Y-137390567D01*
X203959831Y-137234988D01*
X204128549Y-137081162D01*
X204326050Y-136950291D01*
X204475372Y-136880681D01*
X204603211Y-136825591D01*
X204667719Y-136773838D01*
X204686951Y-136710463D01*
X204687067Y-136705277D01*
X204719796Y-136622507D01*
X204819822Y-136570683D01*
X204992939Y-136547020D01*
X205018432Y-136545957D01*
X205166588Y-136506478D01*
X205261400Y-136406654D01*
X205292816Y-136265703D01*
X205271020Y-136151633D01*
X205199163Y-136081018D01*
X205067546Y-136048703D01*
X204883977Y-136048448D01*
X204746565Y-136052313D01*
X204671721Y-136040284D01*
X204639342Y-136007603D01*
X204634094Y-135989294D01*
X204657063Y-135919105D01*
X204748878Y-135868641D01*
X204896411Y-135842183D01*
X205080918Y-135843553D01*
X205281723Y-135887337D01*
X205417028Y-135982238D01*
X205488439Y-136129823D01*
X205501355Y-136254242D01*
X205485108Y-136394391D01*
X205443427Y-136526332D01*
X205386903Y-136625520D01*
X205326126Y-136667409D01*
X205323026Y-136667561D01*
X205303597Y-136682803D01*
X205334524Y-136708630D01*
X205420186Y-136738103D01*
X205526468Y-136749699D01*
X205682716Y-136786105D01*
X205841963Y-136881571D01*
X205976434Y-137017625D01*
X206013996Y-137073949D01*
X206061967Y-137192234D01*
X206100702Y-137351483D01*
X206115993Y-137460789D01*
X206131917Y-137595984D01*
X206150228Y-137692941D01*
X206164151Y-137726878D01*
X206221865Y-137726410D01*
X206321318Y-137700228D01*
X206433782Y-137659162D01*
X206530527Y-137614043D01*
X206582825Y-137575704D01*
X206585598Y-137567990D01*
X206577987Y-137513185D01*
X206557146Y-137391487D01*
X206525898Y-137217861D01*
X206487067Y-137007269D01*
X206443475Y-136774676D01*
X206397944Y-136535045D01*
X206353297Y-136303340D01*
X206312357Y-136094525D01*
X206277947Y-135923564D01*
X206254337Y-135811914D01*
X206191073Y-135550289D01*
X206126043Y-135323615D01*
X206063406Y-135143940D01*
X206007325Y-135023309D01*
X205965205Y-134974877D01*
X205899772Y-134962697D01*
X205768875Y-134949671D01*
X205590431Y-134937232D01*
X205382360Y-134926810D01*
X205344235Y-134925300D01*
X205074943Y-134918437D01*
X204864977Y-134922096D01*
X204690748Y-134937660D01*
X204528668Y-134966517D01*
X204489226Y-134975510D01*
X204122936Y-135092587D01*
X203753173Y-135266143D01*
X203401387Y-135482882D01*
X203089030Y-135729507D01*
X202837550Y-135992722D01*
X202827217Y-136005750D01*
X202684658Y-136187284D01*
X202584215Y-136187284D01*
X202576031Y-136013525D01*
X202545592Y-135603034D01*
X202504419Y-135220005D01*
X202450711Y-134845845D01*
X202382672Y-134461960D01*
X202352350Y-134308002D01*
X202247783Y-133861899D01*
X202119346Y-133433121D01*
X201972289Y-133034242D01*
X201811859Y-132677833D01*
X201643303Y-132376466D01*
X201471871Y-132142715D01*
X201429136Y-132096273D01*
X201334655Y-131997605D01*
X201268869Y-131926126D01*
X201247168Y-131899106D01*
X201285435Y-131893320D01*
X201388343Y-131897973D01*
X201538048Y-131911065D01*
X201716709Y-131930594D01*
X201906482Y-131954562D01*
X202089526Y-131980966D01*
X202247997Y-132007808D01*
X202289860Y-132016010D01*
X202823252Y-132151362D01*
X203350562Y-132334697D01*
X203851194Y-132557190D01*
X204304553Y-132810016D01*
X204577016Y-132996025D01*
X204806020Y-133181851D01*
X205045826Y-133401555D01*
X205276128Y-133634648D01*
X205476618Y-133860644D01*
X205619068Y-134047301D01*
X205758926Y-134277730D01*
X205903812Y-134559065D01*
X206039580Y-134861033D01*
X206152087Y-135153358D01*
X206190146Y-135269714D01*
X206232321Y-135424560D01*
X206285423Y-135645202D01*
X206346073Y-135915255D01*
X206410892Y-136218334D01*
X206476503Y-136538056D01*
X206539526Y-136858036D01*
X206596582Y-137161890D01*
X206644293Y-137433234D01*
X206672140Y-137607065D01*
X206722645Y-137942446D01*
X206952024Y-138107558D01*
X207154699Y-138265951D01*
X207350119Y-138441014D01*
X207522211Y-138616502D01*
X207654904Y-138776172D01*
X207725789Y-138889575D01*
X207792355Y-139082943D01*
X207806666Y-139259645D01*
X207769024Y-139401232D01*
X207716297Y-139466137D01*
X207626398Y-139519349D01*
X207516127Y-139540037D01*
X207366344Y-139528916D01*
X207159237Y-139487018D01*
X206919417Y-139430583D01*
X206922825Y-139581511D01*
X206927787Y-139680241D01*
X206938871Y-139840638D01*
X206954485Y-140041311D01*
X206973038Y-140260868D01*
X206974959Y-140282644D01*
X207023686Y-140832849D01*
X207467568Y-141125793D01*
X207772506Y-141341809D01*
X207998037Y-141534897D01*
X208144051Y-141704891D01*
X208210438Y-141851627D01*
X208197085Y-141974938D01*
X208103884Y-142074659D01*
X208102799Y-142075372D01*
X207989553Y-142118129D01*
X207816392Y-142146515D01*
X207605703Y-142159759D01*
X207379869Y-142157087D01*
X207161278Y-142137725D01*
X207019858Y-142112771D01*
X206838350Y-142064050D01*
X206633373Y-141998035D01*
X206495239Y-141946914D01*
X206325819Y-141890110D01*
X206156127Y-141850780D01*
X206040283Y-141838317D01*
X205889577Y-141831353D01*
X205660274Y-141811177D01*
X205356069Y-141778215D01*
X205154864Y-141753926D01*
X206242057Y-141753926D01*
X206437059Y-141837514D01*
X206642989Y-141915584D01*
X206881329Y-141990887D01*
X207105903Y-142049243D01*
X207169663Y-142062468D01*
X207295597Y-142075582D01*
X207460619Y-142078522D01*
X207641621Y-142072681D01*
X207815497Y-142059453D01*
X207959141Y-142040232D01*
X208049446Y-142016413D01*
X208062669Y-142008590D01*
X208119658Y-141917701D01*
X208100398Y-141802177D01*
X208004362Y-141661363D01*
X207831019Y-141494601D01*
X207579840Y-141301238D01*
X207384160Y-141167289D01*
X207191946Y-141043343D01*
X207056114Y-140963854D01*
X206966018Y-140923619D01*
X206911016Y-140917437D01*
X206891858Y-140926674D01*
X206842731Y-140982462D01*
X206763751Y-141087790D01*
X206670214Y-141222061D01*
X206649613Y-141252822D01*
X206545281Y-141402648D01*
X206442088Y-141539114D01*
X206360512Y-141635282D01*
X206353069Y-141642914D01*
X206242057Y-141753926D01*
X205154864Y-141753926D01*
X204980656Y-141732896D01*
X204537732Y-141675643D01*
G37*
G36*
X204073346Y-135662945D02*
G01*
X204178411Y-135704260D01*
X204196499Y-135719562D01*
X204253920Y-135827671D01*
X204250488Y-135952018D01*
X204196756Y-136066725D01*
X204103277Y-136145914D01*
X204014267Y-136166430D01*
X203911711Y-136137639D01*
X203833046Y-136083015D01*
X203770674Y-135993785D01*
X203749631Y-135920088D01*
X203769957Y-135861886D01*
X203833046Y-135862391D01*
X203901389Y-135859610D01*
X203916461Y-135816779D01*
X203891240Y-135758293D01*
X203866412Y-135749353D01*
X203838288Y-135735335D01*
X203863284Y-135702432D01*
X203954177Y-135661609D01*
X204073346Y-135662945D01*
G37*
G36*
X205730241Y-135386661D02*
G01*
X205791875Y-135468121D01*
X205832355Y-135558848D01*
X205824048Y-135632962D01*
X205791998Y-135697218D01*
X205715329Y-135786086D01*
X205598495Y-135822603D01*
X205579890Y-135824450D01*
X205463108Y-135818433D01*
X205389529Y-135784336D01*
X205388193Y-135782743D01*
X205341459Y-135700249D01*
X205314657Y-135630539D01*
X205301709Y-135561154D01*
X205335995Y-135550314D01*
X205368604Y-135559247D01*
X205452776Y-135560236D01*
X205488460Y-135515097D01*
X205460822Y-135450189D01*
X205440039Y-135432299D01*
X205394012Y-135391034D01*
X205416562Y-135367261D01*
X205472076Y-135351517D01*
X205622678Y-135336977D01*
X205730241Y-135386661D01*
G37*
%TO.C,C3*%
X204223252Y-68099000D02*
X203700748Y-68099000D01*
X204223252Y-69569000D02*
X203700748Y-69569000D01*
%TO.C,R3*%
X219228936Y-75211000D02*
X219683064Y-75211000D01*
X219228936Y-76681000D02*
X219683064Y-76681000D01*
%TO.C,C4*%
X203969252Y-75211000D02*
X203446748Y-75211000D01*
X203969252Y-76681000D02*
X203446748Y-76681000D01*
%TD*%
M02*
