%TF.GenerationSoftware,KiCad,Pcbnew,(6.0.0-0)*%
%TF.CreationDate,2022-02-15T20:26:30+01:00*%
%TF.ProjectId,burrboard,62757272-626f-4617-9264-2e6b69636164,v3.0*%
%TF.SameCoordinates,Original*%
%TF.FileFunction,AssemblyDrawing,Bot*%
%FSLAX46Y46*%
G04 Gerber Fmt 4.6, Leading zero omitted, Abs format (unit mm)*
G04 Created by KiCad (PCBNEW (6.0.0-0)) date 2022-02-15 20:26:30*
%MOMM*%
%LPD*%
G01*
G04 APERTURE LIST*
%TA.AperFunction,Profile*%
%ADD10C,0.050000*%
%TD*%
%ADD11C,0.150000*%
%ADD12C,0.100000*%
G04 APERTURE END LIST*
D10*
X178892200Y-64566800D02*
X178892200Y-140766800D01*
X229692200Y-64566800D02*
G75*
G03*
X227152200Y-62026800I-2540001J-1D01*
G01*
X181432200Y-143306800D02*
X227152200Y-143306800D01*
X227152200Y-62026800D02*
X181432200Y-62026800D01*
X229692200Y-140766800D02*
X229692200Y-64566800D01*
X227152200Y-143306800D02*
G75*
G03*
X229692200Y-140766800I-1J2540001D01*
G01*
X178892200Y-140766800D02*
G75*
G03*
X181432200Y-143306800I2540001J1D01*
G01*
X181432200Y-62026800D02*
G75*
G03*
X178892200Y-64566800I1J-2540001D01*
G01*
D11*
%TO.C,BT1*%
X224031771Y-113169771D02*
X224079390Y-113312628D01*
X224127009Y-113360247D01*
X224222247Y-113407866D01*
X224365104Y-113407866D01*
X224460342Y-113360247D01*
X224507961Y-113312628D01*
X224555580Y-113217390D01*
X224555580Y-112836438D01*
X223555580Y-112836438D01*
X223555580Y-113169771D01*
X223603200Y-113265009D01*
X223650819Y-113312628D01*
X223746057Y-113360247D01*
X223841295Y-113360247D01*
X223936533Y-113312628D01*
X223984152Y-113265009D01*
X224031771Y-113169771D01*
X224031771Y-112836438D01*
X224555580Y-114265009D02*
X224031771Y-114265009D01*
X223936533Y-114217390D01*
X223888914Y-114122152D01*
X223888914Y-113931676D01*
X223936533Y-113836438D01*
X224507961Y-114265009D02*
X224555580Y-114169771D01*
X224555580Y-113931676D01*
X224507961Y-113836438D01*
X224412723Y-113788819D01*
X224317485Y-113788819D01*
X224222247Y-113836438D01*
X224174628Y-113931676D01*
X224174628Y-114169771D01*
X224127009Y-114265009D01*
X223888914Y-114598342D02*
X223888914Y-114979295D01*
X223555580Y-114741200D02*
X224412723Y-114741200D01*
X224507961Y-114788819D01*
X224555580Y-114884057D01*
X224555580Y-114979295D01*
X223888914Y-115169771D02*
X223888914Y-115550723D01*
X223555580Y-115312628D02*
X224412723Y-115312628D01*
X224507961Y-115360247D01*
X224555580Y-115455485D01*
X224555580Y-115550723D01*
X224507961Y-116265009D02*
X224555580Y-116169771D01*
X224555580Y-115979295D01*
X224507961Y-115884057D01*
X224412723Y-115836438D01*
X224031771Y-115836438D01*
X223936533Y-115884057D01*
X223888914Y-115979295D01*
X223888914Y-116169771D01*
X223936533Y-116265009D01*
X224031771Y-116312628D01*
X224127009Y-116312628D01*
X224222247Y-115836438D01*
X224555580Y-116741200D02*
X223888914Y-116741200D01*
X224079390Y-116741200D02*
X223984152Y-116788819D01*
X223936533Y-116836438D01*
X223888914Y-116931676D01*
X223888914Y-117026914D01*
X223888914Y-117265009D02*
X224555580Y-117503104D01*
X223888914Y-117741200D02*
X224555580Y-117503104D01*
X224793676Y-117407866D01*
X224841295Y-117360247D01*
X224888914Y-117265009D01*
X204286771Y-114455485D02*
X204334390Y-114598342D01*
X204382009Y-114645961D01*
X204477247Y-114693580D01*
X204620104Y-114693580D01*
X204715342Y-114645961D01*
X204762961Y-114598342D01*
X204810580Y-114503104D01*
X204810580Y-114122152D01*
X203810580Y-114122152D01*
X203810580Y-114455485D01*
X203858200Y-114550723D01*
X203905819Y-114598342D01*
X204001057Y-114645961D01*
X204096295Y-114645961D01*
X204191533Y-114598342D01*
X204239152Y-114550723D01*
X204286771Y-114455485D01*
X204286771Y-114122152D01*
X203810580Y-114979295D02*
X203810580Y-115550723D01*
X204810580Y-115265009D02*
X203810580Y-115265009D01*
X204810580Y-116407866D02*
X204810580Y-115836438D01*
X204810580Y-116122152D02*
X203810580Y-116122152D01*
X203953438Y-116026914D01*
X204048676Y-115931676D01*
X204096295Y-115836438D01*
%TO.C,S3*%
X188207047Y-66918571D02*
X187873714Y-66918571D01*
X187730857Y-67442380D02*
X188207047Y-67442380D01*
X188207047Y-66442380D01*
X187730857Y-66442380D01*
X186778476Y-66490000D02*
X186873714Y-66442380D01*
X187016571Y-66442380D01*
X187159428Y-66490000D01*
X187254666Y-66585238D01*
X187302285Y-66680476D01*
X187349904Y-66870952D01*
X187349904Y-67013809D01*
X187302285Y-67204285D01*
X187254666Y-67299523D01*
X187159428Y-67394761D01*
X187016571Y-67442380D01*
X186921333Y-67442380D01*
X186778476Y-67394761D01*
X186730857Y-67347142D01*
X186730857Y-67013809D01*
X186921333Y-67013809D01*
X185778476Y-67442380D02*
X186349904Y-67442380D01*
X186064190Y-67442380D02*
X186064190Y-66442380D01*
X186159428Y-66585238D01*
X186254666Y-66680476D01*
X186349904Y-66728095D01*
X185397523Y-66537619D02*
X185349904Y-66490000D01*
X185254666Y-66442380D01*
X185016571Y-66442380D01*
X184921333Y-66490000D01*
X184873714Y-66537619D01*
X184826095Y-66632857D01*
X184826095Y-66728095D01*
X184873714Y-66870952D01*
X185445142Y-67442380D01*
X184826095Y-67442380D01*
X183873714Y-67442380D02*
X184445142Y-67442380D01*
X184159428Y-67442380D02*
X184159428Y-66442380D01*
X184254666Y-66585238D01*
X184349904Y-66680476D01*
X184445142Y-66728095D01*
X183302285Y-66870952D02*
X183397523Y-66823333D01*
X183445142Y-66775714D01*
X183492761Y-66680476D01*
X183492761Y-66632857D01*
X183445142Y-66537619D01*
X183397523Y-66490000D01*
X183302285Y-66442380D01*
X183111809Y-66442380D01*
X183016571Y-66490000D01*
X182968952Y-66537619D01*
X182921333Y-66632857D01*
X182921333Y-66680476D01*
X182968952Y-66775714D01*
X183016571Y-66823333D01*
X183111809Y-66870952D01*
X183302285Y-66870952D01*
X183397523Y-66918571D01*
X183445142Y-66966190D01*
X183492761Y-67061428D01*
X183492761Y-67251904D01*
X183445142Y-67347142D01*
X183397523Y-67394761D01*
X183302285Y-67442380D01*
X183111809Y-67442380D01*
X183016571Y-67394761D01*
X182968952Y-67347142D01*
X182921333Y-67251904D01*
X182921333Y-67061428D01*
X182968952Y-66966190D01*
X183016571Y-66918571D01*
X183111809Y-66870952D01*
X186729904Y-65394761D02*
X186587047Y-65442380D01*
X186348952Y-65442380D01*
X186253714Y-65394761D01*
X186206095Y-65347142D01*
X186158476Y-65251904D01*
X186158476Y-65156666D01*
X186206095Y-65061428D01*
X186253714Y-65013809D01*
X186348952Y-64966190D01*
X186539428Y-64918571D01*
X186634666Y-64870952D01*
X186682285Y-64823333D01*
X186729904Y-64728095D01*
X186729904Y-64632857D01*
X186682285Y-64537619D01*
X186634666Y-64490000D01*
X186539428Y-64442380D01*
X186301333Y-64442380D01*
X186158476Y-64490000D01*
X185825142Y-64442380D02*
X185206095Y-64442380D01*
X185539428Y-64823333D01*
X185396571Y-64823333D01*
X185301333Y-64870952D01*
X185253714Y-64918571D01*
X185206095Y-65013809D01*
X185206095Y-65251904D01*
X185253714Y-65347142D01*
X185301333Y-65394761D01*
X185396571Y-65442380D01*
X185682285Y-65442380D01*
X185777523Y-65394761D01*
X185825142Y-65347142D01*
D12*
%TO.C,BT1*%
X223108200Y-88926200D02*
X186608200Y-88926200D01*
X186608200Y-88926200D02*
X185608200Y-89926200D01*
X185608200Y-141556200D02*
X223108200Y-141556200D01*
X185608200Y-89926200D02*
X185608200Y-141556200D01*
X223108200Y-141556200D02*
X223108200Y-88926200D01*
%TO.C,S3*%
X191888000Y-66990000D02*
X191888000Y-62990000D01*
X191888000Y-66990000D02*
X180288000Y-66990000D01*
X191888000Y-62990000D02*
X180288000Y-62990000D01*
X180288000Y-66990000D02*
X180288000Y-62990000D01*
%TD*%
M02*
