%TF.GenerationSoftware,KiCad,Pcbnew,(6.0.0-0)*%
%TF.CreationDate,2022-03-04T14:44:25+01:00*%
%TF.ProjectId,burrboard,62757272-626f-4617-9264-2e6b69636164,v3.0*%
%TF.SameCoordinates,Original*%
%TF.FileFunction,Other,User*%
%FSLAX46Y46*%
G04 Gerber Fmt 4.6, Leading zero omitted, Abs format (unit mm)*
G04 Created by KiCad (PCBNEW (6.0.0-0)) date 2022-03-04 14:44:25*
%MOMM*%
%LPD*%
G01*
G04 APERTURE LIST*
%TA.AperFunction,Profile*%
%ADD10C,0.050000*%
%TD*%
%ADD11C,0.050000*%
G04 APERTURE END LIST*
D10*
X178892200Y-64566800D02*
X178892200Y-140766800D01*
X229692200Y-64566800D02*
G75*
G03*
X227152200Y-62026800I-2540001J-1D01*
G01*
X181432200Y-143306800D02*
X227152200Y-143306800D01*
X227152200Y-62026800D02*
X181432200Y-62026800D01*
X229692200Y-140766800D02*
X229692200Y-64566800D01*
X227152200Y-143306800D02*
G75*
G03*
X229692200Y-140766800I-1J2540001D01*
G01*
X178892200Y-140766800D02*
G75*
G03*
X181432200Y-143306800I2540001J1D01*
G01*
X181432200Y-62026800D02*
G75*
G03*
X178892200Y-64566800I1J-2540001D01*
G01*
D11*
%TO.C,S2*%
X218360000Y-126112200D02*
X208360000Y-126112200D01*
X218360000Y-126112200D02*
X218360000Y-132612200D01*
X218360000Y-132612200D02*
X208360000Y-132612200D01*
X208360000Y-126112200D02*
X208360000Y-132612200D01*
%TO.C,Q1*%
X222464000Y-109758800D02*
X227624000Y-109758800D01*
X222464000Y-107258800D02*
X222464000Y-109758800D01*
X227624000Y-107258800D02*
X227624000Y-109758800D01*
X222464000Y-107258800D02*
X227624000Y-107258800D01*
%TO.C,S1*%
X200580000Y-126112200D02*
X200580000Y-132612200D01*
X190580000Y-126112200D02*
X190580000Y-132612200D01*
X200580000Y-132612200D02*
X190580000Y-132612200D01*
X200580000Y-126112200D02*
X190580000Y-126112200D01*
%TO.C,J1*%
X183442200Y-83086800D02*
X225142200Y-83086800D01*
X225142200Y-83086800D02*
X225142200Y-86636800D01*
X225142200Y-86636800D02*
X183442200Y-86636800D01*
X183442200Y-86636800D02*
X183442200Y-83086800D01*
%TO.C,J2*%
X225142200Y-66316800D02*
X193642200Y-66316800D01*
X193642200Y-66316800D02*
X193642200Y-62766800D01*
X225142200Y-62766800D02*
X225142200Y-66316800D01*
X193642200Y-62766800D02*
X225142200Y-62766800D01*
%TO.C,D2*%
X200689000Y-91882000D02*
X197329000Y-91882000D01*
X197329000Y-91882000D02*
X197329000Y-89982000D01*
X200689000Y-89982000D02*
X200689000Y-91882000D01*
X197329000Y-89982000D02*
X200689000Y-89982000D01*
%TO.C,D4*%
X222660000Y-89982000D02*
X222660000Y-91882000D01*
X219300000Y-91882000D02*
X219300000Y-89982000D01*
X219300000Y-89982000D02*
X222660000Y-89982000D01*
X222660000Y-91882000D02*
X219300000Y-91882000D01*
%TO.C,R4*%
X184541200Y-124870000D02*
X182641200Y-124870000D01*
X184541200Y-121510000D02*
X184541200Y-124870000D01*
X182641200Y-124870000D02*
X182641200Y-121510000D01*
X182641200Y-121510000D02*
X184541200Y-121510000D01*
%TO.C,R8*%
X225486000Y-90834000D02*
X223586000Y-90834000D01*
X223586000Y-90834000D02*
X223586000Y-87474000D01*
X225486000Y-87474000D02*
X225486000Y-90834000D01*
X223586000Y-87474000D02*
X225486000Y-87474000D01*
%TO.C,R7*%
X203464200Y-86813600D02*
X203464200Y-90173600D01*
X203464200Y-90173600D02*
X201564200Y-90173600D01*
X201564200Y-86813600D02*
X203464200Y-86813600D01*
X201564200Y-90173600D02*
X201564200Y-86813600D01*
%TO.C,R1*%
X223364000Y-115130000D02*
X223364000Y-113230000D01*
X223364000Y-113230000D02*
X226724000Y-113230000D01*
X226724000Y-113230000D02*
X226724000Y-115130000D01*
X226724000Y-115130000D02*
X223364000Y-115130000D01*
%TO.C,R5*%
X225994000Y-121510000D02*
X225994000Y-124870000D01*
X224094000Y-121510000D02*
X225994000Y-121510000D01*
X224094000Y-124870000D02*
X224094000Y-121510000D01*
X225994000Y-124870000D02*
X224094000Y-124870000D01*
%TO.C,U1*%
X180891200Y-104808800D02*
X180891200Y-112208800D01*
X186291200Y-104808800D02*
X180891200Y-104808800D01*
X180891200Y-112208800D02*
X186291200Y-112208800D01*
X186291200Y-112208800D02*
X186291200Y-104808800D01*
%TO.C,C1*%
X181891200Y-115148800D02*
X185291200Y-115148800D01*
X181891200Y-117108800D02*
X181891200Y-115148800D01*
X185291200Y-117108800D02*
X181891200Y-117108800D01*
X185291200Y-115148800D02*
X185291200Y-117108800D01*
%TO.C,R6*%
X194807800Y-90199000D02*
X194807800Y-86839000D01*
X196707800Y-90199000D02*
X194807800Y-90199000D01*
X196707800Y-86839000D02*
X196707800Y-90199000D01*
X194807800Y-86839000D02*
X196707800Y-86839000D01*
%TO.C,D1*%
X186280000Y-91882000D02*
X186280000Y-89982000D01*
X189640000Y-89982000D02*
X189640000Y-91882000D01*
X186280000Y-89982000D02*
X189640000Y-89982000D01*
X189640000Y-91882000D02*
X186280000Y-91882000D01*
%TO.C,R2*%
X214086400Y-87474000D02*
X215986400Y-87474000D01*
X215986400Y-90834000D02*
X214086400Y-90834000D01*
X214086400Y-90834000D02*
X214086400Y-87474000D01*
X215986400Y-87474000D02*
X215986400Y-90834000D01*
%TO.C,D3*%
X208378000Y-89982000D02*
X211738000Y-89982000D01*
X211738000Y-91882000D02*
X208378000Y-91882000D01*
X208378000Y-91882000D02*
X208378000Y-89982000D01*
X211738000Y-89982000D02*
X211738000Y-91882000D01*
%TO.C,R9*%
X221390000Y-69916000D02*
X221390000Y-71816000D01*
X218030000Y-71816000D02*
X218030000Y-69916000D01*
X221390000Y-71816000D02*
X218030000Y-71816000D01*
X218030000Y-69916000D02*
X221390000Y-69916000D01*
%TO.C,R11*%
X189531200Y-76266000D02*
X192891200Y-76266000D01*
X192891200Y-76266000D02*
X192891200Y-78166000D01*
X189531200Y-78166000D02*
X189531200Y-76266000D01*
X192891200Y-78166000D02*
X189531200Y-78166000D01*
%TO.C,D5*%
X179890000Y-79895000D02*
X179890000Y-74745000D01*
X179890000Y-74745000D02*
X183230000Y-74745000D01*
X183230000Y-74745000D02*
X183230000Y-79895000D01*
X183230000Y-79895000D02*
X179890000Y-79895000D01*
%TO.C,R10*%
X184756000Y-78166000D02*
X184756000Y-76266000D01*
X184756000Y-76266000D02*
X188116000Y-76266000D01*
X188116000Y-76266000D02*
X188116000Y-78166000D01*
X188116000Y-78166000D02*
X184756000Y-78166000D01*
%TO.C,C5*%
X197280000Y-78240000D02*
X193880000Y-78240000D01*
X193880000Y-78240000D02*
X193880000Y-76280000D01*
X197280000Y-76280000D02*
X197280000Y-78240000D01*
X193880000Y-76280000D02*
X197280000Y-76280000D01*
%TO.C,REF\u002A\u002A*%
X185780000Y-139192000D02*
G75*
G03*
X185780000Y-139192000I-2950000J0D01*
G01*
%TO.C,U2*%
X206800000Y-74315000D02*
X206800000Y-70465000D01*
X206800000Y-70465000D02*
X212300000Y-70465000D01*
X212300000Y-74315000D02*
X206800000Y-74315000D01*
X212300000Y-70465000D02*
X212300000Y-74315000D01*
%TO.C,REF\u002A\u002A*%
X228880000Y-139192000D02*
G75*
G03*
X228880000Y-139192000I-2950000J0D01*
G01*
%TO.C,C2*%
X201966000Y-70436000D02*
X203926000Y-70436000D01*
X203926000Y-70436000D02*
X203926000Y-73836000D01*
X201966000Y-73836000D02*
X201966000Y-70436000D01*
X203926000Y-73836000D02*
X201966000Y-73836000D01*
%TO.C,C3*%
X205662000Y-69814000D02*
X202262000Y-69814000D01*
X202262000Y-67854000D02*
X205662000Y-67854000D01*
X205662000Y-67854000D02*
X205662000Y-69814000D01*
X202262000Y-69814000D02*
X202262000Y-67854000D01*
%TO.C,R3*%
X221136000Y-74996000D02*
X221136000Y-76896000D01*
X217776000Y-76896000D02*
X217776000Y-74996000D01*
X221136000Y-76896000D02*
X217776000Y-76896000D01*
X217776000Y-74996000D02*
X221136000Y-74996000D01*
%TO.C,C4*%
X205408000Y-74966000D02*
X205408000Y-76926000D01*
X202008000Y-74966000D02*
X205408000Y-74966000D01*
X202008000Y-76926000D02*
X202008000Y-74966000D01*
X205408000Y-76926000D02*
X202008000Y-76926000D01*
%TD*%
M02*
