%TF.GenerationSoftware,KiCad,Pcbnew,(6.0.0-0)*%
%TF.CreationDate,2022-01-18T18:39:11+01:00*%
%TF.ProjectId,burrboard,62757272-626f-4617-9264-2e6b69636164,v2.0*%
%TF.SameCoordinates,Original*%
%TF.FileFunction,Copper,L2,Bot*%
%TF.FilePolarity,Positive*%
%FSLAX46Y46*%
G04 Gerber Fmt 4.6, Leading zero omitted, Abs format (unit mm)*
G04 Created by KiCad (PCBNEW (6.0.0-0)) date 2022-01-18 18:39:11*
%MOMM*%
%LPD*%
G01*
G04 APERTURE LIST*
%TA.AperFunction,ComponentPad*%
%ADD10R,1.700000X1.700000*%
%TD*%
%TA.AperFunction,ComponentPad*%
%ADD11O,1.700000X1.700000*%
%TD*%
%TA.AperFunction,ComponentPad*%
%ADD12R,1.900000X1.900000*%
%TD*%
%TA.AperFunction,ComponentPad*%
%ADD13C,1.900000*%
%TD*%
%TA.AperFunction,ComponentPad*%
%ADD14R,3.000000X3.000000*%
%TD*%
%TA.AperFunction,ComponentPad*%
%ADD15C,3.000000*%
%TD*%
%TA.AperFunction,ViaPad*%
%ADD16C,0.762000*%
%TD*%
%TA.AperFunction,Conductor*%
%ADD17C,0.254000*%
%TD*%
%TA.AperFunction,Conductor*%
%ADD18C,0.508000*%
%TD*%
%TA.AperFunction,Conductor*%
%ADD19C,0.304800*%
%TD*%
G04 APERTURE END LIST*
D10*
%TO.P,J1,1,Pin_1*%
%TO.N,unconnected-(J1-Pad1)*%
X223342200Y-84886800D03*
D11*
%TO.P,J1,2,Pin_2*%
%TO.N,unconnected-(J1-Pad2)*%
X220802200Y-84886800D03*
%TO.P,J1,3,Pin_3*%
%TO.N,unconnected-(J1-Pad3)*%
X218262200Y-84886800D03*
%TO.P,J1,4,Pin_4*%
%TO.N,unconnected-(J1-Pad4)*%
X215722200Y-84886800D03*
%TO.P,J1,5,Pin_5*%
%TO.N,unconnected-(J1-Pad5)*%
X213182200Y-84886800D03*
%TO.P,J1,6,Pin_6*%
%TO.N,unconnected-(J1-Pad6)*%
X210642200Y-84886800D03*
%TO.P,J1,7,Pin_7*%
%TO.N,/A5*%
X208102200Y-84886800D03*
%TO.P,J1,8,Pin_8*%
%TO.N,/A4*%
X205562200Y-84886800D03*
%TO.P,J1,9,Pin_9*%
%TO.N,/A3*%
X203022200Y-84886800D03*
%TO.P,J1,10,Pin_10*%
%TO.N,/A2*%
X200482200Y-84886800D03*
%TO.P,J1,11,Pin_11*%
%TO.N,/A1*%
X197942200Y-84886800D03*
%TO.P,J1,12,Pin_12*%
%TO.N,/A0*%
X195402200Y-84886800D03*
%TO.P,J1,13,Pin_13*%
%TO.N,GND*%
X192862200Y-84886800D03*
%TO.P,J1,14,Pin_14*%
%TO.N,unconnected-(J1-Pad14)*%
X190322200Y-84886800D03*
%TO.P,J1,15,Pin_15*%
%TO.N,/3V3*%
X187782200Y-84886800D03*
%TO.P,J1,16,Pin_16*%
%TO.N,unconnected-(J1-Pad16)*%
X185242200Y-84886800D03*
%TD*%
D10*
%TO.P,J2,1,Pin_1*%
%TO.N,/SDA*%
X223342200Y-64566800D03*
D11*
%TO.P,J2,2,Pin_2*%
%TO.N,/SCL*%
X220802200Y-64566800D03*
%TO.P,J2,3,Pin_3*%
%TO.N,/F0*%
X218262200Y-64566800D03*
%TO.P,J2,4,Pin_4*%
%TO.N,/F1*%
X215722200Y-64566800D03*
%TO.P,J2,5,Pin_5*%
%TO.N,/F2*%
X213182200Y-64566800D03*
%TO.P,J2,6,Pin_6*%
%TO.N,/F3*%
X210642200Y-64566800D03*
%TO.P,J2,7,Pin_7*%
%TO.N,/F4*%
X208102200Y-64566800D03*
%TO.P,J2,8,Pin_8*%
%TO.N,unconnected-(J2-Pad8)*%
X205562200Y-64566800D03*
%TO.P,J2,9,Pin_9*%
%TO.N,unconnected-(J2-Pad9)*%
X203022200Y-64566800D03*
%TO.P,J2,10,Pin_10*%
%TO.N,/VUSB*%
X200482200Y-64566800D03*
%TO.P,J2,11,Pin_11*%
%TO.N,/EN*%
X197942200Y-64566800D03*
%TO.P,J2,12,Pin_12*%
%TO.N,unconnected-(J2-Pad12)*%
X195402200Y-64566800D03*
%TD*%
D10*
%TO.P,J3,1,Pin_1*%
%TO.N,/VUSB*%
X182600600Y-90368200D03*
D11*
%TO.P,J3,2,Pin_2*%
%TO.N,VDD*%
X182600600Y-92908200D03*
%TD*%
D12*
%TO.P,S3,1,A*%
%TO.N,unconnected-(S3-Pad1)*%
X182499000Y-100431600D03*
D13*
%TO.P,S3,2,B*%
%TO.N,/EN*%
X182499000Y-102931600D03*
%TO.P,S3,3,C*%
%TO.N,GND*%
X182499000Y-105431600D03*
%TD*%
D14*
%TO.P,BT1,1,+*%
%TO.N,VDD*%
X192608200Y-89712800D03*
D15*
%TO.P,BT1,2,-*%
%TO.N,GND*%
X205308200Y-89712800D03*
%TD*%
D16*
%TO.N,/F0*%
X203606400Y-75895200D03*
%TO.N,/F1*%
X202234800Y-74726800D03*
%TO.N,/3V3*%
X214731600Y-72694800D03*
X211429600Y-70307200D03*
X201015600Y-68630800D03*
X219202000Y-110388400D03*
%TO.N,/F4*%
X191668400Y-82448400D03*
%TD*%
D17*
%TO.N,/F0*%
X214426800Y-75641200D02*
X214172800Y-75895200D01*
X218262200Y-64566800D02*
X218262200Y-71805800D01*
X214172800Y-75895200D02*
X203606400Y-75895200D01*
X218262200Y-71805800D02*
X214426800Y-75641200D01*
%TO.N,/F1*%
X213704698Y-74726800D02*
X202234800Y-74726800D01*
X215722200Y-72709298D02*
X213704698Y-74726800D01*
X215722200Y-64566800D02*
X215722200Y-72709298D01*
%TO.N,/3V3*%
X211429600Y-70307200D02*
X202692000Y-70307200D01*
X202692000Y-70307200D02*
X201015600Y-68630800D01*
X214731600Y-72694800D02*
X213817200Y-72694800D01*
X213817200Y-72694800D02*
X211429600Y-70307200D01*
D18*
%TO.N,VDD*%
X182600600Y-92908200D02*
X189412800Y-92908200D01*
X189412800Y-92908200D02*
X192608200Y-89712800D01*
D19*
%TO.N,/3V3*%
X187782200Y-84886800D02*
X189357000Y-86461600D01*
X193067222Y-86461600D02*
X216994022Y-110388400D01*
X216994022Y-110388400D02*
X219202000Y-110388400D01*
X189357000Y-86461600D02*
X193067222Y-86461600D01*
D18*
%TO.N,/VUSB*%
X182600600Y-90368200D02*
X182600600Y-82448400D01*
X182600600Y-82448400D02*
X200482200Y-64566800D01*
D17*
%TO.N,/F4*%
X202144102Y-66090800D02*
X207314800Y-66090800D01*
X208102200Y-65303400D02*
X208102200Y-64566800D01*
X207314800Y-66090800D02*
X208102200Y-65303400D01*
X191668400Y-82448400D02*
X191668400Y-76566502D01*
X191668400Y-76566502D02*
X202144102Y-66090800D01*
%TO.N,/EN*%
X182499000Y-102931600D02*
X179247410Y-99680010D01*
X179247410Y-99680010D02*
X179247410Y-83800070D01*
X197942200Y-65105280D02*
X197942200Y-64566800D01*
X179247410Y-83800070D02*
X197942200Y-65105280D01*
%TD*%
%TA.AperFunction,Conductor*%
%TO.N,GND*%
G36*
X229380321Y-62300802D02*
G01*
X229426814Y-62354458D01*
X229438200Y-62406800D01*
X229438200Y-140386800D01*
X229418198Y-140454921D01*
X229364542Y-140501414D01*
X229312200Y-140512800D01*
X179272200Y-140512800D01*
X179204079Y-140492798D01*
X179157586Y-140439142D01*
X179146200Y-140386800D01*
X179146200Y-113401628D01*
X190623889Y-113401628D01*
X190624133Y-113406063D01*
X190624133Y-113406067D01*
X190627076Y-113459533D01*
X190639293Y-113681531D01*
X190693982Y-113956471D01*
X190786865Y-114220962D01*
X190788918Y-114224913D01*
X190788920Y-114224919D01*
X190914036Y-114465778D01*
X190916088Y-114469728D01*
X190918671Y-114473343D01*
X190918675Y-114473349D01*
X191076485Y-114694183D01*
X191079073Y-114697804D01*
X191272569Y-114900639D01*
X191276065Y-114903395D01*
X191276066Y-114903396D01*
X191328233Y-114944521D01*
X191492714Y-115074188D01*
X191547087Y-115105770D01*
X191731269Y-115212752D01*
X191731275Y-115212755D01*
X191735116Y-115214986D01*
X191739239Y-115216656D01*
X191990812Y-115318554D01*
X191990815Y-115318555D01*
X191994938Y-115320225D01*
X191999251Y-115321296D01*
X191999256Y-115321298D01*
X192262676Y-115386732D01*
X192262681Y-115386733D01*
X192266997Y-115387805D01*
X192271425Y-115388259D01*
X192271427Y-115388259D01*
X192346109Y-115395911D01*
X192506072Y-115412300D01*
X192679607Y-115412300D01*
X192887826Y-115397557D01*
X192892181Y-115396619D01*
X192892184Y-115396619D01*
X193157526Y-115339493D01*
X193157528Y-115339493D01*
X193161873Y-115338557D01*
X193424873Y-115241531D01*
X193474070Y-115214986D01*
X193667662Y-115110529D01*
X193671578Y-115108416D01*
X193897066Y-114941868D01*
X194096837Y-114745210D01*
X194266907Y-114522367D01*
X194403880Y-114277783D01*
X194505025Y-114016339D01*
X194517926Y-113960683D01*
X194567317Y-113747592D01*
X194568323Y-113743253D01*
X194592511Y-113463972D01*
X194592267Y-113459533D01*
X194589080Y-113401628D01*
X214123889Y-113401628D01*
X214124133Y-113406063D01*
X214124133Y-113406067D01*
X214127076Y-113459533D01*
X214139293Y-113681531D01*
X214193982Y-113956471D01*
X214286865Y-114220962D01*
X214288918Y-114224913D01*
X214288920Y-114224919D01*
X214414036Y-114465778D01*
X214416088Y-114469728D01*
X214418671Y-114473343D01*
X214418675Y-114473349D01*
X214576485Y-114694183D01*
X214579073Y-114697804D01*
X214772569Y-114900639D01*
X214776065Y-114903395D01*
X214776066Y-114903396D01*
X214828233Y-114944521D01*
X214992714Y-115074188D01*
X215047087Y-115105770D01*
X215231269Y-115212752D01*
X215231275Y-115212755D01*
X215235116Y-115214986D01*
X215239239Y-115216656D01*
X215490812Y-115318554D01*
X215490815Y-115318555D01*
X215494938Y-115320225D01*
X215499251Y-115321296D01*
X215499256Y-115321298D01*
X215762676Y-115386732D01*
X215762681Y-115386733D01*
X215766997Y-115387805D01*
X215771425Y-115388259D01*
X215771427Y-115388259D01*
X215846109Y-115395911D01*
X216006072Y-115412300D01*
X216179607Y-115412300D01*
X216387826Y-115397557D01*
X216392181Y-115396619D01*
X216392184Y-115396619D01*
X216657526Y-115339493D01*
X216657528Y-115339493D01*
X216661873Y-115338557D01*
X216924873Y-115241531D01*
X216974070Y-115214986D01*
X217167662Y-115110529D01*
X217171578Y-115108416D01*
X217397066Y-114941868D01*
X217596837Y-114745210D01*
X217766907Y-114522367D01*
X217903880Y-114277783D01*
X218005025Y-114016339D01*
X218017926Y-113960683D01*
X218067317Y-113747592D01*
X218068323Y-113743253D01*
X218092511Y-113463972D01*
X218092267Y-113459533D01*
X218077352Y-113188512D01*
X218077351Y-113188505D01*
X218077107Y-113184069D01*
X218022418Y-112909129D01*
X217929535Y-112644638D01*
X217902174Y-112591964D01*
X217802364Y-112399822D01*
X217802363Y-112399820D01*
X217800312Y-112395872D01*
X217797729Y-112392257D01*
X217797725Y-112392251D01*
X217639915Y-112171417D01*
X217639912Y-112171413D01*
X217637327Y-112167796D01*
X217443831Y-111964961D01*
X217395506Y-111926864D01*
X217227182Y-111794168D01*
X217223686Y-111791412D01*
X217114620Y-111728062D01*
X216985131Y-111652848D01*
X216985125Y-111652845D01*
X216981284Y-111650614D01*
X216911943Y-111622528D01*
X216725588Y-111547046D01*
X216725585Y-111547045D01*
X216721462Y-111545375D01*
X216717149Y-111544304D01*
X216717144Y-111544302D01*
X216453724Y-111478868D01*
X216453719Y-111478867D01*
X216449403Y-111477795D01*
X216444975Y-111477341D01*
X216444973Y-111477341D01*
X216354222Y-111468043D01*
X216210328Y-111453300D01*
X216036793Y-111453300D01*
X215828574Y-111468043D01*
X215824219Y-111468981D01*
X215824216Y-111468981D01*
X215558874Y-111526107D01*
X215558872Y-111526107D01*
X215554527Y-111527043D01*
X215291527Y-111624069D01*
X215287609Y-111626183D01*
X215238190Y-111652848D01*
X215044822Y-111757184D01*
X214819334Y-111923732D01*
X214619563Y-112120390D01*
X214449493Y-112343233D01*
X214312520Y-112587817D01*
X214211375Y-112849261D01*
X214210372Y-112853586D01*
X214210371Y-112853591D01*
X214197498Y-112909129D01*
X214148077Y-113122347D01*
X214123889Y-113401628D01*
X194589080Y-113401628D01*
X194577352Y-113188512D01*
X194577351Y-113188505D01*
X194577107Y-113184069D01*
X194522418Y-112909129D01*
X194429535Y-112644638D01*
X194402174Y-112591964D01*
X194302364Y-112399822D01*
X194302363Y-112399820D01*
X194300312Y-112395872D01*
X194297729Y-112392257D01*
X194297725Y-112392251D01*
X194139915Y-112171417D01*
X194139912Y-112171413D01*
X194137327Y-112167796D01*
X193943831Y-111964961D01*
X193895506Y-111926864D01*
X193727182Y-111794168D01*
X193723686Y-111791412D01*
X193614620Y-111728062D01*
X193485131Y-111652848D01*
X193485125Y-111652845D01*
X193481284Y-111650614D01*
X193411943Y-111622528D01*
X193225588Y-111547046D01*
X193225585Y-111547045D01*
X193221462Y-111545375D01*
X193217149Y-111544304D01*
X193217144Y-111544302D01*
X192953724Y-111478868D01*
X192953719Y-111478867D01*
X192949403Y-111477795D01*
X192944975Y-111477341D01*
X192944973Y-111477341D01*
X192854222Y-111468043D01*
X192710328Y-111453300D01*
X192536793Y-111453300D01*
X192328574Y-111468043D01*
X192324219Y-111468981D01*
X192324216Y-111468981D01*
X192058874Y-111526107D01*
X192058872Y-111526107D01*
X192054527Y-111527043D01*
X191791527Y-111624069D01*
X191787609Y-111626183D01*
X191738190Y-111652848D01*
X191544822Y-111757184D01*
X191319334Y-111923732D01*
X191119563Y-112120390D01*
X190949493Y-112343233D01*
X190812520Y-112587817D01*
X190711375Y-112849261D01*
X190710372Y-112853586D01*
X190710371Y-112853591D01*
X190697498Y-112909129D01*
X190648077Y-113122347D01*
X190623889Y-113401628D01*
X179146200Y-113401628D01*
X179146200Y-106630500D01*
X181665358Y-106630500D01*
X181668661Y-106635160D01*
X181862399Y-106748371D01*
X181871686Y-106752821D01*
X182086006Y-106834662D01*
X182095908Y-106837539D01*
X182320699Y-106883273D01*
X182330951Y-106884496D01*
X182560202Y-106892902D01*
X182570488Y-106892435D01*
X182798043Y-106863284D01*
X182808129Y-106861141D01*
X183027864Y-106795217D01*
X183037459Y-106791456D01*
X183243466Y-106690535D01*
X183252332Y-106685250D01*
X183319945Y-106637021D01*
X183328346Y-106626321D01*
X183321358Y-106613168D01*
X182511812Y-105803622D01*
X182497868Y-105796008D01*
X182496035Y-105796139D01*
X182489420Y-105800390D01*
X181672635Y-106617175D01*
X181665358Y-106630500D01*
X179146200Y-106630500D01*
X179146200Y-105401012D01*
X181036737Y-105401012D01*
X181049944Y-105630051D01*
X181051377Y-105640253D01*
X181101810Y-105864042D01*
X181104898Y-105873895D01*
X181191204Y-106086440D01*
X181195852Y-106095641D01*
X181292736Y-106253743D01*
X181303192Y-106263204D01*
X181311970Y-106259420D01*
X182126978Y-105444412D01*
X182133356Y-105432732D01*
X182863408Y-105432732D01*
X182863539Y-105434565D01*
X182867790Y-105441180D01*
X183681130Y-106254520D01*
X183693141Y-106261079D01*
X183704880Y-106252111D01*
X183750012Y-106189302D01*
X183755327Y-106180457D01*
X183856966Y-105974806D01*
X183860765Y-105965211D01*
X183927453Y-105745720D01*
X183929632Y-105735639D01*
X183959813Y-105506389D01*
X183960332Y-105499714D01*
X183961915Y-105434964D01*
X183961721Y-105428247D01*
X183942776Y-105197806D01*
X183941093Y-105187644D01*
X183885204Y-104965139D01*
X183881883Y-104955384D01*
X183790409Y-104745010D01*
X183785531Y-104735912D01*
X183704384Y-104610476D01*
X183693698Y-104601274D01*
X183684133Y-104605677D01*
X182871022Y-105418788D01*
X182863408Y-105432732D01*
X182133356Y-105432732D01*
X182134592Y-105430468D01*
X182134461Y-105428635D01*
X182130210Y-105422020D01*
X181316884Y-104608694D01*
X181305348Y-104602394D01*
X181293065Y-104612018D01*
X181229849Y-104704689D01*
X181224756Y-104713653D01*
X181128163Y-104921745D01*
X181124606Y-104931413D01*
X181063299Y-105152479D01*
X181061368Y-105162599D01*
X181036989Y-105390723D01*
X181036737Y-105401012D01*
X179146200Y-105401012D01*
X179146200Y-100422512D01*
X179166202Y-100354391D01*
X179219858Y-100307898D01*
X179290132Y-100297794D01*
X179354712Y-100327288D01*
X179361295Y-100333417D01*
X181356016Y-102328138D01*
X181390042Y-102390450D01*
X181383375Y-102464967D01*
X181381420Y-102468683D01*
X181379709Y-102474193D01*
X181379707Y-102474198D01*
X181370559Y-102503661D01*
X181315774Y-102680098D01*
X181315095Y-102685833D01*
X181315095Y-102685834D01*
X181312098Y-102711157D01*
X181289755Y-102899935D01*
X181304233Y-103120833D01*
X181358724Y-103335393D01*
X181451404Y-103536430D01*
X181579167Y-103717211D01*
X181737736Y-103871682D01*
X181742532Y-103874887D01*
X181742535Y-103874889D01*
X181823560Y-103929028D01*
X181869088Y-103983505D01*
X181877936Y-104053948D01*
X181847294Y-104117992D01*
X181811738Y-104145556D01*
X181723993Y-104191233D01*
X181715268Y-104196727D01*
X181677248Y-104225274D01*
X181668795Y-104236599D01*
X181675540Y-104248930D01*
X182486188Y-105059578D01*
X182500132Y-105067192D01*
X182501965Y-105067061D01*
X182508580Y-105062810D01*
X183323590Y-104247800D01*
X183330611Y-104234943D01*
X183322838Y-104224276D01*
X183312667Y-104216243D01*
X183304083Y-104210540D01*
X183188095Y-104146511D01*
X183138125Y-104096079D01*
X183123353Y-104026636D01*
X183148469Y-103960231D01*
X183177622Y-103932363D01*
X183179116Y-103931336D01*
X183184159Y-103928512D01*
X183354359Y-103786959D01*
X183495912Y-103616759D01*
X183604079Y-103423613D01*
X183675237Y-103213990D01*
X183707002Y-102994909D01*
X183708660Y-102931600D01*
X183688404Y-102711157D01*
X183679645Y-102680098D01*
X183629884Y-102503661D01*
X183628315Y-102498097D01*
X183530405Y-102299554D01*
X183397953Y-102122179D01*
X183235394Y-101971912D01*
X183071751Y-101868661D01*
X183024812Y-101815394D01*
X183014123Y-101745207D01*
X183043078Y-101680383D01*
X183102482Y-101641503D01*
X183138985Y-101636099D01*
X183474066Y-101636099D01*
X183509818Y-101628988D01*
X183536126Y-101623756D01*
X183536128Y-101623755D01*
X183548301Y-101621334D01*
X183558621Y-101614439D01*
X183558622Y-101614438D01*
X183622168Y-101571977D01*
X183632484Y-101565084D01*
X183688734Y-101480901D01*
X183703500Y-101406667D01*
X183703499Y-99456534D01*
X183688734Y-99382299D01*
X183632484Y-99298116D01*
X183548301Y-99241866D01*
X183474067Y-99227100D01*
X182499158Y-99227100D01*
X181523934Y-99227101D01*
X181488182Y-99234212D01*
X181461874Y-99239444D01*
X181461872Y-99239445D01*
X181449699Y-99241866D01*
X181439379Y-99248761D01*
X181439378Y-99248762D01*
X181378985Y-99289116D01*
X181365516Y-99298116D01*
X181309266Y-99382299D01*
X181294500Y-99456533D01*
X181294501Y-100307898D01*
X181294501Y-100883388D01*
X181274499Y-100951509D01*
X181220843Y-100998002D01*
X181150569Y-101008106D01*
X181085989Y-100978613D01*
X181079406Y-100972483D01*
X179665815Y-99558892D01*
X179631789Y-99496580D01*
X179628910Y-99469797D01*
X179628910Y-92879164D01*
X181491748Y-92879164D01*
X181505024Y-93081722D01*
X181554992Y-93278469D01*
X181557409Y-93283712D01*
X181593406Y-93361796D01*
X181639977Y-93462816D01*
X181757133Y-93628589D01*
X181902538Y-93770235D01*
X182071320Y-93883012D01*
X182076623Y-93885290D01*
X182076626Y-93885292D01*
X182165307Y-93923392D01*
X182257828Y-93963142D01*
X182330844Y-93979664D01*
X182450179Y-94006667D01*
X182450184Y-94006668D01*
X182455816Y-94007942D01*
X182461587Y-94008169D01*
X182461589Y-94008169D01*
X182521356Y-94010517D01*
X182658653Y-94015912D01*
X182759099Y-94001348D01*
X182853831Y-93987613D01*
X182853836Y-93987612D01*
X182859545Y-93986784D01*
X182865009Y-93984929D01*
X182865014Y-93984928D01*
X183046293Y-93923392D01*
X183046298Y-93923390D01*
X183051765Y-93921534D01*
X183228876Y-93822347D01*
X183291534Y-93770235D01*
X183380513Y-93696231D01*
X183384945Y-93692545D01*
X183514747Y-93536476D01*
X183545741Y-93481132D01*
X183596476Y-93431472D01*
X183655674Y-93416700D01*
X189341728Y-93416700D01*
X189353858Y-93418055D01*
X189353897Y-93417573D01*
X189362844Y-93418293D01*
X189371600Y-93420274D01*
X189425308Y-93416942D01*
X189433110Y-93416700D01*
X189449313Y-93416700D01*
X189458229Y-93415423D01*
X189459678Y-93415216D01*
X189469728Y-93414187D01*
X189508016Y-93411811D01*
X189516977Y-93411255D01*
X189525423Y-93408206D01*
X189528314Y-93407607D01*
X189545280Y-93403378D01*
X189548105Y-93402552D01*
X189556987Y-93401280D01*
X189600098Y-93381678D01*
X189609449Y-93377872D01*
X189645535Y-93364845D01*
X189653981Y-93361796D01*
X189661229Y-93356501D01*
X189663827Y-93355120D01*
X189678945Y-93346285D01*
X189681414Y-93344706D01*
X189689582Y-93340992D01*
X189725453Y-93310084D01*
X189733369Y-93303799D01*
X189740415Y-93298652D01*
X189740420Y-93298647D01*
X189744352Y-93295775D01*
X189755327Y-93284800D01*
X189762175Y-93278442D01*
X189793123Y-93251776D01*
X189793124Y-93251775D01*
X189799927Y-93245913D01*
X189804811Y-93238378D01*
X189810258Y-93232134D01*
X189819858Y-93220269D01*
X191535922Y-91504205D01*
X191598234Y-91470179D01*
X191625017Y-91467300D01*
X193861823Y-91467299D01*
X194133266Y-91467299D01*
X194169018Y-91460188D01*
X194195326Y-91454956D01*
X194195328Y-91454955D01*
X194207501Y-91452534D01*
X194217821Y-91445639D01*
X194217822Y-91445638D01*
X194281368Y-91403177D01*
X194291684Y-91396284D01*
X194347934Y-91312101D01*
X194362700Y-91237867D01*
X194362699Y-88636710D01*
X194382701Y-88568589D01*
X194436357Y-88522096D01*
X194506631Y-88511992D01*
X194571211Y-88541486D01*
X194577794Y-88547615D01*
X216751871Y-110721692D01*
X216771926Y-110731910D01*
X216788781Y-110742240D01*
X216806990Y-110755470D01*
X216816423Y-110758535D01*
X216816425Y-110758536D01*
X216828402Y-110762428D01*
X216846663Y-110769992D01*
X216866716Y-110780209D01*
X216876509Y-110781760D01*
X216888948Y-110783730D01*
X216908174Y-110788346D01*
X216929576Y-110795300D01*
X218656122Y-110795300D01*
X218724243Y-110815302D01*
X218740922Y-110828106D01*
X218831163Y-110910219D01*
X218966338Y-110983613D01*
X219115119Y-111022645D01*
X219194938Y-111023899D01*
X219261318Y-111024942D01*
X219261321Y-111024942D01*
X219268916Y-111025061D01*
X219276320Y-111023365D01*
X219276322Y-111023365D01*
X219331589Y-111010707D01*
X219418849Y-110990722D01*
X219440187Y-110979990D01*
X219549481Y-110925022D01*
X219549484Y-110925020D01*
X219556264Y-110921610D01*
X219673226Y-110821714D01*
X219762983Y-110696803D01*
X219820355Y-110554088D01*
X219842028Y-110401807D01*
X219842168Y-110388400D01*
X219823689Y-110235699D01*
X219769319Y-110091813D01*
X219760640Y-110079184D01*
X219686499Y-109971308D01*
X219686497Y-109971306D01*
X219682197Y-109965049D01*
X219567353Y-109862727D01*
X219553602Y-109855446D01*
X219438131Y-109794307D01*
X219438128Y-109794306D01*
X219431416Y-109790752D01*
X219282234Y-109753280D01*
X219274636Y-109753240D01*
X219274634Y-109753240D01*
X219209143Y-109752897D01*
X219128421Y-109752475D01*
X219121042Y-109754247D01*
X219121038Y-109754247D01*
X218986234Y-109786610D01*
X218986230Y-109786611D01*
X218978855Y-109788382D01*
X218842172Y-109858929D01*
X218743972Y-109944595D01*
X218737261Y-109950449D01*
X218672779Y-109980157D01*
X218654432Y-109981500D01*
X217214755Y-109981500D01*
X217146634Y-109961498D01*
X217125660Y-109944595D01*
X198483519Y-91302454D01*
X204083818Y-91302454D01*
X204090873Y-91312427D01*
X204121879Y-91338351D01*
X204128798Y-91343379D01*
X204353472Y-91484315D01*
X204361007Y-91488356D01*
X204602720Y-91597494D01*
X204610751Y-91600480D01*
X204865032Y-91675802D01*
X204873384Y-91677669D01*
X205135540Y-91717784D01*
X205144074Y-91718500D01*
X205409245Y-91722667D01*
X205417796Y-91722218D01*
X205681083Y-91690357D01*
X205689484Y-91688755D01*
X205946024Y-91621453D01*
X205954126Y-91618726D01*
X206199149Y-91517234D01*
X206206817Y-91513428D01*
X206435798Y-91379622D01*
X206442879Y-91374809D01*
X206522855Y-91312101D01*
X206531325Y-91300242D01*
X206524808Y-91288618D01*
X205321012Y-90084822D01*
X205307068Y-90077208D01*
X205305235Y-90077339D01*
X205298620Y-90081590D01*
X204091110Y-91289100D01*
X204083818Y-91302454D01*
X198483519Y-91302454D01*
X196877069Y-89696004D01*
X203295865Y-89696004D01*
X203311132Y-89960769D01*
X203312205Y-89969270D01*
X203363265Y-90229522D01*
X203365476Y-90237774D01*
X203451384Y-90488694D01*
X203454699Y-90496579D01*
X203573864Y-90733513D01*
X203578220Y-90740879D01*
X203707547Y-90929050D01*
X203717801Y-90937394D01*
X203731542Y-90930248D01*
X204936178Y-89725612D01*
X204942556Y-89713932D01*
X205672608Y-89713932D01*
X205672739Y-89715765D01*
X205676990Y-89722380D01*
X206883930Y-90929320D01*
X206896139Y-90935987D01*
X206907639Y-90927297D01*
X207005031Y-90794713D01*
X207009618Y-90787485D01*
X207136162Y-90554421D01*
X207139730Y-90546627D01*
X207233471Y-90298550D01*
X207235948Y-90290344D01*
X207295154Y-90031838D01*
X207296494Y-90023377D01*
X207320231Y-89757416D01*
X207320477Y-89752477D01*
X207320866Y-89715285D01*
X207320723Y-89710319D01*
X207302562Y-89443923D01*
X207301401Y-89435449D01*
X207247619Y-89175744D01*
X207245320Y-89167509D01*
X207156788Y-88917505D01*
X207153391Y-88909654D01*
X207031750Y-88673978D01*
X207027322Y-88666666D01*
X206908231Y-88497217D01*
X206897709Y-88488837D01*
X206884321Y-88495889D01*
X205680222Y-89699988D01*
X205672608Y-89713932D01*
X204942556Y-89713932D01*
X204943792Y-89711668D01*
X204943661Y-89709835D01*
X204939410Y-89703220D01*
X203732014Y-88495824D01*
X203720004Y-88489266D01*
X203708264Y-88498234D01*
X203600135Y-88648711D01*
X203595618Y-88655996D01*
X203471525Y-88890367D01*
X203468039Y-88898195D01*
X203376900Y-89147246D01*
X203374511Y-89155470D01*
X203318012Y-89414595D01*
X203316763Y-89423050D01*
X203295954Y-89687453D01*
X203295865Y-89696004D01*
X196877069Y-89696004D01*
X195306365Y-88125300D01*
X204084784Y-88125300D01*
X204091180Y-88136570D01*
X205295388Y-89340778D01*
X205309332Y-89348392D01*
X205311165Y-89348261D01*
X205317780Y-89344010D01*
X206524804Y-88136986D01*
X206531995Y-88123817D01*
X206524673Y-88113580D01*
X206477433Y-88074915D01*
X206470461Y-88069960D01*
X206244322Y-87931382D01*
X206236752Y-87927424D01*
X205993904Y-87820822D01*
X205985844Y-87817920D01*
X205730792Y-87745267D01*
X205722414Y-87743485D01*
X205459856Y-87706118D01*
X205451311Y-87705491D01*
X205186108Y-87704102D01*
X205177574Y-87704639D01*
X204914633Y-87739256D01*
X204906235Y-87740949D01*
X204650438Y-87810927D01*
X204642343Y-87813746D01*
X204398399Y-87917797D01*
X204390777Y-87921681D01*
X204163213Y-88057875D01*
X204156181Y-88062762D01*
X204093253Y-88113177D01*
X204084784Y-88125300D01*
X195306365Y-88125300D01*
X193468755Y-86287690D01*
X193434729Y-86225378D01*
X193439794Y-86154563D01*
X193482341Y-86097727D01*
X193502417Y-86085444D01*
X193555295Y-86059539D01*
X193564145Y-86054264D01*
X193737528Y-85930592D01*
X193745400Y-85923939D01*
X193896252Y-85773612D01*
X193902930Y-85765765D01*
X194027203Y-85592820D01*
X194032513Y-85583983D01*
X194126870Y-85393067D01*
X194130669Y-85383472D01*
X194147266Y-85328847D01*
X194186207Y-85269483D01*
X194251062Y-85240596D01*
X194321238Y-85251358D01*
X194374456Y-85298351D01*
X194382248Y-85312722D01*
X194441577Y-85441416D01*
X194558733Y-85607189D01*
X194704138Y-85748835D01*
X194872920Y-85861612D01*
X194878223Y-85863890D01*
X194878226Y-85863892D01*
X195054121Y-85939462D01*
X195059428Y-85941742D01*
X195132444Y-85958264D01*
X195251779Y-85985267D01*
X195251784Y-85985268D01*
X195257416Y-85986542D01*
X195263187Y-85986769D01*
X195263189Y-85986769D01*
X195322956Y-85989117D01*
X195460253Y-85994512D01*
X195567548Y-85978955D01*
X195655431Y-85966213D01*
X195655436Y-85966212D01*
X195661145Y-85965384D01*
X195666609Y-85963529D01*
X195666614Y-85963528D01*
X195847893Y-85901992D01*
X195847898Y-85901990D01*
X195853365Y-85900134D01*
X195892153Y-85878412D01*
X195927883Y-85858402D01*
X196030476Y-85800947D01*
X196070169Y-85767935D01*
X196157896Y-85694972D01*
X196186545Y-85671145D01*
X196316347Y-85515076D01*
X196415534Y-85337965D01*
X196417390Y-85332498D01*
X196417392Y-85332493D01*
X196478928Y-85151214D01*
X196478929Y-85151209D01*
X196480784Y-85145745D01*
X196481612Y-85140036D01*
X196481613Y-85140031D01*
X196509379Y-84948527D01*
X196509912Y-84944853D01*
X196511432Y-84886800D01*
X196508764Y-84857764D01*
X196833348Y-84857764D01*
X196846624Y-85060322D01*
X196848045Y-85065918D01*
X196848046Y-85065923D01*
X196867063Y-85140800D01*
X196896592Y-85257069D01*
X196899009Y-85262312D01*
X196936210Y-85343008D01*
X196981577Y-85441416D01*
X197098733Y-85607189D01*
X197244138Y-85748835D01*
X197412920Y-85861612D01*
X197418223Y-85863890D01*
X197418226Y-85863892D01*
X197594121Y-85939462D01*
X197599428Y-85941742D01*
X197672444Y-85958264D01*
X197791779Y-85985267D01*
X197791784Y-85985268D01*
X197797416Y-85986542D01*
X197803187Y-85986769D01*
X197803189Y-85986769D01*
X197862956Y-85989117D01*
X198000253Y-85994512D01*
X198107548Y-85978955D01*
X198195431Y-85966213D01*
X198195436Y-85966212D01*
X198201145Y-85965384D01*
X198206609Y-85963529D01*
X198206614Y-85963528D01*
X198387893Y-85901992D01*
X198387898Y-85901990D01*
X198393365Y-85900134D01*
X198432153Y-85878412D01*
X198467883Y-85858402D01*
X198570476Y-85800947D01*
X198610169Y-85767935D01*
X198697896Y-85694972D01*
X198726545Y-85671145D01*
X198856347Y-85515076D01*
X198955534Y-85337965D01*
X198957390Y-85332498D01*
X198957392Y-85332493D01*
X199018928Y-85151214D01*
X199018929Y-85151209D01*
X199020784Y-85145745D01*
X199021612Y-85140036D01*
X199021613Y-85140031D01*
X199049379Y-84948527D01*
X199049912Y-84944853D01*
X199051432Y-84886800D01*
X199048764Y-84857764D01*
X199373348Y-84857764D01*
X199386624Y-85060322D01*
X199388045Y-85065918D01*
X199388046Y-85065923D01*
X199407063Y-85140800D01*
X199436592Y-85257069D01*
X199439009Y-85262312D01*
X199476210Y-85343008D01*
X199521577Y-85441416D01*
X199638733Y-85607189D01*
X199784138Y-85748835D01*
X199952920Y-85861612D01*
X199958223Y-85863890D01*
X199958226Y-85863892D01*
X200134121Y-85939462D01*
X200139428Y-85941742D01*
X200212444Y-85958264D01*
X200331779Y-85985267D01*
X200331784Y-85985268D01*
X200337416Y-85986542D01*
X200343187Y-85986769D01*
X200343189Y-85986769D01*
X200402956Y-85989117D01*
X200540253Y-85994512D01*
X200647548Y-85978955D01*
X200735431Y-85966213D01*
X200735436Y-85966212D01*
X200741145Y-85965384D01*
X200746609Y-85963529D01*
X200746614Y-85963528D01*
X200927893Y-85901992D01*
X200927898Y-85901990D01*
X200933365Y-85900134D01*
X200972153Y-85878412D01*
X201007883Y-85858402D01*
X201110476Y-85800947D01*
X201150169Y-85767935D01*
X201237896Y-85694972D01*
X201266545Y-85671145D01*
X201396347Y-85515076D01*
X201495534Y-85337965D01*
X201497390Y-85332498D01*
X201497392Y-85332493D01*
X201558928Y-85151214D01*
X201558929Y-85151209D01*
X201560784Y-85145745D01*
X201561612Y-85140036D01*
X201561613Y-85140031D01*
X201589379Y-84948527D01*
X201589912Y-84944853D01*
X201591432Y-84886800D01*
X201588764Y-84857764D01*
X201913348Y-84857764D01*
X201926624Y-85060322D01*
X201928045Y-85065918D01*
X201928046Y-85065923D01*
X201947063Y-85140800D01*
X201976592Y-85257069D01*
X201979009Y-85262312D01*
X202016210Y-85343008D01*
X202061577Y-85441416D01*
X202178733Y-85607189D01*
X202324138Y-85748835D01*
X202492920Y-85861612D01*
X202498223Y-85863890D01*
X202498226Y-85863892D01*
X202674121Y-85939462D01*
X202679428Y-85941742D01*
X202752444Y-85958264D01*
X202871779Y-85985267D01*
X202871784Y-85985268D01*
X202877416Y-85986542D01*
X202883187Y-85986769D01*
X202883189Y-85986769D01*
X202942956Y-85989117D01*
X203080253Y-85994512D01*
X203187548Y-85978955D01*
X203275431Y-85966213D01*
X203275436Y-85966212D01*
X203281145Y-85965384D01*
X203286609Y-85963529D01*
X203286614Y-85963528D01*
X203467893Y-85901992D01*
X203467898Y-85901990D01*
X203473365Y-85900134D01*
X203512153Y-85878412D01*
X203547883Y-85858402D01*
X203650476Y-85800947D01*
X203690169Y-85767935D01*
X203777896Y-85694972D01*
X203806545Y-85671145D01*
X203936347Y-85515076D01*
X204035534Y-85337965D01*
X204037390Y-85332498D01*
X204037392Y-85332493D01*
X204098928Y-85151214D01*
X204098929Y-85151209D01*
X204100784Y-85145745D01*
X204101612Y-85140036D01*
X204101613Y-85140031D01*
X204129379Y-84948527D01*
X204129912Y-84944853D01*
X204131432Y-84886800D01*
X204128764Y-84857764D01*
X204453348Y-84857764D01*
X204466624Y-85060322D01*
X204468045Y-85065918D01*
X204468046Y-85065923D01*
X204487063Y-85140800D01*
X204516592Y-85257069D01*
X204519009Y-85262312D01*
X204556210Y-85343008D01*
X204601577Y-85441416D01*
X204718733Y-85607189D01*
X204864138Y-85748835D01*
X205032920Y-85861612D01*
X205038223Y-85863890D01*
X205038226Y-85863892D01*
X205214121Y-85939462D01*
X205219428Y-85941742D01*
X205292444Y-85958264D01*
X205411779Y-85985267D01*
X205411784Y-85985268D01*
X205417416Y-85986542D01*
X205423187Y-85986769D01*
X205423189Y-85986769D01*
X205482956Y-85989117D01*
X205620253Y-85994512D01*
X205727548Y-85978955D01*
X205815431Y-85966213D01*
X205815436Y-85966212D01*
X205821145Y-85965384D01*
X205826609Y-85963529D01*
X205826614Y-85963528D01*
X206007893Y-85901992D01*
X206007898Y-85901990D01*
X206013365Y-85900134D01*
X206052153Y-85878412D01*
X206087883Y-85858402D01*
X206190476Y-85800947D01*
X206230169Y-85767935D01*
X206317896Y-85694972D01*
X206346545Y-85671145D01*
X206476347Y-85515076D01*
X206575534Y-85337965D01*
X206577390Y-85332498D01*
X206577392Y-85332493D01*
X206638928Y-85151214D01*
X206638929Y-85151209D01*
X206640784Y-85145745D01*
X206641612Y-85140036D01*
X206641613Y-85140031D01*
X206669379Y-84948527D01*
X206669912Y-84944853D01*
X206671432Y-84886800D01*
X206668764Y-84857764D01*
X206993348Y-84857764D01*
X207006624Y-85060322D01*
X207008045Y-85065918D01*
X207008046Y-85065923D01*
X207027063Y-85140800D01*
X207056592Y-85257069D01*
X207059009Y-85262312D01*
X207096210Y-85343008D01*
X207141577Y-85441416D01*
X207258733Y-85607189D01*
X207404138Y-85748835D01*
X207572920Y-85861612D01*
X207578223Y-85863890D01*
X207578226Y-85863892D01*
X207754121Y-85939462D01*
X207759428Y-85941742D01*
X207832444Y-85958264D01*
X207951779Y-85985267D01*
X207951784Y-85985268D01*
X207957416Y-85986542D01*
X207963187Y-85986769D01*
X207963189Y-85986769D01*
X208022956Y-85989117D01*
X208160253Y-85994512D01*
X208267548Y-85978955D01*
X208355431Y-85966213D01*
X208355436Y-85966212D01*
X208361145Y-85965384D01*
X208366609Y-85963529D01*
X208366614Y-85963528D01*
X208547893Y-85901992D01*
X208547898Y-85901990D01*
X208553365Y-85900134D01*
X208592153Y-85878412D01*
X208627883Y-85858402D01*
X208730476Y-85800947D01*
X208770169Y-85767935D01*
X208857896Y-85694972D01*
X208886545Y-85671145D01*
X209016347Y-85515076D01*
X209115534Y-85337965D01*
X209117390Y-85332498D01*
X209117392Y-85332493D01*
X209178928Y-85151214D01*
X209178929Y-85151209D01*
X209180784Y-85145745D01*
X209181612Y-85140036D01*
X209181613Y-85140031D01*
X209209379Y-84948527D01*
X209209912Y-84944853D01*
X209211432Y-84886800D01*
X209208764Y-84857764D01*
X209533348Y-84857764D01*
X209546624Y-85060322D01*
X209548045Y-85065918D01*
X209548046Y-85065923D01*
X209567063Y-85140800D01*
X209596592Y-85257069D01*
X209599009Y-85262312D01*
X209636210Y-85343008D01*
X209681577Y-85441416D01*
X209798733Y-85607189D01*
X209944138Y-85748835D01*
X210112920Y-85861612D01*
X210118223Y-85863890D01*
X210118226Y-85863892D01*
X210294121Y-85939462D01*
X210299428Y-85941742D01*
X210372444Y-85958264D01*
X210491779Y-85985267D01*
X210491784Y-85985268D01*
X210497416Y-85986542D01*
X210503187Y-85986769D01*
X210503189Y-85986769D01*
X210562956Y-85989117D01*
X210700253Y-85994512D01*
X210807548Y-85978955D01*
X210895431Y-85966213D01*
X210895436Y-85966212D01*
X210901145Y-85965384D01*
X210906609Y-85963529D01*
X210906614Y-85963528D01*
X211087893Y-85901992D01*
X211087898Y-85901990D01*
X211093365Y-85900134D01*
X211132153Y-85878412D01*
X211167883Y-85858402D01*
X211270476Y-85800947D01*
X211310169Y-85767935D01*
X211397896Y-85694972D01*
X211426545Y-85671145D01*
X211556347Y-85515076D01*
X211655534Y-85337965D01*
X211657390Y-85332498D01*
X211657392Y-85332493D01*
X211718928Y-85151214D01*
X211718929Y-85151209D01*
X211720784Y-85145745D01*
X211721612Y-85140036D01*
X211721613Y-85140031D01*
X211749379Y-84948527D01*
X211749912Y-84944853D01*
X211751432Y-84886800D01*
X211748764Y-84857764D01*
X212073348Y-84857764D01*
X212086624Y-85060322D01*
X212088045Y-85065918D01*
X212088046Y-85065923D01*
X212107063Y-85140800D01*
X212136592Y-85257069D01*
X212139009Y-85262312D01*
X212176210Y-85343008D01*
X212221577Y-85441416D01*
X212338733Y-85607189D01*
X212484138Y-85748835D01*
X212652920Y-85861612D01*
X212658223Y-85863890D01*
X212658226Y-85863892D01*
X212834121Y-85939462D01*
X212839428Y-85941742D01*
X212912444Y-85958264D01*
X213031779Y-85985267D01*
X213031784Y-85985268D01*
X213037416Y-85986542D01*
X213043187Y-85986769D01*
X213043189Y-85986769D01*
X213102956Y-85989117D01*
X213240253Y-85994512D01*
X213347548Y-85978955D01*
X213435431Y-85966213D01*
X213435436Y-85966212D01*
X213441145Y-85965384D01*
X213446609Y-85963529D01*
X213446614Y-85963528D01*
X213627893Y-85901992D01*
X213627898Y-85901990D01*
X213633365Y-85900134D01*
X213672153Y-85878412D01*
X213707883Y-85858402D01*
X213810476Y-85800947D01*
X213850169Y-85767935D01*
X213937896Y-85694972D01*
X213966545Y-85671145D01*
X214096347Y-85515076D01*
X214195534Y-85337965D01*
X214197390Y-85332498D01*
X214197392Y-85332493D01*
X214258928Y-85151214D01*
X214258929Y-85151209D01*
X214260784Y-85145745D01*
X214261612Y-85140036D01*
X214261613Y-85140031D01*
X214289379Y-84948527D01*
X214289912Y-84944853D01*
X214291432Y-84886800D01*
X214288764Y-84857764D01*
X214613348Y-84857764D01*
X214626624Y-85060322D01*
X214628045Y-85065918D01*
X214628046Y-85065923D01*
X214647063Y-85140800D01*
X214676592Y-85257069D01*
X214679009Y-85262312D01*
X214716210Y-85343008D01*
X214761577Y-85441416D01*
X214878733Y-85607189D01*
X215024138Y-85748835D01*
X215192920Y-85861612D01*
X215198223Y-85863890D01*
X215198226Y-85863892D01*
X215374121Y-85939462D01*
X215379428Y-85941742D01*
X215452444Y-85958264D01*
X215571779Y-85985267D01*
X215571784Y-85985268D01*
X215577416Y-85986542D01*
X215583187Y-85986769D01*
X215583189Y-85986769D01*
X215642956Y-85989117D01*
X215780253Y-85994512D01*
X215887548Y-85978955D01*
X215975431Y-85966213D01*
X215975436Y-85966212D01*
X215981145Y-85965384D01*
X215986609Y-85963529D01*
X215986614Y-85963528D01*
X216167893Y-85901992D01*
X216167898Y-85901990D01*
X216173365Y-85900134D01*
X216212153Y-85878412D01*
X216247883Y-85858402D01*
X216350476Y-85800947D01*
X216390169Y-85767935D01*
X216477896Y-85694972D01*
X216506545Y-85671145D01*
X216636347Y-85515076D01*
X216735534Y-85337965D01*
X216737390Y-85332498D01*
X216737392Y-85332493D01*
X216798928Y-85151214D01*
X216798929Y-85151209D01*
X216800784Y-85145745D01*
X216801612Y-85140036D01*
X216801613Y-85140031D01*
X216829379Y-84948527D01*
X216829912Y-84944853D01*
X216831432Y-84886800D01*
X216828764Y-84857764D01*
X217153348Y-84857764D01*
X217166624Y-85060322D01*
X217168045Y-85065918D01*
X217168046Y-85065923D01*
X217187063Y-85140800D01*
X217216592Y-85257069D01*
X217219009Y-85262312D01*
X217256210Y-85343008D01*
X217301577Y-85441416D01*
X217418733Y-85607189D01*
X217564138Y-85748835D01*
X217732920Y-85861612D01*
X217738223Y-85863890D01*
X217738226Y-85863892D01*
X217914121Y-85939462D01*
X217919428Y-85941742D01*
X217992444Y-85958264D01*
X218111779Y-85985267D01*
X218111784Y-85985268D01*
X218117416Y-85986542D01*
X218123187Y-85986769D01*
X218123189Y-85986769D01*
X218182956Y-85989117D01*
X218320253Y-85994512D01*
X218427548Y-85978955D01*
X218515431Y-85966213D01*
X218515436Y-85966212D01*
X218521145Y-85965384D01*
X218526609Y-85963529D01*
X218526614Y-85963528D01*
X218707893Y-85901992D01*
X218707898Y-85901990D01*
X218713365Y-85900134D01*
X218752153Y-85878412D01*
X218787883Y-85858402D01*
X218890476Y-85800947D01*
X218930169Y-85767935D01*
X219017896Y-85694972D01*
X219046545Y-85671145D01*
X219176347Y-85515076D01*
X219275534Y-85337965D01*
X219277390Y-85332498D01*
X219277392Y-85332493D01*
X219338928Y-85151214D01*
X219338929Y-85151209D01*
X219340784Y-85145745D01*
X219341612Y-85140036D01*
X219341613Y-85140031D01*
X219369379Y-84948527D01*
X219369912Y-84944853D01*
X219371432Y-84886800D01*
X219368764Y-84857764D01*
X219693348Y-84857764D01*
X219706624Y-85060322D01*
X219708045Y-85065918D01*
X219708046Y-85065923D01*
X219727063Y-85140800D01*
X219756592Y-85257069D01*
X219759009Y-85262312D01*
X219796210Y-85343008D01*
X219841577Y-85441416D01*
X219958733Y-85607189D01*
X220104138Y-85748835D01*
X220272920Y-85861612D01*
X220278223Y-85863890D01*
X220278226Y-85863892D01*
X220454121Y-85939462D01*
X220459428Y-85941742D01*
X220532444Y-85958264D01*
X220651779Y-85985267D01*
X220651784Y-85985268D01*
X220657416Y-85986542D01*
X220663187Y-85986769D01*
X220663189Y-85986769D01*
X220722956Y-85989117D01*
X220860253Y-85994512D01*
X220967548Y-85978955D01*
X221055431Y-85966213D01*
X221055436Y-85966212D01*
X221061145Y-85965384D01*
X221066609Y-85963529D01*
X221066614Y-85963528D01*
X221247893Y-85901992D01*
X221247898Y-85901990D01*
X221253365Y-85900134D01*
X221292153Y-85878412D01*
X221327883Y-85858402D01*
X221430476Y-85800947D01*
X221470169Y-85767935D01*
X221557896Y-85694972D01*
X221586545Y-85671145D01*
X221716347Y-85515076D01*
X221815534Y-85337965D01*
X221817390Y-85332498D01*
X221817392Y-85332493D01*
X221878928Y-85151214D01*
X221878929Y-85151209D01*
X221880784Y-85145745D01*
X221881612Y-85140036D01*
X221881613Y-85140031D01*
X221909379Y-84948527D01*
X221909912Y-84944853D01*
X221911432Y-84886800D01*
X221892858Y-84684659D01*
X221891290Y-84679099D01*
X221839325Y-84494846D01*
X221839324Y-84494844D01*
X221837757Y-84489287D01*
X221827178Y-84467833D01*
X221750531Y-84312409D01*
X221747976Y-84307228D01*
X221626520Y-84144579D01*
X221482809Y-84011733D01*
X222237700Y-84011733D01*
X222237701Y-85761866D01*
X222252466Y-85836101D01*
X222259361Y-85846420D01*
X222259362Y-85846422D01*
X222297500Y-85903498D01*
X222308716Y-85920284D01*
X222392899Y-85976534D01*
X222467133Y-85991300D01*
X223342058Y-85991300D01*
X224217266Y-85991299D01*
X224253018Y-85984188D01*
X224279326Y-85978956D01*
X224279328Y-85978955D01*
X224291501Y-85976534D01*
X224301821Y-85969639D01*
X224301822Y-85969638D01*
X224365368Y-85927177D01*
X224375684Y-85920284D01*
X224431934Y-85836101D01*
X224446700Y-85761867D01*
X224446699Y-84011734D01*
X224431934Y-83937499D01*
X224405854Y-83898467D01*
X224382577Y-83863632D01*
X224375684Y-83853316D01*
X224291501Y-83797066D01*
X224217267Y-83782300D01*
X223342342Y-83782300D01*
X222467134Y-83782301D01*
X222431382Y-83789412D01*
X222405074Y-83794644D01*
X222405072Y-83794645D01*
X222392899Y-83797066D01*
X222382579Y-83803961D01*
X222382578Y-83803962D01*
X222322185Y-83844316D01*
X222308716Y-83853316D01*
X222252466Y-83937499D01*
X222237700Y-84011733D01*
X221482809Y-84011733D01*
X221477458Y-84006787D01*
X221472575Y-84003706D01*
X221472571Y-84003703D01*
X221310664Y-83901548D01*
X221305781Y-83898467D01*
X221117239Y-83823246D01*
X221111579Y-83822120D01*
X221111575Y-83822119D01*
X220923813Y-83784771D01*
X220923810Y-83784771D01*
X220918146Y-83783644D01*
X220912371Y-83783568D01*
X220912367Y-83783568D01*
X220810993Y-83782241D01*
X220715171Y-83780987D01*
X220709474Y-83781966D01*
X220709473Y-83781966D01*
X220621597Y-83797066D01*
X220515110Y-83815364D01*
X220324663Y-83885624D01*
X220150210Y-83989412D01*
X220145870Y-83993218D01*
X220145866Y-83993221D01*
X220001933Y-84119448D01*
X219997592Y-84123255D01*
X219871920Y-84282669D01*
X219869231Y-84287780D01*
X219869229Y-84287783D01*
X219856273Y-84312409D01*
X219777403Y-84462315D01*
X219717207Y-84656178D01*
X219693348Y-84857764D01*
X219368764Y-84857764D01*
X219352858Y-84684659D01*
X219351290Y-84679099D01*
X219299325Y-84494846D01*
X219299324Y-84494844D01*
X219297757Y-84489287D01*
X219287178Y-84467833D01*
X219210531Y-84312409D01*
X219207976Y-84307228D01*
X219086520Y-84144579D01*
X218937458Y-84006787D01*
X218932575Y-84003706D01*
X218932571Y-84003703D01*
X218770664Y-83901548D01*
X218765781Y-83898467D01*
X218577239Y-83823246D01*
X218571579Y-83822120D01*
X218571575Y-83822119D01*
X218383813Y-83784771D01*
X218383810Y-83784771D01*
X218378146Y-83783644D01*
X218372371Y-83783568D01*
X218372367Y-83783568D01*
X218270993Y-83782241D01*
X218175171Y-83780987D01*
X218169474Y-83781966D01*
X218169473Y-83781966D01*
X218081597Y-83797066D01*
X217975110Y-83815364D01*
X217784663Y-83885624D01*
X217610210Y-83989412D01*
X217605870Y-83993218D01*
X217605866Y-83993221D01*
X217461933Y-84119448D01*
X217457592Y-84123255D01*
X217331920Y-84282669D01*
X217329231Y-84287780D01*
X217329229Y-84287783D01*
X217316273Y-84312409D01*
X217237403Y-84462315D01*
X217177207Y-84656178D01*
X217153348Y-84857764D01*
X216828764Y-84857764D01*
X216812858Y-84684659D01*
X216811290Y-84679099D01*
X216759325Y-84494846D01*
X216759324Y-84494844D01*
X216757757Y-84489287D01*
X216747178Y-84467833D01*
X216670531Y-84312409D01*
X216667976Y-84307228D01*
X216546520Y-84144579D01*
X216397458Y-84006787D01*
X216392575Y-84003706D01*
X216392571Y-84003703D01*
X216230664Y-83901548D01*
X216225781Y-83898467D01*
X216037239Y-83823246D01*
X216031579Y-83822120D01*
X216031575Y-83822119D01*
X215843813Y-83784771D01*
X215843810Y-83784771D01*
X215838146Y-83783644D01*
X215832371Y-83783568D01*
X215832367Y-83783568D01*
X215730993Y-83782241D01*
X215635171Y-83780987D01*
X215629474Y-83781966D01*
X215629473Y-83781966D01*
X215541597Y-83797066D01*
X215435110Y-83815364D01*
X215244663Y-83885624D01*
X215070210Y-83989412D01*
X215065870Y-83993218D01*
X215065866Y-83993221D01*
X214921933Y-84119448D01*
X214917592Y-84123255D01*
X214791920Y-84282669D01*
X214789231Y-84287780D01*
X214789229Y-84287783D01*
X214776273Y-84312409D01*
X214697403Y-84462315D01*
X214637207Y-84656178D01*
X214613348Y-84857764D01*
X214288764Y-84857764D01*
X214272858Y-84684659D01*
X214271290Y-84679099D01*
X214219325Y-84494846D01*
X214219324Y-84494844D01*
X214217757Y-84489287D01*
X214207178Y-84467833D01*
X214130531Y-84312409D01*
X214127976Y-84307228D01*
X214006520Y-84144579D01*
X213857458Y-84006787D01*
X213852575Y-84003706D01*
X213852571Y-84003703D01*
X213690664Y-83901548D01*
X213685781Y-83898467D01*
X213497239Y-83823246D01*
X213491579Y-83822120D01*
X213491575Y-83822119D01*
X213303813Y-83784771D01*
X213303810Y-83784771D01*
X213298146Y-83783644D01*
X213292371Y-83783568D01*
X213292367Y-83783568D01*
X213190993Y-83782241D01*
X213095171Y-83780987D01*
X213089474Y-83781966D01*
X213089473Y-83781966D01*
X213001597Y-83797066D01*
X212895110Y-83815364D01*
X212704663Y-83885624D01*
X212530210Y-83989412D01*
X212525870Y-83993218D01*
X212525866Y-83993221D01*
X212381933Y-84119448D01*
X212377592Y-84123255D01*
X212251920Y-84282669D01*
X212249231Y-84287780D01*
X212249229Y-84287783D01*
X212236273Y-84312409D01*
X212157403Y-84462315D01*
X212097207Y-84656178D01*
X212073348Y-84857764D01*
X211748764Y-84857764D01*
X211732858Y-84684659D01*
X211731290Y-84679099D01*
X211679325Y-84494846D01*
X211679324Y-84494844D01*
X211677757Y-84489287D01*
X211667178Y-84467833D01*
X211590531Y-84312409D01*
X211587976Y-84307228D01*
X211466520Y-84144579D01*
X211317458Y-84006787D01*
X211312575Y-84003706D01*
X211312571Y-84003703D01*
X211150664Y-83901548D01*
X211145781Y-83898467D01*
X210957239Y-83823246D01*
X210951579Y-83822120D01*
X210951575Y-83822119D01*
X210763813Y-83784771D01*
X210763810Y-83784771D01*
X210758146Y-83783644D01*
X210752371Y-83783568D01*
X210752367Y-83783568D01*
X210650993Y-83782241D01*
X210555171Y-83780987D01*
X210549474Y-83781966D01*
X210549473Y-83781966D01*
X210461597Y-83797066D01*
X210355110Y-83815364D01*
X210164663Y-83885624D01*
X209990210Y-83989412D01*
X209985870Y-83993218D01*
X209985866Y-83993221D01*
X209841933Y-84119448D01*
X209837592Y-84123255D01*
X209711920Y-84282669D01*
X209709231Y-84287780D01*
X209709229Y-84287783D01*
X209696273Y-84312409D01*
X209617403Y-84462315D01*
X209557207Y-84656178D01*
X209533348Y-84857764D01*
X209208764Y-84857764D01*
X209192858Y-84684659D01*
X209191290Y-84679099D01*
X209139325Y-84494846D01*
X209139324Y-84494844D01*
X209137757Y-84489287D01*
X209127178Y-84467833D01*
X209050531Y-84312409D01*
X209047976Y-84307228D01*
X208926520Y-84144579D01*
X208777458Y-84006787D01*
X208772575Y-84003706D01*
X208772571Y-84003703D01*
X208610664Y-83901548D01*
X208605781Y-83898467D01*
X208417239Y-83823246D01*
X208411579Y-83822120D01*
X208411575Y-83822119D01*
X208223813Y-83784771D01*
X208223810Y-83784771D01*
X208218146Y-83783644D01*
X208212371Y-83783568D01*
X208212367Y-83783568D01*
X208110993Y-83782241D01*
X208015171Y-83780987D01*
X208009474Y-83781966D01*
X208009473Y-83781966D01*
X207921597Y-83797066D01*
X207815110Y-83815364D01*
X207624663Y-83885624D01*
X207450210Y-83989412D01*
X207445870Y-83993218D01*
X207445866Y-83993221D01*
X207301933Y-84119448D01*
X207297592Y-84123255D01*
X207171920Y-84282669D01*
X207169231Y-84287780D01*
X207169229Y-84287783D01*
X207156273Y-84312409D01*
X207077403Y-84462315D01*
X207017207Y-84656178D01*
X206993348Y-84857764D01*
X206668764Y-84857764D01*
X206652858Y-84684659D01*
X206651290Y-84679099D01*
X206599325Y-84494846D01*
X206599324Y-84494844D01*
X206597757Y-84489287D01*
X206587178Y-84467833D01*
X206510531Y-84312409D01*
X206507976Y-84307228D01*
X206386520Y-84144579D01*
X206237458Y-84006787D01*
X206232575Y-84003706D01*
X206232571Y-84003703D01*
X206070664Y-83901548D01*
X206065781Y-83898467D01*
X205877239Y-83823246D01*
X205871579Y-83822120D01*
X205871575Y-83822119D01*
X205683813Y-83784771D01*
X205683810Y-83784771D01*
X205678146Y-83783644D01*
X205672371Y-83783568D01*
X205672367Y-83783568D01*
X205570993Y-83782241D01*
X205475171Y-83780987D01*
X205469474Y-83781966D01*
X205469473Y-83781966D01*
X205381597Y-83797066D01*
X205275110Y-83815364D01*
X205084663Y-83885624D01*
X204910210Y-83989412D01*
X204905870Y-83993218D01*
X204905866Y-83993221D01*
X204761933Y-84119448D01*
X204757592Y-84123255D01*
X204631920Y-84282669D01*
X204629231Y-84287780D01*
X204629229Y-84287783D01*
X204616273Y-84312409D01*
X204537403Y-84462315D01*
X204477207Y-84656178D01*
X204453348Y-84857764D01*
X204128764Y-84857764D01*
X204112858Y-84684659D01*
X204111290Y-84679099D01*
X204059325Y-84494846D01*
X204059324Y-84494844D01*
X204057757Y-84489287D01*
X204047178Y-84467833D01*
X203970531Y-84312409D01*
X203967976Y-84307228D01*
X203846520Y-84144579D01*
X203697458Y-84006787D01*
X203692575Y-84003706D01*
X203692571Y-84003703D01*
X203530664Y-83901548D01*
X203525781Y-83898467D01*
X203337239Y-83823246D01*
X203331579Y-83822120D01*
X203331575Y-83822119D01*
X203143813Y-83784771D01*
X203143810Y-83784771D01*
X203138146Y-83783644D01*
X203132371Y-83783568D01*
X203132367Y-83783568D01*
X203030993Y-83782241D01*
X202935171Y-83780987D01*
X202929474Y-83781966D01*
X202929473Y-83781966D01*
X202841597Y-83797066D01*
X202735110Y-83815364D01*
X202544663Y-83885624D01*
X202370210Y-83989412D01*
X202365870Y-83993218D01*
X202365866Y-83993221D01*
X202221933Y-84119448D01*
X202217592Y-84123255D01*
X202091920Y-84282669D01*
X202089231Y-84287780D01*
X202089229Y-84287783D01*
X202076273Y-84312409D01*
X201997403Y-84462315D01*
X201937207Y-84656178D01*
X201913348Y-84857764D01*
X201588764Y-84857764D01*
X201572858Y-84684659D01*
X201571290Y-84679099D01*
X201519325Y-84494846D01*
X201519324Y-84494844D01*
X201517757Y-84489287D01*
X201507178Y-84467833D01*
X201430531Y-84312409D01*
X201427976Y-84307228D01*
X201306520Y-84144579D01*
X201157458Y-84006787D01*
X201152575Y-84003706D01*
X201152571Y-84003703D01*
X200990664Y-83901548D01*
X200985781Y-83898467D01*
X200797239Y-83823246D01*
X200791579Y-83822120D01*
X200791575Y-83822119D01*
X200603813Y-83784771D01*
X200603810Y-83784771D01*
X200598146Y-83783644D01*
X200592371Y-83783568D01*
X200592367Y-83783568D01*
X200490993Y-83782241D01*
X200395171Y-83780987D01*
X200389474Y-83781966D01*
X200389473Y-83781966D01*
X200301597Y-83797066D01*
X200195110Y-83815364D01*
X200004663Y-83885624D01*
X199830210Y-83989412D01*
X199825870Y-83993218D01*
X199825866Y-83993221D01*
X199681933Y-84119448D01*
X199677592Y-84123255D01*
X199551920Y-84282669D01*
X199549231Y-84287780D01*
X199549229Y-84287783D01*
X199536273Y-84312409D01*
X199457403Y-84462315D01*
X199397207Y-84656178D01*
X199373348Y-84857764D01*
X199048764Y-84857764D01*
X199032858Y-84684659D01*
X199031290Y-84679099D01*
X198979325Y-84494846D01*
X198979324Y-84494844D01*
X198977757Y-84489287D01*
X198967178Y-84467833D01*
X198890531Y-84312409D01*
X198887976Y-84307228D01*
X198766520Y-84144579D01*
X198617458Y-84006787D01*
X198612575Y-84003706D01*
X198612571Y-84003703D01*
X198450664Y-83901548D01*
X198445781Y-83898467D01*
X198257239Y-83823246D01*
X198251579Y-83822120D01*
X198251575Y-83822119D01*
X198063813Y-83784771D01*
X198063810Y-83784771D01*
X198058146Y-83783644D01*
X198052371Y-83783568D01*
X198052367Y-83783568D01*
X197950993Y-83782241D01*
X197855171Y-83780987D01*
X197849474Y-83781966D01*
X197849473Y-83781966D01*
X197761597Y-83797066D01*
X197655110Y-83815364D01*
X197464663Y-83885624D01*
X197290210Y-83989412D01*
X197285870Y-83993218D01*
X197285866Y-83993221D01*
X197141933Y-84119448D01*
X197137592Y-84123255D01*
X197011920Y-84282669D01*
X197009231Y-84287780D01*
X197009229Y-84287783D01*
X196996273Y-84312409D01*
X196917403Y-84462315D01*
X196857207Y-84656178D01*
X196833348Y-84857764D01*
X196508764Y-84857764D01*
X196492858Y-84684659D01*
X196491290Y-84679099D01*
X196439325Y-84494846D01*
X196439324Y-84494844D01*
X196437757Y-84489287D01*
X196427178Y-84467833D01*
X196350531Y-84312409D01*
X196347976Y-84307228D01*
X196226520Y-84144579D01*
X196077458Y-84006787D01*
X196072575Y-84003706D01*
X196072571Y-84003703D01*
X195910664Y-83901548D01*
X195905781Y-83898467D01*
X195717239Y-83823246D01*
X195711579Y-83822120D01*
X195711575Y-83822119D01*
X195523813Y-83784771D01*
X195523810Y-83784771D01*
X195518146Y-83783644D01*
X195512371Y-83783568D01*
X195512367Y-83783568D01*
X195410993Y-83782241D01*
X195315171Y-83780987D01*
X195309474Y-83781966D01*
X195309473Y-83781966D01*
X195221597Y-83797066D01*
X195115110Y-83815364D01*
X194924663Y-83885624D01*
X194750210Y-83989412D01*
X194745870Y-83993218D01*
X194745866Y-83993221D01*
X194601933Y-84119448D01*
X194597592Y-84123255D01*
X194471920Y-84282669D01*
X194469231Y-84287780D01*
X194469229Y-84287783D01*
X194379789Y-84457780D01*
X194330370Y-84508752D01*
X194261237Y-84524915D01*
X194194341Y-84501136D01*
X194154203Y-84446773D01*
X194152155Y-84447663D01*
X194065172Y-84247614D01*
X194060305Y-84238539D01*
X193944626Y-84059726D01*
X193938336Y-84051557D01*
X193795006Y-83894040D01*
X193787473Y-83887015D01*
X193620339Y-83755022D01*
X193611752Y-83749317D01*
X193425317Y-83646399D01*
X193415905Y-83642169D01*
X193215159Y-83571080D01*
X193205188Y-83568446D01*
X193134037Y-83555772D01*
X193120740Y-83557232D01*
X193116200Y-83571789D01*
X193116200Y-85014800D01*
X193096198Y-85082921D01*
X193042542Y-85129414D01*
X192990200Y-85140800D01*
X192734200Y-85140800D01*
X192666079Y-85120798D01*
X192619586Y-85067142D01*
X192608200Y-85014800D01*
X192608200Y-83569902D01*
X192604282Y-83556558D01*
X192590006Y-83554571D01*
X192551524Y-83560460D01*
X192541488Y-83562851D01*
X192339068Y-83629012D01*
X192329559Y-83633009D01*
X192140663Y-83731342D01*
X192131938Y-83736836D01*
X191961633Y-83864705D01*
X191953926Y-83871548D01*
X191806790Y-84025517D01*
X191800304Y-84033527D01*
X191680298Y-84209449D01*
X191675200Y-84218423D01*
X191585538Y-84411583D01*
X191581977Y-84421264D01*
X191577491Y-84437440D01*
X191540013Y-84497739D01*
X191475884Y-84528203D01*
X191405466Y-84519160D01*
X191351115Y-84473482D01*
X191343067Y-84459498D01*
X191270531Y-84312409D01*
X191267976Y-84307228D01*
X191146520Y-84144579D01*
X190997458Y-84006787D01*
X190992575Y-84003706D01*
X190992571Y-84003703D01*
X190830664Y-83901548D01*
X190825781Y-83898467D01*
X190637239Y-83823246D01*
X190631579Y-83822120D01*
X190631575Y-83822119D01*
X190443813Y-83784771D01*
X190443810Y-83784771D01*
X190438146Y-83783644D01*
X190432371Y-83783568D01*
X190432367Y-83783568D01*
X190330993Y-83782241D01*
X190235171Y-83780987D01*
X190229474Y-83781966D01*
X190229473Y-83781966D01*
X190141597Y-83797066D01*
X190035110Y-83815364D01*
X189844663Y-83885624D01*
X189670210Y-83989412D01*
X189665870Y-83993218D01*
X189665866Y-83993221D01*
X189521933Y-84119448D01*
X189517592Y-84123255D01*
X189391920Y-84282669D01*
X189389231Y-84287780D01*
X189389229Y-84287783D01*
X189376273Y-84312409D01*
X189297403Y-84462315D01*
X189237207Y-84656178D01*
X189213348Y-84857764D01*
X189226624Y-85060322D01*
X189228045Y-85065918D01*
X189228046Y-85065923D01*
X189247063Y-85140800D01*
X189276592Y-85257069D01*
X189279009Y-85262312D01*
X189316210Y-85343008D01*
X189361577Y-85441416D01*
X189478733Y-85607189D01*
X189624138Y-85748835D01*
X189736523Y-85823928D01*
X189736533Y-85823935D01*
X189782061Y-85878412D01*
X189790909Y-85948855D01*
X189760267Y-86012899D01*
X189699866Y-86050210D01*
X189666531Y-86054700D01*
X189577733Y-86054700D01*
X189509612Y-86034698D01*
X189488638Y-86017795D01*
X188854301Y-85383458D01*
X188820275Y-85321146D01*
X188824083Y-85253863D01*
X188860784Y-85145745D01*
X188861612Y-85140036D01*
X188861613Y-85140031D01*
X188889379Y-84948527D01*
X188889912Y-84944853D01*
X188891432Y-84886800D01*
X188872858Y-84684659D01*
X188871290Y-84679099D01*
X188819325Y-84494846D01*
X188819324Y-84494844D01*
X188817757Y-84489287D01*
X188807178Y-84467833D01*
X188730531Y-84312409D01*
X188727976Y-84307228D01*
X188606520Y-84144579D01*
X188457458Y-84006787D01*
X188452575Y-84003706D01*
X188452571Y-84003703D01*
X188290664Y-83901548D01*
X188285781Y-83898467D01*
X188097239Y-83823246D01*
X188091579Y-83822120D01*
X188091575Y-83822119D01*
X187903813Y-83784771D01*
X187903810Y-83784771D01*
X187898146Y-83783644D01*
X187892371Y-83783568D01*
X187892367Y-83783568D01*
X187790993Y-83782241D01*
X187695171Y-83780987D01*
X187689474Y-83781966D01*
X187689473Y-83781966D01*
X187601597Y-83797066D01*
X187495110Y-83815364D01*
X187304663Y-83885624D01*
X187130210Y-83989412D01*
X187125870Y-83993218D01*
X187125866Y-83993221D01*
X186981933Y-84119448D01*
X186977592Y-84123255D01*
X186851920Y-84282669D01*
X186849231Y-84287780D01*
X186849229Y-84287783D01*
X186836273Y-84312409D01*
X186757403Y-84462315D01*
X186697207Y-84656178D01*
X186673348Y-84857764D01*
X186686624Y-85060322D01*
X186688045Y-85065918D01*
X186688046Y-85065923D01*
X186707063Y-85140800D01*
X186736592Y-85257069D01*
X186739009Y-85262312D01*
X186776210Y-85343008D01*
X186821577Y-85441416D01*
X186938733Y-85607189D01*
X187084138Y-85748835D01*
X187252920Y-85861612D01*
X187258223Y-85863890D01*
X187258226Y-85863892D01*
X187434121Y-85939462D01*
X187439428Y-85941742D01*
X187512444Y-85958264D01*
X187631779Y-85985267D01*
X187631784Y-85985268D01*
X187637416Y-85986542D01*
X187643187Y-85986769D01*
X187643189Y-85986769D01*
X187702956Y-85989117D01*
X187840253Y-85994512D01*
X187947548Y-85978955D01*
X188035431Y-85966213D01*
X188035436Y-85966212D01*
X188041145Y-85965384D01*
X188149263Y-85928683D01*
X188220196Y-85925727D01*
X188278858Y-85958901D01*
X189114849Y-86794892D01*
X189134904Y-86805110D01*
X189151759Y-86815440D01*
X189169968Y-86828670D01*
X189179401Y-86831735D01*
X189179403Y-86831736D01*
X189191380Y-86835628D01*
X189209641Y-86843192D01*
X189229694Y-86853409D01*
X189239487Y-86854960D01*
X189251926Y-86856930D01*
X189271152Y-86861546D01*
X189292554Y-86868500D01*
X192846489Y-86868500D01*
X192914610Y-86888502D01*
X192935584Y-86905405D01*
X193773384Y-87743205D01*
X193807410Y-87805517D01*
X193802345Y-87876332D01*
X193759798Y-87933168D01*
X193693278Y-87957979D01*
X193684289Y-87958300D01*
X191141067Y-87958301D01*
X191083134Y-87958301D01*
X191047382Y-87965412D01*
X191021074Y-87970644D01*
X191021072Y-87970645D01*
X191008899Y-87973066D01*
X190998579Y-87979961D01*
X190998578Y-87979962D01*
X190938185Y-88020316D01*
X190924716Y-88029316D01*
X190868466Y-88113499D01*
X190853700Y-88187733D01*
X190853700Y-88193920D01*
X190853701Y-90695982D01*
X190833699Y-90764103D01*
X190816796Y-90785077D01*
X189239078Y-92362795D01*
X189176766Y-92396821D01*
X189149983Y-92399700D01*
X183659777Y-92399700D01*
X183591656Y-92379698D01*
X183553974Y-92337495D01*
X183551950Y-92338735D01*
X183548930Y-92333807D01*
X183546376Y-92328628D01*
X183424920Y-92165979D01*
X183275858Y-92028187D01*
X183270975Y-92025106D01*
X183270971Y-92025103D01*
X183109064Y-91922948D01*
X183104181Y-91919867D01*
X182915639Y-91844646D01*
X182909979Y-91843520D01*
X182909975Y-91843519D01*
X182722213Y-91806171D01*
X182722210Y-91806171D01*
X182716546Y-91805044D01*
X182710771Y-91804968D01*
X182710767Y-91804968D01*
X182609393Y-91803641D01*
X182513571Y-91802387D01*
X182507874Y-91803366D01*
X182507873Y-91803366D01*
X182319207Y-91835785D01*
X182313510Y-91836764D01*
X182123063Y-91907024D01*
X181948610Y-92010812D01*
X181944270Y-92014618D01*
X181944266Y-92014621D01*
X181924323Y-92032111D01*
X181795992Y-92144655D01*
X181670320Y-92304069D01*
X181667631Y-92309180D01*
X181667629Y-92309183D01*
X181630529Y-92379698D01*
X181575803Y-92483715D01*
X181515607Y-92677578D01*
X181491748Y-92879164D01*
X179628910Y-92879164D01*
X179628910Y-84010282D01*
X179648912Y-83942161D01*
X179665815Y-83921187D01*
X197876836Y-65710166D01*
X197939148Y-65676140D01*
X197970877Y-65673358D01*
X197980833Y-65673749D01*
X198000253Y-65674512D01*
X198107548Y-65658955D01*
X198195431Y-65646213D01*
X198195436Y-65646212D01*
X198201145Y-65645384D01*
X198206609Y-65643529D01*
X198206614Y-65643528D01*
X198387893Y-65581992D01*
X198387898Y-65581990D01*
X198393365Y-65580134D01*
X198408556Y-65571626D01*
X198477762Y-65555793D01*
X198544544Y-65579889D01*
X198587698Y-65636266D01*
X198593522Y-65707023D01*
X198559216Y-65770656D01*
X182291296Y-82038577D01*
X182281756Y-82046200D01*
X182282070Y-82046568D01*
X182275234Y-82052386D01*
X182267642Y-82057176D01*
X182261700Y-82063904D01*
X182232007Y-82097525D01*
X182226661Y-82103212D01*
X182215218Y-82114655D01*
X182209578Y-82122180D01*
X182208941Y-82123030D01*
X182202567Y-82130859D01*
X182171222Y-82166351D01*
X182167408Y-82174474D01*
X182165774Y-82176962D01*
X182156786Y-82191923D01*
X182155371Y-82194508D01*
X182149984Y-82201695D01*
X182146833Y-82210101D01*
X182133359Y-82246042D01*
X182129433Y-82255358D01*
X182109319Y-82298200D01*
X182107938Y-82307069D01*
X182107072Y-82309902D01*
X182102642Y-82326789D01*
X182102008Y-82329674D01*
X182098855Y-82338084D01*
X182098190Y-82347039D01*
X182095346Y-82385306D01*
X182094192Y-82395352D01*
X182092100Y-82408786D01*
X182092100Y-82424306D01*
X182091754Y-82433643D01*
X182088061Y-82483341D01*
X182089935Y-82492120D01*
X182090498Y-82500378D01*
X182092100Y-82515561D01*
X182092100Y-89137701D01*
X182072098Y-89205822D01*
X182018442Y-89252315D01*
X181966100Y-89263701D01*
X181725534Y-89263701D01*
X181689782Y-89270812D01*
X181663474Y-89276044D01*
X181663472Y-89276045D01*
X181651299Y-89278466D01*
X181640979Y-89285361D01*
X181640978Y-89285362D01*
X181580585Y-89325716D01*
X181567116Y-89334716D01*
X181510866Y-89418899D01*
X181496100Y-89493133D01*
X181496101Y-91243266D01*
X181503212Y-91279018D01*
X181507371Y-91299928D01*
X181510866Y-91317501D01*
X181517761Y-91327820D01*
X181517762Y-91327822D01*
X181528157Y-91343379D01*
X181567116Y-91401684D01*
X181651299Y-91457934D01*
X181725533Y-91472700D01*
X182600458Y-91472700D01*
X183475666Y-91472699D01*
X183511418Y-91465588D01*
X183537726Y-91460356D01*
X183537728Y-91460355D01*
X183549901Y-91457934D01*
X183560221Y-91451039D01*
X183560222Y-91451038D01*
X183623768Y-91408577D01*
X183634084Y-91401684D01*
X183690334Y-91317501D01*
X183705100Y-91243267D01*
X183705099Y-89493134D01*
X183690334Y-89418899D01*
X183634084Y-89334716D01*
X183549901Y-89278466D01*
X183475667Y-89263700D01*
X183235100Y-89263700D01*
X183166979Y-89243698D01*
X183120486Y-89190042D01*
X183109100Y-89137700D01*
X183109100Y-84857764D01*
X184133348Y-84857764D01*
X184146624Y-85060322D01*
X184148045Y-85065918D01*
X184148046Y-85065923D01*
X184167063Y-85140800D01*
X184196592Y-85257069D01*
X184199009Y-85262312D01*
X184236210Y-85343008D01*
X184281577Y-85441416D01*
X184398733Y-85607189D01*
X184544138Y-85748835D01*
X184712920Y-85861612D01*
X184718223Y-85863890D01*
X184718226Y-85863892D01*
X184894121Y-85939462D01*
X184899428Y-85941742D01*
X184972444Y-85958264D01*
X185091779Y-85985267D01*
X185091784Y-85985268D01*
X185097416Y-85986542D01*
X185103187Y-85986769D01*
X185103189Y-85986769D01*
X185162956Y-85989117D01*
X185300253Y-85994512D01*
X185407548Y-85978955D01*
X185495431Y-85966213D01*
X185495436Y-85966212D01*
X185501145Y-85965384D01*
X185506609Y-85963529D01*
X185506614Y-85963528D01*
X185687893Y-85901992D01*
X185687898Y-85901990D01*
X185693365Y-85900134D01*
X185732153Y-85878412D01*
X185767883Y-85858402D01*
X185870476Y-85800947D01*
X185910169Y-85767935D01*
X185997896Y-85694972D01*
X186026545Y-85671145D01*
X186156347Y-85515076D01*
X186255534Y-85337965D01*
X186257390Y-85332498D01*
X186257392Y-85332493D01*
X186318928Y-85151214D01*
X186318929Y-85151209D01*
X186320784Y-85145745D01*
X186321612Y-85140036D01*
X186321613Y-85140031D01*
X186349379Y-84948527D01*
X186349912Y-84944853D01*
X186351432Y-84886800D01*
X186332858Y-84684659D01*
X186331290Y-84679099D01*
X186279325Y-84494846D01*
X186279324Y-84494844D01*
X186277757Y-84489287D01*
X186267178Y-84467833D01*
X186190531Y-84312409D01*
X186187976Y-84307228D01*
X186066520Y-84144579D01*
X185917458Y-84006787D01*
X185912575Y-84003706D01*
X185912571Y-84003703D01*
X185750664Y-83901548D01*
X185745781Y-83898467D01*
X185557239Y-83823246D01*
X185551579Y-83822120D01*
X185551575Y-83822119D01*
X185363813Y-83784771D01*
X185363810Y-83784771D01*
X185358146Y-83783644D01*
X185352371Y-83783568D01*
X185352367Y-83783568D01*
X185250993Y-83782241D01*
X185155171Y-83780987D01*
X185149474Y-83781966D01*
X185149473Y-83781966D01*
X185061597Y-83797066D01*
X184955110Y-83815364D01*
X184764663Y-83885624D01*
X184590210Y-83989412D01*
X184585870Y-83993218D01*
X184585866Y-83993221D01*
X184441933Y-84119448D01*
X184437592Y-84123255D01*
X184311920Y-84282669D01*
X184309231Y-84287780D01*
X184309229Y-84287783D01*
X184296273Y-84312409D01*
X184217403Y-84462315D01*
X184157207Y-84656178D01*
X184133348Y-84857764D01*
X183109100Y-84857764D01*
X183109100Y-82711217D01*
X183129102Y-82643096D01*
X183146005Y-82622122D01*
X183326431Y-82441696D01*
X191028267Y-82441696D01*
X191045146Y-82594583D01*
X191047755Y-82601714D01*
X191047756Y-82601716D01*
X191054863Y-82621135D01*
X191098006Y-82739030D01*
X191102242Y-82745333D01*
X191102242Y-82745334D01*
X191179562Y-82860399D01*
X191179565Y-82860402D01*
X191183796Y-82866699D01*
X191297563Y-82970219D01*
X191432738Y-83043613D01*
X191581519Y-83082645D01*
X191661338Y-83083899D01*
X191727718Y-83084942D01*
X191727721Y-83084942D01*
X191735316Y-83085061D01*
X191742720Y-83083365D01*
X191742722Y-83083365D01*
X191797989Y-83070707D01*
X191885249Y-83050722D01*
X191906587Y-83039990D01*
X192015881Y-82985022D01*
X192015884Y-82985020D01*
X192022664Y-82981610D01*
X192139626Y-82881714D01*
X192229383Y-82756803D01*
X192286755Y-82614088D01*
X192308428Y-82461807D01*
X192308568Y-82448400D01*
X192306846Y-82434165D01*
X192292869Y-82318675D01*
X192290089Y-82295699D01*
X192235719Y-82151813D01*
X192163134Y-82046200D01*
X192152899Y-82031308D01*
X192152897Y-82031306D01*
X192148597Y-82025049D01*
X192092081Y-81974695D01*
X192054525Y-81914445D01*
X192049900Y-81880619D01*
X192049900Y-76776714D01*
X192069902Y-76708593D01*
X192086805Y-76687619D01*
X200167542Y-68606882D01*
X200229854Y-68572856D01*
X200300669Y-68577921D01*
X200357505Y-68620468D01*
X200381876Y-68682150D01*
X200384141Y-68702660D01*
X200392346Y-68776983D01*
X200445206Y-68921430D01*
X200449442Y-68927733D01*
X200449442Y-68927734D01*
X200526762Y-69042799D01*
X200526765Y-69042802D01*
X200530996Y-69049099D01*
X200644763Y-69152619D01*
X200779938Y-69226013D01*
X200928719Y-69265045D01*
X201012388Y-69266359D01*
X201062193Y-69267142D01*
X201129991Y-69288211D01*
X201149309Y-69304031D01*
X202383954Y-70538676D01*
X202399318Y-70557699D01*
X202400282Y-70558758D01*
X202405929Y-70567504D01*
X202414108Y-70573952D01*
X202414110Y-70573954D01*
X202432477Y-70588434D01*
X202436950Y-70592409D01*
X202437011Y-70592337D01*
X202440968Y-70595690D01*
X202444649Y-70599371D01*
X202448881Y-70602395D01*
X202460439Y-70610655D01*
X202465185Y-70614218D01*
X202505670Y-70646134D01*
X202514355Y-70649184D01*
X202521843Y-70654535D01*
X202571250Y-70669310D01*
X202576837Y-70671126D01*
X202625502Y-70688216D01*
X202631091Y-70688700D01*
X202633802Y-70688700D01*
X202636471Y-70688815D01*
X202636532Y-70688834D01*
X202636525Y-70689008D01*
X202637272Y-70689055D01*
X202643525Y-70690925D01*
X202697689Y-70688797D01*
X202702635Y-70688700D01*
X210856750Y-70688700D01*
X210924871Y-70708702D01*
X210944652Y-70725877D01*
X210944996Y-70725499D01*
X211058763Y-70829019D01*
X211193938Y-70902413D01*
X211342719Y-70941445D01*
X211426388Y-70942759D01*
X211476193Y-70943542D01*
X211543991Y-70964611D01*
X211563309Y-70980431D01*
X213509156Y-72926279D01*
X213524515Y-72945295D01*
X213525481Y-72946356D01*
X213531129Y-72955104D01*
X213542855Y-72964348D01*
X213557672Y-72976029D01*
X213562150Y-72980008D01*
X213562210Y-72979937D01*
X213566167Y-72983290D01*
X213569848Y-72986971D01*
X213574080Y-72989995D01*
X213574082Y-72989997D01*
X213585657Y-72998269D01*
X213590402Y-73001832D01*
X213630870Y-73033734D01*
X213639555Y-73036784D01*
X213647042Y-73042134D01*
X213696447Y-73056909D01*
X213702042Y-73058727D01*
X213750702Y-73075816D01*
X213756291Y-73076300D01*
X213759004Y-73076300D01*
X213761669Y-73076415D01*
X213761732Y-73076434D01*
X213761725Y-73076608D01*
X213762471Y-73076655D01*
X213768724Y-73078525D01*
X213818583Y-73076566D01*
X213822878Y-73076397D01*
X213827825Y-73076300D01*
X214158750Y-73076300D01*
X214226871Y-73096302D01*
X214246652Y-73113477D01*
X214246996Y-73113099D01*
X214360763Y-73216619D01*
X214367440Y-73220244D01*
X214367441Y-73220245D01*
X214416366Y-73246809D01*
X214466688Y-73296891D01*
X214481945Y-73366229D01*
X214457293Y-73432808D01*
X214445340Y-73446635D01*
X213583580Y-74308395D01*
X213521268Y-74342421D01*
X213494485Y-74345300D01*
X202807568Y-74345300D01*
X202739447Y-74325298D01*
X202716413Y-74305509D01*
X202714997Y-74303449D01*
X202709334Y-74298403D01*
X202709330Y-74298399D01*
X202605824Y-74206180D01*
X202600153Y-74201127D01*
X202586402Y-74193846D01*
X202470931Y-74132707D01*
X202470928Y-74132706D01*
X202464216Y-74129152D01*
X202315034Y-74091680D01*
X202307436Y-74091640D01*
X202307434Y-74091640D01*
X202241943Y-74091297D01*
X202161221Y-74090875D01*
X202153842Y-74092647D01*
X202153838Y-74092647D01*
X202019034Y-74125010D01*
X202019030Y-74125011D01*
X202011655Y-74126782D01*
X201874972Y-74197329D01*
X201759062Y-74298444D01*
X201670618Y-74424288D01*
X201614744Y-74567597D01*
X201594667Y-74720096D01*
X201611546Y-74872983D01*
X201664406Y-75017430D01*
X201668642Y-75023733D01*
X201668642Y-75023734D01*
X201745962Y-75138799D01*
X201745965Y-75138802D01*
X201750196Y-75145099D01*
X201863963Y-75248619D01*
X201999138Y-75322013D01*
X202147919Y-75361045D01*
X202227738Y-75362299D01*
X202294118Y-75363342D01*
X202294121Y-75363342D01*
X202301716Y-75363461D01*
X202309120Y-75361765D01*
X202309122Y-75361765D01*
X202379466Y-75345654D01*
X202451649Y-75329122D01*
X202476125Y-75316812D01*
X202582281Y-75263422D01*
X202582284Y-75263420D01*
X202589064Y-75260010D01*
X202706026Y-75160114D01*
X202710459Y-75153944D01*
X202714993Y-75149014D01*
X202775826Y-75112409D01*
X202807742Y-75108300D01*
X203226491Y-75108300D01*
X203294612Y-75128302D01*
X203341105Y-75181958D01*
X203351209Y-75252232D01*
X203321715Y-75316812D01*
X203284281Y-75346266D01*
X203255417Y-75361164D01*
X203246572Y-75365729D01*
X203240850Y-75370721D01*
X203240848Y-75370722D01*
X203214335Y-75393851D01*
X203130662Y-75466844D01*
X203042218Y-75592688D01*
X202986344Y-75735997D01*
X202966267Y-75888496D01*
X202983146Y-76041383D01*
X202985755Y-76048514D01*
X202985756Y-76048516D01*
X203026922Y-76161006D01*
X203036006Y-76185830D01*
X203040242Y-76192133D01*
X203040242Y-76192134D01*
X203117562Y-76307199D01*
X203117565Y-76307202D01*
X203121796Y-76313499D01*
X203143720Y-76333448D01*
X203212843Y-76396345D01*
X203235563Y-76417019D01*
X203370738Y-76490413D01*
X203519519Y-76529445D01*
X203599338Y-76530699D01*
X203665718Y-76531742D01*
X203665721Y-76531742D01*
X203673316Y-76531861D01*
X203680720Y-76530165D01*
X203680722Y-76530165D01*
X203735989Y-76517507D01*
X203823249Y-76497522D01*
X203915031Y-76451361D01*
X203953881Y-76431822D01*
X203953884Y-76431820D01*
X203960664Y-76428410D01*
X204077626Y-76328514D01*
X204082059Y-76322344D01*
X204086593Y-76317414D01*
X204147426Y-76280809D01*
X204179342Y-76276700D01*
X214118665Y-76276700D01*
X214142964Y-76279286D01*
X214144402Y-76279354D01*
X214154580Y-76281545D01*
X214188141Y-76277573D01*
X214194120Y-76277221D01*
X214194112Y-76277128D01*
X214199290Y-76276700D01*
X214204492Y-76276700D01*
X214223646Y-76273512D01*
X214229504Y-76272678D01*
X214246118Y-76270712D01*
X214270367Y-76267842D01*
X214270368Y-76267842D01*
X214280707Y-76266618D01*
X214289006Y-76262633D01*
X214298083Y-76261122D01*
X214343451Y-76236642D01*
X214348714Y-76233961D01*
X214388050Y-76215073D01*
X214388054Y-76215070D01*
X214395198Y-76211640D01*
X214399492Y-76208030D01*
X214401424Y-76206098D01*
X214403373Y-76204311D01*
X214403426Y-76204282D01*
X214403545Y-76204412D01*
X214404113Y-76203911D01*
X214409857Y-76200812D01*
X214446653Y-76161006D01*
X214450083Y-76157439D01*
X214718971Y-75888552D01*
X214718984Y-75888538D01*
X218493676Y-72113846D01*
X218512699Y-72098482D01*
X218513758Y-72097518D01*
X218522504Y-72091871D01*
X218528952Y-72083692D01*
X218528954Y-72083690D01*
X218543434Y-72065323D01*
X218547409Y-72060850D01*
X218547337Y-72060789D01*
X218550690Y-72056832D01*
X218554371Y-72053151D01*
X218565655Y-72037360D01*
X218569219Y-72032614D01*
X218594687Y-72000308D01*
X218601134Y-71992130D01*
X218604184Y-71983445D01*
X218609535Y-71975957D01*
X218624310Y-71926550D01*
X218626126Y-71920963D01*
X218643216Y-71872298D01*
X218643700Y-71866709D01*
X218643700Y-71863998D01*
X218643815Y-71861329D01*
X218643834Y-71861268D01*
X218644008Y-71861275D01*
X218644055Y-71860528D01*
X218645925Y-71854275D01*
X218643797Y-71800111D01*
X218643700Y-71795165D01*
X218643700Y-65692397D01*
X218663702Y-65624276D01*
X218713940Y-65581161D01*
X218713365Y-65580134D01*
X218728555Y-65571627D01*
X218890476Y-65480947D01*
X218894915Y-65477255D01*
X218894918Y-65477253D01*
X219042113Y-65354831D01*
X219046545Y-65351145D01*
X219176347Y-65195076D01*
X219275534Y-65017965D01*
X219277390Y-65012498D01*
X219277392Y-65012493D01*
X219338928Y-64831214D01*
X219338929Y-64831209D01*
X219340784Y-64825745D01*
X219341612Y-64820036D01*
X219341613Y-64820031D01*
X219369379Y-64628527D01*
X219369912Y-64624853D01*
X219371432Y-64566800D01*
X219368764Y-64537764D01*
X219693348Y-64537764D01*
X219706624Y-64740322D01*
X219708045Y-64745918D01*
X219708046Y-64745923D01*
X219728319Y-64825745D01*
X219756592Y-64937069D01*
X219759009Y-64942312D01*
X219796208Y-65023003D01*
X219841577Y-65121416D01*
X219958733Y-65287189D01*
X219962875Y-65291224D01*
X220064977Y-65390686D01*
X220104138Y-65428835D01*
X220272920Y-65541612D01*
X220278223Y-65543890D01*
X220278226Y-65543892D01*
X220425527Y-65607177D01*
X220459428Y-65621742D01*
X220523615Y-65636266D01*
X220651779Y-65665267D01*
X220651784Y-65665268D01*
X220657416Y-65666542D01*
X220663187Y-65666769D01*
X220663189Y-65666769D01*
X220722956Y-65669117D01*
X220860253Y-65674512D01*
X220967548Y-65658955D01*
X221055431Y-65646213D01*
X221055436Y-65646212D01*
X221061145Y-65645384D01*
X221066609Y-65643529D01*
X221066614Y-65643528D01*
X221247893Y-65581992D01*
X221247898Y-65581990D01*
X221253365Y-65580134D01*
X221268556Y-65571627D01*
X221337507Y-65533012D01*
X221430476Y-65480947D01*
X221434915Y-65477255D01*
X221434918Y-65477253D01*
X221582113Y-65354831D01*
X221586545Y-65351145D01*
X221716347Y-65195076D01*
X221815534Y-65017965D01*
X221817390Y-65012498D01*
X221817392Y-65012493D01*
X221878928Y-64831214D01*
X221878929Y-64831209D01*
X221880784Y-64825745D01*
X221881612Y-64820036D01*
X221881613Y-64820031D01*
X221909379Y-64628527D01*
X221909912Y-64624853D01*
X221911432Y-64566800D01*
X221892858Y-64364659D01*
X221891290Y-64359099D01*
X221839325Y-64174846D01*
X221839324Y-64174844D01*
X221837757Y-64169287D01*
X221827178Y-64147833D01*
X221750531Y-63992409D01*
X221747976Y-63987228D01*
X221626520Y-63824579D01*
X221482809Y-63691733D01*
X222237700Y-63691733D01*
X222237701Y-65441866D01*
X222244739Y-65477253D01*
X222247042Y-65488828D01*
X222252466Y-65516101D01*
X222259361Y-65526420D01*
X222259362Y-65526422D01*
X222299716Y-65586815D01*
X222308716Y-65600284D01*
X222392899Y-65656534D01*
X222467133Y-65671300D01*
X223342058Y-65671300D01*
X224217266Y-65671299D01*
X224253018Y-65664188D01*
X224279326Y-65658956D01*
X224279328Y-65658955D01*
X224291501Y-65656534D01*
X224301821Y-65649639D01*
X224301822Y-65649638D01*
X224365368Y-65607177D01*
X224375684Y-65600284D01*
X224431934Y-65516101D01*
X224446700Y-65441867D01*
X224446699Y-63691734D01*
X224431934Y-63617499D01*
X224405854Y-63578467D01*
X224382577Y-63543632D01*
X224375684Y-63533316D01*
X224291501Y-63477066D01*
X224217267Y-63462300D01*
X223342342Y-63462300D01*
X222467134Y-63462301D01*
X222431382Y-63469412D01*
X222405074Y-63474644D01*
X222405072Y-63474645D01*
X222392899Y-63477066D01*
X222382579Y-63483961D01*
X222382578Y-63483962D01*
X222322185Y-63524316D01*
X222308716Y-63533316D01*
X222252466Y-63617499D01*
X222237700Y-63691733D01*
X221482809Y-63691733D01*
X221477458Y-63686787D01*
X221472575Y-63683706D01*
X221472571Y-63683703D01*
X221310664Y-63581548D01*
X221305781Y-63578467D01*
X221117239Y-63503246D01*
X221111579Y-63502120D01*
X221111575Y-63502119D01*
X220923813Y-63464771D01*
X220923810Y-63464771D01*
X220918146Y-63463644D01*
X220912371Y-63463568D01*
X220912367Y-63463568D01*
X220810993Y-63462241D01*
X220715171Y-63460987D01*
X220709474Y-63461966D01*
X220709473Y-63461966D01*
X220621597Y-63477066D01*
X220515110Y-63495364D01*
X220324663Y-63565624D01*
X220150210Y-63669412D01*
X220145870Y-63673218D01*
X220145866Y-63673221D01*
X220001933Y-63799448D01*
X219997592Y-63803255D01*
X219871920Y-63962669D01*
X219869231Y-63967780D01*
X219869229Y-63967783D01*
X219856273Y-63992409D01*
X219777403Y-64142315D01*
X219717207Y-64336178D01*
X219693348Y-64537764D01*
X219368764Y-64537764D01*
X219352858Y-64364659D01*
X219351290Y-64359099D01*
X219299325Y-64174846D01*
X219299324Y-64174844D01*
X219297757Y-64169287D01*
X219287178Y-64147833D01*
X219210531Y-63992409D01*
X219207976Y-63987228D01*
X219086520Y-63824579D01*
X218937458Y-63686787D01*
X218932575Y-63683706D01*
X218932571Y-63683703D01*
X218770664Y-63581548D01*
X218765781Y-63578467D01*
X218577239Y-63503246D01*
X218571579Y-63502120D01*
X218571575Y-63502119D01*
X218383813Y-63464771D01*
X218383810Y-63464771D01*
X218378146Y-63463644D01*
X218372371Y-63463568D01*
X218372367Y-63463568D01*
X218270993Y-63462241D01*
X218175171Y-63460987D01*
X218169474Y-63461966D01*
X218169473Y-63461966D01*
X218081597Y-63477066D01*
X217975110Y-63495364D01*
X217784663Y-63565624D01*
X217610210Y-63669412D01*
X217605870Y-63673218D01*
X217605866Y-63673221D01*
X217461933Y-63799448D01*
X217457592Y-63803255D01*
X217331920Y-63962669D01*
X217329231Y-63967780D01*
X217329229Y-63967783D01*
X217316273Y-63992409D01*
X217237403Y-64142315D01*
X217177207Y-64336178D01*
X217153348Y-64537764D01*
X217166624Y-64740322D01*
X217168045Y-64745918D01*
X217168046Y-64745923D01*
X217188319Y-64825745D01*
X217216592Y-64937069D01*
X217219009Y-64942312D01*
X217256208Y-65023003D01*
X217301577Y-65121416D01*
X217418733Y-65287189D01*
X217422875Y-65291224D01*
X217524977Y-65390686D01*
X217564138Y-65428835D01*
X217732920Y-65541612D01*
X217738227Y-65543892D01*
X217738229Y-65543893D01*
X217804437Y-65572338D01*
X217859130Y-65617606D01*
X217880700Y-65688106D01*
X217880700Y-71595587D01*
X217860698Y-71663708D01*
X217843795Y-71684682D01*
X214051681Y-75476796D01*
X213989368Y-75510821D01*
X213962586Y-75513700D01*
X204179168Y-75513700D01*
X204111047Y-75493698D01*
X204088013Y-75473909D01*
X204086597Y-75471849D01*
X204080934Y-75466803D01*
X204080930Y-75466799D01*
X203977424Y-75374580D01*
X203971753Y-75369527D01*
X203926665Y-75345654D01*
X203875821Y-75296101D01*
X203859840Y-75226927D01*
X203883794Y-75160093D01*
X203940078Y-75116820D01*
X203985624Y-75108300D01*
X213650563Y-75108300D01*
X213674862Y-75110886D01*
X213676300Y-75110954D01*
X213686478Y-75113145D01*
X213720039Y-75109173D01*
X213726018Y-75108821D01*
X213726010Y-75108728D01*
X213731188Y-75108300D01*
X213736390Y-75108300D01*
X213755544Y-75105112D01*
X213761402Y-75104278D01*
X213778016Y-75102312D01*
X213802265Y-75099442D01*
X213802266Y-75099442D01*
X213812605Y-75098218D01*
X213820904Y-75094233D01*
X213829981Y-75092722D01*
X213875349Y-75068242D01*
X213880612Y-75065561D01*
X213919948Y-75046673D01*
X213919952Y-75046670D01*
X213927096Y-75043240D01*
X213931390Y-75039630D01*
X213933322Y-75037698D01*
X213935271Y-75035911D01*
X213935324Y-75035882D01*
X213935443Y-75036012D01*
X213936011Y-75035511D01*
X213941755Y-75032412D01*
X213978566Y-74992590D01*
X213981995Y-74989025D01*
X215953676Y-73017344D01*
X215972699Y-73001980D01*
X215973758Y-73001016D01*
X215982504Y-72995369D01*
X215988952Y-72987190D01*
X215988954Y-72987188D01*
X216003434Y-72968821D01*
X216007409Y-72964348D01*
X216007337Y-72964287D01*
X216010690Y-72960330D01*
X216014371Y-72956649D01*
X216025655Y-72940858D01*
X216029219Y-72936112D01*
X216054687Y-72903806D01*
X216061134Y-72895628D01*
X216064184Y-72886943D01*
X216069535Y-72879455D01*
X216084310Y-72830048D01*
X216086126Y-72824461D01*
X216103216Y-72775796D01*
X216103700Y-72770207D01*
X216103700Y-72767496D01*
X216103815Y-72764827D01*
X216103834Y-72764766D01*
X216104008Y-72764773D01*
X216104055Y-72764026D01*
X216105925Y-72757773D01*
X216103797Y-72703609D01*
X216103700Y-72698663D01*
X216103700Y-65692397D01*
X216123702Y-65624276D01*
X216173940Y-65581161D01*
X216173365Y-65580134D01*
X216188555Y-65571627D01*
X216350476Y-65480947D01*
X216354915Y-65477255D01*
X216354918Y-65477253D01*
X216502113Y-65354831D01*
X216506545Y-65351145D01*
X216636347Y-65195076D01*
X216735534Y-65017965D01*
X216737390Y-65012498D01*
X216737392Y-65012493D01*
X216798928Y-64831214D01*
X216798929Y-64831209D01*
X216800784Y-64825745D01*
X216801612Y-64820036D01*
X216801613Y-64820031D01*
X216829379Y-64628527D01*
X216829912Y-64624853D01*
X216831432Y-64566800D01*
X216812858Y-64364659D01*
X216811290Y-64359099D01*
X216759325Y-64174846D01*
X216759324Y-64174844D01*
X216757757Y-64169287D01*
X216747178Y-64147833D01*
X216670531Y-63992409D01*
X216667976Y-63987228D01*
X216546520Y-63824579D01*
X216397458Y-63686787D01*
X216392575Y-63683706D01*
X216392571Y-63683703D01*
X216230664Y-63581548D01*
X216225781Y-63578467D01*
X216037239Y-63503246D01*
X216031579Y-63502120D01*
X216031575Y-63502119D01*
X215843813Y-63464771D01*
X215843810Y-63464771D01*
X215838146Y-63463644D01*
X215832371Y-63463568D01*
X215832367Y-63463568D01*
X215730993Y-63462241D01*
X215635171Y-63460987D01*
X215629474Y-63461966D01*
X215629473Y-63461966D01*
X215541597Y-63477066D01*
X215435110Y-63495364D01*
X215244663Y-63565624D01*
X215070210Y-63669412D01*
X215065870Y-63673218D01*
X215065866Y-63673221D01*
X214921933Y-63799448D01*
X214917592Y-63803255D01*
X214791920Y-63962669D01*
X214789231Y-63967780D01*
X214789229Y-63967783D01*
X214776273Y-63992409D01*
X214697403Y-64142315D01*
X214637207Y-64336178D01*
X214613348Y-64537764D01*
X214626624Y-64740322D01*
X214628045Y-64745918D01*
X214628046Y-64745923D01*
X214648319Y-64825745D01*
X214676592Y-64937069D01*
X214679009Y-64942312D01*
X214716208Y-65023003D01*
X214761577Y-65121416D01*
X214878733Y-65287189D01*
X214882875Y-65291224D01*
X214984977Y-65390686D01*
X215024138Y-65428835D01*
X215192920Y-65541612D01*
X215198227Y-65543892D01*
X215198229Y-65543893D01*
X215264437Y-65572338D01*
X215319130Y-65617606D01*
X215340700Y-65688106D01*
X215340700Y-72105279D01*
X215320698Y-72173400D01*
X215267042Y-72219893D01*
X215196768Y-72229997D01*
X215130881Y-72199355D01*
X215102629Y-72174183D01*
X215102623Y-72174179D01*
X215096953Y-72169127D01*
X215083202Y-72161846D01*
X214967731Y-72100707D01*
X214967728Y-72100706D01*
X214961016Y-72097152D01*
X214811834Y-72059680D01*
X214804236Y-72059640D01*
X214804234Y-72059640D01*
X214738743Y-72059297D01*
X214658021Y-72058875D01*
X214650642Y-72060647D01*
X214650638Y-72060647D01*
X214515834Y-72093010D01*
X214515830Y-72093011D01*
X214508455Y-72094782D01*
X214371772Y-72165329D01*
X214255862Y-72266444D01*
X214252072Y-72271836D01*
X214191992Y-72308850D01*
X214158802Y-72313300D01*
X214027412Y-72313300D01*
X213959291Y-72293298D01*
X213938317Y-72276395D01*
X212103295Y-70441373D01*
X212069269Y-70379061D01*
X212067647Y-70334525D01*
X212069628Y-70320607D01*
X212069768Y-70307200D01*
X212051289Y-70154499D01*
X211996919Y-70010613D01*
X211935502Y-69921250D01*
X211914099Y-69890108D01*
X211914097Y-69890106D01*
X211909797Y-69883849D01*
X211794953Y-69781527D01*
X211781202Y-69774246D01*
X211665731Y-69713107D01*
X211665728Y-69713106D01*
X211659016Y-69709552D01*
X211509834Y-69672080D01*
X211502236Y-69672040D01*
X211502234Y-69672040D01*
X211436743Y-69671697D01*
X211356021Y-69671275D01*
X211348642Y-69673047D01*
X211348638Y-69673047D01*
X211213834Y-69705410D01*
X211213830Y-69705411D01*
X211206455Y-69707182D01*
X211069772Y-69777729D01*
X210953862Y-69878844D01*
X210950072Y-69884236D01*
X210889992Y-69921250D01*
X210856802Y-69925700D01*
X202902213Y-69925700D01*
X202834092Y-69905698D01*
X202813118Y-69888795D01*
X201689295Y-68764972D01*
X201655269Y-68702660D01*
X201653648Y-68658119D01*
X201655047Y-68648292D01*
X201655047Y-68648286D01*
X201655628Y-68644207D01*
X201655768Y-68630800D01*
X201637289Y-68478099D01*
X201582919Y-68334213D01*
X201495797Y-68207449D01*
X201380953Y-68105127D01*
X201338881Y-68082851D01*
X201251731Y-68036707D01*
X201251728Y-68036706D01*
X201245016Y-68033152D01*
X201095834Y-67995680D01*
X201088234Y-67995640D01*
X201088232Y-67995640D01*
X201082340Y-67995609D01*
X201014325Y-67975249D01*
X200968115Y-67921349D01*
X200958382Y-67851023D01*
X200988214Y-67786599D01*
X200993908Y-67780516D01*
X202265219Y-66509205D01*
X202327531Y-66475179D01*
X202354314Y-66472300D01*
X207260665Y-66472300D01*
X207284964Y-66474886D01*
X207286402Y-66474954D01*
X207296580Y-66477145D01*
X207330141Y-66473173D01*
X207336120Y-66472821D01*
X207336112Y-66472728D01*
X207341290Y-66472300D01*
X207346492Y-66472300D01*
X207365646Y-66469112D01*
X207371504Y-66468278D01*
X207388118Y-66466312D01*
X207412367Y-66463442D01*
X207412368Y-66463442D01*
X207422707Y-66462218D01*
X207431006Y-66458233D01*
X207440083Y-66456722D01*
X207485451Y-66432242D01*
X207490714Y-66429561D01*
X207530050Y-66410673D01*
X207530054Y-66410670D01*
X207537198Y-66407240D01*
X207541492Y-66403630D01*
X207543424Y-66401698D01*
X207545373Y-66399911D01*
X207545426Y-66399882D01*
X207545545Y-66400012D01*
X207546113Y-66399511D01*
X207551857Y-66396412D01*
X207588668Y-66356590D01*
X207592097Y-66353025D01*
X208259729Y-65685393D01*
X208322041Y-65651367D01*
X208330743Y-65649792D01*
X208334722Y-65649215D01*
X208361145Y-65645384D01*
X208366620Y-65643525D01*
X208366622Y-65643525D01*
X208547893Y-65581992D01*
X208547898Y-65581990D01*
X208553365Y-65580134D01*
X208568556Y-65571627D01*
X208637507Y-65533012D01*
X208730476Y-65480947D01*
X208734915Y-65477255D01*
X208734918Y-65477253D01*
X208882113Y-65354831D01*
X208886545Y-65351145D01*
X209016347Y-65195076D01*
X209115534Y-65017965D01*
X209117390Y-65012498D01*
X209117392Y-65012493D01*
X209178928Y-64831214D01*
X209178929Y-64831209D01*
X209180784Y-64825745D01*
X209181612Y-64820036D01*
X209181613Y-64820031D01*
X209209379Y-64628527D01*
X209209912Y-64624853D01*
X209211432Y-64566800D01*
X209208764Y-64537764D01*
X209533348Y-64537764D01*
X209546624Y-64740322D01*
X209548045Y-64745918D01*
X209548046Y-64745923D01*
X209568319Y-64825745D01*
X209596592Y-64937069D01*
X209599009Y-64942312D01*
X209636208Y-65023003D01*
X209681577Y-65121416D01*
X209798733Y-65287189D01*
X209802875Y-65291224D01*
X209904977Y-65390686D01*
X209944138Y-65428835D01*
X210112920Y-65541612D01*
X210118223Y-65543890D01*
X210118226Y-65543892D01*
X210265527Y-65607177D01*
X210299428Y-65621742D01*
X210363615Y-65636266D01*
X210491779Y-65665267D01*
X210491784Y-65665268D01*
X210497416Y-65666542D01*
X210503187Y-65666769D01*
X210503189Y-65666769D01*
X210562956Y-65669117D01*
X210700253Y-65674512D01*
X210807548Y-65658955D01*
X210895431Y-65646213D01*
X210895436Y-65646212D01*
X210901145Y-65645384D01*
X210906609Y-65643529D01*
X210906614Y-65643528D01*
X211087893Y-65581992D01*
X211087898Y-65581990D01*
X211093365Y-65580134D01*
X211108556Y-65571627D01*
X211177507Y-65533012D01*
X211270476Y-65480947D01*
X211274915Y-65477255D01*
X211274918Y-65477253D01*
X211422113Y-65354831D01*
X211426545Y-65351145D01*
X211556347Y-65195076D01*
X211655534Y-65017965D01*
X211657390Y-65012498D01*
X211657392Y-65012493D01*
X211718928Y-64831214D01*
X211718929Y-64831209D01*
X211720784Y-64825745D01*
X211721612Y-64820036D01*
X211721613Y-64820031D01*
X211749379Y-64628527D01*
X211749912Y-64624853D01*
X211751432Y-64566800D01*
X211748764Y-64537764D01*
X212073348Y-64537764D01*
X212086624Y-64740322D01*
X212088045Y-64745918D01*
X212088046Y-64745923D01*
X212108319Y-64825745D01*
X212136592Y-64937069D01*
X212139009Y-64942312D01*
X212176208Y-65023003D01*
X212221577Y-65121416D01*
X212338733Y-65287189D01*
X212342875Y-65291224D01*
X212444977Y-65390686D01*
X212484138Y-65428835D01*
X212652920Y-65541612D01*
X212658223Y-65543890D01*
X212658226Y-65543892D01*
X212805527Y-65607177D01*
X212839428Y-65621742D01*
X212903615Y-65636266D01*
X213031779Y-65665267D01*
X213031784Y-65665268D01*
X213037416Y-65666542D01*
X213043187Y-65666769D01*
X213043189Y-65666769D01*
X213102956Y-65669117D01*
X213240253Y-65674512D01*
X213347548Y-65658955D01*
X213435431Y-65646213D01*
X213435436Y-65646212D01*
X213441145Y-65645384D01*
X213446609Y-65643529D01*
X213446614Y-65643528D01*
X213627893Y-65581992D01*
X213627898Y-65581990D01*
X213633365Y-65580134D01*
X213648556Y-65571627D01*
X213717507Y-65533012D01*
X213810476Y-65480947D01*
X213814915Y-65477255D01*
X213814918Y-65477253D01*
X213962113Y-65354831D01*
X213966545Y-65351145D01*
X214096347Y-65195076D01*
X214195534Y-65017965D01*
X214197390Y-65012498D01*
X214197392Y-65012493D01*
X214258928Y-64831214D01*
X214258929Y-64831209D01*
X214260784Y-64825745D01*
X214261612Y-64820036D01*
X214261613Y-64820031D01*
X214289379Y-64628527D01*
X214289912Y-64624853D01*
X214291432Y-64566800D01*
X214272858Y-64364659D01*
X214271290Y-64359099D01*
X214219325Y-64174846D01*
X214219324Y-64174844D01*
X214217757Y-64169287D01*
X214207178Y-64147833D01*
X214130531Y-63992409D01*
X214127976Y-63987228D01*
X214006520Y-63824579D01*
X213857458Y-63686787D01*
X213852575Y-63683706D01*
X213852571Y-63683703D01*
X213690664Y-63581548D01*
X213685781Y-63578467D01*
X213497239Y-63503246D01*
X213491579Y-63502120D01*
X213491575Y-63502119D01*
X213303813Y-63464771D01*
X213303810Y-63464771D01*
X213298146Y-63463644D01*
X213292371Y-63463568D01*
X213292367Y-63463568D01*
X213190993Y-63462241D01*
X213095171Y-63460987D01*
X213089474Y-63461966D01*
X213089473Y-63461966D01*
X213001597Y-63477066D01*
X212895110Y-63495364D01*
X212704663Y-63565624D01*
X212530210Y-63669412D01*
X212525870Y-63673218D01*
X212525866Y-63673221D01*
X212381933Y-63799448D01*
X212377592Y-63803255D01*
X212251920Y-63962669D01*
X212249231Y-63967780D01*
X212249229Y-63967783D01*
X212236273Y-63992409D01*
X212157403Y-64142315D01*
X212097207Y-64336178D01*
X212073348Y-64537764D01*
X211748764Y-64537764D01*
X211732858Y-64364659D01*
X211731290Y-64359099D01*
X211679325Y-64174846D01*
X211679324Y-64174844D01*
X211677757Y-64169287D01*
X211667178Y-64147833D01*
X211590531Y-63992409D01*
X211587976Y-63987228D01*
X211466520Y-63824579D01*
X211317458Y-63686787D01*
X211312575Y-63683706D01*
X211312571Y-63683703D01*
X211150664Y-63581548D01*
X211145781Y-63578467D01*
X210957239Y-63503246D01*
X210951579Y-63502120D01*
X210951575Y-63502119D01*
X210763813Y-63464771D01*
X210763810Y-63464771D01*
X210758146Y-63463644D01*
X210752371Y-63463568D01*
X210752367Y-63463568D01*
X210650993Y-63462241D01*
X210555171Y-63460987D01*
X210549474Y-63461966D01*
X210549473Y-63461966D01*
X210461597Y-63477066D01*
X210355110Y-63495364D01*
X210164663Y-63565624D01*
X209990210Y-63669412D01*
X209985870Y-63673218D01*
X209985866Y-63673221D01*
X209841933Y-63799448D01*
X209837592Y-63803255D01*
X209711920Y-63962669D01*
X209709231Y-63967780D01*
X209709229Y-63967783D01*
X209696273Y-63992409D01*
X209617403Y-64142315D01*
X209557207Y-64336178D01*
X209533348Y-64537764D01*
X209208764Y-64537764D01*
X209192858Y-64364659D01*
X209191290Y-64359099D01*
X209139325Y-64174846D01*
X209139324Y-64174844D01*
X209137757Y-64169287D01*
X209127178Y-64147833D01*
X209050531Y-63992409D01*
X209047976Y-63987228D01*
X208926520Y-63824579D01*
X208777458Y-63686787D01*
X208772575Y-63683706D01*
X208772571Y-63683703D01*
X208610664Y-63581548D01*
X208605781Y-63578467D01*
X208417239Y-63503246D01*
X208411579Y-63502120D01*
X208411575Y-63502119D01*
X208223813Y-63464771D01*
X208223810Y-63464771D01*
X208218146Y-63463644D01*
X208212371Y-63463568D01*
X208212367Y-63463568D01*
X208110993Y-63462241D01*
X208015171Y-63460987D01*
X208009474Y-63461966D01*
X208009473Y-63461966D01*
X207921597Y-63477066D01*
X207815110Y-63495364D01*
X207624663Y-63565624D01*
X207450210Y-63669412D01*
X207445870Y-63673218D01*
X207445866Y-63673221D01*
X207301933Y-63799448D01*
X207297592Y-63803255D01*
X207171920Y-63962669D01*
X207169231Y-63967780D01*
X207169229Y-63967783D01*
X207156273Y-63992409D01*
X207077403Y-64142315D01*
X207017207Y-64336178D01*
X206993348Y-64537764D01*
X207006624Y-64740322D01*
X207008045Y-64745918D01*
X207008046Y-64745923D01*
X207028319Y-64825745D01*
X207056592Y-64937069D01*
X207059009Y-64942312D01*
X207096208Y-65023003D01*
X207141577Y-65121416D01*
X207258733Y-65287189D01*
X207329464Y-65356091D01*
X207364301Y-65417952D01*
X207360164Y-65488828D01*
X207330637Y-65535440D01*
X207193682Y-65672395D01*
X207131370Y-65706421D01*
X207104587Y-65709300D01*
X206263073Y-65709300D01*
X206194952Y-65689298D01*
X206148459Y-65635642D01*
X206138355Y-65565368D01*
X206167849Y-65500788D01*
X206189320Y-65481595D01*
X206190476Y-65480947D01*
X206346545Y-65351145D01*
X206476347Y-65195076D01*
X206575534Y-65017965D01*
X206577390Y-65012498D01*
X206577392Y-65012493D01*
X206638928Y-64831214D01*
X206638929Y-64831209D01*
X206640784Y-64825745D01*
X206641612Y-64820036D01*
X206641613Y-64820031D01*
X206669379Y-64628527D01*
X206669912Y-64624853D01*
X206671432Y-64566800D01*
X206652858Y-64364659D01*
X206651290Y-64359099D01*
X206599325Y-64174846D01*
X206599324Y-64174844D01*
X206597757Y-64169287D01*
X206587178Y-64147833D01*
X206510531Y-63992409D01*
X206507976Y-63987228D01*
X206386520Y-63824579D01*
X206237458Y-63686787D01*
X206232575Y-63683706D01*
X206232571Y-63683703D01*
X206070664Y-63581548D01*
X206065781Y-63578467D01*
X205877239Y-63503246D01*
X205871579Y-63502120D01*
X205871575Y-63502119D01*
X205683813Y-63464771D01*
X205683810Y-63464771D01*
X205678146Y-63463644D01*
X205672371Y-63463568D01*
X205672367Y-63463568D01*
X205570993Y-63462241D01*
X205475171Y-63460987D01*
X205469474Y-63461966D01*
X205469473Y-63461966D01*
X205381597Y-63477066D01*
X205275110Y-63495364D01*
X205084663Y-63565624D01*
X204910210Y-63669412D01*
X204905870Y-63673218D01*
X204905866Y-63673221D01*
X204761933Y-63799448D01*
X204757592Y-63803255D01*
X204631920Y-63962669D01*
X204629231Y-63967780D01*
X204629229Y-63967783D01*
X204616273Y-63992409D01*
X204537403Y-64142315D01*
X204477207Y-64336178D01*
X204453348Y-64537764D01*
X204466624Y-64740322D01*
X204468045Y-64745918D01*
X204468046Y-64745923D01*
X204488319Y-64825745D01*
X204516592Y-64937069D01*
X204519009Y-64942312D01*
X204556208Y-65023003D01*
X204601577Y-65121416D01*
X204718733Y-65287189D01*
X204722875Y-65291224D01*
X204824977Y-65390686D01*
X204864138Y-65428835D01*
X204868942Y-65432045D01*
X204938519Y-65478535D01*
X204984047Y-65533012D01*
X204992895Y-65603455D01*
X204962253Y-65667499D01*
X204901852Y-65704811D01*
X204868517Y-65709300D01*
X203723073Y-65709300D01*
X203654952Y-65689298D01*
X203608459Y-65635642D01*
X203598355Y-65565368D01*
X203627849Y-65500788D01*
X203649320Y-65481595D01*
X203650476Y-65480947D01*
X203806545Y-65351145D01*
X203936347Y-65195076D01*
X204035534Y-65017965D01*
X204037390Y-65012498D01*
X204037392Y-65012493D01*
X204098928Y-64831214D01*
X204098929Y-64831209D01*
X204100784Y-64825745D01*
X204101612Y-64820036D01*
X204101613Y-64820031D01*
X204129379Y-64628527D01*
X204129912Y-64624853D01*
X204131432Y-64566800D01*
X204112858Y-64364659D01*
X204111290Y-64359099D01*
X204059325Y-64174846D01*
X204059324Y-64174844D01*
X204057757Y-64169287D01*
X204047178Y-64147833D01*
X203970531Y-63992409D01*
X203967976Y-63987228D01*
X203846520Y-63824579D01*
X203697458Y-63686787D01*
X203692575Y-63683706D01*
X203692571Y-63683703D01*
X203530664Y-63581548D01*
X203525781Y-63578467D01*
X203337239Y-63503246D01*
X203331579Y-63502120D01*
X203331575Y-63502119D01*
X203143813Y-63464771D01*
X203143810Y-63464771D01*
X203138146Y-63463644D01*
X203132371Y-63463568D01*
X203132367Y-63463568D01*
X203030993Y-63462241D01*
X202935171Y-63460987D01*
X202929474Y-63461966D01*
X202929473Y-63461966D01*
X202841597Y-63477066D01*
X202735110Y-63495364D01*
X202544663Y-63565624D01*
X202370210Y-63669412D01*
X202365870Y-63673218D01*
X202365866Y-63673221D01*
X202221933Y-63799448D01*
X202217592Y-63803255D01*
X202091920Y-63962669D01*
X202089231Y-63967780D01*
X202089229Y-63967783D01*
X202076273Y-63992409D01*
X201997403Y-64142315D01*
X201937207Y-64336178D01*
X201913348Y-64537764D01*
X201926624Y-64740322D01*
X201928045Y-64745918D01*
X201928046Y-64745923D01*
X201948319Y-64825745D01*
X201976592Y-64937069D01*
X201979009Y-64942312D01*
X202016208Y-65023003D01*
X202061577Y-65121416D01*
X202178733Y-65287189D01*
X202182875Y-65291224D01*
X202284977Y-65390686D01*
X202324138Y-65428835D01*
X202328942Y-65432045D01*
X202398519Y-65478535D01*
X202444047Y-65533012D01*
X202452895Y-65603455D01*
X202422253Y-65667499D01*
X202361852Y-65704811D01*
X202328517Y-65709300D01*
X202198242Y-65709300D01*
X202173926Y-65706713D01*
X202172503Y-65706646D01*
X202162322Y-65704454D01*
X202128783Y-65708424D01*
X202128754Y-65708427D01*
X202122780Y-65708779D01*
X202122788Y-65708872D01*
X202117610Y-65709300D01*
X202112410Y-65709300D01*
X202107281Y-65710154D01*
X202107278Y-65710154D01*
X202093267Y-65712486D01*
X202087388Y-65713323D01*
X202046535Y-65718158D01*
X202046534Y-65718158D01*
X202036195Y-65719382D01*
X202027896Y-65723367D01*
X202018819Y-65724878D01*
X201973451Y-65749358D01*
X201968188Y-65752039D01*
X201921704Y-65774360D01*
X201917410Y-65777969D01*
X201915484Y-65779895D01*
X201913526Y-65781691D01*
X201913469Y-65781721D01*
X201913351Y-65781592D01*
X201912786Y-65782090D01*
X201907045Y-65785188D01*
X201899976Y-65792835D01*
X201899975Y-65792836D01*
X201870248Y-65824995D01*
X201866818Y-65828561D01*
X191436921Y-76258458D01*
X191417905Y-76273817D01*
X191416844Y-76274783D01*
X191408096Y-76280431D01*
X191401650Y-76288608D01*
X191387171Y-76306974D01*
X191383194Y-76311449D01*
X191383265Y-76311510D01*
X191379912Y-76315467D01*
X191376229Y-76319150D01*
X191373203Y-76323385D01*
X191373201Y-76323387D01*
X191364947Y-76334938D01*
X191361384Y-76339684D01*
X191329466Y-76380172D01*
X191326415Y-76388859D01*
X191321066Y-76396345D01*
X191318083Y-76406321D01*
X191318082Y-76406322D01*
X191306302Y-76445713D01*
X191304472Y-76451345D01*
X191287384Y-76500004D01*
X191286900Y-76505593D01*
X191286900Y-76508304D01*
X191286785Y-76510971D01*
X191286766Y-76511034D01*
X191286592Y-76511027D01*
X191286545Y-76511773D01*
X191284675Y-76518026D01*
X191285152Y-76530165D01*
X191286803Y-76572180D01*
X191286900Y-76577127D01*
X191286900Y-81880546D01*
X191266898Y-81948667D01*
X191243732Y-81975493D01*
X191192662Y-82020044D01*
X191104218Y-82145888D01*
X191101459Y-82152963D01*
X191101458Y-82152966D01*
X191051104Y-82282117D01*
X191048344Y-82289197D01*
X191047352Y-82296730D01*
X191047352Y-82296731D01*
X191031959Y-82413655D01*
X191028267Y-82441696D01*
X183326431Y-82441696D01*
X200095968Y-65672159D01*
X200158280Y-65638133D01*
X200212870Y-65638361D01*
X200303890Y-65658956D01*
X200337416Y-65666542D01*
X200343187Y-65666769D01*
X200343189Y-65666769D01*
X200402956Y-65669117D01*
X200540253Y-65674512D01*
X200647548Y-65658955D01*
X200735431Y-65646213D01*
X200735436Y-65646212D01*
X200741145Y-65645384D01*
X200746609Y-65643529D01*
X200746614Y-65643528D01*
X200927893Y-65581992D01*
X200927898Y-65581990D01*
X200933365Y-65580134D01*
X200948556Y-65571627D01*
X201017507Y-65533012D01*
X201110476Y-65480947D01*
X201114915Y-65477255D01*
X201114918Y-65477253D01*
X201262113Y-65354831D01*
X201266545Y-65351145D01*
X201396347Y-65195076D01*
X201495534Y-65017965D01*
X201497390Y-65012498D01*
X201497392Y-65012493D01*
X201558928Y-64831214D01*
X201558929Y-64831209D01*
X201560784Y-64825745D01*
X201561612Y-64820036D01*
X201561613Y-64820031D01*
X201589379Y-64628527D01*
X201589912Y-64624853D01*
X201591432Y-64566800D01*
X201572858Y-64364659D01*
X201571290Y-64359099D01*
X201519325Y-64174846D01*
X201519324Y-64174844D01*
X201517757Y-64169287D01*
X201507178Y-64147833D01*
X201430531Y-63992409D01*
X201427976Y-63987228D01*
X201306520Y-63824579D01*
X201157458Y-63686787D01*
X201152575Y-63683706D01*
X201152571Y-63683703D01*
X200990664Y-63581548D01*
X200985781Y-63578467D01*
X200797239Y-63503246D01*
X200791579Y-63502120D01*
X200791575Y-63502119D01*
X200603813Y-63464771D01*
X200603810Y-63464771D01*
X200598146Y-63463644D01*
X200592371Y-63463568D01*
X200592367Y-63463568D01*
X200490993Y-63462241D01*
X200395171Y-63460987D01*
X200389474Y-63461966D01*
X200389473Y-63461966D01*
X200301597Y-63477066D01*
X200195110Y-63495364D01*
X200004663Y-63565624D01*
X199830210Y-63669412D01*
X199825870Y-63673218D01*
X199825866Y-63673221D01*
X199681933Y-63799448D01*
X199677592Y-63803255D01*
X199551920Y-63962669D01*
X199549231Y-63967780D01*
X199549229Y-63967783D01*
X199536273Y-63992409D01*
X199457403Y-64142315D01*
X199397207Y-64336178D01*
X199373348Y-64537764D01*
X199386624Y-64740322D01*
X199388047Y-64745924D01*
X199410086Y-64832704D01*
X199407468Y-64903652D01*
X199377058Y-64952814D01*
X199146056Y-65183816D01*
X199083744Y-65217842D01*
X199012929Y-65212777D01*
X198956093Y-65170230D01*
X198931282Y-65103710D01*
X198947027Y-65033156D01*
X198955534Y-65017965D01*
X198957390Y-65012498D01*
X198957392Y-65012493D01*
X199018928Y-64831214D01*
X199018929Y-64831209D01*
X199020784Y-64825745D01*
X199021612Y-64820036D01*
X199021613Y-64820031D01*
X199049379Y-64628527D01*
X199049912Y-64624853D01*
X199051432Y-64566800D01*
X199032858Y-64364659D01*
X199031290Y-64359099D01*
X198979325Y-64174846D01*
X198979324Y-64174844D01*
X198977757Y-64169287D01*
X198967178Y-64147833D01*
X198890531Y-63992409D01*
X198887976Y-63987228D01*
X198766520Y-63824579D01*
X198617458Y-63686787D01*
X198612575Y-63683706D01*
X198612571Y-63683703D01*
X198450664Y-63581548D01*
X198445781Y-63578467D01*
X198257239Y-63503246D01*
X198251579Y-63502120D01*
X198251575Y-63502119D01*
X198063813Y-63464771D01*
X198063810Y-63464771D01*
X198058146Y-63463644D01*
X198052371Y-63463568D01*
X198052367Y-63463568D01*
X197950993Y-63462241D01*
X197855171Y-63460987D01*
X197849474Y-63461966D01*
X197849473Y-63461966D01*
X197761597Y-63477066D01*
X197655110Y-63495364D01*
X197464663Y-63565624D01*
X197290210Y-63669412D01*
X197285870Y-63673218D01*
X197285866Y-63673221D01*
X197141933Y-63799448D01*
X197137592Y-63803255D01*
X197011920Y-63962669D01*
X197009231Y-63967780D01*
X197009229Y-63967783D01*
X196996273Y-63992409D01*
X196917403Y-64142315D01*
X196857207Y-64336178D01*
X196833348Y-64537764D01*
X196846624Y-64740322D01*
X196848045Y-64745918D01*
X196848046Y-64745923D01*
X196868319Y-64825745D01*
X196896592Y-64937069D01*
X196899009Y-64942312D01*
X196936208Y-65023003D01*
X196981577Y-65121416D01*
X196984910Y-65126132D01*
X197087976Y-65271968D01*
X197110957Y-65339142D01*
X197093972Y-65408077D01*
X197074174Y-65433783D01*
X179361295Y-83146662D01*
X179298983Y-83180688D01*
X179228168Y-83175623D01*
X179171332Y-83133076D01*
X179146521Y-83066556D01*
X179146200Y-83057567D01*
X179146200Y-64537764D01*
X194293348Y-64537764D01*
X194306624Y-64740322D01*
X194308045Y-64745918D01*
X194308046Y-64745923D01*
X194328319Y-64825745D01*
X194356592Y-64937069D01*
X194359009Y-64942312D01*
X194396208Y-65023003D01*
X194441577Y-65121416D01*
X194558733Y-65287189D01*
X194562875Y-65291224D01*
X194664977Y-65390686D01*
X194704138Y-65428835D01*
X194872920Y-65541612D01*
X194878223Y-65543890D01*
X194878226Y-65543892D01*
X195025527Y-65607177D01*
X195059428Y-65621742D01*
X195123615Y-65636266D01*
X195251779Y-65665267D01*
X195251784Y-65665268D01*
X195257416Y-65666542D01*
X195263187Y-65666769D01*
X195263189Y-65666769D01*
X195322956Y-65669117D01*
X195460253Y-65674512D01*
X195567548Y-65658955D01*
X195655431Y-65646213D01*
X195655436Y-65646212D01*
X195661145Y-65645384D01*
X195666609Y-65643529D01*
X195666614Y-65643528D01*
X195847893Y-65581992D01*
X195847898Y-65581990D01*
X195853365Y-65580134D01*
X195868556Y-65571627D01*
X195937507Y-65533012D01*
X196030476Y-65480947D01*
X196034915Y-65477255D01*
X196034918Y-65477253D01*
X196182113Y-65354831D01*
X196186545Y-65351145D01*
X196316347Y-65195076D01*
X196415534Y-65017965D01*
X196417390Y-65012498D01*
X196417392Y-65012493D01*
X196478928Y-64831214D01*
X196478929Y-64831209D01*
X196480784Y-64825745D01*
X196481612Y-64820036D01*
X196481613Y-64820031D01*
X196509379Y-64628527D01*
X196509912Y-64624853D01*
X196511432Y-64566800D01*
X196492858Y-64364659D01*
X196491290Y-64359099D01*
X196439325Y-64174846D01*
X196439324Y-64174844D01*
X196437757Y-64169287D01*
X196427178Y-64147833D01*
X196350531Y-63992409D01*
X196347976Y-63987228D01*
X196226520Y-63824579D01*
X196077458Y-63686787D01*
X196072575Y-63683706D01*
X196072571Y-63683703D01*
X195910664Y-63581548D01*
X195905781Y-63578467D01*
X195717239Y-63503246D01*
X195711579Y-63502120D01*
X195711575Y-63502119D01*
X195523813Y-63464771D01*
X195523810Y-63464771D01*
X195518146Y-63463644D01*
X195512371Y-63463568D01*
X195512367Y-63463568D01*
X195410993Y-63462241D01*
X195315171Y-63460987D01*
X195309474Y-63461966D01*
X195309473Y-63461966D01*
X195221597Y-63477066D01*
X195115110Y-63495364D01*
X194924663Y-63565624D01*
X194750210Y-63669412D01*
X194745870Y-63673218D01*
X194745866Y-63673221D01*
X194601933Y-63799448D01*
X194597592Y-63803255D01*
X194471920Y-63962669D01*
X194469231Y-63967780D01*
X194469229Y-63967783D01*
X194456273Y-63992409D01*
X194377403Y-64142315D01*
X194317207Y-64336178D01*
X194293348Y-64537764D01*
X179146200Y-64537764D01*
X179146200Y-62406800D01*
X179166202Y-62338679D01*
X179219858Y-62292186D01*
X179272200Y-62280800D01*
X229312200Y-62280800D01*
X229380321Y-62300802D01*
G37*
%TD.AperFunction*%
%TD*%
M02*
