%TF.GenerationSoftware,KiCad,Pcbnew,(6.0.0-0)*%
%TF.CreationDate,2022-01-27T20:46:24+01:00*%
%TF.ProjectId,burrboard,62757272-626f-4617-9264-2e6b69636164,v3.0*%
%TF.SameCoordinates,Original*%
%TF.FileFunction,Soldermask,Top*%
%TF.FilePolarity,Negative*%
%FSLAX46Y46*%
G04 Gerber Fmt 4.6, Leading zero omitted, Abs format (unit mm)*
G04 Created by KiCad (PCBNEW (6.0.0-0)) date 2022-01-27 20:46:24*
%MOMM*%
%LPD*%
G01*
G04 APERTURE LIST*
G04 Aperture macros list*
%AMRoundRect*
0 Rectangle with rounded corners*
0 $1 Rounding radius*
0 $2 $3 $4 $5 $6 $7 $8 $9 X,Y pos of 4 corners*
0 Add a 4 corners polygon primitive as box body*
4,1,4,$2,$3,$4,$5,$6,$7,$8,$9,$2,$3,0*
0 Add four circle primitives for the rounded corners*
1,1,$1+$1,$2,$3*
1,1,$1+$1,$4,$5*
1,1,$1+$1,$6,$7*
1,1,$1+$1,$8,$9*
0 Add four rect primitives between the rounded corners*
20,1,$1+$1,$2,$3,$4,$5,0*
20,1,$1+$1,$4,$5,$6,$7,0*
20,1,$1+$1,$6,$7,$8,$9,0*
20,1,$1+$1,$8,$9,$2,$3,0*%
G04 Aperture macros list end*
%ADD10RoundRect,0.050800X-0.775000X-0.650000X0.775000X-0.650000X0.775000X0.650000X-0.775000X0.650000X0*%
%ADD11RoundRect,0.050800X0.550000X0.400000X-0.550000X0.400000X-0.550000X-0.400000X0.550000X-0.400000X0*%
%ADD12RoundRect,0.050800X-0.850000X0.850000X-0.850000X-0.850000X0.850000X-0.850000X0.850000X0.850000X0*%
%ADD13O,1.801600X1.801600*%
%ADD14RoundRect,0.294550X0.243750X0.456250X-0.243750X0.456250X-0.243750X-0.456250X0.243750X-0.456250X0*%
%ADD15RoundRect,0.300800X0.450000X-0.262500X0.450000X0.262500X-0.450000X0.262500X-0.450000X-0.262500X0*%
%ADD16RoundRect,0.300800X-0.262500X-0.450000X0.262500X-0.450000X0.262500X0.450000X-0.262500X0.450000X0*%
%ADD17RoundRect,0.300800X0.262500X0.450000X-0.262500X0.450000X-0.262500X-0.450000X0.262500X-0.450000X0*%
%ADD18RoundRect,0.300800X-0.450000X0.262500X-0.450000X-0.262500X0.450000X-0.262500X0.450000X0.262500X0*%
%ADD19RoundRect,0.200800X-0.150000X0.825000X-0.150000X-0.825000X0.150000X-0.825000X0.150000X0.825000X0*%
%ADD20RoundRect,0.300800X-0.250000X-0.475000X0.250000X-0.475000X0.250000X0.475000X-0.250000X0.475000X0*%
%ADD21C,3.551600*%
%ADD22RoundRect,0.050800X-1.500000X1.500000X-1.500000X-1.500000X1.500000X-1.500000X1.500000X1.500000X0*%
%ADD23C,3.101600*%
%ADD24RoundRect,0.050800X-0.950000X0.950000X-0.950000X-0.950000X0.950000X-0.950000X0.950000X0.950000X0*%
%ADD25C,2.001600*%
G04 APERTURE END LIST*
D10*
%TO.C,S2*%
X209385000Y-127112200D03*
X217335000Y-127112200D03*
X209385000Y-131612200D03*
X217335000Y-131612200D03*
%TD*%
D11*
%TO.C,Q1*%
X226819000Y-107958800D03*
X226819000Y-109058800D03*
X223269000Y-108508800D03*
%TD*%
D10*
%TO.C,S1*%
X191605000Y-127112200D03*
X199555000Y-127112200D03*
X191605000Y-131612200D03*
X199555000Y-131612200D03*
%TD*%
D12*
%TO.C,J1*%
X223342200Y-84886800D03*
D13*
X220802200Y-84886800D03*
X218262200Y-84886800D03*
X215722200Y-84886800D03*
X213182200Y-84886800D03*
X210642200Y-84886800D03*
X208102200Y-84886800D03*
X205562200Y-84886800D03*
X203022200Y-84886800D03*
X200482200Y-84886800D03*
X197942200Y-84886800D03*
X195402200Y-84886800D03*
X192862200Y-84886800D03*
X190322200Y-84886800D03*
X187782200Y-84886800D03*
X185242200Y-84886800D03*
%TD*%
D12*
%TO.C,J2*%
X223342200Y-64566800D03*
D13*
X220802200Y-64566800D03*
X218262200Y-64566800D03*
X215722200Y-64566800D03*
X213182200Y-64566800D03*
X210642200Y-64566800D03*
X208102200Y-64566800D03*
X205562200Y-64566800D03*
X203022200Y-64566800D03*
X200482200Y-64566800D03*
X197942200Y-64566800D03*
X195402200Y-64566800D03*
%TD*%
D14*
%TO.C,D2*%
X199946500Y-90932000D03*
X198071500Y-90932000D03*
%TD*%
%TO.C,D4*%
X221917500Y-90932000D03*
X220042500Y-90932000D03*
%TD*%
D15*
%TO.C,R4*%
X183591200Y-124102500D03*
X183591200Y-122277500D03*
%TD*%
%TO.C,R8*%
X224536000Y-90066500D03*
X224536000Y-88241500D03*
%TD*%
D16*
%TO.C,R7*%
X200763500Y-88595200D03*
X202588500Y-88595200D03*
%TD*%
D17*
%TO.C,R1*%
X225956500Y-114180000D03*
X224131500Y-114180000D03*
%TD*%
D18*
%TO.C,R5*%
X225044000Y-122277500D03*
X225044000Y-124102500D03*
%TD*%
D19*
%TO.C,U1*%
X185496200Y-106033800D03*
X184226200Y-106033800D03*
X182956200Y-106033800D03*
X181686200Y-106033800D03*
X181686200Y-110983800D03*
X182956200Y-110983800D03*
X184226200Y-110983800D03*
X185496200Y-110983800D03*
%TD*%
D20*
%TO.C,C1*%
X182641200Y-116128800D03*
X184541200Y-116128800D03*
%TD*%
D16*
%TO.C,R6*%
X191670300Y-92608400D03*
X193495300Y-92608400D03*
%TD*%
D14*
%TO.C,D1*%
X188897500Y-90932000D03*
X187022500Y-90932000D03*
%TD*%
D15*
%TO.C,R2*%
X215036400Y-90066500D03*
X215036400Y-88241500D03*
%TD*%
D14*
%TO.C,D3*%
X210995500Y-90932000D03*
X209120500Y-90932000D03*
%TD*%
D17*
%TO.C,R11*%
X192123700Y-77216000D03*
X190298700Y-77216000D03*
%TD*%
D16*
%TO.C,R10*%
X186437900Y-73355200D03*
X188262900Y-73355200D03*
%TD*%
D20*
%TO.C,C5*%
X190210400Y-70154800D03*
X192110400Y-70154800D03*
%TD*%
D21*
%TO.C,BT1*%
X216108200Y-113432800D03*
X192608200Y-113432800D03*
D22*
X192608200Y-89712800D03*
D23*
X205308200Y-89712800D03*
%TD*%
D24*
%TO.C,S3*%
X182168800Y-90482400D03*
D25*
X182168800Y-92982400D03*
X182168800Y-95482400D03*
%TD*%
M02*
