%TF.GenerationSoftware,KiCad,Pcbnew,(6.0.0-0)*%
%TF.CreationDate,2022-02-15T12:50:22+01:00*%
%TF.ProjectId,burrboard,62757272-626f-4617-9264-2e6b69636164,v3.0*%
%TF.SameCoordinates,Original*%
%TF.FileFunction,AssemblyDrawing,Top*%
%FSLAX46Y46*%
G04 Gerber Fmt 4.6, Leading zero omitted, Abs format (unit mm)*
G04 Created by KiCad (PCBNEW (6.0.0-0)) date 2022-02-15 12:50:22*
%MOMM*%
%LPD*%
G01*
G04 APERTURE LIST*
%ADD10C,0.100000*%
%ADD11C,0.150000*%
%ADD12C,0.300000*%
%ADD13C,0.400000*%
%TA.AperFunction,Profile*%
%ADD14C,0.050000*%
%TD*%
%ADD15C,0.050000*%
%ADD16C,0.080000*%
%ADD17C,0.254000*%
G04 APERTURE END LIST*
D10*
D11*
X177002200Y-166007200D02*
X177002200Y-198007200D01*
X285002200Y-198007200D01*
X285002200Y-166007200D01*
X177002200Y-166007200D01*
D10*
D11*
X10000000Y-10000000D02*
X10000000Y-200007200D01*
X287002200Y-200007200D01*
X287002200Y-10000000D01*
X10000000Y-10000000D01*
D10*
D11*
X12000000Y-12000000D02*
X12000000Y-198007200D01*
X285002200Y-198007200D01*
X285002200Y-12000000D01*
X12000000Y-12000000D01*
D10*
D11*
X60000000Y-12000000D02*
X60000000Y-10000000D01*
D10*
D11*
X110000000Y-12000000D02*
X110000000Y-10000000D01*
D10*
D11*
X160000000Y-12000000D02*
X160000000Y-10000000D01*
D10*
D11*
X210000000Y-12000000D02*
X210000000Y-10000000D01*
D10*
D11*
X260000000Y-12000000D02*
X260000000Y-10000000D01*
D10*
D11*
X36065476Y-11588095D02*
X35322619Y-11588095D01*
X35694047Y-11588095D02*
X35694047Y-10288095D01*
X35570238Y-10473809D01*
X35446428Y-10597619D01*
X35322619Y-10659523D01*
D10*
D11*
X85322619Y-10411904D02*
X85384523Y-10350000D01*
X85508333Y-10288095D01*
X85817857Y-10288095D01*
X85941666Y-10350000D01*
X86003571Y-10411904D01*
X86065476Y-10535714D01*
X86065476Y-10659523D01*
X86003571Y-10845238D01*
X85260714Y-11588095D01*
X86065476Y-11588095D01*
D10*
D11*
X135260714Y-10288095D02*
X136065476Y-10288095D01*
X135632142Y-10783333D01*
X135817857Y-10783333D01*
X135941666Y-10845238D01*
X136003571Y-10907142D01*
X136065476Y-11030952D01*
X136065476Y-11340476D01*
X136003571Y-11464285D01*
X135941666Y-11526190D01*
X135817857Y-11588095D01*
X135446428Y-11588095D01*
X135322619Y-11526190D01*
X135260714Y-11464285D01*
D10*
D11*
X185941666Y-10721428D02*
X185941666Y-11588095D01*
X185632142Y-10226190D02*
X185322619Y-11154761D01*
X186127380Y-11154761D01*
D10*
D11*
X236003571Y-10288095D02*
X235384523Y-10288095D01*
X235322619Y-10907142D01*
X235384523Y-10845238D01*
X235508333Y-10783333D01*
X235817857Y-10783333D01*
X235941666Y-10845238D01*
X236003571Y-10907142D01*
X236065476Y-11030952D01*
X236065476Y-11340476D01*
X236003571Y-11464285D01*
X235941666Y-11526190D01*
X235817857Y-11588095D01*
X235508333Y-11588095D01*
X235384523Y-11526190D01*
X235322619Y-11464285D01*
D10*
D11*
X285941666Y-10288095D02*
X285694047Y-10288095D01*
X285570238Y-10350000D01*
X285508333Y-10411904D01*
X285384523Y-10597619D01*
X285322619Y-10845238D01*
X285322619Y-11340476D01*
X285384523Y-11464285D01*
X285446428Y-11526190D01*
X285570238Y-11588095D01*
X285817857Y-11588095D01*
X285941666Y-11526190D01*
X286003571Y-11464285D01*
X286065476Y-11340476D01*
X286065476Y-11030952D01*
X286003571Y-10907142D01*
X285941666Y-10845238D01*
X285817857Y-10783333D01*
X285570238Y-10783333D01*
X285446428Y-10845238D01*
X285384523Y-10907142D01*
X285322619Y-11030952D01*
D10*
D11*
X60000000Y-198007200D02*
X60000000Y-200007200D01*
D10*
D11*
X110000000Y-198007200D02*
X110000000Y-200007200D01*
D10*
D11*
X160000000Y-198007200D02*
X160000000Y-200007200D01*
D10*
D11*
X210000000Y-198007200D02*
X210000000Y-200007200D01*
D10*
D11*
X260000000Y-198007200D02*
X260000000Y-200007200D01*
D10*
D11*
X36065476Y-199595295D02*
X35322619Y-199595295D01*
X35694047Y-199595295D02*
X35694047Y-198295295D01*
X35570238Y-198481009D01*
X35446428Y-198604819D01*
X35322619Y-198666723D01*
D10*
D11*
X85322619Y-198419104D02*
X85384523Y-198357200D01*
X85508333Y-198295295D01*
X85817857Y-198295295D01*
X85941666Y-198357200D01*
X86003571Y-198419104D01*
X86065476Y-198542914D01*
X86065476Y-198666723D01*
X86003571Y-198852438D01*
X85260714Y-199595295D01*
X86065476Y-199595295D01*
D10*
D11*
X135260714Y-198295295D02*
X136065476Y-198295295D01*
X135632142Y-198790533D01*
X135817857Y-198790533D01*
X135941666Y-198852438D01*
X136003571Y-198914342D01*
X136065476Y-199038152D01*
X136065476Y-199347676D01*
X136003571Y-199471485D01*
X135941666Y-199533390D01*
X135817857Y-199595295D01*
X135446428Y-199595295D01*
X135322619Y-199533390D01*
X135260714Y-199471485D01*
D10*
D11*
X185941666Y-198728628D02*
X185941666Y-199595295D01*
X185632142Y-198233390D02*
X185322619Y-199161961D01*
X186127380Y-199161961D01*
D10*
D11*
X236003571Y-198295295D02*
X235384523Y-198295295D01*
X235322619Y-198914342D01*
X235384523Y-198852438D01*
X235508333Y-198790533D01*
X235817857Y-198790533D01*
X235941666Y-198852438D01*
X236003571Y-198914342D01*
X236065476Y-199038152D01*
X236065476Y-199347676D01*
X236003571Y-199471485D01*
X235941666Y-199533390D01*
X235817857Y-199595295D01*
X235508333Y-199595295D01*
X235384523Y-199533390D01*
X235322619Y-199471485D01*
D10*
D11*
X285941666Y-198295295D02*
X285694047Y-198295295D01*
X285570238Y-198357200D01*
X285508333Y-198419104D01*
X285384523Y-198604819D01*
X285322619Y-198852438D01*
X285322619Y-199347676D01*
X285384523Y-199471485D01*
X285446428Y-199533390D01*
X285570238Y-199595295D01*
X285817857Y-199595295D01*
X285941666Y-199533390D01*
X286003571Y-199471485D01*
X286065476Y-199347676D01*
X286065476Y-199038152D01*
X286003571Y-198914342D01*
X285941666Y-198852438D01*
X285817857Y-198790533D01*
X285570238Y-198790533D01*
X285446428Y-198852438D01*
X285384523Y-198914342D01*
X285322619Y-199038152D01*
D10*
D11*
X10000000Y-60000000D02*
X12000000Y-60000000D01*
D10*
D11*
X10000000Y-110000000D02*
X12000000Y-110000000D01*
D10*
D11*
X10000000Y-160000000D02*
X12000000Y-160000000D01*
D10*
D11*
X10690476Y-35216666D02*
X11309523Y-35216666D01*
X10566666Y-35588095D02*
X11000000Y-34288095D01*
X11433333Y-35588095D01*
D10*
D11*
X11092857Y-84907142D02*
X11278571Y-84969047D01*
X11340476Y-85030952D01*
X11402380Y-85154761D01*
X11402380Y-85340476D01*
X11340476Y-85464285D01*
X11278571Y-85526190D01*
X11154761Y-85588095D01*
X10659523Y-85588095D01*
X10659523Y-84288095D01*
X11092857Y-84288095D01*
X11216666Y-84350000D01*
X11278571Y-84411904D01*
X11340476Y-84535714D01*
X11340476Y-84659523D01*
X11278571Y-84783333D01*
X11216666Y-84845238D01*
X11092857Y-84907142D01*
X10659523Y-84907142D01*
D10*
D11*
X11402380Y-135464285D02*
X11340476Y-135526190D01*
X11154761Y-135588095D01*
X11030952Y-135588095D01*
X10845238Y-135526190D01*
X10721428Y-135402380D01*
X10659523Y-135278571D01*
X10597619Y-135030952D01*
X10597619Y-134845238D01*
X10659523Y-134597619D01*
X10721428Y-134473809D01*
X10845238Y-134350000D01*
X11030952Y-134288095D01*
X11154761Y-134288095D01*
X11340476Y-134350000D01*
X11402380Y-134411904D01*
D10*
D11*
X10659523Y-185588095D02*
X10659523Y-184288095D01*
X10969047Y-184288095D01*
X11154761Y-184350000D01*
X11278571Y-184473809D01*
X11340476Y-184597619D01*
X11402380Y-184845238D01*
X11402380Y-185030952D01*
X11340476Y-185278571D01*
X11278571Y-185402380D01*
X11154761Y-185526190D01*
X10969047Y-185588095D01*
X10659523Y-185588095D01*
D10*
D11*
X287002200Y-60000000D02*
X285002200Y-60000000D01*
D10*
D11*
X287002200Y-110000000D02*
X285002200Y-110000000D01*
D10*
D11*
X287002200Y-160000000D02*
X285002200Y-160000000D01*
D10*
D11*
X285692676Y-35216666D02*
X286311723Y-35216666D01*
X285568866Y-35588095D02*
X286002200Y-34288095D01*
X286435533Y-35588095D01*
D10*
D11*
X286095057Y-84907142D02*
X286280771Y-84969047D01*
X286342676Y-85030952D01*
X286404580Y-85154761D01*
X286404580Y-85340476D01*
X286342676Y-85464285D01*
X286280771Y-85526190D01*
X286156961Y-85588095D01*
X285661723Y-85588095D01*
X285661723Y-84288095D01*
X286095057Y-84288095D01*
X286218866Y-84350000D01*
X286280771Y-84411904D01*
X286342676Y-84535714D01*
X286342676Y-84659523D01*
X286280771Y-84783333D01*
X286218866Y-84845238D01*
X286095057Y-84907142D01*
X285661723Y-84907142D01*
D10*
D11*
X286404580Y-135464285D02*
X286342676Y-135526190D01*
X286156961Y-135588095D01*
X286033152Y-135588095D01*
X285847438Y-135526190D01*
X285723628Y-135402380D01*
X285661723Y-135278571D01*
X285599819Y-135030952D01*
X285599819Y-134845238D01*
X285661723Y-134597619D01*
X285723628Y-134473809D01*
X285847438Y-134350000D01*
X286033152Y-134288095D01*
X286156961Y-134288095D01*
X286342676Y-134350000D01*
X286404580Y-134411904D01*
D10*
D11*
X285661723Y-185588095D02*
X285661723Y-184288095D01*
X285971247Y-184288095D01*
X286156961Y-184350000D01*
X286280771Y-184473809D01*
X286342676Y-184597619D01*
X286404580Y-184845238D01*
X286404580Y-185030952D01*
X286342676Y-185278571D01*
X286280771Y-185402380D01*
X286156961Y-185526190D01*
X285971247Y-185588095D01*
X285661723Y-185588095D01*
D10*
D11*
X200434342Y-193785771D02*
X200434342Y-192285771D01*
X200791485Y-192285771D01*
X201005771Y-192357200D01*
X201148628Y-192500057D01*
X201220057Y-192642914D01*
X201291485Y-192928628D01*
X201291485Y-193142914D01*
X201220057Y-193428628D01*
X201148628Y-193571485D01*
X201005771Y-193714342D01*
X200791485Y-193785771D01*
X200434342Y-193785771D01*
X202577200Y-193785771D02*
X202577200Y-193000057D01*
X202505771Y-192857200D01*
X202362914Y-192785771D01*
X202077200Y-192785771D01*
X201934342Y-192857200D01*
X202577200Y-193714342D02*
X202434342Y-193785771D01*
X202077200Y-193785771D01*
X201934342Y-193714342D01*
X201862914Y-193571485D01*
X201862914Y-193428628D01*
X201934342Y-193285771D01*
X202077200Y-193214342D01*
X202434342Y-193214342D01*
X202577200Y-193142914D01*
X203077200Y-192785771D02*
X203648628Y-192785771D01*
X203291485Y-192285771D02*
X203291485Y-193571485D01*
X203362914Y-193714342D01*
X203505771Y-193785771D01*
X203648628Y-193785771D01*
X204720057Y-193714342D02*
X204577200Y-193785771D01*
X204291485Y-193785771D01*
X204148628Y-193714342D01*
X204077200Y-193571485D01*
X204077200Y-193000057D01*
X204148628Y-192857200D01*
X204291485Y-192785771D01*
X204577200Y-192785771D01*
X204720057Y-192857200D01*
X204791485Y-193000057D01*
X204791485Y-193142914D01*
X204077200Y-193285771D01*
X205434342Y-193642914D02*
X205505771Y-193714342D01*
X205434342Y-193785771D01*
X205362914Y-193714342D01*
X205434342Y-193642914D01*
X205434342Y-193785771D01*
X205434342Y-192857200D02*
X205505771Y-192928628D01*
X205434342Y-193000057D01*
X205362914Y-192928628D01*
X205434342Y-192857200D01*
X205434342Y-193000057D01*
X207220057Y-192428628D02*
X207291485Y-192357200D01*
X207434342Y-192285771D01*
X207791485Y-192285771D01*
X207934342Y-192357200D01*
X208005771Y-192428628D01*
X208077200Y-192571485D01*
X208077200Y-192714342D01*
X208005771Y-192928628D01*
X207148628Y-193785771D01*
X208077200Y-193785771D01*
X209005771Y-192285771D02*
X209148628Y-192285771D01*
X209291485Y-192357200D01*
X209362914Y-192428628D01*
X209434342Y-192571485D01*
X209505771Y-192857200D01*
X209505771Y-193214342D01*
X209434342Y-193500057D01*
X209362914Y-193642914D01*
X209291485Y-193714342D01*
X209148628Y-193785771D01*
X209005771Y-193785771D01*
X208862914Y-193714342D01*
X208791485Y-193642914D01*
X208720057Y-193500057D01*
X208648628Y-193214342D01*
X208648628Y-192857200D01*
X208720057Y-192571485D01*
X208791485Y-192428628D01*
X208862914Y-192357200D01*
X209005771Y-192285771D01*
X210077200Y-192428628D02*
X210148628Y-192357200D01*
X210291485Y-192285771D01*
X210648628Y-192285771D01*
X210791485Y-192357200D01*
X210862914Y-192428628D01*
X210934342Y-192571485D01*
X210934342Y-192714342D01*
X210862914Y-192928628D01*
X210005771Y-193785771D01*
X210934342Y-193785771D01*
X211505771Y-192428628D02*
X211577200Y-192357200D01*
X211720057Y-192285771D01*
X212077200Y-192285771D01*
X212220057Y-192357200D01*
X212291485Y-192428628D01*
X212362914Y-192571485D01*
X212362914Y-192714342D01*
X212291485Y-192928628D01*
X211434342Y-193785771D01*
X212362914Y-193785771D01*
X213005771Y-193214342D02*
X214148628Y-193214342D01*
X215148628Y-192285771D02*
X215291485Y-192285771D01*
X215434342Y-192357200D01*
X215505771Y-192428628D01*
X215577200Y-192571485D01*
X215648628Y-192857200D01*
X215648628Y-193214342D01*
X215577200Y-193500057D01*
X215505771Y-193642914D01*
X215434342Y-193714342D01*
X215291485Y-193785771D01*
X215148628Y-193785771D01*
X215005771Y-193714342D01*
X214934342Y-193642914D01*
X214862914Y-193500057D01*
X214791485Y-193214342D01*
X214791485Y-192857200D01*
X214862914Y-192571485D01*
X214934342Y-192428628D01*
X215005771Y-192357200D01*
X215148628Y-192285771D01*
X217077200Y-193785771D02*
X216220057Y-193785771D01*
X216648628Y-193785771D02*
X216648628Y-192285771D01*
X216505771Y-192500057D01*
X216362914Y-192642914D01*
X216220057Y-192714342D01*
X217720057Y-193214342D02*
X218862914Y-193214342D01*
X219505771Y-192428628D02*
X219577200Y-192357200D01*
X219720057Y-192285771D01*
X220077200Y-192285771D01*
X220220057Y-192357200D01*
X220291485Y-192428628D01*
X220362914Y-192571485D01*
X220362914Y-192714342D01*
X220291485Y-192928628D01*
X219434342Y-193785771D01*
X220362914Y-193785771D01*
X221648628Y-192285771D02*
X221362914Y-192285771D01*
X221220057Y-192357200D01*
X221148628Y-192428628D01*
X221005771Y-192642914D01*
X220934342Y-192928628D01*
X220934342Y-193500057D01*
X221005771Y-193642914D01*
X221077200Y-193714342D01*
X221220057Y-193785771D01*
X221505771Y-193785771D01*
X221648628Y-193714342D01*
X221720057Y-193642914D01*
X221791485Y-193500057D01*
X221791485Y-193142914D01*
X221720057Y-193000057D01*
X221648628Y-192928628D01*
X221505771Y-192857200D01*
X221220057Y-192857200D01*
X221077200Y-192928628D01*
X221005771Y-193000057D01*
X220934342Y-193142914D01*
D10*
D11*
X177002200Y-194507200D02*
X285002200Y-194507200D01*
D10*
D11*
X178434342Y-196585771D02*
X178434342Y-195085771D01*
X179291485Y-196585771D02*
X178648628Y-195728628D01*
X179291485Y-195085771D02*
X178434342Y-195942914D01*
X179934342Y-196585771D02*
X179934342Y-195585771D01*
X179934342Y-195085771D02*
X179862914Y-195157200D01*
X179934342Y-195228628D01*
X180005771Y-195157200D01*
X179934342Y-195085771D01*
X179934342Y-195228628D01*
X181505771Y-196442914D02*
X181434342Y-196514342D01*
X181220057Y-196585771D01*
X181077200Y-196585771D01*
X180862914Y-196514342D01*
X180720057Y-196371485D01*
X180648628Y-196228628D01*
X180577200Y-195942914D01*
X180577200Y-195728628D01*
X180648628Y-195442914D01*
X180720057Y-195300057D01*
X180862914Y-195157200D01*
X181077200Y-195085771D01*
X181220057Y-195085771D01*
X181434342Y-195157200D01*
X181505771Y-195228628D01*
X182791485Y-196585771D02*
X182791485Y-195800057D01*
X182720057Y-195657200D01*
X182577200Y-195585771D01*
X182291485Y-195585771D01*
X182148628Y-195657200D01*
X182791485Y-196514342D02*
X182648628Y-196585771D01*
X182291485Y-196585771D01*
X182148628Y-196514342D01*
X182077200Y-196371485D01*
X182077200Y-196228628D01*
X182148628Y-196085771D01*
X182291485Y-196014342D01*
X182648628Y-196014342D01*
X182791485Y-195942914D01*
X184148628Y-196585771D02*
X184148628Y-195085771D01*
X184148628Y-196514342D02*
X184005771Y-196585771D01*
X183720057Y-196585771D01*
X183577200Y-196514342D01*
X183505771Y-196442914D01*
X183434342Y-196300057D01*
X183434342Y-195871485D01*
X183505771Y-195728628D01*
X183577200Y-195657200D01*
X183720057Y-195585771D01*
X184005771Y-195585771D01*
X184148628Y-195657200D01*
X186005771Y-195800057D02*
X186505771Y-195800057D01*
X186720057Y-196585771D02*
X186005771Y-196585771D01*
X186005771Y-195085771D01*
X186720057Y-195085771D01*
X187362914Y-196442914D02*
X187434342Y-196514342D01*
X187362914Y-196585771D01*
X187291485Y-196514342D01*
X187362914Y-196442914D01*
X187362914Y-196585771D01*
X188077200Y-196585771D02*
X188077200Y-195085771D01*
X188434342Y-195085771D01*
X188648628Y-195157200D01*
X188791485Y-195300057D01*
X188862914Y-195442914D01*
X188934342Y-195728628D01*
X188934342Y-195942914D01*
X188862914Y-196228628D01*
X188791485Y-196371485D01*
X188648628Y-196514342D01*
X188434342Y-196585771D01*
X188077200Y-196585771D01*
X189577200Y-196442914D02*
X189648628Y-196514342D01*
X189577200Y-196585771D01*
X189505771Y-196514342D01*
X189577200Y-196442914D01*
X189577200Y-196585771D01*
X190220057Y-196157200D02*
X190934342Y-196157200D01*
X190077200Y-196585771D02*
X190577200Y-195085771D01*
X191077200Y-196585771D01*
X191577200Y-196442914D02*
X191648628Y-196514342D01*
X191577200Y-196585771D01*
X191505771Y-196514342D01*
X191577200Y-196442914D01*
X191577200Y-196585771D01*
X194577200Y-196585771D02*
X194577200Y-195085771D01*
X194720057Y-196014342D02*
X195148628Y-196585771D01*
X195148628Y-195585771D02*
X194577200Y-196157200D01*
X195791485Y-196585771D02*
X195791485Y-195585771D01*
X195791485Y-195085771D02*
X195720057Y-195157200D01*
X195791485Y-195228628D01*
X195862914Y-195157200D01*
X195791485Y-195085771D01*
X195791485Y-195228628D01*
X197148628Y-196514342D02*
X197005771Y-196585771D01*
X196720057Y-196585771D01*
X196577200Y-196514342D01*
X196505771Y-196442914D01*
X196434342Y-196300057D01*
X196434342Y-195871485D01*
X196505771Y-195728628D01*
X196577200Y-195657200D01*
X196720057Y-195585771D01*
X197005771Y-195585771D01*
X197148628Y-195657200D01*
X198434342Y-196585771D02*
X198434342Y-195800057D01*
X198362914Y-195657200D01*
X198220057Y-195585771D01*
X197934342Y-195585771D01*
X197791485Y-195657200D01*
X198434342Y-196514342D02*
X198291485Y-196585771D01*
X197934342Y-196585771D01*
X197791485Y-196514342D01*
X197720057Y-196371485D01*
X197720057Y-196228628D01*
X197791485Y-196085771D01*
X197934342Y-196014342D01*
X198291485Y-196014342D01*
X198434342Y-195942914D01*
X199791485Y-196585771D02*
X199791485Y-195085771D01*
X199791485Y-196514342D02*
X199648628Y-196585771D01*
X199362914Y-196585771D01*
X199220057Y-196514342D01*
X199148628Y-196442914D01*
X199077200Y-196300057D01*
X199077200Y-195871485D01*
X199148628Y-195728628D01*
X199220057Y-195657200D01*
X199362914Y-195585771D01*
X199648628Y-195585771D01*
X199791485Y-195657200D01*
X202077200Y-197157200D02*
X202005771Y-197085771D01*
X201862914Y-196871485D01*
X201791485Y-196728628D01*
X201720057Y-196514342D01*
X201648628Y-196157200D01*
X201648628Y-195871485D01*
X201720057Y-195514342D01*
X201791485Y-195300057D01*
X201862914Y-195157200D01*
X202005771Y-194942914D01*
X202077200Y-194871485D01*
X203291485Y-195085771D02*
X203005771Y-195085771D01*
X202862914Y-195157200D01*
X202791485Y-195228628D01*
X202648628Y-195442914D01*
X202577200Y-195728628D01*
X202577200Y-196300057D01*
X202648628Y-196442914D01*
X202720057Y-196514342D01*
X202862914Y-196585771D01*
X203148628Y-196585771D01*
X203291485Y-196514342D01*
X203362914Y-196442914D01*
X203434342Y-196300057D01*
X203434342Y-195942914D01*
X203362914Y-195800057D01*
X203291485Y-195728628D01*
X203148628Y-195657200D01*
X202862914Y-195657200D01*
X202720057Y-195728628D01*
X202648628Y-195800057D01*
X202577200Y-195942914D01*
X204077200Y-196442914D02*
X204148628Y-196514342D01*
X204077200Y-196585771D01*
X204005771Y-196514342D01*
X204077200Y-196442914D01*
X204077200Y-196585771D01*
X205077200Y-195085771D02*
X205220057Y-195085771D01*
X205362914Y-195157200D01*
X205434342Y-195228628D01*
X205505771Y-195371485D01*
X205577200Y-195657200D01*
X205577200Y-196014342D01*
X205505771Y-196300057D01*
X205434342Y-196442914D01*
X205362914Y-196514342D01*
X205220057Y-196585771D01*
X205077200Y-196585771D01*
X204934342Y-196514342D01*
X204862914Y-196442914D01*
X204791485Y-196300057D01*
X204720057Y-196014342D01*
X204720057Y-195657200D01*
X204791485Y-195371485D01*
X204862914Y-195228628D01*
X204934342Y-195157200D01*
X205077200Y-195085771D01*
X206220057Y-196442914D02*
X206291485Y-196514342D01*
X206220057Y-196585771D01*
X206148628Y-196514342D01*
X206220057Y-196442914D01*
X206220057Y-196585771D01*
X207220057Y-195085771D02*
X207362914Y-195085771D01*
X207505771Y-195157200D01*
X207577200Y-195228628D01*
X207648628Y-195371485D01*
X207720057Y-195657200D01*
X207720057Y-196014342D01*
X207648628Y-196300057D01*
X207577200Y-196442914D01*
X207505771Y-196514342D01*
X207362914Y-196585771D01*
X207220057Y-196585771D01*
X207077200Y-196514342D01*
X207005771Y-196442914D01*
X206934342Y-196300057D01*
X206862914Y-196014342D01*
X206862914Y-195657200D01*
X206934342Y-195371485D01*
X207005771Y-195228628D01*
X207077200Y-195157200D01*
X207220057Y-195085771D01*
X208362914Y-196014342D02*
X209505771Y-196014342D01*
X210505771Y-195085771D02*
X210648628Y-195085771D01*
X210791485Y-195157200D01*
X210862914Y-195228628D01*
X210934342Y-195371485D01*
X211005771Y-195657200D01*
X211005771Y-196014342D01*
X210934342Y-196300057D01*
X210862914Y-196442914D01*
X210791485Y-196514342D01*
X210648628Y-196585771D01*
X210505771Y-196585771D01*
X210362914Y-196514342D01*
X210291485Y-196442914D01*
X210220057Y-196300057D01*
X210148628Y-196014342D01*
X210148628Y-195657200D01*
X210220057Y-195371485D01*
X210291485Y-195228628D01*
X210362914Y-195157200D01*
X210505771Y-195085771D01*
X211505771Y-197157200D02*
X211577200Y-197085771D01*
X211720057Y-196871485D01*
X211791485Y-196728628D01*
X211862914Y-196514342D01*
X211934342Y-196157200D01*
X211934342Y-195871485D01*
X211862914Y-195514342D01*
X211791485Y-195300057D01*
X211720057Y-195157200D01*
X211577200Y-194942914D01*
X211505771Y-194871485D01*
D10*
D11*
X177002200Y-191507200D02*
X285002200Y-191507200D01*
D10*
D12*
X264411485Y-193785771D02*
X263911485Y-193071485D01*
X263554342Y-193785771D02*
X263554342Y-192285771D01*
X264125771Y-192285771D01*
X264268628Y-192357200D01*
X264340057Y-192428628D01*
X264411485Y-192571485D01*
X264411485Y-192785771D01*
X264340057Y-192928628D01*
X264268628Y-193000057D01*
X264125771Y-193071485D01*
X263554342Y-193071485D01*
X265625771Y-193714342D02*
X265482914Y-193785771D01*
X265197200Y-193785771D01*
X265054342Y-193714342D01*
X264982914Y-193571485D01*
X264982914Y-193000057D01*
X265054342Y-192857200D01*
X265197200Y-192785771D01*
X265482914Y-192785771D01*
X265625771Y-192857200D01*
X265697200Y-193000057D01*
X265697200Y-193142914D01*
X264982914Y-193285771D01*
X266197200Y-192785771D02*
X266554342Y-193785771D01*
X266911485Y-192785771D01*
X267482914Y-193642914D02*
X267554342Y-193714342D01*
X267482914Y-193785771D01*
X267411485Y-193714342D01*
X267482914Y-193642914D01*
X267482914Y-193785771D01*
X267482914Y-192857200D02*
X267554342Y-192928628D01*
X267482914Y-193000057D01*
X267411485Y-192928628D01*
X267482914Y-192857200D01*
X267482914Y-193000057D01*
X269197200Y-192785771D02*
X269554342Y-193785771D01*
X269911485Y-192785771D01*
X270340057Y-192285771D02*
X271268628Y-192285771D01*
X270768628Y-192857200D01*
X270982914Y-192857200D01*
X271125771Y-192928628D01*
X271197200Y-193000057D01*
X271268628Y-193142914D01*
X271268628Y-193500057D01*
X271197200Y-193642914D01*
X271125771Y-193714342D01*
X270982914Y-193785771D01*
X270554342Y-193785771D01*
X270411485Y-193714342D01*
X270340057Y-193642914D01*
X271911485Y-193642914D02*
X271982914Y-193714342D01*
X271911485Y-193785771D01*
X271840057Y-193714342D01*
X271911485Y-193642914D01*
X271911485Y-193785771D01*
X272911485Y-192285771D02*
X273054342Y-192285771D01*
X273197200Y-192357200D01*
X273268628Y-192428628D01*
X273340057Y-192571485D01*
X273411485Y-192857200D01*
X273411485Y-193214342D01*
X273340057Y-193500057D01*
X273268628Y-193642914D01*
X273197200Y-193714342D01*
X273054342Y-193785771D01*
X272911485Y-193785771D01*
X272768628Y-193714342D01*
X272697200Y-193642914D01*
X272625771Y-193500057D01*
X272554342Y-193214342D01*
X272554342Y-192857200D01*
X272625771Y-192571485D01*
X272697200Y-192428628D01*
X272768628Y-192357200D01*
X272911485Y-192285771D01*
D10*
D11*
X178362914Y-193714342D02*
X178577200Y-193785771D01*
X178934342Y-193785771D01*
X179077200Y-193714342D01*
X179148628Y-193642914D01*
X179220057Y-193500057D01*
X179220057Y-193357200D01*
X179148628Y-193214342D01*
X179077200Y-193142914D01*
X178934342Y-193071485D01*
X178648628Y-193000057D01*
X178505771Y-192928628D01*
X178434342Y-192857200D01*
X178362914Y-192714342D01*
X178362914Y-192571485D01*
X178434342Y-192428628D01*
X178505771Y-192357200D01*
X178648628Y-192285771D01*
X179005771Y-192285771D01*
X179220057Y-192357200D01*
X179862914Y-193785771D02*
X179862914Y-192785771D01*
X179862914Y-192285771D02*
X179791485Y-192357200D01*
X179862914Y-192428628D01*
X179934342Y-192357200D01*
X179862914Y-192285771D01*
X179862914Y-192428628D01*
X180434342Y-192785771D02*
X181220057Y-192785771D01*
X180434342Y-193785771D01*
X181220057Y-193785771D01*
X182362914Y-193714342D02*
X182220057Y-193785771D01*
X181934342Y-193785771D01*
X181791485Y-193714342D01*
X181720057Y-193571485D01*
X181720057Y-193000057D01*
X181791485Y-192857200D01*
X181934342Y-192785771D01*
X182220057Y-192785771D01*
X182362914Y-192857200D01*
X182434342Y-193000057D01*
X182434342Y-193142914D01*
X181720057Y-193285771D01*
X183077200Y-193642914D02*
X183148628Y-193714342D01*
X183077200Y-193785771D01*
X183005771Y-193714342D01*
X183077200Y-193642914D01*
X183077200Y-193785771D01*
X183077200Y-192857200D02*
X183148628Y-192928628D01*
X183077200Y-193000057D01*
X183005771Y-192928628D01*
X183077200Y-192857200D01*
X183077200Y-193000057D01*
X184862914Y-193357200D02*
X185577200Y-193357200D01*
X184720057Y-193785771D02*
X185220057Y-192285771D01*
X185720057Y-193785771D01*
X186862914Y-192785771D02*
X186862914Y-193785771D01*
X186505771Y-192214342D02*
X186148628Y-193285771D01*
X187077200Y-193285771D01*
D10*
D11*
X263434342Y-196585771D02*
X263434342Y-195085771D01*
X264791485Y-196585771D02*
X264791485Y-195085771D01*
X264791485Y-196514342D02*
X264648628Y-196585771D01*
X264362914Y-196585771D01*
X264220057Y-196514342D01*
X264148628Y-196442914D01*
X264077200Y-196300057D01*
X264077200Y-195871485D01*
X264148628Y-195728628D01*
X264220057Y-195657200D01*
X264362914Y-195585771D01*
X264648628Y-195585771D01*
X264791485Y-195657200D01*
X265505771Y-196442914D02*
X265577200Y-196514342D01*
X265505771Y-196585771D01*
X265434342Y-196514342D01*
X265505771Y-196442914D01*
X265505771Y-196585771D01*
X265505771Y-195657200D02*
X265577200Y-195728628D01*
X265505771Y-195800057D01*
X265434342Y-195728628D01*
X265505771Y-195657200D01*
X265505771Y-195800057D01*
X268148628Y-196585771D02*
X267291485Y-196585771D01*
X267720057Y-196585771D02*
X267720057Y-195085771D01*
X267577200Y-195300057D01*
X267434342Y-195442914D01*
X267291485Y-195514342D01*
X269862914Y-195014342D02*
X268577200Y-196942914D01*
X271148628Y-196585771D02*
X270291485Y-196585771D01*
X270720057Y-196585771D02*
X270720057Y-195085771D01*
X270577200Y-195300057D01*
X270434342Y-195442914D01*
X270291485Y-195514342D01*
D10*
D11*
X177002200Y-187507200D02*
X285002200Y-187507200D01*
D10*
D13*
X178714580Y-188211961D02*
X179857438Y-188211961D01*
X179036009Y-190211961D02*
X179286009Y-188211961D01*
X180274104Y-190211961D02*
X180440771Y-188878628D01*
X180524104Y-188211961D02*
X180416961Y-188307200D01*
X180500295Y-188402438D01*
X180607438Y-188307200D01*
X180524104Y-188211961D01*
X180500295Y-188402438D01*
X181107438Y-188878628D02*
X181869342Y-188878628D01*
X181476485Y-188211961D02*
X181262200Y-189926247D01*
X181333628Y-190116723D01*
X181512200Y-190211961D01*
X181702676Y-190211961D01*
X182655057Y-190211961D02*
X182476485Y-190116723D01*
X182405057Y-189926247D01*
X182619342Y-188211961D01*
X184190771Y-190116723D02*
X183988390Y-190211961D01*
X183607438Y-190211961D01*
X183428866Y-190116723D01*
X183357438Y-189926247D01*
X183452676Y-189164342D01*
X183571723Y-188973866D01*
X183774104Y-188878628D01*
X184155057Y-188878628D01*
X184333628Y-188973866D01*
X184405057Y-189164342D01*
X184381247Y-189354819D01*
X183405057Y-189545295D01*
X185155057Y-190021485D02*
X185238390Y-190116723D01*
X185131247Y-190211961D01*
X185047914Y-190116723D01*
X185155057Y-190021485D01*
X185131247Y-190211961D01*
X185286009Y-188973866D02*
X185369342Y-189069104D01*
X185262200Y-189164342D01*
X185178866Y-189069104D01*
X185286009Y-188973866D01*
X185262200Y-189164342D01*
X187607438Y-190211961D02*
X187857438Y-188211961D01*
X188333628Y-188211961D01*
X188607438Y-188307200D01*
X188774104Y-188497676D01*
X188845533Y-188688152D01*
X188893152Y-189069104D01*
X188857438Y-189354819D01*
X188714580Y-189735771D01*
X188595533Y-189926247D01*
X188381247Y-190116723D01*
X188083628Y-190211961D01*
X187607438Y-190211961D01*
X189607438Y-190211961D02*
X189774104Y-188878628D01*
X189726485Y-189259580D02*
X189845533Y-189069104D01*
X189952676Y-188973866D01*
X190155057Y-188878628D01*
X190345533Y-188878628D01*
X191131247Y-190211961D02*
X190952676Y-190116723D01*
X190869342Y-190021485D01*
X190797914Y-189831009D01*
X190869342Y-189259580D01*
X190988390Y-189069104D01*
X191095533Y-188973866D01*
X191297914Y-188878628D01*
X191583628Y-188878628D01*
X191762200Y-188973866D01*
X191845533Y-189069104D01*
X191916961Y-189259580D01*
X191845533Y-189831009D01*
X191726485Y-190021485D01*
X191619342Y-190116723D01*
X191416961Y-190211961D01*
X191131247Y-190211961D01*
X193678866Y-188878628D02*
X193476485Y-190497676D01*
X193357438Y-190688152D01*
X193250295Y-190783390D01*
X193047914Y-190878628D01*
X192762200Y-190878628D01*
X192583628Y-190783390D01*
X193524104Y-190116723D02*
X193321723Y-190211961D01*
X192940771Y-190211961D01*
X192762200Y-190116723D01*
X192678866Y-190021485D01*
X192607438Y-189831009D01*
X192678866Y-189259580D01*
X192797914Y-189069104D01*
X192905057Y-188973866D01*
X193107438Y-188878628D01*
X193488390Y-188878628D01*
X193666961Y-188973866D01*
X195488390Y-188878628D02*
X195321723Y-190211961D01*
X194631247Y-188878628D02*
X194500295Y-189926247D01*
X194571723Y-190116723D01*
X194750295Y-190211961D01*
X195036009Y-190211961D01*
X195238390Y-190116723D01*
X195345533Y-190021485D01*
X197047914Y-190116723D02*
X196845533Y-190211961D01*
X196464580Y-190211961D01*
X196286009Y-190116723D01*
X196214580Y-189926247D01*
X196309819Y-189164342D01*
X196428866Y-188973866D01*
X196631247Y-188878628D01*
X197012200Y-188878628D01*
X197190771Y-188973866D01*
X197262200Y-189164342D01*
X197238390Y-189354819D01*
X196262200Y-189545295D01*
X199512200Y-190211961D02*
X199762200Y-188211961D01*
X200750295Y-190211961D02*
X200571723Y-190116723D01*
X200488390Y-190021485D01*
X200416961Y-189831009D01*
X200488390Y-189259580D01*
X200607438Y-189069104D01*
X200714580Y-188973866D01*
X200916961Y-188878628D01*
X201202676Y-188878628D01*
X201381247Y-188973866D01*
X201464580Y-189069104D01*
X201536009Y-189259580D01*
X201464580Y-189831009D01*
X201345533Y-190021485D01*
X201238390Y-190116723D01*
X201036009Y-190211961D01*
X200750295Y-190211961D01*
X202238390Y-188211961D02*
X203381247Y-188211961D01*
X202559819Y-190211961D02*
X202809819Y-188211961D01*
X206119342Y-189164342D02*
X206393152Y-189259580D01*
X206476485Y-189354819D01*
X206547914Y-189545295D01*
X206512200Y-189831009D01*
X206393152Y-190021485D01*
X206286009Y-190116723D01*
X206083628Y-190211961D01*
X205321723Y-190211961D01*
X205571723Y-188211961D01*
X206238390Y-188211961D01*
X206416961Y-188307200D01*
X206500295Y-188402438D01*
X206571723Y-188592914D01*
X206547914Y-188783390D01*
X206428866Y-188973866D01*
X206321723Y-189069104D01*
X206119342Y-189164342D01*
X205452676Y-189164342D01*
X208345533Y-188878628D02*
X208178866Y-190211961D01*
X207488390Y-188878628D02*
X207357438Y-189926247D01*
X207428866Y-190116723D01*
X207607438Y-190211961D01*
X207893152Y-190211961D01*
X208095533Y-190116723D01*
X208202676Y-190021485D01*
X209131247Y-190211961D02*
X209297914Y-188878628D01*
X209250295Y-189259580D02*
X209369342Y-189069104D01*
X209476485Y-188973866D01*
X209678866Y-188878628D01*
X209869342Y-188878628D01*
X210369342Y-190211961D02*
X210536009Y-188878628D01*
X210488390Y-189259580D02*
X210607438Y-189069104D01*
X210714580Y-188973866D01*
X210916961Y-188878628D01*
X211107438Y-188878628D01*
X212405057Y-189164342D02*
X212678866Y-189259580D01*
X212762200Y-189354819D01*
X212833628Y-189545295D01*
X212797914Y-189831009D01*
X212678866Y-190021485D01*
X212571723Y-190116723D01*
X212369342Y-190211961D01*
X211607438Y-190211961D01*
X211857438Y-188211961D01*
X212524104Y-188211961D01*
X212702676Y-188307200D01*
X212786009Y-188402438D01*
X212857438Y-188592914D01*
X212833628Y-188783390D01*
X212714580Y-188973866D01*
X212607438Y-189069104D01*
X212405057Y-189164342D01*
X211738390Y-189164342D01*
X213893152Y-190211961D02*
X213714580Y-190116723D01*
X213631247Y-190021485D01*
X213559819Y-189831009D01*
X213631247Y-189259580D01*
X213750295Y-189069104D01*
X213857438Y-188973866D01*
X214059819Y-188878628D01*
X214345533Y-188878628D01*
X214524104Y-188973866D01*
X214607438Y-189069104D01*
X214678866Y-189259580D01*
X214607438Y-189831009D01*
X214488390Y-190021485D01*
X214381247Y-190116723D01*
X214178866Y-190211961D01*
X213893152Y-190211961D01*
X216274104Y-190211961D02*
X216405057Y-189164342D01*
X216333628Y-188973866D01*
X216155057Y-188878628D01*
X215774104Y-188878628D01*
X215571723Y-188973866D01*
X216286009Y-190116723D02*
X216083628Y-190211961D01*
X215607438Y-190211961D01*
X215428866Y-190116723D01*
X215357438Y-189926247D01*
X215381247Y-189735771D01*
X215500295Y-189545295D01*
X215702676Y-189450057D01*
X216178866Y-189450057D01*
X216381247Y-189354819D01*
X217226485Y-190211961D02*
X217393152Y-188878628D01*
X217345533Y-189259580D02*
X217464580Y-189069104D01*
X217571723Y-188973866D01*
X217774104Y-188878628D01*
X217964580Y-188878628D01*
X219321723Y-190211961D02*
X219571723Y-188211961D01*
X219333628Y-190116723D02*
X219131247Y-190211961D01*
X218750295Y-190211961D01*
X218571723Y-190116723D01*
X218488390Y-190021485D01*
X218416961Y-189831009D01*
X218488390Y-189259580D01*
X218607438Y-189069104D01*
X218714580Y-188973866D01*
X218916961Y-188878628D01*
X219297914Y-188878628D01*
X219476485Y-188973866D01*
D10*
D11*
X178934342Y-185600057D02*
X178434342Y-185600057D01*
X178434342Y-186385771D02*
X178434342Y-184885771D01*
X179148628Y-184885771D01*
X179720057Y-186385771D02*
X179720057Y-185385771D01*
X179720057Y-184885771D02*
X179648628Y-184957200D01*
X179720057Y-185028628D01*
X179791485Y-184957200D01*
X179720057Y-184885771D01*
X179720057Y-185028628D01*
X180648628Y-186385771D02*
X180505771Y-186314342D01*
X180434342Y-186171485D01*
X180434342Y-184885771D01*
X181791485Y-186314342D02*
X181648628Y-186385771D01*
X181362914Y-186385771D01*
X181220057Y-186314342D01*
X181148628Y-186171485D01*
X181148628Y-185600057D01*
X181220057Y-185457200D01*
X181362914Y-185385771D01*
X181648628Y-185385771D01*
X181791485Y-185457200D01*
X181862914Y-185600057D01*
X181862914Y-185742914D01*
X181148628Y-185885771D01*
X182505771Y-186242914D02*
X182577200Y-186314342D01*
X182505771Y-186385771D01*
X182434342Y-186314342D01*
X182505771Y-186242914D01*
X182505771Y-186385771D01*
X182505771Y-185457200D02*
X182577200Y-185528628D01*
X182505771Y-185600057D01*
X182434342Y-185528628D01*
X182505771Y-185457200D01*
X182505771Y-185600057D01*
X184362914Y-186385771D02*
X184362914Y-184885771D01*
X184362914Y-185457200D02*
X184505771Y-185385771D01*
X184791485Y-185385771D01*
X184934342Y-185457200D01*
X185005771Y-185528628D01*
X185077200Y-185671485D01*
X185077200Y-186100057D01*
X185005771Y-186242914D01*
X184934342Y-186314342D01*
X184791485Y-186385771D01*
X184505771Y-186385771D01*
X184362914Y-186314342D01*
X186362914Y-185385771D02*
X186362914Y-186385771D01*
X185720057Y-185385771D02*
X185720057Y-186171485D01*
X185791485Y-186314342D01*
X185934342Y-186385771D01*
X186148628Y-186385771D01*
X186291485Y-186314342D01*
X186362914Y-186242914D01*
X187077200Y-186385771D02*
X187077200Y-185385771D01*
X187077200Y-185671485D02*
X187148628Y-185528628D01*
X187220057Y-185457200D01*
X187362914Y-185385771D01*
X187505771Y-185385771D01*
X188005771Y-186385771D02*
X188005771Y-185385771D01*
X188005771Y-185671485D02*
X188077200Y-185528628D01*
X188148628Y-185457200D01*
X188291485Y-185385771D01*
X188434342Y-185385771D01*
X188934342Y-186385771D02*
X188934342Y-184885771D01*
X188934342Y-185457200D02*
X189077200Y-185385771D01*
X189362914Y-185385771D01*
X189505771Y-185457200D01*
X189577200Y-185528628D01*
X189648628Y-185671485D01*
X189648628Y-186100057D01*
X189577200Y-186242914D01*
X189505771Y-186314342D01*
X189362914Y-186385771D01*
X189077200Y-186385771D01*
X188934342Y-186314342D01*
X190505771Y-186385771D02*
X190362914Y-186314342D01*
X190291485Y-186242914D01*
X190220057Y-186100057D01*
X190220057Y-185671485D01*
X190291485Y-185528628D01*
X190362914Y-185457200D01*
X190505771Y-185385771D01*
X190720057Y-185385771D01*
X190862914Y-185457200D01*
X190934342Y-185528628D01*
X191005771Y-185671485D01*
X191005771Y-186100057D01*
X190934342Y-186242914D01*
X190862914Y-186314342D01*
X190720057Y-186385771D01*
X190505771Y-186385771D01*
X192291485Y-186385771D02*
X192291485Y-185600057D01*
X192220057Y-185457200D01*
X192077200Y-185385771D01*
X191791485Y-185385771D01*
X191648628Y-185457200D01*
X192291485Y-186314342D02*
X192148628Y-186385771D01*
X191791485Y-186385771D01*
X191648628Y-186314342D01*
X191577200Y-186171485D01*
X191577200Y-186028628D01*
X191648628Y-185885771D01*
X191791485Y-185814342D01*
X192148628Y-185814342D01*
X192291485Y-185742914D01*
X193005771Y-186385771D02*
X193005771Y-185385771D01*
X193005771Y-185671485D02*
X193077200Y-185528628D01*
X193148628Y-185457200D01*
X193291485Y-185385771D01*
X193434342Y-185385771D01*
X194577200Y-186385771D02*
X194577200Y-184885771D01*
X194577200Y-186314342D02*
X194434342Y-186385771D01*
X194148628Y-186385771D01*
X194005771Y-186314342D01*
X193934342Y-186242914D01*
X193862914Y-186100057D01*
X193862914Y-185671485D01*
X193934342Y-185528628D01*
X194005771Y-185457200D01*
X194148628Y-185385771D01*
X194434342Y-185385771D01*
X194577200Y-185457200D01*
X195291485Y-186242914D02*
X195362914Y-186314342D01*
X195291485Y-186385771D01*
X195220057Y-186314342D01*
X195291485Y-186242914D01*
X195291485Y-186385771D01*
X196005771Y-186385771D02*
X196005771Y-184885771D01*
X196148628Y-185814342D02*
X196577200Y-186385771D01*
X196577200Y-185385771D02*
X196005771Y-185957200D01*
X197220057Y-186385771D02*
X197220057Y-185385771D01*
X197220057Y-184885771D02*
X197148628Y-184957200D01*
X197220057Y-185028628D01*
X197291485Y-184957200D01*
X197220057Y-184885771D01*
X197220057Y-185028628D01*
X198577200Y-186314342D02*
X198434342Y-186385771D01*
X198148628Y-186385771D01*
X198005771Y-186314342D01*
X197934342Y-186242914D01*
X197862914Y-186100057D01*
X197862914Y-185671485D01*
X197934342Y-185528628D01*
X198005771Y-185457200D01*
X198148628Y-185385771D01*
X198434342Y-185385771D01*
X198577200Y-185457200D01*
X199862914Y-186385771D02*
X199862914Y-185600057D01*
X199791485Y-185457200D01*
X199648628Y-185385771D01*
X199362914Y-185385771D01*
X199220057Y-185457200D01*
X199862914Y-186314342D02*
X199720057Y-186385771D01*
X199362914Y-186385771D01*
X199220057Y-186314342D01*
X199148628Y-186171485D01*
X199148628Y-186028628D01*
X199220057Y-185885771D01*
X199362914Y-185814342D01*
X199720057Y-185814342D01*
X199862914Y-185742914D01*
X201220057Y-186385771D02*
X201220057Y-184885771D01*
X201220057Y-186314342D02*
X201077200Y-186385771D01*
X200791485Y-186385771D01*
X200648628Y-186314342D01*
X200577200Y-186242914D01*
X200505771Y-186100057D01*
X200505771Y-185671485D01*
X200577200Y-185528628D01*
X200648628Y-185457200D01*
X200791485Y-185385771D01*
X201077200Y-185385771D01*
X201220057Y-185457200D01*
X201577200Y-186528628D02*
X202720057Y-186528628D01*
X203077200Y-185385771D02*
X203077200Y-186885771D01*
X203077200Y-185457200D02*
X203220057Y-185385771D01*
X203505771Y-185385771D01*
X203648628Y-185457200D01*
X203720057Y-185528628D01*
X203791485Y-185671485D01*
X203791485Y-186100057D01*
X203720057Y-186242914D01*
X203648628Y-186314342D01*
X203505771Y-186385771D01*
X203220057Y-186385771D01*
X203077200Y-186314342D01*
X205077200Y-186314342D02*
X204934342Y-186385771D01*
X204648628Y-186385771D01*
X204505771Y-186314342D01*
X204434342Y-186242914D01*
X204362914Y-186100057D01*
X204362914Y-185671485D01*
X204434342Y-185528628D01*
X204505771Y-185457200D01*
X204648628Y-185385771D01*
X204934342Y-185385771D01*
X205077200Y-185457200D01*
X205720057Y-186385771D02*
X205720057Y-184885771D01*
X205720057Y-185457200D02*
X205862914Y-185385771D01*
X206148628Y-185385771D01*
X206291485Y-185457200D01*
X206362914Y-185528628D01*
X206434342Y-185671485D01*
X206434342Y-186100057D01*
X206362914Y-186242914D01*
X206291485Y-186314342D01*
X206148628Y-186385771D01*
X205862914Y-186385771D01*
X205720057Y-186314342D01*
D10*
D11*
X177002200Y-181507200D02*
X285002200Y-181507200D01*
D10*
D11*
X178362914Y-183614342D02*
X178577200Y-183685771D01*
X178934342Y-183685771D01*
X179077200Y-183614342D01*
X179148628Y-183542914D01*
X179220057Y-183400057D01*
X179220057Y-183257200D01*
X179148628Y-183114342D01*
X179077200Y-183042914D01*
X178934342Y-182971485D01*
X178648628Y-182900057D01*
X178505771Y-182828628D01*
X178434342Y-182757200D01*
X178362914Y-182614342D01*
X178362914Y-182471485D01*
X178434342Y-182328628D01*
X178505771Y-182257200D01*
X178648628Y-182185771D01*
X179005771Y-182185771D01*
X179220057Y-182257200D01*
X179862914Y-183685771D02*
X179862914Y-182185771D01*
X180505771Y-183685771D02*
X180505771Y-182900057D01*
X180434342Y-182757200D01*
X180291485Y-182685771D01*
X180077200Y-182685771D01*
X179934342Y-182757200D01*
X179862914Y-182828628D01*
X181791485Y-183614342D02*
X181648628Y-183685771D01*
X181362914Y-183685771D01*
X181220057Y-183614342D01*
X181148628Y-183471485D01*
X181148628Y-182900057D01*
X181220057Y-182757200D01*
X181362914Y-182685771D01*
X181648628Y-182685771D01*
X181791485Y-182757200D01*
X181862914Y-182900057D01*
X181862914Y-183042914D01*
X181148628Y-183185771D01*
X183077200Y-183614342D02*
X182934342Y-183685771D01*
X182648628Y-183685771D01*
X182505771Y-183614342D01*
X182434342Y-183471485D01*
X182434342Y-182900057D01*
X182505771Y-182757200D01*
X182648628Y-182685771D01*
X182934342Y-182685771D01*
X183077200Y-182757200D01*
X183148628Y-182900057D01*
X183148628Y-183042914D01*
X182434342Y-183185771D01*
X183577200Y-182685771D02*
X184148628Y-182685771D01*
X183791485Y-182185771D02*
X183791485Y-183471485D01*
X183862914Y-183614342D01*
X184005771Y-183685771D01*
X184148628Y-183685771D01*
X184648628Y-183542914D02*
X184720057Y-183614342D01*
X184648628Y-183685771D01*
X184577200Y-183614342D01*
X184648628Y-183542914D01*
X184648628Y-183685771D01*
X184648628Y-182757200D02*
X184720057Y-182828628D01*
X184648628Y-182900057D01*
X184577200Y-182828628D01*
X184648628Y-182757200D01*
X184648628Y-182900057D01*
D10*
D12*
X179411485Y-180685771D02*
X178911485Y-179971485D01*
X178554342Y-180685771D02*
X178554342Y-179185771D01*
X179125771Y-179185771D01*
X179268628Y-179257200D01*
X179340057Y-179328628D01*
X179411485Y-179471485D01*
X179411485Y-179685771D01*
X179340057Y-179828628D01*
X179268628Y-179900057D01*
X179125771Y-179971485D01*
X178554342Y-179971485D01*
X180625771Y-180614342D02*
X180482914Y-180685771D01*
X180197200Y-180685771D01*
X180054342Y-180614342D01*
X179982914Y-180471485D01*
X179982914Y-179900057D01*
X180054342Y-179757200D01*
X180197200Y-179685771D01*
X180482914Y-179685771D01*
X180625771Y-179757200D01*
X180697200Y-179900057D01*
X180697200Y-180042914D01*
X179982914Y-180185771D01*
X181982914Y-180685771D02*
X181982914Y-179185771D01*
X181982914Y-180614342D02*
X181840057Y-180685771D01*
X181554342Y-180685771D01*
X181411485Y-180614342D01*
X181340057Y-180542914D01*
X181268628Y-180400057D01*
X181268628Y-179971485D01*
X181340057Y-179828628D01*
X181411485Y-179757200D01*
X181554342Y-179685771D01*
X181840057Y-179685771D01*
X181982914Y-179757200D01*
X183840057Y-180685771D02*
X183840057Y-179185771D01*
X183840057Y-179900057D02*
X184697200Y-179900057D01*
X184697200Y-180685771D02*
X184697200Y-179185771D01*
X186054342Y-180685771D02*
X186054342Y-179900057D01*
X185982914Y-179757200D01*
X185840057Y-179685771D01*
X185554342Y-179685771D01*
X185411485Y-179757200D01*
X186054342Y-180614342D02*
X185911485Y-180685771D01*
X185554342Y-180685771D01*
X185411485Y-180614342D01*
X185340057Y-180471485D01*
X185340057Y-180328628D01*
X185411485Y-180185771D01*
X185554342Y-180114342D01*
X185911485Y-180114342D01*
X186054342Y-180042914D01*
X186554342Y-179685771D02*
X187125771Y-179685771D01*
X186768628Y-179185771D02*
X186768628Y-180471485D01*
X186840057Y-180614342D01*
X186982914Y-180685771D01*
X187125771Y-180685771D01*
D10*
D11*
D10*
D11*
X178434342Y-174685771D02*
X178434342Y-173185771D01*
X179077200Y-174685771D02*
X179077200Y-173900057D01*
X179005771Y-173757200D01*
X178862914Y-173685771D01*
X178648628Y-173685771D01*
X178505771Y-173757200D01*
X178434342Y-173828628D01*
X179577200Y-173685771D02*
X180148628Y-173685771D01*
X179791485Y-173185771D02*
X179791485Y-174471485D01*
X179862914Y-174614342D01*
X180005771Y-174685771D01*
X180148628Y-174685771D01*
X180434342Y-173685771D02*
X181005771Y-173685771D01*
X180648628Y-173185771D02*
X180648628Y-174471485D01*
X180720057Y-174614342D01*
X180862914Y-174685771D01*
X181005771Y-174685771D01*
X181505771Y-173685771D02*
X181505771Y-175185771D01*
X181505771Y-173757200D02*
X181648628Y-173685771D01*
X181934342Y-173685771D01*
X182077200Y-173757200D01*
X182148628Y-173828628D01*
X182220057Y-173971485D01*
X182220057Y-174400057D01*
X182148628Y-174542914D01*
X182077200Y-174614342D01*
X181934342Y-174685771D01*
X181648628Y-174685771D01*
X181505771Y-174614342D01*
X182791485Y-174614342D02*
X182934342Y-174685771D01*
X183220057Y-174685771D01*
X183362914Y-174614342D01*
X183434342Y-174471485D01*
X183434342Y-174400057D01*
X183362914Y-174257200D01*
X183220057Y-174185771D01*
X183005771Y-174185771D01*
X182862914Y-174114342D01*
X182791485Y-173971485D01*
X182791485Y-173900057D01*
X182862914Y-173757200D01*
X183005771Y-173685771D01*
X183220057Y-173685771D01*
X183362914Y-173757200D01*
X184077200Y-174542914D02*
X184148628Y-174614342D01*
X184077200Y-174685771D01*
X184005771Y-174614342D01*
X184077200Y-174542914D01*
X184077200Y-174685771D01*
X184077200Y-173757200D02*
X184148628Y-173828628D01*
X184077200Y-173900057D01*
X184005771Y-173828628D01*
X184077200Y-173757200D01*
X184077200Y-173900057D01*
X185862914Y-173114342D02*
X184577200Y-175042914D01*
X187434342Y-173114342D02*
X186148628Y-175042914D01*
X188577200Y-174685771D02*
X188577200Y-173900057D01*
X188505771Y-173757200D01*
X188362914Y-173685771D01*
X188077200Y-173685771D01*
X187934342Y-173757200D01*
X188577200Y-174614342D02*
X188434342Y-174685771D01*
X188077200Y-174685771D01*
X187934342Y-174614342D01*
X187862914Y-174471485D01*
X187862914Y-174328628D01*
X187934342Y-174185771D01*
X188077200Y-174114342D01*
X188434342Y-174114342D01*
X188577200Y-174042914D01*
X189291485Y-173685771D02*
X189291485Y-175185771D01*
X189291485Y-173757200D02*
X189434342Y-173685771D01*
X189720057Y-173685771D01*
X189862914Y-173757200D01*
X189934342Y-173828628D01*
X190005771Y-173971485D01*
X190005771Y-174400057D01*
X189934342Y-174542914D01*
X189862914Y-174614342D01*
X189720057Y-174685771D01*
X189434342Y-174685771D01*
X189291485Y-174614342D01*
X191291485Y-174685771D02*
X191291485Y-173900057D01*
X191220057Y-173757200D01*
X191077200Y-173685771D01*
X190791485Y-173685771D01*
X190648628Y-173757200D01*
X191291485Y-174614342D02*
X191148628Y-174685771D01*
X190791485Y-174685771D01*
X190648628Y-174614342D01*
X190577200Y-174471485D01*
X190577200Y-174328628D01*
X190648628Y-174185771D01*
X190791485Y-174114342D01*
X191148628Y-174114342D01*
X191291485Y-174042914D01*
X192648628Y-174614342D02*
X192505771Y-174685771D01*
X192220057Y-174685771D01*
X192077200Y-174614342D01*
X192005771Y-174542914D01*
X191934342Y-174400057D01*
X191934342Y-173971485D01*
X192005771Y-173828628D01*
X192077200Y-173757200D01*
X192220057Y-173685771D01*
X192505771Y-173685771D01*
X192648628Y-173757200D01*
X193291485Y-174685771D02*
X193291485Y-173185771D01*
X193934342Y-174685771D02*
X193934342Y-173900057D01*
X193862914Y-173757200D01*
X193720057Y-173685771D01*
X193505771Y-173685771D01*
X193362914Y-173757200D01*
X193291485Y-173828628D01*
X195220057Y-174614342D02*
X195077200Y-174685771D01*
X194791485Y-174685771D01*
X194648628Y-174614342D01*
X194577200Y-174471485D01*
X194577200Y-173900057D01*
X194648628Y-173757200D01*
X194791485Y-173685771D01*
X195077200Y-173685771D01*
X195220057Y-173757200D01*
X195291485Y-173900057D01*
X195291485Y-174042914D01*
X194577200Y-174185771D01*
X195934342Y-174542914D02*
X196005771Y-174614342D01*
X195934342Y-174685771D01*
X195862914Y-174614342D01*
X195934342Y-174542914D01*
X195934342Y-174685771D01*
X196862914Y-174685771D02*
X196720057Y-174614342D01*
X196648628Y-174542914D01*
X196577200Y-174400057D01*
X196577200Y-173971485D01*
X196648628Y-173828628D01*
X196720057Y-173757200D01*
X196862914Y-173685771D01*
X197077200Y-173685771D01*
X197220057Y-173757200D01*
X197291485Y-173828628D01*
X197362914Y-173971485D01*
X197362914Y-174400057D01*
X197291485Y-174542914D01*
X197220057Y-174614342D01*
X197077200Y-174685771D01*
X196862914Y-174685771D01*
X198005771Y-174685771D02*
X198005771Y-173685771D01*
X198005771Y-173971485D02*
X198077200Y-173828628D01*
X198148628Y-173757200D01*
X198291485Y-173685771D01*
X198434342Y-173685771D01*
X199577200Y-173685771D02*
X199577200Y-174900057D01*
X199505771Y-175042914D01*
X199434342Y-175114342D01*
X199291485Y-175185771D01*
X199077200Y-175185771D01*
X198934342Y-175114342D01*
X199577200Y-174614342D02*
X199434342Y-174685771D01*
X199148628Y-174685771D01*
X199005771Y-174614342D01*
X198934342Y-174542914D01*
X198862914Y-174400057D01*
X198862914Y-173971485D01*
X198934342Y-173828628D01*
X199005771Y-173757200D01*
X199148628Y-173685771D01*
X199434342Y-173685771D01*
X199577200Y-173757200D01*
X201362914Y-173114342D02*
X200077200Y-175042914D01*
X202077200Y-174685771D02*
X201934342Y-174614342D01*
X201862914Y-174471485D01*
X201862914Y-173185771D01*
X202648628Y-174685771D02*
X202648628Y-173685771D01*
X202648628Y-173185771D02*
X202577200Y-173257200D01*
X202648628Y-173328628D01*
X202720057Y-173257200D01*
X202648628Y-173185771D01*
X202648628Y-173328628D01*
X204005771Y-174614342D02*
X203862914Y-174685771D01*
X203577200Y-174685771D01*
X203434342Y-174614342D01*
X203362914Y-174542914D01*
X203291485Y-174400057D01*
X203291485Y-173971485D01*
X203362914Y-173828628D01*
X203434342Y-173757200D01*
X203577200Y-173685771D01*
X203862914Y-173685771D01*
X204005771Y-173757200D01*
X205220057Y-174614342D02*
X205077200Y-174685771D01*
X204791485Y-174685771D01*
X204648628Y-174614342D01*
X204577200Y-174471485D01*
X204577200Y-173900057D01*
X204648628Y-173757200D01*
X204791485Y-173685771D01*
X205077200Y-173685771D01*
X205220057Y-173757200D01*
X205291485Y-173900057D01*
X205291485Y-174042914D01*
X204577200Y-174185771D01*
X205934342Y-173685771D02*
X205934342Y-174685771D01*
X205934342Y-173828628D02*
X206005771Y-173757200D01*
X206148628Y-173685771D01*
X206362914Y-173685771D01*
X206505771Y-173757200D01*
X206577200Y-173900057D01*
X206577200Y-174685771D01*
X207220057Y-174614342D02*
X207362914Y-174685771D01*
X207648628Y-174685771D01*
X207791485Y-174614342D01*
X207862914Y-174471485D01*
X207862914Y-174400057D01*
X207791485Y-174257200D01*
X207648628Y-174185771D01*
X207434342Y-174185771D01*
X207291485Y-174114342D01*
X207220057Y-173971485D01*
X207220057Y-173900057D01*
X207291485Y-173757200D01*
X207434342Y-173685771D01*
X207648628Y-173685771D01*
X207791485Y-173757200D01*
X209077200Y-174614342D02*
X208934342Y-174685771D01*
X208648628Y-174685771D01*
X208505771Y-174614342D01*
X208434342Y-174471485D01*
X208434342Y-173900057D01*
X208505771Y-173757200D01*
X208648628Y-173685771D01*
X208934342Y-173685771D01*
X209077200Y-173757200D01*
X209148628Y-173900057D01*
X209148628Y-174042914D01*
X208434342Y-174185771D01*
X209720057Y-174614342D02*
X209862914Y-174685771D01*
X210148628Y-174685771D01*
X210291485Y-174614342D01*
X210362914Y-174471485D01*
X210362914Y-174400057D01*
X210291485Y-174257200D01*
X210148628Y-174185771D01*
X209934342Y-174185771D01*
X209791485Y-174114342D01*
X209720057Y-173971485D01*
X209720057Y-173900057D01*
X209791485Y-173757200D01*
X209934342Y-173685771D01*
X210148628Y-173685771D01*
X210291485Y-173757200D01*
X212077200Y-173114342D02*
X210791485Y-175042914D01*
X213291485Y-174685771D02*
X212577200Y-174685771D01*
X212577200Y-173185771D01*
X213791485Y-174685771D02*
X213791485Y-173185771D01*
X215362914Y-174542914D02*
X215291485Y-174614342D01*
X215077200Y-174685771D01*
X214934342Y-174685771D01*
X214720057Y-174614342D01*
X214577200Y-174471485D01*
X214505771Y-174328628D01*
X214434342Y-174042914D01*
X214434342Y-173828628D01*
X214505771Y-173542914D01*
X214577200Y-173400057D01*
X214720057Y-173257200D01*
X214934342Y-173185771D01*
X215077200Y-173185771D01*
X215291485Y-173257200D01*
X215362914Y-173328628D01*
X216005771Y-173900057D02*
X216505771Y-173900057D01*
X216720057Y-174685771D02*
X216005771Y-174685771D01*
X216005771Y-173185771D01*
X216720057Y-173185771D01*
X217362914Y-174685771D02*
X217362914Y-173185771D01*
X218220057Y-174685771D01*
X218220057Y-173185771D01*
X218862914Y-174614342D02*
X219077200Y-174685771D01*
X219434342Y-174685771D01*
X219577200Y-174614342D01*
X219648628Y-174542914D01*
X219720057Y-174400057D01*
X219720057Y-174257200D01*
X219648628Y-174114342D01*
X219577200Y-174042914D01*
X219434342Y-173971485D01*
X219148628Y-173900057D01*
X219005771Y-173828628D01*
X218934342Y-173757200D01*
X218862914Y-173614342D01*
X218862914Y-173471485D01*
X218934342Y-173328628D01*
X219005771Y-173257200D01*
X219148628Y-173185771D01*
X219505771Y-173185771D01*
X219720057Y-173257200D01*
X220362914Y-173900057D02*
X220862914Y-173900057D01*
X221077200Y-174685771D02*
X220362914Y-174685771D01*
X220362914Y-173185771D01*
X221077200Y-173185771D01*
X221720057Y-174114342D02*
X222862914Y-174114342D01*
X223505771Y-173328628D02*
X223577200Y-173257200D01*
X223720057Y-173185771D01*
X224077200Y-173185771D01*
X224220057Y-173257200D01*
X224291485Y-173328628D01*
X224362914Y-173471485D01*
X224362914Y-173614342D01*
X224291485Y-173828628D01*
X223434342Y-174685771D01*
X224362914Y-174685771D01*
X225005771Y-174542914D02*
X225077200Y-174614342D01*
X225005771Y-174685771D01*
X224934342Y-174614342D01*
X225005771Y-174542914D01*
X225005771Y-174685771D01*
X226005771Y-173185771D02*
X226148628Y-173185771D01*
X226291485Y-173257200D01*
X226362914Y-173328628D01*
X226434342Y-173471485D01*
X226505771Y-173757200D01*
X226505771Y-174114342D01*
X226434342Y-174400057D01*
X226362914Y-174542914D01*
X226291485Y-174614342D01*
X226148628Y-174685771D01*
X226005771Y-174685771D01*
X225862914Y-174614342D01*
X225791485Y-174542914D01*
X225720057Y-174400057D01*
X225648628Y-174114342D01*
X225648628Y-173757200D01*
X225720057Y-173471485D01*
X225791485Y-173328628D01*
X225862914Y-173257200D01*
X226005771Y-173185771D01*
D10*
D11*
X179148628Y-171685771D02*
X178434342Y-171685771D01*
X178434342Y-170185771D01*
X179648628Y-171685771D02*
X179648628Y-170685771D01*
X179648628Y-170185771D02*
X179577200Y-170257200D01*
X179648628Y-170328628D01*
X179720057Y-170257200D01*
X179648628Y-170185771D01*
X179648628Y-170328628D01*
X181005771Y-171614342D02*
X180862914Y-171685771D01*
X180577200Y-171685771D01*
X180434342Y-171614342D01*
X180362914Y-171542914D01*
X180291485Y-171400057D01*
X180291485Y-170971485D01*
X180362914Y-170828628D01*
X180434342Y-170757200D01*
X180577200Y-170685771D01*
X180862914Y-170685771D01*
X181005771Y-170757200D01*
X182220057Y-171614342D02*
X182077200Y-171685771D01*
X181791485Y-171685771D01*
X181648628Y-171614342D01*
X181577200Y-171471485D01*
X181577200Y-170900057D01*
X181648628Y-170757200D01*
X181791485Y-170685771D01*
X182077200Y-170685771D01*
X182220057Y-170757200D01*
X182291485Y-170900057D01*
X182291485Y-171042914D01*
X181577200Y-171185771D01*
X182934342Y-170685771D02*
X182934342Y-171685771D01*
X182934342Y-170828628D02*
X183005771Y-170757200D01*
X183148628Y-170685771D01*
X183362914Y-170685771D01*
X183505771Y-170757200D01*
X183577200Y-170900057D01*
X183577200Y-171685771D01*
X184220057Y-171614342D02*
X184362914Y-171685771D01*
X184648628Y-171685771D01*
X184791485Y-171614342D01*
X184862914Y-171471485D01*
X184862914Y-171400057D01*
X184791485Y-171257200D01*
X184648628Y-171185771D01*
X184434342Y-171185771D01*
X184291485Y-171114342D01*
X184220057Y-170971485D01*
X184220057Y-170900057D01*
X184291485Y-170757200D01*
X184434342Y-170685771D01*
X184648628Y-170685771D01*
X184791485Y-170757200D01*
X186077200Y-171614342D02*
X185934342Y-171685771D01*
X185648628Y-171685771D01*
X185505771Y-171614342D01*
X185434342Y-171471485D01*
X185434342Y-170900057D01*
X185505771Y-170757200D01*
X185648628Y-170685771D01*
X185934342Y-170685771D01*
X186077200Y-170757200D01*
X186148628Y-170900057D01*
X186148628Y-171042914D01*
X185434342Y-171185771D01*
X186791485Y-171542914D02*
X186862914Y-171614342D01*
X186791485Y-171685771D01*
X186720057Y-171614342D01*
X186791485Y-171542914D01*
X186791485Y-171685771D01*
X186791485Y-170757200D02*
X186862914Y-170828628D01*
X186791485Y-170900057D01*
X186720057Y-170828628D01*
X186791485Y-170757200D01*
X186791485Y-170900057D01*
X188577200Y-171257200D02*
X189291485Y-171257200D01*
X188434342Y-171685771D02*
X188934342Y-170185771D01*
X189434342Y-171685771D01*
X189934342Y-170685771D02*
X189934342Y-172185771D01*
X189934342Y-170757200D02*
X190077200Y-170685771D01*
X190362914Y-170685771D01*
X190505771Y-170757200D01*
X190577200Y-170828628D01*
X190648628Y-170971485D01*
X190648628Y-171400057D01*
X190577200Y-171542914D01*
X190505771Y-171614342D01*
X190362914Y-171685771D01*
X190077200Y-171685771D01*
X189934342Y-171614342D01*
X191934342Y-171685771D02*
X191934342Y-170900057D01*
X191862914Y-170757200D01*
X191720057Y-170685771D01*
X191434342Y-170685771D01*
X191291485Y-170757200D01*
X191934342Y-171614342D02*
X191791485Y-171685771D01*
X191434342Y-171685771D01*
X191291485Y-171614342D01*
X191220057Y-171471485D01*
X191220057Y-171328628D01*
X191291485Y-171185771D01*
X191434342Y-171114342D01*
X191791485Y-171114342D01*
X191934342Y-171042914D01*
X193291485Y-171614342D02*
X193148628Y-171685771D01*
X192862914Y-171685771D01*
X192720057Y-171614342D01*
X192648628Y-171542914D01*
X192577200Y-171400057D01*
X192577200Y-170971485D01*
X192648628Y-170828628D01*
X192720057Y-170757200D01*
X192862914Y-170685771D01*
X193148628Y-170685771D01*
X193291485Y-170757200D01*
X193934342Y-171685771D02*
X193934342Y-170185771D01*
X194577200Y-171685771D02*
X194577200Y-170900057D01*
X194505771Y-170757200D01*
X194362914Y-170685771D01*
X194148628Y-170685771D01*
X194005771Y-170757200D01*
X193934342Y-170828628D01*
X195862914Y-171614342D02*
X195720057Y-171685771D01*
X195434342Y-171685771D01*
X195291485Y-171614342D01*
X195220057Y-171471485D01*
X195220057Y-170900057D01*
X195291485Y-170757200D01*
X195434342Y-170685771D01*
X195720057Y-170685771D01*
X195862914Y-170757200D01*
X195934342Y-170900057D01*
X195934342Y-171042914D01*
X195220057Y-171185771D01*
X197648628Y-170328628D02*
X197720057Y-170257200D01*
X197862914Y-170185771D01*
X198220057Y-170185771D01*
X198362914Y-170257200D01*
X198434342Y-170328628D01*
X198505771Y-170471485D01*
X198505771Y-170614342D01*
X198434342Y-170828628D01*
X197577200Y-171685771D01*
X198505771Y-171685771D01*
X199148628Y-171542914D02*
X199220057Y-171614342D01*
X199148628Y-171685771D01*
X199077200Y-171614342D01*
X199148628Y-171542914D01*
X199148628Y-171685771D01*
X200148628Y-170185771D02*
X200291485Y-170185771D01*
X200434342Y-170257200D01*
X200505771Y-170328628D01*
X200577200Y-170471485D01*
X200648628Y-170757200D01*
X200648628Y-171114342D01*
X200577200Y-171400057D01*
X200505771Y-171542914D01*
X200434342Y-171614342D01*
X200291485Y-171685771D01*
X200148628Y-171685771D01*
X200005771Y-171614342D01*
X199934342Y-171542914D01*
X199862914Y-171400057D01*
X199791485Y-171114342D01*
X199791485Y-170757200D01*
X199862914Y-170471485D01*
X199934342Y-170328628D01*
X200005771Y-170257200D01*
X200148628Y-170185771D01*
D10*
D11*
X178362914Y-168257200D02*
X179077200Y-168257200D01*
X178220057Y-168685771D02*
X178720057Y-167185771D01*
X179220057Y-168685771D01*
X180362914Y-167685771D02*
X180362914Y-168685771D01*
X179720057Y-167685771D02*
X179720057Y-168471485D01*
X179791485Y-168614342D01*
X179934342Y-168685771D01*
X180148628Y-168685771D01*
X180291485Y-168614342D01*
X180362914Y-168542914D01*
X180862914Y-167685771D02*
X181434342Y-167685771D01*
X181077200Y-167185771D02*
X181077200Y-168471485D01*
X181148628Y-168614342D01*
X181291485Y-168685771D01*
X181434342Y-168685771D01*
X181934342Y-168685771D02*
X181934342Y-167185771D01*
X182577200Y-168685771D02*
X182577200Y-167900057D01*
X182505771Y-167757200D01*
X182362914Y-167685771D01*
X182148628Y-167685771D01*
X182005771Y-167757200D01*
X181934342Y-167828628D01*
X183505771Y-168685771D02*
X183362914Y-168614342D01*
X183291485Y-168542914D01*
X183220057Y-168400057D01*
X183220057Y-167971485D01*
X183291485Y-167828628D01*
X183362914Y-167757200D01*
X183505771Y-167685771D01*
X183720057Y-167685771D01*
X183862914Y-167757200D01*
X183934342Y-167828628D01*
X184005771Y-167971485D01*
X184005771Y-168400057D01*
X183934342Y-168542914D01*
X183862914Y-168614342D01*
X183720057Y-168685771D01*
X183505771Y-168685771D01*
X184648628Y-168685771D02*
X184648628Y-167685771D01*
X184648628Y-167971485D02*
X184720057Y-167828628D01*
X184791485Y-167757200D01*
X184934342Y-167685771D01*
X185077200Y-167685771D01*
X185577200Y-168542914D02*
X185648628Y-168614342D01*
X185577200Y-168685771D01*
X185505771Y-168614342D01*
X185577200Y-168542914D01*
X185577200Y-168685771D01*
X185577200Y-167757200D02*
X185648628Y-167828628D01*
X185577200Y-167900057D01*
X185505771Y-167828628D01*
X185577200Y-167757200D01*
X185577200Y-167900057D01*
X187434342Y-167185771D02*
X187434342Y-168400057D01*
X187505771Y-168542914D01*
X187577200Y-168614342D01*
X187720057Y-168685771D01*
X188005771Y-168685771D01*
X188148628Y-168614342D01*
X188220057Y-168542914D01*
X188291485Y-168400057D01*
X188291485Y-167185771D01*
X189220057Y-168685771D02*
X189077200Y-168614342D01*
X189005771Y-168471485D01*
X189005771Y-167185771D01*
X189577200Y-167685771D02*
X190148628Y-167685771D01*
X189791485Y-168685771D02*
X189791485Y-167400057D01*
X189862914Y-167257200D01*
X190005771Y-167185771D01*
X190148628Y-167185771D01*
X192505771Y-168685771D02*
X191791485Y-168685771D01*
X191791485Y-167185771D01*
X193005771Y-168685771D02*
X193005771Y-167685771D01*
X193005771Y-167185771D02*
X192934342Y-167257200D01*
X193005771Y-167328628D01*
X193077200Y-167257200D01*
X193005771Y-167185771D01*
X193005771Y-167328628D01*
X193934342Y-168685771D02*
X193791485Y-168614342D01*
X193720057Y-168471485D01*
X193720057Y-167185771D01*
X194720057Y-168685771D02*
X194577200Y-168614342D01*
X194505771Y-168471485D01*
X194505771Y-167185771D01*
X195862914Y-168614342D02*
X195720057Y-168685771D01*
X195434342Y-168685771D01*
X195291485Y-168614342D01*
X195220057Y-168471485D01*
X195220057Y-167900057D01*
X195291485Y-167757200D01*
X195434342Y-167685771D01*
X195720057Y-167685771D01*
X195862914Y-167757200D01*
X195934342Y-167900057D01*
X195934342Y-168042914D01*
X195220057Y-168185771D01*
X197148628Y-168614342D02*
X197005771Y-168685771D01*
X196720057Y-168685771D01*
X196577200Y-168614342D01*
X196505771Y-168471485D01*
X196505771Y-167900057D01*
X196577200Y-167757200D01*
X196720057Y-167685771D01*
X197005771Y-167685771D01*
X197148628Y-167757200D01*
X197220057Y-167900057D01*
X197220057Y-168042914D01*
X196505771Y-168185771D01*
X197862914Y-167685771D02*
X197862914Y-168685771D01*
X197862914Y-167828628D02*
X197934342Y-167757200D01*
X198077200Y-167685771D01*
X198291485Y-167685771D01*
X198434342Y-167757200D01*
X198505771Y-167900057D01*
X198505771Y-168685771D01*
X199862914Y-167685771D02*
X199862914Y-168900057D01*
X199791485Y-169042914D01*
X199720057Y-169114342D01*
X199577200Y-169185771D01*
X199362914Y-169185771D01*
X199220057Y-169114342D01*
X199862914Y-168614342D02*
X199720057Y-168685771D01*
X199434342Y-168685771D01*
X199291485Y-168614342D01*
X199220057Y-168542914D01*
X199148628Y-168400057D01*
X199148628Y-167971485D01*
X199220057Y-167828628D01*
X199291485Y-167757200D01*
X199434342Y-167685771D01*
X199720057Y-167685771D01*
X199862914Y-167757200D01*
X201148628Y-168614342D02*
X201005771Y-168685771D01*
X200720057Y-168685771D01*
X200577200Y-168614342D01*
X200505771Y-168471485D01*
X200505771Y-167900057D01*
X200577200Y-167757200D01*
X200720057Y-167685771D01*
X201005771Y-167685771D01*
X201148628Y-167757200D01*
X201220057Y-167900057D01*
X201220057Y-168042914D01*
X200505771Y-168185771D01*
X201862914Y-167685771D02*
X201862914Y-168685771D01*
X201862914Y-167828628D02*
X201934342Y-167757200D01*
X202077200Y-167685771D01*
X202291485Y-167685771D01*
X202434342Y-167757200D01*
X202505771Y-167900057D01*
X202505771Y-168685771D01*
D10*
D11*
X197002200Y-191507200D02*
X197002200Y-194507200D01*
D10*
D11*
X261002200Y-191507200D02*
X261002200Y-198007200D01*
D14*
X178892200Y-64566800D02*
X178892200Y-140766800D01*
X229692200Y-64566800D02*
G75*
G03*
X227152200Y-62026800I-2540001J-1D01*
G01*
X181432200Y-143306800D02*
X227152200Y-143306800D01*
X227152200Y-143306800D02*
G75*
G03*
X229692200Y-140766800I-1J2540001D01*
G01*
X227152200Y-62026800D02*
X181432200Y-62026800D01*
X178892200Y-140766800D02*
G75*
G03*
X181432200Y-143306800I2540001J1D01*
G01*
X181432200Y-62026800D02*
G75*
G03*
X178892200Y-64566800I1J-2540001D01*
G01*
X229692200Y-140766800D02*
X229692200Y-64566800D01*
D11*
%TO.C,S2*%
X213380628Y-133532571D02*
X213523485Y-133580190D01*
X213571104Y-133627809D01*
X213618723Y-133723047D01*
X213618723Y-133865904D01*
X213571104Y-133961142D01*
X213523485Y-134008761D01*
X213428247Y-134056380D01*
X213047295Y-134056380D01*
X213047295Y-133056380D01*
X213380628Y-133056380D01*
X213475866Y-133104000D01*
X213523485Y-133151619D01*
X213571104Y-133246857D01*
X213571104Y-133342095D01*
X213523485Y-133437333D01*
X213475866Y-133484952D01*
X213380628Y-133532571D01*
X213047295Y-133532571D01*
X212598095Y-129766961D02*
X212740952Y-129814580D01*
X212979047Y-129814580D01*
X213074285Y-129766961D01*
X213121904Y-129719342D01*
X213169523Y-129624104D01*
X213169523Y-129528866D01*
X213121904Y-129433628D01*
X213074285Y-129386009D01*
X212979047Y-129338390D01*
X212788571Y-129290771D01*
X212693333Y-129243152D01*
X212645714Y-129195533D01*
X212598095Y-129100295D01*
X212598095Y-129005057D01*
X212645714Y-128909819D01*
X212693333Y-128862200D01*
X212788571Y-128814580D01*
X213026666Y-128814580D01*
X213169523Y-128862200D01*
X213550476Y-128909819D02*
X213598095Y-128862200D01*
X213693333Y-128814580D01*
X213931428Y-128814580D01*
X214026666Y-128862200D01*
X214074285Y-128909819D01*
X214121904Y-129005057D01*
X214121904Y-129100295D01*
X214074285Y-129243152D01*
X213502857Y-129814580D01*
X214121904Y-129814580D01*
%TO.C,Q1*%
X228865180Y-114548609D02*
X228865180Y-113977180D01*
X229865180Y-114262895D02*
X228865180Y-114262895D01*
X229341371Y-113643847D02*
X229341371Y-113310514D01*
X229865180Y-113167657D02*
X229865180Y-113643847D01*
X228865180Y-113643847D01*
X228865180Y-113167657D01*
X229865180Y-112739085D02*
X228865180Y-112739085D01*
X229579466Y-112405752D01*
X228865180Y-112072419D01*
X229865180Y-112072419D01*
X228865180Y-111739085D02*
X228865180Y-111167657D01*
X229865180Y-111453371D02*
X228865180Y-111453371D01*
X228865180Y-110405752D02*
X228865180Y-110596228D01*
X228912800Y-110691466D01*
X228960419Y-110739085D01*
X229103276Y-110834323D01*
X229293752Y-110881942D01*
X229674704Y-110881942D01*
X229769942Y-110834323D01*
X229817561Y-110786704D01*
X229865180Y-110691466D01*
X229865180Y-110500990D01*
X229817561Y-110405752D01*
X229769942Y-110358133D01*
X229674704Y-110310514D01*
X229436609Y-110310514D01*
X229341371Y-110358133D01*
X229293752Y-110405752D01*
X229246133Y-110500990D01*
X229246133Y-110691466D01*
X229293752Y-110786704D01*
X229341371Y-110834323D01*
X229436609Y-110881942D01*
X228865180Y-109691466D02*
X228865180Y-109596228D01*
X228912800Y-109500990D01*
X228960419Y-109453371D01*
X229055657Y-109405752D01*
X229246133Y-109358133D01*
X229484228Y-109358133D01*
X229674704Y-109405752D01*
X229769942Y-109453371D01*
X229817561Y-109500990D01*
X229865180Y-109596228D01*
X229865180Y-109691466D01*
X229817561Y-109786704D01*
X229769942Y-109834323D01*
X229674704Y-109881942D01*
X229484228Y-109929561D01*
X229246133Y-109929561D01*
X229055657Y-109881942D01*
X228960419Y-109834323D01*
X228912800Y-109786704D01*
X228865180Y-109691466D01*
X228865180Y-108739085D02*
X228865180Y-108643847D01*
X228912800Y-108548609D01*
X228960419Y-108500990D01*
X229055657Y-108453371D01*
X229246133Y-108405752D01*
X229484228Y-108405752D01*
X229674704Y-108453371D01*
X229769942Y-108500990D01*
X229817561Y-108548609D01*
X229865180Y-108643847D01*
X229865180Y-108739085D01*
X229817561Y-108834323D01*
X229769942Y-108881942D01*
X229674704Y-108929561D01*
X229484228Y-108977180D01*
X229246133Y-108977180D01*
X229055657Y-108929561D01*
X228960419Y-108881942D01*
X228912800Y-108834323D01*
X228865180Y-108739085D01*
X228865180Y-107786704D02*
X228865180Y-107691466D01*
X228912800Y-107596228D01*
X228960419Y-107548609D01*
X229055657Y-107500990D01*
X229246133Y-107453371D01*
X229484228Y-107453371D01*
X229674704Y-107500990D01*
X229769942Y-107548609D01*
X229817561Y-107596228D01*
X229865180Y-107691466D01*
X229865180Y-107786704D01*
X229817561Y-107881942D01*
X229769942Y-107929561D01*
X229674704Y-107977180D01*
X229484228Y-108024800D01*
X229246133Y-108024800D01*
X229055657Y-107977180D01*
X228960419Y-107929561D01*
X228912800Y-107881942D01*
X228865180Y-107786704D01*
X228865180Y-107120038D02*
X229865180Y-106453371D01*
X228865180Y-106453371D02*
X229865180Y-107120038D01*
X228865180Y-105881942D02*
X228865180Y-105786704D01*
X228912800Y-105691466D01*
X228960419Y-105643847D01*
X229055657Y-105596228D01*
X229246133Y-105548609D01*
X229484228Y-105548609D01*
X229674704Y-105596228D01*
X229769942Y-105643847D01*
X229817561Y-105691466D01*
X229865180Y-105786704D01*
X229865180Y-105881942D01*
X229817561Y-105977180D01*
X229769942Y-106024800D01*
X229674704Y-106072419D01*
X229484228Y-106120038D01*
X229246133Y-106120038D01*
X229055657Y-106072419D01*
X228960419Y-106024800D01*
X228912800Y-105977180D01*
X228865180Y-105881942D01*
X229865180Y-104596228D02*
X229865180Y-105167657D01*
X229865180Y-104881942D02*
X228865180Y-104881942D01*
X229008038Y-104977180D01*
X229103276Y-105072419D01*
X229150895Y-105167657D01*
D15*
X224996380Y-108782609D02*
X224948761Y-108758800D01*
X224901142Y-108711180D01*
X224829714Y-108639752D01*
X224782095Y-108615942D01*
X224734476Y-108615942D01*
X224758285Y-108734990D02*
X224710666Y-108711180D01*
X224663047Y-108663561D01*
X224639238Y-108568323D01*
X224639238Y-108401657D01*
X224663047Y-108306419D01*
X224710666Y-108258800D01*
X224758285Y-108234990D01*
X224853523Y-108234990D01*
X224901142Y-108258800D01*
X224948761Y-108306419D01*
X224972571Y-108401657D01*
X224972571Y-108568323D01*
X224948761Y-108663561D01*
X224901142Y-108711180D01*
X224853523Y-108734990D01*
X224758285Y-108734990D01*
X225448761Y-108734990D02*
X225163047Y-108734990D01*
X225305904Y-108734990D02*
X225305904Y-108234990D01*
X225258285Y-108306419D01*
X225210666Y-108354038D01*
X225163047Y-108377847D01*
D11*
%TO.C,S1*%
X195341904Y-133736655D02*
X195818095Y-133736655D01*
X195246666Y-134022369D02*
X195580000Y-133022369D01*
X195913333Y-134022369D01*
X194767295Y-130020961D02*
X194910152Y-130068580D01*
X195148247Y-130068580D01*
X195243485Y-130020961D01*
X195291104Y-129973342D01*
X195338723Y-129878104D01*
X195338723Y-129782866D01*
X195291104Y-129687628D01*
X195243485Y-129640009D01*
X195148247Y-129592390D01*
X194957771Y-129544771D01*
X194862533Y-129497152D01*
X194814914Y-129449533D01*
X194767295Y-129354295D01*
X194767295Y-129259057D01*
X194814914Y-129163819D01*
X194862533Y-129116200D01*
X194957771Y-129068580D01*
X195195866Y-129068580D01*
X195338723Y-129116200D01*
X196291104Y-130068580D02*
X195719676Y-130068580D01*
X196005390Y-130068580D02*
X196005390Y-129068580D01*
X195910152Y-129211438D01*
X195814914Y-129306676D01*
X195719676Y-129354295D01*
%TO.C,J1*%
X181924580Y-85220133D02*
X182638866Y-85220133D01*
X182781723Y-85267752D01*
X182876961Y-85362990D01*
X182924580Y-85505847D01*
X182924580Y-85601085D01*
X182924580Y-84220133D02*
X182924580Y-84791561D01*
X182924580Y-84505847D02*
X181924580Y-84505847D01*
X182067438Y-84601085D01*
X182162676Y-84696323D01*
X182210295Y-84791561D01*
X203958866Y-84339180D02*
X203958866Y-85053466D01*
X203911247Y-85196323D01*
X203816009Y-85291561D01*
X203673152Y-85339180D01*
X203577914Y-85339180D01*
X204958866Y-85339180D02*
X204387438Y-85339180D01*
X204673152Y-85339180D02*
X204673152Y-84339180D01*
X204577914Y-84482038D01*
X204482676Y-84577276D01*
X204387438Y-84624895D01*
%TO.C,J2*%
X227264980Y-68532333D02*
X227979266Y-68532333D01*
X228122123Y-68579952D01*
X228217361Y-68675190D01*
X228264980Y-68818047D01*
X228264980Y-68913285D01*
X227360219Y-68103761D02*
X227312600Y-68056142D01*
X227264980Y-67960904D01*
X227264980Y-67722809D01*
X227312600Y-67627571D01*
X227360219Y-67579952D01*
X227455457Y-67532333D01*
X227550695Y-67532333D01*
X227693552Y-67579952D01*
X228264980Y-68151380D01*
X228264980Y-67532333D01*
X209038866Y-64019180D02*
X209038866Y-64733466D01*
X208991247Y-64876323D01*
X208896009Y-64971561D01*
X208753152Y-65019180D01*
X208657914Y-65019180D01*
X209467438Y-64114419D02*
X209515057Y-64066800D01*
X209610295Y-64019180D01*
X209848390Y-64019180D01*
X209943628Y-64066800D01*
X209991247Y-64114419D01*
X210038866Y-64209657D01*
X210038866Y-64304895D01*
X209991247Y-64447752D01*
X209419819Y-65019180D01*
X210038866Y-65019180D01*
%TO.C,D2*%
X197367733Y-92413200D02*
X197272495Y-92365580D01*
X197129638Y-92365580D01*
X196986780Y-92413200D01*
X196891542Y-92508438D01*
X196843923Y-92603676D01*
X196796304Y-92794152D01*
X196796304Y-92937009D01*
X196843923Y-93127485D01*
X196891542Y-93222723D01*
X196986780Y-93317961D01*
X197129638Y-93365580D01*
X197224876Y-93365580D01*
X197367733Y-93317961D01*
X197415352Y-93270342D01*
X197415352Y-92937009D01*
X197224876Y-92937009D01*
X198415352Y-93365580D02*
X198082019Y-92889390D01*
X197843923Y-93365580D02*
X197843923Y-92365580D01*
X198224876Y-92365580D01*
X198320114Y-92413200D01*
X198367733Y-92460819D01*
X198415352Y-92556057D01*
X198415352Y-92698914D01*
X198367733Y-92794152D01*
X198320114Y-92841771D01*
X198224876Y-92889390D01*
X197843923Y-92889390D01*
X198843923Y-92841771D02*
X199177257Y-92841771D01*
X199320114Y-93365580D02*
X198843923Y-93365580D01*
X198843923Y-92365580D01*
X199320114Y-92365580D01*
X199748685Y-92841771D02*
X200082019Y-92841771D01*
X200224876Y-93365580D02*
X199748685Y-93365580D01*
X199748685Y-92365580D01*
X200224876Y-92365580D01*
X200653447Y-93365580D02*
X200653447Y-92365580D01*
X201224876Y-93365580D01*
X201224876Y-92365580D01*
D16*
X198639952Y-91158190D02*
X198639952Y-90658190D01*
X198759000Y-90658190D01*
X198830428Y-90682000D01*
X198878047Y-90729619D01*
X198901857Y-90777238D01*
X198925666Y-90872476D01*
X198925666Y-90943904D01*
X198901857Y-91039142D01*
X198878047Y-91086761D01*
X198830428Y-91134380D01*
X198759000Y-91158190D01*
X198639952Y-91158190D01*
X199116142Y-90705809D02*
X199139952Y-90682000D01*
X199187571Y-90658190D01*
X199306619Y-90658190D01*
X199354238Y-90682000D01*
X199378047Y-90705809D01*
X199401857Y-90753428D01*
X199401857Y-90801047D01*
X199378047Y-90872476D01*
X199092333Y-91158190D01*
X199401857Y-91158190D01*
D11*
%TO.C,D4*%
X218622857Y-92889390D02*
X218622857Y-93365580D01*
X218289523Y-92365580D02*
X218622857Y-92889390D01*
X218956190Y-92365580D01*
X219289523Y-92841771D02*
X219622857Y-92841771D01*
X219765714Y-93365580D02*
X219289523Y-93365580D01*
X219289523Y-92365580D01*
X219765714Y-92365580D01*
X220670476Y-93365580D02*
X220194285Y-93365580D01*
X220194285Y-92365580D01*
X221480000Y-93365580D02*
X221003809Y-93365580D01*
X221003809Y-92365580D01*
X222003809Y-92365580D02*
X222194285Y-92365580D01*
X222289523Y-92413200D01*
X222384761Y-92508438D01*
X222432380Y-92698914D01*
X222432380Y-93032247D01*
X222384761Y-93222723D01*
X222289523Y-93317961D01*
X222194285Y-93365580D01*
X222003809Y-93365580D01*
X221908571Y-93317961D01*
X221813333Y-93222723D01*
X221765714Y-93032247D01*
X221765714Y-92698914D01*
X221813333Y-92508438D01*
X221908571Y-92413200D01*
X222003809Y-92365580D01*
X222765714Y-92365580D02*
X223003809Y-93365580D01*
X223194285Y-92651295D01*
X223384761Y-93365580D01*
X223622857Y-92365580D01*
D16*
X220610952Y-91158190D02*
X220610952Y-90658190D01*
X220730000Y-90658190D01*
X220801428Y-90682000D01*
X220849047Y-90729619D01*
X220872857Y-90777238D01*
X220896666Y-90872476D01*
X220896666Y-90943904D01*
X220872857Y-91039142D01*
X220849047Y-91086761D01*
X220801428Y-91134380D01*
X220730000Y-91158190D01*
X220610952Y-91158190D01*
X221325238Y-90824857D02*
X221325238Y-91158190D01*
X221206190Y-90634380D02*
X221087142Y-90991523D01*
X221396666Y-90991523D01*
D11*
%TO.C,R4*%
X185693580Y-123785238D02*
X185693580Y-124356666D01*
X185693580Y-124070952D02*
X184693580Y-124070952D01*
X184836438Y-124166190D01*
X184931676Y-124261428D01*
X184979295Y-124356666D01*
X184693580Y-123166190D02*
X184693580Y-123070952D01*
X184741200Y-122975714D01*
X184788819Y-122928095D01*
X184884057Y-122880476D01*
X185074533Y-122832857D01*
X185312628Y-122832857D01*
X185503104Y-122880476D01*
X185598342Y-122928095D01*
X185645961Y-122975714D01*
X185693580Y-123070952D01*
X185693580Y-123166190D01*
X185645961Y-123261428D01*
X185598342Y-123309047D01*
X185503104Y-123356666D01*
X185312628Y-123404285D01*
X185074533Y-123404285D01*
X184884057Y-123356666D01*
X184788819Y-123309047D01*
X184741200Y-123261428D01*
X184693580Y-123166190D01*
X185693580Y-122404285D02*
X184693580Y-122404285D01*
X185312628Y-122309047D02*
X185693580Y-122023333D01*
X185026914Y-122023333D02*
X185407866Y-122404285D01*
D16*
X183817390Y-123273333D02*
X183579295Y-123440000D01*
X183817390Y-123559047D02*
X183317390Y-123559047D01*
X183317390Y-123368571D01*
X183341200Y-123320952D01*
X183365009Y-123297142D01*
X183412628Y-123273333D01*
X183484057Y-123273333D01*
X183531676Y-123297142D01*
X183555485Y-123320952D01*
X183579295Y-123368571D01*
X183579295Y-123559047D01*
X183484057Y-122844761D02*
X183817390Y-122844761D01*
X183293580Y-122963809D02*
X183650723Y-123082857D01*
X183650723Y-122773333D01*
D11*
%TO.C,R8*%
X223464380Y-90012733D02*
X223464380Y-90584161D01*
X223464380Y-90298447D02*
X222464380Y-90298447D01*
X222607238Y-90393685D01*
X222702476Y-90488923D01*
X222750095Y-90584161D01*
X223369142Y-89584161D02*
X223416761Y-89536542D01*
X223464380Y-89584161D01*
X223416761Y-89631780D01*
X223369142Y-89584161D01*
X223464380Y-89584161D01*
X222464380Y-88631780D02*
X222464380Y-89107971D01*
X222940571Y-89155590D01*
X222892952Y-89107971D01*
X222845333Y-89012733D01*
X222845333Y-88774638D01*
X222892952Y-88679400D01*
X222940571Y-88631780D01*
X223035809Y-88584161D01*
X223273904Y-88584161D01*
X223369142Y-88631780D01*
X223416761Y-88679400D01*
X223464380Y-88774638D01*
X223464380Y-89012733D01*
X223416761Y-89107971D01*
X223369142Y-89155590D01*
X223464380Y-88155590D02*
X222464380Y-88155590D01*
X223083428Y-88060352D02*
X223464380Y-87774638D01*
X222797714Y-87774638D02*
X223178666Y-88155590D01*
D16*
X224762190Y-89237333D02*
X224524095Y-89404000D01*
X224762190Y-89523047D02*
X224262190Y-89523047D01*
X224262190Y-89332571D01*
X224286000Y-89284952D01*
X224309809Y-89261142D01*
X224357428Y-89237333D01*
X224428857Y-89237333D01*
X224476476Y-89261142D01*
X224500285Y-89284952D01*
X224524095Y-89332571D01*
X224524095Y-89523047D01*
X224476476Y-88951619D02*
X224452666Y-88999238D01*
X224428857Y-89023047D01*
X224381238Y-89046857D01*
X224357428Y-89046857D01*
X224309809Y-89023047D01*
X224286000Y-88999238D01*
X224262190Y-88951619D01*
X224262190Y-88856380D01*
X224286000Y-88808761D01*
X224309809Y-88784952D01*
X224357428Y-88761142D01*
X224381238Y-88761142D01*
X224428857Y-88784952D01*
X224452666Y-88808761D01*
X224476476Y-88856380D01*
X224476476Y-88951619D01*
X224500285Y-88999238D01*
X224524095Y-89023047D01*
X224571714Y-89046857D01*
X224666952Y-89046857D01*
X224714571Y-89023047D01*
X224738380Y-88999238D01*
X224762190Y-88951619D01*
X224762190Y-88856380D01*
X224738380Y-88808761D01*
X224714571Y-88784952D01*
X224666952Y-88761142D01*
X224571714Y-88761142D01*
X224524095Y-88784952D01*
X224500285Y-88808761D01*
X224476476Y-88856380D01*
D11*
%TO.C,R7*%
X203271380Y-92630833D02*
X203271380Y-93202261D01*
X203271380Y-92916547D02*
X202271380Y-92916547D01*
X202414238Y-93011785D01*
X202509476Y-93107023D01*
X202557095Y-93202261D01*
X203176142Y-92202261D02*
X203223761Y-92154642D01*
X203271380Y-92202261D01*
X203223761Y-92249880D01*
X203176142Y-92202261D01*
X203271380Y-92202261D01*
X202271380Y-91249880D02*
X202271380Y-91726071D01*
X202747571Y-91773690D01*
X202699952Y-91726071D01*
X202652333Y-91630833D01*
X202652333Y-91392738D01*
X202699952Y-91297500D01*
X202747571Y-91249880D01*
X202842809Y-91202261D01*
X203080904Y-91202261D01*
X203176142Y-91249880D01*
X203223761Y-91297500D01*
X203271380Y-91392738D01*
X203271380Y-91630833D01*
X203223761Y-91726071D01*
X203176142Y-91773690D01*
X203271380Y-90773690D02*
X202271380Y-90773690D01*
X202890428Y-90678452D02*
X203271380Y-90392738D01*
X202604714Y-90392738D02*
X202985666Y-90773690D01*
D16*
X202740390Y-88576933D02*
X202502295Y-88743600D01*
X202740390Y-88862647D02*
X202240390Y-88862647D01*
X202240390Y-88672171D01*
X202264200Y-88624552D01*
X202288009Y-88600742D01*
X202335628Y-88576933D01*
X202407057Y-88576933D01*
X202454676Y-88600742D01*
X202478485Y-88624552D01*
X202502295Y-88672171D01*
X202502295Y-88862647D01*
X202240390Y-88410266D02*
X202240390Y-88076933D01*
X202740390Y-88291219D01*
D11*
%TO.C,R1*%
X224448761Y-112982380D02*
X223877333Y-112982380D01*
X224163047Y-112982380D02*
X224163047Y-111982380D01*
X224067809Y-112125238D01*
X223972571Y-112220476D01*
X223877333Y-112268095D01*
X225067809Y-111982380D02*
X225163047Y-111982380D01*
X225258285Y-112030000D01*
X225305904Y-112077619D01*
X225353523Y-112172857D01*
X225401142Y-112363333D01*
X225401142Y-112601428D01*
X225353523Y-112791904D01*
X225305904Y-112887142D01*
X225258285Y-112934761D01*
X225163047Y-112982380D01*
X225067809Y-112982380D01*
X224972571Y-112934761D01*
X224924952Y-112887142D01*
X224877333Y-112791904D01*
X224829714Y-112601428D01*
X224829714Y-112363333D01*
X224877333Y-112172857D01*
X224924952Y-112077619D01*
X224972571Y-112030000D01*
X225067809Y-111982380D01*
X225829714Y-112982380D02*
X225829714Y-111982380D01*
X225924952Y-112601428D02*
X226210666Y-112982380D01*
X226210666Y-112315714D02*
X225829714Y-112696666D01*
D16*
X224960666Y-114406190D02*
X224794000Y-114168095D01*
X224674952Y-114406190D02*
X224674952Y-113906190D01*
X224865428Y-113906190D01*
X224913047Y-113930000D01*
X224936857Y-113953809D01*
X224960666Y-114001428D01*
X224960666Y-114072857D01*
X224936857Y-114120476D01*
X224913047Y-114144285D01*
X224865428Y-114168095D01*
X224674952Y-114168095D01*
X225436857Y-114406190D02*
X225151142Y-114406190D01*
X225294000Y-114406190D02*
X225294000Y-113906190D01*
X225246380Y-113977619D01*
X225198761Y-114025238D01*
X225151142Y-114049047D01*
D11*
%TO.C,R5*%
X223846380Y-123785238D02*
X223846380Y-124356666D01*
X223846380Y-124070952D02*
X222846380Y-124070952D01*
X222989238Y-124166190D01*
X223084476Y-124261428D01*
X223132095Y-124356666D01*
X222846380Y-123166190D02*
X222846380Y-123070952D01*
X222894000Y-122975714D01*
X222941619Y-122928095D01*
X223036857Y-122880476D01*
X223227333Y-122832857D01*
X223465428Y-122832857D01*
X223655904Y-122880476D01*
X223751142Y-122928095D01*
X223798761Y-122975714D01*
X223846380Y-123070952D01*
X223846380Y-123166190D01*
X223798761Y-123261428D01*
X223751142Y-123309047D01*
X223655904Y-123356666D01*
X223465428Y-123404285D01*
X223227333Y-123404285D01*
X223036857Y-123356666D01*
X222941619Y-123309047D01*
X222894000Y-123261428D01*
X222846380Y-123166190D01*
X223846380Y-122404285D02*
X222846380Y-122404285D01*
X223465428Y-122309047D02*
X223846380Y-122023333D01*
X223179714Y-122023333D02*
X223560666Y-122404285D01*
D16*
X225270190Y-123273333D02*
X225032095Y-123440000D01*
X225270190Y-123559047D02*
X224770190Y-123559047D01*
X224770190Y-123368571D01*
X224794000Y-123320952D01*
X224817809Y-123297142D01*
X224865428Y-123273333D01*
X224936857Y-123273333D01*
X224984476Y-123297142D01*
X225008285Y-123320952D01*
X225032095Y-123368571D01*
X225032095Y-123559047D01*
X224770190Y-122820952D02*
X224770190Y-123059047D01*
X225008285Y-123082857D01*
X224984476Y-123059047D01*
X224960666Y-123011428D01*
X224960666Y-122892380D01*
X224984476Y-122844761D01*
X225008285Y-122820952D01*
X225055904Y-122797142D01*
X225174952Y-122797142D01*
X225222571Y-122820952D01*
X225246380Y-122844761D01*
X225270190Y-122892380D01*
X225270190Y-123011428D01*
X225246380Y-123059047D01*
X225222571Y-123082857D01*
D11*
%TO.C,U1*%
X187936476Y-108011980D02*
X188507904Y-108011980D01*
X188222190Y-109011980D02*
X188222190Y-108011980D01*
X188841238Y-109011980D02*
X188841238Y-108011980D01*
X189174571Y-108726266D01*
X189507904Y-108011980D01*
X189507904Y-109011980D01*
X189984095Y-109011980D02*
X189984095Y-108011980D01*
X190365047Y-108011980D01*
X190460285Y-108059600D01*
X190507904Y-108107219D01*
X190555523Y-108202457D01*
X190555523Y-108345314D01*
X190507904Y-108440552D01*
X190460285Y-108488171D01*
X190365047Y-108535790D01*
X189984095Y-108535790D01*
X190888857Y-108011980D02*
X191507904Y-108011980D01*
X191174571Y-108392933D01*
X191317428Y-108392933D01*
X191412666Y-108440552D01*
X191460285Y-108488171D01*
X191507904Y-108583409D01*
X191507904Y-108821504D01*
X191460285Y-108916742D01*
X191412666Y-108964361D01*
X191317428Y-109011980D01*
X191031714Y-109011980D01*
X190936476Y-108964361D01*
X190888857Y-108916742D01*
X192365047Y-108011980D02*
X192174571Y-108011980D01*
X192079333Y-108059600D01*
X192031714Y-108107219D01*
X191936476Y-108250076D01*
X191888857Y-108440552D01*
X191888857Y-108821504D01*
X191936476Y-108916742D01*
X191984095Y-108964361D01*
X192079333Y-109011980D01*
X192269809Y-109011980D01*
X192365047Y-108964361D01*
X192412666Y-108916742D01*
X192460285Y-108821504D01*
X192460285Y-108583409D01*
X192412666Y-108488171D01*
X192365047Y-108440552D01*
X192269809Y-108392933D01*
X192079333Y-108392933D01*
X191984095Y-108440552D01*
X191936476Y-108488171D01*
X191888857Y-108583409D01*
X182844533Y-112417133D02*
X182844533Y-113210466D01*
X182891200Y-113303800D01*
X182937866Y-113350466D01*
X183031200Y-113397133D01*
X183217866Y-113397133D01*
X183311200Y-113350466D01*
X183357866Y-113303800D01*
X183404533Y-113210466D01*
X183404533Y-112417133D01*
X184384533Y-113397133D02*
X183824533Y-113397133D01*
X184104533Y-113397133D02*
X184104533Y-112417133D01*
X184011200Y-112557133D01*
X183917866Y-112650466D01*
X183824533Y-112697133D01*
%TO.C,C1*%
X179474952Y-118460780D02*
X178903523Y-118460780D01*
X179189238Y-118460780D02*
X179189238Y-117460780D01*
X179094000Y-117603638D01*
X178998761Y-117698876D01*
X178903523Y-117746495D01*
X180094000Y-117460780D02*
X180189238Y-117460780D01*
X180284476Y-117508400D01*
X180332095Y-117556019D01*
X180379714Y-117651257D01*
X180427333Y-117841733D01*
X180427333Y-118079828D01*
X180379714Y-118270304D01*
X180332095Y-118365542D01*
X180284476Y-118413161D01*
X180189238Y-118460780D01*
X180094000Y-118460780D01*
X179998761Y-118413161D01*
X179951142Y-118365542D01*
X179903523Y-118270304D01*
X179855904Y-118079828D01*
X179855904Y-117841733D01*
X179903523Y-117651257D01*
X179951142Y-117556019D01*
X179998761Y-117508400D01*
X180094000Y-117460780D01*
X181046380Y-117460780D02*
X181141619Y-117460780D01*
X181236857Y-117508400D01*
X181284476Y-117556019D01*
X181332095Y-117651257D01*
X181379714Y-117841733D01*
X181379714Y-118079828D01*
X181332095Y-118270304D01*
X181284476Y-118365542D01*
X181236857Y-118413161D01*
X181141619Y-118460780D01*
X181046380Y-118460780D01*
X180951142Y-118413161D01*
X180903523Y-118365542D01*
X180855904Y-118270304D01*
X180808285Y-118079828D01*
X180808285Y-117841733D01*
X180855904Y-117651257D01*
X180903523Y-117556019D01*
X180951142Y-117508400D01*
X181046380Y-117460780D01*
X181808285Y-117794114D02*
X181808285Y-118460780D01*
X181808285Y-117889352D02*
X181855904Y-117841733D01*
X181951142Y-117794114D01*
X182094000Y-117794114D01*
X182189238Y-117841733D01*
X182236857Y-117936971D01*
X182236857Y-118460780D01*
D16*
X183507866Y-116307371D02*
X183484057Y-116331180D01*
X183412628Y-116354990D01*
X183365009Y-116354990D01*
X183293580Y-116331180D01*
X183245961Y-116283561D01*
X183222152Y-116235942D01*
X183198342Y-116140704D01*
X183198342Y-116069276D01*
X183222152Y-115974038D01*
X183245961Y-115926419D01*
X183293580Y-115878800D01*
X183365009Y-115854990D01*
X183412628Y-115854990D01*
X183484057Y-115878800D01*
X183507866Y-115902609D01*
X183984057Y-116354990D02*
X183698342Y-116354990D01*
X183841200Y-116354990D02*
X183841200Y-115854990D01*
X183793580Y-115926419D01*
X183745961Y-115974038D01*
X183698342Y-115997847D01*
D11*
%TO.C,R6*%
X197810380Y-89098333D02*
X197810380Y-89669761D01*
X197810380Y-89384047D02*
X196810380Y-89384047D01*
X196953238Y-89479285D01*
X197048476Y-89574523D01*
X197096095Y-89669761D01*
X197715142Y-88669761D02*
X197762761Y-88622142D01*
X197810380Y-88669761D01*
X197762761Y-88717380D01*
X197715142Y-88669761D01*
X197810380Y-88669761D01*
X196810380Y-87717380D02*
X196810380Y-88193571D01*
X197286571Y-88241190D01*
X197238952Y-88193571D01*
X197191333Y-88098333D01*
X197191333Y-87860238D01*
X197238952Y-87765000D01*
X197286571Y-87717380D01*
X197381809Y-87669761D01*
X197619904Y-87669761D01*
X197715142Y-87717380D01*
X197762761Y-87765000D01*
X197810380Y-87860238D01*
X197810380Y-88098333D01*
X197762761Y-88193571D01*
X197715142Y-88241190D01*
X197810380Y-87241190D02*
X196810380Y-87241190D01*
X197429428Y-87145952D02*
X197810380Y-86860238D01*
X197143714Y-86860238D02*
X197524666Y-87241190D01*
D16*
X195983990Y-88602333D02*
X195745895Y-88769000D01*
X195983990Y-88888047D02*
X195483990Y-88888047D01*
X195483990Y-88697571D01*
X195507800Y-88649952D01*
X195531609Y-88626142D01*
X195579228Y-88602333D01*
X195650657Y-88602333D01*
X195698276Y-88626142D01*
X195722085Y-88649952D01*
X195745895Y-88697571D01*
X195745895Y-88888047D01*
X195483990Y-88173761D02*
X195483990Y-88269000D01*
X195507800Y-88316619D01*
X195531609Y-88340428D01*
X195603038Y-88388047D01*
X195698276Y-88411857D01*
X195888752Y-88411857D01*
X195936371Y-88388047D01*
X195960180Y-88364238D01*
X195983990Y-88316619D01*
X195983990Y-88221380D01*
X195960180Y-88173761D01*
X195936371Y-88149952D01*
X195888752Y-88126142D01*
X195769704Y-88126142D01*
X195722085Y-88149952D01*
X195698276Y-88173761D01*
X195674466Y-88221380D01*
X195674466Y-88316619D01*
X195698276Y-88364238D01*
X195722085Y-88388047D01*
X195769704Y-88411857D01*
D11*
%TO.C,D1*%
X187317142Y-93365580D02*
X186983809Y-92889390D01*
X186745714Y-93365580D02*
X186745714Y-92365580D01*
X187126666Y-92365580D01*
X187221904Y-92413200D01*
X187269523Y-92460819D01*
X187317142Y-92556057D01*
X187317142Y-92698914D01*
X187269523Y-92794152D01*
X187221904Y-92841771D01*
X187126666Y-92889390D01*
X186745714Y-92889390D01*
X187745714Y-92841771D02*
X188079047Y-92841771D01*
X188221904Y-93365580D02*
X187745714Y-93365580D01*
X187745714Y-92365580D01*
X188221904Y-92365580D01*
X188650476Y-93365580D02*
X188650476Y-92365580D01*
X188888571Y-92365580D01*
X189031428Y-92413200D01*
X189126666Y-92508438D01*
X189174285Y-92603676D01*
X189221904Y-92794152D01*
X189221904Y-92937009D01*
X189174285Y-93127485D01*
X189126666Y-93222723D01*
X189031428Y-93317961D01*
X188888571Y-93365580D01*
X188650476Y-93365580D01*
D16*
X187590952Y-91158190D02*
X187590952Y-90658190D01*
X187710000Y-90658190D01*
X187781428Y-90682000D01*
X187829047Y-90729619D01*
X187852857Y-90777238D01*
X187876666Y-90872476D01*
X187876666Y-90943904D01*
X187852857Y-91039142D01*
X187829047Y-91086761D01*
X187781428Y-91134380D01*
X187710000Y-91158190D01*
X187590952Y-91158190D01*
X188352857Y-91158190D02*
X188067142Y-91158190D01*
X188210000Y-91158190D02*
X188210000Y-90658190D01*
X188162380Y-90729619D01*
X188114761Y-90777238D01*
X188067142Y-90801047D01*
D11*
%TO.C,R2*%
X215514180Y-86558333D02*
X215514180Y-87129761D01*
X215514180Y-86844047D02*
X214514180Y-86844047D01*
X214657038Y-86939285D01*
X214752276Y-87034523D01*
X214799895Y-87129761D01*
X215418942Y-86129761D02*
X215466561Y-86082142D01*
X215514180Y-86129761D01*
X215466561Y-86177380D01*
X215418942Y-86129761D01*
X215514180Y-86129761D01*
X214514180Y-85177380D02*
X214514180Y-85653571D01*
X214990371Y-85701190D01*
X214942752Y-85653571D01*
X214895133Y-85558333D01*
X214895133Y-85320238D01*
X214942752Y-85225000D01*
X214990371Y-85177380D01*
X215085609Y-85129761D01*
X215323704Y-85129761D01*
X215418942Y-85177380D01*
X215466561Y-85225000D01*
X215514180Y-85320238D01*
X215514180Y-85558333D01*
X215466561Y-85653571D01*
X215418942Y-85701190D01*
X215514180Y-84701190D02*
X214514180Y-84701190D01*
X215133228Y-84605952D02*
X215514180Y-84320238D01*
X214847514Y-84320238D02*
X215228466Y-84701190D01*
D16*
X215262590Y-89237333D02*
X215024495Y-89404000D01*
X215262590Y-89523047D02*
X214762590Y-89523047D01*
X214762590Y-89332571D01*
X214786400Y-89284952D01*
X214810209Y-89261142D01*
X214857828Y-89237333D01*
X214929257Y-89237333D01*
X214976876Y-89261142D01*
X215000685Y-89284952D01*
X215024495Y-89332571D01*
X215024495Y-89523047D01*
X214810209Y-89046857D02*
X214786400Y-89023047D01*
X214762590Y-88975428D01*
X214762590Y-88856380D01*
X214786400Y-88808761D01*
X214810209Y-88784952D01*
X214857828Y-88761142D01*
X214905447Y-88761142D01*
X214976876Y-88784952D01*
X215262590Y-89070666D01*
X215262590Y-88761142D01*
D11*
%TO.C,D3*%
X208773876Y-92841771D02*
X208916733Y-92889390D01*
X208964352Y-92937009D01*
X209011971Y-93032247D01*
X209011971Y-93175104D01*
X208964352Y-93270342D01*
X208916733Y-93317961D01*
X208821495Y-93365580D01*
X208440542Y-93365580D01*
X208440542Y-92365580D01*
X208773876Y-92365580D01*
X208869114Y-92413200D01*
X208916733Y-92460819D01*
X208964352Y-92556057D01*
X208964352Y-92651295D01*
X208916733Y-92746533D01*
X208869114Y-92794152D01*
X208773876Y-92841771D01*
X208440542Y-92841771D01*
X209916733Y-93365580D02*
X209440542Y-93365580D01*
X209440542Y-92365580D01*
X210250066Y-92365580D02*
X210250066Y-93175104D01*
X210297685Y-93270342D01*
X210345304Y-93317961D01*
X210440542Y-93365580D01*
X210631019Y-93365580D01*
X210726257Y-93317961D01*
X210773876Y-93270342D01*
X210821495Y-93175104D01*
X210821495Y-92365580D01*
X211297685Y-92841771D02*
X211631019Y-92841771D01*
X211773876Y-93365580D02*
X211297685Y-93365580D01*
X211297685Y-92365580D01*
X211773876Y-92365580D01*
D16*
X209688952Y-91158190D02*
X209688952Y-90658190D01*
X209808000Y-90658190D01*
X209879428Y-90682000D01*
X209927047Y-90729619D01*
X209950857Y-90777238D01*
X209974666Y-90872476D01*
X209974666Y-90943904D01*
X209950857Y-91039142D01*
X209927047Y-91086761D01*
X209879428Y-91134380D01*
X209808000Y-91158190D01*
X209688952Y-91158190D01*
X210141333Y-90658190D02*
X210450857Y-90658190D01*
X210284190Y-90848666D01*
X210355619Y-90848666D01*
X210403238Y-90872476D01*
X210427047Y-90896285D01*
X210450857Y-90943904D01*
X210450857Y-91062952D01*
X210427047Y-91110571D01*
X210403238Y-91134380D01*
X210355619Y-91158190D01*
X210212761Y-91158190D01*
X210165142Y-91134380D01*
X210141333Y-91110571D01*
D11*
%TO.C,R11*%
X190312800Y-79700380D02*
X189741371Y-79700380D01*
X190027085Y-79700380D02*
X190027085Y-78700380D01*
X189931847Y-78843238D01*
X189836609Y-78938476D01*
X189741371Y-78986095D01*
X190741371Y-79605142D02*
X190788990Y-79652761D01*
X190741371Y-79700380D01*
X190693752Y-79652761D01*
X190741371Y-79605142D01*
X190741371Y-79700380D01*
X191122323Y-78700380D02*
X191741371Y-78700380D01*
X191408038Y-79081333D01*
X191550895Y-79081333D01*
X191646133Y-79128952D01*
X191693752Y-79176571D01*
X191741371Y-79271809D01*
X191741371Y-79509904D01*
X191693752Y-79605142D01*
X191646133Y-79652761D01*
X191550895Y-79700380D01*
X191265180Y-79700380D01*
X191169942Y-79652761D01*
X191122323Y-79605142D01*
X192169942Y-79700380D02*
X192169942Y-78700380D01*
X192503276Y-79414666D01*
X192836609Y-78700380D01*
X192836609Y-79700380D01*
D16*
X190889771Y-77442190D02*
X190723104Y-77204095D01*
X190604057Y-77442190D02*
X190604057Y-76942190D01*
X190794533Y-76942190D01*
X190842152Y-76966000D01*
X190865961Y-76989809D01*
X190889771Y-77037428D01*
X190889771Y-77108857D01*
X190865961Y-77156476D01*
X190842152Y-77180285D01*
X190794533Y-77204095D01*
X190604057Y-77204095D01*
X191365961Y-77442190D02*
X191080247Y-77442190D01*
X191223104Y-77442190D02*
X191223104Y-76942190D01*
X191175485Y-77013619D01*
X191127866Y-77061238D01*
X191080247Y-77085047D01*
X191842152Y-77442190D02*
X191556438Y-77442190D01*
X191699295Y-77442190D02*
X191699295Y-76942190D01*
X191651676Y-77013619D01*
X191604057Y-77061238D01*
X191556438Y-77085047D01*
D17*
%TO.C,D5*%
X182134523Y-78257380D02*
X180864523Y-78257380D01*
X180864523Y-77955000D01*
X180925000Y-77773571D01*
X181045952Y-77652619D01*
X181166904Y-77592142D01*
X181408809Y-77531666D01*
X181590238Y-77531666D01*
X181832142Y-77592142D01*
X181953095Y-77652619D01*
X182074047Y-77773571D01*
X182134523Y-77955000D01*
X182134523Y-78257380D01*
X180864523Y-76382619D02*
X180864523Y-76987380D01*
X181469285Y-77047857D01*
X181408809Y-76987380D01*
X181348333Y-76866428D01*
X181348333Y-76564047D01*
X181408809Y-76443095D01*
X181469285Y-76382619D01*
X181590238Y-76322142D01*
X181892619Y-76322142D01*
X182013571Y-76382619D01*
X182074047Y-76443095D01*
X182134523Y-76564047D01*
X182134523Y-76866428D01*
X182074047Y-76987380D01*
X182013571Y-77047857D01*
D11*
%TO.C,J5*%
X218632352Y-79373961D02*
X218775209Y-79421580D01*
X219013304Y-79421580D01*
X219108542Y-79373961D01*
X219156161Y-79326342D01*
X219203780Y-79231104D01*
X219203780Y-79135866D01*
X219156161Y-79040628D01*
X219108542Y-78993009D01*
X219013304Y-78945390D01*
X218822828Y-78897771D01*
X218727590Y-78850152D01*
X218679971Y-78802533D01*
X218632352Y-78707295D01*
X218632352Y-78612057D01*
X218679971Y-78516819D01*
X218727590Y-78469200D01*
X218822828Y-78421580D01*
X219060923Y-78421580D01*
X219203780Y-78469200D01*
X219537114Y-78421580D02*
X219775209Y-79421580D01*
X219965685Y-78707295D01*
X220156161Y-79421580D01*
X220394257Y-78421580D01*
X220775209Y-79421580D02*
X220775209Y-78421580D01*
X221013304Y-78421580D01*
X221156161Y-78469200D01*
X221251400Y-78564438D01*
X221299019Y-78659676D01*
X221346638Y-78850152D01*
X221346638Y-78993009D01*
X221299019Y-79183485D01*
X221251400Y-79278723D01*
X221156161Y-79373961D01*
X221013304Y-79421580D01*
X220775209Y-79421580D01*
X221775209Y-79421580D02*
X221775209Y-78421580D01*
X222441876Y-78421580D02*
X222632352Y-78421580D01*
X222727590Y-78469200D01*
X222822828Y-78564438D01*
X222870447Y-78754914D01*
X222870447Y-79088247D01*
X222822828Y-79278723D01*
X222727590Y-79373961D01*
X222632352Y-79421580D01*
X222441876Y-79421580D01*
X222346638Y-79373961D01*
X222251400Y-79278723D01*
X222203780Y-79088247D01*
X222203780Y-78754914D01*
X222251400Y-78564438D01*
X222346638Y-78469200D01*
X222441876Y-78421580D01*
X220418066Y-75421580D02*
X220418066Y-76135866D01*
X220370447Y-76278723D01*
X220275209Y-76373961D01*
X220132352Y-76421580D01*
X220037114Y-76421580D01*
X221370447Y-75421580D02*
X220894257Y-75421580D01*
X220846638Y-75897771D01*
X220894257Y-75850152D01*
X220989495Y-75802533D01*
X221227590Y-75802533D01*
X221322828Y-75850152D01*
X221370447Y-75897771D01*
X221418066Y-75993009D01*
X221418066Y-76231104D01*
X221370447Y-76326342D01*
X221322828Y-76373961D01*
X221227590Y-76421580D01*
X220989495Y-76421580D01*
X220894257Y-76373961D01*
X220846638Y-76326342D01*
%TO.C,R10*%
X184983619Y-78746952D02*
X184888380Y-78699333D01*
X184840761Y-78651714D01*
X184793142Y-78556476D01*
X184793142Y-78508857D01*
X184840761Y-78413619D01*
X184888380Y-78366000D01*
X184983619Y-78318380D01*
X185174095Y-78318380D01*
X185269333Y-78366000D01*
X185316952Y-78413619D01*
X185364571Y-78508857D01*
X185364571Y-78556476D01*
X185316952Y-78651714D01*
X185269333Y-78699333D01*
X185174095Y-78746952D01*
X184983619Y-78746952D01*
X184888380Y-78794571D01*
X184840761Y-78842190D01*
X184793142Y-78937428D01*
X184793142Y-79127904D01*
X184840761Y-79223142D01*
X184888380Y-79270761D01*
X184983619Y-79318380D01*
X185174095Y-79318380D01*
X185269333Y-79270761D01*
X185316952Y-79223142D01*
X185364571Y-79127904D01*
X185364571Y-78937428D01*
X185316952Y-78842190D01*
X185269333Y-78794571D01*
X185174095Y-78746952D01*
X185983619Y-78318380D02*
X186078857Y-78318380D01*
X186174095Y-78366000D01*
X186221714Y-78413619D01*
X186269333Y-78508857D01*
X186316952Y-78699333D01*
X186316952Y-78937428D01*
X186269333Y-79127904D01*
X186221714Y-79223142D01*
X186174095Y-79270761D01*
X186078857Y-79318380D01*
X185983619Y-79318380D01*
X185888380Y-79270761D01*
X185840761Y-79223142D01*
X185793142Y-79127904D01*
X185745523Y-78937428D01*
X185745523Y-78699333D01*
X185793142Y-78508857D01*
X185840761Y-78413619D01*
X185888380Y-78366000D01*
X185983619Y-78318380D01*
X186936000Y-78318380D02*
X187031238Y-78318380D01*
X187126476Y-78366000D01*
X187174095Y-78413619D01*
X187221714Y-78508857D01*
X187269333Y-78699333D01*
X187269333Y-78937428D01*
X187221714Y-79127904D01*
X187174095Y-79223142D01*
X187126476Y-79270761D01*
X187031238Y-79318380D01*
X186936000Y-79318380D01*
X186840761Y-79270761D01*
X186793142Y-79223142D01*
X186745523Y-79127904D01*
X186697904Y-78937428D01*
X186697904Y-78699333D01*
X186745523Y-78508857D01*
X186793142Y-78413619D01*
X186840761Y-78366000D01*
X186936000Y-78318380D01*
X187697904Y-79318380D02*
X187697904Y-78318380D01*
X187793142Y-78937428D02*
X188078857Y-79318380D01*
X188078857Y-78651714D02*
X187697904Y-79032666D01*
D16*
X186114571Y-77442190D02*
X185947904Y-77204095D01*
X185828857Y-77442190D02*
X185828857Y-76942190D01*
X186019333Y-76942190D01*
X186066952Y-76966000D01*
X186090761Y-76989809D01*
X186114571Y-77037428D01*
X186114571Y-77108857D01*
X186090761Y-77156476D01*
X186066952Y-77180285D01*
X186019333Y-77204095D01*
X185828857Y-77204095D01*
X186590761Y-77442190D02*
X186305047Y-77442190D01*
X186447904Y-77442190D02*
X186447904Y-76942190D01*
X186400285Y-77013619D01*
X186352666Y-77061238D01*
X186305047Y-77085047D01*
X186900285Y-76942190D02*
X186947904Y-76942190D01*
X186995523Y-76966000D01*
X187019333Y-76989809D01*
X187043142Y-77037428D01*
X187066952Y-77132666D01*
X187066952Y-77251714D01*
X187043142Y-77346952D01*
X187019333Y-77394571D01*
X186995523Y-77418380D01*
X186947904Y-77442190D01*
X186900285Y-77442190D01*
X186852666Y-77418380D01*
X186828857Y-77394571D01*
X186805047Y-77346952D01*
X186781238Y-77251714D01*
X186781238Y-77132666D01*
X186805047Y-77037428D01*
X186828857Y-76989809D01*
X186852666Y-76966000D01*
X186900285Y-76942190D01*
D11*
%TO.C,C5*%
X198369371Y-77864780D02*
X197797942Y-77864780D01*
X198083657Y-77864780D02*
X198083657Y-76864780D01*
X197988419Y-77007638D01*
X197893180Y-77102876D01*
X197797942Y-77150495D01*
X198988419Y-76864780D02*
X199083657Y-76864780D01*
X199178895Y-76912400D01*
X199226514Y-76960019D01*
X199274133Y-77055257D01*
X199321752Y-77245733D01*
X199321752Y-77483828D01*
X199274133Y-77674304D01*
X199226514Y-77769542D01*
X199178895Y-77817161D01*
X199083657Y-77864780D01*
X198988419Y-77864780D01*
X198893180Y-77817161D01*
X198845561Y-77769542D01*
X198797942Y-77674304D01*
X198750323Y-77483828D01*
X198750323Y-77245733D01*
X198797942Y-77055257D01*
X198845561Y-76960019D01*
X198893180Y-76912400D01*
X198988419Y-76864780D01*
X199750323Y-77198114D02*
X199750323Y-77864780D01*
X199750323Y-77293352D02*
X199797942Y-77245733D01*
X199893180Y-77198114D01*
X200036038Y-77198114D01*
X200131276Y-77245733D01*
X200178895Y-77340971D01*
X200178895Y-77864780D01*
X200988419Y-77340971D02*
X200655085Y-77340971D01*
X200655085Y-77864780D02*
X200655085Y-76864780D01*
X201131276Y-76864780D01*
D16*
X195496666Y-77438571D02*
X195472857Y-77462380D01*
X195401428Y-77486190D01*
X195353809Y-77486190D01*
X195282380Y-77462380D01*
X195234761Y-77414761D01*
X195210952Y-77367142D01*
X195187142Y-77271904D01*
X195187142Y-77200476D01*
X195210952Y-77105238D01*
X195234761Y-77057619D01*
X195282380Y-77010000D01*
X195353809Y-76986190D01*
X195401428Y-76986190D01*
X195472857Y-77010000D01*
X195496666Y-77033809D01*
X195949047Y-76986190D02*
X195710952Y-76986190D01*
X195687142Y-77224285D01*
X195710952Y-77200476D01*
X195758571Y-77176666D01*
X195877619Y-77176666D01*
X195925238Y-77200476D01*
X195949047Y-77224285D01*
X195972857Y-77271904D01*
X195972857Y-77390952D01*
X195949047Y-77438571D01*
X195925238Y-77462380D01*
X195877619Y-77486190D01*
X195758571Y-77486190D01*
X195710952Y-77462380D01*
X195687142Y-77438571D01*
D11*
%TO.C,REF\u002A\u002A*%
X174646380Y-148771333D02*
X173646380Y-148771333D01*
X174360666Y-148438000D01*
X173646380Y-148104666D01*
X174646380Y-148104666D01*
X174646380Y-147485619D02*
X174598761Y-147580857D01*
X174551142Y-147628476D01*
X174455904Y-147676095D01*
X174170190Y-147676095D01*
X174074952Y-147628476D01*
X174027333Y-147580857D01*
X173979714Y-147485619D01*
X173979714Y-147342761D01*
X174027333Y-147247523D01*
X174074952Y-147199904D01*
X174170190Y-147152285D01*
X174455904Y-147152285D01*
X174551142Y-147199904D01*
X174598761Y-147247523D01*
X174646380Y-147342761D01*
X174646380Y-147485619D01*
X173979714Y-146295142D02*
X174646380Y-146295142D01*
X173979714Y-146723714D02*
X174503523Y-146723714D01*
X174598761Y-146676095D01*
X174646380Y-146580857D01*
X174646380Y-146438000D01*
X174598761Y-146342761D01*
X174551142Y-146295142D01*
X173979714Y-145818952D02*
X174646380Y-145818952D01*
X174074952Y-145818952D02*
X174027333Y-145771333D01*
X173979714Y-145676095D01*
X173979714Y-145533238D01*
X174027333Y-145438000D01*
X174122571Y-145390380D01*
X174646380Y-145390380D01*
X173979714Y-145057047D02*
X173979714Y-144676095D01*
X173646380Y-144914190D02*
X174503523Y-144914190D01*
X174598761Y-144866571D01*
X174646380Y-144771333D01*
X174646380Y-144676095D01*
X174646380Y-144342761D02*
X173979714Y-144342761D01*
X173646380Y-144342761D02*
X173694000Y-144390380D01*
X173741619Y-144342761D01*
X173694000Y-144295142D01*
X173646380Y-144342761D01*
X173741619Y-144342761D01*
X173979714Y-143866571D02*
X174646380Y-143866571D01*
X174074952Y-143866571D02*
X174027333Y-143818952D01*
X173979714Y-143723714D01*
X173979714Y-143580857D01*
X174027333Y-143485619D01*
X174122571Y-143438000D01*
X174646380Y-143438000D01*
X173979714Y-142533238D02*
X174789238Y-142533238D01*
X174884476Y-142580857D01*
X174932095Y-142628476D01*
X174979714Y-142723714D01*
X174979714Y-142866571D01*
X174932095Y-142961809D01*
X174598761Y-142533238D02*
X174646380Y-142628476D01*
X174646380Y-142818952D01*
X174598761Y-142914190D01*
X174551142Y-142961809D01*
X174455904Y-143009428D01*
X174170190Y-143009428D01*
X174074952Y-142961809D01*
X174027333Y-142914190D01*
X173979714Y-142818952D01*
X173979714Y-142628476D01*
X174027333Y-142533238D01*
X174646380Y-142057047D02*
X173646380Y-142057047D01*
X174122571Y-142057047D02*
X174122571Y-141485619D01*
X174646380Y-141485619D02*
X173646380Y-141485619D01*
X174646380Y-140866571D02*
X174598761Y-140961809D01*
X174551142Y-141009428D01*
X174455904Y-141057047D01*
X174170190Y-141057047D01*
X174074952Y-141009428D01*
X174027333Y-140961809D01*
X173979714Y-140866571D01*
X173979714Y-140723714D01*
X174027333Y-140628476D01*
X174074952Y-140580857D01*
X174170190Y-140533238D01*
X174455904Y-140533238D01*
X174551142Y-140580857D01*
X174598761Y-140628476D01*
X174646380Y-140723714D01*
X174646380Y-140866571D01*
X174646380Y-139961809D02*
X174598761Y-140057047D01*
X174503523Y-140104666D01*
X173646380Y-140104666D01*
X174598761Y-139199904D02*
X174646380Y-139295142D01*
X174646380Y-139485619D01*
X174598761Y-139580857D01*
X174503523Y-139628476D01*
X174122571Y-139628476D01*
X174027333Y-139580857D01*
X173979714Y-139485619D01*
X173979714Y-139295142D01*
X174027333Y-139199904D01*
X174122571Y-139152285D01*
X174217809Y-139152285D01*
X174313047Y-139628476D01*
X174741619Y-138961809D02*
X174741619Y-138199904D01*
X173741619Y-138009428D02*
X173694000Y-137961809D01*
X173646380Y-137866571D01*
X173646380Y-137628476D01*
X173694000Y-137533238D01*
X173741619Y-137485619D01*
X173836857Y-137438000D01*
X173932095Y-137438000D01*
X174074952Y-137485619D01*
X174646380Y-138057047D01*
X174646380Y-137438000D01*
X174551142Y-137009428D02*
X174598761Y-136961809D01*
X174646380Y-137009428D01*
X174598761Y-137057047D01*
X174551142Y-137009428D01*
X174646380Y-137009428D01*
X173646380Y-136628476D02*
X173646380Y-135961809D01*
X174646380Y-136390380D01*
X174646380Y-135580857D02*
X173979714Y-135580857D01*
X174074952Y-135580857D02*
X174027333Y-135533238D01*
X173979714Y-135438000D01*
X173979714Y-135295142D01*
X174027333Y-135199904D01*
X174122571Y-135152285D01*
X174646380Y-135152285D01*
X174122571Y-135152285D02*
X174027333Y-135104666D01*
X173979714Y-135009428D01*
X173979714Y-134866571D01*
X174027333Y-134771333D01*
X174122571Y-134723714D01*
X174646380Y-134723714D01*
X174646380Y-134247523D02*
X173979714Y-134247523D01*
X174074952Y-134247523D02*
X174027333Y-134199904D01*
X173979714Y-134104666D01*
X173979714Y-133961809D01*
X174027333Y-133866571D01*
X174122571Y-133818952D01*
X174646380Y-133818952D01*
X174122571Y-133818952D02*
X174027333Y-133771333D01*
X173979714Y-133676095D01*
X173979714Y-133533238D01*
X174027333Y-133438000D01*
X174122571Y-133390380D01*
X174646380Y-133390380D01*
X174741619Y-133152285D02*
X174741619Y-132390380D01*
X174646380Y-132152285D02*
X173646380Y-132152285D01*
X174360666Y-131818952D01*
X173646380Y-131485619D01*
X174646380Y-131485619D01*
X173741619Y-131057047D02*
X173694000Y-131009428D01*
X173646380Y-130914190D01*
X173646380Y-130676095D01*
X173694000Y-130580857D01*
X173741619Y-130533238D01*
X173836857Y-130485619D01*
X173932095Y-130485619D01*
X174074952Y-130533238D01*
X174646380Y-131104666D01*
X174646380Y-130485619D01*
X174551142Y-130057047D02*
X174598761Y-130009428D01*
X174646380Y-130057047D01*
X174598761Y-130104666D01*
X174551142Y-130057047D01*
X174646380Y-130057047D01*
X173646380Y-129104666D02*
X173646380Y-129580857D01*
X174122571Y-129628476D01*
X174074952Y-129580857D01*
X174027333Y-129485619D01*
X174027333Y-129247523D01*
X174074952Y-129152285D01*
X174122571Y-129104666D01*
X174217809Y-129057047D01*
X174455904Y-129057047D01*
X174551142Y-129104666D01*
X174598761Y-129152285D01*
X174646380Y-129247523D01*
X174646380Y-129485619D01*
X174598761Y-129580857D01*
X174551142Y-129628476D01*
X181796666Y-139644380D02*
X181463333Y-139168190D01*
X181225238Y-139644380D02*
X181225238Y-138644380D01*
X181606190Y-138644380D01*
X181701428Y-138692000D01*
X181749047Y-138739619D01*
X181796666Y-138834857D01*
X181796666Y-138977714D01*
X181749047Y-139072952D01*
X181701428Y-139120571D01*
X181606190Y-139168190D01*
X181225238Y-139168190D01*
X182225238Y-139120571D02*
X182558571Y-139120571D01*
X182701428Y-139644380D02*
X182225238Y-139644380D01*
X182225238Y-138644380D01*
X182701428Y-138644380D01*
X183463333Y-139120571D02*
X183130000Y-139120571D01*
X183130000Y-139644380D02*
X183130000Y-138644380D01*
X183606190Y-138644380D01*
X184130000Y-138644380D02*
X184130000Y-138882476D01*
X183891904Y-138787238D02*
X184130000Y-138882476D01*
X184368095Y-138787238D01*
X183987142Y-139072952D02*
X184130000Y-138882476D01*
X184272857Y-139072952D01*
X184891904Y-138644380D02*
X184891904Y-138882476D01*
X184653809Y-138787238D02*
X184891904Y-138882476D01*
X185130000Y-138787238D01*
X184749047Y-139072952D02*
X184891904Y-138882476D01*
X185034761Y-139072952D01*
%TO.C,J3*%
X225492857Y-103434761D02*
X225635714Y-103482380D01*
X225873809Y-103482380D01*
X225969047Y-103434761D01*
X226016666Y-103387142D01*
X226064285Y-103291904D01*
X226064285Y-103196666D01*
X226016666Y-103101428D01*
X225969047Y-103053809D01*
X225873809Y-103006190D01*
X225683333Y-102958571D01*
X225588095Y-102910952D01*
X225540476Y-102863333D01*
X225492857Y-102768095D01*
X225492857Y-102672857D01*
X225540476Y-102577619D01*
X225588095Y-102530000D01*
X225683333Y-102482380D01*
X225921428Y-102482380D01*
X226064285Y-102530000D01*
X226397619Y-102482380D02*
X226635714Y-103482380D01*
X226826190Y-102768095D01*
X227016666Y-103482380D01*
X227254761Y-102482380D01*
X227635714Y-103482380D02*
X227635714Y-102482380D01*
X227873809Y-102482380D01*
X228016666Y-102530000D01*
X228111904Y-102625238D01*
X228159523Y-102720476D01*
X228207142Y-102910952D01*
X228207142Y-103053809D01*
X228159523Y-103244285D01*
X228111904Y-103339523D01*
X228016666Y-103434761D01*
X227873809Y-103482380D01*
X227635714Y-103482380D01*
X226302380Y-97223333D02*
X227016666Y-97223333D01*
X227159523Y-97270952D01*
X227254761Y-97366190D01*
X227302380Y-97509047D01*
X227302380Y-97604285D01*
X226302380Y-96842380D02*
X226302380Y-96223333D01*
X226683333Y-96556666D01*
X226683333Y-96413809D01*
X226730952Y-96318571D01*
X226778571Y-96270952D01*
X226873809Y-96223333D01*
X227111904Y-96223333D01*
X227207142Y-96270952D01*
X227254761Y-96318571D01*
X227302380Y-96413809D01*
X227302380Y-96699523D01*
X227254761Y-96794761D01*
X227207142Y-96842380D01*
%TO.C,REF\u002A\u002A*%
X232986380Y-150041333D02*
X231986380Y-150041333D01*
X232700666Y-149708000D01*
X231986380Y-149374666D01*
X232986380Y-149374666D01*
X232986380Y-148755619D02*
X232938761Y-148850857D01*
X232891142Y-148898476D01*
X232795904Y-148946095D01*
X232510190Y-148946095D01*
X232414952Y-148898476D01*
X232367333Y-148850857D01*
X232319714Y-148755619D01*
X232319714Y-148612761D01*
X232367333Y-148517523D01*
X232414952Y-148469904D01*
X232510190Y-148422285D01*
X232795904Y-148422285D01*
X232891142Y-148469904D01*
X232938761Y-148517523D01*
X232986380Y-148612761D01*
X232986380Y-148755619D01*
X232319714Y-147565142D02*
X232986380Y-147565142D01*
X232319714Y-147993714D02*
X232843523Y-147993714D01*
X232938761Y-147946095D01*
X232986380Y-147850857D01*
X232986380Y-147708000D01*
X232938761Y-147612761D01*
X232891142Y-147565142D01*
X232319714Y-147088952D02*
X232986380Y-147088952D01*
X232414952Y-147088952D02*
X232367333Y-147041333D01*
X232319714Y-146946095D01*
X232319714Y-146803238D01*
X232367333Y-146708000D01*
X232462571Y-146660380D01*
X232986380Y-146660380D01*
X232319714Y-146327047D02*
X232319714Y-145946095D01*
X231986380Y-146184190D02*
X232843523Y-146184190D01*
X232938761Y-146136571D01*
X232986380Y-146041333D01*
X232986380Y-145946095D01*
X232986380Y-145612761D02*
X232319714Y-145612761D01*
X231986380Y-145612761D02*
X232034000Y-145660380D01*
X232081619Y-145612761D01*
X232034000Y-145565142D01*
X231986380Y-145612761D01*
X232081619Y-145612761D01*
X232319714Y-145136571D02*
X232986380Y-145136571D01*
X232414952Y-145136571D02*
X232367333Y-145088952D01*
X232319714Y-144993714D01*
X232319714Y-144850857D01*
X232367333Y-144755619D01*
X232462571Y-144708000D01*
X232986380Y-144708000D01*
X232319714Y-143803238D02*
X233129238Y-143803238D01*
X233224476Y-143850857D01*
X233272095Y-143898476D01*
X233319714Y-143993714D01*
X233319714Y-144136571D01*
X233272095Y-144231809D01*
X232938761Y-143803238D02*
X232986380Y-143898476D01*
X232986380Y-144088952D01*
X232938761Y-144184190D01*
X232891142Y-144231809D01*
X232795904Y-144279428D01*
X232510190Y-144279428D01*
X232414952Y-144231809D01*
X232367333Y-144184190D01*
X232319714Y-144088952D01*
X232319714Y-143898476D01*
X232367333Y-143803238D01*
X232986380Y-143327047D02*
X231986380Y-143327047D01*
X232462571Y-143327047D02*
X232462571Y-142755619D01*
X232986380Y-142755619D02*
X231986380Y-142755619D01*
X232986380Y-142136571D02*
X232938761Y-142231809D01*
X232891142Y-142279428D01*
X232795904Y-142327047D01*
X232510190Y-142327047D01*
X232414952Y-142279428D01*
X232367333Y-142231809D01*
X232319714Y-142136571D01*
X232319714Y-141993714D01*
X232367333Y-141898476D01*
X232414952Y-141850857D01*
X232510190Y-141803238D01*
X232795904Y-141803238D01*
X232891142Y-141850857D01*
X232938761Y-141898476D01*
X232986380Y-141993714D01*
X232986380Y-142136571D01*
X232986380Y-141231809D02*
X232938761Y-141327047D01*
X232843523Y-141374666D01*
X231986380Y-141374666D01*
X232938761Y-140469904D02*
X232986380Y-140565142D01*
X232986380Y-140755619D01*
X232938761Y-140850857D01*
X232843523Y-140898476D01*
X232462571Y-140898476D01*
X232367333Y-140850857D01*
X232319714Y-140755619D01*
X232319714Y-140565142D01*
X232367333Y-140469904D01*
X232462571Y-140422285D01*
X232557809Y-140422285D01*
X232653047Y-140898476D01*
X233081619Y-140231809D02*
X233081619Y-139469904D01*
X232081619Y-139279428D02*
X232034000Y-139231809D01*
X231986380Y-139136571D01*
X231986380Y-138898476D01*
X232034000Y-138803238D01*
X232081619Y-138755619D01*
X232176857Y-138708000D01*
X232272095Y-138708000D01*
X232414952Y-138755619D01*
X232986380Y-139327047D01*
X232986380Y-138708000D01*
X232891142Y-138279428D02*
X232938761Y-138231809D01*
X232986380Y-138279428D01*
X232938761Y-138327047D01*
X232891142Y-138279428D01*
X232986380Y-138279428D01*
X231986380Y-137898476D02*
X231986380Y-137231809D01*
X232986380Y-137660380D01*
X232986380Y-136850857D02*
X232319714Y-136850857D01*
X232414952Y-136850857D02*
X232367333Y-136803238D01*
X232319714Y-136708000D01*
X232319714Y-136565142D01*
X232367333Y-136469904D01*
X232462571Y-136422285D01*
X232986380Y-136422285D01*
X232462571Y-136422285D02*
X232367333Y-136374666D01*
X232319714Y-136279428D01*
X232319714Y-136136571D01*
X232367333Y-136041333D01*
X232462571Y-135993714D01*
X232986380Y-135993714D01*
X232986380Y-135517523D02*
X232319714Y-135517523D01*
X232414952Y-135517523D02*
X232367333Y-135469904D01*
X232319714Y-135374666D01*
X232319714Y-135231809D01*
X232367333Y-135136571D01*
X232462571Y-135088952D01*
X232986380Y-135088952D01*
X232462571Y-135088952D02*
X232367333Y-135041333D01*
X232319714Y-134946095D01*
X232319714Y-134803238D01*
X232367333Y-134708000D01*
X232462571Y-134660380D01*
X232986380Y-134660380D01*
X233081619Y-134422285D02*
X233081619Y-133660380D01*
X232986380Y-133422285D02*
X231986380Y-133422285D01*
X232700666Y-133088952D01*
X231986380Y-132755619D01*
X232986380Y-132755619D01*
X232081619Y-132327047D02*
X232034000Y-132279428D01*
X231986380Y-132184190D01*
X231986380Y-131946095D01*
X232034000Y-131850857D01*
X232081619Y-131803238D01*
X232176857Y-131755619D01*
X232272095Y-131755619D01*
X232414952Y-131803238D01*
X232986380Y-132374666D01*
X232986380Y-131755619D01*
X232891142Y-131327047D02*
X232938761Y-131279428D01*
X232986380Y-131327047D01*
X232938761Y-131374666D01*
X232891142Y-131327047D01*
X232986380Y-131327047D01*
X231986380Y-130374666D02*
X231986380Y-130850857D01*
X232462571Y-130898476D01*
X232414952Y-130850857D01*
X232367333Y-130755619D01*
X232367333Y-130517523D01*
X232414952Y-130422285D01*
X232462571Y-130374666D01*
X232557809Y-130327047D01*
X232795904Y-130327047D01*
X232891142Y-130374666D01*
X232938761Y-130422285D01*
X232986380Y-130517523D01*
X232986380Y-130755619D01*
X232938761Y-130850857D01*
X232891142Y-130898476D01*
X224896666Y-139644380D02*
X224563333Y-139168190D01*
X224325238Y-139644380D02*
X224325238Y-138644380D01*
X224706190Y-138644380D01*
X224801428Y-138692000D01*
X224849047Y-138739619D01*
X224896666Y-138834857D01*
X224896666Y-138977714D01*
X224849047Y-139072952D01*
X224801428Y-139120571D01*
X224706190Y-139168190D01*
X224325238Y-139168190D01*
X225325238Y-139120571D02*
X225658571Y-139120571D01*
X225801428Y-139644380D02*
X225325238Y-139644380D01*
X225325238Y-138644380D01*
X225801428Y-138644380D01*
X226563333Y-139120571D02*
X226230000Y-139120571D01*
X226230000Y-139644380D02*
X226230000Y-138644380D01*
X226706190Y-138644380D01*
X227230000Y-138644380D02*
X227230000Y-138882476D01*
X226991904Y-138787238D02*
X227230000Y-138882476D01*
X227468095Y-138787238D01*
X227087142Y-139072952D02*
X227230000Y-138882476D01*
X227372857Y-139072952D01*
X227991904Y-138644380D02*
X227991904Y-138882476D01*
X227753809Y-138787238D02*
X227991904Y-138882476D01*
X228230000Y-138787238D01*
X227849047Y-139072952D02*
X227991904Y-138882476D01*
X228134761Y-139072952D01*
%TO.C,J4*%
X216376595Y-78307161D02*
X216519452Y-78354780D01*
X216757547Y-78354780D01*
X216852785Y-78307161D01*
X216900404Y-78259542D01*
X216948023Y-78164304D01*
X216948023Y-78069066D01*
X216900404Y-77973828D01*
X216852785Y-77926209D01*
X216757547Y-77878590D01*
X216567071Y-77830971D01*
X216471833Y-77783352D01*
X216424214Y-77735733D01*
X216376595Y-77640495D01*
X216376595Y-77545257D01*
X216424214Y-77450019D01*
X216471833Y-77402400D01*
X216567071Y-77354780D01*
X216805166Y-77354780D01*
X216948023Y-77402400D01*
X217281357Y-77354780D02*
X217519452Y-78354780D01*
X217709928Y-77640495D01*
X217900404Y-78354780D01*
X218138500Y-77354780D01*
X218519452Y-78354780D02*
X218519452Y-77354780D01*
X218757547Y-77354780D01*
X218900404Y-77402400D01*
X218995642Y-77497638D01*
X219043261Y-77592876D01*
X219090880Y-77783352D01*
X219090880Y-77926209D01*
X219043261Y-78116685D01*
X218995642Y-78211923D01*
X218900404Y-78307161D01*
X218757547Y-78354780D01*
X218519452Y-78354780D01*
X220090880Y-78259542D02*
X220043261Y-78307161D01*
X219900404Y-78354780D01*
X219805166Y-78354780D01*
X219662309Y-78307161D01*
X219567071Y-78211923D01*
X219519452Y-78116685D01*
X219471833Y-77926209D01*
X219471833Y-77783352D01*
X219519452Y-77592876D01*
X219567071Y-77497638D01*
X219662309Y-77402400D01*
X219805166Y-77354780D01*
X219900404Y-77354780D01*
X220043261Y-77402400D01*
X220090880Y-77450019D01*
X220995642Y-78354780D02*
X220519452Y-78354780D01*
X220519452Y-77354780D01*
X221328976Y-78354780D02*
X221328976Y-77354780D01*
X221900404Y-78354780D02*
X221471833Y-77783352D01*
X221900404Y-77354780D02*
X221328976Y-77926209D01*
X218805166Y-74354780D02*
X218805166Y-75069066D01*
X218757547Y-75211923D01*
X218662309Y-75307161D01*
X218519452Y-75354780D01*
X218424214Y-75354780D01*
X219709928Y-74688114D02*
X219709928Y-75354780D01*
X219471833Y-74307161D02*
X219233738Y-75021447D01*
X219852785Y-75021447D01*
D10*
%TO.C,S2*%
X210360000Y-126362200D02*
X210360000Y-132362200D01*
X210360000Y-132362200D02*
X216360000Y-132362200D01*
X210360000Y-126362200D02*
X216360000Y-126362200D01*
X216360000Y-132362200D02*
X216360000Y-126362200D01*
%TO.C,Q1*%
X227044000Y-109508800D02*
X227044000Y-107508800D01*
X223044000Y-109508800D02*
X223044000Y-107508800D01*
X223044000Y-107508800D02*
X227044000Y-107508800D01*
X223044000Y-109508800D02*
X227044000Y-109508800D01*
%TO.C,S1*%
X192580000Y-126362200D02*
X198580000Y-126362200D01*
X192580000Y-132362200D02*
X198580000Y-132362200D01*
X192580000Y-126362200D02*
X192580000Y-132362200D01*
X198580000Y-132362200D02*
X198580000Y-126362200D01*
%TO.C,J1*%
X183972200Y-83616800D02*
X224612200Y-83616800D01*
X223977200Y-86156800D02*
X183972200Y-86156800D01*
X224612200Y-83616800D02*
X224612200Y-85521800D01*
X224612200Y-85521800D02*
X223977200Y-86156800D01*
X183972200Y-86156800D02*
X183972200Y-83616800D01*
%TO.C,J2*%
X194132200Y-65836800D02*
X194132200Y-63296800D01*
X194132200Y-63296800D02*
X224612200Y-63296800D01*
X224612200Y-65201800D02*
X223977200Y-65836800D01*
X224612200Y-63296800D02*
X224612200Y-65201800D01*
X223977200Y-65836800D02*
X194132200Y-65836800D01*
%TO.C,D2*%
X198009000Y-90332000D02*
X198009000Y-91532000D01*
X198009000Y-91532000D02*
X199709000Y-91532000D01*
X200009000Y-91232000D02*
X200009000Y-90332000D01*
X199709000Y-91532000D02*
X200009000Y-91232000D01*
X200009000Y-90332000D02*
X198009000Y-90332000D01*
%TO.C,D4*%
X221980000Y-91232000D02*
X221980000Y-90332000D01*
X219980000Y-91532000D02*
X221680000Y-91532000D01*
X221680000Y-91532000D02*
X221980000Y-91232000D01*
X221980000Y-90332000D02*
X219980000Y-90332000D01*
X219980000Y-90332000D02*
X219980000Y-91532000D01*
%TO.C,R4*%
X184216200Y-122190000D02*
X184216200Y-124190000D01*
X182966200Y-122190000D02*
X184216200Y-122190000D01*
X182966200Y-124190000D02*
X182966200Y-122190000D01*
X184216200Y-124190000D02*
X182966200Y-124190000D01*
%TO.C,R8*%
X223911000Y-88154000D02*
X225161000Y-88154000D01*
X225161000Y-90154000D02*
X223911000Y-90154000D01*
X225161000Y-88154000D02*
X225161000Y-90154000D01*
X223911000Y-90154000D02*
X223911000Y-88154000D01*
%TO.C,R7*%
X201889200Y-87493600D02*
X203139200Y-87493600D01*
X203139200Y-87493600D02*
X203139200Y-89493600D01*
X201889200Y-89493600D02*
X201889200Y-87493600D01*
X203139200Y-89493600D02*
X201889200Y-89493600D01*
%TO.C,R1*%
X224044000Y-113555000D02*
X226044000Y-113555000D01*
X226044000Y-114805000D02*
X224044000Y-114805000D01*
X226044000Y-113555000D02*
X226044000Y-114805000D01*
X224044000Y-114805000D02*
X224044000Y-113555000D01*
%TO.C,R5*%
X224419000Y-124190000D02*
X224419000Y-122190000D01*
X225669000Y-122190000D02*
X225669000Y-124190000D01*
X224419000Y-122190000D02*
X225669000Y-122190000D01*
X225669000Y-124190000D02*
X224419000Y-124190000D01*
%TO.C,U1*%
X185066200Y-106558800D02*
X186041200Y-107533800D01*
X181141200Y-110458800D02*
X181141200Y-106558800D01*
X181141200Y-106558800D02*
X185066200Y-106558800D01*
X186041200Y-107533800D02*
X186041200Y-110458800D01*
X186041200Y-110458800D02*
X181141200Y-110458800D01*
%TO.C,C1*%
X182591200Y-116753800D02*
X182591200Y-115503800D01*
X184591200Y-115503800D02*
X184591200Y-116753800D01*
X184591200Y-116753800D02*
X182591200Y-116753800D01*
X182591200Y-115503800D02*
X184591200Y-115503800D01*
%TO.C,R6*%
X196382800Y-87519000D02*
X196382800Y-89519000D01*
X195132800Y-89519000D02*
X195132800Y-87519000D01*
X195132800Y-87519000D02*
X196382800Y-87519000D01*
X196382800Y-89519000D02*
X195132800Y-89519000D01*
%TO.C,D1*%
X188960000Y-90332000D02*
X186960000Y-90332000D01*
X188960000Y-91232000D02*
X188960000Y-90332000D01*
X186960000Y-91532000D02*
X188660000Y-91532000D01*
X188660000Y-91532000D02*
X188960000Y-91232000D01*
X186960000Y-90332000D02*
X186960000Y-91532000D01*
%TO.C,R2*%
X214411400Y-88154000D02*
X215661400Y-88154000D01*
X215661400Y-88154000D02*
X215661400Y-90154000D01*
X214411400Y-90154000D02*
X214411400Y-88154000D01*
X215661400Y-90154000D02*
X214411400Y-90154000D01*
%TO.C,D3*%
X210758000Y-91532000D02*
X211058000Y-91232000D01*
X211058000Y-91232000D02*
X211058000Y-90332000D01*
X209058000Y-91532000D02*
X210758000Y-91532000D01*
X211058000Y-90332000D02*
X209058000Y-90332000D01*
X209058000Y-90332000D02*
X209058000Y-91532000D01*
%TO.C,R11*%
X192211200Y-77841000D02*
X190211200Y-77841000D01*
X192211200Y-76591000D02*
X192211200Y-77841000D01*
X190211200Y-77841000D02*
X190211200Y-76591000D01*
X190211200Y-76591000D02*
X192211200Y-76591000D01*
%TO.C,D5*%
X181785000Y-75975000D02*
X182360000Y-76550000D01*
X180760000Y-78665000D02*
X180760000Y-75975000D01*
X182360000Y-78665000D02*
X180760000Y-78665000D01*
X180760000Y-75975000D02*
X182360000Y-75975000D01*
X182360000Y-75975000D02*
X182360000Y-78665000D01*
%TO.C,R10*%
X185436000Y-77841000D02*
X185436000Y-76591000D01*
X185436000Y-76591000D02*
X187436000Y-76591000D01*
X187436000Y-76591000D02*
X187436000Y-77841000D01*
X187436000Y-77841000D02*
X185436000Y-77841000D01*
%TO.C,C5*%
X194580000Y-77885000D02*
X194580000Y-76635000D01*
X196580000Y-77885000D02*
X194580000Y-77885000D01*
X196580000Y-76635000D02*
X196580000Y-77885000D01*
X194580000Y-76635000D02*
X196580000Y-76635000D01*
%TO.C,J3*%
X225580000Y-92445000D02*
X226215000Y-91810000D01*
X225580000Y-101970000D02*
X225580000Y-92445000D01*
X226215000Y-91810000D02*
X228120000Y-91810000D01*
X228120000Y-91810000D02*
X228120000Y-101970000D01*
X228120000Y-101970000D02*
X225580000Y-101970000D01*
%TD*%
M02*
