%TF.GenerationSoftware,KiCad,Pcbnew,(6.0.0-0)*%
%TF.CreationDate,2022-02-21T11:29:54+01:00*%
%TF.ProjectId,burrboard,62757272-626f-4617-9264-2e6b69636164,v4.0*%
%TF.SameCoordinates,Original*%
%TF.FileFunction,Soldermask,Bot*%
%TF.FilePolarity,Negative*%
%FSLAX46Y46*%
G04 Gerber Fmt 4.6, Leading zero omitted, Abs format (unit mm)*
G04 Created by KiCad (PCBNEW (6.0.0-0)) date 2022-02-21 11:29:54*
%MOMM*%
%LPD*%
G01*
G04 APERTURE LIST*
G04 Aperture macros list*
%AMRoundRect*
0 Rectangle with rounded corners*
0 $1 Rounding radius*
0 $2 $3 $4 $5 $6 $7 $8 $9 X,Y pos of 4 corners*
0 Add a 4 corners polygon primitive as box body*
4,1,4,$2,$3,$4,$5,$6,$7,$8,$9,$2,$3,0*
0 Add four circle primitives for the rounded corners*
1,1,$1+$1,$2,$3*
1,1,$1+$1,$4,$5*
1,1,$1+$1,$6,$7*
1,1,$1+$1,$8,$9*
0 Add four rect primitives between the rounded corners*
20,1,$1+$1,$2,$3,$4,$5,0*
20,1,$1+$1,$4,$5,$6,$7,0*
20,1,$1+$1,$6,$7,$8,$9,0*
20,1,$1+$1,$8,$9,$2,$3,0*%
G04 Aperture macros list end*
%TA.AperFunction,Profile*%
%ADD10C,0.050000*%
%TD*%
%ADD11RoundRect,0.050800X-0.850000X0.850000X-0.850000X-0.850000X0.850000X-0.850000X0.850000X0.850000X0*%
%ADD12O,1.801600X1.801600*%
%ADD13C,1.601600*%
%ADD14C,2.801600*%
%ADD15RoundRect,0.050800X-0.850000X-0.850000X0.850000X-0.850000X0.850000X0.850000X-0.850000X0.850000X0*%
%ADD16C,3.551600*%
%ADD17RoundRect,0.050800X-1.500000X1.500000X-1.500000X-1.500000X1.500000X-1.500000X1.500000X1.500000X0*%
%ADD18C,3.101600*%
%ADD19RoundRect,0.050800X0.950000X0.950000X-0.950000X0.950000X-0.950000X-0.950000X0.950000X-0.950000X0*%
%ADD20C,2.001600*%
G04 APERTURE END LIST*
D10*
X178892200Y-64566800D02*
X178892200Y-140766800D01*
X229692200Y-64566800D02*
G75*
G03*
X227152200Y-62026800I-2540001J-1D01*
G01*
X181432200Y-143306800D02*
X227152200Y-143306800D01*
X227152200Y-62026800D02*
X181432200Y-62026800D01*
X229692200Y-140766800D02*
X229692200Y-64566800D01*
X227152200Y-143306800D02*
G75*
G03*
X229692200Y-140766800I-1J2540001D01*
G01*
X178892200Y-140766800D02*
G75*
G03*
X181432200Y-143306800I2540001J1D01*
G01*
X181432200Y-62026800D02*
G75*
G03*
X178892200Y-64566800I1J-2540001D01*
G01*
X178892200Y-64566800D02*
X178892200Y-140766800D01*
X229692200Y-64566800D02*
G75*
G03*
X227152200Y-62026800I-2540001J-1D01*
G01*
X181432200Y-143306800D02*
X227152200Y-143306800D01*
X227152200Y-62026800D02*
X181432200Y-62026800D01*
X229692200Y-140766800D02*
X229692200Y-64566800D01*
X227152200Y-143306800D02*
G75*
G03*
X229692200Y-140766800I-1J2540001D01*
G01*
X178892200Y-140766800D02*
G75*
G03*
X181432200Y-143306800I2540001J1D01*
G01*
X181432200Y-62026800D02*
G75*
G03*
X178892200Y-64566800I1J-2540001D01*
G01*
D11*
%TO.C,J1*%
X223342200Y-84886800D03*
D12*
X220802200Y-84886800D03*
X218262200Y-84886800D03*
X215722200Y-84886800D03*
X213182200Y-84886800D03*
X210642200Y-84886800D03*
X208102200Y-84886800D03*
X205562200Y-84886800D03*
X203022200Y-84886800D03*
X200482200Y-84886800D03*
X197942200Y-84886800D03*
X195402200Y-84886800D03*
X192862200Y-84886800D03*
X190322200Y-84886800D03*
X187782200Y-84886800D03*
X185242200Y-84886800D03*
%TD*%
D11*
%TO.C,J2*%
X223342200Y-64566800D03*
D12*
X220802200Y-64566800D03*
X218262200Y-64566800D03*
X215722200Y-64566800D03*
X213182200Y-64566800D03*
X210642200Y-64566800D03*
X208102200Y-64566800D03*
X205562200Y-64566800D03*
X203022200Y-64566800D03*
X200482200Y-64566800D03*
X197942200Y-64566800D03*
X195402200Y-64566800D03*
%TD*%
D13*
%TO.C,J5*%
X220751400Y-77419200D03*
%TD*%
%TO.C,J4*%
X219138500Y-76352400D03*
%TD*%
D14*
%TO.C,REF\u002A\u002A*%
X182830000Y-139192000D03*
%TD*%
%TO.C,REF\u002A\u002A*%
X225930000Y-139192000D03*
%TD*%
D15*
%TO.C,J3*%
X227300000Y-93400000D03*
D12*
X227300000Y-95940000D03*
X227300000Y-98480000D03*
X227300000Y-101020000D03*
%TD*%
D16*
%TO.C,BT1*%
X216108200Y-115236200D03*
X192608200Y-115236200D03*
D17*
X192608200Y-91516200D03*
D18*
X205308200Y-91516200D03*
%TD*%
D19*
%TO.C,S3*%
X188468000Y-64990000D03*
D20*
X185968000Y-64990000D03*
X183468000Y-64990000D03*
%TD*%
M02*
