<svg xmlns="http://www.w3.org/2000/svg" xmlns:xlink="http://www.w3.org/1999/xlink" xmlns:lucid="lucid" width="1840" height="1090"><g transform="translate(-20 -10)" lucid:page-tab-id="0_0"><path d="M40 86c0-3.3 2.7-6 6-6h1788c3.3 0 6 2.7 6 6v828c0 3.3-2.7 6-6 6H46c-3.3 0-6-2.7-6-6z" stroke="#3a414a" fill="#fff"/><use xlink:href="#a" transform="matrix(1,0,0,1,45,85) translate(1748.0246913580247 828.3666673777778)"/><path d="M60 106c0-3.3 2.7-6 6-6h1728c3.3 0 6 2.7 6 6v448c0 3.3-2.7 6-6 6H66c-3.3 0-6-2.7-6-6z" stroke="#3a414a" fill="#fff"/><use xlink:href="#b" transform="matrix(1,0,0,1,65,105) translate(1639.8765432098764 17.77777777777778)"/><use xlink:href="#c" transform="matrix(1,0,0,1,65,105) translate(1680.617283950617 17.77777777777778)"/><path d="M280 686c0-3.3 2.7-6 6-6h928c3.3 0 6 2.7 6 6v188c0 3.3-2.7 6-6 6H286c-3.3 0-6-2.7-6-6z" stroke="#3a414a" fill="#fff"/><use xlink:href="#d" transform="matrix(1,0,0,1,285,685) translate(785.4444444444445 188.38257777777775)"/><use xlink:href="#e" transform="matrix(1,0,0,1,285,685) translate(833.5925925925926 188.38257777777775)"/><path d="M140 146c0-3.3 2.7-6 6-6h708c3.3 0 6 2.7 6 6v368c0 3.3-2.7 6-6 6H146c-3.3 0-6-2.7-6-6z" stroke="#3a414a" fill="#fff"/><use xlink:href="#f" transform="matrix(1,0,0,1,145,145) translate(672.9629629629629 17.77777777777778)"/><path d="M220 366c0-3.3 2.7-6 6-6h148c3.3 0 6 2.7 6 6v108c0 3.3-2.7 6-6 6H226c-3.3 0-6-2.7-6-6z" stroke="#3a414a" fill="#fff"/><use xlink:href="#g" transform="matrix(1,0,0,1,225,365) translate(41.69753086419753 59.02777777777778)"/><path d="M1000 726c0-3.3 2.7-6 6-6h148c3.3 0 6 2.7 6 6v108c0 3.3-2.7 6-6 6h-148c-3.3 0-6-2.7-6-6z" stroke="#ced4db" stroke-width="3" fill="#fff"/><use xlink:href="#h" transform="matrix(1,0,0,1,1005,725) translate(50.925925925925924 59.02777777777778)"/><path d="M1040 146c0-3.3 2.7-6 6-6h668c3.3 0 6 2.7 6 6v368c0 3.3-2.7 6-6 6h-668c-3.3 0-6-2.7-6-6z" stroke="#3a414a" fill="#fff"/><use xlink:href="#f" transform="matrix(1,0,0,1,1045,145.00000000000006) translate(632.9629629629629 17.77777777777778)"/><path d="M780 726c0-3.3 2.7-6 6-6h148c3.3 0 6 2.7 6 6v108c0 3.3-2.7 6-6 6H786c-3.3 0-6-2.7-6-6z" fill="#fff"/><path d="M801.42 720h6.16m12.34 0h6.16m12.34 0h6.16m12.34 0h6.16m12.34 0h6.16m12.34 0h6.16m12.34 0h6.16m12.34 0H934l3.03.82 2.15 2.15.82 3.03v3m0 12v6m0 12v6m0 12v6m0 12v6m0 12v6m0 12v3l-.82 3.03-2.15 2.15-3.03.82h-3.08m-12.34 0h-6.16m-12.34 0h-6.16m-12.34 0h-6.16m-12.34 0h-6.16m-12.34 0h-6.16m-12.34 0h-6.16m-12.34 0h-6.16m-12.34 0H786l-3.03-.82-2.15-2.15L780 834v-3m0-12v-6m0-12v-6m0-12v-6m0-12v-6m0-12v-6m0-12v-3l.82-3.03 2.15-2.15L786 720h3.08" stroke="#9391ff" stroke-width="3" fill="none"/><use xlink:href="#i" transform="matrix(1,0,0,1,785,725) translate(7.7777777777777715 59.02777777777778)"/><use xlink:href="#j" transform="matrix(1,0,0,1,785,725) translate(68.20987654320987 59.02777777777778)"/><path d="M560 726c0-3.3 2.7-6 6-6h148c3.3 0 6 2.7 6 6v108c0 3.3-2.7 6-6 6H566c-3.3 0-6-2.7-6-6z" fill="#fff"/><path d="M581.42 720h6.16m12.34 0h6.16m12.34 0h6.16m12.34 0h6.16m12.34 0h6.16m12.34 0h6.16m12.34 0h6.16m12.34 0H714l3.03.82 2.15 2.15.82 3.03v3m0 12v6m0 12v6m0 12v6m0 12v6m0 12v6m0 12v3l-.82 3.03-2.15 2.15-3.03.82h-3.08m-12.34 0h-6.16m-12.34 0h-6.16m-12.34 0h-6.16m-12.34 0h-6.16m-12.34 0h-6.16m-12.34 0h-6.16m-12.34 0h-6.16m-12.34 0H566l-3.03-.82-2.15-2.15L560 834v-3m0-12v-6m0-12v-6m0-12v-6m0-12v-6m0-12v-6m0-12v-3l.82-3.03 2.15-2.15L566 720h3.08" stroke="#9391ff" stroke-width="3" fill="none"/><use xlink:href="#i" transform="matrix(1,0,0,1,565,725) translate(15.185185185185183 59.02777777777778)"/><use xlink:href="#k" transform="matrix(1,0,0,1,565,725) translate(75.61728395061729 59.02777777777778)"/><path d="M340 726c0-3.3 2.7-6 6-6h148c3.3 0 6 2.7 6 6v108c0 3.3-2.7 6-6 6H346c-3.3 0-6-2.7-6-6z" stroke="#ced4db" stroke-width="3" fill="#fff"/><use xlink:href="#l" transform="matrix(1,0,0,1,345,725) translate(54.660493827160494 59.02777777777778)"/><path d="M1320 366c0-3.3 2.7-6 6-6h148c3.3 0 6 2.7 6 6v108c0 3.3-2.7 6-6 6h-148c-3.3 0-6-2.7-6-6z" stroke="#3a414a" fill="#fff"/><use xlink:href="#m" transform="matrix(1,0,0,1,1325,365) translate(21.327160493827158 59.02777777777778)"/><use xlink:href="#n" transform="matrix(1,0,0,1,1325,365) translate(91.6358024691358 59.02777777777778)"/><path d="M540 366c0-3.3 2.7-6 6-6h148c3.3 0 6 2.7 6 6v108c0 3.3-2.7 6-6 6H546c-3.3 0-6-2.7-6-6z" stroke="#3a414a" fill="#fff"/><use xlink:href="#o" transform="matrix(1,0,0,1,545,365) translate(12.067901234567906 59.02777777777778)"/><use xlink:href="#n" transform="matrix(1,0,0,1,545,365) translate(100.89506172839506 59.02777777777778)"/><path d="M1074.27 588l3.8 1.03 2.9 2.9 1.03 3.8v100.03h-4v-99.5l-.6-2.25-1.4-1.4-2.27-.6H812.1v-4zm-608.35-2l1.4 1.4 2.26.6h281.35v4h-281.9l-3.8-1.03-2.9-2.9-1.02-3.8v-153.6h4v153.06z" stroke="#fc9432" stroke-width=".05" fill="#fc9432"/><path stroke="#fc9432" stroke-width=".05" fill="#fc9432"/><path d="M1080 712.03l-4.64-14.27h9.28z" fill="#fc9432"/><path d="M1080 718.5l-7.4-22.74h14.8zm-1.88-18.74l1.88 5.8 1.88-5.8z" stroke="#fc9432" stroke-width=".05" fill="#fc9432"/><use xlink:href="#p" transform="matrix(1,0,0,1,750.927020039034,579.3333333333334) translate(0 14.222222222222223)"/><path d="M1199.9 592h-113.63l-2.26.6-1.4 1.4-.6 2.27v99.5h-4V595.72l1.03-3.8 2.9-2.9 3.8-1.03h114.18zm202.1-7.73l-1.03 3.8-2.9 2.9-3.8 1.03H1261.1v-4h132.63l2.26-.6 1.4-1.4.6-2.27v-80.5h4z" stroke="#fc9432" stroke-width=".05" fill="#fc9432"/><path d="M1404.64 501.24h-9.28l4.64-14.27z" fill="#fc9432"/><path d="M1407.4 503.24h-14.8l7.4-22.74zm-9.28-4h3.76l-1.88-5.8z" stroke="#fc9432" stroke-width=".05" fill="#fc9432"/><path d="M1080 712.03l-4.64-14.27h9.28z" fill="#fc9432"/><path d="M1080 718.5l-7.4-22.74h14.8zm-1.88-18.74l1.88 5.8 1.88-5.8z" stroke="#fc9432" stroke-width=".05" fill="#fc9432"/><use xlink:href="#p" transform="matrix(1,0,0,1,1199.9074074074074,579.3333333333334) translate(0 14.222222222222223)"/><path d="M429.4 422.5h-24.04v-5h24.05zm85.24 0H490.6v-5h24.04z" stroke="#fc9432" stroke-width=".05" fill="#fc9432"/><path d="M402.86 424.64L388.6 420l14.26-4.64z" fill="#fc9432"/><path d="M405.36 428.08L380.5 420l24.86-8.08zm-8.68-8.08l3.68 1.2v-2.4z" stroke="#fc9432" stroke-width=".05" fill="#fc9432"/><path d="M531.4 420l-14.26 4.64v-9.28z" fill="#fc9432"/><path d="M539.5 420l-24.86 8.08v-16.16zm-19.86 1.2l3.68-1.2-3.68-1.2z" stroke="#fc9432" stroke-width=".05" fill="#fc9432"/><use xlink:href="#p" transform="matrix(1,0,0,1,429.4074074074074,409.3333333333333) translate(0 14.222222222222223)"/><path d="M414.27 648l3.8 1.03 2.9 2.9 1.03 3.8v40.03h-4v-39.5l-.6-2.25-1.4-1.4-2.27-.6h-99.1v-4zm-228.5-226l-2.26.6-1.4 1.4-.6 2.27v217.46l.6 2.26 1.4 1.4 2.27.6h73.6v4h-74.14l-3.8-1.03-2.9-2.9-1.03-3.8V425.73l1.03-3.8 2.9-2.9 3.8-1.03h11.53v4z" stroke="#3a414a" stroke-width=".05" fill="#3a414a"/><path d="M213.03 420l-14.27 4.64v-9.28z" fill="#3a414a"/><path d="M219.5 420l-22.74 7.4v-14.8zm-18.74 1.88l5.8-1.88-5.8-1.88z" stroke="#3a414a" stroke-width=".05" fill="#3a414a"/><path d="M420 712.03l-4.64-14.27h9.28z" fill="#3a414a"/><path d="M420 718.5l-7.4-22.74h14.8zm-1.88-18.74l1.88 5.8 1.88-5.8z" stroke="#3a414a" stroke-width=".05" fill="#3a414a"/><use xlink:href="#q" transform="matrix(1,0,0,1,259.3674637446437,639.3333333333334) translate(0 14.222222222222223)"/><path d="M640.97 621.93l1.03 3.8v70.03h-4v-65.1h1.1v-10.6zM302.6 616l1.4 1.4 2.27.6H567.1v4H305.74l-3.8-1.03-2.9-2.9-1.03-3.8V482.5h4v131.23z" stroke="#9391ff" stroke-width=".05" fill="#9391ff"/><path d="M640 712.03l-4.64-14.27h9.28z" fill="#9391ff"/><path d="M640 718.5l-7.4-22.74h14.8zm-1.88-18.74l1.88 5.8 1.88-5.8z" stroke="#9391ff" stroke-width=".05" fill="#9391ff"/><path d="M302 482.55h-4v-2.05h4z" fill="#9391ff"/><path d="M302.02 482.58h-4.04v-2.1h4.04zm-4-2.06v2h3.96v-2z" stroke="#9391ff" stroke-width=".05" fill="#9391ff"/><path d="M854.27 618l3.8 1.03 2.9 2.9 1.03 3.8v70.03h-4v-69.5l-.6-2.25-1.4-1.4-2.27-.6H639.1v-4zm-551.66-2l1.4 1.4 2.27.6H567.1v4H305.74l-3.8-1.03-2.9-2.9-1.03-3.8V482.5h4v131.23z" stroke="#9391ff" stroke-width=".05" fill="#9391ff"/><path d="M860 712.03l-4.64-14.27h9.28z" fill="#9391ff"/><path d="M860 718.5l-7.4-22.74h14.8zm-1.88-18.74l1.88 5.8 1.88-5.8z" stroke="#9391ff" stroke-width=".05" fill="#9391ff"/><path d="M302 482.55h-4v-2.05h4z" fill="#9391ff"/><path d="M302.02 482.58h-4.04v-2.1h4.04zm-4-2.06v2h3.96v-2z" stroke="#9391ff" stroke-width=".05" fill="#9391ff"/><use xlink:href="#r" transform="matrix(1,0,0,1,567.1119794001047,609.3333333333334) translate(0 14.222222222222223)"/><path d="M615.76 34.24c2.34-2.34 6.14-2.34 8.48 0l31.52 31.52C658.1 68.1 657.3 70 654 70h-8c-3.3 0-6 2.7-6 6v238c0 3.3 2.7 6 6 6h8c3.3 0 4.1 1.9 1.76 4.24l-31.52 31.52c-2.34 2.34-6.14 2.34-8.48 0l-31.52-31.52C581.9 321.9 582.7 320 586 320h8c3.3 0 6-2.7 6-6V76c0-3.3-2.7-6-6-6h-8c-3.3 0-4.1-1.9-1.76-4.24z" stroke="#3a414a" fill="#fff"/><use xlink:href="#s" transform="matrix(6.123233995736765e-17,-1,1,6.123233995736765e-17,585,355) translate(133.49265432098764 39.96527777777778)"/><path d="M340 966c0-3.3 2.7-6 6-6h148c3.3 0 6 2.7 6 6v108c0 3.3-2.7 6-6 6H346c-3.3 0-6-2.7-6-6z" stroke="#3a414a" fill="#fff"/><g><use xlink:href="#t" transform="matrix(1,0,0,1,345,965) translate(42.932098765432094 59.02777777777778)"/></g><path d="M420 943.12v-85.24" stroke="#3a414a" fill="none"/><path d="M420 957.88l-4.64-14.26h9.28zM420 843.12l4.64 14.26h-9.28z" stroke="#3a414a" fill="#3a414a"/><defs><path fill="#3a414a" d="M106-169C34-169 62-67 57 0H25v-261h32l-1 103c12-21 28-36 61-36 89 0 53 116 60 194h-32v-121c2-32-8-49-39-48" id="u"/><path fill="#3a414a" d="M100-194c62-1 85 37 85 99 1 63-27 99-86 99S16-35 15-95c0-66 28-99 85-99zM99-20c44 1 53-31 53-75 0-43-8-75-51-75s-53 32-53 75 10 74 51 75" id="v"/><path fill="#3a414a" d="M135-143c-3-34-86-38-87 0 15 53 115 12 119 90S17 21 10-45l28-5c4 36 97 45 98 0-10-56-113-15-118-90-4-57 82-63 122-42 12 7 21 19 24 35" id="w"/><path fill="#3a414a" d="M59-47c-2 24 18 29 38 22v24C64 9 27 4 27-40v-127H5v-23h24l9-43h21v43h35v23H59v120" id="x"/><g id="a"><use transform="matrix(0.06172839506172839,0,0,0.06172839506172839,0,0)" xlink:href="#u"/><use transform="matrix(0.06172839506172839,0,0,0.06172839506172839,12.345679012345679,0)" xlink:href="#v"/><use transform="matrix(0.06172839506172839,0,0,0.06172839506172839,24.691358024691358,0)" xlink:href="#w"/><use transform="matrix(0.06172839506172839,0,0,0.06172839506172839,35.80246913580247,0)" xlink:href="#x"/></g><path fill="#3a414a" d="M143 0L79-87 56-68V0H24v-261h32v163l83-92h37l-77 82L181 0h-38" id="y"/><path fill="#3a414a" d="M134-131c28 9 52 24 51 62-1 50-34 73-85 73S17-19 16-69c0-36 21-54 49-61-75-25-45-126 34-121 46 3 78 18 79 63 0 33-17 51-44 57zm-34-11c31 1 46-15 46-44 0-28-17-43-47-42-29 0-46 13-45 42 1 28 16 44 46 44zm1 122c35 0 51-18 51-52 0-30-18-46-53-46-33 0-51 17-51 47 0 34 19 51 53 51" id="z"/><g id="b"><use transform="matrix(0.06172839506172839,0,0,0.06172839506172839,0,0)" xlink:href="#y"/><use transform="matrix(0.06172839506172839,0,0,0.06172839506172839,11.11111111111111,0)" xlink:href="#z"/><use transform="matrix(0.06172839506172839,0,0,0.06172839506172839,23.45679012345679,0)" xlink:href="#w"/></g><path fill="#3a414a" d="M117-194c89-4 53 116 60 194h-32v-121c0-31-8-49-39-48C34-167 62-67 57 0H25l-1-190h30c1 10-1 24 2 32 11-22 29-35 61-36" id="A"/><path fill="#3a414a" d="M85-194c31 0 48 13 60 33l-1-100h32l1 261h-30c-2-10 0-23-3-31C134-8 116 4 85 4 32 4 16-35 15-94c0-66 23-100 70-100zm9 24c-40 0-46 34-46 75 0 40 6 74 45 74 42 0 51-32 51-76 0-42-9-74-50-73" id="B"/><path fill="#3a414a" d="M100-194c63 0 86 42 84 106H49c0 40 14 67 53 68 26 1 43-12 49-29l28 8c-11 28-37 45-77 45C44 4 14-33 15-96c1-61 26-98 85-98zm52 81c6-60-76-77-97-28-3 7-6 17-6 28h103" id="C"/><g id="c"><use transform="matrix(0.06172839506172839,0,0,0.06172839506172839,0,0)" xlink:href="#A"/><use transform="matrix(0.06172839506172839,0,0,0.06172839506172839,12.345679012345679,0)" xlink:href="#v"/><use transform="matrix(0.06172839506172839,0,0,0.06172839506172839,24.691358024691358,0)" xlink:href="#B"/><use transform="matrix(0.06172839506172839,0,0,0.06172839506172839,37.03703703703704,0)" xlink:href="#C"/></g><g id="d"><use transform="matrix(0.06172839506172839,0,0,0.06172839506172839,0,0)" xlink:href="#u"/><use transform="matrix(0.06172839506172839,0,0,0.06172839506172839,12.345679012345679,0)" xlink:href="#v"/><use transform="matrix(0.06172839506172839,0,0,0.06172839506172839,24.691358024691358,0)" xlink:href="#w"/><use transform="matrix(0.06172839506172839,0,0,0.06172839506172839,35.80246913580247,0)" xlink:href="#x"/></g><path fill="#3a414a" d="M114-163C36-179 61-72 57 0H25l-1-190h30c1 12-1 29 2 39 6-27 23-49 58-41v29" id="D"/><path fill="#3a414a" d="M84 4C-5 8 30-112 23-190h32v120c0 31 7 50 39 49 72-2 45-101 50-169h31l1 190h-30c-1-10 1-25-2-33-11 22-28 36-60 37" id="E"/><path fill="#3a414a" d="M96-169c-40 0-48 33-48 73s9 75 48 75c24 0 41-14 43-38l32 2c-6 37-31 61-74 61-59 0-76-41-82-99-10-93 101-131 147-64 4 7 5 14 7 22l-32 3c-4-21-16-35-41-35" id="F"/><g id="e"><use transform="matrix(0.06172839506172839,0,0,0.06172839506172839,0,0)" xlink:href="#D"/><use transform="matrix(0.06172839506172839,0,0,0.06172839506172839,7.345679012345679,0)" xlink:href="#C"/><use transform="matrix(0.06172839506172839,0,0,0.06172839506172839,19.691358024691358,0)" xlink:href="#w"/><use transform="matrix(0.06172839506172839,0,0,0.06172839506172839,30.80246913580247,0)" xlink:href="#v"/><use transform="matrix(0.06172839506172839,0,0,0.06172839506172839,43.148148148148145,0)" xlink:href="#E"/><use transform="matrix(0.06172839506172839,0,0,0.06172839506172839,55.49382716049382,0)" xlink:href="#D"/><use transform="matrix(0.06172839506172839,0,0,0.06172839506172839,62.8395061728395,0)" xlink:href="#F"/><use transform="matrix(0.06172839506172839,0,0,0.06172839506172839,73.9506172839506,0)" xlink:href="#C"/><use transform="matrix(0.06172839506172839,0,0,0.06172839506172839,86.29629629629629,0)" xlink:href="#w"/></g><path fill="#3a414a" d="M115-194c55 1 70 41 70 98S169 2 115 4C84 4 66-9 55-30l1 105H24l-1-265h31l2 30c10-21 28-34 59-34zm-8 174c40 0 45-34 45-75s-6-73-45-74c-42 0-51 32-51 76 0 43 10 73 51 73" id="G"/><g id="f"><use transform="matrix(0.06172839506172839,0,0,0.06172839506172839,0,0)" xlink:href="#G"/><use transform="matrix(0.06172839506172839,0,0,0.06172839506172839,12.345679012345679,0)" xlink:href="#v"/><use transform="matrix(0.06172839506172839,0,0,0.06172839506172839,24.691358024691358,0)" xlink:href="#B"/></g><path fill="#3a414a" d="M210-169c-67 3-38 105-44 169h-31v-121c0-29-5-50-35-48C34-165 62-65 56 0H25l-1-190h30c1 10-1 24 2 32 10-44 99-50 107 0 11-21 27-35 58-36 85-2 47 119 55 194h-31v-121c0-29-5-49-35-48" id="H"/><g id="g"><use transform="matrix(0.06172839506172839,0,0,0.06172839506172839,0,0)" xlink:href="#H"/><use transform="matrix(0.06172839506172839,0,0,0.06172839506172839,18.456790123456788,0)" xlink:href="#C"/><use transform="matrix(0.06172839506172839,0,0,0.06172839506172839,30.80246913580247,0)" xlink:href="#w"/><use transform="matrix(0.06172839506172839,0,0,0.06172839506172839,41.91358024691358,0)" xlink:href="#u"/><use transform="matrix(0.06172839506172839,0,0,0.06172839506172839,54.25925925925926,0)" xlink:href="#B"/></g><path fill="#3a414a" d="M115-194c53 0 69 39 70 98 0 66-23 100-70 100C84 3 66-7 56-30L54 0H23l1-261h32v101c10-23 28-34 59-34zm-8 174c40 0 45-34 45-75 0-40-5-75-45-74-42 0-51 32-51 76 0 43 10 73 51 73" id="I"/><g id="h"><use transform="matrix(0.06172839506172839,0,0,0.06172839506172839,0,0)" xlink:href="#B"/><use transform="matrix(0.06172839506172839,0,0,0.06172839506172839,12.345679012345679,0)" xlink:href="#I"/><use transform="matrix(0.06172839506172839,0,0,0.06172839506172839,24.691358024691358,0)" xlink:href="#E"/><use transform="matrix(0.06172839506172839,0,0,0.06172839506172839,37.03703703703704,0)" xlink:href="#w"/></g><g id="i"><use transform="matrix(0.06172839506172839,0,0,0.06172839506172839,0,0)" xlink:href="#H"/><use transform="matrix(0.06172839506172839,0,0,0.06172839506172839,18.456790123456788,0)" xlink:href="#C"/><use transform="matrix(0.06172839506172839,0,0,0.06172839506172839,30.80246913580247,0)" xlink:href="#w"/><use transform="matrix(0.06172839506172839,0,0,0.06172839506172839,41.91358024691358,0)" xlink:href="#u"/></g><path fill="#3a414a" d="M141-36C126-15 110 5 73 4 37 3 15-17 15-53c-1-64 63-63 125-63 3-35-9-54-41-54-24 1-41 7-42 31l-33-3c5-37 33-52 76-52 45 0 72 20 72 64v82c-1 20 7 32 28 27v20c-31 9-61-2-59-35zM48-53c0 20 12 33 32 33 41-3 63-29 60-74-43 2-92-5-92 41" id="J"/><path fill="#3a414a" d="M177-190C167-65 218 103 67 71c-23-6-38-20-44-43l32-5c15 47 100 32 89-28v-30C133-14 115 1 83 1 29 1 15-40 15-95c0-56 16-97 71-98 29-1 48 16 59 35 1-10 0-23 2-32h30zM94-22c36 0 50-32 50-73 0-42-14-75-50-75-39 0-46 34-46 75s6 73 46 73" id="K"/><g id="j"><use transform="matrix(0.06172839506172839,0,0,0.06172839506172839,0,0)" xlink:href="#w"/><use transform="matrix(0.06172839506172839,0,0,0.06172839506172839,11.11111111111111,0)" xlink:href="#x"/><use transform="matrix(0.06172839506172839,0,0,0.06172839506172839,17.28395061728395,0)" xlink:href="#v"/><use transform="matrix(0.06172839506172839,0,0,0.06172839506172839,29.629629629629626,0)" xlink:href="#D"/><use transform="matrix(0.06172839506172839,0,0,0.06172839506172839,36.9753086419753,0)" xlink:href="#J"/><use transform="matrix(0.06172839506172839,0,0,0.06172839506172839,49.32098765432098,0)" xlink:href="#K"/><use transform="matrix(0.06172839506172839,0,0,0.06172839506172839,61.66666666666666,0)" xlink:href="#C"/></g><path fill="#3a414a" d="M101-234c-31-9-42 10-38 44h38v23H63V0H32v-167H5v-23h27c-7-52 17-82 69-68v24" id="L"/><path fill="#3a414a" d="M24-231v-30h32v30H24zM24 0v-190h32V0H24" id="M"/><g id="k"><use transform="matrix(0.06172839506172839,0,0,0.06172839506172839,0,0)" xlink:href="#F"/><use transform="matrix(0.06172839506172839,0,0,0.06172839506172839,11.11111111111111,0)" xlink:href="#v"/><use transform="matrix(0.06172839506172839,0,0,0.06172839506172839,23.45679012345679,0)" xlink:href="#A"/><use transform="matrix(0.06172839506172839,0,0,0.06172839506172839,35.80246913580247,0)" xlink:href="#L"/><use transform="matrix(0.06172839506172839,0,0,0.06172839506172839,41.97530864197531,0)" xlink:href="#M"/><use transform="matrix(0.06172839506172839,0,0,0.06172839506172839,46.851851851851855,0)" xlink:href="#K"/></g><path fill="#3a414a" d="M101-251c68 0 85 55 85 127S166 4 100 4C33 4 14-52 14-124c0-73 17-127 87-127zm-1 229c47 0 54-49 54-102s-4-102-53-102c-51 0-55 48-55 102 0 53 5 102 54 102" id="N"/><g id="l"><use transform="matrix(0.06172839506172839,0,0,0.06172839506172839,0,0)" xlink:href="#u"/><use transform="matrix(0.06172839506172839,0,0,0.06172839506172839,12.345679012345679,0)" xlink:href="#F"/><use transform="matrix(0.06172839506172839,0,0,0.06172839506172839,23.45679012345679,0)" xlink:href="#M"/><use transform="matrix(0.06172839506172839,0,0,0.06172839506172839,28.333333333333336,0)" xlink:href="#N"/></g><path fill="#3a414a" d="M108 0H70L1-190h34L89-25l56-165h34" id="O"/><g id="m"><use transform="matrix(0.06172839506172839,0,0,0.06172839506172839,0,0)" xlink:href="#B"/><use transform="matrix(0.06172839506172839,0,0,0.06172839506172839,12.345679012345679,0)" xlink:href="#C"/><use transform="matrix(0.06172839506172839,0,0,0.06172839506172839,24.691358024691358,0)" xlink:href="#O"/><use transform="matrix(0.06172839506172839,0,0,0.06172839506172839,35.80246913580247,0)" xlink:href="#M"/><use transform="matrix(0.06172839506172839,0,0,0.06172839506172839,40.67901234567901,0)" xlink:href="#F"/><use transform="matrix(0.06172839506172839,0,0,0.06172839506172839,51.79012345679013,0)" xlink:href="#C"/></g><g id="n"><use transform="matrix(0.06172839506172839,0,0,0.06172839506172839,0,0)" xlink:href="#J"/><use transform="matrix(0.06172839506172839,0,0,0.06172839506172839,12.345679012345679,0)" xlink:href="#G"/><use transform="matrix(0.06172839506172839,0,0,0.06172839506172839,24.691358024691358,0)" xlink:href="#G"/></g><path fill="#3a414a" d="M206 0h-36l-40-164L89 0H53L-1-190h32L70-26l43-164h34l41 164 42-164h31" id="P"/><path fill="#3a414a" d="M179-190L93 31C79 59 56 82 12 73V49c39 6 53-20 64-50L1-190h34L92-34l54-156h33" id="Q"/><g id="o"><use transform="matrix(0.06172839506172839,0,0,0.06172839506172839,0,0)" xlink:href="#K"/><use transform="matrix(0.06172839506172839,0,0,0.06172839506172839,12.345679012345679,0)" xlink:href="#J"/><use transform="matrix(0.06172839506172839,0,0,0.06172839506172839,24.691358024691358,0)" xlink:href="#x"/><use transform="matrix(0.06172839506172839,0,0,0.06172839506172839,30.864197530864196,0)" xlink:href="#C"/><use transform="matrix(0.06172839506172839,0,0,0.06172839506172839,43.20987654320987,0)" xlink:href="#P"/><use transform="matrix(0.06172839506172839,0,0,0.06172839506172839,59.197530864197525,0)" xlink:href="#J"/><use transform="matrix(0.06172839506172839,0,0,0.06172839506172839,71.5432098765432,0)" xlink:href="#Q"/></g><path fill="#333" d="M137-138c1-29-70-34-71-4 15 46 118 7 119 86 1 83-164 76-172 9l43-7c4 19 20 25 44 25 33 8 57-30 24-41C81-84 22-81 20-136c-2-80 154-74 161-7" id="R"/><path fill="#333" d="M123 10C108 53 80 86 19 72V37c35 8 53-11 59-39L3-190h52l48 148c12-52 28-100 44-148h51" id="S"/><path fill="#333" d="M115-3C79 11 28 4 28-45v-112H4v-33h27l15-45h31v45h36v33H77v99c-1 23 16 31 38 25v30" id="T"/><path fill="#333" d="M185-48c-13 30-37 53-82 52C43 2 14-33 14-96s30-98 90-98c62 0 83 45 84 108H66c0 31 8 55 39 56 18 0 30-7 34-22zm-45-69c5-46-57-63-70-21-2 6-4 13-4 21h74" id="U"/><path fill="#333" d="M220-157c-53 9-28 100-34 157h-49v-107c1-27-5-49-29-50C55-147 81-57 75 0H25l-1-190h47c2 12-1 28 3 38 10-53 101-56 108 0 13-22 24-43 59-42 82 1 51 116 57 194h-49v-107c-1-25-5-48-29-50" id="V"/><g id="p"><use transform="matrix(0.04938271604938272,0,0,0.04938271604938272,0,0)" xlink:href="#R"/><use transform="matrix(0.04938271604938272,0,0,0.04938271604938272,9.876543209876544,0)" xlink:href="#S"/><use transform="matrix(0.04938271604938272,0,0,0.04938271604938272,19.75308641975309,0)" xlink:href="#R"/><use transform="matrix(0.04938271604938272,0,0,0.04938271604938272,29.629629629629633,0)" xlink:href="#T"/><use transform="matrix(0.04938271604938272,0,0,0.04938271604938272,35.50617283950618,0)" xlink:href="#U"/><use transform="matrix(0.04938271604938272,0,0,0.04938271604938272,45.38271604938272,0)" xlink:href="#V"/></g><path fill="#333" d="M88-194c31-1 46 15 58 34l-1-101h50l1 261h-48c-2-10 0-23-3-31C134-8 116 4 84 4 32 4 16-41 15-95c0-56 19-97 73-99zm17 164c33 0 40-30 41-66 1-37-9-64-41-64s-38 30-39 65c0 43 13 65 39 65" id="W"/><path fill="#333" d="M128 0H69L1-190h53L99-40l48-150h52" id="X"/><path fill="#333" d="M25-224v-37h50v37H25zM25 0v-190h50V0H25" id="Y"/><path fill="#333" d="M190-63c-7 42-38 67-86 67-59 0-84-38-90-98-12-110 154-137 174-36l-49 2c-2-19-15-32-35-32-30 0-35 28-38 64-6 74 65 87 74 30" id="Z"/><g id="q"><use transform="matrix(0.04938271604938272,0,0,0.04938271604938272,0,0)" xlink:href="#W"/><use transform="matrix(0.04938271604938272,0,0,0.04938271604938272,10.814814814814815,0)" xlink:href="#U"/><use transform="matrix(0.04938271604938272,0,0,0.04938271604938272,20.69135802469136,0)" xlink:href="#X"/><use transform="matrix(0.04938271604938272,0,0,0.04938271604938272,30.567901234567906,0)" xlink:href="#Y"/><use transform="matrix(0.04938271604938272,0,0,0.04938271604938272,35.50617283950618,0)" xlink:href="#Z"/><use transform="matrix(0.04938271604938272,0,0,0.04938271604938272,45.38271604938272,0)" xlink:href="#U"/></g><path fill="#333" d="M110-194c64 0 96 36 96 99 0 64-35 99-97 99-61 0-95-36-95-99 0-62 34-99 96-99zm-1 164c35 0 45-28 45-65 0-40-10-65-43-65-34 0-45 26-45 65 0 36 10 65 43 65" id="aa"/><path fill="#333" d="M25 0v-261h50V0H25" id="ab"/><path fill="#333" d="M85 4C-2 5 27-109 22-190h50c7 57-23 150 33 157 60-5 35-97 40-157h50l1 190h-47c-2-12 1-28-3-38-12 25-28 42-61 42" id="ac"/><g id="r"><use transform="matrix(0.04938271604938272,0,0,0.04938271604938272,0,0)" xlink:href="#X"/><use transform="matrix(0.04938271604938272,0,0,0.04938271604938272,9.876543209876544,0)" xlink:href="#aa"/><use transform="matrix(0.04938271604938272,0,0,0.04938271604938272,20.69135802469136,0)" xlink:href="#ab"/><use transform="matrix(0.04938271604938272,0,0,0.04938271604938272,25.629629629629633,0)" xlink:href="#ac"/><use transform="matrix(0.04938271604938272,0,0,0.04938271604938272,36.44444444444445,0)" xlink:href="#V"/><use transform="matrix(0.04938271604938272,0,0,0.04938271604938272,52.24691358024692,0)" xlink:href="#U"/><use transform="matrix(0.04938271604938272,0,0,0.04938271604938272,62.12345679012346,0)" xlink:href="#R"/></g><path fill="#3a414a" d="M24 0v-261h32V0H24" id="ad"/><g id="s"><use transform="matrix(0.06172839506172839,0,0,0.06172839506172839,0,0)" xlink:href="#F"/><use transform="matrix(0.06172839506172839,0,0,0.06172839506172839,11.11111111111111,0)" xlink:href="#ad"/><use transform="matrix(0.06172839506172839,0,0,0.06172839506172839,15.987654320987653,0)" xlink:href="#v"/><use transform="matrix(0.06172839506172839,0,0,0.06172839506172839,28.333333333333332,0)" xlink:href="#E"/><use transform="matrix(0.06172839506172839,0,0,0.06172839506172839,40.67901234567901,0)" xlink:href="#B"/></g><g id="t"><use transform="matrix(0.06172839506172839,0,0,0.06172839506172839,0,0)" xlink:href="#B"/><use transform="matrix(0.06172839506172839,0,0,0.06172839506172839,12.345679012345679,0)" xlink:href="#C"/><use transform="matrix(0.06172839506172839,0,0,0.06172839506172839,24.691358024691358,0)" xlink:href="#O"/><use transform="matrix(0.06172839506172839,0,0,0.06172839506172839,35.80246913580247,0)" xlink:href="#M"/><use transform="matrix(0.06172839506172839,0,0,0.06172839506172839,40.67901234567901,0)" xlink:href="#F"/><use transform="matrix(0.06172839506172839,0,0,0.06172839506172839,51.79012345679013,0)" xlink:href="#C"/></g></defs></g></svg>